<?xml version="1.0" encoding="UTF-8"?>
<svg width="250px" height="100px" viewBox="0 0 250 100" version="1.1" xmlns="http://www.w3.org/2000/svg" xmlns:xlink="http://www.w3.org/1999/xlink">
    <!-- Generator: Sketch 59.1 (86144) - https://sketch.com -->
    <title>brand/brand_18</title>
    <desc>Created with Sketch.</desc>
    <g id="brand/brand_18" stroke="none" stroke-width="1" fill="none" fill-rule="evenodd">
        <g id="Group" transform="translate(0.000000, 32.000000)" fill-rule="nonzero">
            <g transform="translate(173.282400, 7.300509)" fill="#7D7D7D">
                <path d="M12.6542162,0.486700623 L20.6847765,21.901528 L16.5478212,21.901528 L14.6010187,16.5478212 L6.08375778,16.5478212 L4.3803056,21.901528 L0.243350311,21.901528 L8.27391058,0.486700623 L12.6542162,0.486700623 Z M10.4640634,4.3803056 L7.30050934,13.3842671 L13.6276174,13.3842671 L10.4640634,4.3803056 L10.4640634,4.3803056 Z" id="Shape"></path>
                <polygon id="Path" points="22.3882286 6.32710809 34.5557442 6.32710809 34.5557442 7.78720996 26.5251839 18.737974 34.5557442 18.737974 34.5557442 21.6581777 21.901528 21.6581777 21.901528 19.9547255 29.9320883 9.24731183 22.6315789 9.24731183 22.6315789 6.32710809"></polygon>
                <path d="M50.1301641,6.32710809 L50.1301641,21.6581777 L46.4799095,21.6581777 L46.4799095,19.7113752 L46.4799095,19.7113752 C45.9932088,20.4414261 45.2631579,20.9281268 44.533107,21.4148274 C43.803056,21.901528 42.8296548,21.901528 41.8562535,21.901528 C40.1528014,21.901528 38.6926995,21.4148274 37.7192982,20.4414261 C36.745897,19.4680249 36.2591964,17.7645727 36.2591964,15.8177702 L36.2591964,6.5704584 L39.909451,6.5704584 L39.909451,15.3310696 C39.909451,16.5478212 40.1528014,17.5212224 40.639502,18.2512733 C41.1262026,18.9813243 41.8562535,19.2246746 43.0730051,19.2246746 C44.0464063,19.2246746 45.0198076,18.9813243 45.5065082,18.2512733 C46.2365591,17.5212224 46.4799095,16.5478212 46.4799095,15.3310696 L46.4799095,6.5704584 L50.1301641,6.5704584 L50.1301641,6.32710809 Z" id="Path"></path>
                <path d="M61.0809281,6.08375778 C61.3242784,6.08375778 61.5676287,6.08375778 61.8109791,6.08375778 C62.0543294,6.08375778 62.2976797,6.08375778 62.2976797,6.32710809 L62.2976797,9.97736276 C62.0543294,9.73401245 61.8109791,9.73401245 61.5676287,9.49066214 C61.3242784,9.24731183 60.8375778,9.24731183 60.3508772,9.24731183 C59.3774759,9.24731183 58.647425,9.73401245 58.1607244,10.4640634 C57.4306735,11.1941143 57.1873231,12.4108659 57.1873231,13.8709677 L57.1873231,21.6581777 L53.5370685,21.6581777 L53.5370685,6.32710809 L57.1873231,6.32710809 L57.1873231,8.76061121 L57.1873231,8.76061121 C57.4306735,8.03056027 57.9173741,7.30050934 58.647425,6.81380872 C59.1341256,6.32710809 60.1075269,6.08375778 61.0809281,6.08375778 Z" id="Path"></path>
                <path d="M75.1952462,17.7645727 L75.1952462,20.6847765 C74.7085456,21.1714771 73.7351443,21.4148274 72.7617431,21.6581777 C71.7883418,21.901528 70.8149406,21.901528 69.598189,21.901528 C67.1646859,21.901528 65.4612337,21.1714771 64.2444822,19.7113752 C63.0277306,18.2512733 62.2976797,16.3044709 62.2976797,13.8709677 C62.2976797,11.4374646 63.0277306,9.49066214 64.4878325,8.03056027 C65.9479344,6.5704584 67.6513865,5.84040747 69.8415393,5.84040747 C72.0316921,5.84040747 73.491794,6.5704584 74.7085456,7.78720996 C75.9252971,9.00396152 76.4119977,10.950764 76.4119977,13.1409168 L76.4119977,14.844369 L65.9479344,14.844369 C66.1912847,16.3044709 66.6779853,17.5212224 67.4080362,18.007923 C68.1380872,18.737974 69.3548387,18.9813243 70.5715903,18.9813243 C71.5449915,18.9813243 72.2750424,18.737974 73.0050934,18.4946237 C73.9784946,18.737974 74.7085456,18.2512733 75.1952462,17.7645727 Z M73.0050934,12.6542162 C73.0050934,11.4374646 72.7617431,10.4640634 72.2750424,9.97736276 C71.7883418,9.24731183 71.0582909,9.00396152 69.8415393,9.00396152 C68.8681381,9.00396152 68.1380872,9.24731183 67.4080362,9.97736276 C66.6779853,10.7074137 66.1912847,11.4374646 65.9479344,12.6542162 L73.0050934,12.6542162 Z" id="Shape"></path>
            </g>
            <path d="M69.6151669,7.78720996 L69.6151669,29.2020374 L65.9649123,29.2020374 L65.9649123,12.4108659 L65.9649123,12.4108659 L59.3944539,29.2020374 L56.9609508,29.2020374 L50.147142,12.4108659 L50.147142,12.4108659 L50.147142,29.2020374 L46.7402377,29.2020374 L46.7402377,7.78720996 L51.6072439,7.78720996 L57.6910017,23.6049802 L57.6910017,23.6049802 L64.2614601,7.78720996 L69.6151669,7.78720996 Z M72.5353707,9.24731183 C72.5353707,8.76061121 72.778721,8.03056027 73.2654216,7.78720996 C73.7521222,7.30050934 74.2388229,7.30050934 74.7255235,7.30050934 C75.4555744,7.30050934 75.942275,7.54385965 76.1856254,8.03056027 C76.672326,8.51726089 76.9156763,9.00396152 76.9156763,9.49066214 C76.9156763,9.97736276 76.672326,10.4640634 76.1856254,10.950764 C75.6989247,11.4374646 75.2122241,11.4374646 74.7255235,11.4374646 C74.2388229,11.4374646 73.5087719,11.1941143 73.2654216,10.950764 C72.778721,10.4640634 72.5353707,9.97736276 72.5353707,9.24731183 Z M76.672326,13.6276174 L76.672326,28.958687 L73.0220713,28.958687 L73.0220713,13.6276174 L76.672326,13.6276174 Z M87.62309,26.5251839 C88.1097906,26.5251839 88.8398415,26.2818336 89.3265422,26.0384833 C90.0565931,25.795133 90.5432937,25.5517827 91.0299943,25.0650821 L91.0299943,28.4719864 C90.5432937,28.7153367 89.8132428,28.958687 89.0831919,29.2020374 C88.3531409,29.4453877 87.62309,29.4453877 86.6496887,29.4453877 C84.4595359,29.4453877 82.5127334,28.7153367 81.0526316,27.2552349 C79.5925297,25.795133 78.8624788,24.0916808 78.8624788,21.901528 C78.8624788,19.4680249 79.5925297,17.5212224 81.0526316,15.8177702 C82.5127334,14.1143181 84.4595359,13.3842671 87.1363894,13.3842671 C87.8664403,13.3842671 88.5964912,13.3842671 89.0831919,13.6276174 C89.8132428,13.8709677 90.2999434,14.1143181 90.786644,14.1143181 L90.786644,17.5212224 C90.2999434,17.0345218 89.5698925,16.7911715 89.0831919,16.5478212 C88.5964912,16.3044709 87.8664403,16.3044709 87.3797397,16.3044709 C85.9196378,16.3044709 84.7028862,16.7911715 83.9728353,17.7645727 C82.9994341,18.737974 82.7560838,19.9547255 82.7560838,21.4148274 C82.7560838,22.8749293 83.2427844,24.0916808 83.9728353,25.0650821 C84.9462366,26.0384833 86.1629881,26.5251839 87.62309,26.5251839 Z M101.250707,13.3842671 C101.494058,13.3842671 101.737408,13.3842671 101.980758,13.3842671 C102.224109,13.3842671 102.467459,13.3842671 102.467459,13.6276174 L102.467459,17.2778721 C102.224109,17.0345218 101.980758,17.0345218 101.737408,16.7911715 C101.494058,16.5478212 101.007357,16.5478212 100.520656,16.5478212 C99.5472552,16.5478212 98.8172043,17.0345218 98.3305037,17.7645727 C97.6004527,18.4946237 97.3571024,19.7113752 97.3571024,21.1714771 L97.3571024,28.958687 L93.7068478,28.958687 L93.7068478,13.6276174 L97.3571024,13.6276174 L97.3571024,16.0611205 L97.3571024,16.0611205 C97.6004527,15.3310696 98.0871534,14.6010187 98.8172043,14.1143181 C99.5472552,13.6276174 100.520656,13.3842671 101.250707,13.3842671 Z M102.95416,21.6581777 C102.95416,19.2246746 103.684211,17.0345218 105.144312,15.5744199 C106.604414,14.1143181 108.551217,13.3842671 110.98472,13.3842671 C113.418223,13.3842671 115.365025,14.1143181 116.581777,15.5744199 C118.041879,17.0345218 118.52858,18.9813243 118.52858,21.4148274 C118.52858,23.8483305 117.798529,25.795133 116.338427,27.2552349 C114.878325,28.7153367 112.931522,29.4453877 110.498019,29.4453877 C108.064516,29.4453877 106.117714,28.7153367 104.900962,27.2552349 C103.684211,26.0384833 102.95416,24.0916808 102.95416,21.6581777 Z M106.604414,21.4148274 C106.604414,23.1182796 106.847765,24.3350311 107.577816,25.0650821 C108.307866,25.795133 109.281268,26.2818336 110.74137,26.2818336 C111.958121,26.2818336 112.931522,25.795133 113.661573,25.0650821 C114.391624,24.3350311 114.634975,22.8749293 114.634975,21.4148274 C114.634975,19.7113752 114.391624,18.4946237 113.661573,17.7645727 C112.931522,17.0345218 111.958121,16.5478212 110.74137,16.5478212 C109.524618,16.5478212 108.307866,17.0345218 107.577816,17.7645727 C107.091115,18.4946237 106.604414,19.9547255 106.604414,21.4148274 Z M123.882286,17.7645727 C123.882286,18.2512733 124.125637,18.737974 124.368987,18.9813243 C124.612337,19.2246746 125.342388,19.7113752 126.55914,20.1980758 C128.019242,20.6847765 128.992643,21.4148274 129.479344,22.1448783 C129.966044,22.8749293 130.452745,23.8483305 130.452745,24.8217317 C130.452745,26.2818336 129.966044,27.4985852 128.749293,28.2286361 C127.532541,29.2020374 126.072439,29.4453877 124.368987,29.4453877 C123.638936,29.4453877 122.908885,29.4453877 122.178834,29.2020374 C121.448783,28.958687 120.718732,28.958687 120.232032,28.7153367 L120.232032,25.0650821 C120.962083,25.5517827 121.692134,25.795133 122.422184,26.0384833 C123.152235,26.2818336 123.882286,26.5251839 124.368987,26.5251839 C125.099038,26.5251839 125.829089,26.5251839 126.072439,26.2818336 C126.55914,26.0384833 126.55914,25.5517827 126.55914,25.0650821 C126.55914,24.5783814 126.315789,24.0916808 126.072439,23.8483305 C125.585739,23.6049802 124.855688,23.1182796 123.882286,22.6315789 C122.665535,22.1448783 121.692134,21.4148274 120.962083,20.6847765 C120.475382,19.9547255 120.232032,19.2246746 120.232032,18.007923 C120.232032,16.5478212 120.718732,15.5744199 121.935484,14.6010187 C123.152235,13.6276174 124.368987,13.3842671 126.315789,13.3842671 C126.80249,13.3842671 127.532541,13.3842671 128.019242,13.6276174 C128.749293,13.6276174 129.235993,13.8709677 129.722694,14.1143181 L129.722694,17.5212224 C129.235993,17.2778721 128.749293,17.0345218 128.019242,16.7911715 C127.289191,16.5478212 126.80249,16.5478212 126.072439,16.5478212 C125.342388,16.5478212 124.855688,16.7911715 124.368987,17.0345218 C124.125637,17.0345218 123.882286,17.2778721 123.882286,17.7645727 Z M132.156197,21.6581777 C132.156197,19.2246746 132.886248,17.0345218 134.34635,15.5744199 C135.806452,14.1143181 137.753254,13.3842671 140.186757,13.3842671 C142.62026,13.3842671 144.567063,14.1143181 145.783814,15.5744199 C147.243916,17.0345218 147.730617,18.9813243 147.730617,21.4148274 C147.730617,23.8483305 147.000566,25.795133 145.540464,27.2552349 C144.080362,28.7153367 142.13356,29.4453877 139.700057,29.4453877 C137.266553,29.4453877 135.319751,28.7153367 134.102999,27.2552349 C132.886248,26.0384833 132.156197,24.0916808 132.156197,21.6581777 Z M135.806452,21.4148274 C135.806452,23.1182796 136.049802,24.3350311 136.779853,25.0650821 C137.509904,25.795133 138.483305,26.2818336 139.943407,26.2818336 C141.160158,26.2818336 142.13356,25.795133 142.863611,25.0650821 C143.593662,24.3350311 143.837012,22.8749293 143.837012,21.4148274 C143.837012,19.7113752 143.593662,18.4946237 142.863611,17.7645727 C142.13356,17.0345218 141.160158,16.5478212 139.943407,16.5478212 C138.726655,16.5478212 137.509904,17.0345218 136.779853,17.7645727 C136.293152,18.4946237 135.806452,19.9547255 135.806452,21.4148274 Z M159.898132,16.7911715 L154.544426,16.7911715 L154.544426,29.2020374 L150.894171,29.2020374 L150.894171,16.7911715 L148.217317,16.7911715 L148.217317,13.8709677 L150.894171,13.8709677 L150.894171,11.6808149 C150.894171,9.97736276 151.380872,8.76061121 152.354273,7.78720996 C153.327674,6.81380872 154.787776,6.32710809 156.491228,6.32710809 C156.977929,6.32710809 157.221279,6.32710809 157.70798,6.32710809 C157.95133,6.32710809 158.438031,6.32710809 158.681381,6.5704584 L158.681381,9.73401245 C158.681381,9.73401245 158.438031,9.49066214 157.95133,9.49066214 C157.70798,9.49066214 157.221279,9.24731183 156.977929,9.24731183 C156.247878,9.24731183 155.761177,9.49066214 155.274477,9.97736276 C154.787776,10.4640634 154.544426,11.1941143 154.544426,12.1675156 L154.544426,14.1143181 L159.898132,14.1143181 L159.898132,10.7074137 L163.548387,9.49066214 L163.548387,14.1143181 L167.198642,14.1143181 L167.198642,17.0345218 L163.548387,17.0345218 L163.548387,24.0916808 C163.548387,25.0650821 163.791737,25.795133 164.035088,26.0384833 C164.278438,26.5251839 165.008489,26.5251839 165.73854,26.5251839 C165.98189,26.5251839 166.225241,26.5251839 166.468591,26.2818336 C166.711941,26.2818336 166.955291,26.0384833 167.198642,26.0384833 L167.198642,28.958687 C166.955291,29.2020374 166.468591,29.2020374 165.98189,29.2020374 C165.49519,29.2020374 165.008489,29.4453877 164.521788,29.4453877 C163.061686,29.4453877 161.844935,28.958687 161.114884,28.2286361 C160.384833,27.4985852 159.898132,26.2818336 159.898132,24.5783814 L159.898132,16.7911715 Z" id="Shape" fill="#7D7D7D"></path>
            <g id="Rectangle">
                <rect fill="#EB6100" x="0.0169779287" y="0.486700623" width="17.0345218" height="17.0345218"></rect>
                <rect fill="#8FC31F" x="18.7549519" y="0.486700623" width="17.0345218" height="17.0345218"></rect>
                <rect fill="#00A0E9" x="0.0169779287" y="19.2246746" width="17.0345218" height="17.0345218"></rect>
                <rect fill="#FCC800" x="18.7549519" y="19.2246746" width="17.0345218" height="17.0345218"></rect>
            </g>
        </g>
    </g>
</svg>