<?xml version="1.0" encoding="UTF-8"?>
<svg width="250px" height="100px" viewBox="0 0 250 100" version="1.1" xmlns="http://www.w3.org/2000/svg" xmlns:xlink="http://www.w3.org/1999/xlink">
    <!-- Generator: Sketch 59.1 (86144) - https://sketch.com -->
    <title>brand/brand_09</title>
    <desc>Created with Sketch.</desc>
    <g id="brand/brand_09" stroke="none" stroke-width="1" fill="none" fill-rule="evenodd">
        <path d="M142.384164,27.4017595 C142.384164,27.4017595 142.636364,27.4017595 142.888563,27.9061584 L142.888563,27.9061584 L144.905666,27.9061584 L144.905666,27.9061584 L144.977215,27.9105205 C145.143894,27.9277394 145.451079,27.9945487 145.774794,28.0861532 L145.875396,28.1149371 L145.914396,28.1579371 L145.911396,28.1259371 L145.937455,28.1339069 C146.154643,28.2000275 146.369994,28.2753315 146.546775,28.3524721 L146.671554,28.4105572 C146.923754,28.4105572 147.175953,28.6627566 147.175953,28.6627566 L147.175953,28.6627566 L146.923754,28.6627566 C147.428152,28.6627566 147.428152,28.6627566 147.680352,28.914956 L147.680352,28.914956 L147.428152,28.914956 L147.428152,28.914956 L147.442123,28.9289262 C147.477416,28.9642195 147.571531,29.0583347 147.630353,29.1171567 L147.680352,29.1671554 L147.932551,29.4193548 L146.923754,29.4193548 L146.923754,29.9237537 L145.410557,29.9237537 L145.410557,30.6803519 L144.40176,30.6803519 L144.40176,31.1847507 L143.897361,31.1847507 L143.897361,31.6891496 L142.888563,31.6891496 L142.888563,32.1935484 L142.384164,32.1935484 L142.384164,32.6979472 L141.879765,32.6979472 L141.879765,33.202346 L141.375367,33.202346 L141.375367,33.7067449 L140.870968,33.7067449 L140.870968,34.2111437 L140.366569,34.2111437 L140.366569,35.2199413 L139.86217,35.2199413 L139.86217,36.228739 L139.357771,36.228739 L139.357771,37.2375367 L138.853372,37.2375367 L138.853372,38.2463343 L138.348974,38.2463343 L138.348974,39.255132 L137.844575,39.255132 L137.844575,40.7683284 L137.340176,40.7683284 L137.340176,48.3343109 L137.844575,48.3343109 L137.844575,49.8475073 L138.348974,49.8475073 L138.348974,50.856305 L138.853372,50.856305 L138.853372,51.8651026 L139.357771,51.8651026 L139.357771,52.8739003 L140.11437,52.8739003 L140.11437,53.3782991 L140.618768,53.3782991 L140.618768,54.3870968 L141.123167,54.3870968 L141.123167,54.8914956 L141.627566,54.8914956 L141.627566,55.3958944 L142.131965,55.3958944 L142.131965,56.1524927 L142.636364,56.1524927 L142.636364,56.6568915 L143.140762,56.6568915 L143.140762,57.1612903 L144.14956,57.1612903 L144.14956,57.6656891 L145.158358,57.6656891 L145.158358,55.6480938 L146.167155,55.6480938 L146.167155,56.1524927 L147.680352,56.1524927 L147.680352,56.6568915 L149.193548,56.6568915 L149.193548,57.1612903 L150.706745,57.1612903 L150.706745,55.143695 C150.454545,54.8914956 150.454545,50.3519062 150.706745,50.3519062 L150.706745,50.3519062 L150.706745,50.0997067 C150.706745,49.8475073 150.958944,48.8387097 150.958944,48.8387097 L150.958944,48.8387097 L150.958944,48.5865103 C150.958944,48.5865103 151.211144,48.0821114 151.211144,47.829912 C151.463343,47.5777126 151.463343,47.0733138 151.463343,47.0733138 L151.463343,46.568915 C151.463343,46.3167155 151.463343,46.3167155 151.715543,46.568915 L151.715543,46.568915 L152.97654,46.568915 L152.97654,47.5777126 L154.237537,47.5777126 L154.237537,46.568915 L156.255132,46.568915 L156.255132,45.5601173 L157.26393,45.5601173 L157.26393,43.542522 L158.272727,43.542522 L158.272727,40.516129 L157.26393,40.516129 L157.26393,38.4985337 L156.614936,38.498459 C155.971548,38.4974128 155.767546,38.4817204 156.002933,38.2463343 C156.255132,37.9941349 156.255132,37.9941349 156.255132,37.9941349 L156.506839,37.9941349 L156.506839,37.9941349 L156.591052,37.9768373 C156.812462,37.8882734 157.01173,37.4897361 157.01173,37.4897361 L157.01173,37.4897361 L157.26393,37.4897361 L157.26393,37.4897361 L157.264422,37.4788994 C157.26787,37.4306268 157.295455,37.2375367 157.516129,37.2375367 L157.516129,37.2375367 L157.768328,36.9853372 C157.768328,36.7331378 159.281525,35.9765396 160.038123,35.7243402 C160.542522,35.4721408 160.794721,35.4721408 160.794721,35.4721408 L161.046921,35.4721408 C161.55132,35.2199413 163.821114,34.7155425 164.829912,34.7155425 L164.829912,34.7155425 L168.360704,34.7155425 C168.865103,34.7155425 170.630499,34.9677419 171.134897,35.2199413 L171.134897,35.2199413 L172.395894,35.2199413 C172.648094,35.2199413 174.16129,35.7243402 174.665689,35.9765396 C175.333276,36.4215974 176.197212,36.8666552 176.391251,36.9652147 L176.431085,36.9853372 C176.431085,36.9853372 176.431085,37.2375367 176.683284,37.2375367 C177.439883,37.4897361 178.196481,38.2463343 178.196481,38.2463343 L178.196481,38.2463343 L178.44868,38.2463343 C178.44868,38.4985337 178.44868,38.4985337 178.44868,38.4985337 L178.543255,38.509863 C178.76393,38.5615836 178.984604,38.7822581 179.205279,39.0029326 C179.205279,39.255132 179.457478,39.255132 179.457478,39.255132 C179.457478,39.255132 180.246769,40.0444227 180.685264,40.4829176 L181.222874,41.0205279 C181.475073,41.2727273 181.727273,41.2727273 181.727273,41.5249267 C181.79933,41.5969837 181.850799,41.6484529 181.893445,41.6910989 L182.231672,42.0293255 C182.231672,42.2815249 182.483871,42.5337243 182.73607,42.7859238 L182.978929,43.0287824 C183.053655,43.1035082 183.11904,43.1688932 183.165743,43.2155968 L183.240469,43.2903226 L183.240469,43.2903226 C183.243583,43.3463669 183.268491,43.5705442 183.492669,43.7947214 C183.997067,44.5513196 184.753666,46.3167155 185.005865,46.8211144 C185.005865,46.8211144 185.258065,47.0733138 185.258065,47.3255132 C185.510264,47.5777126 185.762463,48.5865103 185.762463,49.0909091 C185.762463,49.5953079 186.014663,50.6041056 186.014663,50.6041056 L186.014663,50.6041056 L186.014663,50.856305 C186.266862,51.3607038 186.266862,53.1260997 186.266862,54.1348974 C186.014663,55.143695 185.762463,56.6568915 185.762463,56.9090909 L185.762463,56.9090909 L185.762463,57.1612903 C185.762463,57.4134897 185.510264,58.170088 185.510264,58.170088 L185.510264,58.170088 L185.510264,59.431085 C185.510264,59.6832845 185.258065,59.9354839 185.258065,60.1876833 L185.258065,60.1876833 L185.258065,60.6920821 C185.258065,60.6920821 185.005865,61.1964809 185.005865,61.1964809 C185.005865,61.1964809 184.753666,61.4486804 184.753666,61.7008798 C184.501466,61.9530792 184.501466,62.2052786 184.501466,62.2052786 C184.501466,62.457478 184.249267,62.457478 184.249267,62.457478 L184.249267,62.457478 L184.249267,62.9618768 C184.249267,62.9618768 183.997067,63.2140762 183.997067,63.4662757 C183.744868,63.7184751 183.744868,63.9706745 183.744868,63.9706745 C183.744868,64.2228739 183.240469,64.7272727 183.240469,64.7272727 L183.240469,64.7272727 L183.237032,64.7810753 C183.204601,65.0478462 182.93783,65.5343109 182.231672,66.2404692 C182.000489,66.5872434 181.504409,67.0929558 181.034819,67.5390663 L180.970396,67.5989371 L180.970674,68.0058651 L180.718475,68.0058651 C180.896498,68.0058651 180.948858,68.0058651 180.964258,67.6510509 L180.964396,67.6049371 L180.907625,67.6590909 C180.487292,68.0531525 180.110745,68.3815371 179.996905,68.4800525 L179.972396,68.4999371 L179.969224,68.4761705 C179.963714,68.4289907 179.962336,68.3735459 179.961992,68.3160348 L179.961531,68.1829928 C179.958763,68.0058651 179.933855,68.0058651 179.709677,68.0058651 L179.709677,68.0058651 L179.457478,68.0058651 L179.457478,66.9970674 L180.466276,66.9970674 L180.466276,65.9882698 L180.970674,65.9882698 L180.970674,63.4662757 L181.475073,63.4662757 L181.475073,65.9882698 L181.979472,65.9882698 L181.979472,64.4750733 L182.483871,64.4750733 L182.483871,62.9618768 L181.979472,62.9618768 L181.979472,59.9354839 L182.483871,59.9354839 L182.483871,57.9178886 L181.979472,57.9178886 L181.979472,56.9090909 L180.970674,56.9090909 L180.970674,55.9002933 L181.297946,55.8999473 C181.475073,55.8971797 181.475073,55.8722711 181.475073,55.6480938 L181.474727,55.5730221 C181.47196,55.3958944 181.447051,55.3958944 181.222874,55.3958944 C181.004301,55.3958944 180.975158,55.3958944 180.971272,54.903377 L180.970674,54.8914956 L179.961877,54.8914956 L179.961877,52.8739003 L179.634606,52.8735543 C179.457478,52.8707867 179.457478,52.8458781 179.457478,52.6217009 C179.457478,52.3695015 179.457478,52.3695015 179.205279,52.3695015 L179.130207,52.3691555 C178.953079,52.3663879 178.953079,52.3414793 178.953079,52.1173021 C178.953079,51.8651026 178.953079,51.8651026 178.70088,51.8651026 C178.44868,51.8651026 178.44868,51.8651026 178.44868,51.6129032 C178.44868,51.3607038 178.44868,51.3607038 178.196481,51.3607038 C177.944282,51.3607038 177.944282,51.3607038 177.944282,51.1085044 L177.944282,51.1085044 L177.944282,50.856305 L175.926686,50.856305 L175.926686,49.8475073 L176.03743,49.8474326 C175.422287,49.8463864 175.422287,49.830694 175.422287,49.5953079 C175.422287,49.3431085 175.422287,49.3431085 175.170088,49.3431085 L175.095016,49.3434545 C174.917889,49.3462221 174.917889,49.3711307 174.917889,49.5953079 L174.917889,49.8475073 L173.909091,49.8475073 L173.909091,48.8387097 L172.900293,48.8387097 L172.900293,48.3343109 L170.882698,48.3343109 L170.882698,48.8387097 L166.847507,48.8387097 L166.85164,48.7807394 C166.883323,48.550695 167.080307,48.3537108 166.847507,48.5865103 L166.847396,48.5859371 L166.847507,48.8387097 L166.595654,48.8383637 L166.595654,48.8383637 L166.847396,48.5859371 L166.847507,48.3343109 L165.839002,48.3343109 L165.839002,48.3343109 L165.83871,48.5865103 C165.83871,48.8387097 166.090909,49.0909091 166.090909,49.0909091 L166.090909,49.0909091 L166.343109,49.3431085 L166.343109,49.0909091 C166.343109,48.8387097 166.343109,48.8387097 166.595308,48.8387097 L166.595308,48.8387097 L166.595497,48.850647 C166.597392,48.9283343 166.618235,49.3660357 166.847507,49.5953079 L166.847507,49.5953079 L166.847507,51.3607038 C167.057674,51.7810362 167.092701,51.8510916 167.244488,52.3006137 L167.351906,52.6217009 C168.360704,55.6480938 168.612903,56.9090909 168.612903,56.9090909 L168.612903,56.9090909 L168.612903,57.1612903 C168.612903,57.1612903 168.865103,57.6656891 168.865103,57.9178886 C169.117302,58.4222874 169.117302,58.6744868 169.117302,58.6744868 L169.117302,58.9266862 C169.369501,59.6832845 170.1261,62.7096774 170.378299,64.4750733 C170.630499,65.483871 170.882698,67.5014663 170.882698,68.7624633 L170.882698,68.7624633 L170.882698,74.058651 C170.630499,74.3108504 170.630499,75.0674487 170.630499,75.3196481 C170.630499,75.8240469 170.378299,76.5806452 170.378299,77.085044 C170.1261,77.8416422 170.1261,78.3460411 170.1261,78.3460411 L170.1261,78.3460411 L168.360704,78.3460411 C168.108504,78.5982405 167.604106,78.5982405 167.351906,78.5982405 C167.099707,78.8504399 166.847507,78.8504399 166.090909,78.8504399 C165.83871,78.8504399 165.334311,79.1026393 165.082111,79.1026393 C164.829912,79.3548387 164.325513,79.3548387 164.073314,79.3548387 C163.821114,79.6070381 163.568915,79.6070381 163.316716,79.6070381 C163.064516,79.6070381 162.560117,79.6070381 161.55132,79.8592375 C161.29912,80.111437 161.046921,80.111437 160.794721,80.111437 C159.785924,80.3636364 159.029326,80.6158358 158.777126,80.6158358 C158.524927,80.6158358 158.272727,80.8680352 158.020528,80.8680352 C157.768328,81.1202346 157.516129,81.1202346 157.516129,81.1202346 L157.516129,81.1202346 L157.188858,81.1205806 C157.01173,81.1233482 157.01173,81.1482568 157.01173,81.372434 L157.01173,81.6241409 L157.01173,81.6241409 L158.524927,81.6246334 L158.524927,82.1290323 L159.533724,82.1290323 L159.533724,82.6334311 L161.046921,82.6334311 L161.046921,83.1378299 L162.560117,83.1378299 L162.560117,84.1466276 L164.073314,84.1466276 L164.073314,84.6510264 L166.343109,84.6510264 L166.343109,85.1554252 L167.856305,85.1554252 C168.108504,85.4076246 168.108504,85.1554252 168.108504,85.1554252 L168.108504,85.1554252 L168.115566,85.2235191 C168.156422,85.4051026 168.360704,85.3824047 168.360704,85.1554252 C168.360704,84.9032258 168.612903,84.6510264 168.612903,84.6510264 C168.612903,84.6510264 168.865103,84.6510264 168.865103,84.398827 C168.865103,84.1466276 169.117302,84.1466276 169.117302,84.1466276 L169.117302,84.1466276 L169.143531,83.9953079 C169.208094,83.7935484 169.369501,83.5917889 169.369501,83.3900293 C169.621701,83.3900293 169.621701,83.1378299 169.621701,83.1378299 L169.621701,83.1378299 L169.8739,82.8856305 C170.1261,82.8856305 170.1261,82.6334311 170.1261,82.6334311 L170.1261,81.8768328 L170.1261,81.8768328 L195.85044,81.8768328 L195.85044,81.8768328 L195.850396,82.3809371 L195.59824,82.3812317 L195.59824,82.3812317 L195.597748,82.3920684 C195.5943,82.4403409 195.566716,82.6334311 195.346041,82.6334311 L195.346041,82.6334311 L195.093842,82.8856305 L195.093842,82.8856305 L194.98843,82.8969598 C194.719483,82.9486804 194.305718,83.1693548 194.085044,83.3900293 L194.085044,83.3900293 L193.82385,83.3903753 C193.7768,83.3931429 193.552623,83.4180515 193.328446,83.6422287 C192.571848,84.1466276 192.571848,84.1466276 192.067449,84.398827 C191.815249,84.6510264 191.56305,84.6510264 191.56305,84.6510264 L191.56305,84.6510264 L191.31085,84.6510264 C191.058651,84.9032258 190.806452,84.9032258 190.554252,85.1554252 C190.049853,85.4076246 189.797654,85.659824 189.545455,85.659824 C188.788856,85.9120235 188.032258,86.1642229 188.032258,86.1642229 L188.032258,86.1642229 L188.01496,86.2392946 C187.926397,86.4164223 187.527859,86.4164223 187.527859,86.4164223 L187.527859,86.4164223 L187.513636,86.4664804 C187.374175,86.7297012 186.2511,87.1730205 186.014663,87.1730205 L186.014663,87.1730205 C185.958618,87.1761341 185.734441,87.2010427 185.510264,87.4252199 C185.005865,87.6774194 184.501466,87.9296188 184.249267,87.9296188 C183.997067,87.9296188 183.240469,88.1818182 182.98827,88.1818182 C182.73607,88.1818182 182.231672,88.4340176 181.727273,88.4340176 C181.475073,88.4340176 180.970674,88.686217 180.718475,88.686217 C177.187683,89.4428152 175.422287,89.6950147 172.395894,89.6950147 C169.8739,89.9472141 168.612903,89.6950147 166.343109,89.4428152 C165.082111,89.1906158 162.812317,88.686217 162.560117,88.686217 L162.560117,88.686217 L162.307918,88.686217 C162.055718,88.686217 160.542522,88.1818182 160.542522,88.1818182 L160.542522,88.1818182 L160.290323,88.1818182 C160.290323,88.1818182 158.777126,87.6774194 158.272727,87.4252199 L158.272727,87.4252199 L158.020528,87.4252199 C157.768328,87.4252199 157.768328,87.1730205 157.516129,87.1730205 C157.26393,87.1730205 157.01173,86.9208211 156.759531,86.9208211 C156.759531,86.6686217 156.255132,86.6686217 156.002933,86.4164223 C155.750733,86.4164223 155.498534,86.1642229 155.246334,86.1642229 C154.994135,86.1642229 154.489736,85.9120235 152.97654,85.1554252 C152.219941,84.6510264 150.706745,83.8944282 150.454545,83.6422287 C150.454545,83.3900293 150.202346,83.3900293 150.202346,83.3900293 C149.950147,83.3900293 148.941349,82.6334311 148.68915,82.3812317 L148.68915,82.3812317 L148.43695,82.3812317 C148.43695,82.3812317 147.175953,81.6246334 146.923754,81.372434 C146.923754,81.372434 146.419355,81.1202346 145.914956,80.6158358 C145.662757,80.3636364 145.158358,79.8592375 145.158358,79.8592375 L145.158358,79.8592375 L145.12333,79.8242098 C144.872882,79.5737618 143.350929,78.0518084 142.888563,77.5894428 C142.636364,77.3372434 142.384164,77.085044 142.131965,76.8328446 C141.627566,76.3284457 140.870968,75.5718475 140.618768,75.0674487 C140.618768,74.8152493 140.366569,74.8152493 140.366569,74.5630499 C140.366569,74.3108504 140.11437,74.058651 140.11437,74.058651 C139.86217,74.058651 139.86217,73.8064516 139.609971,73.5542522 C139.609971,73.3020528 139.357771,73.0498534 139.357771,73.0498534 L139.357771,73.0498534 L139.35127,73.0369258 C139.291639,72.9187097 138.836559,72.0242424 138.601173,71.7888563 C138.348974,71.7888563 138.348974,71.5366569 138.348974,71.5366569 C138.348974,71.5366569 138.096774,71.5366569 138.096774,71.2844575 C137.844575,71.2844575 137.844575,71.0322581 137.844575,71.0322581 C137.844575,71.0322581 137.592375,71.0322581 137.592375,70.7800587 C137.340176,70.7800587 137.340176,70.5278592 137.340176,70.5278592 C137.087977,70.2756598 137.087977,70.0234604 137.087977,70.0234604 L137.087977,70.0234604 C137.055466,69.9288856 136.804252,69.2195748 136.331378,68.5102639 C135.322581,66.4926686 135.322581,66.4926686 135.322581,66.4926686 L135.239335,66.4818319 C135.070381,66.4335594 135.070381,66.2404692 135.070381,66.2404692 C135.070381,66.2404692 135.070381,65.7360704 134.818182,65.483871 C134.565982,65.2316716 134.565982,64.9794721 134.565982,64.9794721 L134.565982,64.9794721 L134.53298,64.8804642 C134.384714,64.4356672 133.777859,62.6151026 133.557185,61.9530792 C133.052786,60.1876833 132.800587,58.9266862 132.548387,56.9090909 C132.548387,56.4046921 132.296188,54.3870968 132.296188,54.1348974 L132.296188,54.1348974 L132.296188,42.0293255 C132.548387,41.7771261 132.548387,41.5249267 132.548387,41.2727273 C132.800587,41.0205279 132.800587,40.7683284 132.800587,40.7683284 L132.800587,40.7683284 L132.800587,39.0029326 L132.800587,39.0029326 L132.826815,38.8516129 C132.891378,38.6498534 133.052786,38.4480938 133.052786,38.2463343 L133.052786,38.2463343 L133.052786,37.9941349 C133.304985,37.9941349 133.304985,37.7419355 133.304985,37.7419355 L133.304985,37.4897361 L133.304985,37.4897361 L133.31348,37.4727468 C133.36307,37.3735659 133.617221,36.8652641 133.741197,36.6173121 L133.809384,36.4809384 L133.809384,36.4809384 L133.809384,35.9765396 C133.809384,35.9765396 134.061584,35.7243402 134.061584,35.4721408 C134.061584,35.2199413 134.313783,34.9677419 134.313783,34.7155425 C134.313783,34.4633431 134.565982,34.4633431 134.565982,34.2111437 C134.818182,33.9589443 134.818182,33.9589443 134.818182,33.9589443 L134.768706,33.9503348 C134.604782,33.8828368 134.837582,33.4351455 135.070381,33.202346 L135.070381,33.202346 L135.076882,33.192557 C135.136514,33.1025872 135.591593,32.4121212 135.826979,31.941349 C136.079179,31.941349 136.079179,31.6891496 136.079179,31.6891496 C136.079179,31.6891496 136.079179,31.4369501 136.331378,31.1847507 C136.583578,30.9325513 136.583578,30.6803519 136.583578,30.6803519 L136.583578,30.6803519 L136.594414,30.6798593 C136.642687,30.6764113 136.835777,30.648827 136.835777,30.4281525 C137.340176,29.6715543 138.096774,28.914956 138.348974,28.914956 L138.348974,28.914956 L138.35981,28.8208738 C138.408083,28.6036474 138.601173,28.4105572 138.601173,28.4105572 L138.651172,28.3605585 C138.724699,28.2870309 138.853372,28.1583578 138.853372,28.1583578 C139.357771,27.9061584 140.11437,27.6539589 140.11437,27.6539589 L140.11437,27.6539589 L140.135554,27.6468974 C140.258123,27.6060411 140.870968,27.4017595 140.870968,27.4017595 L140.870968,27.4017595 Z M195.861396,82.3689371 L195.85438,82.4442815 L195.85438,82.4442815 L195.850396,82.5279371 L195.850396,82.3809371 L195.85882,82.372737 L195.85882,82.372737 L195.861396,82.3689371 Z M196.102639,81.8768328 L196.147982,81.8853275 C196.258183,81.940428 195.978089,82.2480722 195.881663,82.3490897 L195.861396,82.3689371 L195.863739,82.3497067 C195.881472,82.223607 195.922849,82.0975073 196.019394,81.9714076 L196.102639,81.8768328 L196.102639,81.8768328 Z M195.59843,80.553307 C195.600325,80.3657207 195.621168,80.3865636 195.85044,80.6158358 C196.102639,80.8680352 196.354839,81.1202346 196.354839,81.372434 C196.354839,81.6246334 196.102639,81.8768328 196.102639,81.8768328 L196.102639,81.8768328 L196.102639,81.1202346 L195.85044,81.372434 L195.59824,81.6246334 L195.59824,80.6158358 L195.59824,80.6158358 Z M168.865103,80.8680352 L168.922898,80.8728515 C169.115551,80.9065657 169.096285,81.099218 168.865103,80.8680352 L168.865103,80.8680352 Z M169.621701,80.111437 C169.8739,79.8592375 169.8739,80.3636364 169.621701,80.6158358 L169.621701,80.6158358 Z M193.832845,80.111437 L194.085044,80.3636364 L194.085044,80.3636364 L193.832845,80.3636364 L193.832845,80.3636364 L193.580645,80.111437 L193.580645,80.111437 L193.832845,80.111437 L193.832845,80.111437 Z M193.578396,80.0899371 L193.580456,80.1057525 L193.580456,80.1057525 L193.580645,80.111437 L193.578396,80.0899371 Z M193.573584,80.0433431 L193.578396,80.0899371 L193.575529,80.070509 C193.563592,80.0187807 193.523801,79.9484832 193.391164,80.0545926 L193.328446,80.111437 L193.328446,80.111437 C193.328446,79.8844575 193.532727,79.8617595 193.573584,80.0433431 Z M192.324902,79.5540587 C192.363433,79.3951206 192.613881,79.6070381 193.076246,79.6070381 L193.076246,79.6070381 L193.328446,79.8592375 L192.571848,79.8592375 C192.319648,79.8592375 192.319648,79.8592375 192.319648,79.6070381 L192.319648,79.6070381 Z M191.31085,79.1026393 C191.535028,79.1026393 191.559936,79.1026393 191.562704,79.279767 L191.56305,79.3548387 C191.56305,79.3548387 191.56305,79.1617485 191.394096,79.113476 L191.31085,79.1026393 L191.31085,79.1026393 Z M190.806452,79.1026393 L190.748656,79.1556187 C190.76617,79.1411698 190.785435,79.1236559 190.806452,79.1026393 Z M191.058651,78.8504399 C191.058651,78.8504399 191.31085,79.1026393 191.058651,79.1026393 L191.058651,79.1026393 L190.563247,79.1022933 C190.610297,79.0995257 190.834474,79.0746171 191.058651,78.8504399 Z M169.668804,78.806108 C169.90247,78.5992256 170.094575,78.6140029 169.621701,78.8504399 L169.621701,78.8504399 L169.626396,78.8449371 Z M188.536657,78.5982405 C188.788856,78.5982405 188.788856,78.5982405 189.293255,78.8504399 L189.293255,78.8504399 L189.210786,78.8433783 C188.94522,78.802522 188.536657,78.5982405 188.536657,78.5982405 Z M189.293255,78.5982405 L189.797654,78.8504399 L189.545455,78.8504399 C189.312655,78.6176404 189.079856,78.5997328 189.24378,78.5983553 L189.293255,78.5982405 L189.293255,78.5982405 Z M169.656396,78.8149371 L169.626396,78.8449371 L169.639215,78.832926 L169.639215,78.832926 L169.656396,78.8149371 Z M188.037074,78.5404448 C188.070789,78.3477924 188.263441,78.3670577 188.032258,78.5982405 L188.032258,78.5982405 Z M170.133161,78.5301466 C170.174018,78.348563 170.378299,78.371261 170.378299,78.5982405 L170.378299,78.5982405 L170.1261,78.5982405 L170.1261,78.5982405 Z M186.778323,78.2779472 C186.819179,78.0963636 187.02346,78.1190616 187.02346,78.3460411 L187.02346,78.3460411 L186.771261,78.3460411 L186.771261,78.3460411 Z M177.661396,78.2889371 L177.679977,78.291566 C178.329138,78.3415015 179.069848,78.3456628 179.188791,78.3460095 L177.944282,78.3460411 L177.944282,78.3460411 L177.661396,78.2889371 Z M182.98827,78.3460411 L182.73607,78.3460411 L182.73607,78.3460411 L182.735396,78.3439371 C182.813189,78.3460411 182.896561,78.3460411 182.98827,78.3460411 Z M182.231672,78.0938416 L182.315392,78.0941876 C182.536802,78.0969552 182.73607,78.1218638 182.73607,78.3460411 L182.735396,78.3439371 L182.631856,78.3409251 C182.398415,78.3289878 182.267105,78.2891967 182.237924,78.1565599 L182.231672,78.0938416 L182.231672,78.0938416 Z M176.683284,78.0938416 L177.661396,78.2889371 L177.505738,78.2767808 C177.163945,78.2448145 176.868683,78.1980946 176.73571,78.1298116 L176.683284,78.0938416 Z M184.753666,78.0938416 L184.806645,78.1516373 C184.965583,78.3442897 184.753666,78.3250244 184.753666,78.0938416 L184.753666,78.0938416 Z M186.014663,78.0938416 L186.067642,78.1516373 C186.22658,78.3442897 186.014663,78.3250244 186.014663,78.0938416 L186.014663,78.0938416 Z M179.457478,78.0938416 C179.205279,77.8416422 179.709677,77.8416422 180.214076,78.0938416 L180.214076,78.0938416 Z M176.699896,78.0595288 C176.917756,77.8422141 179.205279,77.8536517 179.205279,78.0938416 L179.205279,78.0938416 L176.683284,78.0938416 Z M171.686399,73.7621197 C171.920065,73.5552374 172.11217,73.5700147 171.639296,73.8064516 L171.639296,73.8064516 Z M174.413982,73.0498534 L174.408673,73.1076491 C174.374959,73.3003014 174.182307,73.2810362 174.41349,73.0498534 L174.413982,73.0498534 Z M175.170088,72.797654 L175.084195,72.8392151 C174.697214,73.0193136 174.933651,72.797654 175.170088,72.797654 L175.170088,72.797654 Z M175.075396,72.8919371 L175.063691,72.9040506 L175.063691,72.9040506 L175.058396,72.9079371 L175.062816,72.9049263 L175.075396,72.8919371 Z M175.158396,72.8079371 C175.14732,72.820422 175.14119,72.8265518 175.134622,72.8331195 L175.118396,72.8479371 L175.158396,72.8079371 Z M174.917889,72.5454545 L175.00472,72.6328837 C175.125028,72.7561812 175.118303,72.76739 174.909818,72.6665103 L174.876396,72.6499371 L174.89166,72.6422991 C174.907801,72.6261584 174.917889,72.5958944 174.917889,72.5454545 Z M175.926686,72.5454545 L175.916616,72.5984339 C175.844371,72.7573721 175.401271,72.5454545 175.170088,72.5454545 L175.170088,72.5454545 L175.926686,72.5454545 L175.926686,72.5454545 Z M174.665689,72.5454545 L174.759918,72.5925318 C174.789136,72.6071033 174.816187,72.6205539 174.841145,72.6328837 L174.876396,72.6499371 L174.863413,72.6566745 C174.799859,72.6672669 174.699988,72.5779883 174.672751,72.5522639 L174.665689,72.5454545 Z M46.2961877,37.9941349 C46.2961877,37.9941349 52.3489736,37.7419355 58.9061584,37.9941349 C73.0293255,37.9941349 72.7771261,37.9941349 74.542522,38.2463343 C75.5513196,38.4985337 77.0645161,39.0029326 77.3167155,39.255132 C77.3167155,39.255132 77.568915,39.5073314 77.8211144,39.5073314 L77.9151966,39.5181681 C78.132423,39.5664406 78.3255132,39.7595308 78.3255132,39.7595308 L78.3255132,39.7595308 L78.5777126,39.7595308 L78.5777126,39.7595308 L78.829912,40.0117302 C78.829912,40.2639296 79.0821114,40.2639296 79.3343109,40.516129 C79.5865103,40.7683284 79.8387097,41.0205279 80.0909091,41.2727273 L80.1746296,41.3564478 C80.3960392,41.5778574 80.5953079,41.7771261 80.5953079,41.7771261 C80.8475073,42.0293255 81.3519062,43.0381232 81.6041056,43.542522 C81.6041056,43.7947214 81.856305,44.0469208 81.856305,44.0469208 C82.1085044,44.2991202 82.3607038,45.5601173 82.3607038,46.3167155 C82.3607038,48.0821114 81.856305,49.8475073 81.0997067,51.1085044 C80.8475073,51.3607038 80.5953079,51.6129032 80.5953079,51.6129032 C80.5953079,51.8651026 79.5865103,52.8739003 79.3343109,52.8739003 C79.0821114,52.8739003 79.0821114,53.1260997 78.829912,53.1260997 C78.829912,53.3782991 78.5777126,53.3782991 78.5777126,53.3782991 C78.5777126,53.3782991 78.829912,53.6304985 79.5865103,53.8826979 C80.0133093,54.0960975 80.0789707,54.1289281 80.5474394,54.439557 L80.8475073,54.6392962 C81.3519062,54.8914956 82.6129032,56.1524927 82.8651026,56.6568915 C82.8651026,56.9090909 83.1173021,57.1612903 83.1173021,57.1612903 C83.1173021,57.1612903 83.2459752,57.2899635 83.3195027,57.363491 L83.3695015,57.4134897 L83.3695015,57.4134897 L83.3695015,57.6656891 L83.3695015,57.6656891 L83.4167889,57.6772031 C83.6532258,57.7908037 83.8896628,58.7217742 84.1260997,59.431085 C84.6304985,61.1964809 84.3782991,63.2140762 83.3695015,65.2316716 C82.3607038,66.9970674 81.0997067,68.7624633 79.3343109,69.771261 C78.829912,70.2756598 77.568915,70.7800587 77.0645161,71.0322581 C76.8123167,71.0322581 76.5601173,71.2844575 76.5601173,71.2844575 C76.0557185,71.5366569 74.7947214,71.7888563 74.0381232,72.0410557 C71.5190279,72.499073 70.8714861,72.5411896 60.5769583,72.5450624 L57.1407625,72.5454545 C48.1979076,72.3273361 46.4234848,72.2978607 45.9440704,72.2938775 L45.7917889,72.2932551 C44.5307918,71.7888563 43.5219941,71.0322581 43.2697947,69.771261 C43.2697947,69.5246044 42.7873236,68.7954768 42.7661161,56.0231284 L42.7660768,53.7808671 C42.7804522,39.8593549 43.0224375,40.4616348 43.4920328,39.8029555 L43.5219941,39.7595308 C44.026393,39.0029326 45.28739,37.9941349 46.2961877,37.9941349 Z M176.935484,72.0410557 L176.851763,72.1161274 C176.734139,72.2102265 176.622764,72.2543355 176.544195,72.2750115 C176.508973,72.2905101 176.465783,72.3024952 176.418752,72.3083723 C176.349646,72.317008 176.285331,72.3108209 176.237214,72.2938367 L176.179378,72.2932551 L176.179378,72.2932551 L176.193261,72.2861935 C176.19676,72.2844912 176.200862,72.2825051 176.205528,72.2802619 C176.175865,72.2637056 176.156183,72.2411186 176.152859,72.2145185 C176.144223,72.145413 176.249267,72.0753907 176.38748,72.0581192 C176.491537,72.045116 176.584729,72.0657202 176.62812,72.1061882 C176.738441,72.0693003 176.851084,72.0410557 176.935484,72.0410557 L176.935484,72.0410557 Z M176.935484,72.0410557 L176.988463,72.045872 C177.147401,72.0795862 176.935484,72.2722385 176.935484,72.0410557 L176.935484,72.0410557 Z M123.217009,37.7419355 C123.469208,37.7419355 123.973607,37.9941349 123.973607,37.9941349 L123.973607,37.9941349 L124.035003,38.0053478 C124.331318,38.1009336 125.000419,38.7867616 125.234604,39.255132 C125.486804,39.5073314 125.486804,39.7595308 125.486804,40.2639296 L125.486689,40.4256724 C125.485311,41.0235125 125.467404,41.0593278 125.234604,41.5249267 C124.982405,42.0293255 124.730205,42.2815249 124.225806,42.7859238 C123.973607,43.0381232 123.217009,43.2903226 123.217009,43.2903226 L123.217009,43.2903226 L111.111437,43.2903226 L111.111437,69.0146628 L110.859238,69.5190616 C110.607038,69.771261 110.607038,70.0234604 110.607038,70.0234604 C110.607038,70.0234604 110.354839,70.0234604 110.354839,70.2756598 C110.354839,70.5278592 109.59824,71.2844575 109.093842,71.5366569 C108.139574,72.0137909 108.313663,72.0395819 105.133176,72.0409761 L100.771261,72.0410557 C99.5102639,71.7888563 98.7536657,71.0322581 98.2492669,70.0234604 C98.0244804,69.5738875 98.0000471,69.7253741 97.9973913,60.2991101 L97.9970674,43.542522 L89.726149,43.5419636 C84.671882,43.5371241 84.8044292,43.4903428 84.1260997,43.0381232 C83.8739003,43.0381232 83.6217009,42.7859238 83.3695015,42.5337243 C82.8651026,42.0293255 82.6129032,41.2727273 82.6129032,40.516129 C82.8651026,39.7595308 83.1173021,39.255132 83.6217009,38.7507331 C84.1260997,38.2463343 84.1260997,38.2463343 84.8826979,37.9941349 L84.8826979,37.9941349 L85.3870968,37.7419355 Z M177.692082,70.2756598 C177.944282,70.2756598 177.944282,70.2756598 177.944282,70.7800587 L177.944282,71.2839649 L177.944282,71.2839649 L178.196481,71.2844575 C178.196481,71.2844575 178.196481,71.5366569 177.944282,71.5366569 L177.944282,71.5366569 L177.439883,71.5366569 L177.439883,71.5366569 L177.439883,71.7883637 L177.439883,71.7883637 L176.683284,71.7888563 L176.683284,71.7888563 L176.683284,71.5366569 C176.683284,71.5366569 176.683284,71.2844575 176.935484,71.2844575 L176.935484,71.2844575 L177.187683,71.2844575 L177.187683,71.2844575 L177.188029,70.9571864 C177.190797,70.7800587 177.215705,70.7800587 177.439883,70.7800587 L177.692082,70.7800587 Z M177.435066,71.4788612 C177.401352,71.2862089 177.2087,71.3054741 177.439883,71.5366569 L177.439883,71.5366569 Z M177.692082,71.2844575 L177.439883,71.2844575 L177.439883,71.2844575 L177.446944,71.3457419 C177.487801,71.488739 177.692082,71.2844575 177.692082,71.2844575 L177.692082,71.2844575 Z M178.70088,69.771261 C178.927859,69.771261 178.746276,69.9755425 178.707689,70.0163988 L178.70088,70.0229678 L178.70088,69.771261 L178.70088,69.771261 Z M178.523752,69.5194075 C178.590175,69.5204454 178.631689,69.5245968 178.657636,69.5412025 L178.668396,69.5519371 L178.657636,69.5623057 C178.631689,69.5882521 178.590175,69.6297664 178.523752,69.6961893 L178.44868,69.771261 C178.196481,70.0234604 177.944282,70.0234604 178.196481,69.771261 C178.44868,69.771261 178.44868,69.5190616 178.196481,69.5190616 L178.196481,69.5190616 Z M178.700396,69.5189371 L178.700396,69.6959371 L178.698112,69.6377233 C178.695345,69.60382 178.689809,69.5796033 178.678739,69.5623057 L178.668396,69.5519371 L178.691539,69.5284023 C178.694653,69.5252887 178.696728,69.523213 178.698112,69.5218292 L178.700396,69.5189371 Z M179.205279,68.0058651 L179.205279,68.5102639 L179.205279,68.5102639 L179.53255,68.5106099 C179.576832,68.5113018 179.610043,68.5133775 179.634952,68.5196046 L179.639396,68.5209371 L179.62988,68.5235635 C179.555993,68.5457295 179.457478,68.6048387 179.457478,68.7624633 C179.457478,68.9688083 179.457478,69.0063256 179.59561,68.8750151 L179.634396,68.8369371 L179.457478,69.0146628 C179.236804,69.0146628 179.209219,69.2077529 179.205771,69.2560255 L179.205279,69.2668622 L179.205279,69.2668622 L179.204933,69.2672081 L178.953079,69.5190616 C178.70088,69.5190616 178.70088,69.5190616 178.70088,69.5190616 L178.711716,69.4358161 C178.759989,69.2668622 178.953079,69.2668622 178.953079,69.2668622 C178.953079,69.0146628 178.953079,69.0146628 178.44868,69.0146628 L178.373609,69.0143168 C178.196481,69.0115492 178.196481,68.9866406 178.196481,68.7624633 L178.196827,68.6873916 C178.199595,68.5102639 178.224503,68.5102639 178.44868,68.5102639 L178.70088,68.5102639 L178.701226,68.1829928 C178.703993,68.0058651 178.728902,68.0058651 178.953079,68.0058651 L178.953079,68.0058651 L179.205279,68.0058651 Z M179.706396,68.7649371 L179.687536,68.7846043 C179.693072,68.7790691 179.697223,68.7749176 179.700337,68.7718041 L179.706396,68.7649371 Z M179.709677,68.7624633 L179.706396,68.7649371 C179.709677,68.7624633 179.709677,68.7624633 179.709677,68.7624633 Z M179.972396,68.4999371 L179.976226,68.5203657 C179.999184,68.6296483 180.058877,68.6654636 180.214076,68.5102639 C180.466276,68.5102639 180.466276,68.5102639 179.961877,68.7624633 L179.709677,68.7624633 L179.709677,68.7624633 C179.709677,68.7624633 179.709677,68.5102639 179.961877,68.5102639 L179.970853,68.5025469 L179.970853,68.5025469 L179.972396,68.4999371 Z M179.709677,68.5102639 L179.709396,68.7509371 L179.709331,68.6873916 C179.707948,68.5988278 179.701029,68.5545459 179.666433,68.5324049 L179.639396,68.5209371 L179.670271,68.5142045 C179.682093,68.5122342 179.691945,68.5112491 179.698841,68.5107565 L179.709677,68.5102639 L179.709677,68.5102639 Z M180.970396,67.2019371 L180.970264,67.3128685 C180.969853,67.4052681 180.969032,67.4853477 180.967389,67.55475 L180.964396,67.6049371 L180.970396,67.5989371 L180.970396,67.2019371 Z M63.1935484,56.9090909 L56.1319648,56.9090909 L56.1319648,66.4926686 L67.9853372,66.4926686 C69.2463343,66.4926686 70.5073314,66.2404692 71.2639296,65.9882698 C72.7771261,65.483871 74.2903226,64.4750733 74.7947214,63.4662757 C75.0469208,63.2140762 75.0469208,63.2140762 75.0469208,63.2140762 L75.1050059,63.2012195 C75.3364278,63.1006611 75.5513196,62.4380781 75.5513196,62.2052786 C75.8035191,60.6920821 75.2991202,59.1788856 74.0381232,58.170088 C73.7859238,57.9178886 72.7771261,57.4134897 72.5249267,57.4134897 L72.5249267,57.4134897 L72.0205279,57.4134897 C71.7683284,57.1612903 71.2639296,57.1612903 71.0117302,57.1612903 L70.8323172,57.1611315 C70.0187851,57.1594374 67.3440302,57.1396732 63.1935484,56.9090909 L63.1935484,56.9090909 Z M181.475073,57.6656891 L181.475073,60.6920821 L180.970674,60.6920821 L180.970674,58.170088 L180.718475,58.170088 C180.466276,58.170088 180.466276,58.170088 180.466276,57.9178886 L180.466276,57.9178886 L180.970674,57.6656891 L181.475073,57.6656891 Z M180.466276,55.6480938 L180.466276,57.1612903 L179.961877,57.1612903 L179.961877,56.1524927 L179.634606,56.1521467 C179.457478,56.1493791 179.457478,56.1244705 179.457478,55.9002933 L179.457478,55.9002933 L179.961877,55.6480938 L180.466276,55.6480938 Z M177.187683,51.3607038 L177.187683,52.3695015 L178.196481,52.3695015 L178.196481,53.3782991 L179.205279,53.3782991 L179.205279,54.8914956 L178.878007,54.8911496 C178.70088,54.888382 178.70088,54.8634734 178.70088,54.6392962 L178.70088,54.3870968 L178.196481,54.3870968 L178.196481,53.8826979 L177.692082,53.8826979 L177.692082,53.3782991 L177.187683,53.3782991 L177.187683,52.8739003 L176.683284,52.8739003 L176.683284,52.3695015 L176.178886,52.3695015 L176.178886,51.8651026 L175.926686,51.8651026 C175.674487,51.8651026 175.674487,51.8651026 175.674487,51.6129032 L175.674487,51.6129032 L176.431085,51.3607038 L177.187683,51.3607038 Z M63.4457478,42.7859238 L56.1319648,42.7859238 L56.1319648,51.3607038 L65.4269744,51.3600066 C69.7656369,51.3557359 69.8569224,51.3253074 70.5073314,51.1085044 C71.2639296,50.856305 71.7683284,50.856305 72.0205279,50.6041056 L72.0205279,50.6041056 L72.5244341,50.6041056 L72.5244341,50.6041056 L72.536256,50.5932689 C72.5879765,50.5449963 72.808651,50.3519062 73.0293255,50.3519062 C74.0381232,49.8475073 74.7947214,48.8387097 75.0469208,47.829912 C75.2991202,47.5777126 75.0469208,46.8211144 75.0469208,46.3167155 C74.542522,45.0557185 73.2815249,44.0469208 71.2639296,43.542522 C70.7595308,43.2903226 70.5073314,43.2903226 63.4457478,42.7859238 L63.4457478,42.7859238 Z M174.917889,50.0997067 L174.917889,51.1085044 L174.590617,51.1081584 C174.41349,51.1053908 174.41349,51.0804822 174.41349,50.856305 L174.41349,50.6041056 L173.909091,50.6041056 L173.404692,50.3519062 L174.16129,50.0997067 L174.917889,50.0997067 Z M172.900293,49.0909091 L172.900293,50.0997067 L172.573022,50.0993608 C172.395894,50.0965932 172.395894,50.0716846 172.395894,49.8475073 L172.395894,49.5953079 L171.134897,49.5953079 L169.8739,49.3431085 L171.387097,49.0909091 L172.900293,49.0909091 Z M152.77434,46.3167155 C152.801954,46.3167155 152.82434,46.3391013 152.82434,46.3667155 C152.82434,46.3943298 152.801954,46.4167155 152.77434,46.4167155 C152.746726,46.4167155 152.72434,46.3943298 152.72434,46.3667155 C152.72434,46.3391013 152.746726,46.3167155 152.77434,46.3167155 Z M176.431085,12.0175953 C176.935484,11.7653959 177.692082,11.7653959 178.953079,12.2697947 C179.205279,12.5219941 179.457478,12.5219941 179.709677,12.5219941 C180.214076,12.7741935 181.727273,13.2785924 182.73607,13.5307918 C184.105153,13.9871526 184.64844,14.2370645 184.739505,14.2805275 L184.753666,14.28739 L184.753666,14.28739 L185.005865,14.28739 C185.258065,14.28739 186.014663,14.5395894 186.519062,14.7917889 C187.527859,15.2961877 188.788856,16.0527859 189.293255,16.3049853 C189.545455,16.5571848 189.797654,16.8093842 190.049853,16.8093842 C190.049853,16.8093842 190.302053,17.0615836 190.554252,17.0615836 L190.648334,17.0724203 C190.865561,17.1206928 191.058651,17.313783 191.058651,17.313783 C191.31085,17.5659824 192.571848,18.5747801 192.824047,18.5747801 C192.824047,18.8269795 193.076246,18.8269795 193.076246,18.8269795 L193.076246,18.8269795 L193.328446,18.8269795 L193.328446,18.8269795 L193.580645,19.0791789 C193.832845,19.0791789 194.085044,19.3313783 194.085044,19.3313783 C194.337243,19.3313783 194.337243,19.3313783 194.337243,19.3313783 L194.387242,19.381377 C194.431359,19.4254935 194.495328,19.4894625 194.539444,19.533579 L194.589443,19.5835777 C194.841642,19.5835777 195.093842,19.8357771 195.093842,19.8357771 C195.346041,20.0879765 195.59824,20.340176 195.85044,20.5923754 C195.85044,20.8445748 196.607038,21.3489736 196.859238,21.601173 C197.111437,21.601173 199.381232,24.1231672 199.633431,24.3753666 C199.88563,24.3753666 200.13783,24.627566 200.13783,24.8797654 C200.13783,24.8797654 200.390029,25.1319648 200.642229,25.3841642 C201.146628,25.6363636 201.398827,26.1407625 201.398827,26.1407625 C201.398827,26.1407625 201.398827,26.3929619 201.651026,26.6451613 L201.651026,26.6451613 L201.651026,27.1495601 C201.651026,27.1495601 201.903226,27.4017595 202.155425,27.9061584 C202.155425,28.1583578 202.407625,28.4105572 202.659824,28.6627566 C202.659824,28.914956 202.912023,29.1671554 202.912023,29.1671554 C202.912023,29.4193548 203.164223,29.4193548 203.164223,29.6715543 C203.164223,29.9237537 203.416422,30.4281525 203.668622,30.6803519 C203.874967,30.8866969 204.081312,31.2618696 204.149525,31.3914747 L204.173021,31.4369501 C204.42522,31.941349 204.677419,32.6979472 205.434018,33.9589443 C205.686217,34.2111437 205.938416,34.7155425 205.938416,34.9677419 C206.190616,34.9677419 206.190616,35.2199413 206.190616,35.2199413 L206.190616,35.2199413 L206.190616,35.4721408 C206.442815,35.7243402 206.442815,35.7243402 206.442815,35.9765396 C206.442815,36.228739 206.695015,36.4809384 206.695015,36.7331378 C207.199413,37.4897361 207.199413,37.7419355 207.199413,37.7419355 L207.199413,37.7419355 L207.199413,37.9941349 C207.451613,38.2463343 207.703812,39.255132 207.703812,39.255132 L207.703812,39.255132 L207.703812,39.5073314 C207.956012,39.7595308 207.956012,39.7595308 207.956012,40.0117302 L207.956012,42.5332318 L207.956012,42.5332318 L207.947017,42.6174449 C207.899967,42.8388545 207.67579,43.0381232 207.451613,43.0381232 L207.451613,43.0381232 L206.947214,43.0381232 C206.631965,43.1957478 206.316716,43.1563416 206.186183,43.1046211 L206.181396,43.1019371 L206.164387,43.1349677 C206.107894,43.1914604 205.977255,43.0749443 205.945478,43.0449326 L205.938416,43.0381232 L205.891264,42.9874591 C205.686217,42.7489345 205.686217,42.4664712 205.686217,41.5249267 L205.685482,41.3212554 C205.68107,40.9330301 205.650189,40.6242145 205.434018,39.7595308 L205.434018,39.7595308 L205.434018,39.0029326 C205.434018,38.7507331 205.181818,38.2463343 205.181818,37.9941349 C205.181818,37.7419355 204.929619,37.4897361 204.929619,37.2375367 C204.929619,36.7331378 204.42522,35.7243402 204.42522,35.4721408 C204.173021,35.4721408 204.173021,35.2199413 204.173021,35.2199413 C204.173021,35.2199413 204.173021,34.7155425 203.920821,34.4633431 C203.920821,33.9589443 203.668622,33.7067449 203.668622,33.7067449 C203.668622,33.7067449 202.659824,31.941349 202.659824,31.941349 C202.659824,31.6891496 202.407625,31.6891496 202.407625,31.4369501 C202.155425,31.1847507 201.651026,30.4281525 201.146628,29.9237537 C200.894428,29.6715543 199.129032,27.9061584 199.129032,27.9061584 C199.129032,27.9061584 198.372434,27.4017595 198.372434,27.4017595 L198.372434,27.4017595 L198.372088,27.4014136 L197.868381,26.8977067 L197.868381,26.8977067 L197.615836,26.8973607 C197.363636,26.6451613 196.102639,26.1407625 195.346041,25.888563 C195.093842,25.888563 194.841642,25.6363636 194.841642,25.6363636 C194.337243,25.3841642 192.571848,25.1319648 191.815249,25.3841642 L191.815249,25.3841642 L190.806452,25.3841642 C190.806452,25.3841642 190.049853,25.888563 189.545455,26.1407625 C189.041056,26.6451613 188.284457,27.4017595 188.032258,27.9061584 C187.780059,28.1583578 187.780059,28.4105572 187.527859,28.6627566 C187.27566,28.914956 187.27566,29.1671554 187.27566,29.1671554 L187.275598,29.9740922 C187.273861,30.4263532 187.223481,30.3759733 185.762463,28.914956 C184.249267,27.1495601 183.240469,26.1407625 182.231672,24.8797654 C181.979472,24.627566 181.475073,24.1231672 181.475073,24.1231672 L181.466079,24.1141724 C181.419029,24.0671228 181.194852,23.8429456 180.970674,23.6187683 C180.718475,23.3665689 180.466276,22.8621701 180.466276,22.8621701 C180.214076,22.8621701 179.961877,22.6099707 179.961877,22.3577713 L179.961877,22.3577713 L179.709677,22.1055718 L179.709677,22.1055718 L179.696825,22.0895058 C179.579655,21.9430433 178.70088,20.8445748 178.70088,20.8445748 C178.70088,20.8445748 178.44868,20.5923754 178.44868,20.340176 L178.437844,20.2460938 C178.389571,20.0288673 178.196481,19.8357771 178.196481,19.8357771 L178.196481,19.8357771 L178.146482,19.7857784 C178.102366,19.7416619 178.038397,19.6776929 177.99428,19.6335764 L177.692082,19.3313783 C177.692082,19.0791789 177.439883,19.0791789 177.439883,18.8269795 C177.439883,18.5747801 177.187683,18.3225806 177.187683,18.3225806 C176.935484,18.3225806 176.935484,18.0703812 176.935484,18.0703812 C176.683284,18.0703812 176.431085,17.313783 176.431085,17.313783 L176.431085,17.313783 L176.42259,17.2967937 C176.35647,17.1645526 175.926686,16.3049853 175.926686,16.3049853 L175.926686,16.3049853 L175.923792,16.2934714 C175.895161,16.1798708 175.658724,15.2489003 175.422287,14.5395894 C175.170088,14.0351906 175.170088,13.2785924 175.422287,13.026393 L175.422287,13.026393 L175.422287,12.7741935 C175.674487,12.5219941 175.926686,12.2697947 176.431085,12.0175953 Z M206.190616,43.0381232 C206.111804,43.0381232 206.106878,43.062752 206.152749,43.0889202 L206.181396,43.1019371 L206.183554,43.0994076 L206.190616,43.0381232 L206.190616,43.0381232 Z M156.817326,41.2197479 C157.009979,41.0608097 156.990714,41.2727273 156.759531,41.2727273 L156.759531,41.2727273 Z M157.01173,40.7683284 L157.069526,40.7731448 C157.262178,40.8068589 157.242913,40.9995112 157.01173,40.7683284 L157.01173,40.7683284 Z M153.233555,32.8923509 C153.267269,32.6996986 153.459922,32.7189638 153.228739,32.9501466 L153.228739,32.9501466 Z M152.97654,32.4457478 L152.971723,32.4987272 C152.938009,32.6576654 152.745357,32.4457478 152.97654,32.4457478 L152.97654,32.4457478 Z M152.472141,32.1935484 L152.534899,32.1985106 C152.762871,32.2338302 152.955523,32.4457478 152.72434,32.4457478 C152.72434,32.4457478 152.595667,32.3170746 152.522139,32.2435471 L152.472141,32.1935484 L152.472141,32.1935484 Z M151.715543,31.4369501 L151.768522,31.4947458 C151.92746,31.6873982 151.715543,31.6681329 151.715543,31.4369501 L151.715543,31.4369501 Z M151.463343,31.1847507 C151.463343,31.4159335 151.251426,31.4351988 151.410364,31.2425464 L151.463343,31.1847507 L151.463343,31.1847507 Z M150.706745,30.6803519 C150.930922,30.9045292 151.155099,30.9294377 151.202149,30.9322054 L150.958598,30.9322054 L150.958598,30.9322054 L150.80132,30.7749267 C150.832845,30.8064516 150.832845,30.8064516 150.706745,30.6803519 Z M148.566111,29.1898277 L148.58827,29.1933842 C148.790029,29.2579472 148.991789,29.4193548 149.193548,29.4193548 C149.193548,29.4193548 149.445748,29.4193548 149.697947,29.6715543 C149.950147,29.6715543 150.202346,29.9237537 150.202346,29.9237537 C150.202346,29.9237537 150.202346,30.1759531 150.454545,30.1759531 C150.706745,30.4281525 150.706745,30.4281525 150.706745,30.4281525 L150.706745,30.4281525 L150.202346,30.4281525 C150.202346,30.4281525 150.202346,30.1759531 149.950147,30.1759531 C149.697947,29.9237537 149.697947,29.9237537 149.697947,29.9237537 L149.697947,29.9237537 L149.688952,29.848682 C149.641903,29.6715543 149.417726,29.6715543 149.193548,29.6715543 L149.445748,29.6715543 L149.445748,29.6715543 L149.434419,29.6607176 C149.382698,29.612445 149.162023,29.4193548 148.941349,29.4193548 C148.802128,29.2801336 148.662907,29.2177665 148.566111,29.1898277 L148.561396,29.1889371 C148.564876,29.1894721 148.565492,29.1896492 148.566111,29.1898277 Z M149.950147,30.4281525 C149.950147,30.4281525 149.950147,30.4281525 149.949801,30.4278065 Z M149.947379,30.4253849 C149.945995,30.4240011 149.943919,30.4219253 149.940806,30.4188118 Z M149.850396,30.3279371 L149.906903,30.3849084 C149.915551,30.3935572 149.92247,30.4004763 149.928006,30.4060115 L149.900148,30.3781538 L149.900148,30.3781538 L149.850396,30.3279371 Z M149.697947,30.1759531 L149.640152,30.2289325 C149.447499,30.3878706 149.466764,30.1759531 149.697947,30.1759531 L149.697947,30.1759531 Z M149.701396,30.1799371 L149.711917,30.1899233 L149.711917,30.1899233 L149.732396,30.2109371 L149.701396,30.1799371 Z M148.511676,29.1764961 L148.561396,29.1889371 L148.43695,29.1671554 L148.43695,29.1671554 C148.43695,29.1671554 148.464972,29.1671554 148.511676,29.1764961 Z M147.680352,28.914956 L147.694322,28.9289262 L147.694322,28.9289262 L147.713396,28.9479371 L147.680352,28.914956 L147.680352,28.914956 Z M146.127396,28.2649371 L146.156319,28.3273117 C146.163215,28.3514479 146.167155,28.3790323 146.167155,28.4105572 L146.419355,28.4105572 L146.127396,28.2649371 Z M145.925793,28.1588503 L145.914956,28.1583578 L145.914956,28.1583578 L146.127396,28.2649371 C146.06864,28.1760905 145.960273,28.1613132 145.925793,28.1588503 Z M145.91014,28.1005621 L145.911396,28.1259371 L145.875396,28.1149371 L145.861977,28.1005621 C145.717487,27.9254236 145.87949,27.9254236 145.91014,28.1005621 Z M161.637874,12.5228766 C161.89853,12.5303775 162.254823,12.6016361 161.803519,13.2785924 C162.812317,13.2785924 162.812317,13.2785924 163.316716,13.5307918 C163.821114,13.7829912 164.073314,14.0351906 164.073314,14.28739 C164.073314,14.5395894 163.821114,15.0439883 163.821114,15.0439883 L163.821114,15.0439883 L163.807622,15.094973 C163.657652,15.4324065 162.307918,16.5571848 162.307918,16.5571848 L162.307918,16.5571848 L162.055718,16.8093842 C161.55132,17.0615836 158.524927,18.8269795 158.272727,18.8269795 L158.272727,18.8269795 L158.26079,18.827169 C158.183103,18.8290638 157.745401,18.8499067 157.516129,19.0791789 C157.26393,19.0791789 156.759531,19.3313783 156.759531,19.3313783 C156.507331,19.3313783 155.246334,19.8357771 154.994135,19.8357771 C154.994135,19.8357771 154.741935,20.0879765 154.489736,20.0879765 C153.985337,20.0879765 153.733138,20.340176 153.480938,20.340176 L153.480938,20.340176 L153.228739,20.340176 C153.228739,20.5923754 152.472141,20.5923754 152.472141,20.5923754 L152.472141,20.5923754 L152.461924,20.5973376 C152.388074,20.6326572 151.925709,20.8445748 151.463343,20.8445748 C149.445748,21.0967742 148.184751,20.8445748 147.932551,20.0879765 C147.932551,19.8357771 148.184751,19.3313783 148.43695,18.8269795 C148.68915,18.3225806 148.941349,18.3225806 149.193548,18.0703812 C149.445748,17.8181818 149.697947,17.5659824 149.697947,17.5659824 C149.697947,17.313783 149.950147,17.313783 149.950147,17.313783 C150.202346,17.313783 150.202346,17.313783 150.454545,17.0615836 C150.958944,16.8093842 150.958944,16.8093842 151.715543,16.3049853 C152.72434,15.8005865 154.489736,14.7917889 154.741935,14.7917889 C154.994135,14.7917889 154.994135,14.7917889 154.994135,14.7917889 L154.994627,14.7809522 C154.998076,14.7326796 155.02566,14.5395894 155.246334,14.5395894 C155.498534,14.5395894 155.750733,14.28739 155.750733,14.28739 C156.002933,14.28739 156.255132,14.0351906 156.507331,14.0351906 C156.759531,14.0351906 157.01173,13.7829912 157.01173,13.7829912 C157.26393,13.5307918 157.768328,13.5307918 158.524927,13.2785924 C158.777126,13.026393 159.029326,13.026393 159.029326,13.026393 C159.281525,12.7741935 159.533724,12.7741935 159.785924,12.7741935 L160.037631,12.7741935 L160.037631,12.7741935 L160.05098,12.7203558 C160.134779,12.5550544 160.608872,12.5275042 160.899297,12.5229125 Z" id="Combined-Shape" fill="#000000" fill-rule="nonzero"></path>
    </g>
</svg>