<?xml version="1.0" encoding="UTF-8"?>
<svg width="250px" height="100px" viewBox="0 0 250 100" version="1.1" xmlns="http://www.w3.org/2000/svg" xmlns:xlink="http://www.w3.org/1999/xlink">
    <!-- Generator: Sketch 59.1 (86144) - https://sketch.com -->
    <title>brand/brand_08</title>
    <desc>Created with Sketch.</desc>
    <g id="brand/brand_08" stroke="none" stroke-width="1" fill="none" fill-rule="evenodd">
        <path d="M95.7096774,58.3958944 C98.483871,58.3958944 101.510264,60.1612903 101.510264,64.9530792 L101.510264,77.058651 L95.9618768,77.058651 L95.9618768,67.2228739 C95.9618768,64.4486804 95.7096774,62.6832845 93.9442815,62.6832845 C92.6832845,62.6832845 91.6744868,63.4398827 90.6656891,65.2052786 L90.6656891,77.058651 L85.1173021,77.058651 L85.1173021,66.4662757 C85.1173021,64.1964809 84.3607038,62.9354839 83.0997067,62.9354839 C81.8387097,62.9354839 81.0821114,63.6920821 79.8211144,65.7096774 L79.8211144,77.3108504 L74.2727273,77.3108504 L74.2727273,58.6480938 L79.8211144,58.6480938 L79.8211144,61.4222874 C81.3343109,59.1524927 83.0997067,58.3958944 85.1173021,58.3958944 C87.6392962,58.3958944 89.4046921,59.6568915 90.1612903,62.1788856 C91.4222874,59.6568915 93.1876833,58.3958944 95.7096774,58.3958944 Z M63.9325513,58.143695 C67.4633431,58.143695 69.7331378,60.4134897 69.7331378,64.7008798 L69.7331378,76.8064516 L64.1847507,76.8064516 L64.1847507,65.7096774 C64.1847507,63.6920821 63.6803519,62.431085 61.914956,62.431085 C60.6539589,62.431085 59.6451613,63.4398827 58.888563,65.457478 L58.888563,77.058651 L53.340176,77.058651 L53.340176,58.6480938 L58.888563,58.6480938 L58.888563,61.170088 C60.1495601,59.1524927 61.914956,58.143695 63.9325513,58.143695 Z M146.14956,58.3958944 C148.167155,58.3958944 149.932551,58.9002933 151.950147,60.1612903 L151.950147,63.9442815 C150.68915,63.1876833 149.680352,62.9354839 148.671554,62.431085 C147.662757,62.1788856 146.906158,61.9266862 145.897361,61.9266862 C144.636364,61.9266862 143.627566,62.431085 143.627566,63.1876833 C143.627566,65.7096774 152.454545,65.2052786 152.454545,71.2580645 C152.454545,74.7888563 149.680352,77.058651 145.645161,77.058651 C143.879765,77.058651 141.86217,76.5542522 139.592375,75.5454545 L139.592375,71.2580645 L140.096774,71.2580645 C142.366569,72.5190616 144.131965,73.2756598 145.897361,73.2756598 C147.158358,73.2756598 147.914956,72.771261 147.914956,71.7624633 C147.914956,69.2404692 139.592375,69.744868 139.592375,64.1964809 C139.592375,60.6656891 142.366569,58.3958944 146.14956,58.3958944 Z M181.709677,52.8475073 L181.709677,58.3958944 L187.005865,58.3958944 L187.005865,61.9266862 L181.709677,61.9266862 L181.709677,69.744868 C181.709677,71.5102639 182.214076,72.5190616 183.727273,72.5190616 C184.73607,72.5190616 185.492669,72.2668622 187.258065,71.2580645 L187.258065,75.5454545 L187.005865,75.5454545 C184.73607,76.5542522 183.475073,77.058651 181.961877,77.058651 C179.187683,77.058651 175.909091,75.5454545 175.909091,71.0058651 L175.909091,62.1788856 L173.387097,62.1788856 L173.387097,61.4222874 L180.70088,52.8475073 L181.709677,52.8475073 Z M49.0527859,58.6480938 L49.0527859,76.8064516 L43.2521994,76.8064516 L43.2521994,58.6480938 L49.0527859,58.6480938 Z M113.868035,58.143695 C117.398827,58.143695 120.42522,59.4046921 120.42522,63.4398827 L120.42522,63.4398827 L120.425478,71.148953 C120.428448,72.5577994 120.465572,72.771261 120.929619,72.771261 C121.434018,72.771261 121.938416,72.5190616 122.695015,72.0146628 L122.695015,72.0146628 L122.947214,72.0146628 L122.947214,75.0410557 C120.929619,76.3020528 119.416422,76.8064516 118.155425,76.8064516 C116.390029,76.8064516 115.381232,76.0498534 115.129032,74.2844575 C113.111437,76.0498534 111.85044,76.8064516 109.832845,76.8064516 C107.058651,76.8064516 105.041056,74.7888563 105.041056,72.2668622 C105.041056,68.483871 109.076246,66.7184751 114.876833,64.9530792 L114.876833,64.9530792 L114.876833,64.4486804 C114.876833,62.6832845 114.120235,61.9266862 112.607038,61.9266862 C110.589443,61.9266862 108.824047,62.6832845 106.302053,64.7008798 L106.302053,64.7008798 L106.302053,60.6656891 C108.824047,58.9002933 110.841642,58.143695 113.868035,58.143695 Z M163.803519,58.143695 C167.334311,58.143695 170.360704,59.4046921 170.360704,63.4398827 L170.360704,63.4398827 L170.360962,71.148953 C170.363932,72.5577994 170.401056,72.771261 170.865103,72.771261 C171.369501,72.771261 171.8739,72.5190616 172.630499,72.0146628 L172.630499,72.0146628 L172.882698,72.0146628 L172.882698,75.0410557 C170.865103,76.3020528 169.351906,76.8064516 168.090909,76.8064516 C166.325513,76.8064516 165.316716,76.0498534 165.064516,74.2844575 C163.046921,76.0498534 161.785924,76.8064516 159.768328,76.8064516 C156.994135,76.8064516 154.97654,74.7888563 154.97654,72.2668622 C154.97654,68.483871 159.01173,66.7184751 164.812317,64.9530792 L164.812317,64.9530792 L164.812317,64.4486804 C164.812317,62.6832845 164.055718,61.9266862 162.542522,61.9266862 C160.524927,61.9266862 158.759531,62.6832845 156.237537,64.7008798 L156.237537,64.7008798 L156.237537,60.6656891 C158.759531,58.9002933 160.777126,58.143695 163.803519,58.143695 Z M135.557185,58.3958944 C136.565982,58.3958944 137.57478,58.6480938 138.835777,59.4046921 L137.57478,64.4486804 C136.818182,63.9442815 135.809384,63.4398827 135.304985,63.4398827 C132.278592,63.4398827 131.017595,68.7360704 131.017595,73.7800587 L131.017595,76.5542522 L125.217009,76.5542522 L125.217009,58.6480938 L130.513196,58.6480938 L130.513196,65.457478 C131.774194,60.6656891 133.28739,58.3958944 135.557185,58.3958944 Z M114.876833,67.4750733 C111.85044,68.7360704 110.337243,69.744868 110.337243,71.2580645 C110.337243,72.5190616 111.093842,73.2756598 112.354839,73.2756598 C113.111437,73.2756598 113.615836,73.0234604 114.876833,72.0146628 L114.876833,72.0146628 Z M164.812317,67.4750733 C161.785924,68.7360704 160.272727,69.744868 160.272727,71.2580645 C160.272727,72.5190616 161.029326,73.2756598 162.290323,73.2756598 C163.046921,73.2756598 163.55132,73.0234604 164.812317,72.0146628 L164.812317,72.0146628 Z M49.3049853,52.8475073 C49.3049853,54.6129032 48.0439883,56.1260997 46.2785924,56.1260997 C44.5131965,56.1260997 43,54.6129032 43,52.8475073 C43,51.0821114 44.5131965,49.8211144 46.2785924,49.8211144 C47.7917889,49.568915 49.3049853,51.0821114 49.3049853,52.8475073 Z M172.1261,13 L172.854853,13.207894 C196.733827,20.1869771 203.787214,38.8428739 192.302053,50.5777126 L192.302053,50.5777126 L185.744868,47.0469208 C198.354839,31.1583578 181.457478,16.5307918 172.1261,13 L172.1261,13 Z M165.316716,18.2961877 L165.502938,18.2986847 C171.799678,18.4634968 192.914897,26.7877419 178.683284,43.516129 L178.683284,43.516129 L171.621701,39.7331378 C185.492669,28.888563 170.108504,19.3049853 165.316716,18.2961877 L165.316716,18.2961877 Z M190.788856,17.0351906 L207.686217,24.8533724 L203.651026,41.7507331 C204.659824,32.6715543 198.859238,21.8269795 190.788856,17.0351906 L190.788856,17.0351906 Z" id="Combined-Shape" fill="#000000" fill-rule="nonzero"></path>
    </g>
</svg>