<?xml version="1.0" encoding="UTF-8"?>
<svg width="176px" height="176px" viewBox="0 0 176 176" version="1.1" xmlns="http://www.w3.org/2000/svg" xmlns:xlink="http://www.w3.org/1999/xlink">
    <!-- Generator: Sketch 57.1 (83088) - https://sketch.com -->
    <title>article_b/sdwan/article_b_sdwan_p1_01</title>
    <desc>Created with Sketch.</desc>
    <g id="article_b/sdwan/article_b_sdwan_p1_01" stroke="none" stroke-width="1" fill="none" fill-rule="evenodd">
        <g id="Group" transform="translate(8.000000, 8.000000)">
            <path d="M18.0645161,51.6129032 L23.2258065,51.6129032 C24.6510574,51.6129032 25.8064516,52.7682974 25.8064516,54.1935484 C25.8064516,55.6187994 24.6510574,56.7741935 23.2258065,56.7741935 L18.0645161,56.7741935 C16.6392652,56.7741935 15.483871,55.6187994 15.483871,54.1935484 C15.483871,52.7682974 16.6392652,51.6129032 18.0645161,51.6129032 Z" id="Path" fill="#47D382"></path>
            <path d="M147.096774,144.516129 C148.522025,144.516129 149.677419,145.671523 149.677419,147.096774 C149.677419,148.522025 148.522025,149.677419 147.096774,149.677419 C145.671523,149.677419 144.516129,148.522025 144.516129,147.096774 C144.516129,145.671523 145.671523,144.516129 147.096774,144.516129 Z M136.774194,144.516129 C138.199445,144.516129 139.354839,145.671523 139.354839,147.096774 C139.354839,148.522025 138.199445,149.677419 136.774194,149.677419 L131.612903,149.677419 C130.187652,149.677419 129.032258,148.522025 129.032258,147.096774 C129.032258,145.671523 130.187652,144.516129 131.612903,144.516129 L136.774194,144.516129 Z M131.612903,123.870968 C133.038154,123.870968 134.193548,125.026362 134.193548,126.451613 C134.193548,127.876864 133.038154,129.032258 131.612903,129.032258 C130.187652,129.032258 129.032258,127.876864 129.032258,126.451613 C129.032258,125.026362 130.187652,123.870968 131.612903,123.870968 Z M147.096774,123.870968 C148.522025,123.870968 149.677419,125.026362 149.677419,126.451613 C149.677419,127.876864 148.522025,129.032258 147.096774,129.032258 L141.935484,129.032258 C140.510233,129.032258 139.354839,127.876864 139.354839,126.451613 C139.354839,125.026362 140.510233,123.870968 141.935484,123.870968 L147.096774,123.870968 Z" id="Combined-Shape" fill="#209CFF"></path>
            <path d="M82.5806452,92 C84.0058961,92 85.1612903,93.1553942 85.1612903,94.5806452 C85.1612903,96.0058961 84.0058961,97.1612903 82.5806452,97.1612903 C81.1553942,97.1612903 80,96.0058961 80,94.5806452 C80,93.1553942 81.1553942,92 82.5806452,92 Z M72.4193548,92 C73.8446058,92 75,93.1553942 75,94.5806452 C75,96.0058961 73.8446058,97.1612903 72.4193548,97.1612903 L57.5806452,97.1612903 C56.1553942,97.1612903 55,96.0058961 55,94.5806452 C55,93.1553942 56.1553942,92 57.5806452,92 L72.4193548,92 Z" id="Combined-Shape" fill="#FF874D"></path>
            <path d="M152.258065,41.2903226 C156.525958,41.2903226 160,37.8162803 160,33.5483871 L160,7.74193548 C160,3.47404226 156.525958,0 152.258065,0 L116.129032,0 C111.861139,0 108.387097,3.47404226 108.387097,7.74193548 L108.387097,33.5483871 C108.387097,37.8162803 111.861139,41.2903226 116.129032,41.2903226 L123.870968,41.2903226 L123.870968,46.4516129 L121.290323,46.4516129 C119.865072,46.4516129 118.709677,47.6070071 118.709677,49.0322581 C118.709677,50.457509 119.865072,51.6129032 121.290323,51.6129032 L131.612903,51.6129032 L131.612903,51.6129032 L131.612903,77.4193548 L120.962702,77.4193548 C118.90373,75.4095261 116.368448,73.8709677 113.530746,73.0241935 C113.543347,72.7633568 113.548387,72.5113406 113.548387,72.2580645 C113.548387,60.8744961 104.286794,51.6129032 92.9032258,51.6129032 C85.8404739,51.6129032 79.2754535,55.2872984 75.5153729,61.1643145 C72.8666835,59.9747984 70.00252,59.3548387 67.0967742,59.3548387 C58.5320061,59.3548387 50.8203126,64.7530242 47.8036794,72.671371 C45.8429939,73.0922381 44.0158771,73.8457661 42.356351,74.8387097 L23.2258065,74.8387097 L23.2258065,67.0967742 L33.5483871,67.0967742 C37.8162803,67.0967742 41.2903226,63.6227319 41.2903226,59.3548387 L41.2903226,7.74193548 C41.2903226,3.47404226 37.8162803,0 33.5483871,0 L7.74193548,0 C3.47404226,0 0,3.47404226 0,7.74193548 L0,59.3548387 C0,63.6227319 3.47404226,67.0967742 7.74193548,67.0967742 L18.0645161,67.0967742 L18.0645161,76 C18.0645161,78.209139 19.8553771,80 22.0645161,80 L36.8674394,80 L36.8674394,80 C35.7699094,81.5662803 34.9180948,83.295111 34.358619,85.1612903 L27.2258065,85.1612903 C25.0166675,85.1612903 23.2258065,86.9521513 23.2258065,89.1612903 L23.2258065,113.548387 L23.2258065,113.548387 L12.9032258,113.548387 C8.63533258,113.548387 5.16129032,117.022429 5.16129032,121.290323 L5.16129032,144.516129 C2.31078839,144.516129 3.25135157e-14,146.826917 0,149.677419 L0,152.258065 L0,152.258065 C0,156.525958 3.47404226,160 7.74193548,160 L49.0322581,160 C53.3001513,160 56.7741935,156.525958 56.7741935,152.258065 L56.7741935,149.677419 C56.7741935,146.826917 54.4634052,144.516129 51.6129032,144.516129 L51.6129032,144.516129 L51.6129032,144.516129 L51.6129032,121.290323 C51.6129032,117.022429 48.138861,113.548387 43.8709677,113.548387 L28.3870968,113.548387 L28.3870968,90.3225806 L33.5483871,90.3225806 C33.5483871,100.280998 41.6544858,108.387097 51.6129032,108.387097 L108.387097,108.387097 C117.468498,108.387097 124.986139,101.641885 126.24496,92.9032258 L136.774194,92.9032258 L136.774194,113.548387 L122.709677,113.548387 C120.500538,113.548387 118.709677,115.339248 118.709677,117.548387 L118.709677,156 C118.709677,158.209139 120.500538,160 122.709677,160 L156,160 C158.209139,160 160,158.209139 160,156 L160,117.548387 C160,115.339248 158.209139,113.548387 156,113.548387 L141.935484,113.548387 L141.935484,113.548387 L141.935484,91.7419355 C141.935484,89.5327965 140.144623,87.7419355 137.935484,87.7419355 L126.234879,87.7419355 L126.234879,87.7419355 C125.966482,85.9248994 125.409526,84.1960684 124.629536,82.5806452 L132.774194,82.5806452 C134.983333,82.5806452 136.774194,80.7897842 136.774194,78.5806452 L136.774194,51.6129032 L136.774194,51.6129032 L147.096774,51.6129032 C148.522025,51.6129032 149.677419,50.457509 149.677419,49.0322581 C149.677419,47.6070071 148.522025,46.4516129 147.096774,46.4516129 L144.516129,46.4516129 L144.516129,46.4516129 L144.516129,41.2903226 L152.258065,41.2903226 Z M36.1290323,41.2903226 L5.16129032,41.2903226 L5.16129032,15.483871 L36.1290323,15.483871 L36.1290323,41.2903226 Z M7.74193548,5.16129032 L33.5483871,5.16129032 C34.9722781,5.16129032 36.1290323,6.31804452 36.1290323,7.74193548 L36.1290323,10.3225806 L5.16129032,10.3225806 L5.16129032,7.74193548 C5.16129032,6.31804452 6.31804452,5.16129032 7.74193548,5.16129032 Z M5.16129032,59.3548387 L5.16129032,46.4516129 L36.1290323,46.4516129 L36.1290323,59.3548387 C36.1290323,60.7787297 34.9722781,61.9354839 33.5483871,61.9354839 L7.74193548,61.9354839 C6.31804452,61.9354839 5.16129032,60.7787297 5.16129032,59.3548387 Z M51.6129032,152.258065 C51.6129032,153.681955 50.456149,154.83871 49.0322581,154.83871 L7.74193548,154.83871 C6.31804452,154.83871 5.16129032,153.681955 5.16129032,152.258065 L5.16129032,149.677419 L51.6129032,149.677419 L51.6129032,152.258065 Z M46.4516129,121.290323 L46.4516129,144.516129 L10.3225806,144.516129 L10.3225806,121.290323 C10.3225806,119.866432 11.4793348,118.709677 12.9032258,118.709677 L43.8709677,118.709677 C45.2948587,118.709677 46.4516129,119.866432 46.4516129,121.290323 Z M123.870968,153.83871 L123.870968,140.354839 C123.870968,139.802554 124.318683,139.354839 124.870968,139.354839 L153.83871,139.354839 C154.390994,139.354839 154.83871,139.802554 154.83871,140.354839 L154.83871,153.83871 C154.83871,154.390994 154.390994,154.83871 153.83871,154.83871 L124.870968,154.83871 C124.318683,154.83871 123.870968,154.390994 123.870968,153.83871 Z M153.83871,134.193548 L124.870968,134.193548 C124.318683,134.193548 123.870968,133.745833 123.870968,133.193548 L123.870968,119.709677 C123.870968,119.157393 124.318683,118.709677 124.870968,118.709677 L153.83871,118.709677 C154.390994,118.709677 154.83871,119.157393 154.83871,119.709677 L154.83871,133.193548 C154.83871,133.745833 154.390994,134.193548 153.83871,134.193548 Z M51.6129032,103.225806 C44.4984877,103.225806 38.7096774,97.4369961 38.7096774,90.3225806 C38.7096774,83.7991432 43.59249,78.296371 50.0642642,77.5226813 L51.7578126,77.3185484 L52.2353832,75.6804435 C54.1444052,69.1066029 60.2583165,64.516129 67.0967742,64.516129 C69.9458165,64.516129 72.7431955,65.3162803 75.1953126,66.8258568 L77.6587703,68.3455142 L78.8873487,65.7207661 C81.4276713,60.2835181 86.9291835,56.7741935 92.9032258,56.7741935 C101.442792,56.7741935 108.387097,63.7184981 108.387097,72.2580645 C108.387097,72.97001 108.322833,73.7285787 108.182964,74.6446574 L107.793599,77.1975806 L110.345262,77.5844255 C116.585181,78.5370465 121.290323,84.0133568 121.290323,90.3225806 C121.290323,97.4369961 115.501512,103.225806 108.387097,103.225806 L51.6129032,103.225806 Z M116.129032,5.16129032 L152.258065,5.16129032 C153.681955,5.16129032 154.83871,6.31804452 154.83871,7.74193548 L154.83871,25.8064516 L113.548387,25.8064516 L113.548387,7.74193548 C113.548387,6.31804452 114.705141,5.16129032 116.129032,5.16129032 Z M113.548387,33.5483871 L113.548387,30.9677419 L154.83871,30.9677419 L154.83871,33.5483871 C154.83871,34.9722781 153.681955,36.1290323 152.258065,36.1290323 L116.129032,36.1290323 C114.705141,36.1290323 113.548387,34.9722781 113.548387,33.5483871 Z M139.354839,46.4516129 L129.032258,46.4516129 L129.032258,41.2903226 L139.354839,41.2903226 L139.354839,46.4516129 Z" id="article_b_sdwan_p1_01" fill="#4D4D4D"></path>
        </g>
    </g>
</svg>