<?xml version="1.0" encoding="UTF-8"?>
<svg width="44px" height="44px" viewBox="0 0 44 44" version="1.1" xmlns="http://www.w3.org/2000/svg" xmlns:xlink="http://www.w3.org/1999/xlink">
    <title>ic_a/cdn/ic_a_cdn_p3_07</title>
    <defs>
        <filter color-interpolation-filters="auto" id="filter-1">
            <feColorMatrix in="SourceGraphic" type="matrix" values="0 0 0 0 0.278431 0 0 0 0 0.827451 0 0 0 0 0.509804 0 0 0 1.000000 0"></feColorMatrix>
        </filter>
    </defs>
    <g id="ic_a/cdn/ic_a_cdn_p3_07" stroke="none" stroke-width="1" fill="none" fill-rule="evenodd">
        <g filter="url(#filter-1)" id="hand">
            <g transform="translate(2.000000, 2.000000)">
                <path d="M15.4545455,8.63621026 C15.4545455,13.3982127 19.3288221,17.2727273 24.0909091,17.2727273 C28.8529961,17.2727273 32.7272727,13.3982127 32.7272727,8.63621026 C32.7272727,3.87420783 28.8529961,0 24.0909091,0 C19.3288221,0 15.4545455,3.87420783 15.4545455,8.63621026 Z M31.1571921,8.63621026 C31.1571921,12.5325056 27.9872736,15.7023678 24.0909091,15.7023678 C20.1945446,15.7023678 17.024626,12.5325056 17.024626,8.63621026 C17.024626,4.74022169 20.1945446,1.57035951 24.0909091,1.57035951 C27.9872736,1.57035951 31.1571921,4.74022169 31.1571921,8.63621026 Z" id="Shape" fill="#000000" fill-rule="nonzero"></path>
                <path d="M8.9990096,39.7668351 C9.30183848,40.074929 9.79485125,40.078318 10.1016486,39.7733051 L13.8894519,36.0071659 C14.5329633,35.3577041 14.728642,34.3961432 14.4456557,33.5602846 L15.2604242,32.7672511 C15.6990987,32.3396168 16.2766715,32.103925 16.8872136,32.103925 L27.2734507,32.103925 C29.1160667,32.103925 30.8576381,31.3897635 32.1779354,30.0929965 C32.2322736,30.0396963 31.7655142,30.5945733 39.2635818,21.5501704 C40.3756843,20.222286 40.2093115,18.2283026 38.8923722,17.1046843 C37.5836752,15.9915412 35.6232245,16.1514419 34.5080693,17.4565275 L29.8978659,22.2387601 C29.315714,21.5156639 28.4279858,21.0649226 27.4688242,21.0649226 L18.7566935,21.0649226 C17.5169878,20.5414711 16.2015748,20.2765105 14.8443397,20.2765105 C11.0821793,20.2765105 7.79715748,22.0301806 6.03421713,25.3181581 C5.29149267,25.1761268 4.50816711,25.4028839 3.94463671,25.9716252 L0.227961692,29.7337591 C-0.0754777736,30.0409286 -0.0760882766,30.537884 0.226740608,30.8459778 L8.9990096,39.7668351 Z M14.8440344,21.8533347 C16.0406969,21.8533347 17.1976743,22.0964207 18.2835234,22.5758148 C18.3824312,22.6195641 18.4889709,22.642055 18.5967315,22.642055 L27.4688242,22.642055 C28.3159513,22.642055 29.0315066,23.3392714 29.0315066,24.2188792 C29.0315066,25.0886282 28.3306043,25.7960116 27.4688242,25.7960116 L21.0944592,25.7960116 C20.6631113,25.7960116 20.3132707,26.1490872 20.3132707,26.5844238 C20.3132707,27.0200685 20.6631113,27.372836 21.0944592,27.372836 L27.4688242,27.372836 C29.1920792,27.372836 30.5938839,25.958069 30.5938839,24.2188792 C30.5938839,24.080237 30.5841152,23.9428271 30.5664095,23.8066497 C35.0261143,19.1800045 35.6549727,18.5299264 35.6818366,18.4975766 C36.238651,17.8342506 37.2271186,17.750141 37.8846725,18.3096394 C38.5428368,18.8712944 38.6261759,19.8682861 38.0678351,20.5353093 L31.0603381,28.9900205 C30.0370695,29.9814665 28.6935715,30.5271007 27.2734507,30.5271007 L16.8872136,30.5271007 C15.8694399,30.5271007 14.9060044,30.9199204 14.1751856,31.6325414 L13.511221,32.2792304 L7.39053636,26.1022569 C8.82103655,23.3938039 11.5052849,21.8533347 14.8440344,21.8533347 L14.8440344,21.8533347 Z M5.0503285,27.0860006 C5.30797727,26.8259694 5.70360856,26.7791391 6.01773245,26.9750868 C6.15296755,27.0582721 5.76466277,26.7014995 12.7846759,33.7765665 C13.0969682,34.0917465 13.0801783,34.5939394 12.7889497,34.887861 L9.5597925,38.0985069 L1.8831413,30.291717 L5.0503285,27.0860006 Z" id="Shape" fill="#000000" fill-rule="nonzero"></path>
                <path d="M23.4562832,3.50671098 L23.4562832,4.41981074 C22.5837792,4.74132902 21.9570056,5.60754065 21.9570056,6.62355057 C21.9570056,7.91236396 22.965701,8.96125644 24.2057755,8.96125644 C24.6190361,8.96125644 24.9552678,9.31078578 24.9552678,9.74039024 C24.9552678,10.1699946 24.6190361,10.519524 24.2057755,10.519524 C23.8856524,10.519524 23.5397553,10.3103545 23.2325191,9.93007387 C22.9659939,9.60063938 22.4932778,9.5583183 22.1763763,9.83507983 C21.8594749,10.1121457 21.8184711,10.6035572 22.0849962,10.9329916 C22.4856627,11.4283612 22.9569145,11.773628 23.4562832,11.9477837 L23.4562832,12.8572298 C23.4562832,13.2877476 23.7919293,13.6363636 24.2057755,13.6363636 C24.6196218,13.6363636 24.9552678,13.2877476 24.9552678,12.8572298 L24.9552678,11.9441301 C25.8277719,11.6223073 26.4545455,10.7560957 26.4545455,9.74039024 C26.4545455,8.4512724 25.44585,7.40268438 24.2057755,7.40268438 C23.792515,7.40268438 23.4562832,7.05315503 23.4562832,6.62355057 C23.4562832,6.19394619 23.792515,5.84411232 24.2057755,5.84411232 C24.4714221,5.84411232 24.7517129,5.98508105 25.0164808,6.25149063 C25.3140519,6.55078276 25.7885253,6.5425621 26.0764312,6.233527 C26.3643369,5.92418744 26.356429,5.43094917 26.0591509,5.13165712 C25.6786935,4.7489407 25.2979432,4.53246396 24.9552678,4.41433027 L24.9552678,3.50671098 C24.9552678,3.07619317 24.6196218,2.72727273 24.2057755,2.72727273 C23.7919293,2.72727273 23.4562832,3.07619317 23.4562832,3.50671098 L23.4562832,3.50671098 Z" id="Path" fill="#000000" fill-rule="nonzero"></path>
            </g>
        </g>
    </g>
</svg>