<?xml version="1.0" encoding="UTF-8"?>
<svg width="44px" height="44px" viewBox="0 0 44 44" version="1.1" xmlns="http://www.w3.org/2000/svg" xmlns:xlink="http://www.w3.org/1999/xlink">
    <!-- Generator: Sketch 58 (84663) - https://sketch.com -->
    <title>ic_a/noc/ic_a_noc_p3_03</title>
    <desc>Created with Sketch.</desc>
    <g id="ic_a/noc/ic_a_noc_p3_03" stroke="none" stroke-width="1" fill="none" fill-rule="evenodd">
        <path d="M38.8602693,17.7970591 C39.9888999,17.7970591 40.9161231,18.6618557 40.9946177,19.7538301 L41,19.904084 L41,30.177566 C41,31.2889454 40.1217118,32.2020629 39.0127816,32.2793635 L38.860195,32.284664 L38.244104,32.284664 L38.244104,36.1172129 C38.244104,36.4743035 38.0256036,36.7960944 37.6907279,36.9327623 C37.5798449,36.9780016 37.4633212,37 37.3478366,37 C37.153445,37 36.9618365,36.937726 36.8041076,36.8192259 L36.7137846,36.7414272 L32.1879164,32.284737 L21.0169336,32.284737 C19.888303,32.284737 18.9610119,31.4198735 18.8825114,30.3278933 L18.8771287,30.1776391 L18.8771287,19.904157 C18.8771287,18.7927776 19.7554168,17.8796601 20.8643471,17.8023595 L21.0169336,17.7970591 L38.8602693,17.7970591 Z M38.8603435,19.5624872 L21.0169336,19.5624872 C20.8495793,19.5624872 20.7095004,19.6797695 20.6770956,19.8353112 L20.6700345,19.904084 L20.6700345,30.177566 C20.6700345,30.3423623 20.7891373,30.4803001 20.9470934,30.5122096 L21.0169336,30.5191627 L32.559753,30.5191627 C32.7859722,30.5191627 32.9920781,30.6024059 33.1498675,30.7386354 L33.167513,30.7538826 L33.1861605,30.771158 L33.1965512,30.7810244 L36.4513466,33.9861432 L36.4519559,33.1298896 C36.452596,32.3593979 36.4537075,31.3458524 36.4551317,31.3339083 C36.4878109,30.9132791 36.819045,30.5750373 37.2408433,30.5254891 L37.3480593,30.5192358 L38.8603435,30.5192358 C39.0276978,30.5192358 39.1677767,30.4018976 39.2001815,30.2463909 L39.2072426,30.1776391 L39.2072426,19.904084 C39.2072426,19.7157453 39.0516056,19.5624872 38.8603435,19.5624872 Z M30.6309524,7 C31.759512,7 32.6868001,7.86479663 32.7653004,8.95677103 L32.7706831,9.10702488 L32.7706831,14.8847166 C32.7706831,15.372263 32.3692331,15.7674306 31.8742673,15.7674306 C31.4173758,15.7674306 31.0401664,15.4307197 30.9848377,14.9954496 L30.9778515,14.8847166 L30.9778515,9.10702488 C30.9778515,8.94222856 30.8587487,8.80429079 30.7007927,8.77238129 L30.6309524,8.76542813 L5.13980496,8.76542813 C4.97245063,8.76542813 4.83237174,8.88271041 4.79996693,9.03825212 L4.79290585,9.10702488 L4.79290585,24.1665887 C4.79290585,24.331385 4.91200862,24.4693228 5.06996469,24.5012323 L5.13980496,24.5081855 L7.68870447,24.5081855 C8.15680304,24.5081855 8.54066317,24.8616219 8.58111246,25.3122606 L8.58179662,25.4013934 C8.58332969,25.7929479 8.58441771,27.3905574 8.58501875,28.5354049 L8.5855656,29.7488526 L13.6449934,24.7667583 C13.8045641,24.6096998 14.0094082,24.525068 14.2181118,24.5111088 C14.2269067,24.5102318 14.6523108,24.509501 15.0755163,24.5089894 L15.9197284,24.5081855 C16.4146942,24.5081855 16.8161442,24.9033531 16.8161442,25.3909726 C16.8161442,25.8410154 16.4742067,26.212345 16.0321802,26.2668097 L15.9197284,26.2736867 L14.6502884,26.2736867 L8.32305337,32.5041366 C8.1515335,32.6729617 7.92234555,32.7627094 7.68900135,32.7627094 C7.57351675,32.7627094 7.45699308,32.7407841 7.34611005,32.6954717 C7.04831086,32.5739891 6.84269703,32.306121 6.8006816,31.997401 L6.79273397,31.8799222 L6.79273397,26.2736136 L5.13980496,26.2736136 C4.01117436,26.2736136 3.08388321,25.4087501 3.00538271,24.3167699 L3,24.1665156 L3,9.10702488 C3,7.99571534 3.87822026,7.08260091 4.98720956,7.00530043 L5.13980496,7 L30.6309524,7 Z M29.938787,24.158184 C30.4336044,24.158184 30.8352028,24.553644 30.8352028,25.0408981 C30.8352028,25.5281521 30.4336786,25.9236121 29.938787,25.9236121 C29.4439696,25.9236121 29.0423712,25.5281521 29.0423712,25.0408981 C29.0423712,24.553644 29.4439696,24.158184 29.938787,24.158184 Z M25.7731031,24.158184 C26.2679947,24.158184 26.6695189,24.553644 26.6695189,25.0408981 C26.6695189,25.5281521 26.2679947,25.9236121 25.7731031,25.9236121 C25.2783599,25.9236121 24.8766873,25.5281521 24.8766873,25.0408981 C24.8766873,24.553644 25.2783599,24.158184 25.7731031,24.158184 Z M34.1035803,24.158184 C34.5983977,24.158184 34.9999961,24.553644 34.9999961,25.0408981 C34.9999961,25.5281521 34.5984719,25.9236121 34.1035803,25.9236121 C33.6087629,25.9236121 33.2071645,25.5281521 33.2071645,25.0408981 C33.2071645,24.553644 33.6087629,24.158184 34.1035803,24.158184 Z M15.9196541,18.6720993 C16.4146942,18.6720993 16.81607,19.0672669 16.81607,19.5548133 C16.81607,20.0048562 16.4741325,20.3761858 16.032106,20.4306504 L15.9196541,20.4375274 L9.72794283,20.4375274 C9.23297702,20.4375274 8.83152701,20.0423598 8.83152701,19.5548133 C8.83152701,19.1047705 9.17352768,18.7334409 9.61550556,18.6789763 L9.72794283,18.6720993 L15.9196541,18.6720993 Z M26.0428888,12.8360131 C26.5379288,12.8360131 26.9393046,13.2311808 26.9393046,13.7187272 C26.9393046,14.16877 26.5973039,14.5400996 26.155326,14.5945642 L26.0428888,14.6014412 L9.72794283,14.6014412 C9.23297702,14.6014412 8.83152701,14.2062736 8.83152701,13.7187272 C8.83152701,13.2686843 9.17352768,12.8973547 9.61550556,12.8428901 L9.72794283,12.8360131 L26.0428888,12.8360131 Z" id="Combined-Shape" fill="#FF874D"></path>
    </g>
</svg>