<?xml version="1.0" encoding="UTF-8"?>
<svg width="44px" height="44px" viewBox="0 0 44 44" version="1.1" xmlns="http://www.w3.org/2000/svg" xmlns:xlink="http://www.w3.org/1999/xlink">
    <!-- Generator: Sketch 58 (84663) - https://sketch.com -->
    <title>ic_a/noc/ic_a_noc_p1_04</title>
    <desc>Created with Sketch.</desc>
    <g id="ic_a/noc/ic_a_noc_p1_04" stroke="none" stroke-width="1" fill="none" fill-rule="evenodd">
        <path d="M37.1168637,7 C39.8149777,7 42.0082299,9.16965742 41.9999768,11.8287113 L41.9999768,11.8287113 L41.9999768,32.1794454 C41.9999768,34.8384992 39.8067013,37 37.1085873,37 L37.1085873,37 L6.89136612,37 C4.19325215,37 2,34.8384992 2,32.1794454 L2,32.1794454 L2,11.8205546 C2,9.16150082 4.19325215,7 6.89136612,7 L6.89136612,7 Z M37.1085873,9.21044046 L6.89136612,9.21044046 C5.42643921,9.21044046 4.23463427,10.3849918 4.23463427,11.8287113 L4.23463427,11.8287113 L4.23463427,32.1794454 C4.23463427,33.6231648 5.42643921,34.7977162 6.89136612,34.7977162 L6.89136612,34.7977162 L37.1168637,34.7977162 C38.5817906,34.7977162 39.7735956,33.6231648 39.7735956,32.1794454 L39.7735956,32.1794454 L39.7653192,32.1794454 L39.7653192,11.8287113 C39.7653192,10.3849918 38.5735142,9.21044046 37.1085873,9.21044046 L37.1085873,9.21044046 Z M6.89964255,11.54323 C7.31346371,11.08646 8.01695968,11.045677 8.48043938,11.4535073 L8.48043938,11.4535073 L19.190131,20.8988581 C19.2563424,20.9477977 19.3142774,20.9967374 19.3722123,21.0538336 C19.3722123,21.0619902 19.3804888,21.0701468 19.3887652,21.0783034 L19.3887652,21.0783034 L22.0206678,23.3947798 L35.5112376,11.4616639 C35.9747173,11.0538336 36.6782133,11.0946166 37.0920345,11.54323 C37.5058556,12 37.4644735,12.6933116 37.0092702,13.1011419 L37.0092702,13.1011419 L27.226538,21.7471452 L37.0506523,30.9396411 C37.4975792,31.3556281 37.5141321,32.0570962 37.0920345,32.497553 C36.868571,32.725938 36.5788962,32.8401305 36.280945,32.8401305 C36.007823,32.8401305 35.7264246,32.7422512 35.5112376,32.5383361 L35.5112376,32.5383361 L25.5629769,23.223491 L22.7738223,25.6867863 C22.5669117,25.8743883 22.2937897,25.9722675 22.0289442,25.9722675 C21.7640987,25.9722675 21.4992531,25.8825449 21.2840661,25.6949429 L21.2840661,25.6949429 L18.5693993,23.3050571 L8.56320362,32.5301794 C8.34801661,32.725938 8.07489465,32.8238173 7.80177268,32.8238173 C7.50382144,32.8238173 7.20587021,32.7014682 6.98240678,32.4730832 C6.5603092,32.0244698 6.58513847,31.3311582 7.03206532,30.9151713 L7.03206532,30.9151713 L16.8892854,21.8205546 L6.9906832,13.1011419 C6.5272035,12.6933116 6.48582139,12 6.89964255,11.54323 Z" id="Combined-Shape" fill="#39BFB0"></path>
    </g>
</svg>