<?xml version="1.0" encoding="UTF-8"?>
<svg width="44px" height="44px" viewBox="0 0 44 44" version="1.1" xmlns="http://www.w3.org/2000/svg" xmlns:xlink="http://www.w3.org/1999/xlink">
    <!-- Generator: Sketch 58 (84663) - https://sketch.com -->
    <title>ic_a/noc/ic_a_noc_p1_07</title>
    <desc>Created with Sketch.</desc>
    <g id="ic_a/noc/ic_a_noc_p1_07" stroke="none" stroke-width="1" fill="none" fill-rule="evenodd">
        <path d="M40.671324,39.0620843 L31.4346862,29.8274945 C33.9123974,26.9796009 35.4125083,23.2638581 35.4125083,19.2026608 C35.4125083,10.2629712 28.1394988,3 19.2062542,3 C10.2645819,3 3,10.2713969 3,19.2026608 C3,28.1339246 10.2730095,35.4053215 19.2062542,35.4053215 C23.2683522,35.4053215 26.9849191,33.9055432 29.8334442,31.4283814 L39.0700821,40.6629712 C39.2891994,40.8820399 39.584165,41 39.870703,41 C40.1572411,41 40.4522067,40.8904656 40.671324,40.6629712 C41.1095587,40.2248337 41.1095587,39.5002217 40.671324,39.0620843 Z M5.26702151,19.2026608 C5.26702151,11.5184035 11.5202927,5.27494457 19.1978266,5.27494457 C26.883788,5.27494457 33.1286316,11.5268293 33.1286316,19.2026608 C33.1286316,26.8784922 26.883788,33.1388027 19.1978266,33.1388027 C11.5202927,33.1388027 5.26702151,26.886918 5.26702151,19.2026608 Z" id="Shape" fill="#39BFB0"></path>
    </g>
</svg>