<?xml version="1.0" encoding="UTF-8"?>
<svg width="44px" height="44px" viewBox="0 0 44 44" version="1.1" xmlns="http://www.w3.org/2000/svg" xmlns:xlink="http://www.w3.org/1999/xlink">
    <!-- Generator: Sketch 58 (84663) - https://sketch.com -->
    <title>ic_a/noc/ic_a_noc_p3_02</title>
    <desc>Created with Sketch.</desc>
    <g id="ic_a/noc/ic_a_noc_p3_02" stroke="none" stroke-width="1" fill="none" fill-rule="evenodd">
        <path d="M27.0803108,27.4287276 L27.1832594,27.4544815 L35.0666159,28.9999473 C36.1054577,29.2575292 36.98086,30.0827687 37.2293465,31.1692357 L37.2665949,31.3636145 L38,38.0909451 C38,38.2727417 38,38.363679 37.9083047,38.5454755 C37.9083047,40.390899 36.452115,41.896565 34.6162159,41.9948922 L34.4249849,42 L8.48331977,42 C6.62251372,42 5.10429723,40.5558481 5.00515036,38.6529823 L5,38.4545382 L5,38.090867 L5.73332633,31.3636145 C5.90645423,30.2474014 6.7336911,29.3745299 7.75175953,29.0512325 L7.93330532,28.9999473 L15.8166619,27.4544034 C16.3666763,27.3634661 16.8249954,27.7271373 16.9166907,28.1816676 C17.0018364,28.6881733 16.6917308,29.1162688 16.2800397,29.2476506 L16.1833644,29.272603 L8.30000788,30.8180687 C7.96671353,30.900739 7.63335409,31.2087446 7.57549778,31.5372939 L7.56668155,31.6362702 L6.83335522,38.3635227 L6.83335522,38.5453192 C6.83335522,39.4065347 7.49152068,40.1045865 8.34019097,40.17568 L8.48331977,40.1816442 L34.5166802,40.1816442 C35.3850743,40.1816442 36.0889447,39.5289195 36.1606308,38.6872649 L36.1666448,38.5453192 L36.1666448,38.3635227 L35.3416231,31.6362702 C35.2601862,31.2322433 35.033848,30.971858 34.7270091,30.8551144 L34.6082968,30.8180687 L27.1832594,29.3635403 L23.7915562,32.1817379 C23.3905269,32.4998818 22.9894977,32.7484617 22.5270398,32.8665565 L22.3249035,32.9090021 L22.3249035,37.454462 C22.3249035,37.9998516 21.9582009,38.3635227 21.4082653,38.3635227 C20.8976107,38.3635227 20.544948,38.0500165 20.497173,37.5684979 L20.4916271,37.454462 L20.4916271,32.9090021 C20.0987146,32.7531765 19.70586,32.597351 19.3130137,32.3269921 L19.116591,32.1817379 L17.2832357,30.909006 C16.8249166,30.6362722 16.7332213,30.0908045 17.0082285,29.6362741 C17.2620813,29.2167077 17.7502598,29.1069483 18.1843425,29.3070574 L18.2915693,29.3635403 L20.2165411,30.6362722 C20.2165411,30.7272095 20.3082364,30.7272095 20.3082364,30.7272095 C20.9958037,31.2385855 21.9249381,31.2705465 22.5671466,30.8230925 L22.6916061,30.7272095 L26.449933,27.6362781 C26.6103309,27.4772061 26.8409331,27.3876982 27.0803108,27.4287276 Z M21.4999606,2 C26.0833093,2 29.9333316,5.36366531 30.5749626,9.81810973 C30.6666579,9.90904705 30.6666579,9.99998438 30.6666579,10.1817809 C32.2249271,10.1817809 33.4165726,11.3636536 33.4165726,12.9090412 L33.4165726,12.9090412 L33.4165726,14.7272408 C33.4165726,15.5454423 33.0499488,16.2727065 32.4999344,16.7272369 L32.4999344,16.7272369 L32.4999344,19.2727006 C32.4999344,20.8181664 31.3082889,21.9999609 29.7499409,21.9999609 L29.7499409,21.9999609 L27.9165857,21.9999609 L26.1750046,24.2726909 C25.5332948,25.0908924 24.4333447,25.6363601 23.3333158,25.6363601 L23.3333158,25.6363601 L19.5749888,25.6363601 C18.47496,25.6363601 17.4666264,25.1817516 16.7333001,24.2726909 L16.7333001,24.2726909 L13.3415969,19.9090275 C12.7915824,19.1817633 12.4249586,18.3635618 12.3332633,17.4545011 C10.7749153,17.4545011 9.58326987,16.2727065 9.58326987,14.7272408 L9.58326987,14.7272408 L9.58326987,12.9090412 C9.58326987,11.3635755 10.7749153,10.1817809 12.3332633,10.1817809 L12.3332633,10.1817809 L12.4249586,10.1817809 C12.8832778,5.63632102 16.7333001,2 21.4999606,2 Z M24.249954,9.45451669 C21.4999606,10.9999824 18.0166408,11.9090431 14.2583139,11.9999805 L14.2583139,11.9999805 L14.2583139,17.0000488 C14.2583139,17.6363757 14.4416257,18.2727807 14.8083283,18.7273111 L14.8083283,18.7273111 L18.2000315,23.0908963 C18.5666553,23.5454267 19.1166697,23.8181605 19.6666842,23.8181605 L19.6666842,23.8181605 L23.3333158,23.8181605 C23.8833303,23.8181605 24.4332659,23.5454267 24.7999685,23.0908963 L24.7999685,23.0908963 L25.808302,21.9999609 L20.2166198,21.9999609 C19.4832935,21.9999609 18.8416625,21.3637903 18.8416625,20.636448 C18.8416625,19.9091056 19.4833723,19.2727788 20.2166986,19.2727788 L20.2166986,19.2727788 L22.9666921,19.2727788 C23.5167065,19.2727788 24.0667209,19.6363718 24.2500328,20.1818395 L24.2500328,20.1818395 L27.1833381,20.1818395 L28.3749836,18.8181703 C28.7416861,18.2727026 28.924998,17.7272349 28.924998,17.090908 L28.924998,17.090908 L28.924998,11.0908416 C27.1832594,10.9090451 25.5332948,10.3635774 24.249954,9.45451669 Z M30.5748838,17.4545011 C30.5748838,18.3635618 30.20826,19.1817633 29.6582456,19.9090275 L29.6582456,19.9090275 L29.4749337,20.1817614 L29.7499409,20.1817614 C30.2999554,20.1817614 30.6666579,19.8181683 30.6665792,19.2727006 L30.6665792,19.2727006 L30.5748838,19.2727006 Z M12.3332633,11.9999805 C11.7833276,11.9999805 11.4166251,12.3635735 11.4166251,12.9090412 L11.4166251,12.9090412 L11.4166251,14.7272408 C11.4166251,15.2726303 11.7832489,15.6363015 12.3332633,15.6363015 L12.3332633,15.6363015 Z M30.6666579,11.9999805 L30.6666579,15.6363015 C31.2165936,15.6363015 31.5832961,15.2727085 31.5832961,14.7272408 L31.5832961,14.7272408 L31.5832961,12.9090412 C31.5832961,12.3636516 31.2166724,11.9999805 30.6666579,11.9999805 L30.6666579,11.9999805 Z M18.7499672,12.9091193 C19.2562125,12.9091193 19.6666054,13.3161197 19.6666054,13.81818 C19.6666054,14.3202404 19.2562125,14.7272408 18.7499672,14.7272408 C18.2437219,14.7272408 17.833329,14.3202404 17.833329,13.81818 C17.833329,13.3161197 18.2437219,12.9091193 18.7499672,12.9091193 Z M24.249954,12.9091193 C24.7561994,12.9091193 25.1665923,13.3161197 25.1665923,13.81818 C25.1665923,14.3202404 24.7561994,14.7272408 24.249954,14.7272408 C23.7437087,14.7272408 23.3333158,14.3202404 23.3333158,13.81818 C23.3333158,13.3161197 23.7437087,12.9091193 24.249954,12.9091193 Z M21.4999606,3.81819957 C17.7416336,3.81819957 14.716633,6.54545987 14.2583139,10.1817809 C17.833329,9.99998438 21.2249534,9.09092365 23.7916349,7.54545792 C24.0666422,7.3636614 24.5249613,7.3636614 24.7999685,7.63639524 C25.808302,8.45459677 27.1832594,9.00006445 28.5582955,9.18186097 C27.7332738,6.09092951 24.8916638,3.81819957 21.4999606,3.81819957 Z" id="Combined-Shape" fill="#47D382"></path>
    </g>
</svg>