<?xml version="1.0" encoding="UTF-8"?>
<svg width="44px" height="44px" viewBox="0 0 44 44" version="1.1" xmlns="http://www.w3.org/2000/svg" xmlns:xlink="http://www.w3.org/1999/xlink">
    <!-- Generator: Sketch 58 (84663) - https://sketch.com -->
    <title>ic_a/noc/ic_a_noc_p3_05</title>
    <desc>Created with Sketch.</desc>
    <g id="ic_a/noc/ic_a_noc_p3_05" stroke="none" stroke-width="1" fill="none" fill-rule="evenodd">
        <path d="M27.1608277,2 C35.3432007,2 42,8.6567993 42,16.8391723 C42,25.0215454 35.3432007,31.6783447 27.1608277,31.6783447 C24.1968079,31.6783447 21.4332715,30.8041144 19.1133469,29.3006401 L18.7849731,29.081604 L16.357605,31.5089722 L16.6884155,31.8394775 C16.8348999,31.9859619 16.9169922,32.1849366 16.9169922,32.3921509 C16.9169922,32.5579224 16.8644531,32.7182251 16.7684375,32.8507153 L16.6884155,32.9445191 L8.79931641,40.833313 C8.04705812,41.5855713 7.04669188,42 5.98284914,42 C4.91900633,42 3.91894531,41.5855713 3.16668703,40.833313 C2.41442875,40.0810547 2,39.0809937 2,38.0171509 C2,37.0292969 2.35733908,36.0961752 3.0106876,35.3656121 L3.16668703,35.2006836 L11.0554809,27.3118897 C11.3329135,27.0344572 11.7669693,27.009236 12.0728788,27.2362263 L12.1605225,27.3118897 L12.4910278,27.642395 L14.918396,25.2150269 C13.281128,22.8294678 12.3216553,19.9446411 12.3216553,16.8391723 C12.3216553,8.6567993 18.9784546,2 27.1608277,2 Z M11.6078491,28.9689941 L4.27142336,36.3054199 C3.32751469,37.2493286 3.32751469,38.7849731 4.27142336,39.7285766 C4.72857664,40.18573 5.33618164,40.4375 5.98284914,40.4375 C6.56484982,40.4375 7.11520994,40.2335663 7.55294921,39.8595148 L7.69458008,39.7285766 L15.0310059,32.3921509 L11.6078491,28.9689941 Z M15.8775634,26.4656372 L13.5960694,28.7471313 L15.2528687,30.4039306 L17.5343628,28.1224366 C16.9398804,27.6143188 16.3856812,27.0601196 15.8775634,26.4656372 Z M27.1608277,3.5625 C19.840271,3.5625 13.8841553,9.51831055 13.8841553,16.8391723 C13.8841553,24.1600342 19.840271,30.1158447 27.1608277,30.1158447 C34.4816895,30.1158447 40.4375,24.1600342 40.4375,16.8391723 C40.4375,9.51831055 34.4816895,3.5625 27.1608277,3.5625 Z M27.2767945,5.6328125 C33.3919067,5.6328125 38.3671875,10.6080933 38.3671875,16.7232055 C38.3671875,22.838623 33.3919067,27.8135986 27.2767945,27.8135986 C21.1616821,27.8135986 16.1864014,22.838623 16.1864014,16.7232055 C16.1864014,10.6080933 21.1616821,5.6328125 27.2767945,5.6328125 Z M27.2767945,7.1953125 C22.0231934,7.1953125 17.7489014,11.4696045 17.7489014,16.7232055 C17.7489014,21.9771118 22.0231934,26.2510986 27.2767945,26.2510986 C32.5303955,26.2510986 36.8046875,21.9768066 36.8046875,16.7232055 C36.8046875,11.4696045 32.5303955,7.1953125 27.2767945,7.1953125 Z M27.2764892,21.7570801 C27.4821777,21.7570801 27.6835938,21.8406983 27.8288574,21.9859619 C27.9744263,22.1312256 28.0577392,22.3329468 28.0577392,22.5383301 C28.0577392,22.7437134 27.9741211,22.9454345 27.8288574,23.0906983 C27.6835938,23.2365723 27.4821777,23.3195801 27.2764892,23.3195801 C27.0711059,23.3195801 26.8696899,23.2365723 26.7244263,23.0906983 C26.5788574,22.9454345 26.4952392,22.7446289 26.4952392,22.5383301 C26.4952392,22.3329468 26.5791626,22.1312256 26.7244263,21.9859619 C26.8696899,21.8406983 27.0711059,21.7570801 27.2764892,21.7570801 Z M27.6671142,10.4542847 C29.2552491,10.6297608 30.5354614,11.909668 30.7109375,13.4981079 C30.8644409,14.8881836 30.1777954,16.2260742 28.9613648,16.906311 C28.4505513,17.1919301 28.1171892,17.6893624 28.0651762,18.2293625 L28.0580445,18.3775634 L28.0580445,19.4923706 C28.0580445,19.9238891 27.7080078,20.2736206 27.2767945,20.2736206 C26.8812357,20.2736206 26.554401,19.979749 26.5026755,19.5983913 L26.4955445,19.4923706 L26.4955445,18.3775634 C26.4955445,17.2163696 27.1483155,16.1299438 28.1987305,15.5424805 C28.8658447,15.1695556 29.2421265,14.4343872 29.157898,13.6696167 C29.0620727,12.8023071 28.362915,12.1031494 27.4956055,12.0073242 C26.9465942,11.9465942 26.4207764,12.1135254 26.0142822,12.4776001 C25.6135864,12.8364868 25.3834839,13.350708 25.3834839,13.8884277 C25.3834839,14.3199463 25.0337524,14.6696777 24.6022339,14.6696777 C24.1707153,14.6696777 23.8209839,14.3199463 23.8209839,13.8884277 C23.8209839,12.9069824 24.2406006,11.9685669 24.9718017,11.3136597 C25.7026977,10.6590577 26.6856689,10.3459473 27.6671142,10.4542847 Z" id="Combined-Shape" fill="#FF874D"></path>
    </g>
</svg>