<?xml version="1.0" encoding="UTF-8"?>
<svg width="80px" height="80px" viewBox="0 0 80 80" version="1.1" xmlns="http://www.w3.org/2000/svg" xmlns:xlink="http://www.w3.org/1999/xlink">
    <!-- Generator: Sketch 59.1 (86144) - https://sketch.com -->
    <title>ic/cat_d/ic_cat_d_07</title>
    <desc>Created with Sketch.</desc>
    <g id="ic/cat_d/ic_cat_d_07" stroke="none" stroke-width="1" fill="none" fill-rule="evenodd">
        <path d="M20.2881356,29.8544699 L37.0677966,29.8544699 C38.2811441,29.8544699 39.270339,30.7947348 39.3506654,31.9893625 L39.3559322,32.1465696 L39.3559322,62.7079002 C39.3559322,63.9087058 38.4172934,64.9130382 37.2247319,64.9946478 L37.0677966,65 L20.2881356,65 C19.0747881,65 18.0855932,64.0457012 18.0052668,62.8633531 L18,62.7079002 L18,32.1465696 C18,30.9311201 18.9386388,29.9402114 20.1312003,29.8597458 L20.2881356,29.8544699 L37.0677966,29.8544699 Z M43.9322034,16 L60.7118644,16 C61.9252119,16 62.9144068,16.940265 62.9947332,18.1348927 L63,18.2920998 L63,62.6060291 C63,63.8068347 62.0613612,64.8111671 60.8687997,64.8927767 L60.7118644,64.8981289 L43.9322034,64.8981289 C42.7188559,64.8981289 41.729661,63.9438301 41.6493346,62.761482 L41.6440678,62.6060291 L41.6440678,18.2920998 C41.6440678,17.0766502 42.5827066,16.0857415 43.7752681,16.0052759 L43.9322034,16 L60.7118644,16 Z M53.9389831,56.3867983 C53.0847458,55.5463617 51.559322,55.5463617 50.7050847,56.3867983 C50.2779661,56.814657 50.0338983,57.4106029 50.0338983,58.0065489 C50.0338983,58.6177755 50.2779661,59.1984407 50.7050847,59.64158 C51.1322034,60.0694387 51.7271186,60.3139293 52.3220339,60.3139293 C52.9322034,60.3139293 53.5118644,60.0694387 53.9389831,59.64158 C54.3661017,59.1984407 54.6101695,58.6177755 54.6101695,58.0065489 C54.6101695,57.4106029 54.3661017,56.814657 53.9389831,56.3867983 Z M30.9050847,56.3867983 C30.0508475,55.5463617 28.5254237,55.5463617 27.6711864,56.3867983 C27.2440678,56.814657 27,57.4106029 27,58.0065489 C27,58.6177755 27.2440678,59.2137214 27.6711864,59.64158 C28.0983051,60.0694387 28.6932203,60.3139293 29.2881356,60.3139293 C29.8983051,60.3139293 30.4779661,60.0694387 30.9050847,59.64158 C31.3322034,59.1984407 31.5762712,58.6177755 31.5762712,58.0065489 C31.5762712,57.4106029 31.3322034,56.814657 30.9050847,56.3867983 Z M34.299886,44.5239085 L23.7216856,44.5239085 C23.272902,44.5239085 22.9090909,44.8877196 22.9090909,45.3365032 L22.9090909,45.3365032 L22.9090909,48.2955134 C22.9090909,48.7442971 23.272902,49.1081081 23.7216856,49.1081081 L23.7216856,49.1081081 L34.299886,49.1081081 C34.7486697,49.1081081 35.1124807,48.7442971 35.1124807,48.2955134 L35.1124807,48.2955134 L35.1124807,45.3365032 C35.1124807,44.8877196 34.7486697,44.5239085 34.299886,44.5239085 L34.299886,44.5239085 Z M34.299886,34.7442827 L23.7216856,34.7442827 C23.272902,34.7442827 22.9090909,35.1080938 22.9090909,35.5568775 L22.9090909,35.5568775 L22.9090909,38.5158876 C22.9090909,38.9646713 23.272902,39.3284823 23.7216856,39.3284823 L23.7216856,39.3284823 L34.299886,39.3284823 C34.7486697,39.3284823 35.1124807,38.9646713 35.1124807,38.5158876 L35.1124807,38.5158876 L35.1124807,35.5568775 C35.1124807,35.1080938 34.7486697,34.7442827 34.299886,34.7442827 L34.299886,34.7442827 Z M57.6111341,30.6694387 L47.0329337,30.6694387 C46.58415,30.6694387 46.220339,31.0332497 46.220339,31.4820334 L46.220339,31.4820334 L46.220339,34.4410435 C46.220339,34.8898272 46.58415,35.2536383 47.0329337,35.2536383 L47.0329337,35.2536383 L57.6111341,35.2536383 C58.0599178,35.2536383 58.4237288,34.8898272 58.4237288,34.4410435 L58.4237288,34.4410435 L58.4237288,31.4820334 C58.4237288,31.0332497 58.0599178,30.6694387 57.6111341,30.6694387 L57.6111341,30.6694387 Z M57.6111341,20.5841996 L47.0329337,20.5841996 C46.58415,20.5841996 46.220339,20.9480106 46.220339,21.3967943 L46.220339,21.3967943 L46.220339,24.3558045 C46.220339,24.8045881 46.58415,25.1683992 47.0329337,25.1683992 L47.0329337,25.1683992 L57.6111341,25.1683992 C58.0599178,25.1683992 58.4237288,24.8045881 58.4237288,24.3558045 L58.4237288,24.3558045 L58.4237288,21.3967943 C58.4237288,20.9480106 58.0599178,20.5841996 57.6111341,20.5841996 L57.6111341,20.5841996 Z" id="Combined-Shape" fill="#209CFF"></path>
    </g>
</svg>