<?xml version="1.0" encoding="UTF-8"?>
<svg width="80px" height="80px" viewBox="0 0 80 80" version="1.1" xmlns="http://www.w3.org/2000/svg" xmlns:xlink="http://www.w3.org/1999/xlink">
    <!-- Generator: Sketch 59.1 (86144) - https://sketch.com -->
    <title>ic/cat_d/ic_cat_d_12</title>
    <desc>Created with Sketch.</desc>
    <g id="ic/cat_d/ic_cat_d_12" stroke="none" stroke-width="1" fill="none" fill-rule="evenodd">
        <path d="M59.2939738,47.2683904 L45.7893138,33.4887376 L48.8163646,30.4070635 C50.3926051,30.9183679 52.1831223,30.5583244 53.4332441,29.2843244 C55.2206255,27.464933 55.2216708,24.5142806 53.4374251,22.6927588 C51.6531794,20.871237 48.7578304,20.8701718 46.9694037,22.6884979 C45.7203272,23.9614328 45.3628509,25.7850851 45.8614362,27.3924982 L42.8343855,30.4741722 L29.3328612,16.6966498 C28.8583167,16.2109107 28.1998077,15.9595194 27.5277105,16.0053237 C26.8566585,16.0511281 26.2389144,16.3909324 25.8302207,16.9363238 C18.7308669,26.4114329 19.4698603,40.0068031 27.964626,48.6734123 C28.5071119,49.2273253 29.6976543,50.2339558 29.6976543,50.2339558 L29.6976543,57.5434779 L27.4775384,57.5434779 C26.5451733,57.5434779 25.7037452,58.1101736 25.3358164,58.9847171 L23.5766567,63.1667608 C23.4052353,63.5736738 23.4460002,64.0402391 23.6853629,64.4098695 C23.925771,64.7784348 24.3302836,65 24.7640633,65 L40.7062518,65 C41.1400315,65 41.5455894,64.7784348 41.7849522,64.4088043 C42.024315,64.0391739 42.0650798,63.5726086 41.8936584,63.1656956 L40.1344988,58.9836519 C39.7676152,58.1101736 38.9251418,57.5434779 37.993822,57.5434779 L35.9691682,57.5434779 L35.9691682,54.0101516 C43.2859345,57.1109996 52.3660414,56.069217 59.1047832,50.8368689 C59.6399524,50.4214341 59.9483018,49.7929558 59.9953382,49.108021 C60.0392388,48.4241514 59.7706089,47.7530644 59.2939738,47.2683904 Z" id="Path" fill="#209CFF"></path>
    </g>
</svg>