<?xml version="1.0" encoding="UTF-8"?>
<svg width="80px" height="80px" viewBox="0 0 80 80" version="1.1" xmlns="http://www.w3.org/2000/svg" xmlns:xlink="http://www.w3.org/1999/xlink">
    <!-- Generator: Sketch 59.1 (86144) - https://sketch.com -->
    <title>ic/cat_d/ic_cat_d_01</title>
    <desc>Created with Sketch.</desc>
    <g id="ic/cat_d/ic_cat_d_01" stroke="none" stroke-width="1" fill="none" fill-rule="evenodd">
        <path d="M23.1804124,23.1804124 C32.7542955,13.6065292 48.2457045,13.6065292 57.8195876,23.1804124 C67.3934708,32.7542955 67.3934708,48.2457045 57.8195876,57.8195876 C48.2457045,67.3934708 32.7542955,67.3934708 23.1804124,57.8195876 C13.6065292,48.2457045 13.6065292,32.7542955 23.1804124,23.1804124 Z M52.8642612,22.5549828 C44.3487973,16.733677 32.6580756,17.5515464 25.104811,25.104811 C19.3316151,30.8780069 17.5034364,39.152921 19.6202749,46.5618557 L19.6202749,46.5618557 L26.2113402,39.9707904 L26.2113402,37.0841924 C25.6340206,36.8917526 25.104811,36.5549828 24.6718213,36.1219931 C23.0841924,34.5343643 23.0841924,31.9364261 24.6718213,30.3487973 C26.2594502,28.7611684 28.8573883,28.7611684 30.4450172,30.3487973 C32.032646,31.9364261 32.032646,34.5343643 30.4450172,36.1219931 C30.0120275,36.5549828 29.4828179,36.8917526 28.9054983,37.0841924 L28.9054983,37.0841924 L28.9054983,40.54811 C28.9054983,40.9329897 28.7611684,41.2697595 28.5206186,41.5103093 L28.5206186,41.5103093 L20.6305842,49.4003436 C21.4484536,51.3728522 22.6512027,53.2491409 24.1426117,54.9329897 L24.1426117,54.9329897 L38.4793814,40.5962199 C37.757732,39.104811 37.9982818,37.2285223 39.2491409,35.9776632 C40.8367698,34.3900344 43.4347079,34.3900344 45.0223368,35.9776632 C46.6099656,37.5652921 46.6099656,40.1632302 45.0223368,41.7508591 C43.7714777,43.0017182 41.895189,43.242268 40.4037801,42.5206186 L40.4037801,42.5206186 L26.0670103,56.8573883 C27.7989691,58.3006873 29.6271478,59.4553265 31.5996564,60.3694158 L31.5996564,60.3694158 L43.1941581,48.7749141 C43.4347079,48.5343643 43.7714777,48.3900344 44.1563574,48.3900344 L44.1563574,48.3900344 L50.0257732,48.3900344 C50.2182131,47.8127148 50.5549828,47.2835052 50.9879725,46.8505155 C52.5756014,45.2628866 55.1735395,45.2628866 56.7611684,46.8505155 C58.3487973,48.4381443 58.3487973,51.0360825 56.7611684,52.6237113 C55.1735395,54.2113402 52.5756014,54.2113402 50.9879725,52.6237113 C50.5549828,52.1907216 50.2182131,51.661512 50.0257732,51.0841924 L50.0257732,51.0841924 L44.733677,51.0841924 L34.4381443,61.3797251 C41.7989691,63.5446735 50.1219931,61.6683849 55.895189,55.895189 C61.8608247,49.9295533 63.6408935,41.3178694 61.1872852,33.7646048 L61.1872852,33.7646048 L57.9158076,37.0360825 C58.637457,38.5274914 58.3969072,40.4037801 57.1460481,41.6546392 C55.5584192,43.242268 52.9604811,43.242268 51.3728522,41.6546392 C49.7852234,40.0670103 49.7852234,37.4690722 51.3728522,35.8814433 C52.6237113,34.6305842 54.5,34.3900344 55.9914089,35.1116838 L55.9914089,35.1116838 L60.080756,31.0223368 C59.0704467,28.8573883 57.6752577,26.8848797 55.895189,25.104811 C55.6065292,24.8161512 55.2697595,24.5756014 54.9810997,24.2869416 L54.9810997,24.2869416 L46.4175258,32.8505155 C45.8883162,33.3797251 45.0223368,33.3797251 44.4931271,32.8505155 L44.4931271,32.8505155 L42.2319588,30.5893471 C40.7405498,31.3109966 38.8642612,31.0704467 37.6134021,29.8195876 C36.0257732,28.2319588 36.0257732,25.6340206 37.6134021,24.0463918 C39.2010309,22.4587629 41.7989691,22.4587629 43.3865979,24.0463918 C44.637457,25.2972509 44.8780069,27.1735395 44.1563574,28.6649485 L44.1563574,28.6649485 L45.4553265,29.9639175 Z" id="Combined-Shape" fill="#209CFF"></path>
    </g>
</svg>