<?xml version="1.0" encoding="UTF-8"?>
<svg width="250px" height="100px" viewBox="0 0 250 100" version="1.1" xmlns="http://www.w3.org/2000/svg" xmlns:xlink="http://www.w3.org/1999/xlink">
    <!-- Generator: Sketch 59.1 (86144) - https://sketch.com -->
    <title>brand/brand_20</title>
    <desc>Created with Sketch.</desc>
    <g id="brand/brand_20" stroke="none" stroke-width="1" fill="none" fill-rule="evenodd">
        <g id="Group-2" transform="translate(5.000000, 18.000000)" fill-rule="nonzero">
            <g id="Group" fill="#000000">
                <g transform="translate(27.482353, 0.000000)">
                    <path d="M12.6957176,13.3500235 L14.1338353,25.7456941 C14.4926118,28.6061176 14.7516235,30.5957647 14.9221647,32.4148706 L15.0456471,32.4148706 C15.6457412,30.6104471 16.2575059,28.8015059 17.4369882,25.7618824 L22.3548235,13.3500235 L30.8694588,13.3500235 L21.0224941,33.8160941 C17.4460235,41.1207529 14.1135059,46.2558118 10.4342588,49.6971294 C7.43115294,52.5500235 3.84903529,53.9060706 2.12254118,54.2339765 L0.0990117647,47.3031529 C1.408,46.8679529 3.15181176,46.1737412 4.68743529,45.0838588 C6.54343529,43.7854118 8.11971765,42.1236706 9.10494118,40.3030588 C9.33722353,39.8840471 9.36395294,39.5587765 9.24611765,38.9722353 L4.14305882,13.3500235 L12.6957176,13.3500235 Z" id="Path"></path>
                    <path d="M41.0341647,2.77082353 L38.1812706,16.7239529 L38.2991059,16.7326118 C40.2962824,14.2738824 43.2402824,12.7457882 46.5697882,12.7457882 C52.2699294,12.7457882 54.5961412,17.5988706 54.5961412,22.2501647 C54.5961412,31.5941647 48.6697412,42.0254118 36.5342118,42.0254118 C30.1402353,42.0254118 26.9696,39.2914824 26.9987626,34.4384 C26.9987626,32.7503059 27.2666353,31.0415059 27.5843765,29.4972235 L32.9050353,2.77082353 L41.0341647,2.77082353 Z M35.6604235,29.8529882 C35.4661647,30.7794824 35.2869647,31.7722353 35.3456941,32.9355294 C35.4014118,34.8355765 36.4544,35.9062588 38.2927059,35.9062588 C42.8867765,35.9062588 46.0897882,28.8195765 46.0897882,24.0899765 C46.0897882,21.4354824 45.1075765,19.3972706 42.7075765,19.3972706 C39.9457882,19.3972706 37.1930353,22.3209412 36.2838588,26.8604235 L35.6604235,29.8529882 Z" id="Shape"></path>
                    <path d="M97.1075765,12.7457882 C94.6575059,12.7457882 90.6221176,14.2855529 88.6780235,17.4765176 L88.4958118,17.4765176 C88.8929882,15.5000471 89.0311529,14.9925647 89.3368471,13.3824 L82.0280471,13.3500235 C81.6131765,15.8441412 81.0985412,20.2853647 80.3399529,24.3456 L79.3694118,29.4704941 C76.6957176,32.9042824 69.8251294,35.6645647 67.0840471,35.6645647 C64.7544471,35.6645647 62.9899294,34.9202824 61.9723294,33.5616 C61.3812706,32.7322353 61.1339294,31.4514824 61.1166118,30.6526118 C71.7959529,30.9409882 78.6048,28.2819765 78.6048,21.0642824 C78.5871059,16.0538353 74.8047059,12.7450353 69.1930353,12.7450353 C59.2342588,12.7450353 53.3195294,21.8612706 53.3195294,30.3288471 C53.3195294,37.4482824 57.1960471,41.9320471 65.0488471,41.9823621 C68.9607529,42.0084706 74.7045647,39.8998588 77.8134588,37.6734118 L77.1015529,41.4264471 L85.2604235,41.4264471 L87.2956235,30.5999059 C88.2985412,25.2265412 90.8367059,20.7262118 95.7545412,20.7262118 C96.1867294,20.7262118 96.6633412,20.7499294 97.0017882,20.7849412 L98.5840941,12.8233412 C98.1251765,12.7736471 97.6192,12.7457882 97.1075765,12.7457882 Z M68.1897412,18.7926588 C69.9663059,18.7926588 71.0396235,19.7586824 71.0396235,21.1264 L71.0396235,21.1821176 C71.0396235,23.7778824 67.8603294,24.7732706 61.9041882,24.6881882 C62.4839529,21.8812235 64.6430118,18.7926588 68.1897412,18.7926588 Z" id="Shape"></path>
                    <polygon id="Path" points="103.337035 2.77383529 111.472188 2.77383529 105.484047 34.3280941 119.428141 34.3280941 118.081129 41.4268235 96.0045176 41.4268235"></polygon>
                    <polygon id="Path" points="120.407718 41.4268235 125.746071 13.3500235 133.881224 13.3500235 128.539859 41.4268235"></polygon>
                    <path d="M132.525176,41.4268235 L136.092988,22.5091765 C136.784188,18.9929412 137.219388,15.8972235 137.613553,13.3504 L144.760471,13.3504 L144.2752,17.8270118 L144.390024,17.8270118 C146.911247,14.3533176 150.229082,12.7461647 153.823247,12.7461647 C158.332235,12.7461647 160.734871,15.5742118 160.734871,20.1769412 C160.734871,21.5047529 160.493553,23.5388235 160.228894,24.9976471 L157.111341,41.4272 L148.978824,41.4272 L151.967247,25.5841882 C152.146824,24.6034824 152.278965,23.5120941 152.278965,22.4798118 C152.278965,20.6298353 151.634824,19.3182118 149.684706,19.3182118 C147.175906,19.3182118 144.210447,22.5359059 143.078024,28.5801412 L140.654306,41.4272 L132.525176,41.4272 L132.525176,41.4268235 Z" id="Path"></path>
                    <path d="M160.373082,41.4268235 L167.764329,2.77082353 L175.829082,2.77082353 L171.887812,23.1296 L172.002635,23.1296 C172.843671,22.0325647 180.888094,13.3500235 180.888094,13.3500235 L190.717365,13.3500235 L179.2704,25.0736941 L186.473412,41.4268235 L177.505882,41.4268235 L171.355859,26.6236235 L168.432188,41.4268235 L160.373082,41.4268235 L160.373082,41.4268235 Z" id="Path"></path>
                    <path d="M130.857412,9.64856471 C128.398682,9.64856471 126.704565,7.90287059 126.716175,5.32931765 C126.727906,2.46023529 128.9664,0.314729412 131.707482,0.314729412 C134.316424,0.314729412 136.051576,2.05289412 136.045569,4.63548235 C136.024847,7.80611765 133.660235,9.64856471 130.916141,9.64856471 L130.857412,9.64856471 L130.857412,9.64856471 Z" id="Path"></path>
                </g>
                <path d="M31.2459294,3.64122353 C29.0548706,2.71774118 26.6665412,2.30588235 23.5075765,2.30588235 C17.3662118,2.30588235 12.9193412,3.86183529 8.64564706,7.49703529 C6.2016,9.54277647 4.22814118,12.0207059 2.77797647,14.8619294 C1.19567059,18.0882824 0.357270588,21.5706353 0.357270588,24.9472 C0.357270588,35.5561412 6.98390588,41.8883765 18.0924235,41.8883765 C19.9984941,41.8883765 21.8541176,41.7088 23.9307294,41.3206588 C26.3454118,40.8485647 27.5279059,40.3587765 30.3013647,39.0851765 L30.6691765,38.9176471 L28.8986353,32.2322824 L28.384,32.4630588 C26.3104,33.3895529 25.4192941,33.7261176 23.8576941,34.0660706 C22.4929882,34.3631059 21.2517647,34.5072941 20.0666353,34.5072941 C13.4019765,34.5072941 9.26381176,30.6469647 9.26381176,24.4382118 C9.26343529,16.0120471 15.4458353,9.41176471 23.3370353,9.41176471 C24.8515765,9.41176471 26.6194824,9.72197647 27.9634824,10.2249412 C29.0134588,10.6089412 29.5898353,10.944 30.6605176,11.7394824 L34.4692706,5.48931765 C33.1663059,4.57223529 32.4016941,4.12385882 31.2459294,3.64122353 Z" id="Path"></path>
            </g>
            <path d="M218.311153,33.312 C231.625788,36.6091294 239.5904,40.3621647 239.5904,45.2461176 C239.5904,55.4168471 204.187482,63.6623059 160.516141,63.6623059 C124.860235,63.6623059 95.9454118,57.1783529 85.0014118,50.0577882 L85.2897882,48.8828235 C98.1955765,53.4561882 123.236894,56.5620706 152.013176,56.5620706 C193.993412,56.5620706 228.019953,49.9561412 228.019953,41.8078118 C228.019953,39.1122824 224.296282,36.5842824 217.790494,34.4090353 L218.311153,33.312 Z" id="Path" fill="#ED1C24"></path>
        </g>
    </g>
</svg>