<?xml version="1.0" encoding="UTF-8"?>
<svg width="30px" height="30px" viewBox="0 0 30 30" version="1.1" xmlns="http://www.w3.org/2000/svg" xmlns:xlink="http://www.w3.org/1999/xlink">
    <!-- Generator: Sketch 59.1 (86144) - https://sketch.com -->
    <title>map/map_pin_blue@3x</title>
    <desc>Created with Sketch.</desc>
    <g id="map/map_pin_blue" stroke="none" stroke-width="1" fill="none" fill-rule="evenodd">
        <g id="XMLID_1262_" transform="translate(7.000000, 1.000000)" fill-rule="nonzero">
            <path d="M15.5058236,7.91846922 C15.5058236,3.65890183 12.0449251,0.198003328 7.78535774,0.198003328 C3.52579035,0.198003328 0.0648918469,3.65890183 0.0648918469,7.91846922 C0.0648918469,9.24958403 0.331114809,10.3144759 0.863560732,11.3793677 L0.863560732,11.3793677 L7.91846922,27.0865225 L14.7071547,11.1131448 L14.7071547,11.1131448 C15.3727121,10.1813644 15.5058236,8.98336106 15.5058236,7.91846922 Z" id="XMLID_1291_" fill="#0055A2"></path>
            <circle id="XMLID_1290_" fill="#FFFFFF" cx="7.78535774" cy="7.91846922" r="5.85690516"></circle>
            <g id="XMLID_1263_" transform="translate(2.662230, 2.662230)" fill="#0055A2">
                <g id="XMLID_1264_">
                    <path d="M4.99001664,0.198003328 C4.19134775,0.198003328 3.52579035,0.331114809 2.86023295,0.730449251 L7.11980033,0.730449251 C6.45424293,0.46422629 5.78868552,0.198003328 4.99001664,0.198003328 Z M3.52579035,1.12978369 L2.19467554,1.12978369 C2.06156406,1.26289517 1.7953411,1.39600666 1.66222962,1.66222962 L2.86023295,1.66222962 C2.99334443,1.52911814 3.25956739,1.26289517 3.52579035,1.12978369 Z M6.05490849,2.59400998 L9.24958403,2.59400998 C9.11647255,2.4608985 8.98336106,2.32778702 8.98336106,2.06156406 L6.05490849,2.06156406 L6.05490849,2.59400998 Z M2.32778702,2.06156406 L1.12978369,2.06156406 C0.996672213,2.19467554 0.863560732,2.32778702 0.863560732,2.59400998 L2.06156406,2.59400998 C2.19467554,2.4608985 2.19467554,2.32778702 2.32778702,2.06156406 Z M6.05490849,1.66222962 L8.58402662,1.66222962 C8.45091514,1.52911814 8.18469218,1.39600666 8.0515807,1.12978369 L6.05490849,1.12978369 L6.05490849,1.66222962 Z M9.91514143,5.12312812 C9.91514143,4.99001664 9.91514143,4.99001664 9.91514143,4.85690516 L8.31780366,4.85690516 C8.18469218,4.72379368 8.18469218,4.5906822 8.0515807,4.32445923 L9.91514143,4.32445923 C9.91514143,4.19134775 9.91514143,4.05823627 9.78202995,3.79201331 L7.65224626,3.79201331 C7.51913478,3.65890183 7.38602329,3.52579035 7.25291181,3.25956739 L9.64891847,3.25956739 C9.64891847,3.12645591 9.51580699,2.99334443 9.51580699,2.72712146 L4.05823627,2.72712146 L4.05823627,5.12312812 L5.921797,5.12312812 L5.921797,7.51913478 L0.730449251,7.51913478 C0.863560732,7.65224626 0.996672213,7.78535774 0.996672213,8.0515807 L3.92512479,8.0515807 L3.92512479,8.58402662 L1.66222962,8.58402662 C1.7953411,8.7171381 2.06156406,8.85024958 2.19467554,9.11647255 L4.19134775,9.11647255 L4.19134775,9.64891847 L2.99334443,9.64891847 C3.65890183,9.91514143 4.32445923,10.1813644 5.12312812,10.1813644 C5.921797,10.1813644 6.58735441,10.0482529 7.25291181,9.64891847 L6.72046589,9.64891847 C6.98668885,9.51580699 7.11980033,9.38269551 7.38602329,9.11647255 L8.0515807,9.11647255 C8.18469218,8.98336106 8.45091514,8.85024958 8.58402662,8.58402662 L7.78535774,8.58402662 C7.91846922,8.45091514 8.0515807,8.31780366 8.0515807,8.0515807 L8.98336106,8.0515807 C9.11647255,7.91846922 9.24958403,7.78535774 9.24958403,7.51913478 L8.31780366,7.51913478 C8.31780366,7.38602329 8.45091514,7.25291181 8.45091514,6.98668885 L9.51580699,6.98668885 C9.64891847,6.85357737 9.64891847,6.72046589 9.64891847,6.45424293 L8.45091514,6.45424293 C8.45091514,6.32113145 8.45091514,6.18801997 8.45091514,6.05490849 C8.45091514,6.05490849 8.45091514,6.05490849 8.45091514,6.05490849 L9.78202995,6.05490849 C9.78202995,5.921797 9.91514143,5.78868552 9.91514143,5.52246256 L8.45091514,5.52246256 C8.45091514,5.38935108 8.45091514,5.2562396 8.31780366,4.99001664 L9.91514143,4.99001664 C9.91514143,5.2562396 9.91514143,5.2562396 9.91514143,5.12312812 Z M2.32778702,6.85357737 L0.331114809,6.85357737 C0.331114809,6.98668885 0.46422629,7.11980033 0.46422629,7.38602329 L2.72712146,7.38602329 C2.59400998,7.11980033 2.4608985,6.98668885 2.32778702,6.85357737 Z M1.7953411,5.921797 L0.198003328,5.921797 C0.198003328,6.05490849 0.198003328,6.18801997 0.331114809,6.45424293 L2.06156406,6.45424293 C1.92845258,6.18801997 1.92845258,6.05490849 1.7953411,5.921797 Z M1.52911814,4.45757072 C1.52911814,4.32445923 1.52911814,4.19134775 1.52911814,3.92512479 L0.198003328,3.92512479 C0.198003328,4.05823627 0.0648918469,4.19134775 0.0648918469,4.45757072 L1.52911814,4.45757072 L1.52911814,4.45757072 Z M1.7953411,2.99334443 L0.59733777,2.99334443 C0.46422629,3.12645591 0.46422629,3.25956739 0.46422629,3.52579035 L1.66222962,3.52579035 C1.66222962,3.39267887 1.7953411,3.25956739 1.7953411,2.99334443 Z M1.52911814,4.99001664 L0.0648918469,4.99001664 C0.0648918469,5.12312812 0.0648918469,5.12312812 0.0648918469,5.2562396 C0.0648918469,5.38935108 0.0648918469,5.38935108 0.0648918469,5.52246256 L1.52911814,5.52246256 C1.66222962,5.2562396 1.52911814,5.12312812 1.52911814,4.99001664 Z" id="XMLID_252_"></path>
                </g>
            </g>
        </g>
    </g>
</svg>