<?xml version="1.0" encoding="UTF-8"?>
<svg width="44px" height="44px" viewBox="0 0 44 44" version="1.1" xmlns="http://www.w3.org/2000/svg" xmlns:xlink="http://www.w3.org/1999/xlink">
    <!-- Generator: Sketch 58 (84663) - https://sketch.com -->
    <title>ic_a/iplc/ic_a_iplc_p2_01</title>
    <desc>Created with Sketch.</desc>
    <g id="ic_a/iplc/ic_a_iplc_p2_01" stroke="none" stroke-width="1" fill="none" fill-rule="evenodd">
        <path d="M34.8399414,17.6385759 C34.6190035,17.24428 34.2021277,16.9999837 33.7498612,16.9999837 L25.1085943,16.9999837 L26.2457059,3.35408002 C26.2932841,2.78283143 25.9460178,2.25252025 25.4034386,2.06759883 C24.8632813,1.88142742 24.2621083,2.08963002 23.9507795,2.57119133 L10.2009089,23.8209044 C9.95184593,24.2054347 9.93293964,24.6954335 10.1520807,25.09762 C10.3712217,25.4998065 10.7923163,25.7499621 11.2500516,25.7499621 L19.8999122,25.7499621 L18.75366,40.6540658 C18.7091287,41.2302363 19.0655356,41.7618756 19.6154586,41.9395314 C19.7424119,41.9803907 19.8717872,42 20,42 C20.426007,42 20.8349141,41.780938 21.0668677,41.4018765 L34.8167383,18.9020884 C35.0523637,18.5163862 35.0615044,18.0328718 34.8399414,17.6385759 Z M21.6449157,35.6607969 L22.4963236,24.5959806 C22.5231986,24.2487158 22.403589,23.9062167 22.1673386,23.650436 C21.9305412,23.3953585 21.5978843,23.2499683 21.249993,23.2499683 L13.5480248,23.2499683 L23.3398408,8.11664636 L22.5042923,18.1464653 C22.4756204,18.49498 22.5934331,18.8390417 22.8302305,19.0966192 C23.0670278,19.3536498 23.4002316,19.4999776 23.7499979,19.4999776 L31.5209506,19.4999776 L21.6449157,35.6607969 Z" id="Shape" fill="#209CFF"></path>
    </g>
</svg>