<?xml version="1.0" encoding="UTF-8"?>
<svg width="44px" height="44px" viewBox="0 0 44 44" version="1.1" xmlns="http://www.w3.org/2000/svg" xmlns:xlink="http://www.w3.org/1999/xlink">
    <!-- Generator: Sketch 58 (84663) - https://sketch.com -->
    <title>ic_a/iplc/ic_a_iplc_p2_02</title>
    <desc>Created with Sketch.</desc>
    <g id="ic_a/iplc/ic_a_iplc_p2_02" stroke="none" stroke-width="1" fill="none" fill-rule="evenodd">
        <path d="M35.8722261,3 C38.6997104,3 41,5.30028964 41,8.12777388 L41,8.12777388 L41,35.8722261 C41,38.6997104 38.6997104,41 35.8722261,41 L35.8722261,41 L8.12777388,41 C5.30028964,41 3,38.6997104 3,35.8722261 L3,35.8722261 L3,8.12777388 C3,5.30028964 5.30028964,3 8.12777388,3 L8.12777388,3 Z M37.8787463,12.4628236 L6.12125366,12.4628236 L6.12125366,35.8722261 C6.12125366,36.9786362 7.02136377,37.8787463 8.12777388,37.8787463 L8.12777388,37.8787463 L35.8722261,37.8787463 C36.9786362,37.8787463 37.8787463,36.9786362 37.8787463,35.8722261 L37.8787463,35.8722261 L37.8787463,12.4628236 Z M21.0346037,16.8102098 C21.6060904,16.3492303 22.3938353,16.3492303 22.965322,16.8102098 C23.0527171,16.8762763 24.7688864,18.1484845 27.9102796,18.8963963 C28.6924509,19.0826311 29.2050797,19.8326238 29.0946467,20.6289893 C29.06715,20.8277091 29.0392816,21.0354955 29.0104472,21.2511592 C28.5288824,24.8478839 27.7227814,30.8678161 22.9175371,34.3602017 C22.3705002,34.7578642 21.6294998,34.7577899 21.0825372,34.3602017 C16.2772186,30.8678161 15.4711176,24.8478839 14.9895528,21.2511592 C14.960644,21.0354955 14.93285,20.8277091 14.9052789,20.6289893 C14.794846,19.8326238 15.3074748,19.0826311 16.0896461,18.8963963 C19.2309649,18.1484845 20.9472086,16.8762763 21.0346037,16.8102098 Z M22.0000372,19.9008454 C21.2010705,20.3720061 19.9178637,21.0204094 18.1810347,21.558677 C18.5915538,24.519632 19.3033483,28.477233 22.0000372,31.0672047 C24.6966517,28.477233 25.4085205,24.519632 25.8190396,21.558677 C24.0821363,21.0204094 22.7990038,20.3720061 22.0000372,19.9008454 Z M35.8722261,6.12125366 L8.12777388,6.12125366 C7.02136377,6.12125366 6.12125366,7.02136377 6.12125366,8.12777388 L6.12125366,8.12777388 L6.12125366,9.34156997 L37.8787463,9.34156997 L37.8787463,8.12777388 C37.8787463,7.02136377 36.9786362,6.12125366 35.8722261,6.12125366 L35.8722261,6.12125366 Z" id="Combined-Shape" fill="#47D382"></path>
    </g>
</svg>