<?xml version="1.0" encoding="UTF-8"?>
<svg width="80px" height="80px" viewBox="0 0 80 80" version="1.1" xmlns="http://www.w3.org/2000/svg" xmlns:xlink="http://www.w3.org/1999/xlink">
    <!-- Generator: Sketch 59.1 (86144) - https://sketch.com -->
    <title>ic/cat_a/ic_cat_a_01</title>
    <desc>Created with Sketch.</desc>
    <g id="ic/cat_a/ic_cat_a_01" stroke="none" stroke-width="1" fill="none" fill-rule="evenodd">
        <path d="M54.9839904,25.7655434 L55.130277,25.7731141 L55.1735687,25.7775518 C55.7409731,25.835715 56.2321053,26.1972523 56.4562242,26.7217534 L56.4562242,26.7217534 L56.6362828,27.1431413 C56.9975038,27.9884998 57.2716629,28.8684591 57.4545139,29.7693904 L57.4545139,29.7693904 L57.7182129,31.0686702 C58.0740877,32.8221132 58.0930726,34.6272576 57.7741547,36.3877974 L57.7741547,36.3877974 L57.5921066,37.3927677 C57.1513462,39.825921 56.3522194,42.180267 55.2207987,44.378992 L55.2207987,44.378992 L55.1079211,44.5983506 C53.8972158,46.9511517 52.4873475,49.1960071 50.8937533,51.3083371 L50.8937533,51.3083371 L50.0339597,52.4480047 L50.0339597,58.057757 L49.9913023,58.3260191 C49.6061449,60.7481841 47.4060908,62.4548556 44.9642202,62.2257312 L44.9642202,62.2257312 L44.7051514,62.6262698 C44.2217162,63.3736945 43.5540558,63.9841213 42.7664124,64.3988151 C40.2317559,65.7333105 37.0951886,64.7603877 35.7606932,62.2257312 L35.7606932,62.2257312 L35.4365139,62.2257312 C33.0322594,62.2257312 31.0012363,60.4419056 30.6909538,58.057757 L30.6909538,58.057757 L30.6909538,52.4480047 L29.3834504,50.6471279 C28.0444384,48.8028531 26.8499116,46.8578855 25.8105331,44.8295869 C24.7742431,42.8073156 24.0126766,40.6557015 23.5460298,38.4318042 L23.5460298,38.4318042 L23.3199347,37.3543032 C22.9080495,35.3913827 22.8937024,33.365825 23.277741,31.397267 L23.277741,31.397267 L23.5853634,29.8204134 C23.7672768,28.8879368 24.0818985,27.9863461 24.5196321,27.1431413 L24.5196321,27.1431413 L24.7740587,26.6530402 C25.0232398,26.1730433 25.5190335,25.8718047 26.0598553,25.8718047 L26.0598553,25.8718047 L26.1765006,25.8718047 C26.6523891,25.8718047 27.095604,26.11385 27.3528445,26.5142213 C27.6122822,26.9180121 27.6636323,27.4213098 27.4910866,27.8691747 L27.4910866,27.8691747 L27.293732,28.3814344 C26.9796817,29.1965933 26.7329903,30.0361274 26.5561366,30.8916006 L26.5561366,30.8916006 L26.3940491,31.6756472 C26.1136259,33.0321047 26.0471548,34.4240846 26.1970469,35.8010909 C26.347328,37.1816709 26.6613741,38.5394608 27.1325604,39.8458179 L27.1325604,39.8458179 L27.294491,40.2947683 C27.8741617,41.9018969 28.5953175,43.4544103 29.449472,44.9340388 L29.449472,44.9340388 L29.7321374,45.4236923 C30.4515579,46.6699246 31.221492,47.8863057 32.0400215,49.0698049 L32.0400215,49.0698049 L33.1486402,50.6727395 C33.2283158,50.7879413 33.3166272,50.8969243 33.4128122,50.9987481 C33.5069512,51.098406 33.6289137,51.1674128 33.7628209,51.1967844 L33.7628209,51.1967844 L34.3632661,51.3284875 L45.9481424,51.3284875 L46.4525122,51.2277882 C46.7058795,51.1772025 46.9533092,51.1004442 47.1908209,50.9987481 C47.4243201,50.8987702 47.6252276,50.7355192 47.77087,50.527419 L47.77087,50.527419 L48.7910056,49.0698049 C49.6193165,47.8862783 50.4004098,46.670398 51.1324476,45.4250247 L51.1324476,45.4250247 L51.4618295,44.8646666 C52.3041149,43.4317357 53.0056295,41.9205914 53.5565473,40.3523998 L53.5565473,40.3523998 L53.6700284,40.0293753 C54.1454096,38.6761993 54.4850698,37.2791099 54.6839971,35.8587224 L54.6839971,35.8587224 L54.6932013,35.7930023 C54.8852861,34.4214718 54.8601143,33.0282435 54.6186115,31.6645467 L54.6186115,31.6645467 L54.4836702,30.9025721 C54.3310044,30.040513 54.0923605,29.1959166 53.7713132,28.3814344 L53.7713132,28.3814344 L53.6115217,27.9760508 C53.4089672,27.4621795 53.46855,26.8819496 53.7713132,26.4199685 C54.0678968,25.9674166 54.5920199,25.7179388 55.130277,25.7731141 Z M42.7799583,31.0807444 C44.0592303,32.353553 44.0592303,34.4171712 42.7799583,35.6899798 C41.5006711,36.9627733 39.4265492,36.9627733 38.147262,35.6899798 C36.86799,34.4171712 36.86799,32.353553 38.147262,31.0807444 C39.4265492,29.8079509 41.5006711,29.8079509 42.7799583,31.0807444 Z M48.6771632,26.4629051 C49.2286743,27.0116309 49.3389773,27.889586 48.7874624,28.5480524 C48.7874624,28.5480524 48.7323109,28.6029246 48.7323109,28.6029246 C48.1807959,29.1516465 47.298372,29.1516465 46.6917056,28.6577968 C44.3201913,26.6275255 41.2317076,25.8593148 38.5844358,26.7372699 C37.2194364,27.1899655 36.0861497,27.8732006 35.184576,28.702444 L34.9444372,28.9321578 L34.8341342,29.0419022 C34.2274678,29.6454963 33.3450439,29.6454963 32.7935256,29.0967777 C32.2764834,28.5823477 32.1956953,27.7303281 32.6874913,27.1284859 L32.7935253,27.0116273 L32.9038319,26.9018865 C34.1723163,25.639826 35.7717096,24.5972543 37.7020119,23.9936601 C41.3420106,22.7864718 45.5335242,23.7741713 48.6771632,26.4629051 Z M53.0607333,21.4264624 C53.6574123,22.0201283 53.7972457,22.9495938 53.2327716,23.6299416 C53.2327716,23.6299416 53.1760314,23.6863945 53.1760314,23.6863945 C52.6086292,24.2509233 51.6773608,24.227617 51.0239373,23.6904084 C46.7424583,19.9951404 41.1020042,18.8195723 36.3498176,20.2930263 C33.8093263,21.0396674 31.7922575,21.9932617 30.1497192,23.7462142 C29.582317,24.310743 28.4353515,24.3992419 27.7789976,23.7462165 C27.1823166,23.1525526 27.5721398,22.0474484 28.196277,21.4264615 C30.3498113,19.5841825 32.3173915,18.528409 35.3176608,17.5617829 C42.1791796,16.1693222 48.3025078,17.3316791 53.0607333,21.4264624 Z" id="Combined-Shape" fill="#209CFF"></path>
    </g>
</svg>