<?xml version="1.0" encoding="UTF-8"?>
<svg width="44px" height="44px" viewBox="0 0 44 44" version="1.1" xmlns="http://www.w3.org/2000/svg" xmlns:xlink="http://www.w3.org/1999/xlink">
    <!-- Generator: Sketch 58 (84663) - https://sketch.com -->
    <title>ic_a/iot/ic_a_iot_p2_10</title>
    <desc>Created with Sketch.</desc>
    <g id="ic_a/iot/ic_a_iot_p2_10" stroke="none" stroke-width="1" fill="none" fill-rule="evenodd">
        <path d="M28.5506006,2 C29.8759952,2 31.5524611,2.74451973 32.4498182,3.73172136 L37.4681957,9.25016607 C38.3415883,10.2107967 39,11.9193127 39,13.224835 L39,38.9000487 C39,40.6092733 37.6270262,42 35.9390153,42 L9.06115958,42 C7.37332365,42 6,40.6092733 6,38.9000487 L6,5.09995129 C6,3.39072672 7.37332365,2 9.06115958,2 L28.5506006,2 Z M28.5506006,4.6571011 L9.06115958,4.6571011 C8.82413837,4.6571011 8.62385107,4.85992649 8.62385107,5.09995129 L8.62385107,38.9000487 C8.62385107,39.1400735 8.82413837,39.3428989 9.06115958,39.3428989 L35.9390153,39.3428989 C36.1760366,39.3428989 36.3763239,39.1400735 36.3763239,38.9000487 L36.3763239,13.224835 C36.3763239,12.5809309 35.9689272,11.5239361 35.5380909,11.0502635 L30.5197133,5.53181879 C30.118439,5.09038572 29.1430661,4.6571011 28.5506006,4.6571011 Z M12.9456836,8.24365617 C13.6702164,8.24365617 14.2576092,8.8383154 14.2576092,9.57220672 L14.2576092,15.2406891 C14.2576092,15.9745804 13.6702164,16.5692396 12.9456836,16.5692396 C12.2211509,16.5692396 11.6337581,15.9745804 11.6337581,15.2406891 L11.6337581,9.57220672 C11.6337581,8.8383154 12.2211509,8.24365617 12.9456836,8.24365617 Z M18.0244098,8.24365617 C18.7489425,8.24365617 19.3363353,8.8383154 19.3363353,9.57220672 L19.3363353,15.2406891 C19.3363353,15.9745804 18.7489425,16.5692396 18.0244098,16.5692396 C17.299877,16.5692396 16.7124842,15.9745804 16.7124842,15.2406891 L16.7124842,9.57220672 C16.7124842,8.8383154 17.299877,8.24365617 18.0244098,8.24365617 Z M23.102961,8.24365617 C23.8274937,8.24365617 24.4148865,8.8383154 24.4148865,9.57220672 L24.4148865,15.2406891 C24.4148865,15.9745804 23.8274937,16.5692396 23.102961,16.5692396 C22.3784282,16.5692396 21.7910354,15.9745804 21.7910354,15.2406891 L21.7910354,9.57220672 C21.7910354,8.8383154 22.3784282,8.24365617 23.102961,8.24365617 Z M28.1816871,8.24365617 C28.9062199,8.24365617 29.4936126,8.8383154 29.4936126,9.57220672 L29.4936126,15.2406891 C29.4936126,15.9745804 28.9062199,16.5692396 28.1816871,16.5692396 C27.4571544,16.5692396 26.8697616,15.9745804 26.8697616,15.2406891 L26.8697616,9.57220672 C26.8697616,8.8383154 27.4571544,8.24365617 28.1816871,8.24365617 Z" id="Combined-Shape" fill="#FF874D"></path>
    </g>
</svg>