<?xml version="1.0" encoding="UTF-8"?>
<svg width="44px" height="44px" viewBox="0 0 44 44" version="1.1" xmlns="http://www.w3.org/2000/svg" xmlns:xlink="http://www.w3.org/1999/xlink">
    <!-- Generator: Sketch 58 (84663) - https://sketch.com -->
    <title>ic_a/iot/ic_a_iot_p2_01</title>
    <desc>Created with Sketch.</desc>
    <g id="ic_a/iot/ic_a_iot_p2_01" stroke="none" stroke-width="1" fill="none" fill-rule="evenodd">
        <path d="M31.0352782,3 C32.6736771,3 34,4.32747702 34,5.94994893 L34,5.94994893 L34,38.042288 C34,39.672523 32.6658752,40.992237 31.0352782,41 L31.0352782,41 L13.9647218,41 C12.3263229,41 11,39.672523 11,38.0500511 L11,38.0500511 L11,5.94994893 C11,4.31971399 12.3341248,3 13.9647218,3 L13.9647218,3 Z M32.0807327,33.3301328 L12.9114654,33.3301328 L12.9114654,38.042288 C12.9114654,38.6245148 13.3873813,39.0902962 13.9647218,39.0902962 L13.9647218,39.0902962 L31.0274763,39.0902962 C31.6126187,39.0902962 32.0807327,38.6167518 32.0807327,38.042288 L32.0807327,38.042288 L32.0807327,33.3301328 Z M24.4348711,35.3407559 C24.9654003,35.3407559 25.3945047,35.7677222 25.3945047,36.2956078 C25.3945047,36.8234934 24.9654003,37.2504597 24.4348711,37.2504597 L24.4348711,37.2504597 L20.557327,37.2504597 C20.0267978,37.2504597 19.5976934,36.8234934 19.5976934,36.2956078 C19.5976934,35.7677222 20.0267978,35.3407559 20.557327,35.3407559 L20.557327,35.3407559 Z M32.0807327,9.8392237 L12.9114654,9.8392237 L12.9114654,31.4359551 L32.0807327,31.4359551 L32.0807327,9.8392237 Z M31.0352782,4.90194076 L13.9647218,4.90194076 C13.3873813,4.90194076 12.9114654,5.36772217 12.9114654,5.94994893 L12.9114654,5.94994893 L12.9114654,7.93728294 L32.0885346,7.93728294 L32.0885346,5.94994893 C32.0885346,5.36772217 31.6126187,4.90194076 31.0352782,4.90194076 L31.0352782,4.90194076 Z" id="Combined-Shape" fill="#209CFF"></path>
    </g>
</svg>