<?xml version="1.0" encoding="UTF-8"?>
<svg width="80px" height="80px" viewBox="0 0 80 80" version="1.1" xmlns="http://www.w3.org/2000/svg" xmlns:xlink="http://www.w3.org/1999/xlink">
    <!-- Generator: Sketch 59.1 (86144) - https://sketch.com -->
    <title>ic/cat_c/ic_cat_c_02</title>
    <desc>Created with Sketch.</desc>
    <g id="ic/cat_c/ic_cat_c_02" stroke="none" stroke-width="1" fill="none" fill-rule="evenodd">
        <path d="M39.9930596,35.2047376 C45.3330899,35.2047376 49.6620398,39.502097 49.6620398,44.8031584 L49.6620398,44.8031584 L49.6620398,47.2027636 C50.9970474,47.2027636 52.0792849,48.2771034 52.0792849,49.6023688 L52.0792849,49.6023688 L52.0792849,61.6003948 C52.0792849,62.9256602 50.9970474,64 49.6620398,64 L49.6620398,64 L30.3240794,64 C28.9890718,64 27.9068343,62.9256602 27.9068343,61.6003948 L27.9068343,61.6003948 L27.9068343,49.6023688 C27.9068343,48.2771034 28.9890718,47.2027636 30.3240794,47.2027636 L30.3240794,47.2027636 L30.3240794,44.8031584 C30.3240794,39.502097 34.6530293,35.2047376 39.9930596,35.2047376 Z M40,50.5 C38.3431458,50.5 37,51.8431458 37,53.5 C37,54.8062521 37.8348501,55.9175144 39.0000889,56.3293257 L39.0000889,56.3293257 L39,59.2047376 L41,59.2047376 L41.0009007,56.3289758 C42.1656226,55.9168852 43,54.8058822 43,53.5 C43,51.8431458 41.6568542,50.5 40,50.5 Z M37.5530034,16.2065698 C44.5232193,15.0256297 51.3353926,19.006612 53.6776881,25.6297129 C53.9505347,25.6141155 54.2245898,25.6063168 54.4965299,25.6063168 C62.5065753,25.6063169 69,32.0523559 69,40.003948 C69,47.9555401 62.5065753,54.4015792 54.4965299,54.4015792 L54.4965299,54.4015792 L54.4965299,49.6023688 C54.4954776,47.8883234 53.5742617,46.3047638 52.0792849,45.4471524 L52.0792849,45.4471524 L52.0792849,44.8031584 C52.0792849,38.1768316 46.6680975,32.8051324 39.9930596,32.8051324 C33.3180217,32.8051324 27.9068343,38.1768316 27.9068343,44.8031584 L27.9068343,44.8031584 L27.9068343,45.4471524 C26.4118575,46.3047638 25.4906416,47.8883234 25.4895893,49.6023688 L25.4895893,49.6023688 L25.4895893,54.4015792 L23.0723442,54.4015792 C18.466368,54.3962944 14.2638191,51.7926314 12.2353171,47.6875664 C10.2068152,43.5825014 10.7050392,38.6897483 13.5200771,35.0707237 C16.3351149,31.4516992 20.9775394,29.7356132 25.4914022,30.6454877 L25.4914022,30.6454877 L25.4895893,30.4055272 C25.4863737,23.3861238 30.5827876,17.3875099 37.5530034,16.2065698 Z M39.9930596,40.003948 C37.3230444,40.003948 35.1585695,42.1526277 35.1585695,44.8031584 L35.1585695,44.8031584 L35.1585695,47.2027636 L44.8275497,47.2027636 L44.8275497,44.8031584 C44.8275497,42.1526277 42.6630748,40.003948 39.9930596,40.003948 Z" id="Combined-Shape" fill="#209CFF"></path>
    </g>
</svg>