<?xml version="1.0" encoding="UTF-8"?>
<svg width="80px" height="80px" viewBox="0 0 80 80" version="1.1" xmlns="http://www.w3.org/2000/svg" xmlns:xlink="http://www.w3.org/1999/xlink">
    <!-- Generator: Sketch 59.1 (86144) - https://sketch.com -->
    <title>ic/cat_d/ic_cat_d_02</title>
    <desc>Created with Sketch.</desc>
    <g id="ic/cat_d/ic_cat_d_02" stroke="none" stroke-width="1" fill="none" fill-rule="evenodd">
        <path d="M40.1599304,14.0001134 C40.6837825,13.9931257 41.1556759,14.3096838 41.3359315,14.7936213 C43.7348227,17.9293018 50.6124436,20.526606 58.4407419,20.5574818 L58.4407419,20.5574818 L58.5399998,20.5574818 C59.1389269,20.5396063 59.6617289,20.9481418 59.7832993,21.5255191 C59.7832993,21.5255191 61.0154262,27.01036 61.6322033,33.6434553 C62.2489312,40.2767131 62.3781797,48.0431125 59.6711461,53.0583163 C57.643217,56.8152503 52.8514721,59.8370154 48.5680754,62.1356369 C44.6207445,64.2537163 41.3681042,65.5296991 40.8327678,65.7380294 L40.8327678,65.7380294 C40.5927113,65.9201966 40.2999415,66.014449 40.0026928,65.9981986 C39.7073144,66.0129865 39.4159063,65.9227967 39.1823796,65.7443671 C38.6681908,65.5441619 35.4025239,64.2584289 31.4406571,62.1323868 C27.1572768,59.8339278 22.3590843,56.8120002 20.3311879,53.0550662 C17.6241543,48.0398625 17.7501708,40.273463 18.3669315,33.6402052 C18.983643,27.0071099 20.2158355,21.522269 20.2158355,21.522269 C20.3350598,20.9567545 20.8401267,20.5542317 21.4270772,20.5542317 C21.4753116,20.5542317 21.523382,20.5737322 21.5712882,20.5737322 L21.5712882,20.5737322 L21.6354367,20.5737322 C29.7808846,20.5261185 36.9010721,17.782723 39.1472045,14.5560402 C39.3719704,14.2206315 39.7514637,14.0101886 40.1597828,14.0101886 L40.1597828,14.0101886 Z M49.9951237,43.014689 C47.6479031,44.3490551 43.705484,44.8828015 40.1504703,44.8828015 C36.5954565,44.8828015 32.6530374,44.3490551 30.3058168,43.014689 L30.3058168,43.014689 L30.3058168,46.750914 L30.3110678,46.8502813 C30.4821637,48.4665803 34.8129362,49.7481054 40.1504703,49.7481054 C45.5969336,49.7481054 49.9951237,48.4137394 49.9951237,46.750914 L49.9951237,46.750914 Z M49.9951237,36.2402153 C47.6479031,37.59511 43.705484,38.1288564 40.1504703,38.1288564 C36.5954565,38.1288564 32.6530374,37.59511 30.3058168,36.2402153 L30.3058168,36.2402153 L30.3058168,39.9969689 L30.3110678,40.095129 C30.4821637,41.6921065 34.8129362,42.9736316 40.1504703,42.9736316 C45.5969336,42.9736316 49.9951237,41.6392656 49.9951237,39.9764402 L49.9951237,39.9764402 Z M40.1504703,30.2458324 C34.7134183,30.2458324 30.3058168,31.5877207 30.3058168,33.2430238 C30.3058168,34.898327 34.7134183,36.2402153 40.1504703,36.2402153 C45.5875222,36.2402153 49.9951237,34.898327 49.9951237,33.2430238 C49.9951237,31.5877207 45.5875222,30.2458324 40.1504703,30.2458324 Z" id="Combined-Shape" fill="#209CFF"></path>
    </g>
</svg>