<?xml version="1.0" encoding="UTF-8"?>
<svg width="80px" height="80px" viewBox="0 0 80 80" version="1.1" xmlns="http://www.w3.org/2000/svg" xmlns:xlink="http://www.w3.org/1999/xlink">
    <!-- Generator: Sketch 59.1 (86144) - https://sketch.com -->
    <title>ic/cat_d/ic_cat_d_09</title>
    <desc>Created with Sketch.</desc>
    <g id="ic/cat_d/ic_cat_d_09" stroke="none" stroke-width="1" fill="none" fill-rule="evenodd">
        <path d="M38.0111575,48.6677192 C38.0663049,48.6677192 38.1214523,48.7232707 38.1765997,48.7788222 L38.1765997,48.7788222 L39.1692528,51.1675356 C39.1692528,51.2230871 39.1692528,51.3341901 39.1141054,51.3897415 L39.1141054,51.3897415 L37.5148309,53.2229402 L38.0111575,55.3338963 L37.987,55.35 L39.0038106,59.3336026 L39.8559396,63 L33.0478919,63 L34.2611346,58.0003672 L35.4192299,53.1118373 L33.9302503,51.3897415 C33.8751029,51.3341901 33.8199555,51.2230871 33.8751029,51.1675356 L33.8751029,51.1675356 L34.8126086,48.7788222 C34.8126086,48.7232707 34.9229034,48.6677192 34.9780508,48.6677192 L34.9780508,48.6677192 Z M46.5590037,48.5566163 C51.7980062,48.5566163 55.9892083,52.7785284 55.9892083,58.0559186 L55.9892083,58.0559186 L55.9892083,63 L41.9266225,63 L46.2832667,48.5566163 Z M26.8162363,48.5566163 L31.0074383,63 L17,63 L17,58.0559186 C17,52.7785284 21.191202,48.5566163 26.4302045,48.5566163 L26.4302045,48.5566163 L26.8162363,48.5566163 Z M36.4670304,22.8918344 C42.4780965,22.8918344 47.3310672,27.7803643 47.3310672,33.8354752 C47.3310672,39.890586 42.4229491,44.7791159 36.4670304,44.7791159 C30.4559644,44.7791159 25.6029936,39.890586 25.6029936,33.8354752 C25.6029936,27.7803643 30.4559644,22.8918344 36.4670304,22.8918344 Z M44.5185501,31.3356588 C41.5405908,28.6691879 37.8457153,31.3356588 37.6802731,31.4467617 C36.1361461,32.5022398 34.592019,32.8911001 33.1030393,32.8911001 C31.1177331,32.8911001 29.2978691,32.2244824 28.305216,31.7245191 C28.1397738,32.3911368 28.029479,33.0577545 28.029479,33.7799237 C28.029479,38.5017991 31.8346493,42.2792995 36.4670304,42.2792995 C41.154559,42.2792995 44.9045819,38.5017991 44.9045819,33.7799237 C44.9045819,32.8911001 44.7391397,32.1133794 44.5185501,31.3356588 Z M69.6657622,24.8361361 C71.0756973,30.3533235 67.8997282,35.9779413 62.4974625,37.5372144 L62.2208639,37.6129755 L51.2465323,40.5016523 L54.003902,36.2797401 C51.8531536,34.8909532 50.2538792,32.7799971 49.536963,30.1135263 C48.0479834,24.5583787 51.3568271,18.8365767 56.926714,17.3366868 C62.4966009,15.8923485 68.1767825,19.225437 69.6657622,24.8361361 Z M59.8967224,20.915366 C56.4872027,20.915366 53.7133891,23.6931922 53.7133891,27.1077033 C53.7133891,30.5221553 56.4872027,33.2999814 59.8967224,33.2999814 C63.3062422,33.2999814 66.0800558,30.5221553 66.0800558,27.1077033 C66.0800558,23.6931922 63.3062422,20.915366 59.8967224,20.915366 Z M59.8967224,29.4723558 C60.3365404,29.4723558 60.7687355,29.4898722 61.1854487,29.5230705 C61.0969297,30.0769078 60.9774467,30.5868357 60.8292452,31.0320832 C60.5118648,31.9854834 60.132202,32.4122677 59.8967224,32.4122677 C59.6612429,32.4122677 59.28158,31.9854834 58.9641997,31.0320832 C58.8159982,30.5868357 58.6965152,30.0768486 58.6079962,29.5230113 C59.0247093,29.4898722 59.4569045,29.4723558 59.8967224,29.4723558 Z M57.7271784,29.6199432 C57.8875527,30.6472554 58.1502144,31.5655636 58.5118543,32.2279314 C57.310938,31.9018663 56.2779597,31.162746 55.5756574,30.1724786 C56.1366129,29.9293796 56.8813429,29.7400724 57.7271784,29.6199432 Z M62.0662664,29.6199432 C62.912102,29.7400724 63.656832,29.9293796 64.2178466,30.1724786 C63.5154852,31.162746 62.4825069,31.9018663 61.2816496,32.2279314 C61.6432896,31.5655636 61.9059512,30.6472554 62.0662664,29.6199432 Z M55.122012,24.8118144 C55.7766866,25.1114274 56.637295,25.3390812 57.6169137,25.4773186 C57.5659178,26.0101481 57.5400948,26.5594879 57.5400948,27.1077033 C57.5400948,27.6559188 57.5659178,28.2052586 57.6169137,28.738088 C56.6372359,28.8762662 55.7766866,29.1039792 55.122012,29.4036514 C54.787436,28.7084403 54.5997614,27.9296122 54.5997614,27.1077033 C54.5997614,26.2857352 54.787436,25.5069071 55.122012,24.8118144 Z M64.6713147,24.8115777 C65.0060089,25.5067296 65.1936834,26.285676 65.1936834,27.1076441 C65.1936834,27.9295531 65.0060089,28.7084403 64.6714329,29.403533 C64.0167583,29.10392 63.1561498,28.8762662 62.1765311,28.7380288 C62.2275271,28.2052586 62.2533501,27.6558596 62.2533501,27.1076441 C62.253291,26.5594287 62.227468,26.0100297 62.1764721,25.4772003 C63.1561498,25.3389629 64.0166992,25.1112499 64.6713147,24.8115777 Z M61.2962452,25.5743688 C61.3425139,26.0661295 61.3669187,26.5806732 61.3669187,27.1076441 C61.3669187,27.634615 61.3425139,28.1491588 61.2962452,28.6408602 C60.8448454,28.6040522 60.3760135,28.5847013 59.8967224,28.5847013 C59.4173723,28.5847013 58.9485995,28.603993 58.4971996,28.6408602 C58.450931,28.1491588 58.4265262,27.634615 58.4265262,27.1076441 C58.4265262,26.5806732 58.450931,26.0661295 58.4971996,25.5743688 C58.9485404,25.6112361 59.4173132,25.6305278 59.8965452,25.6305278 C60.3759544,25.6305278 60.8447863,25.6112361 61.2962452,25.5743688 Z M59.8967224,21.8030206 C60.132202,21.8030206 60.5118648,22.2298049 60.8292452,23.183205 C60.9774467,23.6284526 61.0969297,24.1383805 61.1854487,24.6922178 C60.7686764,24.725416 60.3364813,24.7429324 59.8965452,24.7429324 C59.4567863,24.7429324 59.0246502,24.725416 58.6079962,24.6922769 C58.6965152,24.1384397 58.8159982,23.6284526 58.9641997,23.1832642 C59.28158,22.2298049 59.6612429,21.8030206 59.8967224,21.8030206 Z M61.2816496,21.9872977 C62.4824478,22.3134219 63.5154261,23.0525423 64.2177875,24.0427505 C63.656832,24.2858495 62.9121611,24.4751566 62.0663255,24.5952859 C61.9059512,23.5679737 61.6432896,22.6496655 61.2816496,21.9872977 Z M58.5118543,21.9873568 C58.1502144,22.6497247 57.8875527,23.5680329 57.7271784,24.5954042 C56.8813429,24.475275 56.1366129,24.2859679 55.5755983,24.042928 C56.2779597,23.0526015 57.310938,22.3134219 58.5118543,21.9873568 Z" id="Combined-Shape" fill="#209CFF"></path>
    </g>
</svg>