<?xml version="1.0" encoding="UTF-8"?>
<svg width="80px" height="80px" viewBox="0 0 80 80" version="1.1" xmlns="http://www.w3.org/2000/svg" xmlns:xlink="http://www.w3.org/1999/xlink">
    <!-- Generator: Sketch 59.1 (86144) - https://sketch.com -->
    <title>ic/cat_d/ic_cat_d_06</title>
    <desc>Created with Sketch.</desc>
    <g id="ic/cat_d/ic_cat_d_06" stroke="none" stroke-width="1" fill="none" fill-rule="evenodd">
        <path d="M40.5,16 C42.9644404,16 44.9622642,18.0109877 44.9622642,20.4916667 C44.9622642,20.9090108 44.9057178,21.3130608 44.7999164,21.6964773 L54.2898051,27.211626 C55.1035179,26.3425355 56.2576836,25.8 57.5377358,25.8 C60.0021763,25.8 62,27.8109877 62,30.2916667 C62,32.3478096 60.6274675,34.0812682 58.7543334,34.614366 L58.7543334,46.385634 C60.6274675,46.9187318 62,48.6521904 62,50.7083333 C62,53.1890123 60.0021763,55.2 57.5377358,55.2 C56.2377739,55.2 55.0676448,54.6404562 54.2520839,53.7475846 L44.7843402,59.2484503 C44.9001587,59.6481783 44.9622642,60.0709553 44.9622642,60.5083333 C44.9622642,62.9890123 42.9644404,65 40.5,65 C38.0355596,65 36.0377358,62.9890123 36.0377358,60.5083333 C36.0377358,60.219157 36.0648841,59.9363633 36.116755,59.6623937 L26.4499895,54.0446303 C25.6590066,54.7627961 24.6113584,55.2 23.4622642,55.2 C20.9978237,55.2 19,53.1890123 19,50.7083333 C19,48.6521904 20.3725325,46.9187318 22.2456666,46.385634 L22.2456666,34.614366 C20.3725325,34.0812682 19,32.3478096 19,30.2916667 C19,27.8109877 20.9978237,25.8 23.4622642,25.8 C24.8714186,25.8 26.1280129,26.4574912 26.9457912,27.4843313 L36.3106766,22.0420094 C36.1341251,21.5587791 36.0377358,21.0365535 36.0377358,20.4916667 C36.0377358,18.0109877 38.0355596,16 40.5,16 Z M37.5806746,43.4888085 L27.6814008,49.2421871 C27.8389617,49.7016778 27.9245283,50.1949472 27.9245283,50.7083333 C27.9245283,51.1460143 27.8623368,51.5690739 27.7463637,51.9690467 L37.2134342,57.4700828 C37.7645241,56.8663882 38.477652,56.4149502 39.2834125,56.1856311 L39.2834125,44.4143689 C38.6465386,44.2331149 38.0675354,43.9130956 37.5806746,43.4888085 Z M43.6096616,43.31304 C43.0863212,43.825003 42.4386481,44.2088708 41.7165875,44.4143689 L41.7165875,56.1856311 C42.3838604,56.3755367 42.9876062,56.7177706 43.4884078,57.172656 L53.1544908,51.5542729 C53.1026199,51.2803033 53.0754717,50.9975096 53.0754717,50.7083333 C53.0754717,50.1060743 53.1932276,49.5314998 53.4068279,49.0066658 Z M26.635932,33.4491553 C26.1020275,33.9928513 25.4312326,34.400051 24.6798449,34.614086 L24.6798449,46.385914 C25.2732862,46.5549575 25.8164558,46.8444922 26.2816186,47.2266001 L36.2415859,41.4377769 C36.1091342,41.0128015 36.0377358,40.560627 36.0377358,40.0916667 C36.0377358,39.7119709 36.0845403,39.3432789 36.1726586,38.9911177 Z M54.5500105,33.6279637 L44.883245,39.2457271 C44.9351159,39.5196967 44.9622642,39.8024904 44.9622642,40.0916667 C44.9622642,40.4712339 44.9154913,40.8398049 44.8274308,41.1918581 L54.9299806,47.0630954 C55.3454468,46.7614176 55.8145556,46.5299355 56.3201551,46.385914 L56.3201551,34.614086 C55.6535793,34.42421 55.0504295,34.0823146 54.5500105,33.6279637 Z M43.5302741,23.7888304 C43.0214002,24.2629253 42.4025629,24.6191406 41.7165875,24.8143689 L41.7165875,35.7689645 C42.522348,35.9982835 43.2354759,36.4497216 43.7865658,37.0534161 L53.2533956,31.5515497 C53.1375772,31.1518217 53.0754717,30.7290447 53.0754717,30.2916667 C53.0754717,29.9826449 53.106474,29.6809119 53.1655186,29.389447 Z M37.7546844,24.0329183 L27.8939272,29.7628393 C27.9141364,29.9362865 27.9245283,30.112755 27.9245283,30.2916667 C27.9245283,30.6393161 27.885291,30.9777408 27.8110309,31.3026985 L37.3905116,36.8701239 C37.9138216,36.3582456 38.5614316,35.9744399 39.2834125,35.7689645 L39.2834125,24.8143689 C38.7207989,24.6542493 38.2033473,24.3858383 37.7546844,24.0329183 Z" id="Combined-Shape" fill="#209CFF"></path>
    </g>
</svg>