<?xml version="1.0" encoding="UTF-8"?>
<svg width="80px" height="80px" viewBox="0 0 80 80" version="1.1" xmlns="http://www.w3.org/2000/svg" xmlns:xlink="http://www.w3.org/1999/xlink">
    <!-- Generator: Sketch 59.1 (86144) - https://sketch.com -->
    <title>ic/cat_d/ic_cat_d_03</title>
    <desc>Created with Sketch.</desc>
    <g id="ic/cat_d/ic_cat_d_03" stroke="none" stroke-width="1" fill="none" fill-rule="evenodd">
        <path d="M40.1599304,14.0001134 C40.6837825,13.9931257 41.1556759,14.3096838 41.3359315,14.7936213 C43.7348227,17.9293018 50.6124436,20.526606 58.4407419,20.5574818 L58.4407419,20.5574818 L58.5399998,20.5574818 C59.1389269,20.5396063 59.6617289,20.9481418 59.7832993,21.5255191 C59.7832993,21.5255191 61.0154262,27.01036 61.6322033,33.6434553 C62.2489312,40.2767131 62.3781797,48.0431125 59.6711461,53.0583163 C57.643217,56.8152503 52.8514721,59.8370154 48.5680754,62.1356369 C44.6207445,64.2537163 41.3681042,65.5296991 40.8327678,65.7380294 L40.8327678,65.7380294 C40.5927113,65.9201966 40.2999415,66.014449 40.0026928,65.9981986 C39.7073144,66.0129865 39.4159063,65.9227967 39.1823796,65.7443671 C38.6681908,65.5441619 35.4025239,64.2584289 31.4406571,62.1323868 C27.1572768,59.8339278 22.3590843,56.8120002 20.3311879,53.0550662 C17.6241543,48.0398625 17.7501708,40.273463 18.3669315,33.6402052 C18.983643,27.0071099 20.2158355,21.522269 20.2158355,21.522269 C20.3350598,20.9567545 20.8401267,20.5542317 21.4270772,20.5542317 C21.4753116,20.5542317 21.523382,20.5737322 21.5712882,20.5737322 L21.5712882,20.5737322 L21.6354367,20.5737322 C29.7808846,20.5261185 36.9010721,17.782723 39.1472045,14.5560402 C39.3719704,14.2206315 39.7514637,14.0101886 40.1597828,14.0101886 L40.1597828,14.0101886 Z M40.1503801,28.620643 C38.0535988,28.620643 36.253262,29.3570899 34.7493695,30.8299251 C33.2452376,32.302819 32.4934111,34.0655317 32.4934111,36.1185907 L32.4934111,39.3322146 L31.9465574,39.3322146 C31.4909358,39.3322146 31.1034389,39.4883205 30.7843661,39.8007667 C30.4652933,40.1129785 30.3058168,40.4924277 30.3058168,40.9389973 L30.3058168,50.5792241 C30.3058168,51.0253833 30.4653532,51.4049498 30.7843661,51.7174547 C31.1034389,52.0296078 31.4909358,52.1858895 31.9465574,52.1858895 L48.3542027,52.1858895 C48.8101835,52.1858895 49.197381,52.0297837 49.5165736,51.7174547 C49.835347,51.4049498 49.9951232,51.0253833 49.9951232,50.5792241 L49.9951232,40.9388214 C49.9953623,40.4926036 49.835347,40.113213 49.5161545,39.8007667 C49.1970218,39.4883205 48.8097644,39.3322146 48.3537837,39.3322146 L47.8071695,39.3322146 L47.8071695,36.1185907 C47.8071695,34.0655903 47.055343,32.302819 45.551211,30.8299838 C44.0471988,29.3570899 42.2472211,28.620643 40.1503801,28.620643 Z M40.1505596,31.8342669 C41.3585465,31.8342669 42.3893971,32.2525228 43.2441291,33.0893863 C44.098442,33.9260153 44.5257482,34.935926 44.5257482,36.1185907 L44.5257482,39.3322146 L35.775012,39.3322146 L35.775012,36.1185907 C35.775012,34.935926 36.202378,33.926074 37.0569303,33.0893863 C37.9116025,32.2525814 38.9426925,31.8342669 40.1505596,31.8342669 Z" id="Combined-Shape" fill="#209CFF"></path>
    </g>
</svg>