<?xml version="1.0" encoding="UTF-8"?>
<svg width="44px" height="44px" viewBox="0 0 44 44" version="1.1" xmlns="http://www.w3.org/2000/svg" xmlns:xlink="http://www.w3.org/1999/xlink">
    <title>ic_a/cdn/ic_a_cdn_p3_09</title>
    <defs>
        <filter color-interpolation-filters="auto" id="filter-1">
            <feColorMatrix in="SourceGraphic" type="matrix" values="0 0 0 0 1.000000 0 0 0 0 0.529412 0 0 0 0 0.301961 0 0 0 1.000000 0"></feColorMatrix>
        </filter>
    </defs>
    <g id="ic_a/cdn/ic_a_cdn_p3_09" stroke="none" stroke-width="1" fill="none" fill-rule="evenodd">
        <g filter="url(#filter-1)" id="repair">
            <g transform="translate(2.000000, 2.000000)">
                <path d="M38.287939,30.0047501 L29.8947891,21.6119715 C29.0438174,20.7626702 27.8898648,20.1599326 26.6330955,19.968291 L30.3331661,16.2683497 C32.9545215,16.734524 35.6768184,15.8942852 37.5759573,13.9951346 C40.0288683,11.542231 40.6728005,7.79221131 39.1780529,4.66352298 C38.8296795,3.93445664 37.8636251,3.76945578 37.2930553,4.34024003 L34.6062285,7.02705104 L32.9498338,7.02705104 L32.9498338,5.37079232 L35.6367387,2.68398131 C36.2080116,2.11280643 36.0418331,1.1470201 35.3134444,0.799127648 C32.1847249,-0.69548959 28.4344179,-0.0516580778 25.9814287,2.40132358 C24.0822899,4.30039607 23.2419436,7.02244164 23.7082123,9.64386168 L19.1606077,14.1913075 L12.7654288,7.79635196 L13.593587,6.96814448 C14.132515,6.42931352 14.0202448,5.52704315 13.3680311,5.13571296 L5.08652636,0.166936822 C4.62572659,-0.109627133 4.035781,-0.0368923751 3.65576572,0.343109624 L0.343054447,3.65562705 C-0.0369608275,4.03562905 -0.10954187,4.6254759 0.166875491,5.0863377 L5.13590334,13.3677094 C5.53084109,14.0260722 6.43376801,14.1278696 6.96839887,13.5932575 L7.79663529,12.76505 L14.1918142,19.1599274 L9.64420955,23.7073732 C7.02285419,23.2411988 4.30055727,24.0815158 2.40141843,25.9805883 C-0.0516489179,28.4334918 -0.69558105,32.1835896 0.79916653,35.3121998 C1.14753991,36.0412662 2.11359436,36.2062671 2.68416417,35.6354828 L5.37099092,32.9486718 L7.02730749,32.9486718 L7.02730749,34.6049305 L4.34040262,37.2917415 C3.76912966,37.8629164 3.93530821,38.8287027 4.66369686,39.1765952 C5.78827331,39.7138636 6.99285298,39.9748025 8.18891668,39.9747244 C10.3204086,39.9746463 12.4243213,39.1456575 13.9956345,37.5744774 C15.8947733,35.6754049 16.7351196,32.9533593 16.2688508,30.3319393 L19.9690777,26.6318417 C20.1608041,27.8888014 20.7637971,29.0430262 21.6135969,29.894437 L30.0058092,38.2863561 C32.2855884,40.5661337 35.9949562,40.5763682 38.2881734,38.2861217 C40.570687,36.0024379 40.5706089,32.2874183 38.287939,30.0047501 Z M6.37274993,10.8763682 L2.64595951,4.66531986 L4.66541568,2.64601236 L10.8766028,6.37259447 C10.4443198,6.80486237 6.95644527,10.2926932 6.37274993,10.8763682 Z M9.45279561,11.1088694 C10.5316671,10.0299575 10.2057165,10.3559748 11.1091903,9.45253255 L17.5042911,15.8474099 L15.8479745,17.5036687 L9.45279561,11.1088694 Z M14.1589223,29.1293548 C13.8632854,29.4249814 13.7475776,29.8557649 13.8554726,30.2597514 C14.394088,32.2761683 13.8131271,34.4443828 12.3392398,35.9183749 C11.014499,37.2429913 9.16051823,37.8291662 7.36950875,37.5754149 L9.0266066,35.9183749 C9.2462248,35.6987644 9.36966727,35.4008722 9.36966727,35.0903237 L9.36966727,31.77765 C9.36966727,31.1308497 8.84527119,30.606472 8.19844832,30.606472 L4.88573704,30.606472 C4.57502142,30.606472 4.27719695,30.7299101 4.05757875,30.9495206 L2.40048089,32.6065606 C2.14679882,30.8153793 2.73299426,28.9615414 4.05757875,27.6370032 C5.53146612,26.1631673 7.69983452,25.5821487 9.71639995,26.1208234 C10.1204006,26.2286364 10.551121,26.113089 10.846836,25.8174624 C11.1069246,25.5573829 25.2988232,11.3659801 25.8182972,10.8465243 C26.113934,10.5508977 26.2296418,10.1201142 26.1217469,9.71612769 C25.5831315,7.69971083 26.1640923,5.5314963 27.6379797,4.05750417 C28.9626423,2.73288782 30.8163887,2.14647849 32.6077107,2.4004642 L30.9506128,4.05750417 C30.7309946,4.2771147 30.6075522,4.57500689 30.6075522,4.8855554 L30.6075522,8.19807282 C30.6075522,8.8448731 31.1319482,9.36925086 31.7787711,9.36925086 L35.0914824,9.36925086 C35.402198,9.36925086 35.7000225,9.24581271 35.9196407,9.02620218 L37.5767385,7.36916221 C37.8304206,9.16034351 37.2442252,11.0141814 35.9196407,12.3387196 C34.4457533,13.8125555 32.2773068,14.3934179 30.2608195,13.8548995 C29.8568189,13.7470083 29.4260984,13.8626339 29.1303834,14.1582604 L14.1589223,29.1293548 Z M36.6321693,36.629863 C35.2591454,38.0010421 33.0300714,37.9983077 31.6622039,36.6304099 L23.2706948,28.2391939 C22.0844752,27.050672 21.7212575,24.979958 23.3150715,23.3143242 C24.9806854,21.7205658 27.0515499,22.083849 28.239332,23.2690896 L36.6315443,31.6610088 C38.0012087,33.0307035 38.0011306,35.2599339 36.6321693,36.629863 Z" id="Shape" fill="#000000" fill-rule="nonzero"></path>
                <path d="M34.9492892,33.2918767 L26.6727846,25.0155832 C26.2155006,24.558237 25.4738302,24.558237 25.0164681,25.0155832 C24.5591059,25.4729293 24.5591059,26.2144957 25.0164681,26.6718419 L33.2929726,34.9480573 C33.7502566,35.4054035 34.4920052,35.4054035 34.9492892,34.9480573 C35.4066513,34.4907112 35.4066513,33.7492229 34.9492892,33.2918767 Z" id="Path" fill="#000000" fill-rule="nonzero"></path>
            </g>
        </g>
    </g>
</svg>