<?xml version="1.0" encoding="UTF-8"?>
<svg width="80px" height="80px" viewBox="0 0 80 80" version="1.1" xmlns="http://www.w3.org/2000/svg" xmlns:xlink="http://www.w3.org/1999/xlink">
    <!-- Generator: Sketch 63.1 (92452) - https://sketch.com -->
    <title>ic/cat_g/ic_cat_g_02</title>
    <desc>Created with Sketch.</desc>
    <g id="ic/cat_g/ic_cat_g_02" stroke="none" stroke-width="1" fill="none" fill-rule="evenodd">
        <path d="M18.3758735,33.139794 C19.4818514,32.0302633 21.2498015,31.997877 22.3144186,33.0654254 L22.3144186,33.0654254 L27.6718884,38.4398522 C28.7365055,39.5089 28.7060082,41.2807505 27.6000302,42.3902812 L27.6000302,42.3902812 L26.7094275,43.284603 L24.897924,45.0987356 C24.9925057,45.2646655 25.0882834,45.4393915 25.1882469,45.6206149 C26.1355588,47.3311914 27.4311984,49.6745002 29.8933124,52.1435559 C32.3481508,54.6074137 34.6809997,55.9056646 36.3854635,56.8528639 C36.5710389,56.9573198 36.7475449,57.0557781 36.918071,57.1500382 L36.918071,57.1500382 L39.6171873,54.443583 C40.7214709,53.3356516 42.4886237,53.3032653 43.5557324,54.3692145 L43.5557324,54.3692145 L48.9132022,59.7430415 C49.977321,60.8137886 49.945528,62.5862389 48.8418424,63.6955697 L48.8418424,63.6955697 L47.3121903,65.1978342 L47.2792014,65.1684467 C46.6335742,65.6751324 45.88898,66.0988531 45.0924607,66.4109211 C44.3510558,66.699699 43.6215111,66.8821218 42.860273,66.9733832 C42.5107492,67.0105675 34.4088157,67.7722453 24.3551507,57.68971 C17.0820279,50.3950954 14.4020471,45.0194692 15.1094664,39.1375571 C15.1920883,38.4040673 15.3727802,37.6720769 15.6630035,36.9050014 C15.9778439,36.0991422 16.4009201,35.3518583 16.9072162,34.7039324 L16.9072162,34.7039324 L16.865955,34.6628497 Z M67.9928389,30.815261 C67.7250753,40.0447172 59.7815477,47.5402065 50.1796829,47.7112972 L49.8440709,47.7142857 L30.4181818,47.7142857 L33.7463589,44.4349232 C35.4874539,42.6600112 35.8745502,39.9978361 34.7522159,37.5671544 C33.7075331,35.2909304 33.1657789,32.8215379 33.1657789,30.352274 C33.1657789,21.892473 39.0083407,15.2306048 46.3612359,13.4918315 C57.9008598,10.7797566 68.3122159,19.6630621 67.9928389,30.815261 Z M43.1244199,25.5298808 C41.9911835,25.5298808 41.1142744,25.9888808 40.4936926,26.9338808 C39.9000926,27.8248808 39.6032926,29.0263808 39.6032926,30.5383808 C39.6032926,32.0503808 39.9000926,33.2518808 40.4936926,34.1428808 C41.1142744,35.0743808 41.9911835,35.5468808 43.1244199,35.5468808 C44.2441653,35.5468808 45.1210744,35.0743808 45.7551472,34.1428808 C46.3487472,33.2518808 46.6455472,32.0503808 46.6455472,30.5383808 C46.6455472,29.0263808 46.3487472,27.8248808 45.7551472,26.9338808 C45.1210744,25.9888808 44.2441653,25.5298808 43.1244199,25.5298808 Z M51.2189653,25.5298808 C50.085729,25.5298808 49.2088199,25.9888808 48.5882381,26.9338808 C47.9946381,27.8248808 47.6978381,29.0263808 47.6978381,30.5383808 C47.6978381,32.0503808 47.9946381,33.2518808 48.5882381,34.1428808 C49.2088199,35.0743808 50.085729,35.5468808 51.2189653,35.5468808 C52.3387108,35.5468808 53.2156199,35.0743808 53.8496926,34.1428808 C54.4432926,33.2518808 54.7400926,32.0503808 54.7400926,30.5383808 C54.7400926,29.0263808 54.4432926,27.8248808 53.8496926,26.9338808 C53.2156199,25.9888808 52.3387108,25.5298808 51.2189653,25.5298808 Z M59.3135108,25.5298808 C58.2747108,25.5298808 57.4517653,25.7998808 56.8446744,26.3533808 C56.2915472,26.8393808 56.021729,27.4468808 56.021729,28.1758808 C56.021729,28.6618808 56.1296563,29.0803808 56.3455108,29.4178808 C56.5748563,29.7688808 56.9256199,30.0523808 57.4112926,30.2413808 L57.4112926,30.2683808 C56.9526017,30.3898808 56.5748563,30.6598808 56.2510744,31.0783808 C55.873329,31.5373808 55.6979472,32.0638808 55.6979472,32.6578808 C55.6979472,33.5218808 56.0082381,34.2103808 56.6423108,34.7503808 C57.2628926,35.2768808 58.1532926,35.5468808 59.3135108,35.5468808 C60.4602381,35.5468808 61.3506381,35.2768808 61.9847108,34.7503808 C62.6052926,34.2103808 62.9290744,33.5218808 62.9290744,32.6578808 C62.9290744,32.0638808 62.7402017,31.5373808 62.3759472,31.0783808 C62.0521653,30.6598808 61.660929,30.3898808 61.215729,30.2683808 L61.215729,30.2413808 C61.6879108,30.0523808 62.0386744,29.7688808 62.2815108,29.4178808 C62.4973653,29.0803808 62.6052926,28.6618808 62.6052926,28.1758808 C62.6052926,27.4468808 62.3219835,26.8393808 61.7823472,26.3533808 C61.1617653,25.7998808 60.3388199,25.5298808 59.3135108,25.5298808 Z M59.3135108,30.9298808 C59.9880563,30.9298808 60.5007108,31.0918808 60.8649653,31.4293808 C61.1887472,31.7263808 61.364129,32.1448808 61.364129,32.6578808 C61.364129,33.1438808 61.1887472,33.5218808 60.8514744,33.8188808 C60.473729,34.1158808 59.9610744,34.2778808 59.3135108,34.2778808 C58.6524563,34.2778808 58.1532926,34.1293808 57.802529,33.8323808 C57.4382744,33.5353808 57.2628926,33.1438808 57.2628926,32.6578808 C57.2628926,32.1448808 57.4247835,31.7263808 57.7755472,31.4158808 C58.1263108,31.0918808 58.6389653,30.9298808 59.3135108,30.9298808 Z M43.1244199,26.8663808 C43.8799108,26.8663808 44.4195472,27.2848808 44.743329,28.1488808 C44.9591835,28.7293808 45.0671108,29.5258808 45.0671108,30.5383808 C45.0671108,31.5373808 44.9591835,32.3338808 44.743329,32.9278808 C44.4195472,33.7783808 43.8799108,34.2103808 43.1244199,34.2103808 C42.3554381,34.2103808 41.8158017,33.7783808 41.5055108,32.9278808 C41.2896563,32.3338808 41.181729,31.5373808 41.181729,30.5383808 C41.181729,29.5258808 41.2896563,28.7293808 41.5055108,28.1488808 C41.8158017,27.2848808 42.3554381,26.8663808 43.1244199,26.8663808 Z M51.2189653,26.8663808 C51.9744563,26.8663808 52.5140926,27.2848808 52.8378744,28.1488808 C53.053729,28.7293808 53.1616563,29.5258808 53.1616563,30.5383808 C53.1616563,31.5373808 53.053729,32.3338808 52.8378744,32.9278808 C52.5140926,33.7783808 51.9744563,34.2103808 51.2189653,34.2103808 C50.4499835,34.2103808 49.9103472,33.7783808 49.6000563,32.9278808 C49.3842017,32.3338808 49.2762744,31.5373808 49.2762744,30.5383808 C49.2762744,29.5258808 49.3842017,28.7293808 49.6000563,28.1488808 C49.9103472,27.2848808 50.4499835,26.8663808 51.2189653,26.8663808 Z M59.3135108,26.7853808 C59.880129,26.7853808 60.325329,26.9338808 60.6760926,27.2443808 C60.9728926,27.5143808 61.1212926,27.8383808 61.1212926,28.2298808 C61.1212926,28.6753808 60.9998744,29.0263808 60.7570381,29.2828808 C60.4602381,29.5933808 59.9745653,29.7553808 59.3135108,29.7553808 C58.6389653,29.7553808 58.1667835,29.5933808 57.8699835,29.2828808 C57.6271472,29.0263808 57.505729,28.6753808 57.505729,28.2298808 C57.505729,27.8383808 57.654129,27.5143808 57.950929,27.2443808 C58.2882017,26.9338808 58.7468926,26.7853808 59.3135108,26.7853808 Z" id="Combined-Shape" fill="#209CFF"></path>
    </g>
</svg>