<?xml version="1.0" encoding="UTF-8"?>
<svg width="30px" height="30px" viewBox="0 0 30 30" version="1.1" xmlns="http://www.w3.org/2000/svg" xmlns:xlink="http://www.w3.org/1999/xlink">
    <!-- Generator: Sketch 59.1 (86144) - https://sketch.com -->
    <title>map/map_pin@3x</title>
    <desc>Created with Sketch.</desc>
    <g id="map/map_pin" stroke="none" stroke-width="1" fill="none" fill-rule="evenodd">
        <g id="XMLID_1292_" transform="translate(7.000000, 1.000000)" fill-rule="nonzero">
            <path d="M16.3727121,8.65224626 C16.3727121,4.39267887 12.9118136,0.931780366 8.65224626,0.931780366 C4.39267887,0.931780366 0.931780366,4.39267887 0.931780366,8.65224626 C0.931780366,9.98336106 1.19800333,11.0482529 1.73044925,12.1131448 L1.73044925,12.1131448 L8.78535774,27.8202995 L15.5740433,11.8469218 L15.5740433,11.8469218 C16.1064892,10.9151414 16.3727121,9.85024958 16.3727121,8.65224626 Z" id="XMLID_1321_" fill="#41A832"></path>
            <circle id="XMLID_1320_" fill="#FFFFFF" cx="8.65224626" cy="8.65224626" r="5.85690516"></circle>
            <g id="XMLID_1293_" transform="translate(2.662230, 2.662230)" fill="#0055A2">
                <g id="XMLID_1294_">
                    <path d="M5.85690516,0.931780366 C5.05823627,0.931780366 4.39267887,1.06489185 3.72712146,1.46422629 L7.98668885,1.46422629 C7.32113145,1.19800333 6.65557404,0.931780366 5.85690516,0.931780366 Z M4.25956739,1.86356073 L2.92845258,1.86356073 C2.7953411,1.99667221 2.52911814,2.12978369 2.39600666,2.39600666 L3.59400998,2.39600666 C3.86023295,2.26289517 3.99334443,1.99667221 4.25956739,1.86356073 Z M6.78868552,3.32778702 L9.98336106,3.32778702 C9.85024958,3.19467554 9.7171381,3.06156406 9.7171381,2.7953411 L6.78868552,2.7953411 L6.78868552,3.32778702 Z M3.19467554,2.92845258 L1.99667221,2.92845258 C1.86356073,3.06156406 1.73044925,3.19467554 1.73044925,3.4608985 L2.92845258,3.4608985 C2.92845258,3.19467554 3.06156406,3.06156406 3.19467554,2.92845258 Z M6.78868552,2.39600666 L9.31780366,2.39600666 C9.18469218,2.26289517 8.91846922,2.12978369 8.78535774,1.86356073 L6.78868552,1.86356073 L6.78868552,2.39600666 Z M10.78203,5.85690516 C10.78203,5.72379368 10.78203,5.72379368 10.78203,5.5906822 L9.0515807,5.5906822 C8.91846922,5.45757072 8.91846922,5.32445923 8.78535774,5.05823627 L10.6489185,5.05823627 C10.6489185,4.92512479 10.6489185,4.79201331 10.515807,4.52579035 L8.38602329,4.52579035 C8.25291181,4.39267887 8.11980033,4.25956739 7.98668885,3.99334443 L10.3826955,3.99334443 C10.3826955,3.86023295 10.249584,3.72712146 10.249584,3.4608985 L4.79201331,3.4608985 L4.79201331,5.85690516 L6.65557404,5.85690516 L6.65557404,8.25291181 L1.46422629,8.25291181 C1.59733777,8.38602329 1.73044925,8.51913478 1.73044925,8.78535774 L4.65890183,8.78535774 L4.65890183,9.31780366 L2.12978369,9.31780366 C2.26289517,9.45091514 2.52911814,9.58402662 2.66222962,9.85024958 L4.65890183,9.85024958 L4.65890183,10.3826955 L3.4608985,10.3826955 C4.12645591,10.6489185 4.79201331,10.9151414 5.5906822,10.9151414 C6.38935108,10.9151414 7.05490849,10.78203 7.72046589,10.3826955 L7.18801997,10.3826955 C7.45424293,10.249584 7.58735441,10.1164725 7.85357737,9.85024958 L8.51913478,9.85024958 C8.65224626,9.7171381 8.91846922,9.58402662 9.0515807,9.31780366 L8.25291181,9.31780366 C8.38602329,9.18469218 8.51913478,9.0515807 8.51913478,8.78535774 L9.45091514,8.78535774 C9.58402662,8.65224626 9.7171381,8.51913478 9.7171381,8.25291181 L8.78535774,8.25291181 C8.78535774,8.11980033 8.91846922,7.98668885 8.91846922,7.72046589 L9.98336106,7.72046589 C10.1164725,7.58735441 10.1164725,7.45424293 10.1164725,7.18801997 L9.31780366,7.18801997 C9.31780366,7.05490849 9.31780366,6.921797 9.31780366,6.78868552 C9.31780366,6.78868552 9.31780366,6.78868552 9.31780366,6.78868552 L10.6489185,6.78868552 C10.6489185,6.65557404 10.78203,6.52246256 10.78203,6.2562396 L9.31780366,6.2562396 C9.31780366,6.12312812 9.31780366,5.99001664 9.18469218,5.72379368 L10.78203,5.72379368 C10.78203,6.12312812 10.78203,5.99001664 10.78203,5.85690516 Z M3.19467554,7.58735441 L1.19800333,7.58735441 C1.19800333,7.72046589 1.33111481,7.85357737 1.33111481,8.11980033 L3.59400998,8.11980033 C3.4608985,7.85357737 3.32778702,7.72046589 3.19467554,7.58735441 Z M2.66222962,6.65557404 L1.06489185,6.65557404 C1.06489185,6.78868552 1.06489185,6.921797 1.19800333,7.18801997 L2.92845258,7.18801997 C2.7953411,6.921797 2.66222962,6.78868552 2.66222962,6.65557404 Z M2.39600666,5.19134775 C2.39600666,5.05823627 2.39600666,4.92512479 2.39600666,4.65890183 L1.06489185,4.65890183 C1.06489185,4.79201331 0.931780366,4.92512479 0.931780366,5.19134775 L2.39600666,5.19134775 L2.39600666,5.19134775 Z M2.66222962,3.86023295 L1.33111481,3.86023295 C1.19800333,3.99334443 1.19800333,4.12645591 1.19800333,4.39267887 L2.39600666,4.39267887 C2.52911814,4.12645591 2.52911814,3.99334443 2.66222962,3.86023295 Z M2.39600666,5.72379368 L0.931780366,5.72379368 C0.931780366,5.85690516 0.931780366,5.85690516 0.931780366,5.99001664 C0.931780366,6.12312812 0.931780366,6.12312812 0.931780366,6.2562396 L2.39600666,6.2562396 C2.39600666,5.99001664 2.39600666,5.85690516 2.39600666,5.72379368 Z" id="XMLID_264_"></path>
                </g>
            </g>
        </g>
    </g>
</svg>