<?xml version="1.0" encoding="UTF-8"?>
<svg width="80px" height="80px" viewBox="0 0 80 80" version="1.1" xmlns="http://www.w3.org/2000/svg" xmlns:xlink="http://www.w3.org/1999/xlink">
    <!-- Generator: Sketch 59.1 (86144) - https://sketch.com -->
    <title>ic/cat_g/ic_cat_g_01</title>
    <desc>Created with Sketch.</desc>
    <g id="ic/cat_g/ic_cat_g_01" stroke="none" stroke-width="1" fill="none" fill-rule="evenodd">
        <path d="M66.6666667,68.862069 L66.6666667,62.186254 C68.0729167,61.3558224 68.8968749,59.8056135 68.8,58.1724138 C68.8,55.8110857 67.3677083,53.8965517 65.6,53.8965517 C63.8322917,53.8965517 62.4,55.8110857 62.4,58.1724138 C62.3031251,59.8056135 63.1270833,61.3558224 64.5333333,62.186254 L64.5333333,68.862069 L57.0666667,68.862069 L57.0666667,36.3849339 L50.6666667,33.1780374 L50.6666667,38.9310345 L53.8666667,38.9310345 L53.8666667,41.0689655 L50.6666667,41.0689655 L50.6666667,45.3448276 L53.8666667,45.3448276 L53.8666667,47.4827586 L50.6666667,47.4827586 L50.6666667,51.7586207 L53.8666667,51.7586207 L53.8666667,53.8965517 L50.6666667,53.8965517 L50.6666667,58.1724138 L53.8666667,58.1724138 L53.8666667,60.3103448 L50.6666667,60.3103448 L50.6666667,64.5862069 L53.8666667,64.5862069 L53.8666667,66.7241379 L50.6666667,66.7241379 L50.6666667,68.862069 L48.5333333,68.862069 L48.5333333,25.8403825 L35.7333333,22.1762527 L35.7333333,26.1034483 L43.2,26.1034483 L43.2,28.2413793 L35.7333333,28.2413793 L35.7333333,32.5172414 L43.2,32.5172414 L43.2,34.6551724 L35.7333333,34.6551724 L35.7333333,38.9310345 L43.2,38.9310345 L43.2,41.0689655 L35.7333333,41.0689655 L35.7333333,45.3448276 L43.2,45.3448276 L43.2,47.4827586 L35.7333333,47.4827586 L35.7333333,51.7586207 L43.2,51.7586207 L43.2,53.8965517 L35.7333333,53.8965517 L35.7333333,58.1724138 L43.2,58.1724138 L43.2,60.3103448 L35.7333333,60.3103448 L35.7333333,64.5862069 L43.2,64.5862069 L43.2,66.7241379 L35.7333333,66.7241379 L35.7333333,68.862069 L33.6,68.862069 L33.6,9 L14.4,9 L14.4,13.2758621 L24,13.2758621 L24,15.4137931 L14.4,15.4137931 L14.4,19.6896552 L24,19.6896552 L24,21.8275862 L14.4,21.8275862 L14.4,26.1034483 L24,26.1034483 L24,28.2413793 L14.4,28.2413793 L14.4,32.5172414 L24,32.5172414 L24,34.6551724 L14.4,34.6551724 L14.4,38.9310345 L24,38.9310345 L24,41.0689655 L14.4,41.0689655 L14.4,45.3448276 L24,45.3448276 L24,47.4827586 L14.4,47.4827586 L14.4,51.7586207 L24,51.7586207 L24,53.8965517 L14.4,53.8965517 L14.4,58.1724138 L24,58.1724138 L24,60.3103448 L14.4,60.3103448 L14.4,64.5862069 L24,64.5862069 L24,66.7241379 L14.4,66.7241379 L14.4,68.862069 L8,68.862069 L8,71 L72,71 L72,68.862069 L66.6666667,68.862069 Z" id="Path" fill="#209CFF"></path>
    </g>
</svg>