<?xml version="1.0" encoding="UTF-8"?>
<svg width="48px" height="48px" viewBox="0 0 48 48" version="1.1" xmlns="http://www.w3.org/2000/svg" xmlns:xlink="http://www.w3.org/1999/xlink">
    <title>ic/smart/pinL</title>
    <g id="ic/smart/pinL" stroke="none" stroke-width="1" fill="none" fill-rule="evenodd">
        <path d="M37.0393555,10.9547656 C33.925442,6.53523437 28.9903588,4 23.50048,4 C18.0106013,4 13.075518,6.53523437 9.96160455,10.9547656 C6.86298698,15.3519531 6.14750468,20.9189062 8.04387934,25.8372656 C8.55111415,27.1803906 9.35741595,28.4853125 10.4346626,29.708125 L22.4147091,43.5076562 C22.685654,43.82 23.0826307,44 23.50048,44 C23.9183294,44 24.3153061,43.8200781 24.5862509,43.5076562 L36.5629515,29.711875 C37.6449781,28.4820312 38.4502443,27.1785156 38.9532568,25.8461719 C40.8534554,20.9189062 40.1379731,15.3519531 37.0393555,10.9547656 Z" id="Shape" fill="#209CFF"></path>
        <path d="M23.5,11 C19.3647209,11 16,14.364272 16,18.5 C16,22.635728 19.364272,26 23.5,26 C27.635728,26 31,22.635728 31,18.5 C31,14.3647209 27.6352791,11 23.5,11 Z" id="Shape" fill="#FFFFFF"></path>
    </g>
</svg>