<?xml version="1.0" encoding="UTF-8"?>
<svg width="44px" height="44px" viewBox="0 0 44 44" version="1.1" xmlns="http://www.w3.org/2000/svg" xmlns:xlink="http://www.w3.org/1999/xlink">
    <!-- Generator: Sketch 58 (84663) - https://sketch.com -->
    <title>ic_a/iot/ic_a_iot_p2_03</title>
    <desc>Created with Sketch.</desc>
    <g id="ic_a/iot/ic_a_iot_p2_03" stroke="none" stroke-width="1" fill="none" fill-rule="evenodd">
        <path d="M23.4984133,3.53024086 L23.6346027,3.64774576 L23.6589722,3.67122905 C26.5147886,6.48602774 29.8571345,7.91067709 34.1777,8.15449687 C36.249966,8.27162311 37.8970561,10.0047435 37.927733,12.0999697 C37.9326785,12.4222118 37.9400431,12.7199922 37.9503106,13.0027287 L37.9615635,13.2807993 L37.9627103,13.3103708 C38.0464267,17.7739243 38.1504987,23.3290132 36.3093128,28.3767483 C35.2998429,31.1448705 33.7723065,33.5511769 31.769422,35.5292768 C29.4892987,37.7810578 26.5033206,39.5698422 22.8946306,40.8460544 C22.7765103,40.8878023 22.6535161,40.9217225 22.5290884,40.9469453 C22.3539148,40.9823151 22.1770211,41 22.000414,41 C21.823807,41 21.6471999,40.9823151 21.4717396,40.9469453 C21.347312,40.9217225 21.2251778,40.8880923 21.107631,40.8466342 C17.4946404,39.5727414 14.5055087,37.7848267 12.2233785,35.5327558 C10.2196339,33.5552357 8.6920975,31.1495092 7.68348768,28.3819668 C5.91469342,23.5290452 5.9485599,18.2000489 6.02855535,13.8309426 L6.03754433,13.3495095 L6.03926449,13.2807993 C6.05560636,12.9131853 6.06678767,12.5270166 6.0730951,12.1002596 C6.10377192,10.0047435 7.75114883,8.27162311 9.82312807,8.15478676 C13.9947085,7.91909466 17.2543697,6.58287569 20.0446709,3.9574648 L20.3418559,3.67122905 L20.3662253,3.64774576 C21.2536294,2.82521146 22.570368,2.78604316 23.4984133,3.53024086 Z M21.8639449,5.28490391 C20.2343434,6.88756199 18.4837547,8.07679926 16.5126938,8.92045606 C14.5390525,9.7652726 12.3910979,10.2430549 9.94612226,10.3810551 C9.02438248,10.4329502 8.29157787,11.2026783 8.27781628,12.1330202 C8.27308576,12.4661341 8.26545239,12.7767433 8.25467427,13.074021 L8.24283895,13.3671944 L8.24226551,13.3921272 C8.15768913,17.882353 8.06193138,22.972126 9.75259989,27.611079 C11.6858165,32.9156801 15.6376861,36.5564507 21.8338415,38.741261 C21.8556306,38.7487989 21.87914,38.755177 21.9032228,38.7601056 C21.968017,38.7731518 22.0330978,38.7731518 22.0970318,38.7603955 C22.1214014,38.7554669 22.1449107,38.7487989 22.1669866,38.741261 C28.3565479,36.5523919 32.3058372,32.9095919 34.2404873,27.6052807 C35.9360297,22.9564706 35.8425655,17.8626387 35.7582758,13.3671944 C35.7410738,12.9839249 35.7296059,12.5797814 35.7230117,12.1333101 C35.7095368,11.2026783 34.9767323,10.4329502 34.0549925,10.3810551 C31.6097302,10.2430549 29.4617755,9.7652726 27.4881343,8.92045606 C25.5173601,8.07679926 23.7667713,6.88756199 22.1368831,5.28490391 C22.0543136,5.2138744 21.9468012,5.2141643 21.8639449,5.28490391 Z M21.9998406,12.5304956 C27.1635901,12.5304956 31.3648886,16.7789311 31.3648886,22.000616 C31.3648886,27.222591 27.1635901,31.4710265 21.9998406,31.4710265 C16.8358044,31.4710265 12.6347927,27.222591 12.6347927,22.000616 C12.6347927,16.7789311 16.8358044,12.5304956 21.9998406,12.5304956 Z M21.9998406,14.7602429 C18.0516981,14.7602429 14.8398006,18.0081768 14.8398006,22.000616 C14.8398006,25.9930553 18.0516981,29.2409892 21.9998406,29.2409892 C25.9476964,29.2409892 29.159594,25.9930553 29.159594,22.000616 C29.159594,18.0081768 25.9476964,14.7602429 21.9998406,14.7602429 Z M24.6913781,19.0605734 C25.1220011,18.6248291 25.820115,18.6248291 26.2507381,19.0605734 C26.6810745,19.495738 26.6810745,20.2016845 26.2507381,20.6371391 L26.2507381,20.6371391 L21.1211059,25.824324 C20.9057943,26.0420513 20.6236818,26.1507699 20.3415692,26.1507699 C20.0594566,26.1507699 19.777344,26.0420513 19.5620325,25.824324 L19.5620325,25.824324 L17.6015794,23.8418754 C17.1712431,23.4067108 17.1712431,22.7007643 17.6015794,22.2653098 C18.0322025,21.8298553 18.7303165,21.8298553 19.1609395,22.2653098 L19.1609395,22.2653098 L20.3415692,23.4591857 Z" id="Combined-Shape" fill="#FF874D"></path>
    </g>
</svg>