<?xml version="1.0" encoding="UTF-8"?>
<svg width="44px" height="44px" viewBox="0 0 44 44" version="1.1" xmlns="http://www.w3.org/2000/svg" xmlns:xlink="http://www.w3.org/1999/xlink">
    <!-- Generator: Sketch 58 (84663) - https://sketch.com -->
    <title>ic_a/iot/ic_a_iot_p2_05</title>
    <desc>Created with Sketch.</desc>
    <g id="ic_a/iot/ic_a_iot_p2_05" stroke="none" stroke-width="1" fill="none" fill-rule="evenodd">
        <path d="M17.5691379,11.7734813 C12.3079655,13.7894005 8.79310345,18.8916176 8.79310345,24.4697745 L8.79310345,28.184456 C8.79310345,28.6927045 8.33627586,29.1176251 7.82203448,29.1176251 L5.88124138,29.1176251 C4.29775862,29.1176251 3,27.831412 3,26.2663831 L3,22.0701385 C3,20.8334109 3.80544828,19.747389 4.99893103,19.3676596 C5.48875862,19.2118417 6.01655172,19.4778772 6.17410345,19.9615874 C6.33165517,20.4452976 6.06031034,20.9637703 5.5707931,21.1194859 C5.15627586,21.251379 4.86206897,21.6423551 4.86206897,22.0701385 L4.86206897,26.2663831 C4.86206897,26.8166533 5.32458621,27.2772566 5.88124138,27.2772566 L6.93103448,27.2772566 L6.93103448,24.4698767 C6.93103448,21.2916626 7.88006897,18.2384913 9.71327586,15.6405045 C11.5042759,13.1024318 13.968,11.1718853 16.8761379,10.0576444 C17.3555172,9.87401655 17.8948966,10.1090725 18.0807931,10.5830696 C18.2664828,11.05676 18.0485172,11.5897512 17.5691379,11.7734813 Z M32.6963793,12.2972706 C32.6963793,14.2277149 31.1072069,15.7983672 29.1538966,15.7983672 C27.2006897,15.7983672 25.6115172,14.2278172 25.6115172,12.2972706 C25.6115172,10.3667241 27.2005862,8.79617408 29.1538966,8.79617408 C31.1072069,8.79617408 32.6963793,10.3668263 32.6963793,12.2972706 Z M30.8343103,12.2972706 C30.8343103,11.3815851 30.0804828,10.6365426 29.1538966,10.6365426 C28.2274138,10.6365426 27.4735862,11.3815851 27.4735862,12.2972706 C27.4735862,13.2129562 28.2274138,13.9579987 29.1538966,13.9579987 C30.0804828,13.9579987 30.8343103,13.2129562 30.8343103,12.2972706 Z M42,22.0700362 L42,26.2662809 C42,27.8313098 40.7538621,29.1175229 39.1703793,29.1175229 L37.4507586,29.1175229 C36.8860345,30.8556487 35.9898621,32.572099 34.7830345,34.0761913 C32.8001379,36.5477039 30.0714828,38.3765189 27.036931,39.2815713 C26.9004828,40.7954788 25.6101724,42 24.0438621,42 L21.0078621,42 C19.350931,42 18.0028966,40.6726854 18.0028966,39.0350641 C18.0028966,37.3971362 19.350931,36.0699238 21.0078621,36.0699238 L24.0439655,36.0699238 C25.1345172,36.0699238 26.0913103,36.6280666 26.6179655,37.4895636 C32.3565517,35.7345677 36.2984483,30.4779641 36.2984483,24.46957 C36.2984483,22.6177504 35.9294483,20.8249247 35.2012759,19.1377158 L33.9763448,18.5967497 C33.449069,18.9923267 32.8784483,19.3188898 32.2707931,19.5728607 L32.1183103,21.0263428 C32.0681379,21.9839479 30.9407586,22.5759331 29.1541034,22.5759331 C27.3625862,22.5759331 26.2356207,21.982312 26.1895862,21.0218442 L26.0375172,19.5729629 C25.4298621,19.3190943 24.8592414,18.9925312 24.3318621,18.5969542 L22.9773103,19.1952784 C22.1134138,19.6292987 21.0318621,18.9603247 20.1392069,17.4320009 C19.817069,16.8806061 19.5865862,16.3054909 19.4903793,15.8129879 C19.2894828,14.7840174 19.7089655,14.3173818 20.0165172,14.1193377 L21.219931,13.257534 C21.1808276,12.9389458 21.161069,12.6173925 21.161069,12.2962482 C21.161069,11.9697873 21.1814483,11.6432241 21.2217931,11.3198305 L20.0188966,10.458538 C19.2001034,9.93894066 19.2434483,8.67736807 20.1394138,7.14393215 C21.0321724,5.61509716 22.1141379,4.94612321 22.9781379,5.38116587 L24.3457241,5.98521571 C24.8687586,5.59464862 25.4341034,5.27186843 26.0356552,5.02024917 L26.1895862,3.5539867 C26.2355172,2.59372332 27.3624828,2 29.1538966,2 C30.9412759,2 32.0688621,2.59239417 32.1182069,3.55061269 L32.2723448,5.02035141 C32.8737931,5.27186843 33.4392414,5.5948531 33.9623793,5.98531795 L35.3274828,5.38259727 C35.6547931,5.21859999 36.2735172,5.09294372 37.0745172,5.77909444 C37.458,6.10770245 37.8465517,6.59243506 38.1686897,7.14403439 C39.0622759,8.67327836 39.1071724,9.93444198 38.292931,10.4560842 L37.0863103,11.320035 C37.1266552,11.6434286 37.1470345,11.9699918 37.1470345,12.2963504 C37.1470345,12.6179037 37.1273793,12.9395592 37.0882759,13.257534 L38.2942759,14.1212803 C39.1071724,14.643536 39.0617586,15.9043929 38.1685862,17.4329211 C37.8466552,17.984316 37.458,18.4698665 37.0745172,18.7985768 C37.0741034,18.7989858 37.0735862,18.8010306 37.073069,18.8014396 C37.794931,20.6056141 38.1605172,22.5138718 38.1605172,24.4761136 C38.1605172,25.4247213 38.0757931,26.3568679 37.9087241,27.2770521 L39.1703793,27.2770521 C39.7271379,27.2770521 40.137931,26.8164488 40.137931,26.2661786 L40.137931,22.069934 C40.137931,21.6420483 39.8642069,21.2511745 39.4496897,21.1192814 C38.9602759,20.9635658 38.7070345,20.4450931 38.8645862,19.9613829 C39.0221379,19.4776728 39.5361724,19.2116373 40.0255862,19.3674551 C41.2191724,19.747389 42,20.8334109 42,22.0700362 Z M25.1868621,39.0210569 C25.1868621,38.9459085 25.1794138,38.8631942 25.1652414,38.7921355 C25.1627586,38.7815023 25.1604828,38.7803776 25.1583103,38.7696421 C25.0423448,38.2673237 24.5867586,37.9103945 24.0439655,37.9103945 L21.0078621,37.9103945 C20.3776552,37.9103945 19.8649655,38.4119972 19.8649655,39.0348596 C19.8649655,39.6580289 20.3776552,40.1597338 21.0078621,40.1597338 L24.0439655,40.1597338 C24.6741724,40.159836 25.1868621,39.6439194 25.1868621,39.0210569 Z M35.5297241,10.1621365 L36.9907241,9.11609147 C36.948,8.90066611 36.8237586,8.52257263 36.5560345,8.06442312 C36.2885172,7.60637585 36.0194483,7.31099671 35.8519655,7.16683452 L34.1985517,7.89684735 C33.8659655,8.0437701 33.4771034,7.98528728 33.2035862,7.74736853 C32.5866207,7.21059439 31.8817241,6.8080649 31.1087586,6.5513335 C30.762931,6.43641271 30.516931,6.13254743 30.4792759,5.77388006 L30.2926552,3.99434598 C30.0826552,3.92308282 29.6892414,3.84036848 29.1538966,3.84036848 C28.6187586,3.84036848 28.2253448,3.92308282 28.0152414,3.99424374 L27.8284138,5.77388006 C27.7907586,6.13244519 27.5446552,6.43631047 27.1990345,6.55123126 C26.4255517,6.80816715 25.7208621,7.21049215 25.1043103,7.74716404 C24.8307931,7.98528728 24.4417241,8.04366785 24.1091379,7.89664286 L22.455931,7.16642554 C22.2884483,7.31058774 22.0192759,7.60596688 21.7516552,8.06411639 C21.4840345,8.52216366 21.3596897,8.90025714 21.3171724,9.11578474 L22.778069,10.1618297 C23.0734138,10.3733699 23.2166897,10.7358202 23.1444828,11.089171 C23.0637931,11.4841345 23.022931,11.8902425 23.022931,12.2963504 C23.022931,12.6978575 23.0629655,13.0997735 23.142,13.4912608 C23.2131724,13.8439981 23.0698966,14.205426 22.7752759,14.4164549 L21.3171724,15.4605573 C21.3598966,15.6759827 21.4841379,16.0540762 21.7517586,16.5120212 C22.0193793,16.9702729 22.2885517,17.2656521 22.4560345,17.4098143 L24.0967241,16.6852203 C24.4301379,16.5378886 24.819931,16.5969849 25.0935517,16.8361305 C25.7131034,17.3779146 26.4220345,17.7837158 27.2005862,18.0419808 C27.5465172,18.1567994 27.7927241,18.4606647 27.8303793,18.819332 L28.0154483,20.5818938 C28.2255517,20.653157 28.6188621,20.7357691 29.1541034,20.7357691 C29.6894483,20.7357691 30.0828621,20.6530548 30.2929655,20.5817916 L30.477931,18.8194343 C30.5155862,18.4607669 30.7616897,18.1569016 31.1075172,18.0419808 C31.8862759,17.7835113 32.5952069,17.3777101 33.2145517,16.8360283 C33.4881724,16.5967804 33.8777586,16.5377863 34.2112759,16.6850158 L35.8521724,17.4095075 C36.0196552,17.2652431 36.2886207,16.9699662 36.5560345,16.5120212 C36.8238621,16.0537694 36.9482069,15.6755737 36.9907241,15.4601484 L35.5327241,14.4162505 C35.2377931,14.2051193 35.0945172,13.8432824 35.1661034,13.4904429 C35.2450345,13.1005915 35.285069,12.6987777 35.285069,12.2963504 C35.285069,11.8903447 35.2441034,11.4842367 35.1635172,11.0892732 C35.0912069,10.7360247 35.2343793,10.3735744 35.5297241,10.1621365 Z" id="Shape" fill="#209CFF"></path>
    </g>
</svg>