<?xml version="1.0" encoding="UTF-8"?>
<svg width="44px" height="44px" viewBox="0 0 44 44" version="1.1" xmlns="http://www.w3.org/2000/svg" xmlns:xlink="http://www.w3.org/1999/xlink">
    <!-- Generator: Sketch 58 (84663) - https://sketch.com -->
    <title>ic_a/iot/ic_a_iot_p2_11</title>
    <desc>Created with Sketch.</desc>
    <g id="ic_a/iot/ic_a_iot_p2_11" stroke="none" stroke-width="1" fill="none" fill-rule="evenodd">
        <path d="M41.7699022,13.7712402 L33.4016761,2.47424313 C33.1804236,2.17608641 32.8313025,2 32.4599035,2 C32.0885045,2 31.7390782,2.17608641 31.5184361,2.47424313 L23.15021,13.7712402 C22.8868433,14.12677 22.8462549,14.600708 23.0455347,14.9959106 C23.2445094,15.3911133 23.6494776,15.640747 24.0919826,15.640747 L27.1040679,15.640747 L27.1040679,21.3048095 C26.5141631,21.0008545 25.8461332,20.828125 25.1378201,20.828125 L23.0458399,20.828125 C20.6694358,20.828125 18.736147,22.7614136 18.736147,25.1378173 L18.736147,27.5807495 C18.1462421,27.2767945 17.4779071,27.1040649 16.7698992,27.1040649 L14.677919,27.1040649 C12.3015149,27.1040649 10.3682261,29.0376587 10.3682261,31.4140625 L10.3682261,33.8566895 C9.77801608,33.5530395 9.10998615,33.3800048 8.40197826,33.3800048 L6.30969285,33.3800048 C3.93328882,33.3800048 2,35.3135986 2,37.6900024 L2,40.828125 C2,41.4754028 2.52459725,42 3.17187514,42 L36.6438639,42 C37.2911418,42 37.8157391,41.4754028 37.8157391,40.828125 L37.8157391,15.640747 L40.8281296,15.640747 C41.2706345,15.640747 41.6756028,15.3911133 41.8745775,14.9959106 C42.0738572,14.600708 42.0332689,14.12677 41.7699022,13.7712402 Z M4.34375028,37.6900024 C4.34375028,36.606018 5.22570835,35.7237548 6.30969285,35.7237548 L8.4016731,35.7237548 C9.48596276,35.7237548 10.3679209,36.606018 10.3679209,37.6900024 L10.3679209,39.65625 L4.34375028,39.65625 L4.34375028,37.6900024 Z M12.7116712,37.6900024 L12.7116712,31.4140625 C12.7116712,30.329773 13.5936293,29.4478149 14.677919,29.4478149 L16.7698992,29.4478149 C17.8538837,29.4478149 18.7358418,30.329773 18.7358418,31.4140625 L18.7358418,39.65625 L12.7116712,39.65625 L12.7116712,37.6900024 Z M21.0798973,31.4140625 L21.0798973,25.1378173 C21.0798973,24.053833 21.9618554,23.171875 23.0458399,23.171875 L25.1378201,23.171875 C26.2218046,23.171875 27.1040679,24.053833 27.1040679,25.1378173 L27.1040679,39.65625 L21.0798973,39.65625 L21.0798973,31.4140625 Z M36.6438639,13.296997 C35.9965861,13.296997 35.4719888,13.8215942 35.4719888,14.468872 L35.4719888,39.65625 L29.4478182,39.65625 L29.4478182,14.468872 C29.4478182,13.8215942 28.9229158,13.296997 28.275943,13.296997 L26.4183379,13.296997 L32.4599035,5.14056398 L38.5017743,13.296997 L36.6438639,13.296997 Z" id="Shape" fill="#209CFF"></path>
    </g>
</svg>