<?xml version="1.0" encoding="UTF-8"?>
<svg width="44px" height="44px" viewBox="0 0 44 44" version="1.1" xmlns="http://www.w3.org/2000/svg" xmlns:xlink="http://www.w3.org/1999/xlink">
    <!-- Generator: Sketch 57.1 (83088) - https://sketch.com -->
    <title>ic_a/sdwan/ic_a_sdwan_p2_08</title>
    <desc>Created with Sketch.</desc>
    <g id="ic_a/sdwan/ic_a_sdwan_p2_08" stroke="none" stroke-width="1" fill="none" fill-rule="evenodd">
        <path d="M17.0430835,6.95651467 L17.3798435,7.01974791 L17.8711811,7.12233701 C20.0996007,7.58762107 22.1070648,8.7791165 23.5816925,10.5050149 L23.7988513,10.7678837 L24.1335363,11.1869829 L25.5888005,10.9277896 C27.3919791,10.6066302 29.2507719,10.9079676 30.8601357,11.7823499 C32.366418,12.6007271 33.5005065,13.9609297 34.0370536,15.5815685 L34.1209067,15.8540381 L34.4513822,17.0146479 L36.1002091,17.3266501 C37.9368432,17.6741904 39.5944727,18.6521518 40.7868685,20.0916661 C41.9109439,21.448701 42.6045701,23.1070687 42.7837642,24.8547744 L42.812719,25.2054439 L42.876176,26.2178766 C42.9874585,27.9933451 42.687878,29.7705654 42.0007129,31.4114421 C41.3629459,32.9343613 40.3467862,34.2668271 39.0510931,35.2838556 L38.7692021,35.4969166 L38.2175959,35.8982212 C37.0020695,36.7825413 35.6003241,37.3770256 34.1196583,37.6361686 C32.8360962,37.8608149 31.5379133,37.9897278 30.2358398,38.0219754 L29.5845285,38.0300395 L12.0984328,38.0300395 C9.86491062,38.0300395 7.66857545,37.4582394 5.7186038,36.3690967 C3.89570987,35.3509324 2.45554525,33.7700567 1.61034766,31.8676112 L1.47502674,31.5476008 L1.46480042,31.5221488 C0.679510104,29.5676558 0.405806697,27.4475872 0.666185,25.3620237 L0.725388415,24.9454304 L0.812508399,24.3990876 C1.19757557,21.9842725 2.49128156,19.8125528 4.42175088,18.3246415 L4.67714002,18.1344803 L6.23444361,17.0146479 L6.23444361,16.3609358 C6.23444361,14.7253262 6.65781929,13.117566 7.46337731,11.694086 C8.21013879,10.3745038 9.27632993,9.26599354 10.5617433,8.46890142 L10.8622231,8.29053089 L11.471744,7.94448329 C13.1634474,6.98404072 15.131118,6.63741341 17.0430835,6.95651467 Z M16.0826409,9.88437917 L15.1878703,9.93309565 C13.5805656,10.0206066 12.067781,10.7202573 10.9602336,11.8883435 C9.85282326,13.0562853 9.23553267,14.6044738 9.23553267,16.21396 L9.23553267,18.5633193 L7.71823989,19.493421 C6.79089349,20.0618851 5.94709299,20.7565313 5.2110757,21.5574067 C4.48809253,22.3440994 4.01735483,23.3293374 3.8595644,24.3860739 L3.6941265,25.4940263 C3.4965031,26.8175278 3.59122047,28.1682552 3.97161802,29.451224 L4.05809131,29.7428729 C4.38050946,30.8302944 4.96538763,31.8217457 5.76120808,32.629897 C6.55705152,33.4380717 7.53925818,34.0383489 8.6214705,34.3779511 L8.75958929,34.4212933 C9.94356,34.7928276 11.177217,34.9818466 12.4181136,34.9818466 L20.4766509,34.9810746 L20.4772258,24.517218 L16.443874,28.2000444 C15.8107986,28.7781013 14.8407693,28.7759398 14.2102763,28.1950674 C13.6450792,27.6743521 13.6090196,26.7940461 14.1297349,26.228849 C14.1565176,26.1997783 14.1845269,26.1718621 14.2136865,26.1451763 L20.9766534,19.9559381 C21.5543066,19.4272895 22.441412,19.431919 23.0135162,19.9665678 L29.6326451,26.1523462 C30.1994052,26.6820009 30.2294852,27.5708208 29.6998304,28.137581 C29.6814159,28.1572856 29.6624377,28.1764556 29.6429194,28.1950674 C29.0374391,28.7724261 28.087583,28.7800846 27.4728718,28.2125641 L23.4702484,24.517218 L23.4696509,34.9810746 L30.2293129,34.9818466 C31.8836923,34.9818466 33.5293174,34.741785 35.1147516,34.2691653 C36.6426204,33.8137058 37.9199384,32.7571496 38.6537994,31.3417788 L39.0228528,30.6299991 C39.8446095,29.0451075 40.1231398,27.2342044 39.8156339,25.4756238 L39.6150027,24.3282436 C39.4377291,23.3144421 38.9295106,22.3879592 38.1698059,21.6936479 L38.0718204,21.6040968 C37.3655755,20.9586438 36.5193816,20.485608 35.5996235,20.2220999 C34.6693533,19.95558 33.7163695,19.7759116 32.7529154,19.685403 L31.9688882,19.6117501 L31.9267452,19.2165635 C31.8265839,18.2773237 31.6055428,17.3549519 31.2691064,16.4723342 C30.9424402,15.6153479 30.3154483,14.9062906 29.5048839,14.4771967 L29.4064545,14.4250905 C28.5160571,13.9537349 27.5238832,13.7073171 26.5164192,13.7073171 L26.514334,13.7073171 C25.5065797,13.7073171 24.5152124,13.9623284 23.632544,14.4486052 L23.1243531,14.7285762 L21.8473261,13.100105 C21.1302938,12.185742 20.2699138,11.3935359 19.2995988,10.7542521 C18.3480708,10.1273459 17.2204368,9.82243099 16.0826409,9.88437917 Z" id="ic_a_sdwan_p2_08" fill="#FF874D"></path>
    </g>
</svg>