<?xml version="1.0" encoding="UTF-8"?>
<svg width="80px" height="80px" viewBox="0 0 80 80" version="1.1" xmlns="http://www.w3.org/2000/svg" xmlns:xlink="http://www.w3.org/1999/xlink">
    <!-- Generator: Sketch 59.1 (86144) - https://sketch.com -->
    <title>ic/cat_g/ic_cat_g_04</title>
    <desc>Created with Sketch.</desc>
    <g id="ic/cat_g/ic_cat_g_04" stroke="none" stroke-width="1" fill="none" fill-rule="evenodd">
        <path d="M70.9723733,21.5408457 L60.4325328,32.0808795 L51.2126503,28.7872112 L47.9191874,19.567555 L58.4592388,9.02752118 C51.5439578,6.71406612 43.6088148,8.30627995 38.1022764,13.81302 C32.6973868,19.2179006 31.0642577,26.9617538 33.1925555,33.7850755 C32.9059566,34.010727 32.628215,34.2536714 32.3637594,34.5181265 L10.7169962,56.1646426 C7.0943346,59.7870872 7.0943346,65.6603528 10.7169962,69.2830084 C14.3396578,72.9056639 20.2131441,72.9056639 23.8358057,69.2830084 L45.4825689,47.6362814 C45.7470245,47.3718263 45.9895475,47.094296 46.2154103,46.8076975 C53.0387433,48.9359918 60.7823986,47.3026546 66.1872883,41.897774 C71.6936158,36.3910339 73.2860432,28.4563259 70.9723733,21.5408457 Z" id="Path" fill="#39BFB0"></path>
    </g>
</svg>