<?xml version="1.0" encoding="UTF-8"?>
<svg width="80px" height="80px" viewBox="0 0 80 80" version="1.1" xmlns="http://www.w3.org/2000/svg" xmlns:xlink="http://www.w3.org/1999/xlink">
    <!-- Generator: Sketch 59.1 (86144) - https://sketch.com -->
    <title>ic/cat_g/ic_cat_g_03</title>
    <desc>Created with Sketch.</desc>
    <g id="ic/cat_g/ic_cat_g_03" stroke="none" stroke-width="1" fill="none" fill-rule="evenodd">
        <path d="M49.1710978,68.4139918 L49.1710978,70.6345679 C49.1710978,72.4016461 47.8719983,73.8716049 46.1816038,74.1218107 L45.6337907,76.1390947 C45.3364065,77.2337449 44.3503431,78 43.2077616,78 L37.7765866,78 C36.6340051,78 35.6479417,77.2337449 35.3505575,76.1390947 L34.8183962,74.1218107 C33.1123499,73.8559671 31.8132504,72.4016461 31.8132504,70.61893 L31.8132504,68.3983539 C31.8132504,67.2098765 32.7680103,66.2559671 33.9575472,66.2559671 L47.026801,66.2559671 C48.2163379,66.2716049 49.1710978,67.2255144 49.1710978,68.4139918 Z M59.2352058,38.4831276 C59.2352058,43.5341564 57.2317753,48.1160494 53.9762007,51.4781893 C51.5032161,54.0427984 49.9067324,57.3111111 49.3745712,60.7983539 C49.1397942,62.2995885 47.8406947,63.4098765 46.3068182,63.4098765 L34.67753,63.4098765 C33.1593053,63.4098765 31.844554,62.3152263 31.6254288,60.8139918 C31.0776158,57.326749 29.4654803,54.0115226 26.9924957,51.4625514 C23.7995283,48.1473251 21.8117496,43.6436214 21.7647942,38.6864198 C21.6552316,28.2716049 29.9506861,19.8427984 40.3747856,19.7646091 C50.7832333,19.6864198 59.2352058,28.0995885 59.2352058,38.4831276 Z M42.6129931,27.145679 C42.6129931,25.9884774 41.6738851,25.0345679 40.5,25.0345679 C33.0497427,25.0345679 26.9768439,31.0864198 26.9768439,38.545679 C26.9768439,39.7028807 27.915952,40.6567901 29.089837,40.6567901 C30.2480703,40.6567901 31.2028302,39.7185185 31.2028302,38.545679 C31.2028302,33.4164609 35.3818611,29.2567901 40.5,29.2567901 C41.6738851,29.2567901 42.6129931,28.3185185 42.6129931,27.145679 Z M40.5,13.61893 C41.6582333,13.61893 42.6129931,12.6806584 42.6129931,11.5078189 L42.6129931,4.11111111 C42.6129931,2.95390947 41.6738851,2 40.5,2 C39.3261149,2 38.3870069,2.9382716 38.3870069,4.11111111 L38.3870069,11.5078189 C38.3870069,12.6806584 39.3417667,13.61893 40.5,13.61893 Z M15.6292882,38.4674897 C15.6292882,37.3102881 14.6901801,36.3563786 13.516295,36.3563786 L6.11299314,36.3563786 C4.95475986,36.3563786 4,37.2946502 4,38.4674897 C4,39.6246914 4.93910806,40.5786008 6.11299314,40.5786008 L13.516295,40.5786008 C14.6901801,40.5786008 15.6292882,39.6403292 15.6292882,38.4674897 Z M74.8870069,36.3563786 L67.483705,36.3563786 C66.3254717,36.3563786 65.3707118,37.2946502 65.3707118,38.4674897 C65.3707118,39.6246914 66.3098199,40.5786008 67.483705,40.5786008 L74.8870069,40.5786008 C76.0452401,40.5786008 77,39.6403292 77,38.4674897 C77,37.3102881 76.0608919,36.3563786 74.8870069,36.3563786 Z M19.9335334,56.0444444 L14.6901801,61.2831276 C13.8606346,62.1119342 13.8606346,63.4411523 14.6901801,64.2699588 C15.0971269,64.6765432 15.64494,64.8798354 16.1771012,64.8798354 C16.7092624,64.8798354 17.2570755,64.6765432 17.6640223,64.2699588 L22.9073756,59.0312757 C23.7369211,58.2024691 23.7369211,56.873251 22.9073756,56.0444444 C22.093482,55.2156379 20.7474271,55.2156379 19.9335334,56.0444444 Z M59.5795455,21.5160494 C60.1117067,21.5160494 60.6595197,21.3127572 61.0664666,20.9061728 L66.3098199,15.6674897 C67.1393654,14.8386831 67.1393654,13.509465 66.3098199,12.6806584 C65.4802744,11.8518519 64.1498714,11.8518519 63.3203259,12.6806584 L58.0769726,17.9193416 C57.2474271,18.7481481 57.2474271,20.0773663 58.0769726,20.9061728 C58.4995712,21.3127572 59.0317324,21.5160494 59.5795455,21.5160494 Z M19.9335334,20.890535 C20.3404803,21.2971193 20.8882933,21.5004115 21.4204545,21.5004115 C21.9526158,21.5004115 22.5004288,21.2971193 22.9073756,20.890535 C23.7369211,20.0617284 23.7369211,18.7325103 22.9073756,17.9037037 L17.6640223,12.6650206 C16.8344768,11.836214 15.5040738,11.836214 14.6745283,12.6650206 C13.8449828,13.4938272 13.8449828,14.8230453 14.6745283,15.6518519 L19.9335334,20.890535 Z M61.0664666,56.0444444 C60.2369211,55.2156379 58.906518,55.2156379 58.0769726,56.0444444 C57.2474271,56.873251 57.2474271,58.2024691 58.0769726,59.0312757 L63.3203259,64.2699588 C63.7272727,64.6765432 64.2750858,64.8798354 64.807247,64.8798354 C65.3394082,64.8798354 65.8872213,64.6765432 66.2941681,64.2699588 C67.1237136,63.4411523 67.1237136,62.1119342 66.2941681,61.2831276 L61.0664666,56.0444444 Z" id="XMLID_49_" fill="#FF874D"></path>
    </g>
</svg>