<?xml version="1.0" encoding="UTF-8"?>
<svg width="80px" height="80px" viewBox="0 0 80 80" version="1.1" xmlns="http://www.w3.org/2000/svg" xmlns:xlink="http://www.w3.org/1999/xlink">
    <!-- Generator: Sketch 59.1 (86144) - https://sketch.com -->
    <title>ic/cat_f/ic_cat_f_06</title>
    <desc>Created with Sketch.</desc>
    <g id="ic/cat_f/ic_cat_f_06" stroke="none" stroke-width="1" fill="none" fill-rule="evenodd">
        <path d="M48.8695107,64.9987565 C52.2559598,64.9987565 55,62.2307195 55,58.8173046 L55,21.1814519 C55,17.768037 52.2559598,15 48.8695107,15 L32.1292346,15 C28.7427854,15 26,17.768037 26,21.1814519 L26,58.8185481 C26,62.231963 28.7427854,65 32.1292346,65 L48.8695107,64.9987565 L48.8695107,64.9987565 Z M40.5018821,61.7308314 C38.8519448,61.7308314 37.5156838,60.4077445 37.5156838,58.7750255 C37.5156838,57.1423064 38.8519448,55.8204631 40.5018821,55.8204631 C42.1480552,55.8204631 43.4830615,57.1423064 43.4830615,58.7750255 C43.4830615,60.4077445 42.1480552,61.7308314 40.5018821,61.7308314 Z M29.7791719,50.8564003 L29.7791719,24.3548708 C29.7791719,22.9808003 30.902133,21.8678654 32.2885822,21.8678654 L48.7114178,21.8678654 C50.097867,21.8678654 51.2208281,22.9808003 51.2208281,24.3536273 C51.2208281,30.2391256 51.2208281,44.968415 51.2208281,50.8551568 C51.2208281,52.2292273 50.097867,53.3421632 48.7114178,53.3421632 L32.2885822,53.3421632 C30.902133,53.3434057 29.7791719,52.2304708 29.7791719,50.8564003 Z" id="Shape" fill="#209CFF"></path>
    </g>
</svg>