<?xml version="1.0" encoding="UTF-8"?>
<svg width="80px" height="80px" viewBox="0 0 80 80" version="1.1" xmlns="http://www.w3.org/2000/svg" xmlns:xlink="http://www.w3.org/1999/xlink">
    <!-- Generator: Sketch 63.1 (92452) - https://sketch.com -->
    <title>ic/cat_g/ic_cat_g_03</title>
    <desc>Created with Sketch.</desc>
    <g id="ic/cat_g/ic_cat_g_03" stroke="none" stroke-width="1" fill="none" fill-rule="evenodd">
        <path d="M27.8317871,50.7791442 C29.482666,52.0074769 30.5664062,53.9563141 30.5664062,56.171875 L30.5664062,56.171875 L30.5664062,60.24 C30.5664062,61.7643059 29.3307122,63 27.8064063,63 L27.8064063,63 L19.76,63 C18.2356941,63 17,61.7643059 17,60.24 L17,60.24 L17,56.171875 C17,53.9563141 18.173584,52.0074769 19.8244629,50.7791442 C20.9471588,51.6158142 22.3235931,52.1289063 23.828125,52.1289063 C25.3326569,52.1289063 26.7090912,51.6158142 27.8317871,50.7791442 Z M44.0036621,50.7791442 C45.654541,52.0074769 46.7382812,53.9563141 46.7382812,56.171875 L46.7382812,56.171875 L46.7382812,60.24 C46.7382812,61.7643059 45.5025872,63 43.9782813,63 L43.9782813,63 L36.0217188,63 C34.4974128,63 33.2617188,61.7643059 33.2617188,60.24 L33.2617188,60.24 L33.2617188,56.171875 C33.2617188,53.9563141 34.345459,52.0074769 35.9963379,50.7791442 C37.1190338,51.6158142 38.4954681,52.1289063 40,52.1289063 C41.5045319,52.1289063 42.8809662,51.6158142 44.0036621,50.7791442 Z M60.1755371,50.7791442 C61.826416,52.0074769 63,53.9563141 63,56.171875 L63,56.171875 L63,60.24 C63,61.7643059 61.7643059,63 60.24,63 L60.24,63 L52.1935937,63 C50.6692878,63 49.4335938,61.7643059 49.4335938,60.24 L49.4335938,60.24 L49.4335938,56.171875 C49.4335938,53.9563141 50.517334,52.0074769 52.1682129,50.7791442 C53.2909088,51.6158142 54.6673431,52.1289063 56.171875,52.1289063 C57.6764069,52.1289063 59.0528412,51.6158142 60.1755371,50.7791442 Z M23.828125,41.3476562 C26.0608825,41.3476562 27.8710938,43.1578675 27.8710938,45.390625 C27.8710938,47.6233825 26.0608825,49.4335937 23.828125,49.4335937 C21.5953675,49.4335937 19.7851562,47.6233825 19.7851562,45.390625 C19.7851562,43.1578675 21.5953675,41.3476562 23.828125,41.3476562 Z M40,41.3476562 C42.2327575,41.3476562 44.0429688,43.1578675 44.0429688,45.390625 C44.0429688,47.6233825 42.2327575,49.4335937 40,49.4335937 C37.7672425,49.4335937 35.9570312,47.6233825 35.9570312,45.390625 C35.9570312,43.1578675 37.7672425,41.3476562 40,41.3476562 Z M56.171875,41.3476562 C58.4046325,41.3476562 60.2148438,43.1578675 60.2148438,45.390625 C60.2148438,47.6233825 58.4046325,49.4335937 56.171875,49.4335937 C53.9391175,49.4335937 52.1289062,47.6233825 52.1289062,45.390625 C52.1289062,43.1578675 53.9391175,41.3476562 56.171875,41.3476562 Z M41.3476562,30.6671295 C43.6688538,31.2683105 45.390625,33.3582306 45.390625,35.8671875 L45.390625,35.8671875 L45.390625,38.6523438 L34.609375,38.6523438 L34.609375,35.8671875 C34.609375,33.3582306 36.3311462,31.2683105 38.6523438,30.6671295 L38.6523438,30.6671295 L38.6523438,34.5195313 L41.3476562,34.5195313 Z M40,17 C37.0274353,17 34.609375,19.4180603 34.609375,22.390625 C34.609375,25.3631897 37.0274353,27.78125 40,27.78125 C35.5341339,27.78125 31.9140625,31.4013214 31.9140625,35.8671875 L31.9140625,35.8671875 L31.9140625,38.6523437 L29.2636719,38.6523437 C23.2845422,38.6523437 18.4375,33.8053015 18.4375,27.8261719 C18.4375,21.8470422 23.2845422,17 29.2636719,17 L29.2636719,17 Z M50.7363281,17 C56.7154578,17 61.5625,21.8470422 61.5625,27.8261719 C61.5625,33.8053015 56.7154578,38.6523437 50.7363281,38.6523437 L50.7363281,38.6523437 L48.0859375,38.6523437 L48.0859375,35.8671875 C48.0859375,31.4013214 44.4658661,27.78125 40,27.78125 C42.9725647,27.78125 45.390625,25.3631897 45.390625,22.390625 C45.390625,19.4180603 42.9725647,17 40,17 L40,17 Z M40,19.6953125 C41.4859314,19.6953125 42.6953125,20.9046936 42.6953125,22.390625 C42.6953125,23.8765564 41.4859314,25.0859375 40,25.0859375 C38.5140686,25.0859375 37.3046875,23.8765564 37.3046875,22.390625 C37.3046875,20.9046936 38.5140686,19.6953125 40,19.6953125 Z" id="Combined-Shape" fill="#209CFF"></path>
    </g>
</svg>