<?xml version="1.0" encoding="UTF-8"?>
<svg width="80px" height="80px" viewBox="0 0 80 80" version="1.1" xmlns="http://www.w3.org/2000/svg" xmlns:xlink="http://www.w3.org/1999/xlink">
    <!-- Generator: Sketch 59.1 (86144) - https://sketch.com -->
    <title>ic/cat_d/ic_cat_d_11</title>
    <desc>Created with Sketch.</desc>
    <g id="ic/cat_d/ic_cat_d_11" stroke="none" stroke-width="1" fill="none" fill-rule="evenodd">
        <path d="M63.7756601,19.2430734 C62.959768,18.4146356 61.9793294,18 60.8330672,18 L19.1666591,18 C18.0208529,18 17.0402318,18.4146356 16.2237925,19.2430734 C15.4078092,20.071789 15,21.0673961 15,22.2309135 L15,51.0000695 C15,52.1638647 15.4078092,53.1593792 16.2237925,53.98828 C17.0402318,54.8167178 18.0208529,55.2306125 19.1666591,55.2306125 L33.333537,55.2306125 C33.333537,55.9003088 33.1945298,56.5884354 32.9166978,57.2930474 C32.6390482,57.9982151 32.3612162,58.6149358 32.0833842,59.14358 C31.8059171,59.6728725 31.6670011,60.0601869 31.6670011,60.3068196 C31.6670011,60.7650767 31.8318213,61.1625786 32.1617354,61.4966396 C32.4914671,61.8319971 32.8821284,62 33.333537,62 L46.6668277,62 C47.1182363,62 47.5089889,61.8320897 47.8387205,61.4966396 C48.1689083,61.1626713 48.3337285,60.7651693 48.3337285,60.3068196 C48.3337285,60.0782467 48.1945389,59.6945444 47.9167981,59.1570091 C47.6389661,58.6197518 47.3611341,57.9932139 47.0836669,57.2799887 C46.8058349,56.56593 46.6669189,55.8828972 46.6669189,55.2306125 L60.8337969,55.2306125 C61.9794206,55.2306125 62.9598593,54.8167178 63.7757513,53.98828 C64.5920082,53.1594718 65,52.1639573 65,51.0000695 L65,22.2309135 C65,21.0673961 64.591917,20.071789 63.7756601,19.2430734 Z M61.6665632,44.2307746 C61.6665632,44.4599957 61.5841987,44.6580058 61.4192872,44.8257309 C61.2541933,44.9928076 61.0588171,45.0764386 60.8330672,45.0764386 L19.1666591,45.0764386 C18.9410916,45.0764386 18.7457153,44.9928076 18.5808039,44.8257309 C18.4159836,44.6574501 18.3334367,44.4599957 18.3334367,44.2307746 L18.3334367,22.2309135 C18.3334367,22.0016923 18.41571,21.803497 18.5808039,21.6360498 C18.7458065,21.4688804 18.9411828,21.384879 19.1666591,21.384879 L60.8337057,21.384879 C61.0590907,21.384879 61.2548318,21.4686026 61.4192872,21.6360498 C61.5841987,21.8035897 61.6665632,22.0017849 61.6665632,22.2309135 L61.6665632,44.2307746 L61.6665632,44.2307746 Z" id="Shape" fill="#209CFF"></path>
    </g>
</svg>