<?xml version="1.0" encoding="UTF-8"?>
<svg width="44px" height="44px" viewBox="0 0 44 44" version="1.1" xmlns="http://www.w3.org/2000/svg" xmlns:xlink="http://www.w3.org/1999/xlink">
    <!-- Generator: Sketch 58 (84663) - https://sketch.com -->
    <title>ic_a/noc/ic_a_noc_p3_06</title>
    <desc>Created with Sketch.</desc>
    <g id="ic_a/noc/ic_a_noc_p3_06" stroke="none" stroke-width="1" fill="none" fill-rule="evenodd">
        <path d="M28.8926367,2 C29.1078519,2 29.3061906,2.07259129 29.464319,2.19467088 L29.554184,2.27367241 L29.5550436,2.27429741 L36.7257132,9.44353016 C36.9023915,9.62024926 36.99538,9.85571847 36.9980368,10.0960314 L36.9991356,10.1008459 L37,10.105719 L37,40.0283555 C37,41.066202 36.1939437,41.9191829 35.1748929,41.9945823 L35.0279293,42 L8.97206111,42 C7.93399531,42 7.08083416,41.1941227 7.00541882,40.175288 L7,40.0283555 L7,3.97164448 C7,2.93379799 7.80604754,2.08081708 8.82516554,2.00541767 L8.97213925,2 L28.8926367,2 Z M27.9558745,3.87312866 L8.97213925,3.87312866 C8.93140791,3.87312866 8.89634672,3.89800175 8.88136184,3.93334484 L8.87360262,3.97164448 L8.87360262,40.0284336 C8.87360262,40.0691564 8.89848097,40.1042102 8.93383152,40.1191919 L8.97213925,40.1269495 L35.0280074,40.1269495 C35.0687388,40.1269495 35.1038439,40.1020764 35.1188508,40.0667333 L35.1266222,40.0284336 L35.1266222,11.0423614 L29.9280919,11.0423614 C28.8900261,11.0423614 28.0367225,10.2363418 27.9612942,9.21749411 L27.9558745,9.07056068 L27.9558745,3.87312866 Z M22.0000733,31.768105 C22.5173711,31.768105 22.9368356,32.1874027 22.9368356,32.7046693 C22.9368356,33.221936 22.5173711,33.6412337 22.0000733,33.6412337 L22.0000733,33.6412337 L13.7101808,33.6412337 C13.192883,33.6412337 12.7734185,33.221936 12.7734185,32.7046693 C12.7734185,32.1874808 13.192883,31.768105 13.7101808,31.768105 L13.7101808,31.768105 Z M13.7101808,26.1165315 L30.2899659,26.1165315 C30.8071856,26.1165315 31.22665,26.5359854 31.22665,27.0530958 C31.22665,27.5334148 30.8649689,27.9292606 30.3991226,27.9833594 L30.2898878,27.9896601 L13.7101808,27.9896601 C13.192883,27.9896601 12.7734185,27.5703624 12.7734185,27.0530958 C12.7734185,26.5728493 13.1350996,26.1769414 13.6009459,26.1228333 L13.7101808,26.1165315 L30.2899659,26.1165315 Z M30.2899659,20.4651142 C30.8071856,20.4651142 31.22665,20.88449 31.22665,21.4016785 C31.22665,21.881925 30.8649689,22.277833 30.3991226,22.331941 L30.2898878,22.3382428 L13.7101808,22.3382428 C13.192883,22.3382428 12.7734185,21.918867 12.7734185,21.4016785 C12.7734185,20.921432 13.1350996,20.5255241 13.6009459,20.471416 L13.7101808,20.4651142 L30.2899659,20.4651142 Z M30.2899659,14.8136188 C30.8071856,14.8136188 31.22665,15.2329165 31.22665,15.7501831 C31.22665,16.2304296 30.8649689,16.6263376 30.3991226,16.6804456 L30.2898878,16.6867474 L13.7101808,16.6867474 C13.192883,16.6867474 12.7734185,16.2673716 12.7734185,15.7501831 C12.7734185,15.2698641 13.1350996,14.8740183 13.6009459,14.8199195 L13.7101808,14.8136188 L30.2899659,14.8136188 Z M29.829399,5.19774062 L29.829399,9.07056068 C29.829399,9.11128342 29.8543213,9.14638115 29.8896938,9.16138484 L29.9280137,9.16915463 L33.8016522,9.16915463 L29.829399,5.19774062 Z" id="Combined-Shape" fill="#209CFF"></path>
    </g>
</svg>