<?xml version="1.0" encoding="UTF-8"?>
<svg width="44px" height="44px" viewBox="0 0 44 44" version="1.1" xmlns="http://www.w3.org/2000/svg" xmlns:xlink="http://www.w3.org/1999/xlink">
    <!-- Generator: Sketch 57.1 (83088) - https://sketch.com -->
    <title>ic_a/uc/ic_a_uc_p2_14</title>
    <desc>Created with Sketch.</desc>
    <g id="ic_a/uc/ic_a_uc_p2_14" stroke="none" stroke-width="1" fill="none" fill-rule="evenodd">
        <path d="M36.4351196,4 C38.8115234,4 40.744812,5.93474088 40.744812,8.31255455 L40.744812,8.31255455 L40.744812,31.6311289 L40.828125,31.6311289 C41.4754028,31.6311289 42,32.1560374 42,32.8036992 C42,36.2203367 39.2219848,39 35.807373,39 L35.807373,39 L8.19293211,39 C4.77801516,39 2,36.2203367 2,32.8036992 C2,32.1560374 2.52459719,31.6311289 3.171875,31.6311289 L3.171875,31.6311289 L3.25518797,31.6311289 L3.25518797,8.31255455 C3.25518797,5.93474088 5.18847656,4 7.56518555,4 L7.56518555,4 Z M39.4737548,33.9759641 L4.52624516,33.9759641 C5.02307125,35.5280928 6.47875977,36.6548595 8.19293211,36.6548595 L8.19293211,36.6548595 L35.807373,36.6548595 C37.5212402,36.6548595 38.9769287,35.5280928 39.4737548,33.9759641 L39.4737548,33.9759641 Z M36.4348145,6.34514046 L7.56518555,6.34514046 C6.48089602,6.34514046 5.59893797,7.22792708 5.59893797,8.31255455 L5.59893797,8.31255455 L5.59893797,31.6311289 L38.401062,31.6311289 L38.401062,8.31255455 C38.401062,7.22792708 37.519104,6.34514046 36.4348145,6.34514046 L36.4348145,6.34514046 Z M27.6484985,11.5359013 C30.0249023,11.5359013 31.9584961,13.4703368 31.9584961,15.8481504 L31.9584961,15.8481504 L31.9584961,22.128119 C31.9584961,24.5059326 30.0249023,26.4403682 27.6484985,26.4403682 L27.6484985,26.4403682 L16.3515015,26.4403682 C13.9750977,26.4403682 12.0415039,24.5059326 12.0415039,22.128119 L12.0415039,22.128119 L12.0415039,15.8481504 C12.0415039,13.4703368 13.9750977,11.5359013 16.3515015,11.5359013 L16.3515015,11.5359013 Z M29.6147461,18.9047723 L14.3852539,18.9047723 L14.3852539,22.128119 C14.3852539,23.2127465 15.2672119,24.0952277 16.3515015,24.0952277 L16.3515015,24.0952277 L27.6484985,24.0952277 C28.7324829,24.0952277 29.6147461,23.2127465 29.6147461,22.128119 L29.6147461,22.128119 L29.6147461,18.9047723 Z M27.6484985,13.8810417 L16.3515015,13.8810417 C15.2672119,13.8810417 14.3852539,14.7635229 14.3852539,15.8481504 L14.3852539,15.8481504 L14.3852539,16.5596318 L29.6147461,16.5596318 L29.6147461,15.8481504 C29.6147461,14.7635229 28.7324829,13.8810417 27.6484985,13.8810417 L27.6484985,13.8810417 Z" id="ic_a/uc/p2_14" fill="#39BFB0"></path>
    </g>
</svg>