<?xml version="1.0" encoding="UTF-8"?>
<svg width="44px" height="44px" viewBox="0 0 44 44" version="1.1" xmlns="http://www.w3.org/2000/svg" xmlns:xlink="http://www.w3.org/1999/xlink">
    <!-- Generator: Sketch 59.1 (86144) - https://sketch.com -->
    <title>ic_a/uc/ic_a_uc_p1_05</title>
    <desc>Created with Sketch.</desc>
    <g id="ic_a/uc/ic_a_uc_p1_05" stroke="none" stroke-width="1" fill="none" fill-rule="evenodd">
        <path d="M21.0147346,3 C23.0234035,3 24.6918076,4.48564308 24.9787198,6.41598575 L24.9787198,6.41598575 L28.6515359,9.03934476 C28.9378805,9.24395767 29.1078709,9.57400599 29.1078709,9.92619001 C29.1078709,10.2780902 28.9378805,10.6081384 28.6515359,10.8127513 L28.6515359,10.8127513 L25.0224235,13.4048934 L25.0224235,18.1742759 L36.1892944,18.1742759 C38.3991706,18.1742759 40.1969832,19.9720885 40.1969832,22.1822486 L40.1969832,22.1822486 L40.1969832,36.1890105 C40.1969832,38.3988868 38.3991706,40.1969832 36.1892944,40.1969832 L36.1892944,40.1969832 L22.1822486,40.1969832 C20.1735797,40.1969832 18.5051756,38.7113401 18.2182634,36.7809974 L18.2182634,36.7809974 L14.5454473,34.1576384 C14.2591027,33.9533093 14.0891122,33.6229772 14.0891122,33.271077 C14.0891122,32.9191769 14.2591027,32.5888448 14.5454473,32.3842319 L14.5454473,32.3842319 L18.1745597,29.7920898 L18.1745597,25.0227073 L7.00797269,25.0227073 C4.79781258,25.0227073 3,23.2248947 3,21.0150184 L3,21.0150184 L3,7.00797269 C3,4.79781258 4.79781258,3 7.00797269,3 L7.00797269,3 Z M36.1892944,20.3537867 L22.1822486,20.3537867 C21.1742248,20.3537867 20.3540704,21.1739411 20.3540704,22.1822486 L20.3540704,22.1822486 L20.3540704,30.3528597 C20.3540704,30.7047599 20.1840799,31.035092 19.8977354,31.2397049 L19.8977354,31.2397049 L17.0538711,33.271077 L19.8977354,35.3024491 C20.1840799,35.5067782 20.3540704,35.8371103 20.3540704,36.1890105 C20.3540704,37.1973181 21.1742248,38.0174725 22.1822486,38.0174725 L22.1822486,38.0174725 L36.1892944,38.0174725 C37.1973181,38.0174725 38.0174725,37.1973181 38.0174725,36.1890105 L38.0174725,36.1890105 L38.0174725,22.1822486 C38.0174725,21.1739411 37.1973181,20.3537867 36.1892944,20.3537867 L36.1892944,20.3537867 Z M29.1799538,24.8839337 C29.6235183,24.8839337 30.0554473,25.0476808 30.1604497,25.3978783 L30.1604497,25.3978783 L32.4134622,32.7401051 C32.4250977,32.7866467 32.4367331,32.8218367 32.4367331,32.856743 C32.4367331,33.2188596 31.8881661,33.4870416 31.4795078,33.4870416 C31.2226775,33.4870416 31.024308,33.4055937 30.9661309,33.1836696 L30.9661309,33.1836696 L30.5222826,31.6310519 L27.8489765,31.6310519 L27.4056958,33.1836696 C27.3472349,33.4055937 27.1488655,33.4870416 26.892035,33.4870416 C26.4833768,33.4870416 25.9348098,33.230495 25.9348098,32.856743 C25.9348098,32.8334721 25.9464452,32.7869305 25.9580806,32.7401051 L25.9580806,32.7401051 L28.2110931,25.3978783 C28.3160956,25.0476808 28.7480246,24.8839337 29.1799538,24.8839337 Z M29.1796699,26.856845 L28.1642677,30.4402672 L30.1956398,30.4402672 L29.1796699,26.856845 Z M21.0147346,5.17951073 L7.00797269,5.17951073 C5.99966513,5.17951073 5.17951073,5.99966513 5.17951073,7.00768884 L5.17951073,7.00768884 L5.17951073,21.0147346 C5.17951073,22.0230421 5.99966513,22.8431965 7.00797269,22.8431965 L7.00797269,22.8431965 L18.1745597,22.8431965 L18.1745597,22.1819648 C18.1745597,19.9720885 19.9723723,18.1742759 22.1822486,18.1742759 L22.1822486,18.1742759 L22.8429127,18.1742759 L22.8429127,12.8441235 C22.8429127,12.4922233 23.0129032,12.1618912 23.2992478,11.9572783 L23.2992478,11.9572783 L26.1431121,9.92590616 L23.2992478,7.89453408 C23.0129032,7.69020495 22.8429127,7.35987286 22.8429127,7.00768884 C22.8429127,5.99966513 22.0227584,5.17951073 21.0147346,5.17951073 L21.0147346,5.17951073 Z M14.0110699,9.70965787 C14.3504832,9.70965787 14.62576,9.98493458 14.62576,10.324348 L14.62576,10.324348 L14.62576,11.8165182 L17.3595135,11.8165182 C17.6986431,11.8165182 17.9739198,12.091795 17.9739198,12.4312083 C17.9739198,12.7706217 17.6986431,13.0458985 17.3595135,13.0458985 L17.3595135,13.0458985 L16.512399,13.0458985 C16.3770309,14.3436723 15.8173961,15.5165782 14.9756736,16.4249915 C15.6735143,16.8432986 16.4885605,17.083953 17.3595135,17.083953 C17.6986431,17.083953 17.9739198,17.3589459 17.9739198,17.6983593 C17.9739198,18.0377727 17.6986431,18.3130495 17.3595135,18.3130495 C16.1159437,18.3130495 14.9623355,17.9242565 14.0110699,17.2630248 C13.060088,17.9242565 11.9064798,18.3130495 10.66291,18.3130495 C10.3237804,18.3130495 10.0485036,18.0377727 10.0485036,17.6983593 C10.0485036,17.3589459 10.3237804,17.083953 10.66291,17.083953 C11.5338629,17.083953 12.3489091,16.842731 13.0467498,16.4249915 C12.2050274,15.5165782 11.6453926,14.3436723 11.5100245,13.0458985 L11.5100245,13.0458985 L10.66291,13.0458985 C10.3237804,13.0458985 10.0485036,12.7706217 10.0485036,12.4312083 C10.0485036,12.091795 10.3237804,11.8165182 10.66291,11.8165182 L10.66291,11.8165182 L13.3966635,11.8165182 L13.3966635,10.324348 C13.3966635,9.98493458 13.6719402,9.70965787 14.0110699,9.70965787 Z M15.2739374,13.0458985 L12.7484861,13.0458985 C12.8821514,14.0530708 13.3387703,14.9592138 14.0110699,15.6570545 C14.6836532,14.9592138 15.1402721,14.0530708 15.2739374,13.0458985 L15.2739374,13.0458985 Z" id="Combined-Shape" fill="#209CFF"></path>
    </g>
</svg>