<?xml version="1.0" encoding="UTF-8"?>
<svg width="44px" height="44px" viewBox="0 0 44 44" version="1.1" xmlns="http://www.w3.org/2000/svg" xmlns:xlink="http://www.w3.org/1999/xlink">
    <!-- Generator: Sketch 58 (84663) - https://sketch.com -->
    <title>ic_a/vpn/ic_a_vpn_p2_02</title>
    <desc>Created with Sketch.</desc>
    <g id="ic_a/vpn/ic_a_vpn_p2_02" stroke="none" stroke-width="1" fill="none" fill-rule="evenodd">
        <path d="M10.2536693,5.1979911 C11.2335532,5.1979911 12.165246,5.60701942 12.944334,6.3769551 C13.4664032,6.8581649 13.9724088,7.37145535 14.4543189,7.86870547 L14.8247873,8.25267079 L14.8247873,8.25267079 L15.2012796,8.63062098 L17.3939705,10.8201256 C19.0806558,12.5043598 19.0806558,14.6858443 17.3939705,16.3700786 C17.1690791,16.5946431 16.9441877,16.8272279 16.7192963,17.0517924 C16.1249406,17.6533047 15.5145211,18.2788774 14.8559107,18.8803897 C15.3458526,19.9631117 16.0205267,21.0297934 17.0245061,22.2969792 C19.0967194,24.839371 21.257283,26.804311 23.6347061,28.3121017 C23.8676293,28.4564646 24.1407117,28.5928074 24.4298577,28.7371703 L24.7360715,28.894566 L24.7360715,28.894566 L25.048309,29.0579769 L27.5863688,26.5316254 C28.3975841,25.7215889 29.3453407,25.2965203 30.3332563,25.2965203 C31.2580647,25.2965203 32.1343953,25.6699489 32.8786484,26.3718564 L33.0480165,26.5396456 L37.4574938,30.9587556 C38.2687091,31.7607719 38.6943964,32.7151713 38.6943964,33.7096716 C38.6943964,34.6961517 38.276741,35.6585713 37.4815893,36.4846481 C37.1362204,36.8455554 36.7828197,37.1904224 36.4374508,37.5192491 C36.0326463,37.9106331 35.643263,38.2814855 35.2898622,38.6728694 L35.0318797,38.9708987 L34.9997524,39.0109995 C33.7789135,40.3343264 32.2207375,41 30.3653837,41 C30.204747,41 30.0280466,40.9919798 29.8593781,40.9839597 C27.1044587,40.8075161 24.6386855,39.772915 22.7913634,38.8987172 C17.9561989,36.5648497 13.7234219,33.2525223 10.2054783,29.0579769 C7.30598593,25.577226 5.36228191,22.3290599 4.06112467,18.8242485 C3.53102357,17.3966595 2.84028578,15.215175 3.03304981,12.8732874 C3.15299188,11.5184144 3.67174132,10.3382029 4.57623777,9.35221468 L4.77595797,9.14391143 L7.5067818,6.39299543 L7.52284547,6.3769551 C8.32602895,5.60701942 9.27378546,5.1979911 10.2536693,5.1979911 Z M10.269733,7.36343518 C9.91131235,7.36343518 9.54674235,7.51694612 9.19754578,7.80247647 L9.04889409,7.93286678 L6.31003842,10.6677425 C5.64339613,11.333416 5.28196356,12.1113718 5.20164521,13.049731 C5.08116769,14.5174208 5.35425007,16.0733325 6.10121071,18.0703532 C7.31401777,21.3425798 9.1452761,24.3902418 11.8841318,27.6865289 C15.2012796,31.6404694 19.1931015,34.760313 23.73912,36.9578377 C25.4017098,37.7518339 27.6184962,38.6821728 30.0039511,38.8345559 C30.1244286,38.8425761 30.252938,38.8425761 30.3734155,38.8425761 C31.6263817,38.8425761 32.5821701,38.4335477 33.3933854,37.5673701 C33.8913592,36.9818982 34.4214603,36.4605876 34.9435295,35.9633375 C35.1737754,35.7387729 35.3933123,35.5284664 35.6068996,35.3134072 L35.921,34.986 C35.9173895,34.9875509 35.9176126,34.9871054 35.9180588,34.9866598 C36.7014304,34.1773362 36.740599,33.3768593 36.0332691,32.5974536 L35.9153815,32.4745664 L31.4898405,28.0554565 L31.4737769,28.0394161 C31.22479,27.7667306 30.8151664,27.4539442 30.3171927,27.4539442 C29.8674099,27.4539442 29.4747424,27.7137579 29.2012414,27.96301 L29.1043856,28.0554565 L26.3574981,30.7983523 C26.2209569,30.9346951 25.8033015,31.3517436 25.1366592,31.3517436 C24.9246188,31.3517436 24.7177187,31.3106803 24.5036221,31.2244475 L24.3415076,31.1512395 L24.2451255,31.0950983 C24.0122023,30.9507354 23.73912,30.8143926 23.4499739,30.6700297 C23.1287005,30.5096264 22.7913634,30.341203 22.4620582,30.1326787 C20.0449779,28.6063414 17.8396745,26.6429679 15.7468776,24.1566487 L15.3297889,23.6523868 L15.3217571,23.6443667 C14.1948289,22.2155437 13.4237727,20.998567 12.8632918,19.7348054 L12.7274744,19.4177406 L12.7033789,19.3455591 C12.5588059,18.8884098 12.4302965,18.2147161 13.1210343,17.5249821 C13.1290662,17.5089417 13.1451298,17.5009216 13.1611935,17.4848812 C13.8599631,16.8593085 14.5025099,16.2176955 15.177184,15.5279614 C15.4101073,15.3033968 15.6349986,15.0708121 15.8679218,14.8382274 C16.6767276,14.0305969 16.7171679,13.2808721 15.9892427,12.4790322 L15.8679218,12.3519767 L13.6752309,10.1624722 C13.4182122,9.89780678 13.1611935,9.64116156 12.9122066,9.38451633 C12.5855787,9.04766947 12.2696598,8.72508068 11.9501713,8.41199727 L11.4664764,7.9489071 L11.4423809,7.92484661 C11.1853621,7.66820139 10.7757386,7.36343518 10.269733,7.36343518 Z M23.9158203,9.90582695 C26.461912,10.3389158 28.7831122,11.5419403 30.6224024,13.3785576 C32.4616926,15.215175 33.6664678,17.5330022 34.1001869,20.075394 C34.1965689,20.6688861 33.803009,21.2302975 33.2086532,21.3265395 C33.1443985,21.3345596 33.0881757,21.3425798 33.023921,21.3425798 C32.5018517,21.3425798 32.0440371,20.9736523 31.955687,20.4443215 C31.5942544,18.3430387 30.6063387,16.4342399 29.0802901,14.9104088 C27.5542415,13.3865778 25.6426648,12.3920776 23.5383241,12.0391904 C22.9439683,11.9429484 22.5584402,11.3735168 22.6628541,10.7880449 C22.7672679,10.202573 23.3214645,9.80958499 23.9158203,9.90582695 Z M22.9680638,3.89872465 C23.0724777,3.31325273 23.6266743,2.91224456 24.2129982,3.01650668 C28.405616,3.73030122 32.2207375,5.70326138 35.2567711,8.73488311 C38.2928046,11.7665048 40.268636,15.5760824 40.9834693,19.7626076 C41.0878831,20.3480795 40.6862914,20.909491 40.0999675,20.9977128 C40.0357128,21.0057329 39.9794899,21.0137531 39.9152353,21.0137531 C39.393166,21.0137531 38.9353514,20.6448256 38.8470012,20.1154948 C38.2124863,16.3780987 36.4454826,12.9695293 33.7307225,10.2587141 C31.0159623,7.5559191 27.6024325,5.78346302 23.8595975,5.14987012 C23.2652417,5.04560799 22.8716818,4.49221673 22.9680638,3.89872465 Z" id="Combined-Shape" fill="#47D382"></path>
    </g>
</svg>