<?xml version="1.0" encoding="UTF-8"?>
<svg width="44px" height="44px" viewBox="0 0 44 44" version="1.1" xmlns="http://www.w3.org/2000/svg" xmlns:xlink="http://www.w3.org/1999/xlink">
    <!-- Generator: Sketch 58 (84663) - https://sketch.com -->
    <title>ic_a/vpn/ic_a_vpn_p2_05</title>
    <desc>Created with Sketch.</desc>
    <g id="ic_a/vpn/ic_a_vpn_p2_05" stroke="none" stroke-width="1" fill="none" fill-rule="evenodd">
        <path d="M24.3437064,2 C26.2176011,2 27.7537825,3.47371961 27.8541125,5.32301981 L27.8593245,5.51562147 L27.8593245,16.1406108 L38.4843037,16.1406108 C40.3581985,16.1406108 41.8944529,17.6143304 41.9947878,19.4636306 L42,19.6562323 L42,33.7968431 C42,35.6707396 40.5262818,37.2069224 38.6769833,37.3072525 L38.4843819,37.3124645 L34.8906389,37.3124645 L34.8906389,40.828086 C34.8906389,41.3020699 34.6050926,41.7293351 34.1672028,41.9107412 C33.7738754,42.0737254 33.326063,42.0095934 32.9956498,41.7503529 L32.8900959,41.656757 L28.5458075,37.3124645 L19.6562155,37.3124645 C17.7823207,37.3124645 16.2461394,35.8387449 16.1458094,33.9894447 L16.1405974,33.7968431 L16.1405974,23.1718537 L15.4541925,23.1718537 L11.1099041,27.5161462 C10.7747485,27.851224 10.270687,27.9515364 9.8327972,27.7701304 C9.43471559,27.6052158 9.16253766,27.2371118 9.1163407,26.8154356 L9.10936111,26.6874752 L9.10936111,23.1718537 L5.51561813,23.1718537 C3.64172336,23.1718537 2.10554198,21.6981341 2.005212,19.8488339 L2,19.6562323 L2,5.51562147 C2,3.64172491 3.47371822,2.10554208 5.32301666,2.005212 L5.51561813,2 L24.3437064,2 Z M38.4843037,18.4843584 L19.6562155,18.4843584 C19.0531229,18.4843584 18.5549718,18.9423038 18.4912321,19.5287243 L18.4843428,19.6562323 L18.4843428,33.7968431 C18.4843428,34.3999362 18.9422877,34.8980878 19.5287077,34.9618276 L19.6562155,34.9687169 L29.0311972,34.9687169 C29.2975806,34.9687169 29.5546656,35.0594056 29.7610272,35.2237112 L29.8597893,35.3119197 L32.5468153,37.9989482 L32.5468153,36.1405907 C32.5468153,35.5365496 33.0038756,35.0392196 33.5910033,34.9755935 L33.718688,34.9687169 L38.4843037,34.9687169 C39.0873963,34.9687169 39.5855474,34.5107715 39.6492872,33.924351 L39.6561765,33.7968431 L39.6561765,19.6562323 C39.6561765,19.010061 39.1304744,18.4843584 38.4843037,18.4843584 Z M34.8316546,28.4869265 C35.28931,28.9445823 35.28931,29.6865347 34.8316546,30.1441905 C33.284392,31.6915327 31.224396,32.5436412 29.0311972,32.5436412 C26.8379984,32.5436412 24.7780024,31.6915327 23.2307398,30.1441905 C22.7730844,29.6865347 22.7730844,28.9445823 23.2307398,28.4869265 C23.6883951,28.0292707 24.4303468,28.0292707 24.8880022,28.4869265 C25.9926094,29.5915348 27.4640909,30.1998935 29.0311972,30.1998935 C30.5983035,30.1998935 32.0697069,29.5915348 33.1743922,28.4869265 C33.6320476,28.0292707 34.3740774,28.0292707 34.8316546,28.4869265 Z M24.3437064,21.9999799 C24.9909138,21.9999799 25.5155791,22.5246457 25.5155791,23.1718537 C25.5155791,23.8190618 24.9909138,24.3437276 24.3437064,24.3437276 C23.6964989,24.3437276 23.1718336,23.8190618 23.1718336,23.1718537 C23.1718336,22.5246457 23.6964989,21.9999799 24.3437064,21.9999799 Z M33.718688,21.9999799 C34.3658955,21.9999799 34.8905608,22.5246457 34.8905608,23.1718537 C34.8905608,23.8190618 34.3658955,24.3437276 33.718688,24.3437276 C33.0714806,24.3437276 32.5468153,23.8190618 32.5468153,23.1718537 C32.5468153,22.5246457 33.0714806,21.9999799 33.718688,21.9999799 Z M24.3437064,4.34374765 L5.51561813,4.34374765 C4.91252556,4.34374765 4.41437445,4.80169302 4.35063471,5.38811354 L4.34374542,5.51562147 L4.34374542,19.6562323 C4.34374542,20.2593254 4.80169036,20.757477 5.38811033,20.8212168 L5.51561813,20.8281061 L10.2812338,20.8281061 C10.8852743,20.8281061 11.3826039,21.2851667 11.4462299,21.872295 L11.4531065,21.9999799 L11.4531065,23.8583374 L14.1401325,21.1713089 C14.3285027,20.9829385 14.5743855,20.8653398 14.8365037,20.8355844 L14.9687247,20.8281061 L16.1405974,20.8281061 L16.1405974,19.6562323 C16.1405974,17.7823357 17.6143156,16.2461529 19.463614,16.1458228 L19.6562155,16.1406108 L25.5155791,16.1406108 L25.5155791,5.51562147 C25.5155791,4.86945024 24.989877,4.34374765 24.3437064,4.34374765 Z M10.2812338,11.4531155 C10.9284413,11.4531155 11.4531065,11.9777813 11.4531065,12.6249893 C11.4531065,13.2721974 10.9284413,13.7968631 10.2812338,13.7968631 C9.6340264,13.7968631 9.10936111,13.2721974 9.10936111,12.6249893 C9.10936111,11.9777813 9.6340264,11.4531155 10.2812338,11.4531155 Z M14.9687247,11.4531155 C15.6159321,11.4531155 16.1405974,11.9777813 16.1405974,12.6249893 C16.1405974,13.2721974 15.6159321,13.7968631 14.9687247,13.7968631 C14.3215172,13.7968631 13.796852,13.2721974 13.796852,12.6249893 C13.796852,11.9777813 14.3215172,11.4531155 14.9687247,11.4531155 Z M19.6562155,11.4531155 C20.3034229,11.4531155 20.8280882,11.9777813 20.8280882,12.6249893 C20.8280882,13.2721974 20.3034229,13.7968631 19.6562155,13.7968631 C19.0090081,13.7968631 18.4843428,13.2721974 18.4843428,12.6249893 C18.4843428,11.9777813 19.0090081,11.4531155 19.6562155,11.4531155 Z" id="Combined-Shape" fill="#FF874D"></path>
    </g>
</svg>