<?xml version="1.0" encoding="UTF-8"?>
<svg width="176px" height="176px" viewBox="0 0 176 176" version="1.1" xmlns="http://www.w3.org/2000/svg" xmlns:xlink="http://www.w3.org/1999/xlink">
    <!-- Generator: Sketch 57.1 (83088) - https://sketch.com -->
    <title>article_b/sdwan/article_b_sdwan_p2_01</title>
    <desc>Created with Sketch.</desc>
    <g id="article_b/sdwan/article_b_sdwan_p2_01" stroke="none" stroke-width="1" fill="none" fill-rule="evenodd">
        <g id="Group" transform="translate(8.000000, 8.000000)">
            <path d="M121.290323,144.516129 L147.096774,144.516129 C148.522025,144.516129 149.677419,145.671523 149.677419,147.096774 C149.677419,148.522025 148.522025,149.677419 147.096774,149.677419 L121.290323,149.677419 C119.865072,149.677419 118.709677,148.522025 118.709677,147.096774 C118.709677,145.671523 119.865072,144.516129 121.290323,144.516129 Z" id="Path" fill="#47D382"></path>
            <path d="M14.3225806,139.354839 L47.6129032,139.354839 C49.8220422,139.354839 51.6129032,137.563978 51.6129032,135.354839 L51.6129032,107.225806 C51.6129032,105.016667 49.8220422,103.225806 47.6129032,103.225806 L14.3225806,103.225806 C12.1134416,103.225806 10.3225806,105.016667 10.3225806,107.225806 L10.3225806,135.354839 C10.3225806,137.563978 12.1134416,139.354839 14.3225806,139.354839 Z M16.483871,108.387097 L45.4516129,108.387097 C46.0038977,108.387097 46.4516129,108.834812 46.4516129,109.387097 L46.4516129,133.193548 C46.4516129,133.745833 46.0038977,134.193548 45.4516129,134.193548 L16.483871,134.193548 C15.9315862,134.193548 15.483871,133.745833 15.483871,133.193548 L15.483871,109.387097 C15.483871,108.834812 15.9315862,108.387097 16.483871,108.387097 Z" id="Shape" fill="#209CFF"></path>
            <path d="M80,10.3225806 L79.758139,10.3632327 C78.3521214,10.5995565 77.4038972,11.9309372 77.640221,13.3369548 C77.8375811,14.5111569 78.8124232,15.3980637 80,15.483871 L80,15.483871 L80,15.483871 C88.5393548,15.483871 95.483871,22.4283871 95.483871,30.9677419 C95.6299012,32.392844 96.9035556,33.4297365 98.3286576,33.2837062 C99.5324008,33.1603586 100.49094,32.2210987 100.638718,31.0201099 L100.645161,30.9677419 L100.645161,30.9677419 C100.645161,19.5845161 91.3832258,10.3225806 80,10.3225806 Z" id="Path" fill="#FF874D"></path>
            <path d="M80,0 C90.4129032,0 99.6232258,5.18193548 105.24129,13.0890323 C108.585806,11.3032258 112.289032,10.3225806 116.129032,10.3225806 C127.940188,10.3225806 137.711925,19.187864 139.159638,30.6138204 L139.202581,30.9754839 L139.354839,30.9677419 C150.738065,30.9677419 160,40.2296774 160,51.6129032 C160,62.8799737 150.926119,72.0688245 139.702635,72.255179 L139.354839,72.2580645 L98.0645161,72.2580645 L98.0645161,92.9032258 L112.258065,92.9032258 L116.129032,87.7419355 C118.478827,84.6063734 122.180245,82.6986771 126.084983,82.5859384 L126.451613,82.5806452 L147.096774,82.5806452 C154.108499,82.5806452 159.831942,88.2024687 159.996366,95.1753796 L160,95.483871 L160,147.096774 C160,154.108499 154.378176,159.831942 147.405266,159.996366 L147.096774,160 L69.6774194,160 C63.552614,160 58.4148088,155.710537 57.1004687,149.980324 L57.0348387,149.677419 L4,149.677419 C1.85780461,149.677419 0.108921124,147.993451 0.00489530723,145.87706 L0,145.677419 L0,45.2903226 C-2.62343273e-16,43.1481272 1.68396847,41.3992437 3.80035966,41.2952179 L4,41.2903226 L33.7754839,41.2903226 C36.9402334,35.8448318 42.4410216,32.1050202 48.6278158,31.1862325 L49.0322581,31.1303226 L49.0322581,30.9677419 C49.0322581,13.8916129 62.923871,0 80,0 Z M154.83871,108.387097 L61.9354839,108.387097 L61.9354839,147.096774 C61.9354839,151.283077 65.2767188,154.704818 69.4320672,154.834875 L69.6774194,154.83871 L147.096774,154.83871 C151.283077,154.83871 154.704818,151.497475 154.834875,147.342126 L154.83871,147.096774 L154.83871,108.387097 Z M91.9032258,46.4516129 L6.16129032,46.4516129 C5.64845448,46.4516129 5.22578316,46.8376531 5.16801805,47.3349918 L5.16129032,47.4516129 L5.16129032,143.516129 C5.16129032,144.028965 5.54733051,144.451636 6.0446692,144.509401 L6.16129032,144.516129 L56.7741935,144.516129 L56.7741935,105.806452 C56.7741935,98.7947265 62.3960171,93.0712838 69.3689279,92.9068596 L69.6774194,92.9032258 L92.9032258,92.9032258 L92.9032258,47.4516129 C92.9032258,46.8993282 92.4555106,46.4516129 91.9032258,46.4516129 Z M147.096774,87.7419355 L126.451613,87.7419355 C124.125316,87.7419355 121.896531,88.807424 120.436514,90.6096217 L120.258065,90.8387097 L114.83871,98.0645161 L69.6774194,98.0645161 C66.4107527,98.0645161 63.636818,100.111061 62.503426,102.978081 L62.4103226,103.225806 L154.83871,103.225806 L154.83871,95.483871 C154.83871,91.2154839 151.365161,87.7419355 147.096774,87.7419355 Z M30.9677419,51.6129032 C38.0825806,51.6129032 43.8709677,57.4012903 43.8709677,64.516129 C43.8709677,68.3483871 42.1574194,71.7574194 39.4967742,74.123871 C46.5171696,77.3255775 51.4516767,84.3318445 51.609028,92.5005601 L51.6129032,92.9032258 L51.6129032,94.0645161 C51.6129032,96.2067115 49.9289348,97.955595 47.8125436,98.0596208 L47.6129032,98.0645161 L14.3225806,98.0645161 C12.1803853,98.0645161 10.4315018,96.3805477 10.327476,94.2641565 L10.3225806,94.0645161 L10.3225806,92.9032258 C10.3225806,84.5625806 15.3032258,77.3780645 22.4387097,74.123871 C19.7780645,71.7574194 18.0645161,68.3483871 18.0645161,64.516129 C18.0645161,57.4012903 23.8529032,51.6129032 30.9677419,51.6129032 Z M30.9677419,77.4193548 C22.5338112,77.4193548 15.6555836,84.1934599 15.4870363,92.5876927 L15.483871,92.9032258 L46.4516129,92.9032258 C46.4516129,84.363871 39.5070968,77.4193548 30.9677419,77.4193548 Z M84.3870968,78.3225806 C85.8123477,78.3225806 86.9677419,79.4779748 86.9677419,80.9032258 C86.9677419,82.3284768 85.8123477,83.483871 84.3870968,83.483871 L58.5806452,83.483871 C57.1553942,83.483871 56,82.3284768 56,80.9032258 C56,79.4779748 57.1553942,78.3225806 58.5806452,78.3225806 L84.3870968,78.3225806 Z M84.3870968,68 C85.8123477,68 86.9677419,69.1553942 86.9677419,70.5806452 C86.9677419,72.0058961 85.8123477,73.1612903 84.3870968,73.1612903 L58.5806452,73.1612903 C57.1553942,73.1612903 56,72.0058961 56,70.5806452 C56,69.1553942 57.1553942,68 58.5806452,68 L84.3870968,68 Z M30.9677419,56.7741935 C26.6993548,56.7741935 23.2258065,60.2477419 23.2258065,64.516129 C23.2258065,68.7845161 26.6993548,72.2580645 30.9677419,72.2580645 C35.236129,72.2580645 38.7096774,68.7845161 38.7096774,64.516129 C38.7096774,60.2477419 35.236129,56.7741935 30.9677419,56.7741935 Z M80,5.16129032 C65.7703226,5.16129032 54.1935484,16.7380645 54.1935484,30.9677419 C54.1935484,31.5658065 54.2225806,32.1551613 54.2654032,32.7401613 L54.3122581,33.323871 L54.3223243,33.5130372 L54.3184852,33.7024322 C54.2404458,35.070487 53.1102414,36.1286469 51.7585744,36.1358683 L51.5953645,36.1316429 C47.2956562,36.1316138 43.2342503,37.9564253 40.3495457,41.0013088 L40.0825806,41.2903226 L94.0645161,41.2903226 C96.2067115,41.2903226 97.955595,42.9742911 98.0596208,45.0906822 L98.0645161,45.2903226 L98.0645161,67.0967742 L139.354839,67.0967742 C147.894194,67.0967742 154.83871,60.1522581 154.83871,51.6129032 C154.83871,43.0735484 147.894194,36.1290323 139.354839,36.1290323 C130.920908,36.1290323 124.04268,42.9031373 123.874133,51.2973701 L123.870968,51.6129032 L123.863101,51.7771644 C123.76365,53.0264109 122.772845,54.0340462 121.508082,54.1398167 C120.143772,54.2539121 118.938909,53.2837816 118.742758,51.9476058 L118.724116,51.7855537 L118.709677,51.6129032 C118.709677,42.0490323 125.254194,34.0077419 134.095484,31.6722581 C133.153548,22.5909677 125.455484,15.483871 116.129032,15.483871 C113.218065,15.483871 110.402581,16.203871 107.855484,17.5251613 C109.744946,21.4277419 110.871246,25.7687858 110.961823,30.3665875 L110.967742,30.9677419 L110.957547,31.1335509 C110.839656,32.3938512 109.817361,33.3937732 108.537269,33.4681137 C107.168814,33.5475859 105.98755,32.545905 105.825231,31.2035216 L105.810697,31.0408476 L105.806452,30.9677419 C105.806452,16.7380645 94.2296774,5.16129032 80,5.16129032 Z" id="article_b_sdwan_p2_01" fill="#4D4D4D"></path>
        </g>
    </g>
</svg>