<?xml version="1.0" encoding="UTF-8"?>
<svg width="176px" height="176px" viewBox="0 0 176 176" version="1.1" xmlns="http://www.w3.org/2000/svg" xmlns:xlink="http://www.w3.org/1999/xlink">
    <!-- Generator: Sketch 57.1 (83088) - https://sketch.com -->
    <title>article_b/sdwan/article_b_sdwan_p2_02</title>
    <desc>Created with Sketch.</desc>
    <g id="article_b/sdwan/article_b_sdwan_p2_02" stroke="none" stroke-width="1" fill="none" fill-rule="evenodd">
        <g id="Group" transform="translate(8.000000, 8.000000)">
            <path d="M16.1425781,139.999389 C16.9641113,139.999389 17.7697753,140.333954 18.35083,140.915169 C18.9318847,141.496383 19.2663575,142.302268 19.2663575,143.124027 C19.2663575,143.947007 18.9318847,144.752892 18.35083,145.334107 C17.7673341,145.915321 16.9641113,146.249886 16.1425781,146.249886 C15.321045,146.249886 14.51416,145.915321 13.9331056,145.334107 C13.3496094,144.752892 13.0187988,143.947007 13.0187988,143.124027 C13.0187988,142.302268 13.3496094,141.496383 13.9331056,140.915169 C14.51416,140.333954 15.3173828,139.999389 16.1425781,139.999389 Z M28.6389159,139.999389 C29.4604494,139.999389 30.2661131,140.333954 30.8471681,140.915169 C31.4282225,141.496383 31.7626953,142.302268 31.7626953,143.124027 C31.7626953,143.947007 31.4282225,144.752892 30.8471681,145.334107 C30.2636719,145.915321 29.4604494,146.249886 28.6389159,146.249886 C27.8173828,146.249886 27.0117188,145.915321 26.4270019,145.334107 C25.8459472,144.752892 25.5151369,143.947007 25.5151369,143.124027 C25.5151369,142.302268 25.8459472,141.496383 26.4270019,140.915169 C27.0117188,140.333954 27.8137206,139.999389 28.6389159,139.999389 Z" id="Combined-Shape" fill="#47D382"></path>
            <path d="M146.209717,76.6848806 C147.93457,76.6848806 149.333496,78.0841905 149.333496,79.8095178 L149.333496,79.8095178 L149.333496,91.4118258 C149.333496,93.1383743 147.93457,94.5376843 146.209717,94.5376843 C144.483643,94.5376843 143.084717,93.1383743 143.084717,91.4118258 L143.084717,91.4118258 L143.084717,79.8095178 C143.084717,78.0841905 144.483643,76.6848806 146.209717,76.6848806 Z M146.209717,17.4999237 C152.06665,17.4999237 156.831055,22.265637 156.831055,28.1254005 C156.831055,32.895998 153.670654,36.9425197 149.333496,38.2807779 L149.333496,38.2807779 L149.333496,64.202204 C149.333496,65.9275313 147.93457,67.3268416 146.209717,67.3268416 C144.483642,67.3268416 143.084717,65.9275313 143.084717,64.202204 L143.084717,64.202204 L143.084717,38.2807779 C138.748779,36.9425197 135.587158,32.895998 135.587158,28.1254005 C135.587158,22.265637 140.352783,17.4999237 146.209717,17.4999237 Z M146.209717,23.7504198 C143.797608,23.7504198 141.835938,25.7126284 141.835938,28.1254005 C141.835938,30.5369516 143.797608,32.5003815 146.209717,32.5003815 C148.621826,32.5003815 150.583496,30.5369516 150.583496,28.1254005 C150.583496,25.7126284 148.621826,23.7504198 146.209717,23.7504198 Z" id="Combined-Shape" fill="#209CFF"></path>
            <path d="M100.877686,61.6844228 C101.702881,61.6844228 102.508545,62.0189871 103.0896,62.6002015 C103.670654,63.1814158 104.005127,63.9873012 104.005127,64.80906 C104.005127,65.6308192 103.670654,66.4379255 103.0896,67.0191399 C102.506103,67.6003542 101.702881,67.9336976 100.877686,67.9336976 C100.056152,67.9336976 99.2504881,67.5991329 98.6694337,67.0191399 C98.0883787,66.4379255 97.7575684,65.6308192 97.7575684,64.80906 C97.7575684,63.9873012 98.0883787,63.1814158 98.6694337,62.6002015 C99.2504881,62.0189871 100.056152,61.6844228 100.877686,61.6844228 Z M110.876465,-1.77635684e-13 C112.602539,-1.77635684e-13 114.001465,1.39930996 114.001465,3.12463758 L114.001465,3.12463758 L114.001465,20.6245613 C114.001465,22.3511095 112.602539,23.7504198 110.876465,23.7504198 L110.876465,23.7504198 L104.003906,23.7504198 L104.003906,50.7512439 C104.003906,52.4777922 102.604981,53.8771025 100.880127,53.8771025 C99.1540528,53.8771025 97.7551269,52.4777922 97.7551269,50.7512439 L97.7551269,50.7512439 L97.7551269,23.7504198 L90.8825684,23.7504198 C89.1564941,23.7504198 87.7575684,22.3511095 87.7575684,20.6245613 L87.7575684,20.6245613 L87.7575684,3.12463758 C87.7575684,1.39930996 89.1564941,-1.77635684e-13 90.8825684,-1.77635684e-13 L90.8825684,-1.77635684e-13 Z M107.752686,6.25049613 L94.0063475,6.25049613 L94.0063475,17.4999237 L107.752686,17.4999237 L107.752686,6.25049613 Z" id="Combined-Shape" fill="#FF874D"></path>
            <path d="M74.3542481,46.2492749 C79.4320303,46.2492749 83.5789974,50.3094515 83.7229422,55.3532801 L83.7268066,55.6244086 L83.7268066,70.6248664 C83.7268066,75.4933467 79.9966124,79.5061185 75.2442999,79.955517 L74.9792481,79.9768003 L74.9792481,86.2724748 C78.4521484,86.503251 81.414795,88.6327421 82.8320312,91.6328336 C88.4912109,88.3763239 95,86.5435452 101.789551,86.5435452 C110.611572,86.5435452 119.212647,89.6303305 126.008301,95.2324551 C132.04834,100.21185 136.422119,106.958088 138.504639,114.435728 C150.472412,115.117067 160,125.066089 160,137.199548 C160,149.645642 149.972878,159.795193 137.570163,159.996939 L137.193603,160 L9.37255875,160 C4.29477625,160 0.147809152,155.939823 0.00386440968,150.895995 L0,150.624867 L0,135.624408 C0,130.755928 3.73019419,126.744334 8.48250701,126.293822 L8.74755875,126.272475 L8.74755875,119.9768 C3.95831839,119.659108 0.141047095,115.730255 0.00382045029,110.894439 L0,110.624867 L0,95.6244084 C0,90.7559282 3.73019419,86.7443337 8.48250701,86.2938224 L8.74755875,86.2724748 L8.74755875,79.9768003 C3.95831839,79.6591081 0.141047095,75.7302552 0.00382045029,70.8944388 L0,70.6248664 L0,55.6244086 C0,50.5464306 4.05788319,46.3971668 9.10144263,46.2531415 L9.37255875,46.2492749 L74.3542481,46.2492749 Z M45.1464844,132.499771 L9.37255875,132.499771 C7.70954009,132.499771 6.34580713,133.806518 6.25373401,135.447369 L6.24877938,135.624408 L6.24877938,150.624867 C6.24877938,152.288342 7.55516686,153.652449 9.1955677,153.744548 L9.37255875,153.749504 L45.7189941,153.749504 C43.2470703,150.767728 41.7590331,146.942215 41.7590331,142.77481 C41.7590331,138.973717 42.9895019,135.400958 45.1464844,132.499771 Z M101.790772,92.7940413 C88.4875488,92.7940413 76.467285,101.182576 71.8811034,113.667694 C71.3867188,115.012058 70.0439453,115.850911 68.6193847,115.69706 C68.2153319,115.654324 67.8222656,115.632345 67.4487306,115.632345 C61.3940431,115.632345 56.4685059,120.555573 56.4685059,126.607039 C56.4685059,127.411704 56.5588378,128.223694 56.7382812,129.022253 C57.0739747,130.514362 56.2805175,132.029671 54.8645019,132.603559 C50.6994628,134.293477 48.0078125,138.285051 48.0078125,142.77481 C48.0078125,148.730222 52.7782244,153.592927 58.7005874,153.745798 L58.9880372,153.749504 L137.193603,153.749504 C146.323242,153.749504 153.751221,146.324369 153.752441,137.199548 C153.752441,128.073506 146.324463,120.648371 137.193603,120.648371 C136.906738,120.648371 136.599121,120.65814 136.226807,120.680118 C134.674072,120.769254 133.300781,119.708172 132.988281,118.190421 C129.957275,103.474465 116.835937,92.7940413 101.790772,92.7940413 Z M119.967041,136.874752 C121.691894,136.874752 123.09082,138.274062 123.09082,139.999389 C123.09082,141.665223 121.786709,143.027135 120.144267,143.119079 L119.967041,143.124027 L84.6643066,143.124027 C82.9382325,143.124027 81.5393066,141.724717 81.5393066,139.999389 C81.5393066,138.333556 82.8434183,136.971644 84.4869581,136.879699 L84.6643066,136.874752 L119.967041,136.874752 Z M119.967041,121.874294 C120.788574,121.874294 121.594238,122.208859 122.175293,122.790073 C122.756347,123.371287 123.09082,124.178394 123.09082,125.000153 C123.09082,125.821911 122.756347,126.627797 122.175293,127.209011 C121.594238,127.790226 120.788574,128.12479 119.967041,128.12479 C119.145508,128.12479 118.338623,127.790226 117.757568,127.209011 C117.176514,126.627797 116.842041,125.821911 116.842041,125.000153 C116.842041,124.174731 117.176514,123.371287 117.757568,122.790073 C118.338623,122.208859 119.145508,121.874294 119.967041,121.874294 Z M105.908203,121.874294 C107.633057,121.874294 109.031982,123.273604 109.031982,125.000153 C109.031982,126.72548 107.633057,128.12479 105.908203,128.12479 L105.908203,128.12479 L84.6643066,128.12479 C82.9382325,128.12479 81.5393066,126.72548 81.5393066,125.000153 C81.5393066,123.273604 82.9382325,121.874294 84.6643066,121.874294 L84.6643066,121.874294 Z M51.5380859,120 L14.9963378,120 L14.9963378,126.249275 L50.2282716,126.249275 C50.2734375,124.040416 50.7324219,121.931683 51.5380859,120 Z M74.3542481,92.4997711 L9.37255875,92.4997711 C7.70954009,92.4997711 6.34580713,93.8065175 6.25373401,95.4473688 L6.24877937,95.6244084 L6.24877937,110.624867 C6.24877937,112.288342 7.55516686,113.65245 9.1955677,113.744548 L9.37255875,113.749504 L56.0021972,113.749504 C58.9135744,111.156018 62.7050781,109.530816 66.8676756,109.391617 C69.2871094,103.863976 72.9589844,99.0909368 77.4645997,95.3570012 C77.3278809,93.7586616 75.9863281,92.4997711 74.3542481,92.4997711 Z M68.7304687,80.0000002 L14.9963378,80.0000002 L14.9963378,86.249275 L68.7304687,86.249275 L68.7304687,80.0000002 Z M74.3542481,52.4997711 L9.37255875,52.4997711 C7.70954009,52.4997711 6.34580713,53.8065174 6.25373401,55.447369 L6.24877937,55.6244086 L6.24877937,70.6248664 C6.24877937,72.288342 7.55516686,73.6524496 9.1955677,73.744548 L9.37255875,73.749504 L74.3542481,73.749504 C76.0172665,73.749504 77.3809997,72.4427576 77.4730729,70.8019061 L77.4780275,70.6248664 L77.4780275,55.6244086 C77.4780275,53.9015232 76.07666,52.4997711 74.3542481,52.4997711 Z M66.9604494,59.9993893 C68.6865234,59.9993893 70.0854494,61.3986996 70.0854494,63.1252479 C70.0854494,64.7910814 68.7813377,66.1529937 67.1377978,66.2449379 L66.9604494,66.2498854 L46.1328125,66.2498854 C44.4079591,66.2498854 43.0090331,64.8505755 43.0090331,63.1252479 C43.0090331,61.4582357 44.3131448,60.0962826 45.955586,60.004337 L46.1328125,59.9993893 L66.9604494,59.9993893 Z" id="article_b_sdwan_p2_02" fill="#4D4D4D"></path>
        </g>
    </g>
</svg>