<?xml version="1.0" encoding="UTF-8"?>
<svg width="176px" height="176px" viewBox="0 0 176 176" version="1.1" xmlns="http://www.w3.org/2000/svg" xmlns:xlink="http://www.w3.org/1999/xlink">
    <!-- Generator: Sketch 57.1 (83088) - https://sketch.com -->
    <title>article_b/sdwan/article_b_sdwan_p1_03</title>
    <desc>Created with Sketch.</desc>
    <g id="article_b/sdwan/article_b_sdwan_p1_03" stroke="none" stroke-width="1" fill="none" fill-rule="evenodd">
        <g id="Group" transform="translate(8.000000, 8.000000)">
            <path d="M80,90.3225806 C81.425251,90.3225806 82.5806452,91.4779748 82.5806452,92.9032258 L82.5806452,92.9032258 L82.5806452,103.700857 C85.5771168,104.769405 87.7419355,107.608367 87.7419355,110.967742 C87.7419355,115.235635 84.2678932,118.709677 80,118.709677 C75.7321068,118.709677 72.2580645,115.235635 72.2580645,110.967742 C72.2580645,107.608367 74.4228832,104.769405 77.4193548,103.700857 L77.4193548,103.700857 L77.4193548,92.9032258 C77.4193548,91.4779748 78.574749,90.3225806 80,90.3225806 Z M80,108.387097 C78.578629,108.387097 77.4193548,109.543851 77.4193548,110.967742 C77.4193548,112.391633 78.578629,113.548387 80,113.548387 C81.421371,113.548387 82.5806452,112.391633 82.5806452,110.967742 C82.5806452,109.543851 81.421371,108.387097 80,108.387097 Z M80,49.0322581 C81.425251,49.0322581 82.5806452,50.1876523 82.5806452,51.6129032 L82.5806452,82.5806452 C82.5806452,84.0058961 81.425251,85.1612903 80,85.1612903 C78.574749,85.1612903 77.4193548,84.0058961 77.4193548,82.5806452 L77.4193548,51.6129032 C77.4193548,50.1876523 78.574749,49.0322581 80,49.0322581 Z" id="Combined-Shape" fill="#47D382"></path>
            <path d="M100.645161,59.3548387 C102.070412,59.3548387 103.225806,60.5102329 103.225806,61.9354839 L103.225806,61.9354839 L103.225806,95.483871 L124.346018,95.483871 C125.414566,92.4873994 128.253528,90.3225806 131.612903,90.3225806 C135.880796,90.3225806 139.354839,93.7966229 139.354839,98.0645161 C139.354839,102.332409 135.880796,105.806452 131.612903,105.806452 C128.253528,105.806452 125.414566,103.641633 124.346018,100.645161 L124.346018,100.645161 L102.064516,100.645161 C99.8553771,100.645161 98.0645161,98.8543003 98.0645161,96.6451613 L98.0645161,96.6451613 L98.0645161,61.9354839 C98.0645161,60.5102329 99.2199103,59.3548387 100.645161,59.3548387 Z M131.612903,95.483871 C130.191532,95.483871 129.032258,96.6406252 129.032258,98.0645161 C129.032258,99.4884071 130.191532,100.645161 131.612903,100.645161 C133.034274,100.645161 134.193548,99.4884071 134.193548,98.0645161 C134.193548,96.6406252 133.034274,95.483871 131.612903,95.483871 Z M100.645161,49.0322581 C102.070412,49.0322581 103.225806,50.1876523 103.225806,51.6129032 C103.225806,53.0381542 102.070412,54.1935484 100.645161,54.1935484 C99.2199103,54.1935484 98.0645161,53.0381542 98.0645161,51.6129032 C98.0645161,50.1876523 99.2199103,49.0322581 100.645161,49.0322581 Z" id="Combined-Shape" fill="#FF874D"></path>
            <path d="M59.3548387,72.2580645 C60.7800897,72.2580645 61.9354839,73.4134587 61.9354839,74.8387097 L61.9354839,74.8387097 L61.9354839,96.6451613 C61.9354839,98.8543003 60.1446229,100.645161 57.9354839,100.645161 L57.9354839,100.645161 L35.6539819,100.645161 C34.5854335,103.641633 31.7464716,105.806452 28.3870968,105.806452 C24.1192035,105.806452 20.6451613,102.332409 20.6451613,98.0645161 C20.6451613,93.7966229 24.1192035,90.3225806 28.3870968,90.3225806 C31.7464716,90.3225806 34.5854335,92.4873994 35.6539819,95.483871 L35.6539819,95.483871 L56.7741935,95.483871 L56.7741935,74.8387097 C56.7741935,73.4134587 57.9295877,72.2580645 59.3548387,72.2580645 Z M28.3870968,95.483871 C26.9657258,95.483871 25.8064516,96.6406252 25.8064516,98.0645161 C25.8064516,99.4884071 26.9657258,100.645161 28.3870968,100.645161 C29.8084677,100.645161 30.9677419,99.4884071 30.9677419,98.0645161 C30.9677419,96.6406252 29.8084677,95.483871 28.3870968,95.483871 Z M59.3548387,49.0322581 C60.7800897,49.0322581 61.9354839,50.1876523 61.9354839,51.6129032 L61.9354839,64.516129 C61.9354839,65.94138 60.7800897,67.0967742 59.3548387,67.0967742 C57.9295877,67.0967742 56.7741935,65.94138 56.7741935,64.516129 L56.7741935,51.6129032 C56.7741935,50.1876523 57.9295877,49.0322581 59.3548387,49.0322581 Z" id="Combined-Shape" fill="#209CFF"></path>
            <path d="M87.7419355,0 C103.414819,0 116.993448,11.0345261 120.420867,26.0975303 C121.55872,25.9047381 122.714214,25.8064516 123.870968,25.8064516 C133.471522,25.8064516 141.536038,32.4004535 143.836945,41.2903226 L143.836945,41.2903226 L147.096774,41.2903226 C154.21119,41.2903226 160,47.0791329 160,54.1935484 L160,54.1935484 L160,131.612903 C160,138.727319 154.21119,144.516129 147.096774,144.516129 L147.096774,144.516129 L113.548387,144.516129 L113.548387,154.83871 L121.290323,154.83871 C122.715574,154.83871 123.870968,155.994104 123.870968,157.419355 C123.870968,158.844606 122.715574,160 121.290323,160 L121.290323,160 L38.7096774,160 C37.2844265,160 36.1290323,158.844606 36.1290323,157.419355 C36.1290323,155.994104 37.2844265,154.83871 38.7096774,154.83871 L38.7096774,154.83871 L46.4516129,154.83871 L46.4516129,144.516129 L12.9032258,144.516129 C5.78881032,144.516129 0,138.727319 0,131.612903 L0,131.612903 L0,54.1935484 C0,47.0791329 5.78881032,41.2903226 12.9032258,41.2903226 L12.9032258,41.2903226 L16.1605342,41.2903226 C18.3744961,32.7356352 25.9299394,26.3041835 35.0529232,25.8354335 C38.1678426,18.1313003 45.7749497,12.9032258 54.1935484,12.9032258 C56.3747481,12.9032258 58.5105845,13.2434477 60.5708165,13.920111 C66.8825606,5.16381032 76.890121,0 87.7419355,0 Z M108.387097,144.516129 L51.6129032,144.516129 L51.6129032,154.83871 L108.387097,154.83871 L108.387097,144.516129 Z M154.83871,129.032258 L5.16129032,129.032258 L5.16129032,131.612903 C5.16129032,135.880796 8.63533258,139.354839 12.9032258,139.354839 L12.9032258,139.354839 L147.096774,139.354839 C151.364667,139.354839 154.83871,135.880796 154.83871,131.612903 L154.83871,131.612903 L154.83871,129.032258 Z M87.7419355,5.16129032 C77.9586694,5.16129032 68.9856352,10.1260081 63.7424394,18.4412803 L63.7424394,18.4412803 L63.6446246,18.585156 C62.9310268,19.5629029 61.6230737,19.9198541 60.5037136,19.4195236 L60.5037136,19.4195236 C58.4954639,18.5206652 56.3722277,18.0645161 54.1935484,18.0645161 C47.3853326,18.0645161 41.2827619,22.6272681 39.3523187,29.1557458 L39.3523187,29.1557458 L39.2966202,29.3228146 C38.9102335,30.3624616 37.894091,31.0448846 36.7727676,30.9958767 L36.7727676,30.9958767 L36.1290323,30.9677419 C27.5894658,30.9677419 20.6451613,37.9120465 20.6451613,46.4516129 C20.6451613,54.9911794 27.5894658,61.9354839 36.1290323,61.9354839 L36.1290323,61.9354839 L49.0322581,61.9354839 C50.457509,61.9354839 51.6129032,63.0908781 51.6129032,64.516129 C51.6129032,65.94138 50.457509,67.0967742 49.0322581,67.0967742 L49.0322581,67.0967742 L36.1290323,67.0967742 C24.7454639,67.0967742 15.483871,57.8351813 15.483871,46.4516129 L15.483871,46.4516129 L12.9032258,46.4516129 C8.63533258,46.4516129 5.16129032,49.9256552 5.16129032,54.1935484 L5.16129032,54.1935484 L5.16129032,123.870968 L154.83871,123.870968 L154.83871,54.1935484 C154.83871,49.9256552 151.364667,46.4516129 147.096774,46.4516129 L147.096774,46.4516129 L144.516129,46.4516129 C144.516129,57.8351813 135.254536,67.0967742 123.870968,67.0967742 L123.870968,67.0967742 L110.967742,67.0967742 C109.542491,67.0967742 108.387097,65.94138 108.387097,64.516129 C108.387097,63.0908781 109.542491,61.9354839 110.967742,61.9354839 L110.967742,61.9354839 L123.870968,61.9354839 C132.410534,61.9354839 139.354839,54.9911794 139.354839,46.4516129 C139.354839,37.9120465 132.410534,30.9677419 123.870968,30.9677419 C122.275706,30.9677419 120.691784,31.2159777 119.158266,31.706149 L119.158266,31.706149 L119.018615,31.7462182 C118.924817,31.7702964 118.829703,31.7890885 118.733719,31.8024927 C117.321366,31.999729 116.016536,31.0146825 115.8193,29.6023298 L115.8193,29.6023298 C113.876008,15.6665826 101.806955,5.16129032 87.7419355,5.16129032 Z M123.870968,41.2903226 L123.870968,36.1290323 C129.564012,36.1290323 134.193548,40.7585684 134.193548,46.4516129 C134.193548,52.0497733 129.717044,56.6195803 124.154717,56.7703521 L123.870968,56.7741935 L123.870968,51.6129032 C126.71749,51.6129032 129.032258,49.2981352 129.032258,46.4516129 C129.032258,43.6780784 126.834674,41.4093782 124.088852,41.2948581 L123.870968,41.2903226 L123.870968,36.1290323 Z M103.876746,16.8427025 L104.164566,17.1257561 L104.268896,17.2874344 C104.758121,18.1103331 104.7607,19.141727 104.262506,19.9712202 C103.548224,21.1605006 102.038236,21.5777315 100.822539,20.9509247 L100.672189,20.8671165 L100.516633,20.7736897 C93.5595861,13.8191311 82.2981384,13.7321991 75.2334816,20.5128937 L74.9672381,20.7736897 L74.2979441,21.0987404 C73.369363,21.549717 72.25989,21.3910205 71.494971,20.6978094 C70.4600668,19.7599231 70.3814182,18.1606604 71.3193045,17.1257561 C80.2789287,8.16239108 94.8000379,8.06803987 103.876746,16.8427025 Z" id="article_b_sdwan_p1_03" fill="#4D4D4D"></path>
        </g>
    </g>
</svg>