<?xml version="1.0" encoding="UTF-8"?>
<svg width="176px" height="176px" viewBox="0 0 176 176" version="1.1" xmlns="http://www.w3.org/2000/svg" xmlns:xlink="http://www.w3.org/1999/xlink">
    <!-- Generator: Sketch 57.1 (83088) - https://sketch.com -->
    <title>article_b/sdwan/article_b_sdwan_p2_04</title>
    <desc>Created with Sketch.</desc>
    <g id="article_b/sdwan/article_b_sdwan_p2_04" stroke="none" stroke-width="1" fill="none" fill-rule="evenodd">
        <g id="Group" transform="translate(17.000000, 8.000000)">
            <path d="M137.886246,3.36166617 C139.5431,3.36166617 140.886246,4.70481192 140.886246,6.36166617 L140.886246,6.36166617 L140.886246,18.956333 L129.395388,46.4316662 L123.792388,46.4316662 L134.985862,19.6348364 L129.253797,16.7858807 L116.513388,46.4316662 L110.891388,46.4316662 L125.856475,11.6044338 L136.090692,3.95833753 C136.609179,3.57097056 137.239035,3.36166617 137.886246,3.36166617 Z M135.715062,10.6983174 L132.855274,12.8351697 L135.715062,14.2620863 L135.715062,10.6983174 Z" id="Combined-Shape" fill="#FF874D"></path>
            <path d="M42.7496823,67.0970539 C38.4733024,67.0970539 34.9929068,64.5163563 34.9929068,59.3549611 L29.8217232,59.3549611 C29.8217232,67.0970539 35.6211155,72.2584491 42.7496823,72.2584491 C49.8782491,72.2584491 55.6776415,67.0970539 55.6776415,59.3549611 L50.5064578,59.3549611 C50.5059148,64.5163563 47.0260622,67.0970539 42.7496823,67.0970539 Z" id="Path" fill="#209CFF"></path>
            <path d="M109.559576,-3.55271368e-15 C111.21643,-3.85707287e-15 112.559576,1.34314575 112.559576,3 L112.559576,12.4836437 C112.559576,14.140498 111.21643,15.4836437 109.559576,15.4836437 L107.387849,15.4836437 L107.387849,27.1286826 C107.387613,32.0991533 103.35832,36.1285524 98.3878492,36.1289184 L71.0194658,36.1296355 C68.2580932,36.1298388 66.0195968,38.3683939 66.0194658,41.1297665 L66.0194658,46.452015 L60.8482822,46.452015 L60.8482822,40.8432435 C60.8482822,35.3692908 65.2493977,30.9126518 70.7229202,30.8440293 L97.2793465,30.5110867 C100.016108,30.4767754 102.216666,28.2484559 102.216666,25.5114796 L102.216666,15.4836437 L100.046025,15.4836437 C98.3891706,15.4836437 97.0460248,14.140498 97.0460248,12.4836437 L97.0460248,3 C97.0460248,1.34314575 98.3891706,-3.24835449e-15 100.046025,-3.55271368e-15 L109.559576,-3.55271368e-15 Z M106.387849,5.21071136 L103.216666,5.21071136 C102.664381,5.21071136 102.216666,5.65842661 102.216666,6.21071136 L102.216666,9.37156464 C102.216666,9.92384939 102.664381,10.3715646 103.216666,10.3715646 L106.387849,10.3715646 C106.940134,10.3715646 107.387849,9.92384939 107.387849,9.37156464 L107.387849,6.21071136 C107.387849,5.65842661 106.940134,5.21071136 106.387849,5.21071136 Z" id="Combined-Shape" fill="#47D382"></path>
            <path d="M98.7004344,46.452015 L93.9277859,36.1292246 L91.5414616,30.9678293 L84.9325108,16.6970376 L88.9735102,14.686863 C89.9624759,14.194907 90.3653819,12.9943829 89.8734259,12.0054172 C89.6618329,11.5800574 89.3057325,11.2439097 88.8688915,11.0571679 L70.0540687,3.01416141 C68.5305793,2.36289644 66.7675926,3.06997404 66.1163276,4.59346344 C66.0671182,4.70857795 66.0251626,4.82665988 65.9907072,4.94701659 L60.8325362,22.9650655 L60.8325362,22.9650655 C60.6669324,10.2994872 50.3066473,0.0466064666 37.5779557,0.0466064666 C24.7461011,0.0466064666 14.3081722,10.4647776 14.3081722,23.272343 C14.3081722,31.0117261 18.2354266,38.2709543 24.6505395,42.5625428 L24.6505395,46.451473 L20.54291,46.451473 C19.2928619,46.451473 18.2192016,47.339796 17.9851205,48.5677318 L17.9851205,48.5677318 L17.9851205,48.5677318 C16.7287031,55.0736694 16.611966,61.7600715 17.6387098,68.4285898 L2.62450994,95.1401448 C1.54205993,97.0659167 2.22570734,99.5045623 4.15147915,100.587012 C4.48670187,100.775436 4.84734403,100.914536 5.22227189,101.000017 L19.4793558,104.250537 L19.4793558,104.250537 L19.4793558,132.774263 C19.4793558,134.983402 21.2702168,136.774263 23.4793558,136.774263 L44.3347312,136.774263 C44.8870159,136.774263 45.3347312,137.221979 45.3347312,137.774263 L45.3347312,156 C45.3347312,158.209139 47.1255922,160 49.3347312,160 L103.387849,160 C105.596988,160 107.387849,158.209139 107.387849,156 L107.387849,124.038775 L107.387849,124.038775 C125.486449,111.259391 135.823387,90.7124422 135.808184,68.7922286 L135.813613,59.3782643 C135.813613,55.8296696 135.48512,52.1835265 134.823248,48.591035 C134.601731,47.3528876 133.524731,46.4514869 132.266924,46.451506 L98.7004344,46.452015 L98.7004344,46.452015 Z M93.004748,46.451473 L83.1977427,46.451473 L93.004748,46.451473 Z M70.2828146,8.73546088 L80.5605693,13.1305591 L78.1351517,14.3173982 L93.004748,46.452015 L83.1977427,46.452015 L69.8457291,17.1641862 L67.531619,18.3304317 L70.2828146,8.73546088 Z M67.531619,24.0486735 L77.5172593,46.452015 L50.5059148,46.451473 L50.5059148,42.5625428 C55.6798133,39.1017416 59.1906148,33.7008109 60.374818,27.6853251 L67.531619,24.0486735 Z M19.4798988,23.2750527 C19.4798988,13.316443 27.6010027,5.21071136 37.5784986,5.21071136 C47.5559945,5.21071136 55.6770985,13.316443 55.6770985,23.2750527 C55.6770985,29.6856096 52.2075622,35.6750825 46.6253552,38.9033932 L45.3352741,39.646387 L45.3352741,46.451473 L40.1640905,46.451473 L40.1640905,30.5391582 C43.1661353,29.4710031 45.3352741,26.6318021 45.3352741,23.2718011 C45.3352741,19.0035158 41.8548786,15.5297082 37.5784986,15.5297082 C33.3021187,15.5297082 29.8217232,19.0040577 29.8217232,23.272343 C29.8217232,26.6323441 31.990862,29.4710031 34.9929068,30.5397002 L34.9929068,46.452015 L29.8217232,46.452015 L29.8217232,39.646387 L28.5316421,38.9006835 C22.9494351,35.6723728 19.4798988,29.6850676 19.4798988,23.2750527 Z M37.5784986,25.8557503 C36.1510478,25.8557503 34.9929068,24.6965499 34.9929068,23.2750527 C34.9929068,21.8503038 36.1510478,20.6943551 37.5784986,20.6943551 C39.0059495,20.6943551 40.1640905,21.8503038 40.1640905,23.2750527 C40.1640905,24.6998015 39.0059495,25.8557503 37.5784986,25.8557503 Z M130.088607,51.6134102 C130.463795,54.1935659 130.652746,56.8105732 130.652746,59.3549611 L130.658194,68.7873512 C130.673922,89.4611127 120.453178,108.82068 103.354717,120.570387 L102.217208,121.344813 L102.217208,153.839147 C102.217208,154.391431 101.769493,154.839147 101.217208,154.839147 L51.5064578,154.839147 C50.954173,154.839147 50.5064578,154.391431 50.5064578,153.839147 L50.5064578,135.61341 C50.5064578,133.404271 48.7155968,131.61341 46.5064578,131.61341 L24.6505395,131.61341 L24.6505395,131.61341 L24.6505395,103.325879 C24.6505395,101.459002 23.35915,99.8403861 21.5388957,99.4257732 L9.19936859,96.6151068 C8.66087639,96.4924504 8.32377486,95.9564836 8.44643125,95.4179914 C8.46778978,95.3242221 8.5025631,95.2340242 8.54967693,95.1501841 L23.0292507,69.3834804 L23.0292507,69.3834804 L22.8821076,68.4621898 C21.9205194,62.8157622 21.8662231,56.7742635 22.7013008,51.6134102 L24.6505395,51.6134102 L50.5059148,51.6134102 L130.088607,51.6134102 Z" id="article_b_sdwan_p1_04" fill="#4D4D4D"></path>
        </g>
    </g>
</svg>