<?xml version="1.0" encoding="UTF-8"?>
<svg width="44px" height="44px" viewBox="0 0 44 44" version="1.1" xmlns="http://www.w3.org/2000/svg" xmlns:xlink="http://www.w3.org/1999/xlink">
    <!-- Generator: Sketch 58 (84663) - https://sketch.com -->
    <title>ic_a/noc/ic_a_noc_p1_05</title>
    <desc>Created with Sketch.</desc>
    <g id="ic_a/noc/ic_a_noc_p1_05" stroke="none" stroke-width="1" fill="none" fill-rule="evenodd">
        <path d="M22,2 C33.0277325,2 42,10.9722675 42,22 C42,33.0277325 33.0277325,42 22,42 C10.9722675,42 2,33.0277325 2,22 C2,10.9722675 10.9722675,2 22,2 Z M22,3.99836868 C12.0734095,3.99836868 3.99836868,12.0734095 3.99836868,22 C3.99836868,31.9265905 12.0734095,40.0016313 22,40.0016313 C31.9265905,40.0016313 40.0016313,31.9265905 40.0016313,22 C40.0016313,12.0734095 31.9265905,3.99836868 22,3.99836868 Z M21.314845,12.6117455 C21.7063622,12.2202284 22.3344209,12.2202284 22.725938,12.6117455 L22.725938,12.6117455 L28.3458401,18.2316476 C28.7373573,18.6231648 28.7373573,19.2512235 28.3458401,19.6427406 C28.1500816,19.8384992 27.8972268,19.9363785 27.6362153,19.9363785 C27.3752039,19.9363785 27.1223491,19.8384992 26.9265905,19.6427406 L26.9265905,19.6427406 L23.0114192,15.7275693 L23.0114192,30.6786297 C23.0114192,31.233279 22.5628059,31.6818923 22.0081566,31.6818923 C21.4535073,31.6818923 21.004894,31.233279 21.004894,30.6786297 L21.004894,30.6786297 L21.004894,15.7194127 L17.0897227,19.634584 C16.6982055,20.0261011 16.0619902,20.0261011 15.6949429,19.6427406 C15.3034258,19.2512235 15.3034258,18.6231648 15.6949429,18.2316476 L15.6949429,18.2316476 Z" id="Combined-Shape" fill="#47D382"></path>
    </g>
</svg>