<?xml version="1.0" encoding="UTF-8"?>
<svg width="44px" height="44px" viewBox="0 0 44 44" version="1.1" xmlns="http://www.w3.org/2000/svg" xmlns:xlink="http://www.w3.org/1999/xlink">
    <!-- Generator: Sketch 58 (84663) - https://sketch.com -->
    <title>ic_a/noc/ic_a_noc_p3_04</title>
    <desc>Created with Sketch.</desc>
    <g id="ic_a/noc/ic_a_noc_p3_04" stroke="none" stroke-width="1" fill="none" fill-rule="evenodd">
        <path d="M39.8125,38 C39.385,38 38.9828333,37.7664002 38.7706667,37.3744006 L38.7374167,37.3136006 C35.186,30.8320064 28.4188333,26.80001 21.0785,26.80001 L18.8333333,26.80001 L18.8333333,33.6000039 C18.8333333,34.0816035 18.54675,34.5168031 18.1081667,34.7056029 C17.67275,34.8912028 17.15975,34.7984029 16.8193333,34.4608032 L3.361,21.260815 C3.12983333,21.0352152 3,20.7248154 3,20.4000157 C3,20.075216 3.12983333,19.7648163 3.361,19.5392165 L16.8193333,6.33922828 C17.1613333,6.00322858 17.67275,5.90722866 18.1081667,6.0944285 C18.54675,6.28322833 18.8333333,6.71842794 18.8333333,7.20002751 L18.8333333,14.0032214 C31.0930833,14.2176212 41,24.3616122 41,36.8000011 C41,37.3488006 40.6326667,37.8272002 40.107,37.9632 C40.0088333,37.9888 39.9106667,38 39.8125,38 Z M17.6458333,24.4000121 L21.0785,24.4000121 C27.6905,24.4000121 33.8860833,27.3264095 38.1215,32.2576051 C36.0726667,23.1872132 28.0245833,16.4000193 18.4375,16.4000193 L17.6458333,16.4000193 C16.9903333,16.4000193 16.4583333,15.8624198 16.4583333,15.2000204 L16.4583333,10.036825 L5.89275,20.4000157 L16.4583333,30.7632065 L16.4583333,25.6000111 C16.4583333,24.9376117 16.9903333,24.4000121 17.6458333,24.4000121 L17.6458333,24.4000121 Z" id="Shape" fill="#47D382"></path>
    </g>
</svg>