<?xml version="1.0" encoding="UTF-8"?>
<svg width="44px" height="44px" viewBox="0 0 44 44" version="1.1" xmlns="http://www.w3.org/2000/svg" xmlns:xlink="http://www.w3.org/1999/xlink">
    <!-- Generator: Sketch 58 (84663) - https://sketch.com -->
    <title>ic_a/noc/ic_a_noc_p1_01</title>
    <desc>Created with Sketch.</desc>
    <g id="ic_a/noc/ic_a_noc_p1_01" stroke="none" stroke-width="1" fill="none" fill-rule="evenodd">
        <path d="M37.0664452,4 L6.93355482,4 C4.21760797,4 2,6.21359223 2,8.94313454 L2,28.0915395 C2,30.8127601 4.20930233,33.0346741 6.93355482,33.0346741 L20.8787375,33.0346741 L20.8787375,37.7531207 L13.9269103,37.7531207 C13.3039867,37.7531207 12.8056478,38.2524272 12.8056478,38.8765603 C12.8056478,39.5006935 13.3039867,40 13.9269103,40 L30.0730897,40 C30.6960133,40 31.1943522,39.5006935 31.1943522,38.8765603 C31.1943522,38.2524272 30.6960133,37.7531207 30.0730897,37.7531207 L23.1212625,37.7531207 L23.1212625,33.0346741 L37.0664452,33.0346741 C39.782392,33.0346741 42,30.8210818 42,28.0915395 L42,8.94313454 C42,6.21359223 39.7906977,4 37.0664452,4 Z M6.93355482,6.24687933 L37.0747508,6.24687933 C38.5531561,6.24687933 39.7657807,7.45353675 39.7657807,8.94313454 L39.7657807,24.9459085 L4.24252492,24.9459085 L4.24252492,8.94313454 C4.24252492,7.45353675 5.44684385,6.24687933 6.93355482,6.24687933 Z M37.0664452,30.7877947 L6.93355482,30.7877947 C5.4551495,30.7877947 4.24252492,29.5811373 4.24252492,28.0915395 L4.24252492,27.1927878 L39.7574751,27.1927878 L39.7574751,28.0915395 C39.7574751,29.5728155 38.5531561,30.7877947 37.0664452,30.7877947 Z" id="Shape" fill="#209CFF"></path>
    </g>
</svg>