<?xml version="1.0" encoding="UTF-8"?>
<svg width="44px" height="44px" viewBox="0 0 44 44" version="1.1" xmlns="http://www.w3.org/2000/svg" xmlns:xlink="http://www.w3.org/1999/xlink">
    <!-- Generator: Sketch 58 (84663) - https://sketch.com -->
    <title>ic_a/noc/ic_a_noc_p2_01</title>
    <desc>Created with Sketch.</desc>
    <g id="ic_a/noc/ic_a_noc_p2_01" stroke="none" stroke-width="1" fill="none" fill-rule="evenodd">
        <path d="M36.9918301,14.0282568 C39.6805986,14.0282568 41.8813945,16.1331767 41.9953638,18.7722108 L42,18.987326 L42,25.3320175 C42,27.0870039 41.0545854,28.700595 39.5664327,29.5879837 L39.369281,29.6995637 L39.369281,38.0457095 C39.369281,40.159379 37.6868597,41.8920783 35.5809812,41.9951495 L35.3823529,42 L30.8398693,42 C30.2843137,42 29.8349673,41.554332 29.8349673,41.0033243 C29.8349673,40.4916743 30.222414,40.070853 30.7225724,40.0133461 L30.8398693,40.0066487 L35.3823529,40.0066487 C36.4273619,40.0066487 37.2862684,39.2018848 37.3621917,38.1843518 L37.3676471,38.0376065 L37.3676471,29.0756285 C37.3676471,28.6623727 37.629085,28.2896322 38.0212418,28.1437773 C39.1466503,27.7357885 39.9181373,26.6988812 39.9924724,25.5332649 L39.998366,25.3482236 L39.998366,19.0035321 C39.998366,17.4173592 38.7448959,16.1175012 37.1682909,16.0266774 L36.9918301,16.0216081 L32.6944444,16.0216081 C32.1388889,16.0216081 31.6895425,15.5759402 31.6895425,15.0249325 C31.6895425,14.5132825 32.0769891,14.0924611 32.5771475,14.0349542 L32.6944444,14.0282568 L36.9918301,14.0282568 Z M25.880719,14.0201538 C28.5694874,14.0201538 30.7702834,16.1327558 30.8842527,18.7721943 L30.8888889,18.987326 L30.8888889,25.3320175 C30.8888889,27.0870039 29.9434743,28.700595 28.4553216,29.5879837 L28.2581699,29.6995637 L28.2581699,38.0214004 C28.2581699,40.1350698 26.5757486,41.8677692 24.4698701,41.9708403 L24.2712418,41.9756908 L19.7287582,41.9756908 C17.5976431,41.9756908 15.8506425,40.3070421 15.7392711,38.2184027 L15.7336601,38.0214004 L15.7336601,29.6995637 C14.1990741,28.8764284 13.1897184,27.3016645 13.1082696,25.5600788 L13.1029412,25.3320175 L13.1029412,18.987326 C13.1029412,16.3205682 15.2329801,14.1377883 17.8942038,14.024752 L18.1111111,14.0201538 L25.880719,14.0201538 Z M11.2973856,14.0120507 C11.8529412,14.0120507 12.3022876,14.4577187 12.3022876,15.0087264 C12.3022876,15.5597341 11.8529412,16.005402 11.2973856,16.005402 L11.2973856,16.005402 L7.01633987,16.005402 C5.35784314,16.005402 4.00980392,17.342406 4.00980392,18.987326 L4.00980392,18.987326 L4.00980392,25.3320175 C4.00980392,26.5798878 4.80228758,27.6981093 5.97875817,28.1275712 C6.37091503,28.2734261 6.63235294,28.6461666 6.63235294,29.0594224 L6.63235294,29.0594224 L6.63235294,38.0132973 C6.63235294,39.0991066 7.52287582,39.9823395 8.61764706,39.9823395 L8.61764706,39.9823395 L13.1601307,39.9823395 C13.7156863,39.9823395 14.1650327,40.4280075 14.1650327,40.9790152 C14.1650327,41.5300229 13.7156863,41.9756908 13.1601307,41.9756908 L13.1601307,41.9756908 L8.61764706,41.9756908 C6.41993464,41.9756908 4.63071895,40.201122 4.63071895,38.0132973 L4.63071895,38.0132973 L4.63071895,29.6914606 C3.02941176,28.8325369 2,27.1552047 2,25.3239144 L2,25.3239144 L2,18.9792229 C2,16.2403906 4.24673203,14.0120507 7.00816993,14.0120507 L7.00816993,14.0120507 Z M25.8888889,16.005402 L18.119281,16.005402 C16.5200163,16.005402 15.2094296,17.2486111 15.1178561,18.8123097 L15.1127451,18.987326 L15.1127451,25.3320175 C15.1127451,26.5717847 15.9052288,27.6981093 17.1062092,28.1275712 C17.4591503,28.2588406 17.7062092,28.5738874 17.7520915,28.9368475 L17.7598039,29.0594224 L17.7598039,38.0214004 C17.7598039,39.0578547 18.5712101,39.9097301 19.5971415,39.9850319 L19.745098,39.9904426 L24.2875817,39.9904426 C25.3325906,39.9904426 26.1914972,39.1856787 26.2674205,38.1681457 L26.2728758,38.0214004 L26.2728758,29.0594224 C26.2728758,28.6461666 26.5343137,28.2734261 26.9264706,28.1275712 C28.0441176,27.7195824 28.8152165,26.682675 28.8895323,25.5170588 L28.8954248,25.3320175 L28.8954248,18.987326 C28.8954248,17.342406 27.5473856,16.005402 25.8888889,16.005402 Z M33.6013072,3 C36.3872549,3 38.6503268,5.24454602 38.6503268,8.00768751 C38.6503268,10.770829 36.3872549,13.015375 33.6013072,13.015375 C30.8153595,13.015375 28.5522876,10.770829 28.5522876,8.00768751 C28.5522876,5.24454602 30.8153595,3 33.6013072,3 Z M22,3 C24.7859477,3 27.0490196,5.24454602 27.0490196,8.00768751 C27.0490196,10.770829 24.7859477,13.015375 22,13.015375 C19.2140523,13.015375 16.9509804,10.770829 16.9509804,8.00768751 C16.9509804,5.24454602 19.2140523,3 22,3 Z M10.3986928,3 C13.1846405,3 15.4477124,5.24454602 15.4477124,8.00768751 C15.4477124,10.770829 13.1764706,13.015375 10.3986928,13.015375 C7.6127451,13.015375 5.3496732,10.770829 5.3496732,8.00768751 C5.3496732,5.24454602 7.6127451,3 10.3986928,3 Z M33.6013072,4.98524829 C31.9183007,4.98524829 30.5539216,6.33845834 30.5539216,8.00768751 C30.5539216,9.67691668 31.9183007,11.0301267 33.6013072,11.0301267 C35.2843137,11.0301267 36.6486928,9.67691668 36.6486928,8.00768751 C36.6486928,6.33845834 35.2843137,4.98524829 33.6013072,4.98524829 Z M22,4.98524829 C20.3169935,4.98524829 18.9526144,6.3465614 18.9526144,8.00768751 C18.9526144,9.67691668 20.3169935,11.0301267 22,11.0301267 C23.6830065,11.0301267 25.0473856,9.67691668 25.0473856,8.00768751 C25.0473856,6.33845834 23.6830065,4.98524829 22,4.98524829 Z M10.3986928,4.98524829 C8.71568627,4.98524829 7.35130719,6.3465614 7.35130719,8.00768751 C7.35130719,9.67691668 8.71568627,11.0301267 10.3986928,11.0301267 C12.0816993,11.0301267 13.4460784,9.67691668 13.4460784,8.00768751 C13.4460784,6.33845834 12.0816993,4.98524829 10.3986928,4.98524829 Z" id="Combined-Shape" fill="#209CFF"></path>
    </g>
</svg>