<?xml version="1.0" encoding="UTF-8"?>
<svg width="80px" height="80px" viewBox="0 0 80 80" version="1.1" xmlns="http://www.w3.org/2000/svg" xmlns:xlink="http://www.w3.org/1999/xlink">
    <!-- Generator: Sketch 59.1 (86144) - https://sketch.com -->
    <title>ic/cat_d/ic_cat_d_05</title>
    <desc>Created with Sketch.</desc>
    <g id="ic/cat_d/ic_cat_d_05" stroke="none" stroke-width="1" fill="none" fill-rule="evenodd">
        <path d="M24.3075545,31.1437151 C27.8874123,24.0778565 35.5981652,20.0707912 43.4722213,21.1843671 C51.3462775,22.297943 57.6292744,28.2840521 59.0882767,36.0625235 C64.6754139,37.1908155 68.5007853,42.3389762 67.9467501,47.9842009 C67.3927148,53.6294257 62.6386369,57.9441232 56.9376563,57.9758146 L56.9376563,57.9758146 L27.2739274,57.9758146 C26.7553181,58.0080618 26.235191,58.0080618 25.7165817,57.9758146 C18.8358431,57.5320234 13.3785145,52.0339431 13.018762,45.1831758 C12.6590094,38.3324086 17.5107596,32.2984633 24.3075545,31.1437151 Z M50.1100923,34.2142857 L30.8897814,34.2142857 C30.3612321,34.2142857 29.9088811,34.4052245 29.5322656,34.7867183 C29.1558604,35.16834 28.9677419,35.626815 28.9677419,36.1626122 L28.9677419,49.4107463 C28.9677419,49.9466715 29.1558604,50.4051037 29.5322656,50.7868108 C29.9088811,51.1683046 30.3612321,51.3589022 30.8897814,51.3589022 L37.4248251,51.3589022 C37.4248251,51.6672959 37.3607024,51.9841767 37.2325412,52.308649 C37.1044642,52.6333772 36.976303,52.9173757 36.8481417,53.1608153 C36.7201488,53.4045533 36.6560682,53.5829107 36.6560682,53.6964846 C36.6560682,53.907511 36.7320982,54.0905598 36.8842844,54.2443941 C37.0363864,54.3988255 37.2165947,54.4761905 37.4248251,54.4761905 L43.5753431,54.4761905 C43.7835735,54.4761905 43.9638239,54.3988681 44.1159259,54.2443941 C44.2682383,54.0906024 44.3442683,53.9075536 44.3442683,53.6964846 C44.3442683,53.5912273 44.2800615,53.4145331 44.1519423,53.1669993 C44.0237811,52.9195935 43.8956199,52.6310741 43.767627,52.3026355 C43.6394658,51.973813 43.5753852,51.6592779 43.5753852,51.3589022 L50.1104289,51.3589022 C50.638894,51.3589022 51.0911609,51.1683046 51.467524,50.7868108 C51.8440554,50.4051464 52.0322581,49.9467141 52.0322581,49.4107463 L52.0322581,36.1626122 C52.0322581,35.626815 51.8440133,35.16834 51.4674819,34.7867183 C51.0911188,34.4052245 50.6388519,34.2142857 50.1100923,34.2142857 Z M49.8403058,36.0056809 C49.9442737,36.0056809 50.0345672,36.0442354 50.1104289,36.1213445 C50.1865009,36.1984963 50.2244949,36.2897647 50.2244949,36.395278 L50.2244949,46.2935006 C50.2244949,46.3990565 50.1865009,46.4902397 50.1104289,46.5674767 C50.0342727,46.6444152 49.9441475,46.6829271 49.8400112,46.6829271 L31.1086171,46.6829271 C31.004565,46.6829271 30.9144399,46.6444152 30.8383678,46.5674767 C30.7623378,46.4899838 30.7242597,46.3990565 30.7242597,46.2935006 L30.7242597,36.395278 C30.7242597,36.2897221 30.7622116,36.1984536 30.8383678,36.1213445 C30.9144819,36.0443634 31.0046071,36.0056809 31.1086171,36.0056809 L49.8403058,36.0056809 Z" id="Combined-Shape" fill="#209CFF"></path>
    </g>
</svg>