<?xml version="1.0" encoding="UTF-8"?>
<svg width="120px" height="120px" viewBox="0 0 120 120" version="1.1" xmlns="http://www.w3.org/2000/svg" xmlns:xlink="http://www.w3.org/1999/xlink">
    <!-- Generator: Sketch 55.2 (78181) - https://sketchapp.com -->
    <title>icon/120/evaluation</title>
    <desc>Created with Sketch.</desc>
    <g id="icon/120/evaluation" stroke="none" stroke-width="1" fill="none" fill-rule="evenodd">
        <path d="M93.3333333,74.6666667 C97.0666667,74.6666667 100,77.6 100,81.3333333 L100,98.6666667 C100,99.4030463 99.4030463,100 98.6666667,100 C97.930287,100 97.3333333,99.4030463 97.3333333,98.6666667 L97.3333333,81.3333333 C97.3333333,79.2 95.6,77.3333333 93.4666667,77.3333333 L86.9333333,78.4 L89.3333333,94.4 C89.3333333,94.9333333 89.2,95.3333333 88.9333333,95.6 L84.9333333,99.6 C84.4,100.133333 83.6,100.133333 83.0666667,99.6 L79.0666667,95.6 C78.8,95.2 78.6666667,94.8 78.6666667,94.4 L81.0666667,78.4 L74.5333333,77.3333333 C72.4,77.3333333 70.6666667,79.2 70.6666667,81.3333333 L70.6666667,98.6666667 C70.6666667,99.4030463 70.069713,100 69.3333333,100 C68.5969537,100 68,99.4030463 68,98.6666667 L68,81.3333333 C68,77.6 70.9333333,74.6666667 74.6666667,74.6666667 C76.8,74.6666667 78.5333333,73.0666667 78.6666667,70.9333333 C73.8666667,68.8 70.6666667,64 70.6666667,58.6666667 C70.6666667,57.3333333 70.9333333,56.1333333 71.2,54.8 C69.2,52.6666667 68,49.7333333 68,46.6666667 C68,45.8666667 68.5333333,45.3333333 69.3333333,45.3333333 L85.3333333,45.3333333 C92,45.3333333 97.3333333,50.6666667 97.3333333,57.3333333 C97.3333333,57.4666667 97.3333333,58 97.3333333,58.2666667 C97.4666667,63.7333333 94.4,68.8 89.3333333,70.9333333 C89.4666667,73.0666667 91.2,74.6666667 93.3333333,74.6666667 Z M70.8,48 C71.4666667,52.5333333 75.3333333,56 80,56 L94.5333333,56 C93.8666667,51.4666667 90,48 85.3333333,48 L70.8,48 Z M84,96.8 L86.6666667,94.2666667 L84.2666667,78.6666667 L83.8666667,78.6666667 L81.4666667,94.2666667 L84,96.8 Z M85.2,76 L88.6666667,75.4666667 C87.3333333,74.1333333 86.6666667,72.4 86.6666667,70.6666667 L86.6666667,69.8666667 C86.6666667,69.3333333 87.0666667,68.8 87.6,68.6666667 C91.8666667,67.2 94.6666667,63.2 94.6666667,58.6666667 L80,58.6666667 C77.6,58.6666667 75.3333333,58 73.4666667,56.8 C73.3333333,57.3333333 73.3333333,58 73.3333333,58.6666667 C73.3333333,63.2 76.1333333,67.2 80.4,68.8 C80.9333333,68.9333333 81.3333333,69.4666667 81.3333333,70 L81.3333333,70.6666667 C81.3333333,72.5333333 80.6666667,74.2666667 79.3333333,75.4666667 L82.8,76 L85.2,76 Z M98.6666667,20 C99.4666667,20 100,20.5333333 100,21.3333333 L100,26.6666667 C100,27.4666667 99.4666667,28 98.6666667,28 L97.3333333,28 L97.3333333,45.3333333 C97.3333333,46.069713 96.7363797,46.6666667 96,46.6666667 C95.2636203,46.6666667 94.6666667,46.069713 94.6666667,45.3333333 L94.6666667,28 L25.3333333,28 L25.3333333,76 L64,76 C64.7363797,76 65.3333333,76.5969537 65.3333333,77.3333333 C65.3333333,78.069713 64.7363797,78.6666667 64,78.6666667 L22.6666667,78.6666667 L22.6666667,81.3333333 L64,81.3333333 C64.7363797,81.3333333 65.3333333,81.930287 65.3333333,82.6666667 C65.3333333,83.4030463 64.7363797,84 64,84 L64,98.6666667 C64,99.4666667 63.4666667,100 62.6666667,100 L57.3333333,100 C56.5333333,100 56,99.4666667 56,98.6666667 L56,84 L21.3333333,84 C20.5333333,84 20,83.4666667 20,82.6666667 L20,77.3333333 C20,76.5333333 20.5333333,76 21.3333333,76 L22.6666667,76 L22.6666667,28 L21.3333333,28 C20.5333333,28 20,27.4666667 20,26.6666667 L20,21.3333333 C20,20.5333333 20.5333333,20 21.3333333,20 L98.6666667,20 Z M58.6666667,84 L58.6666667,97.3333333 L61.3333333,97.3333333 L61.3333333,84 L58.6666667,84 Z M97.3333333,25.3333333 L97.3333333,22.6666667 L22.6666667,22.6666667 L22.6666667,25.3333333 L97.3333333,25.3333333 Z M90.6666667,30.6666667 C91.4666667,30.6666667 92,31.2 92,32 L92,41.3333333 C92,42.069713 91.4030463,42.6666667 90.6666667,42.6666667 C89.930287,42.6666667 89.3333333,42.069713 89.3333333,41.3333333 L89.3333333,33.3333333 L30.6666667,33.3333333 L30.6666667,47.0666667 L40.8,50.5333333 L48.2666667,43.0666667 C48.8,42.6666667 49.3333333,42.5333333 49.8666667,42.8 L57.2,46.4 L71.2,36.2666667 C71.4666667,36.1333333 71.7333333,36 72,36 L76,36 C76.7363797,36 77.3333333,36.5969537 77.3333333,37.3333333 C77.3333333,38.069713 76.7363797,38.6666667 76,38.6666667 L72.4,38.6666667 L58.1333333,49.2 C57.7333333,49.4666667 57.2,49.6 56.8,49.3333333 L49.6,45.7333333 L42.2666667,53.0666667 C42,53.3333333 41.7333333,53.4666667 41.3333333,53.4666667 C41.2,53.4666667 41.0666667,53.3333333 40.9333333,53.3333333 L30.6666667,49.8666667 L30.6666667,57.3333333 L66.6666667,57.3333333 C67.4030463,57.3333333 68,57.930287 68,58.6666667 C68,59.4030463 67.4030463,60 66.6666667,60 L29.3333333,60 C28.5333333,60 28,59.4666667 28,58.6666667 L28,32 C28,31.2 28.5333333,30.6666667 29.3333333,30.6666667 L90.6666667,30.6666667 Z M85.3333333,35.3333333 C85.3333333,35.7015232 85.6318102,36 86,36 C86.3681898,36 86.6666667,36.2984768 86.6666667,36.6666667 L86.6666667,38 C86.6666667,38.3681898 86.3681898,38.6666667 86,38.6666667 C85.6318102,38.6666667 85.3333333,38.9651435 85.3333333,39.3333333 C85.3333333,39.7015232 85.0348565,40 84.6666667,40 L83.3333333,40 C82.9651435,40 82.6666667,39.7015232 82.6666667,39.3333333 C82.6666667,38.9651435 82.3681898,38.6666667 82,38.6666667 C81.6318102,38.6666667 81.3333333,38.3681898 81.3333333,38 L81.3333333,36.6666667 C81.3333333,36.2984768 81.6318102,36 82,36 C82.3681898,36 82.6666667,35.7015232 82.6666667,35.3333333 C82.6666667,34.9651435 82.9651435,34.6666667 83.3333333,34.6666667 L84.6666667,34.6666667 C85.0348565,34.6666667 85.3333333,34.9651435 85.3333333,35.3333333 Z M50.6666667,36.6666667 C50.6666667,37.0348565 50.9651435,37.3333333 51.3333333,37.3333333 C51.7015232,37.3333333 52,37.6318102 52,38 L52,39.3333333 C52,39.7015232 51.7015232,40 51.3333333,40 C50.9651435,40 50.6666667,40.2984768 50.6666667,40.6666667 C50.6666667,41.0348565 50.3681898,41.3333333 50,41.3333333 L48.6666667,41.3333333 C48.2984768,41.3333333 48,41.0348565 48,40.6666667 C48,40.2984768 47.7015232,40 47.3333333,40 C46.9651435,40 46.6666667,39.7015232 46.6666667,39.3333333 L46.6666667,38 C46.6666667,37.6318102 46.9651435,37.3333333 47.3333333,37.3333333 C47.7015232,37.3333333 48,37.0348565 48,36.6666667 C48,36.2984768 48.2984768,36 48.6666667,36 L50,36 C50.3681898,36 50.6666667,36.2984768 50.6666667,36.6666667 Z" id="Combined-Shape" fill="#4D4D4D"></path>
        <rect id="Rectangle" fill="#47D382" x="89.3333333" y="84" width="4" height="2.66666667"></rect>
        <path d="M64.9333333,68.4 L58.2666667,61.7333333 C57.7333333,61.2 56.9333333,61.2 56.4,61.7333333 L49.7333333,68.4 C49.2,68.9333333 49.2,69.7333333 49.7333333,70.2666667 C50,70.5333333 50.2666667,70.6666667 50.6666667,70.6666667 L53.3333333,70.6666667 L53.3333333,73.3333333 C53.3333333,74.1333333 53.8666667,74.6666667 54.6666667,74.6666667 L60,74.6666667 C60.8,74.6666667 61.3333333,74.1333333 61.3333333,73.3333333 L61.3333333,70.6666667 L64,70.6666667 C64.8,70.6666667 65.3333333,70.1333333 65.3333333,69.3333333 C65.3333333,68.9333333 65.2,68.6666667 64.9333333,68.4 Z M60,68 C59.2,68 58.6666667,68.5333333 58.6666667,69.3333333 L58.6666667,72 L56,72 L56,69.3333333 C56,68.5333333 55.4666667,68 54.6666667,68 L53.8666667,68 L57.3333333,64.5333333 L60.8,68 L60,68 Z" id="Shape" fill="#209CFF"></path>
        <path d="M40,71.4666667 L43.4666667,68 L42.6666667,68 C41.8666667,68 41.3333333,67.4666667 41.3333333,66.6666667 L41.3333333,64 L38.6666667,64 L38.6666667,66.6666667 C38.6666667,67.4666667 38.1333333,68 37.3333333,68 L36.5333333,68 L40,71.4666667 Z M47.6,65.7333333 C48.1333333,66.2666667 48.1333333,67.0666667 47.6,67.6 L40.9333333,74.2666667 C40.4,74.8 39.6,74.8 39.0666667,74.2666667 L32.4,67.6 C32.1333333,67.3333333 32,67.0666667 32,66.6666667 C32,65.8666667 32.5333333,65.3333333 33.3333333,65.3333333 L36,65.3333333 L36,62.6666667 C36,61.8666667 36.5333333,61.3333333 37.3333333,61.3333333 L42.6666667,61.3333333 C43.4666667,61.3333333 44,61.8666667 44,62.6666667 L44,65.3333333 L46.6666667,65.3333333 C47.0666667,65.3333333 47.3333333,65.4666667 47.6,65.7333333 Z" id="Combined-Shape" fill="#FF874D"></path>
    </g>
</svg>