<?xml version="1.0" encoding="UTF-8"?>
<svg width="120px" height="120px" viewBox="0 0 120 120" version="1.1" xmlns="http://www.w3.org/2000/svg" xmlns:xlink="http://www.w3.org/1999/xlink">
    <!-- Generator: Sketch 55.2 (78181) - https://sketchapp.com -->
    <title>icon/120/transfer</title>
    <desc>Created with Sketch.</desc>
    <g id="icon/120/transfer" stroke="none" stroke-width="1" fill="none" fill-rule="evenodd">
        <path d="M60,81.9354839 C62.8464516,81.9354839 65.1612903,84.2503226 65.1612903,87.0967742 C65.1612903,89.4941935 63.5096774,91.4980645 61.2903226,92.0748387 L61.2903226,93.5483871 C61.2903226,94.2610126 60.7126255,94.8387097 60,94.8387097 C59.2873745,94.8387097 58.7096774,94.2610126 58.7096774,93.5483871 L58.7096774,92.0748387 C56.4903226,91.4980645 54.8387097,89.4941935 54.8387097,87.0967742 C54.8922525,86.5137628 55.3306595,86.0393769 55.9076478,85.9401113 C56.611798,85.8189687 57.2808302,86.2915898 57.4019728,86.9957401 L57.4193548,87.0967742 C57.4193548,88.52 58.5767742,89.6774194 60,89.6774194 C61.4232258,89.6774194 62.5806452,88.52 62.5806452,87.0967742 C62.5806452,85.6735484 61.4232258,84.516129 60,84.516129 C57.1535484,84.516129 54.8387097,82.2012903 54.8387097,79.3548387 C54.8387097,76.9574194 56.4903226,74.9535484 58.7096774,74.3767742 L58.7096774,72.9032258 C58.7096774,72.1906003 59.2873745,71.6129032 60,71.6129032 C60.7126255,71.6129032 61.2903226,72.1906003 61.2903226,72.9032258 L61.2903226,74.3767742 C63.5096774,74.9535484 65.1612903,76.9574194 65.1612903,79.3548387 L65.1413623,79.5142632 C65.0609608,80.157475 64.5141838,80.64016 63.8659664,80.64016 C63.1561031,80.64016 62.5806452,80.064702 62.5806452,79.3548387 C62.5806452,77.9316129 61.4232258,76.7741935 60,76.7741935 C58.5767742,76.7741935 57.4193548,77.9316129 57.4193548,79.3548387 C57.4193548,80.7780645 58.5767742,81.9354839 60,81.9354839 Z M70.3225806,81.9354839 C71.0352061,81.9354839 71.6129032,82.513181 71.6129032,83.2258065 C71.6129032,83.9384319 71.0352061,84.516129 70.3225806,84.516129 C69.6099552,84.516129 69.0322581,83.9384319 69.0322581,83.2258065 C69.0322581,82.513181 69.6099552,81.9354839 70.3225806,81.9354839 Z M49.6774194,81.9354839 C50.3900448,81.9354839 50.9677419,82.513181 50.9677419,83.2258065 C50.9677419,83.9384319 50.3900448,84.516129 49.6774194,84.516129 C48.9647939,84.516129 48.3870968,83.9384319 48.3870968,83.2258065 C48.3870968,82.513181 48.9647939,81.9354839 49.6774194,81.9354839 Z" id="Combined-Shape" fill="#209CFF"></path>
        <path d="M94.8387097,51.4606452 L94.8387097,32.9032258 C94.8387097,25.7883871 89.0503226,20 81.9354839,20 C74.8206452,20 69.0322581,25.7883871 69.0322581,32.9032258 L69.0322581,51.4606452 C66.0412903,52.0722581 63.8709677,54.723871 63.8709677,57.7793548 L63.8709677,59.2903226 C63.8709677,60.3948921 64.7663982,61.2903226 65.8709677,61.2903226 L81.9354839,61.2903226 L81.9354839,80.6451613 C81.9354839,81.356129 81.356129,81.9354839 80.6451613,81.9354839 L76.7083871,81.9354839 C76.0464516,73.2890323 68.8141935,66.4516129 60,66.4516129 C51.1858065,66.4516129 43.9535484,73.2890323 43.2916129,81.9354839 L39.3548387,81.9354839 C38.643871,81.9354839 38.0645161,81.356129 38.0645161,80.6451613 L38.0645161,61.2903226 L54.1290323,61.2903226 C55.2336018,61.2903226 56.1290323,60.3948921 56.1290323,59.2903226 L56.1290323,57.7793548 C56.1290323,54.7148387 53.9483871,52.0541935 50.9432258,51.4529032 L43.2258065,49.9096774 L43.2258065,48.0464516 C44.5174194,47.1432258 45.5574194,45.9109677 46.2335484,44.4722581 C48.8774194,44.2516129 50.9677419,42.0541935 50.9677419,39.3548387 L50.9677419,32.9032258 C50.9677419,25.7883871 45.1793548,20 38.0645161,20 C30.9496774,20 25.1612903,25.7883871 25.1612903,32.9032258 L25.1612903,39.3548387 C25.1612903,42.0541935 27.2516129,44.2516129 29.8954839,44.4722581 C30.5729032,45.9109677 31.6116129,47.1432258 32.9032258,48.0464516 L32.9032258,49.9096774 L25.1858065,51.4529032 C22.1806452,52.0541935 20,54.7148387 20,57.7793548 L20,59.2903226 C20,60.3948921 20.8954305,61.2903226 22,61.2903226 L35.483871,61.2903226 L35.483871,80.6451613 C35.483871,82.7793548 37.2206452,84.516129 39.3548387,84.516129 L43.2916129,84.516129 C43.9535484,93.1625806 51.1858065,100 60,100 C64.7295253,100 67.5278809,99.0783116 69.9635374,96.9541529 L70.0191596,96.8968944 C70.515425,96.3860295 70.5035898,95.5695891 69.9927249,95.0733237 C69.5224696,94.6165073 68.7843103,94.5852196 68.2770858,95.0006045 L68.2770858,95.0006045 C65.6525357,97.4865238 63.403871,97.4193548 60,97.4193548 C52.1741935,97.4193548 45.8064516,91.0516129 45.8064516,83.2258065 C45.8064516,75.4 52.1741935,69.0322581 60,69.0322581 C67.8258065,69.0322581 74.1935484,75.4 74.1935484,83.2258065 C74.1935484,86.4980645 74.1696883,88.4155008 72.1219463,90.960017 L72.0406585,91.0879371 C71.6596231,91.6875607 71.8368239,92.482542 72.4364476,92.8635774 C72.9918958,93.2165412 73.7241699,93.0933546 74.1335592,92.5780815 L74.1335592,92.5780815 C75.9262535,90.3809587 76.4580645,87.8722581 76.7187097,84.516129 L80.6451613,84.516129 C82.7793548,84.516129 84.516129,82.7793548 84.516129,80.6451613 L84.516129,61.2903226 L98,61.2903226 C99.1045695,61.2903226 100,60.3948921 100,59.2903226 L100,57.7793548 C100,54.723871 97.8296774,52.0722581 94.8387097,51.4606452 Z M47.043871,41.6051613 C47.0774194,41.2890323 47.0967742,40.9690323 47.0967742,40.6451613 L47.0967742,37.1329032 C47.8645161,37.5806452 48.3870968,38.403871 48.3870968,39.3548387 C48.3870968,40.3277419 47.84,41.1651613 47.043871,41.6051613 Z M27.7419355,39.3548387 C27.7419355,38.403871 28.2645161,37.5806452 29.0322581,37.1329032 L29.0322581,40.6451613 C29.0322581,40.9690323 29.0516129,41.2890323 29.0851613,41.6051613 C28.2890323,41.1651613 27.7419355,40.3277419 27.7419355,39.3548387 Z M29.2322581,34.3148387 C28.6967742,34.4309677 28.2012903,34.643871 27.7419355,34.9109677 L27.7419355,32.9032258 C27.7419355,27.2116129 32.3729032,22.5806452 38.0645161,22.5806452 C43.756129,22.5806452 48.3870968,27.2116129 48.3870968,32.9032258 L48.3870968,34.9109677 C47.9277419,34.6425806 47.4322581,34.4296774 46.8967742,34.3135484 C46.3974194,32.7535484 44.9496774,31.6129032 43.2258065,31.6129032 L32.9032258,31.6129032 C31.1793548,31.6129032 29.7316129,32.7535484 29.2322581,34.3148387 Z M31.6129032,40.6451613 L31.6129032,35.483871 C31.6129032,34.7729032 32.1922581,34.1935484 32.9032258,34.1935484 L43.2258065,34.1935484 C43.9367742,34.1935484 44.516129,34.7729032 44.516129,35.483871 L44.516129,40.6451613 C44.516129,44.2025806 41.6219355,47.0967742 38.0645161,47.0967742 C34.5070968,47.0967742 31.6129032,44.2025806 31.6129032,40.6451613 Z M40.6451613,49.2967742 L40.6451613,50.4335484 L38.0645161,53.0141935 L35.483871,50.4335484 L35.483871,49.2967742 C36.3019355,49.5419355 37.1677419,49.6774194 38.0645161,49.6774194 C38.9612903,49.6774194 39.8270968,49.5419355 40.6451613,49.2967742 Z M22.5806452,58.7096774 L22.5806452,57.7793548 C22.5806452,55.9406452 23.8890323,54.3445161 25.6929032,53.9832258 L33.7703226,52.3677419 L36.650515,55.2487998 C37.4312338,56.0301781 38.6975638,56.0303683 39.4787297,55.2494371 C39.4788005,55.2493663 39.4788713,55.2492955 39.4787297,55.2490122 L42.36,52.3677419 L50.4374194,53.9832258 C52.24,54.3445161 53.5483871,55.9406452 53.5483871,57.7793548 L53.5483871,58.7096774 L22.5806452,58.7096774 Z M71.6129032,32.9032258 C71.6129032,27.2116129 76.243871,22.5806452 81.9354839,22.5806452 C87.6270968,22.5806452 92.2580645,27.2116129 92.2580645,32.9032258 L92.2580645,34.9109677 C91.8580645,34.6774194 91.4270968,34.4954839 90.9677419,34.3767742 L90.9677419,34.1935484 C90.9677419,33.4809229 90.3900448,32.9032258 89.6774194,32.9032258 L89.6774194,32.9032258 C87.5264516,32.9032258 85.5032258,32.0658065 83.9819355,30.5445161 C82.8517115,29.4142921 81.0192563,29.4142921 79.8890323,30.5445161 L79.8890323,30.5445161 C78.3677419,32.0658065 76.3445161,32.9032258 74.1935484,32.9032258 C73.4809229,32.9032258 72.9032258,33.4809229 72.9032258,34.1935484 L72.9032258,34.3767742 C72.443871,34.4967742 72.0129032,34.6774194 71.6129032,34.9109677 L71.6129032,32.9032258 Z M81.9354839,47.0967742 C78.3780645,47.0967742 75.483871,44.2025806 75.483871,40.6451613 L75.483871,35.4064516 C77.836129,35.123871 80.0129032,34.0696774 81.7135484,32.3690323 L81.9354839,32.1470968 L82.1574194,32.3690323 C83.8580645,34.0696774 86.0348387,35.123871 88.3870968,35.4064516 L88.3870968,40.6451613 C88.3870968,44.2025806 85.4929032,47.0967742 81.9354839,47.0967742 Z M84.516129,49.2967742 L84.516129,50.4335484 L81.9354839,53.0141935 L79.3548387,50.4335484 L79.3548387,49.2967742 C80.1729032,49.5419355 81.0387097,49.6774194 81.9354839,49.6774194 C82.8322581,49.6774194 83.6980645,49.5419355 84.516129,49.2967742 Z M87.0967742,48.0464516 C88.3883871,47.1432258 89.4283871,45.9109677 90.1045161,44.4722581 C90.8864516,44.4064516 91.6141935,44.1729032 92.2580645,43.7974194 L92.2580645,50.9419355 L87.0967742,49.9096774 L87.0967742,48.0464516 Z M90.9148387,41.6051613 C90.9483871,41.2890323 90.9677419,40.9690323 90.9677419,40.6451613 L90.9677419,37.1329032 C91.7354839,37.5806452 92.2580645,38.403871 92.2580645,39.3548387 C92.2580645,40.3277419 91.7109677,41.1651613 90.9148387,41.6051613 Z M72.9032258,37.1329032 L72.9032258,40.6451613 C72.9032258,40.9690323 72.9225806,41.2890323 72.956129,41.6051613 C72.16,41.1651613 71.6129032,40.3277419 71.6129032,39.3548387 C71.6129032,38.403871 72.1354839,37.5806452 72.9032258,37.1329032 Z M71.6129032,43.7974194 C72.2567742,44.1729032 72.9845161,44.4064516 73.7664516,44.4722581 C74.443871,45.9109677 75.4825806,47.1432258 76.7741935,48.0464516 L76.7741935,49.9096774 L71.6129032,50.9419355 L71.6129032,43.7974194 Z M97.4193548,58.7096774 L66.4516129,58.7096774 L66.4516129,57.7793548 C66.4516129,55.9406452 67.76,54.3445161 69.563871,53.9832258 L77.6412903,52.3677419 L80.5214828,55.2487998 C81.3022016,56.0301781 82.5685315,56.0303683 83.3496974,55.2494371 C83.3497682,55.2493663 83.349839,55.2492955 83.3496974,55.2490122 L86.2309677,52.3677419 L94.3083871,53.9832258 C96.1109677,54.3445161 97.4193548,55.9406452 97.4193548,57.7793548 L97.4193548,58.7096774 Z" id="Shape" fill="#4D4D4D"></path>
        <path d="M80.6451613,87.0967742 C81.3577868,87.0967742 81.9354839,87.6744713 81.9354839,88.3870968 C81.9354839,89.0997223 81.3577868,89.6774194 80.6451613,89.6774194 C79.9325358,89.6774194 79.3548387,89.0997223 79.3548387,88.3870968 C79.3548387,87.6744713 79.9325358,87.0967742 80.6451613,87.0967742 Z M85.8064516,87.0967742 C86.5190771,87.0967742 87.0967742,87.6744713 87.0967742,88.3870968 C87.0967742,89.0997223 86.5190771,89.6774194 85.8064516,89.6774194 C85.0938261,89.6774194 84.516129,89.0997223 84.516129,88.3870968 C84.516129,87.6744713 85.0938261,87.0967742 85.8064516,87.0967742 Z M90.9677419,87.0967742 C91.6803674,87.0967742 92.2580645,87.6744713 92.2580645,88.3870968 C92.2580645,89.0997223 91.6803674,89.6774194 90.9677419,89.6774194 C90.2551165,89.6774194 89.6774194,89.0997223 89.6774194,88.3870968 C89.6774194,87.6744713 90.2551165,87.0967742 90.9677419,87.0967742 Z" id="Combined-Shape" fill="#47D382"></path>
        <path d="M29.0322581,87.0967742 C29.7448835,87.0967742 30.3225806,87.6744713 30.3225806,88.3870968 C30.3225806,89.0997223 29.7448835,89.6774194 29.0322581,89.6774194 C28.3196326,89.6774194 27.7419355,89.0997223 27.7419355,88.3870968 C27.7419355,87.6744713 28.3196326,87.0967742 29.0322581,87.0967742 Z M34.1935484,87.0967742 C34.9061739,87.0967742 35.483871,87.6744713 35.483871,88.3870968 C35.483871,89.0997223 34.9061739,89.6774194 34.1935484,89.6774194 C33.4809229,89.6774194 32.9032258,89.0997223 32.9032258,88.3870968 C32.9032258,87.6744713 33.4809229,87.0967742 34.1935484,87.0967742 Z M39.3548387,87.0967742 C40.0674642,87.0967742 40.6451613,87.6744713 40.6451613,88.3870968 C40.6451613,89.0997223 40.0674642,89.6774194 39.3548387,89.6774194 C38.6422132,89.6774194 38.0645161,89.0997223 38.0645161,88.3870968 C38.0645161,87.6744713 38.6422132,87.0967742 39.3548387,87.0967742 Z" id="Combined-Shape" fill="#FF874D"></path>
    </g>
</svg>