<?xml version="1.0" encoding="UTF-8"?>
<svg width="80px" height="80px" viewBox="0 0 80 80" version="1.1" xmlns="http://www.w3.org/2000/svg" xmlns:xlink="http://www.w3.org/1999/xlink">
    <!-- Generator: Sketch 59.1 (86144) - https://sketch.com -->
    <title>ic/cat_b/ic_cat_b_01</title>
    <desc>Created with Sketch.</desc>
    <g id="ic/cat_b/ic_cat_b_01" stroke="none" stroke-width="1" fill="none" fill-rule="evenodd">
        <path d="M48.0833333,16 L48.0833333,24.7272727 C48.0833333,26.5178683 49.3962148,27.9016755 51.1444018,27.9949813 L51.3333333,28 L60,28 L60,61.8181818 C60,62.9660079 59.1079395,63.9142121 57.9874771,63.9944948 L57.8333333,64 L23.1666667,64 C22.0268116,64 21.0851922,63.1017013 21.005467,61.9734035 L21,61.8181818 L21,18.1818182 C21,17.0339921 21.8920605,16.0857879 23.0125229,16.0055052 L23.1666667,16 L48.0833333,16 Z M54.3837745,44.8 L46.4245676,52.7431615 L43.3306507,49.655771 L40.8979592,52.084051 L46.424614,57.6 L56.8163265,47.2283264 L54.3837745,44.8 Z M32.9166667,20.3636364 L30.75,20.3636364 C28.9718391,20.3636364 27.5976417,21.6856988 27.5049838,23.446111 L27.5,23.6363636 L27.5,24.7272727 C27.5,25.8750988 26.6079395,26.823303 25.4874771,26.9035857 L25.3333333,26.9090909 L25.3333333,29.0909091 C26.4731884,29.0909091 27.4148078,29.9892078 27.494533,31.1175056 L27.5,31.2727273 L27.5,32.3636364 C27.5,34.154232 28.8128815,35.5380391 30.5610685,35.631345 L30.75,35.6363636 L32.9166667,35.6363636 L32.9166667,33.4545455 L30.75,33.4545455 C30.1433333,33.4545455 29.7254074,33.0744242 29.6723802,32.4915717 L29.6666667,32.3636364 L29.6666667,30.4 C29.6666667,29.5272727 29.2333333,28.6545455 28.5833333,28 C29.1869048,27.4935065 29.6036565,26.7048237 29.660113,25.8086403 L29.6666667,25.6 L29.6666667,23.6363636 C29.6666667,23.0254545 30.0441481,22.6046061 30.6229531,22.5512081 L30.75,22.5454545 L32.9166667,22.5454545 L32.9166667,20.3636364 Z M37.25,20.3636364 L35.0833333,20.3636364 L35.0833333,22.5454545 L37.25,22.5454545 C37.8566667,22.5454545 38.2745926,22.9255758 38.3276198,23.5084283 L38.3333333,23.6363636 L38.3333333,25.6 C38.3333333,26.4727273 38.7666667,27.3454545 39.4166667,28 C38.8130952,28.5064935 38.3963435,29.2951763 38.339887,30.1913597 L38.3333333,30.4 L38.3333333,32.3636364 C38.3333333,32.9745455 37.9558519,33.3953939 37.3770469,33.4487919 L37.25,33.4545455 L35.0833333,33.4545455 L35.0833333,35.6363636 L37.25,35.6363636 C39.0281609,35.6363636 40.4023583,34.3143012 40.4950162,32.553889 L40.5,32.3636364 L40.5,31.2727273 C40.5,30.1249012 41.3920605,29.176697 42.5125229,29.0964143 L42.6666667,29.0909091 L42.6666667,26.9090909 C41.5268116,26.9090909 40.5851922,26.0107922 40.505467,24.8824944 L40.5,24.7272727 L40.5,23.6363636 C40.5,21.7818182 39.0916667,20.3636364 37.25,20.3636364 Z M50.25,16.6545455 L59.35,25.8181818 L51.3333333,25.8181818 C50.7266667,25.8181818 50.3087407,25.4380606 50.2557136,24.8552081 L50.25,24.7272727 L50.25,16.6545455 Z" id="Combined-Shape" fill="#209CFF"></path>
    </g>
</svg>