<?xml version="1.0" encoding="UTF-8"?>
<svg width="80px" height="80px" viewBox="0 0 80 80" version="1.1" xmlns="http://www.w3.org/2000/svg" xmlns:xlink="http://www.w3.org/1999/xlink">
    <!-- Generator: Sketch 59.1 (86144) - https://sketch.com -->
    <title>ic/cat_c/ic_cat_c_01</title>
    <desc>Created with Sketch.</desc>
    <g id="ic/cat_c/ic_cat_c_01" stroke="none" stroke-width="1" fill="none" fill-rule="evenodd">
        <path d="M59.8704799,49.8579808 C58.0871331,49.8579808 56.564389,50.9947279 55.9879698,52.5817109 L52.5013319,52.5817109 L52.5013319,46.3630742 L53.6099241,46.3630742 C59.1197007,46.3630742 63.6022529,41.879655 63.6022529,36.3688131 C63.6022529,31.0637744 59.4485474,26.7109631 54.2230902,26.3931164 C52.8535204,20.3883464 47.4520158,16 41.1827421,16 C36.301974,16 31.8182969,18.6755374 29.4772793,22.9001787 C29.0415667,22.851611 28.6023857,22.8272334 28.1632047,22.8272334 C21.675606,22.8272334 16.3975596,28.1063005 16.3975596,34.5951538 C16.3975596,40.8608581 21.3189179,45.9979724 27.4984806,46.3439471 L27.4984806,52.5817109 L24.0119365,52.5817109 C23.4355173,50.9947279 21.9127731,49.8579808 20.1294264,49.8579808 C17.8524346,49.8579808 16,51.7107736 16,53.988112 C16,56.2654504 17.8524346,58.1182432 20.1294264,58.1182432 C21.9127731,58.1182432 23.4355173,56.9814961 24.0119365,55.3945131 L30.3108327,55.3945131 L30.3108327,46.3630742 L38.5938708,46.3630742 L38.5938708,55.9866079 C37.007101,56.5631386 35.8705736,58.0861772 35.8705736,59.8698688 C35.8705736,62.147301 37.7230082,64 40,64 C42.2769918,64 44.1294264,62.1472072 44.1294264,59.8698688 C44.1294264,58.0860835 42.992899,56.5631386 41.4061292,55.9866079 L41.4061292,46.3630742 L49.6891673,46.3630742 L49.6891673,55.3945131 L55.9880635,55.3945131 C56.5644827,56.9814961 58.0872269,58.1182432 59.8705736,58.1182432 C62.1475654,58.1182432 64,56.2654504 64,53.988112 C64,51.7107736 62.1474717,49.8579808 59.8704799,49.8579808 Z" id="Path" fill="#209CFF"></path>
    </g>
</svg>