<?xml version="1.0" encoding="UTF-8"?>
<svg width="360px" height="360px" viewBox="0 0 360 360" version="1.1" xmlns="http://www.w3.org/2000/svg" xmlns:xlink="http://www.w3.org/1999/xlink">
    <!-- Generator: Sketch 56.2 (81672) - https://sketch.com -->
    <title>article_c/01</title>
    <desc>Created with Sketch.</desc>
    <g id="article_c/01" stroke="none" stroke-width="1" fill="none" fill-rule="evenodd">
        <g id="Group" transform="translate(90.000000, 123.000000)">
            <path d="M159.195482,66.846724 C160.442557,70.8687598 159.560147,75.1842823 156.831988,78.3931357 L131.304491,108.426287 C130.130545,109.807917 128.781091,111.032566 127.293181,112.068058 C124.261785,114.176092 120.715568,115.453393 117.035771,115.75858 L113.4057,116.060842 C112.827502,116.109595 112.240529,116.13397 111.660381,116.13397 L73.7771902,116.13397 C71.1670108,116.13397 68.5295304,116.288027 65.9369016,116.589314 L60.3489533,117.239665 C60.8345226,118.477964 61.0997332,119.806942 61.119234,121.176872 C61.1601857,124.172192 60.0320654,127.00468 57.9406068,129.149766 L42.0767221,145.427067 C41.4634227,146.054992 40.6502403,146.37188 39.8351077,146.37188 C39.0599516,146.37188 38.2838205,146.085219 37.6773462,145.50897 L31.9119406,140.016576 C30.6599905,138.826053 30.6112387,136.845749 31.8017613,135.593799 C32.994234,134.341849 34.9745383,134.293097 36.2264881,135.48557 L39.7532044,138.844579 L53.4583526,124.782566 C54.3817146,123.834828 54.8799593,122.585803 54.8614335,121.262676 C54.842908,119.940523 54.3095616,118.706123 53.3608487,117.784711 L28.4768784,93.6368956 C27.5262153,92.7154838 26.2869407,92.2182138 24.9511374,92.2425897 C23.6280093,92.2640407 22.392635,92.8022622 21.4751231,93.7548753 L7.52816526,108.234204 L18.2682199,118.827028 C19.4987193,120.040952 19.5113947,122.021256 18.2994212,123.251755 C17.0854977,124.482254 15.1032432,124.49493 13.8737191,123.282956 L0.932026474,110.517746 C-0.288722356,109.313573 -0.313098269,107.352769 0.875474087,106.119345 L16.968493,89.4140016 C19.0482511,87.2523402 21.8466132,86.0354915 24.8468081,85.9838145 C27.2122526,85.9438378 29.4928689,86.6429407 31.4097957,87.975819 C33.1024634,85.5674728 35.8618237,82.1597115 39.7005522,79.0366615 C48.8005911,71.6370905 59.5835475,69.3789002 70.8842496,72.5068253 C75.2231731,73.7070984 79.8039064,74.3164977 84.5016442,74.3164977 L109.399265,74.3164977 C112.745599,74.3164977 115.996379,75.6981279 118.316972,78.1093993 C118.862994,78.6758972 119.342713,79.2833465 119.761005,79.9219969 L137.412136,62.4561233 C139.77173,60.0965289 142.922081,58.7158737 146.27134,58.5793682 L147.413111,58.5325664 C152.766075,58.3180578 157.608119,61.7326445 159.195482,66.846724 Z M152.064047,74.3398987 C153.39595,72.7730109 153.827892,70.6649767 153.218493,68.701248 C152.471613,66.2919266 150.192947,64.6782373 147.669546,64.7854914 L146.5268,64.8313183 C144.751254,64.9034711 143.081987,65.6357254 141.824187,66.8925506 L121.769585,86.7375196 C121.76081,89.4598285 120.863774,92.1879875 119.054101,94.4422777 L118.957573,94.5622076 C116.595053,97.5078003 113.076137,99.1965679 109.301761,99.1965679 L87.6266444,99.1965679 C85.8979,99.1965679 84.497744,97.7954369 84.497744,96.0666928 C84.497744,94.3389237 85.8979,92.9387677 87.6266444,92.9387677 L109.301761,92.9387677 C111.167986,92.9387677 112.908431,92.1031591 114.075552,90.6484011 L114.172081,90.527496 C115.14907,89.3116226 115.588813,87.8159126 115.505934,86.348479 C115.432807,86.0744931 115.397705,85.7927066 115.401605,85.5099455 C115.182222,84.3896257 114.64985,83.320983 113.810342,82.449298 C112.661746,81.2578004 111.053906,80.5733229 109.399265,80.5733229 L84.5016442,80.5733229 C79.2403337,80.5733229 74.0970029,79.8888457 69.2149829,78.5374415 C59.8185321,75.9370127 51.2177128,77.7388847 43.6494602,83.8923557 C40.0164648,86.8457488 37.5115897,90.1023793 36.148485,92.1226601 L56.1660358,111.424532 L65.2143978,110.37149 C68.0449361,110.042902 70.9261764,109.87617 73.7771902,109.87617 L111.660381,109.87617 C112.066972,109.87617 112.480388,109.858619 112.88503,109.824493 L116.51705,109.522231 C119.098953,109.306747 121.590178,108.410687 123.718688,106.929602 C124.76393,106.202223 125.711668,105.342239 126.535576,104.37305 L152.064047,74.3398987 Z M24.8809346,98.8416537 C29.5533215,98.8416537 33.3549983,102.643331 33.3549983,107.314743 C33.3549983,111.988105 29.5533215,115.789782 24.8809346,115.789782 C20.2085477,115.789782 16.4078455,111.988105 16.4078455,107.314743 C16.4078455,102.643331 20.2085477,98.8416537 24.8809346,98.8416537 Z M24.8809346,109.531006 C26.1016831,109.531006 27.0962232,108.537441 27.0962232,107.314743 C27.0962232,106.093994 26.1016831,105.100429 24.8809346,105.100429 C23.6592105,105.100429 22.6646707,106.093994 22.6646707,107.314743 C22.6646707,108.537441 23.6592105,109.531006 24.8809346,109.531006 Z M74.3310123,93.3999611 C76.0139298,93.0070203 77.6978222,94.0483619 78.0927129,95.7303041 C78.4876036,97.4122466 77.444312,99.097114 75.7623698,99.4920047 L75.6005132,99.5290561 C75.3606535,99.5856085 75.1188438,99.6138846 74.8828845,99.6138846 C73.4632277,99.6138846 72.1771512,98.6407958 71.8397878,97.199688 C71.4429469,95.5177458 72.4881887,93.8328784 74.1701309,93.4379876 L74.3310123,93.3999611 Z M24.4782433,126.516186 C26.1601857,126.12227 27.8450531,127.164587 28.2399439,128.847504 C28.6358096,130.529446 27.5915427,132.214314 25.9096005,132.609204 L25.7487191,132.646256 C25.5069095,132.702808 25.2670498,132.729134 25.0291405,132.729134 C23.6094837,132.729134 22.3243822,131.75702 21.9860436,130.314938 C21.5911528,128.632995 22.6344447,126.950078 24.3163869,126.554212 L24.4782433,126.516186 Z" id="Combined-Shape" fill="#4D4D4D"></path>
            <path d="M91.5794524,66.2334245 C73.3189219,66.2334245 58.4632277,51.37773 58.4632277,33.1171996 C58.4632277,27.3381437 59.9745383,21.6458658 62.8362776,16.6585413 C64.1028533,14.4520282 65.6287893,12.3859205 67.3702091,10.520671 C68.5344055,9.27262103 69.8048814,8.10647438 71.14751,7.05343226 C77.0240702,2.43954771 84.0892026,-5.68434189e-14 91.5794524,-5.68434189e-14 C109.839983,-5.68434189e-14 124.695677,14.8566692 124.695677,33.1171996 C124.695677,51.37773 109.839983,66.2334245 91.5794524,66.2334245 Z M68.2643198,19.772816 C65.9456769,23.8143526 64.7200529,28.4282371 64.7200529,33.1171996 C64.7200529,47.9270672 76.769585,59.9756241 91.5794524,59.9756241 C106.388345,59.9756241 118.437877,47.9270672 118.437877,33.1171996 C118.437877,18.3063573 106.388345,6.25877541 91.5794524,6.25877541 C85.5059345,6.25877541 79.7766053,8.23615451 75.0106147,11.9764041 C73.9214962,12.8315133 72.8889298,13.7773012 71.9441168,14.7913418 C70.5293354,16.3055773 69.2920107,17.9816694 68.2643198,19.772816 Z M94.3544132,43.827028 C95.6843667,43.0362716 96.2762152,41.919852 96.2762152,40.2037833 C96.2762152,37.2884166 92.5554663,35.6406008 91.6155288,35.5645476 C88.1921668,35.5547974 80.7399439,33.1308503 80.7399439,25.9613886 C80.7399439,20.1160297 84.4421669,17.0797581 87.8606537,15.8092825 L87.8606537,15.6045242 C87.8606537,13.8767551 89.2617847,12.4746491 90.9895538,12.4746491 C92.6568704,12.4746491 94.0141247,13.7792512 94.1096786,15.4221921 C95.8159968,15.9077614 97.4560125,16.8808504 98.8249673,18.247855 C101.101683,20.5255461 101.101683,22.7915367 101.101683,24.7913418 C101.101683,26.5200859 99.6995772,27.9260922 97.9718081,27.9260922 C96.2450139,27.9260922 94.842908,26.5317863 94.842908,24.8040172 C94.842908,23.1171996 94.8000063,23.0752731 94.3992652,22.6735571 C93.5656068,21.8398987 92.5076895,21.3231279 91.6379547,21.3231279 C91.5911528,21.3231279 86.997744,21.4498831 86.997744,25.9613886 C86.997744,28.899181 91.5911528,29.3077224 91.6379547,29.3077224 C95.3353026,29.3077224 102.534991,33.1542512 102.534991,40.2047583 C102.534991,46.0852186 98.6348346,49.450078 94.1155288,50.62305 C94.0823776,52.323518 92.6968472,53.6914978 90.9895538,53.6914978 C89.3271124,53.6914978 87.9718081,52.3937208 87.870404,50.7566303 C83.4261761,49.5017553 80.1246942,44.9424726 80.1246942,39.523206 C80.1246942,37.7954369 81.5248502,36.3943059 83.2535943,36.3943059 C84.9813634,36.3943059 86.3824944,37.7954369 86.3824944,39.523206 C86.3824944,42.3566695 88.2321435,44.8430188 90.3421279,44.8430188 C91.4536724,44.8430188 93.0927129,44.5768332 94.3544132,43.827028 Z" id="Combined-Shape" fill="#209CFF"></path>
        </g>
        <path d="M239.5,104.5 L239.5,96 C239.5,92.6862915 242.186292,90 245.5,90 C248.813708,90 251.5,92.6862915 251.5,96 L251.5,104.5 L260,104.5 C263.313708,104.5 266,107.186292 266,110.5 C266,113.813708 263.313708,116.5 260,116.5 L251.5,116.5 L251.5,125 C251.5,128.313708 248.813708,131 245.5,131 C242.186292,131 239.5,128.313708 239.5,125 L239.5,116.5 L231,116.5 C227.686292,116.5 225,113.813708 225,110.5 C225,107.186292 227.686292,104.5 231,104.5 L239.5,104.5 Z" id="Combined-Shape" fill="#47D382"></path>
        <path d="M292,190 L292,185.926829 C292,184.310386 293.310386,183 294.926829,183 L295.073171,183 C296.689614,183 298,184.310386 298,185.926829 L298,190 L302.073171,190 C303.689614,190 305,191.310386 305,192.926829 L305,193.073171 C305,194.689614 303.689614,196 302.073171,196 L298,196 L298,200.073171 C298,201.689614 296.689614,203 295.073171,203 L294.926829,203 C293.310386,203 292,201.689614 292,200.073171 L292,196 L287.926829,196 C286.310386,196 285,194.689614 285,193.073171 L285,192.926829 C285,191.310386 286.310386,190 287.926829,190 L292,190 Z" id="Combined-Shape" fill="#FF874D"></path>
        <path d="M81,144 L81,138 C81,135.790861 82.790861,134 85,134 C87.209139,134 89,135.790861 89,138 L89,144 L95,144 C97.209139,144 99,145.790861 99,148 C99,150.209139 97.209139,152 95,152 L89,152 L89,158 C89,160.209139 87.209139,162 85,162 C82.790861,162 81,160.209139 81,158 L81,152 L75,152 C72.790861,152 71,150.209139 71,148 C71,145.790861 72.790861,144 75,144 L81,144 Z" id="Combined-Shape" fill="#39BFB0"></path>
    </g>
</svg>