<?xml version="1.0" encoding="UTF-8"?>
<svg width="360px" height="360px" viewBox="0 0 360 360" version="1.1" xmlns="http://www.w3.org/2000/svg" xmlns:xlink="http://www.w3.org/1999/xlink">
    <!-- Generator: Sketch 56.2 (81672) - https://sketch.com -->
    <title>article_c/02</title>
    <desc>Created with Sketch.</desc>
    <g id="article_c/02" stroke="none" stroke-width="1" fill="none" fill-rule="evenodd">
        <g id="Group" transform="translate(125.000000, 112.000000)">
            <path d="M104.363636,103.698811 L104.363636,93.0873805 C104.363636,90.9169983 102.604194,89.1575559 100.433812,89.1575559 C99.9492048,89.1575559 99.4687775,89.2471886 99.016772,89.4219311 L97.4221818,90.0383897 L97.4018182,89.9928634 L97.2363636,89.6944131 C94.5763636,85.5793408 90.2745455,82.7162419 85.4305455,81.8436543 L68.7272727,78.8237426 L68.7272727,77.5135967 C74.9738182,73.9094307 79.548,67.76085 80.9734545,60.4918162 C85.6010909,59.5408222 89.0909091,55.4611593 89.0909091,50.5847859 L89.0909091,25.6034894 C89.0909091,18.5443825 84.4378182,12.3882141 77.6872727,10.3850565 L76.4145455,9.1204369 C70.4938182,3.2374263 62.6232727,4.26325641e-14 54.2512727,4.26325641e-14 C36.9701818,4.26325641e-14 22.9090909,13.9689886 22.9090909,31.1425234 L22.9090909,50.5847859 C22.9090909,55.4611593 26.3989091,59.5408222 31.0265455,60.4918162 C32.4545455,67.76085 37.0261818,73.9119599 43.2727273,77.5135967 L43.2727273,78.8237426 L26.572,81.8411251 C21.7330909,82.7137127 17.4338182,85.5717531 14.7712727,89.6842962 L14.6185455,90.0535651 L12.9829679,89.4213945 C10.9585406,88.6389286 8.68310408,89.6457374 7.90063826,91.6701647 C7.72596162,92.1220952 7.63636364,92.6024311 7.63636364,93.0869444 L7.63636364,103.698811 C3.42618182,103.698811 0,107.103167 0,111.286529 L0,121.403486 C0,125.586848 3.42618182,128.991204 7.63636364,128.991204 L7.63636364,136.288171 C7.63636364,137.50597 8.38532859,138.598374 9.52124897,139.037373 L54.2291949,156.315638 C55.3686643,156.756008 56.6313357,156.756008 57.7708051,156.315638 L102.478751,139.037373 C103.614671,138.598374 104.363636,137.50597 104.363636,136.288171 L104.363636,128.991204 C108.573818,128.991204 112,125.586848 112,121.403486 L112,111.286529 C112,107.103167 108.573818,103.698811 104.363636,103.698811 Z M73.4974545,84.8281567 L84.5192727,86.818668 C87.7647273,87.4054516 90.6385455,89.2669717 92.5552727,91.9176145 L67.928,101.432613 L73.4974545,84.8281567 Z M48.58,79.8329091 C50.9294545,80.5461546 53.4189091,80.9356574 56,80.9356574 C58.5810909,80.9356574 61.0705455,80.5461546 63.42,79.8329091 L56,85.3618262 L48.58,79.8329091 Z M52.1258182,88.7965332 L46.9305455,93.9561813 L43.5603636,83.9125721 L45.1818182,83.6217096 L52.1258182,88.7965332 Z M66.8181818,83.6242388 L68.4396364,83.9151013 L65.0694545,93.9587106 L59.8741818,88.7990624 L66.8181818,83.6242388 Z M81.4545455,54.940136 L81.4545455,46.2294358 C82.9690909,47.1070819 84,48.7207365 84,50.5847859 C84,52.4488353 82.9690909,54.0624899 81.4545455,54.940136 Z M30.5454545,54.940136 C29.0309091,54.0624899 28,52.4488353 28,50.5847859 C28,48.7207365 29.0309091,47.1070819 30.5454545,46.2294358 L30.5454545,54.940136 Z M30.5454545,40.484044 L30.5454545,40.8269807 C29.6392727,41.0622 28.7890909,41.4162935 28,41.8740858 L28,31.1425234 C28,16.7612688 39.7752727,5.05847859 54.2512727,5.05847859 C61.2614545,5.05847859 67.8567273,7.77235235 72.8152727,12.6993105 L75.0603636,14.9326288 L75.7450909,15.0995586 C80.6069091,16.3060057 84,20.6259465 84,25.6034894 L84,41.8740858 C83.2109091,41.4162935 82.3607273,41.0596707 81.4545455,40.8269807 C81.4545455,39.2317662 80.1613686,37.9385894 78.5661542,37.9385894 L73.3829091,37.9385894 C66.4847273,37.9385894 59.892,34.6657538 55.7556364,29.1848922 C54.7813142,27.8916361 52.9430788,27.6330891 51.6498227,28.6074112 C51.5430104,28.6878822 51.4418291,28.7755672 51.3469877,28.8698518 L48.6741818,31.5269678 C44.5098182,35.6622741 38.976,37.9385894 33.0909091,37.9385894 C31.6850934,37.9385894 30.5454545,39.0782282 30.5454545,40.484044 Z M35.6363636,55.6432645 L35.6363636,42.880723 C41.9210909,42.3015272 47.7527273,39.5927119 52.2734545,35.1033122 L53.2636364,34.1194381 C58.3672727,39.7166446 65.7185455,42.997068 73.3829091,42.997068 L76.3636364,42.997068 L76.3636364,55.6432645 C76.3636364,66.799739 67.228,75.8771789 56,75.8771789 C44.772,75.8771789 35.6363636,66.799739 35.6363636,55.6432645 Z M27.4807273,86.818668 L38.5025455,84.8281567 L44.072,101.432613 L19.4396364,91.9150852 C21.3563636,89.2619132 24.2352727,87.4054516 27.4807273,86.818668 Z M53.4545455,150.585849 L12.7272727,134.851451 L12.7272727,127.918807 C17.2149091,125.961175 20.3636364,121.517302 20.3636364,116.345008 C20.3636364,111.172713 17.2149091,106.72884 12.7272727,104.771209 L12.7272727,94.7503625 L53.4545455,110.487289 L53.4545455,150.585849 Z M45.8970909,102.1408 L56,92.0997197 L66.1029091,102.13827 L56,106.043416 L45.8970909,102.1408 Z M99.2727273,134.848922 L58.5454545,150.58332 L58.5454545,110.487289 L99.2727273,94.7503625 L99.2727273,104.771209 C94.7850909,106.72884 91.6363636,111.172713 91.6363636,116.345008 C91.6363636,121.517302 94.7850909,125.961175 99.2727273,127.918807 L99.2727273,134.848922 Z M5.09090909,121.403486 L5.09090909,111.286529 C5.09090909,109.890389 6.23381818,108.75729 7.63636364,108.75729 C11.8465455,108.75729 15.2727273,112.161646 15.2727273,116.345008 C15.2727273,120.528369 11.8465455,123.932725 7.63636364,123.932725 C6.23381818,123.932725 5.09090909,122.799626 5.09090909,121.403486 Z M106.909091,121.403486 C106.909091,122.799626 105.766182,123.932725 104.363636,123.932725 C100.153455,123.932725 96.7272727,120.528369 96.7272727,116.345008 C96.7272727,112.161646 100.153455,108.75729 104.363636,108.75729 C105.766182,108.75729 106.909091,109.890389 106.909091,111.286529 L106.909091,121.403486 Z" id="Shape" fill="#4D4D4D"></path>
            <path d="M104.363636,103.744612 L103.844363,103.744612 C103.134833,103.744612 102.42685,103.810787 101.729611,103.942277 C101.033267,104.073598 100.354778,104.286336 99.7081161,104.576108 L99.2727273,104.771209 L99.2727273,94.7503625 L58.5454545,110.487289 L58.5454545,150.585849 L99.2727273,134.848922 L99.2727273,127.918807 L100.068536,128.243378 C100.572341,128.448856 101.092738,128.611035 101.624079,128.728156 C102.155399,128.845272 102.695819,128.916411 103.239348,128.940786 L104.363636,128.991204 L104.363636,136.252086 C104.363636,137.491632 103.601297,138.603543 102.445092,139.050381 L57.4419413,156.442733 C56.5140877,156.801321 55.4859123,156.801321 54.5580587,156.442733 L9.55490764,139.050381 C8.39870297,138.603543 7.63636364,137.491632 7.63636364,136.252086 L7.63636364,128.991204 L8.50406509,128.991204 C9.1309755,128.991204 9.75589273,128.920618 10.3670079,128.780779 C10.9785344,128.640846 11.5745405,128.44013 12.146136,128.181626 L12.7272727,127.918807 L12.7272727,134.851451 L53.4545455,150.585849 L53.4545455,110.487289 L12.7272727,94.7503625 L12.7272727,104.771209 L12.2357635,104.546621 C11.6335975,104.27147 11.0014263,104.067409 10.3520337,103.938564 C9.70160151,103.809514 9.04139691,103.735854 8.3785163,103.718378 L7.63636364,103.698811 L7.63636364,93.188787 C7.63636364,90.979648 9.42722464,89.188787 11.6363636,89.188787 C12.129418,89.188787 12.6182233,89.2799439 13.0781352,89.4576618 L56,106.043416 L98.9218648,89.4576618 C100.982508,88.6613934 103.298493,89.6863719 104.094761,91.7470154 C104.272479,92.2069273 104.363636,92.6957326 104.363636,93.188787 L104.363636,103.744612 Z" id="Combined-Shape" fill="#209CFF"></path>
        </g>
        <path d="M251.5,105.5 L251.5,97 C251.5,93.6862915 254.186292,91 257.5,91 C260.813708,91 263.5,93.6862915 263.5,97 L263.5,105.5 L272,105.5 C275.313708,105.5 278,108.186292 278,111.5 C278,114.813708 275.313708,117.5 272,117.5 L263.5,117.5 L263.5,126 C263.5,129.313708 260.813708,132 257.5,132 C254.186292,132 251.5,129.313708 251.5,126 L251.5,117.5 L243,117.5 C239.686292,117.5 237,114.813708 237,111.5 C237,108.186292 239.686292,105.5 243,105.5 L251.5,105.5 Z" id="Combined-Shape" fill="#47D382"></path>
        <path d="M275,188 L275,183.926829 C275,182.310386 276.310386,181 277.926829,181 L278.073171,181 C279.689614,181 281,182.310386 281,183.926829 L281,188 L285.073171,188 C286.689614,188 288,189.310386 288,190.926829 L288,191.073171 C288,192.689614 286.689614,194 285.073171,194 L281,194 L281,198.073171 C281,199.689614 279.689614,201 278.073171,201 L277.926829,201 C276.310386,201 275,199.689614 275,198.073171 L275,194 L270.926829,194 C269.310386,194 268,192.689614 268,191.073171 L268,190.926829 C268,189.310386 269.310386,188 270.926829,188 L275,188 Z" id="Combined-Shape" fill="#FF874D"></path>
        <path d="M82,155 L82,149 C82,146.790861 83.790861,145 86,145 C88.209139,145 90,146.790861 90,149 L90,155 L96,155 C98.209139,155 100,156.790861 100,159 C100,161.209139 98.209139,163 96,163 L90,163 L90,169 C90,171.209139 88.209139,173 86,173 C83.790861,173 82,171.209139 82,169 L82,163 L76,163 C73.790861,163 72,161.209139 72,159 C72,156.790861 73.790861,155 76,155 L82,155 Z" id="Combined-Shape" fill="#39BFB0"></path>
    </g>
</svg>