<?xml version="1.0" encoding="UTF-8"?>
<svg width="80px" height="80px" viewBox="0 0 80 80" version="1.1" xmlns="http://www.w3.org/2000/svg" xmlns:xlink="http://www.w3.org/1999/xlink">
    <!-- Generator: Sketch 59.1 (86144) - https://sketch.com -->
    <title>ic/cat_b/ic_cat_b_05</title>
    <desc>Created with Sketch.</desc>
    <g id="ic/cat_b/ic_cat_b_05" stroke="none" stroke-width="1" fill="none" fill-rule="evenodd">
        <path d="M42.1818182,16 L42.1818182,37.8181818 L44.6283353,35.3716648 C45.8128296,36.5561591 46.5454545,38.1925227 46.5454545,40 C46.5454545,43.6149546 43.6149546,46.5454545 40,46.5454545 C36.3850454,46.5454545 33.4545455,43.6149546 33.4545455,40 C33.4545455,37.1500681 35.2759439,34.7255464 37.8181818,33.8269943 L37.8181818,33.8269943 L37.8181818,29.3091304 C33.0509311,30.2768312 29.4125499,34.3532459 29.11113,39.3302825 C31.227016,39.831371 32.8,41.7319904 32.8,44 C32.8,45.1671042 32.3834628,46.2369208 31.6909401,47.0688984 C33.6913419,49.4184987 36.6715978,50.9090909 40,50.9090909 C46.0249245,50.9090909 50.9090909,46.0249245 50.9090909,40 C50.9090909,36.9875377 49.6880493,34.2602649 47.7138922,32.2861079 L47.7138922,32.2861079 L50.799449,29.2005509 C53.563269,31.9643711 55.2727273,35.7825529 55.2727273,40 C55.2727273,48.4348944 48.4348944,55.2727273 40,55.2727273 C34.8297061,55.2727273 30.2594695,52.7035761 27.4962757,48.772259 C25.0821934,48.5222541 23.2,46.4809319 23.2,44 C23.2,42.6102299 23.7906367,41.3584104 24.7345894,40.4818624 C24.7297798,40.3224387 24.7272727,40.1615121 24.7272727,40 C24.7272727,32.3058795 30.4168129,25.9406222 37.8181818,24.8819394 L37.8181818,24.8819394 L37.8181818,20.483481 C28.000108,21.568814 20.3636364,29.8926101 20.3636364,40 C20.3636364,50.8448642 29.1551359,59.6363636 40,59.6363636 C45.7427989,59.6363636 50.9098064,57.1711082 54.5004742,53.2411458 C54.4341741,52.9710364 54.4,52.6895091 54.4,52.4 C54.4,50.5665985 55.7705296,49.0533014 57.5429605,48.828737 C58.8824996,46.1753209 59.6363636,43.1756976 59.6363636,40 C59.6363636,34.5775679 57.4384888,29.6684769 53.8850059,26.1149942 L53.8850059,26.1149942 L56.9705627,23.0294372 C61.3137085,27.3725831 64,33.3725831 64,40 C64,43.9732563 63.034488,47.7210051 61.3252869,51.0214235 C61.5026979,51.4457038 61.6,51.9114888 61.6,52.4 C61.6,54.3882251 59.9882251,56 58,56 C57.9632552,56 57.9266391,55.9994495 57.8901593,55.9983563 C53.4959596,60.9091858 47.108929,64 40,64 C26.7451661,64 16,53.254834 16,40 C16,27.4806343 25.5858182,17.2001567 37.8181818,16.0978393 L37.8181818,16.0978393 L37.8181818,16 L42.1818182,16 Z" id="Combined-Shape" fill="#209CFF"></path>
    </g>
</svg>