<?xml version="1.0" encoding="UTF-8"?>
<svg width="80px" height="80px" viewBox="0 0 80 80" version="1.1" xmlns="http://www.w3.org/2000/svg" xmlns:xlink="http://www.w3.org/1999/xlink">
    <!-- Generator: Sketch 59.1 (86144) - https://sketch.com -->
    <title>ic/cat_b/ic_cat_b_06</title>
    <desc>Created with Sketch.</desc>
    <g id="ic/cat_b/ic_cat_b_06" stroke="none" stroke-width="1" fill="none" fill-rule="evenodd">
        <path d="M49.7698501,56.017353 C50.2196002,55.7175613 50.7692948,55.8174919 51.1191005,56.1672488 L51.1191005,56.1672488 L52.7182121,57.7661376 C53.2179345,58.2657903 53.11799,59.1152 52.5183232,59.5149222 C45.1724042,64.1616926 35.7776235,64.1616926 28.4317046,59.5149222 C27.8320378,59.1152 27.7320933,58.2657903 28.2318157,57.7661376 L28.2318157,57.7661376 L29.8309273,56.1672488 C30.1807329,55.8174919 30.7304275,55.7675266 31.1801777,56.017353 C36.8770128,59.4149916 44.073015,59.4149916 49.7698501,56.017353 Z M21.4855636,28.4365219 C21.8853415,27.8369386 22.7348695,27.737008 23.2345919,28.2366608 L23.2345919,28.2366608 L24.8337035,29.8355495 C25.1835092,30.1853065 25.2334814,30.7349245 24.9836202,31.1846119 C21.5855081,36.8806531 21.5855081,44.0756526 24.9836202,49.7716938 C25.2334814,50.2213812 25.1835092,50.7709992 24.8337035,51.1207562 L24.8337035,51.1207562 L23.2345919,52.7196449 C22.7348695,53.2192977 21.8853415,53.1193671 21.4855636,52.5197838 C16.8381455,45.1748886 16.8381455,35.7814171 21.4855636,28.4365219 Z M57.7654081,28.2366608 C58.2651305,27.737008 59.1146585,27.8369386 59.5144364,28.4365219 C64.1618545,35.7814171 64.1618545,45.1748886 59.5144364,52.5197838 C59.1146585,53.1193671 58.2651305,53.2192977 57.7654081,52.7196449 L57.7654081,52.7196449 L56.1662965,51.1207562 C55.8164908,50.7709992 55.7665186,50.2213812 56.0163798,49.7716938 C59.4144919,44.0756526 59.4144919,36.8806531 56.0163798,31.1846119 C55.7665186,30.7349245 55.8164908,30.1853065 56.1662965,29.8355495 L56.1662965,29.8355495 Z M44.3228762,28.636383 C44.922543,28.636383 45.4222654,29.1360357 45.4222654,29.735619 L45.4222654,29.735619 L45.4222654,35.5315908 L51.219045,35.5315908 C51.8187118,35.5315908 52.3184342,36.0312435 52.3184342,36.6308268 L52.3184342,36.6308268 L52.3184342,44.3254789 C52.3184342,44.9250622 51.8187118,45.424715 51.2690172,45.424715 L51.2690172,45.424715 L45.4722376,45.424715 L45.4722376,51.2206867 C45.4722376,51.82027 44.9725153,52.3199227 44.3728484,52.3199227 L44.3728484,52.3199227 L36.6771238,52.3199227 C36.077457,52.3199227 35.5777346,51.82027 35.5777346,51.2206867 L35.5777346,51.2206867 L35.5777346,45.424715 L29.780955,45.424715 C29.1812882,45.424715 28.6815658,44.9250622 28.6815658,44.3254789 L28.6815658,44.3254789 L28.6815658,36.6308268 C28.6815658,36.0312435 29.1812882,35.5315908 29.780955,35.5315908 L29.780955,35.5315908 L35.5777346,35.5315908 L35.5777346,29.735619 C35.5777346,29.1360357 36.077457,28.636383 36.6771238,28.636383 L36.6771238,28.636383 Z M28.4816768,21.4913488 C35.7776235,16.8445784 45.2223765,16.8445784 52.5682954,21.4413836 C53.1679622,21.8411057 53.2679067,22.6905154 52.7681843,23.1901681 L52.7681843,23.1901681 L51.1690727,24.7890569 C50.8192671,25.1388138 50.2695725,25.1887791 49.8198223,24.9389527 C44.1229872,21.5413141 36.926985,21.5413141 31.2301499,24.9389527 C30.7803998,25.2387444 30.2307052,25.1388138 29.8808995,24.8390222 L29.8808995,24.8390222 L28.2817879,23.2401334 C27.7820655,22.7404807 27.88201,21.891071 28.4816768,21.4913488 Z" id="Combined-Shape" fill="#209CFF"></path>
    </g>
</svg>