<?xml version="1.0" encoding="UTF-8"?>
<svg width="44px" height="44px" viewBox="0 0 44 44" version="1.1" xmlns="http://www.w3.org/2000/svg" xmlns:xlink="http://www.w3.org/1999/xlink">
    <!-- Generator: Sketch 58 (84663) - https://sketch.com -->
    <title>ic_a/soc/ic_a_soc_p2_04</title>
    <desc>Created with Sketch.</desc>
    <g id="ic_a/soc/ic_a_soc_p2_04" stroke="none" stroke-width="1" fill="none" fill-rule="evenodd">
        <path d="M18.9599177,3.04376335 L19.0745702,3.08382202 L38.0981987,10.9031658 C38.6670201,11.1368386 38.9386744,11.7874118 38.7047096,12.3559385 C38.5278589,12.7861749 38.1126946,13.0462302 37.6746267,13.0462302 C37.5806929,13.0462302 37.4855994,13.034247 37.3916656,13.0094215 L37.2519245,12.9624443 L36.0992058,12.4887203 L36.0992058,13.9452619 L38.0984886,14.7668859 C38.6670201,15.0005587 38.9386744,15.6511319 38.7049996,16.2196586 C38.5281488,16.6498949 38.1126946,16.9102402 37.6746267,16.9102402 C37.5806929,16.9102402 37.4857282,16.898257 37.3917944,16.8733456 L37.2519245,16.8261643 L36.0992058,16.3524404 L36.0992058,38.7734396 L39.8867103,38.7734396 C40.5016289,38.7734396 41,39.2718065 41,39.8867198 C41,40.4606389 40.5658634,40.9330331 40.0080269,40.9934682 L39.8867103,41 L4.11328974,41 C3.49837113,41 3,40.5016331 3,39.8867198 C3,39.3128007 3.43413663,38.8404065 3.99197312,38.7799714 L4.11328974,38.7734396 L7.9164499,38.7734396 L7.9164499,19.9459581 C7.9164499,18.6032813 8.61977069,17.3799168 9.76591147,16.7046434 L9.95052303,16.6026386 L19.4102967,11.7102939 L19.4102967,9.49301089 L18.2282961,9.00711047 C17.6594746,8.77343756 17.3878204,8.12286452 17.6217851,7.55404789 C17.8398817,7.023423 18.4211478,6.75166152 18.9599178,6.90753396 L19.0745702,6.94754212 L19.4102967,7.08554247 L19.4102967,5.62929079 L18.2280062,5.14339037 C17.6594746,4.90942756 17.3878204,4.25914442 17.6214952,3.69032779 C17.8398624,3.1597029 18.4211465,2.88768888 18.9599177,3.04376335 Z M19.4102967,14.2169138 L10.973358,18.5801605 C10.5037613,18.8230624 10.1973852,19.2830213 10.1495836,19.8028272 L10.1430294,19.9459581 L10.1430294,21.4254031 L14.7765181,21.4254031 C15.3914367,21.4254031 15.8898078,21.9237699 15.8898078,22.5386833 C15.8898078,23.1126025 15.4556712,23.5849966 14.8978347,23.6454317 L14.7765181,23.6519635 L10.1430294,23.6519635 L10.1430294,25.5703424 L14.7765181,25.5703424 C15.3914367,25.5703424 15.8898078,26.0689992 15.8898078,26.6836226 C15.8898078,27.2575417 15.4556712,27.7299359 14.8978347,27.7903711 L14.7765181,27.7969028 L10.1430294,27.7969028 L10.1430294,29.6572984 L14.7765181,29.6572984 C15.3914367,29.6572984 15.8898078,30.1556652 15.8898078,30.7705786 C15.8898078,31.3442271 15.4556712,31.8168558 14.8978347,31.8773234 L14.7765181,31.8838588 L10.1430294,31.8838588 L10.1430294,38.7734396 L13.6632283,38.7734396 L13.6632283,35.2321069 C13.6632283,34.6174835 14.1618894,34.1188267 14.7765181,34.1188267 C15.3504421,34.1188267 15.8228403,34.5532121 15.883276,35.1108418 L15.8898078,35.2321069 L15.8898078,38.7734396 L19.4102967,38.7734396 L19.4102967,14.2169138 Z M21.6368762,10.407988 L21.6368762,38.7734396 L24.414882,38.7734396 L24.414882,35.2321069 C24.414882,34.6174835 24.9132531,34.1188267 25.5281717,34.1188267 C26.1020958,34.1188267 26.574494,34.5532121 26.6349297,35.1108418 L26.6414615,35.2321069 L26.6414615,38.7734396 L28.868041,38.7734396 L28.868041,35.2321069 C28.868041,34.6174835 29.3664121,34.1188267 29.9813307,34.1188267 C30.5552547,34.1188267 31.027653,34.5532121 31.0880886,35.1108418 L31.0946204,35.2321069 L31.0946204,38.7734396 L33.8726263,38.7734396 L33.8726263,15.4371734 L21.6368762,10.407988 Z M25.5258524,27.4000068 C26.0997764,27.4000068 26.5721746,27.8341397 26.6326103,28.3919714 L26.6391421,28.513287 L26.6391421,30.7699987 C26.6391421,31.3849121 26.140771,31.8832789 25.5258524,31.8832789 C24.9519283,31.8832789 24.4795301,31.449146 24.4190944,30.8913143 L24.4125626,30.7699987 L24.4125626,28.513287 C24.4125626,27.8983736 24.9109338,27.4000068 25.5258524,27.4000068 Z M29.9984359,27.4000068 C30.57236,27.4000068 31.0447582,27.8341397 31.1051939,28.3919714 L31.1117257,28.513287 L31.1117257,30.7699987 C31.1117257,31.3849121 30.6133546,31.8832789 29.9984359,31.8832789 C29.4247825,31.8832789 28.9521498,31.449146 28.8916816,30.8913143 L28.8851462,30.7699987 L28.8851462,28.513287 C28.8851462,27.8983736 29.3838072,27.4000068 29.9984359,27.4000068 Z M25.5107766,21.4254031 C26.0847007,21.4254031 26.5570989,21.859536 26.6175345,22.4173677 L26.6240663,22.5386833 L26.6240663,24.795395 C26.6240663,25.4103084 26.1256953,25.9086752 25.5107766,25.9086752 C24.9368525,25.9086752 24.4644543,25.4745423 24.4040186,24.9167106 L24.3974868,24.795395 L24.3974868,22.5386833 C24.3974868,21.9237699 24.8961479,21.4254031 25.5107766,21.4254031 Z M29.9836501,21.4254031 C30.5575741,21.4254031 31.0299723,21.859536 31.090408,22.4173677 L31.0969398,22.5386833 L31.0969398,24.795395 C31.0969398,25.4103084 30.5985687,25.9086752 29.9836501,25.9086752 C29.409726,25.9086752 28.9373278,25.4745423 28.8768921,24.9167106 L28.8703603,24.795395 L28.8703603,22.5386833 C28.8703603,21.9237699 29.3687314,21.4254031 29.9836501,21.4254031 Z M25.5183145,15.4708037 C26.0922385,15.4708037 26.5646368,15.9049366 26.6250724,16.4627683 L26.6316043,16.5840839 L26.6316043,18.8407956 C26.6316043,19.455419 26.1332331,19.9540758 25.5183145,19.9540758 C24.9443905,19.9540758 24.4719922,19.5196904 24.4115566,18.9620607 L24.4050248,18.8407956 L24.4050248,16.5840839 C24.4050248,15.9691705 24.9033959,15.4708037 25.5183145,15.4708037 Z M29.991188,15.4708037 C30.6058167,15.4708037 31.1044777,15.9691705 31.1044777,16.5840839 L31.1044777,16.5840839 L31.1044777,18.8407956 C31.1044777,19.455419 30.6058167,19.9540758 29.991188,19.9540758 C29.3762693,19.9540758 28.8778982,19.455419 28.8778982,18.8407956 L28.8778982,18.8407956 L28.8778982,16.5840839 C28.8778982,15.9691705 29.3762693,15.4708037 29.991188,15.4708037 Z M21.6368762,6.54426795 L21.6368762,8.00080953 L33.8726263,13.0299948 L33.8726263,11.5734533 L21.6368762,6.54426795 Z" id="Combined-Shape" fill="#47D382"></path>
    </g>
</svg>