<?xml version="1.0" encoding="UTF-8"?>
<svg width="120px" height="120px" viewBox="0 0 120 120" version="1.1" xmlns="http://www.w3.org/2000/svg" xmlns:xlink="http://www.w3.org/1999/xlink">
    <!-- Generator: Sketch 55.2 (78181) - https://sketchapp.com -->
    <title>icon/120/chat</title>
    <desc>Created with Sketch.</desc>
    <g id="icon/120/chat" stroke="none" stroke-width="1" fill="none" fill-rule="evenodd">
        <path d="M89.3333333,86.6666667 C93.0666667,86.6666667 96,89.6 96,93.3333333 L96,98.6666667 C96,99.4030463 95.4030463,100 94.6666667,100 C93.930287,100 93.3333333,99.4030463 93.3333333,98.6666667 L93.3333333,93.3333333 C93.3333333,91.0666667 91.6,89.3333333 89.3333333,89.3333333 C85.2,89.3333333 82.6666667,87.3333333 82.6666667,84 L82.6666667,83.2 C82.6666667,82.6666667 83.0666667,82.1333333 83.6,82 C87.8666667,80.5333333 90.6666667,76.5333333 90.6666667,72 L76,72 C73.6,72 71.3333333,71.3333333 69.4666667,70.1333333 C69.3333333,70.6666667 69.3333333,71.3333333 69.3333333,72 C69.3333333,76.5333333 72.1333333,80.5333333 76.4,82.1333333 C76.9333333,82.2666667 77.3333333,82.8 77.3333333,83.3333333 L77.3333333,84 C77.3333333,87.3333333 74.8,89.3333333 70.6666667,89.3333333 C68.4,89.3333333 66.6666667,91.0666667 66.6666667,93.3333333 L66.6666667,98.6666667 C66.6666667,99.4030463 66.069713,100 65.3333333,100 C64.5969537,100 64,99.4030463 64,98.6666667 L64,93.3333333 C64,89.6 66.9333333,86.6666667 70.6666667,86.6666667 C74.2666667,86.6666667 74.6666667,85.0666667 74.6666667,84.2666667 C69.8666667,82.1333333 66.6666667,77.3333333 66.6666667,72 C66.6666667,70.6666667 66.9333333,69.4666667 67.2,68.1333333 C65.2,66 64,63.0666667 64,60 C64,59.2 64.5333333,58.6666667 65.3333333,58.6666667 L81.3333333,58.6666667 C88,58.6666667 93.3333333,64 93.3333333,70.6666667 C93.3333333,70.8 93.3333333,71.3333333 93.3333333,71.6 C93.4666667,77.0666667 90.4,82.1333333 85.3333333,84.2666667 C85.3333333,85.0666667 85.7333333,86.6666667 89.3333333,86.6666667 Z M76,69.3333333 L90.5333333,69.3333333 C89.8666667,64.8 86,61.3333333 81.3333333,61.3333333 L66.8,61.3333333 C67.4666667,65.8666667 71.3333333,69.3333333 76,69.3333333 Z M99.8666667,56 C100.133333,59.4666667 99.0666667,62.8 96.9333333,65.4666667 C96.5076418,66.0231059 95.7206046,66.1484207 95.1431486,65.7517062 C94.5441623,65.3402003 94.3921795,64.5210346 94.8036854,63.9220483 L94.9333333,63.7333333 C96.6666667,61.4666667 97.4666667,58.8 97.3333333,56 L97.3333333,33.3333333 C97.3333333,31.8666667 96.1333333,30.6666667 94.6666667,30.6666667 L68,30.6666667 L68,48 L84,48 C89.2,48 93.3333333,52.1333333 93.3333333,57.3333333 L93.3308139,57.3812712 C93.2940457,58.0808599 92.7220547,58.6326303 92.0215961,58.6442064 C91.2854551,58.6563722 90.6788325,58.0694744 90.6666667,57.3333333 C90.6666667,53.6 87.7333333,50.6666667 84,50.6666667 L68,50.6666667 C68,53.6 65.6,56 62.6666667,56 L38.9333333,56 C36.1333333,56 33.7333333,58 33.3333333,60.8 C33.3333333,60.9333333 33.3333333,61.2 33.3333333,61.3333333 C33.3255626,62.0385191 32.7698462,62.6156202 32.0654561,62.6500001 C31.3301696,62.6858879 30.7050092,62.1189133 30.6691214,61.3836268 L30.6666667,61.3333333 C30.6666667,61.0666667 30.6666667,60.8 30.6666667,60.5333333 C31.2,56.4 34.8,53.3333333 38.9333333,53.3333333 L62.6666667,53.3333333 C64.1333333,53.3333333 65.3333333,52.1333333 65.3333333,50.6666667 L65.3333333,25.3333333 C65.3333333,23.8666667 64.1333333,22.6666667 62.6666667,22.6666667 L25.3333333,22.6666667 C23.8666667,22.6666667 22.6666667,23.8666667 22.6666667,25.3333333 L22.6666667,54.6666667 C22.6666667,59.3333333 24.2666667,62.4 27.3333333,64.4 C27.9670853,64.6773084 28.2717003,65.4031573 28.0256535,66.0496884 C27.7708536,66.71922 27.0215348,67.0554265 26.3520032,66.8006266 L26,66.6666667 C22,64.2666667 20,60.2666667 20,54.6666667 L20,25.3333333 C20,22.4 22.4,20 25.3333333,20 L62.6666667,20 C65.6,20 68,22.4 68,25.3333333 L68,28 L94.6666667,28 C97.6,28 100,30.4 99.8666667,33.3333333 L99.8666667,56 Z M53.3333333,88 C57.0666667,88 60,90.9333333 59.8666667,94.6666667 L59.8666667,98.6666667 C59.8666667,99.4030463 59.269713,100 58.5333333,100 C57.7969537,100 57.2,99.4030463 57.2,98.6666667 L57.2,94.6666667 C57.2,92.4 55.4666667,90.6666667 53.2,90.6666667 C49.4666667,90.6666667 46.5333333,87.7333333 46.5333333,84 L46.5333333,83.3333333 C46.5333333,82.8 46.9333333,82.2666667 47.4666667,82.1333333 C51.3333333,80.8 54,77.4666667 54.5333333,73.4666667 L45.3333333,73.4666667 C45.0666667,73.4666667 44.8,73.3333333 44.5333333,73.2 L41.3333333,71.0666667 L38.1333333,73.2 C37.8666667,73.3333333 37.6,73.4666667 37.3333333,73.4666667 L33.3333333,73.4666667 C33.8666667,77.4666667 36.6666667,80.8 40.4,82.1333333 C40.9333333,82.2666667 41.3333333,82.8 41.3333333,83.3333333 L41.3333333,84 C41.3333333,87.7333333 38.4,90.6666667 34.6666667,90.6666667 C32.4,90.6666667 30.6666667,92.4 30.6666667,94.6666667 L30.6666667,98.6666667 C30.6666667,99.4030463 30.069713,100 29.3333333,100 C28.5969537,100 28,99.4030463 28,98.6666667 L28,94.6666667 C28,90.9333333 30.9333333,88 34.6666667,88 C36.8,88 38.5333333,86.4 38.6666667,84.2666667 C35.6,82.9333333 33.0666667,80.4 31.7333333,77.3333333 C28.8,70.5333333 31.8666667,62.6666667 38.6666667,59.7333333 C45.4666667,56.8 53.3333333,59.8666667 56.2666667,66.6666667 C59.2,73.4666667 56.1333333,81.3333333 49.3333333,84.2666667 C49.4666667,86.4 51.2,88 53.3333333,88 Z M45.7333333,70.6666667 L54.5333333,70.6666667 C54,65.8666667 50.1333333,62.1333333 45.3333333,61.4666667 C39.4666667,60.6666667 34.1333333,64.8 33.4666667,70.6666667 L36.9333333,70.6666667 L40.6666667,68.2666667 C41.0666667,68 41.7333333,68 42.1333333,68.2666667 L45.7333333,70.6666667 Z" id="Combined-Shape" fill="#4D4D4D"></path>
        <path d="M28,26.6666667 L53.3333333,26.6666667 C54.069713,26.6666667 54.6666667,27.2636203 54.6666667,28 C54.6666667,28.7363797 54.069713,29.3333333 53.3333333,29.3333333 L28,29.3333333 C27.2636203,29.3333333 26.6666667,28.7363797 26.6666667,28 C26.6666667,27.2636203 27.2636203,26.6666667 28,26.6666667 Z M28,32 L33.3333333,32 C34.069713,32 34.6666667,32.5969537 34.6666667,33.3333333 C34.6666667,34.069713 34.069713,34.6666667 33.3333333,34.6666667 L28,34.6666667 C27.2636203,34.6666667 26.6666667,34.069713 26.6666667,33.3333333 C26.6666667,32.5969537 27.2636203,32 28,32 Z M38.6666667,32 L56,32 C56.7363797,32 57.3333333,32.5969537 57.3333333,33.3333333 C57.3333333,34.069713 56.7363797,34.6666667 56,34.6666667 L38.6666667,34.6666667 C37.930287,34.6666667 37.3333333,34.069713 37.3333333,33.3333333 C37.3333333,32.5969537 37.930287,32 38.6666667,32 Z M28,37.3333333 C28.7363797,37.3333333 29.3333333,37.930287 29.3333333,38.6666667 C29.3333333,39.4030463 28.7363797,40 28,40 C27.2636203,40 26.6666667,39.4030463 26.6666667,38.6666667 C26.6666667,37.930287 27.2636203,37.3333333 28,37.3333333 Z M33.3333333,37.3333333 L41.3333333,37.3333333 C42.069713,37.3333333 42.6666667,37.930287 42.6666667,38.6666667 C42.6666667,39.4030463 42.069713,40 41.3333333,40 L33.3333333,40 C32.5969537,40 32,39.4030463 32,38.6666667 C32,37.930287 32.5969537,37.3333333 33.3333333,37.3333333 Z M46.6666667,37.3333333 L56,37.3333333 C56.7363797,37.3333333 57.3333333,37.930287 57.3333333,38.6666667 C57.3333333,39.4030463 56.7363797,40 56,40 L46.6666667,40 C45.930287,40 45.3333333,39.4030463 45.3333333,38.6666667 C45.3333333,37.930287 45.930287,37.3333333 46.6666667,37.3333333 Z" id="Combined-Shape" fill="#209CFF"></path>
        <path d="M77.3333333,36 L93.3333333,36 C94.069713,36 94.6666667,36.5969537 94.6666667,37.3333333 C94.6666667,38.069713 94.069713,38.6666667 93.3333333,38.6666667 L77.3333333,38.6666667 C76.5969537,38.6666667 76,38.069713 76,37.3333333 C76,36.5969537 76.5969537,36 77.3333333,36 Z M72,41.3333333 L78.6666667,41.3333333 C79.4030463,41.3333333 80,41.930287 80,42.6666667 C80,43.4030463 79.4030463,44 78.6666667,44 L72,44 C71.2636203,44 70.6666667,43.4030463 70.6666667,42.6666667 C70.6666667,41.930287 71.2636203,41.3333333 72,41.3333333 Z M84,41.3333333 L93.3333333,41.3333333 C94.069713,41.3333333 94.6666667,41.930287 94.6666667,42.6666667 C94.6666667,43.4030463 94.069713,44 93.3333333,44 L84,44 C83.2636203,44 82.6666667,43.4030463 82.6666667,42.6666667 C82.6666667,41.930287 83.2636203,41.3333333 84,41.3333333 Z M72,36 C72.7363797,36 73.3333333,36.5969537 73.3333333,37.3333333 C73.3333333,38.069713 72.7363797,38.6666667 72,38.6666667 C71.2636203,38.6666667 70.6666667,38.069713 70.6666667,37.3333333 C70.6666667,36.5969537 71.2636203,36 72,36 Z" id="Combined-Shape" fill="#FF874D"></path>
        <path d="M47.3333333,47 L55.6666667,47 C56.4030463,47 57,47.5969537 57,48.3333333 C57,49.069713 56.4030463,49.6666667 55.6666667,49.6666667 L47.3333333,49.6666667 C46.5969537,49.6666667 46,49.069713 46,48.3333333 C46,47.5969537 46.5969537,47 47.3333333,47 Z M42.3333333,47 C43.069713,47 43.6666667,47.5969537 43.6666667,48.3333333 C43.6666667,49.069713 43.069713,49.6666667 42.3333333,49.6666667 C41.5969537,49.6666667 41,49.069713 41,48.3333333 C41,47.5969537 41.5969537,47 42.3333333,47 Z" id="Combined-Shape" fill="#47D382"></path>
    </g>
</svg>