<?xml version="1.0" encoding="UTF-8"?>
<svg width="44px" height="44px" viewBox="0 0 44 44" version="1.1" xmlns="http://www.w3.org/2000/svg" xmlns:xlink="http://www.w3.org/1999/xlink">
    <!-- Generator: Sketch 58 (84663) - https://sketch.com -->
    <title>ic_a/iot/ic_a_iot_p2_06</title>
    <desc>Created with Sketch.</desc>
    <g id="ic_a/iot/ic_a_iot_p2_06" stroke="none" stroke-width="1" fill="none" fill-rule="evenodd">
        <path d="M22.007751,29.9622155 C22.5637726,29.9622155 23.013496,30.410906 23.013496,30.9656505 L23.013496,30.9656505 L23.013496,33.7556891 C24.2481912,34.0983255 25.221229,35.0772864 25.572831,36.3091456 L25.572831,36.3091456 L34.7308346,36.3091456 C35.1723812,34.7509661 36.6033193,33.608845 38.2959146,33.608845 C40.3401118,33.608845 42,35.2649206 42,37.3044225 C42,39.3439244 40.3319351,41 38.279561,41 C36.5869657,41 35.1560276,39.8578789 34.714481,38.2996994 L34.714481,38.2996994 L25.5564774,38.2996994 C25.1149308,39.8578789 23.6839927,41 21.9913974,41 C20.2988021,41 18.867864,39.8578789 18.4263174,38.2996994 L18.4263174,38.2996994 L9.26831377,38.2996994 C9.12930836,38.7973379 8.89218148,39.2623444 8.55693313,39.6620867 C7.85372928,40.5105195 6.80710029,41 5.70323378,41 C5.45793011,41 5.22080323,40.983684 4.98367635,40.9347359 C3.52003113,40.6573637 2.34257352,39.4907686 2.06456269,38.0223272 C1.86014297,36.9209961 2.14633058,35.7951911 2.84953444,34.9467583 C3.70809728,33.9106913 5.08179782,33.4212108 6.42279121,33.6741091 C7.79649176,33.9270073 8.90035827,34.9712323 9.26831377,36.3009875 L9.26831377,36.3009875 L18.4344942,36.3009875 C18.7860961,35.0691284 19.759134,34.0983255 21.0020059,33.7475311 L21.0020059,33.7475311 L21.0020059,30.9656505 C21.0020059,30.410906 21.4517293,29.9622155 22.007751,29.9622155 Z M5.71958736,35.6075569 C5.20444966,35.6075569 4.7301959,35.8359811 4.40312434,36.2275655 C4.06787599,36.6273079 3.94522416,37.1331043 4.04334562,37.6552168 C4.16599746,38.3078574 4.71384232,38.854444 5.36798544,38.9768141 C5.99759819,39.0910262 6.61903415,38.87076 7.01969681,38.3894375 C7.34676837,37.9896951 7.47759699,37.4838987 7.38765231,36.9617862 C7.26500048,36.3091456 6.71715562,35.762559 6.0630125,35.6401889 C5.94853745,35.6157149 5.83406241,35.6075569 5.71958736,35.6075569 Z M21.9995742,35.6075569 C21.0592435,35.6075569 20.2988021,36.3662516 20.2988021,37.3044225 C20.2988021,38.2425934 21.0592435,39.0012881 21.9995742,39.0012881 C22.9399049,39.0012881 23.7003463,38.2425934 23.7003463,37.3044225 C23.7003463,36.3662516 22.9399049,35.6075569 21.9995742,35.6075569 Z M38.2877378,35.6075569 C37.388291,35.6075569 36.65238,36.3091456 36.5951425,37.1902104 L36.5951425,37.1902104 L36.6033193,37.3044225 C36.6033193,37.3452125 36.6033193,37.3778446 36.5951425,37.4186346 C36.6605568,38.2996994 37.388291,39.0012881 38.2877378,39.0012881 C39.2280685,39.0012881 39.9885099,38.2425934 39.9885099,37.3044225 C39.9885099,36.3662516 39.2280685,35.6075569 38.2877378,35.6075569 Z M21.9913974,3 C27.0610066,3 31.5827709,6.01030485 33.5206698,10.6848433 C34.7962489,13.7522542 34.7962489,17.1378274 33.5206698,20.2052383 C32.2532676,23.2726492 29.8492916,25.6629455 26.7748189,26.9355947 C25.2457594,27.5637613 23.6431088,27.8819236 22.007751,27.8819236 C16.9381418,27.8819236 12.4163775,24.8634607 10.4784785,20.1970803 C9.20289946,17.1296694 9.20289946,13.7440962 10.4784785,10.6766853 C11.7458808,7.60927437 14.1498568,5.2189781 17.2243294,3.9463289 C18.753389,3.3181623 20.3560396,3 21.9913974,3 Z M26.4395706,20.8170889 L22.9971424,20.8170889 L22.9971424,25.3366252 C24.3544894,24.7166166 25.6055381,22.9381709 26.4395706,20.8170889 L26.4395706,20.8170889 Z M20.9938291,20.8089309 L17.551401,20.8089309 C18.3936103,22.9381709 19.6364822,24.7166166 20.9938291,25.3284672 L20.9938291,25.3284672 L20.9938291,20.8089309 Z M15.4417894,20.8089309 L13.0214599,20.8089309 C14.1007961,22.6118506 15.6870931,24.0231859 17.551401,24.8960927 C16.6764846,23.7376556 15.9651039,22.3100043 15.4417894,20.8089309 L15.4417894,20.8089309 Z M30.9613349,20.8170889 L28.5573589,20.8170889 C28.0422212,22.3018463 27.3390174,23.7213396 26.4722778,24.8716187 C28.3529392,23.9823959 29.9065291,22.5792185 30.9613349,20.8170889 L30.9613349,20.8170889 Z M20.9938291,12.0717046 L16.8318436,12.0717046 C16.5947167,13.1485616 16.4638881,14.2906827 16.4638881,15.4409618 C16.4638881,16.5178188 16.6274238,17.6762559 16.9054347,18.818377 L16.9054347,18.818377 L20.9938291,18.818377 L20.9938291,12.0717046 Z M31.9016656,12.0635466 L29.2115021,12.0635466 C29.4240986,13.1730356 29.5385736,14.3069987 29.5385736,15.4328038 C29.5385736,16.4770288 29.3913914,17.6354659 29.1297342,18.810219 L29.1297342,18.810219 L31.9016656,18.810219 C32.6539302,16.6157149 32.6539302,14.2580507 31.9016656,12.0635466 L31.9016656,12.0635466 Z M14.7876463,12.0635466 L12.0974828,12.0635466 C11.3452182,14.2580507 11.3452182,16.6157149 12.0974828,18.810219 L12.0974828,18.810219 L14.8694142,18.810219 C14.5995802,17.6354659 14.4605748,16.4770288 14.4605748,15.4328038 C14.4605748,14.3069987 14.5750498,13.1730356 14.7876463,12.0635466 L14.7876463,12.0635466 Z M27.159128,12.0635466 L22.9971424,12.0635466 L22.9971424,18.810219 L27.0773601,18.810219 C27.3635478,17.6762559 27.5270835,16.5178188 27.5270835,15.4328038 C27.5270835,14.2825247 27.3962549,13.1404036 27.159128,12.0635466 L27.159128,12.0635466 Z M22.9971424,5.52082439 L22.9971424,10.0729927 L26.5703992,10.0729927 C25.72819,7.81322456 24.4280805,6.09188493 22.9971424,5.52082439 L22.9971424,5.52082439 Z M20.9938291,5.52082439 C19.5710679,6.09188493 18.2627816,7.81322456 17.4205724,10.0729927 L17.4205724,10.0729927 L20.9938291,10.0729927 Z M26.7911725,6.15714899 C27.5924978,7.25848003 28.2384642,8.60455131 28.7045411,10.0729927 L28.7045411,10.0729927 L30.9776885,10.0729927 C29.9637666,8.37612709 28.5001214,7.03821383 26.7911725,6.15714899 Z M17.1997991,6.165307 C15.458143,7.06268785 14.0353817,8.40875912 13.0378135,10.0648347 L13.0378135,10.0648347 L15.2946072,10.0648347 C15.7525074,8.60455131 16.3984738,7.25848003 17.1997991,6.165307 Z" id="Combined-Shape" fill="#209CFF"></path>
    </g>
</svg>