<?xml version="1.0" encoding="UTF-8"?>
<svg width="44px" height="44px" viewBox="0 0 44 44" version="1.1" xmlns="http://www.w3.org/2000/svg" xmlns:xlink="http://www.w3.org/1999/xlink">
    <!-- Generator: Sketch 58 (84663) - https://sketch.com -->
    <title>ic_a/iot/ic_a_iot_p2_02</title>
    <desc>Created with Sketch.</desc>
    <g id="ic_a/iot/ic_a_iot_p2_02" stroke="none" stroke-width="1" fill="none" fill-rule="evenodd">
        <path d="M41.5165261,13.9296504 C41.0040848,12.9816757 40.1496049,12.288321 39.1104488,11.9769832 C38.0712926,11.6654709 36.97187,11.7736712 36.0148314,12.2811658 C35.0577927,12.7888348 34.3575034,13.6350662 34.0431309,14.6641911 C33.833608,15.3496927 33.8165148,16.0610227 33.976873,16.7400671 L29.5881697,19.0674216 C28.2533202,17.2114367 26.1725409,15.9184425 23.7817945,15.6205426 L23.7817945,11.9115394 C25.5119005,11.4494192 26.7889506,9.88260844 26.7889506,8.02522736 C26.7889506,5.80572415 24.9656254,4 22.724488,4 C20.4833505,4 18.6598491,5.80572415 18.6598491,8.02540187 C18.6598491,9.88278296 19.9370754,11.4495938 21.6670052,11.9117139 L21.6670052,15.620368 C18.6135039,16.0009889 16.0641615,18.004964 14.9314338,20.7309147 L10.1282663,19.4492641 C10.1293236,18.7517209 9.94993393,18.0627291 9.58903996,17.4419732 C9.04752278,16.5100541 8.17189674,15.8427023 7.1237535,15.562952 C4.95909454,14.9853018 2.72482957,16.2594481 2.14172501,18.402513 C1.85924794,19.4407128 2.00198432,20.525683 2.5435015,21.4574276 C3.08501867,22.3891722 3.96064472,23.0566985 5.00878795,23.3364488 C5.36069482,23.4303388 5.717712,23.4767602 6.07279078,23.4767602 C6.77501856,23.4767602 7.46843544,23.2947393 8.09365605,22.9385507 C8.72046262,22.5813151 9.22515028,22.0750422 9.57811446,21.471389 L14.3814581,22.753214 C14.3296501,23.1268542 14.3005742,23.5074751 14.3005742,23.8950767 C14.3005742,25.8184251 14.9629768,27.5904675 16.0713865,29.0031801 L12.5496745,32.490896 C10.9964912,31.6071435 8.97703568,31.8174362 7.65117326,33.1301507 C6.06644695,34.6995792 6.06644695,37.2532819 7.65117326,38.822885 C8.44362452,39.6076865 9.48436661,40 10.5252849,40 C11.566027,40 12.6069453,39.6076865 13.3993966,38.822885 C14.7250828,37.5098214 14.9374252,35.5098602 14.0448822,33.9718446 L17.5665941,30.4841287 C18.9930769,31.5818386 20.7822158,32.2378469 22.724488,32.2378469 C24.6667601,32.2378469 26.455899,31.5818386 27.8823818,30.4841287 L31.4040937,33.9718446 C30.511727,35.5100347 30.7238932,37.5099959 32.0495794,38.822885 C32.8420306,39.6076865 33.8827727,40 34.923691,40 C35.9646093,40 37.0053514,39.607512 37.7978027,38.822885 C39.382529,37.2534564 39.382529,34.6997537 37.7978027,33.1301507 C36.4721165,31.8172616 34.4524847,31.6071435 32.8994776,32.490896 L29.3777657,29.0031801 C30.4861754,27.5904675 31.148578,25.8185996 31.148578,23.8950767 C31.148578,22.8443117 30.9494519,21.8390956 30.5897914,20.912063 L34.9753228,18.5864536 C35.4571022,19.0951698 36.0643486,19.4752671 36.7567082,19.6827674 C37.145797,19.7993446 37.5435205,19.8571096 37.9389531,19.8571096 C38.5994173,19.8571096 39.2537138,19.6958562 39.8523255,19.3784103 C40.8095404,18.8709158 41.5096536,18.0246844 41.824026,16.9955595 C42.1383985,15.9664346 42.0289673,14.8774505 41.5165261,13.9296504 L41.5165261,13.9296504 Z M38.8536995,17.5320238 C38.3946522,17.7756491 37.8672325,17.8274806 37.3687124,17.6779198 C36.8701924,17.528708 36.4603099,17.1959047 36.2144861,16.7411142 C35.9684861,16.2864982 35.9163257,15.7639953 36.0671681,15.2702876 C36.2178342,14.7765799 36.5538815,14.370654 37.013105,14.1272033 C37.3003399,13.9748502 37.6141838,13.8975393 37.9310233,13.8975393 C38.1206336,13.8975393 38.3114774,13.9252875 38.4980921,13.9811328 C38.9966121,14.1303446 39.4064946,14.4631479 39.6523184,14.9179384 C39.8983184,15.3725543 39.9504788,15.8948828 39.7996364,16.3885905 C39.6489702,16.8826472 39.312923,17.288573 38.8536995,17.5320238 L38.8536995,17.5320238 Z M29.0336124,23.8949022 C29.0336124,27.3402106 26.2032028,30.1432976 22.7243117,30.1432976 C19.2454207,30.1432976 16.4150111,27.3402106 16.4150111,23.8949022 C16.4150111,20.4495938 19.2454207,17.6465068 22.7243117,17.6465068 C26.2032028,17.6465068 29.0336124,20.4495938 29.0336124,23.8949022 Z M20.7744622,8.02540187 C20.7744622,6.96050106 21.6492072,6.09437475 22.7243117,6.09437475 C23.7994163,6.09437475 24.6741613,6.96067557 24.6741613,8.02540187 C24.6741613,9.09012817 23.7994163,9.956429 22.7243117,9.956429 C21.6492072,9.956429 20.7744622,9.09012817 20.7744622,8.02540187 Z M5.5589398,21.3143239 C5.05601431,21.1801206 4.63608739,20.8598825 4.37634241,20.4129453 C4.11642122,19.9658335 4.04804873,19.4454248 4.18356019,18.9473541 C4.46321777,17.9191018 5.53550284,17.3081189 6.57360166,17.5850769 C7.07652714,17.7192802 7.49645406,18.0393438 7.75637526,18.4864556 C8.01612024,18.9335673 8.08449273,19.4539761 7.94898127,19.9520467 C7.66932369,20.980299 6.59739105,21.5912819 5.5589398,21.3143239 Z M11.9040127,37.3417618 C11.1439855,38.0946268 9.90676058,38.0946268 9.14638095,37.3417618 C8.38617753,36.5888969 8.38617753,35.3637897 9.14638095,34.6107502 C9.52648265,34.2343177 10.0258838,34.0461887 10.5252849,34.0461887 C11.0245098,34.0461887 11.523911,34.2344923 11.9040127,34.6107502 C12.6642161,35.3637897 12.6642161,36.5888969 11.9040127,37.3417618 Z M36.3022426,34.6107502 C37.062446,35.3636152 37.062446,36.5887223 36.3022426,37.3417618 C35.5422154,38.0946268 34.3049905,38.0946268 33.5446108,37.3417618 C32.7844074,36.5888969 32.7844074,35.3637897 33.5446108,34.6107502 C33.9247125,34.2343177 34.4241137,34.0461887 34.9235148,34.0461887 C35.4227397,34.0461887 35.9221408,34.2343177 36.3022426,34.6107502 Z" id="Shape" fill="#47D382"></path>
    </g>
</svg>