<?xml version="1.0" encoding="UTF-8"?>
<svg width="44px" height="44px" viewBox="0 0 44 44" version="1.1" xmlns="http://www.w3.org/2000/svg" xmlns:xlink="http://www.w3.org/1999/xlink">
    <!-- Generator: Sketch 58 (84663) - https://sketch.com -->
    <title>ic_a/iot/ic_a_iot_p2_04</title>
    <desc>Created with Sketch.</desc>
    <g id="ic_a/iot/ic_a_iot_p2_04" stroke="none" stroke-width="1" fill="none" fill-rule="evenodd">
        <path d="M23.8211031,2.00180395 C33.82719,1.8675525 42,9.24375458 42,18.3968468 C42,22.9242275 39.9243176,27.2935021 36.3049108,30.3840593 C33.3435918,32.9127853 31.4904555,36.5406258 31.4904555,40.9598286 C31.4904555,41.5342806 30.9815404,42 30.3534691,42 L30.3534691,42 L17.8009875,42 C17.1730678,42 16.664001,41.5342806 16.664001,40.9598286 L16.664001,40.9598286 L16.664001,35.9781011 L10.1008606,35.9781011 C7.92466862,35.9781011 6.15430497,34.3584849 6.15430497,32.3677355 L6.15430497,32.3677355 L6.15430497,27.8176098 L3.13841059,27.8176098 C2.25065159,27.8176098 1.70398852,26.9245879 2.17030455,26.2318338 L2.17030455,26.2318338 L6.15430497,20.3142294 C6.15430497,19.1747563 6.14581547,19.1558945 6.16961638,19.0240008 C5.76939716,9.8786752 13.7748427,2.13036914 23.8211031,2.00180395 Z M39.7260272,18.3967081 C39.7260272,5.65405375 22.8610318,-0.700838711 13.0320116,8.28152669 C7.64633434,13.2033404 8.52818101,18.9836421 8.4282778,19.4120541 L8.4282778,19.4120541 L8.42801971,20.7075545 C8.41742037,21.0115993 8.22064341,21.2120801 5.17407107,25.737267 L5.17407107,25.737267 L7.29129139,25.737267 C7.91921108,25.737267 8.4282778,26.2028477 8.4282778,26.7774384 L8.4282778,26.7774384 L8.4282778,32.3677355 C8.4282778,33.2113839 9.17868884,33.8977583 10.1008606,33.8977583 L10.1008606,33.8977583 L17.8009875,33.8977583 C18.4289071,33.8977583 18.9379739,34.363339 18.9379739,34.9379297 L18.9379739,34.9379297 L18.9379739,39.9196572 L29.2363421,39.9196572 C29.4528243,35.6901816 31.436335,31.6957848 34.753455,28.8633287 C37.9135192,26.1645694 39.7260272,22.3497755 39.7260272,18.3967081 Z M16.0815608,8.24241625 C22.4485331,4.01862694 31.2721541,5.57167218 35.5407044,11.5394822 C38.0874023,15.1001969 38.5018718,19.541174 36.6496451,23.4190717 C35.2452395,26.3598442 30.0040353,26.2931346 28.2656589,21.6506416 C28.1906177,21.4502352 28.0835894,21.1643961 28.0083967,21.0248745 C27.6007492,20.9986622 23.8544547,21.6141663 22.8431432,19.142719 C22.6027085,18.5550915 22.6302994,17.9716247 22.6522811,17.5028541 C22.661377,17.3140977 22.6998829,16.7826395 22.5508619,16.597489 C21.7084308,16.2626925 17.8320651,18.3291663 14.9300209,14.4514073 C12.7838454,11.5835855 14.7449196,9.13585413 16.0815608,8.24241625 Z M33.6378439,12.6784005 C30.0757412,7.69778251 22.7283834,6.40283847 17.419718,9.92444274 C17.0837764,10.1559155 15.4296886,11.4367133 16.8062001,13.2760137 C19.0490953,16.2732329 21.4413148,13.6673955 23.6569223,14.778992 C24.472369,15.1882648 24.939443,16.0474463 24.9382302,17.1364364 C24.9376238,17.6448722 24.8609151,18.1406872 24.9724914,18.4134895 C25.185032,18.9331592 26.3091326,19.069907 27.2652624,18.9768464 C29.4226562,18.7664544 29.9138344,19.6334025 30.416534,20.9764718 C30.9995806,22.5332617 31.9948227,23.3224051 33.3751242,23.3224051 C33.9201197,23.3224051 34.3633928,23.0100763 34.5657764,22.5861024 C36.1099556,19.3535271 35.7629473,15.6498235 33.6378439,12.6784005 Z" id="Combined-Shape" fill="#FF874D"></path>
    </g>
</svg>