<?xml version="1.0" encoding="UTF-8"?>
<svg width="44px" height="44px" viewBox="0 0 44 44" version="1.1" xmlns="http://www.w3.org/2000/svg" xmlns:xlink="http://www.w3.org/1999/xlink">
    <!-- Generator: Sketch 58 (84663) - https://sketch.com -->
    <title>ic_a/vpn/ic_a_vpn_p2_10</title>
    <desc>Created with Sketch.</desc>
    <g id="ic_a/vpn/ic_a_vpn_p2_10" stroke="none" stroke-width="1" fill="none" fill-rule="evenodd">
        <path d="M17.0259704,3 C18.6043821,3 19.8991972,4.24244344 19.9896707,5.80361129 L19.9947204,5.97833908 L19.9947204,33.479403 C19.9947204,35.062913 18.7562772,36.3619103 17.2001357,36.4526761 L17.0259704,36.4577421 L13.1025238,36.4577421 L13.1025238,38.0245695 C13.1025238,38.3994311 13.380971,38.7100161 13.7413525,38.759177 L13.8415222,38.7659549 L25.8449554,38.7659549 C26.2186101,38.7659549 26.5284388,38.4866083 26.5774821,38.1250627 L26.5842438,38.0245695 L26.5842438,12.6761118 C26.5842438,11.0940042 27.8213392,9.79640913 29.3758247,9.70574176 L29.5498047,9.70068125 L31.6980896,9.70068125 C31.7725483,7.96097657 33.1594257,6.55640144 34.8882566,6.46160281 L35.0747528,6.45650211 L39.0367584,6.45650211 C39.6106781,6.45650211 40.0830727,6.89229103 40.1435079,7.45172238 L40.1500397,7.57337926 L40.1500397,8.21412938 L40.8867188,8.21412938 C41.5016327,8.21412938 42,8.71410643 42,9.33100653 C42,9.90677995 41.5658667,10.3807004 41.0080344,10.4413308 L40.8867188,10.4478837 L40.1500397,10.4478837 L40.1500397,11.2619824 L40.8867188,11.2619824 C41.5016327,11.2619824 42,11.7619594 42,12.3788596 C42,12.9543616 41.5658667,13.4285173 41.0080344,13.4891803 L40.8867188,13.4957367 L40.1500397,13.4957367 L40.1500397,14.0617375 C40.1500397,14.6375109 39.7159064,15.1114314 39.1580741,15.1720618 L39.0367584,15.1786146 L35.0747528,15.1786146 C33.3227345,15.1786146 31.8780102,13.8343004 31.7113061,12.1195337 L31.6983795,11.9344356 L29.5498047,11.9344356 C29.17615,11.9344356 28.866565,12.2140265 28.8175623,12.5756128 L28.8108063,12.6761118 L28.8108063,38.0245695 C28.8108063,39.6066771 27.5737109,40.9042721 26.0189654,40.9949395 L25.8449554,41 L13.8415222,41 C12.2647879,41 10.9713806,39.7589088 10.8810055,38.1991415 L10.8759613,38.0245695 L10.8759613,36.4577421 L6.96875,36.4577421 C5.39033832,36.4577421 4.09552321,35.2152986 4.0050497,33.6541308 L4,33.479403 L4,5.97833908 C4,4.39482912 5.23844326,3.09583175 6.79458477,3.00506601 L6.96875,3 L17.0259704,3 Z M17.0259704,5.23375431 L6.96875,5.23375431 C6.59350077,5.23375431 6.2825648,5.51432283 6.23334803,5.8774163 L6.2265625,5.97833908 L6.2265625,33.479403 C6.2265625,33.8555977 6.50622771,34.1677601 6.86815216,34.2171748 L6.96875,34.2239878 L17.0259704,34.2239878 C17.4009539,34.2239878 17.7121113,33.9431749 17.7613669,33.5802647 L17.7681579,33.479403 L17.7681579,5.97833908 C17.7681579,5.56765404 17.4350433,5.23375431 17.0259704,5.23375431 Z M11.9973602,25.8026177 C13.7661438,25.8026177 15.2052917,27.2461232 15.2052917,29.0209109 C15.2052917,30.7954076 13.7661438,32.239204 11.9973602,32.239204 C10.2285767,32.239204 8.78942871,30.7954076 8.78942871,29.0209109 C8.78942871,27.2461232 10.2285767,25.8026177 11.9973602,25.8026177 Z M11.9973602,28.036372 C11.4563751,28.036372 11.0159912,28.4778875 11.0159912,29.0209109 C11.0159912,29.5636433 11.4563751,30.0054497 11.9973602,30.0054497 C12.5383454,30.0054497 12.9787292,29.5636433 12.9787292,29.0209109 C12.9787292,28.4778875 12.5383454,28.036372 11.9973602,28.036372 Z M11.9973602,16.5104325 C13.7661438,16.5104325 15.2052917,17.9542289 15.2052917,19.7287256 C15.2052917,21.5035132 13.7661438,22.9470188 11.9973602,22.9470188 C10.2285767,22.9470188 8.78942871,21.5035132 8.78942871,19.7287256 C8.78942871,17.9542289 10.2285767,16.5104325 11.9973602,16.5104325 Z M11.9973602,18.7441868 C11.4563751,18.7441868 11.0159912,19.1859931 11.0159912,19.7287256 C11.0159912,20.271749 11.4563751,20.7132644 11.9973602,20.7132644 C12.5383454,20.7132644 12.9787292,20.271749 12.9787292,19.7287256 C12.9787292,19.1859931 12.5383454,18.7441868 11.9973602,18.7441868 Z M11.9973602,7.21853808 C13.7661438,7.21853808 15.2052917,8.66233449 15.2052917,10.4368312 C15.2052917,12.211328 13.7661438,13.6551244 11.9973602,13.6551244 C10.2285767,13.6551244 8.78942871,12.211328 8.78942871,10.4368312 C8.78942871,8.66233449 10.2285767,7.21853808 11.9973602,7.21853808 Z M37.9234772,8.69054725 L35.0747528,8.69054725 C34.4810801,8.69054725 33.9907004,9.14280499 33.927955,9.72193128 L33.9211731,9.84785305 L33.9211731,11.7875545 C33.9211731,12.3831448 34.3719747,12.8753619 34.9492364,12.9383437 L35.0747528,12.9451512 L37.9234772,12.9451512 L37.9234772,8.69054725 Z M11.9973602,9.45229239 C11.4563751,9.45229239 11.0159912,9.89409876 11.0159912,10.4368312 C11.0159912,10.9798546 11.4563751,11.42137 11.9973602,11.42137 C12.5383454,11.42137 12.9787292,10.9798546 12.9787292,10.4368312 C12.9787292,9.89409876 12.5383454,9.45229239 11.9973602,9.45229239 Z" id="Combined-Shape" fill="#39BFB0"></path>
    </g>
</svg>