<?xml version="1.0" encoding="UTF-8"?>
<svg width="44px" height="44px" viewBox="0 0 44 44" version="1.1" xmlns="http://www.w3.org/2000/svg" xmlns:xlink="http://www.w3.org/1999/xlink">
    <!-- Generator: Sketch 58 (84663) - https://sketch.com -->
    <title>ic_a/vpn/ic_a_vpn_p2_08</title>
    <desc>Created with Sketch.</desc>
    <g id="ic_a/vpn/ic_a_vpn_p2_08" stroke="none" stroke-width="1" fill="none" fill-rule="evenodd">
        <path d="M33.2070312,3 C34.7857225,3 36.080278,4.23844326 36.1707326,5.79458477 L36.1757812,5.96875 L36.1757812,18.5705719 L38.03125,18.5705719 C39.6096617,18.5705719 40.9044768,19.8087456 40.9949503,21.3651278 L41,21.5393219 L41,28.2184295 C41,29.7971208 39.7615567,31.0916763 38.2054152,31.1821309 L38.03125,31.1871795 L36.1757812,31.1871795 L36.1757812,38.03125 C36.1757812,39.6096617 34.9376075,40.9044768 33.3812254,40.9949503 L33.2070312,41 L10.7929688,41 C9.21427752,41 7.91972199,39.7615567 7.82926738,38.2054152 L7.82421875,38.03125 L7.82421875,31.1871795 L5.96875,31.1871795 C4.39033832,31.1871795 3.09552321,29.9490058 3.0050497,28.3926237 L3,28.2184295 L3,21.5393219 C3,19.9606307 4.23844326,18.6660752 5.79458477,18.5756205 L5.96875,18.5705719 L7.82421875,18.5705719 L7.82421875,5.96875 C7.82421875,4.39033832 9.06239245,3.09552321 10.6187746,3.0050497 L10.7929688,3 L33.2070312,3 Z M33.9492188,31.1871795 L10.0507812,31.1871795 L10.0507812,38.03125 C10.0507812,38.4064992 10.3304465,38.7174352 10.6923709,38.766652 L10.7929688,38.7734375 L33.2070312,38.7734375 C33.5822805,38.7734375 33.8932165,38.4937723 33.9424332,38.1318478 L33.9492188,38.03125 L33.9492188,31.1871795 Z M28.6796875,32.4126587 C29.2946014,32.4126587 29.7929688,32.911026 29.7929688,33.5259399 C29.7929688,34.099589 29.3588354,34.5722182 28.8010032,34.6326858 L28.6796875,34.6392212 L15.2460938,34.6392212 C14.6311798,34.6392212 14.1328125,34.140564 14.1328125,33.5259399 C14.1328125,32.9520203 14.5669458,32.4796257 15.1247781,32.4191905 L15.2460938,32.4126587 L28.6796875,32.4126587 Z M38.03125,20.7971344 L5.96875,20.7971344 C5.59350077,20.7971344 5.2825648,21.0767996 5.23334803,21.4387241 L5.2265625,21.5393219 L5.2265625,28.2184295 C5.2265625,28.5936788 5.50622771,28.9046147 5.86815216,28.9538315 L5.96875,28.960617 L38.03125,28.960617 C38.4064992,28.960617 38.7174352,28.6809518 38.766652,28.3190274 L38.7734375,28.2184295 L38.7734375,21.5393219 C38.7734375,21.1299591 38.4406128,20.7971344 38.03125,20.7971344 Z M29.5703125,23.7655944 C29.8634186,23.7655944 30.1498566,23.8844604 30.3577271,24.0914612 C30.5647278,24.2984619 30.6835938,24.5857697 30.6835938,24.8788757 C30.6835938,25.1719818 30.5647278,25.4584198 30.3577271,25.6662903 C30.1498566,25.873291 29.8634186,25.9921569 29.5703125,25.9921569 C29.2772064,25.9921569 28.9907684,25.873291 28.7828979,25.6662903 C28.5758972,25.4584198 28.4570312,25.1719818 28.4570312,24.8788757 C28.4570312,24.5857697 28.5758972,24.2993317 28.7828979,24.0914612 C28.9907684,23.8844604 29.2772064,23.7655944 29.5703125,23.7655944 Z M33.0585938,23.7655944 C33.3516998,23.7655944 33.6381378,23.8844604 33.8460083,24.0914612 C34.0530091,24.2984619 34.171875,24.5857697 34.171875,24.8788757 C34.171875,25.1719818 34.0530091,25.4584198 33.8460083,25.6662903 C33.6381378,25.873291 33.3516998,25.9921569 33.0585938,25.9921569 C32.7654877,25.9921569 32.4790497,25.873291 32.2711792,25.6662903 C32.0641784,25.4584198 31.9453125,25.1719818 31.9453125,24.8788757 C31.9453125,24.5857697 32.0641784,24.2993317 32.2711792,24.0914612 C32.4790497,23.8844604 32.7654877,23.7655944 33.0585938,23.7655944 Z M25.859375,23.7290649 C26.4742889,23.7290649 26.9726562,24.2274323 26.9726562,24.8423462 C26.9726562,25.4569702 26.4742889,25.9556274 25.859375,25.9556274 L25.859375,25.9556274 L16.65625,25.9556274 C16.0413361,25.9556274 15.5429688,25.4569702 15.5429688,24.8423462 C15.5429688,24.2274323 16.0413361,23.7290649 16.65625,23.7290649 L16.65625,23.7290649 Z M33.2070312,5.2265625 L10.7929688,5.2265625 C10.4177195,5.2265625 10.1067835,5.50622771 10.0575668,5.86815216 L10.0507812,5.96875 L10.0507812,18.5705719 L33.9492188,18.5705719 L33.9492188,5.96875 C33.9492188,5.55938721 33.616394,5.2265625 33.2070312,5.2265625 Z M28.6796875,14.7485962 C29.2946014,14.7485962 29.7929688,15.2469635 29.7929688,15.8618774 C29.7929688,16.4355265 29.3588354,16.9081557 28.8010032,16.9686233 L28.6796875,16.9751587 L15.2460938,16.9751587 C14.6311798,16.9751587 14.1328125,16.4765015 14.1328125,15.8618774 C14.1328125,15.2879578 14.5669458,14.8155632 15.1247781,14.755128 L15.2460938,14.7485962 L28.6796875,14.7485962 Z M28.6796875,9.40484619 C29.2946014,9.40484619 29.7929688,9.90321352 29.7929688,10.5181274 C29.7929688,11.0917765 29.3588354,11.5644057 28.8010032,11.6248733 L28.6796875,11.6314087 L15.2460938,11.6314087 C14.6311798,11.6314087 14.1328125,11.1327515 14.1328125,10.5181274 C14.1328125,9.94420778 14.5669458,9.47181315 15.1247781,9.41137796 L15.2460938,9.40484619 L28.6796875,9.40484619 Z" id="Combined-Shape" fill="#47D382"></path>
    </g>
</svg>