<?xml version="1.0" encoding="UTF-8"?>
<svg width="44px" height="44px" viewBox="0 0 44 44" version="1.1" xmlns="http://www.w3.org/2000/svg" xmlns:xlink="http://www.w3.org/1999/xlink">
    <!-- Generator: Sketch 59.1 (86144) - https://sketch.com -->
    <title>ic_a/uc/ic_a_uc_p3_03</title>
    <desc>Created with Sketch.</desc>
    <g id="ic_a/uc/ic_a_uc_p3_03" stroke="none" stroke-width="1" fill="none" fill-rule="evenodd">
        <path d="M21.9369141,3 C22.8095781,3 23.5149531,3.70787519 23.5149531,4.58344814 C23.5149531,5.45902108 22.8095781,6.16674734 21.9369141,6.16674734 L21.9369141,6.16674734 L7.73419141,6.16674734 C6.86316016,6.16674734 6.15615234,6.87603738 6.15615234,7.75004654 L6.15615234,7.75004654 L6.15615234,36.2501024 C6.15615234,37.1240371 6.86308594,37.8334016 7.73419141,37.8334016 L7.73419141,37.8334016 L21.9369141,37.8334016 C22.8095781,37.8334016 23.5149531,38.5411278 23.5149531,39.4167008 C23.5149531,40.2922737 22.8095781,41 21.9369141,41 L21.9369141,41 L7.73419141,41 C5.12406641,41 3,38.8688534 3,36.2500279 L3,36.2500279 L3,7.75004654 C3,5.13122111 5.12406641,3 7.73419141,3 L7.73419141,3 Z M28.7036602,11.3885369 C29.3159648,10.7662978 30.3164336,10.7583299 30.9350469,11.3726756 L30.9350469,11.3726756 L40.52975,20.8726942 C40.8311523,21.1719737 41,21.5757291 41,21.9998883 C41,22.4241964 40.8295938,22.8295901 40.52975,23.1272313 L40.52975,23.1272313 L30.9350469,32.6272499 C30.6288945,32.9312952 30.2281133,33.0832806 29.8272578,33.0832806 C29.4200938,33.0832806 29.0129297,32.9249656 28.7036602,32.6114631 C28.0929883,31.989224 28.0977383,30.9869841 28.7194688,30.3726384 L28.7194688,30.3726384 L35.576168,23.5833364 L17.2026484,23.5833364 C16.3299844,23.5833364 15.6246094,22.8755357 15.6246094,21.9999628 C15.6246094,21.1243898 16.3299844,20.4166636 17.2026484,20.4166636 L17.2026484,20.4166636 L35.576168,20.4166636 L28.7194688,13.6273616 C28.0976641,13.0130159 28.0913555,12.010776 28.7036602,11.3885369 Z" id="Combined-Shape" fill="#FF874D"></path>
    </g>
</svg>