<?xml version="1.0" encoding="UTF-8"?>
<svg width="120px" height="120px" viewBox="0 0 120 120" version="1.1" xmlns="http://www.w3.org/2000/svg" xmlns:xlink="http://www.w3.org/1999/xlink">
    <!-- Generator: Sketch 55.2 (78181) - https://sketchapp.com -->
    <title>icon/120/quality</title>
    <desc>Created with Sketch.</desc>
    <g id="icon/120/quality" stroke="none" stroke-width="1" fill="none" fill-rule="evenodd">
        <path d="M34.5454545,93.263103 C35.3487778,93.263103 36,93.9143252 36,94.7176484 L36,94.7208361 C36,95.5241593 35.3487778,96.1753815 34.5454545,96.1753815 C33.7421313,96.1753815 33.0909091,95.5241593 33.0909091,94.7208361 L33.0909091,94.7176484 C33.0909091,93.9143252 33.7421313,93.263103 34.5454545,93.263103 Z M94.1818182,19 C97.3951113,19 100,21.607743 100,24.8245571 L100,43.7543677 C100,44.5585712 99.3487778,45.2105069 98.5454545,45.2105069 L91.2727273,45.2105069 L91.2727273,90.3508244 C91.2727273,91.1550279 90.6215051,91.8069637 89.8181818,91.8069637 L79.1258182,91.8069637 C78.7059748,92.6860992 78.043841,93.4267637 77.2174545,93.9416639 C78.337627,95.4899466 78.4944716,97.5367701 77.6233022,99.2379805 C76.7521328,100.939191 75.0005366,102.006582 73.0909091,101.999969 L59.9592727,101.999969 C55.5736194,101.994619 51.2456359,100.999163 47.2974545,99.0876601 L43.2727273,99.0876601 L43.2727273,100.543799 C43.2727273,101.348003 42.6215051,101.999969 41.8181818,101.999969 L27.2727273,101.999969 C26.469404,101.999969 25.8181818,101.348003 25.8181818,100.543799 L25.8181818,99.0876601 L21.4561393,99.0876601 C20.6519358,99.0876601 20,98.4357243 20,97.6315208 C20,96.8273173 20.6519358,96.1753815 21.4561393,96.1753815 L25.8181818,96.1753815 L25.8181818,75.7894317 L21.4561393,75.7894317 C20.6519358,75.7894317 20,75.1374959 20,74.3332924 C20,73.5290889 20.6519358,72.8771531 21.4561393,72.8771531 L25.8181818,72.8771531 L25.8181818,71.4210139 C25.8181818,70.6168104 26.469404,69.9648746 27.2727273,69.9648746 L31.6363636,69.9648746 L31.6363636,24.8245571 C31.6363636,21.607743 34.2412524,19 37.4545455,19 L94.1818182,19 Z M40.3636364,99.0876601 L40.3636364,72.8771531 L28.7272727,72.8771531 L28.7272727,99.0876601 L40.3636364,99.0876601 Z M59.9592727,99.0876601 L73.0909091,99.0876601 C74.295894,99.0876601 75.2727273,98.1097564 75.2727273,96.9034512 C75.2727273,95.6971459 74.295894,94.7192423 73.0909091,94.7192423 L72.3652302,94.7192423 C71.5610267,94.7192423 70.9090909,94.0673065 70.9090909,93.263103 C70.9090909,92.4588995 71.5610267,91.8069637 72.3652302,91.8069637 L74.5454545,91.8069637 C75.7504395,91.8069637 76.7272727,90.8290601 76.7272727,89.6227548 C76.7272727,88.4164495 75.7504395,87.4385459 74.5454545,87.4385459 L72.3652302,87.4385459 C71.5610267,87.4385459 70.9090909,86.7866101 70.9090909,85.9824066 C70.9090909,85.1782031 71.5610267,84.5262673 72.3652302,84.5262673 L74.5454545,84.5262673 C75.7504394,84.5262673 76.7272726,83.5483636 76.7272726,82.3420584 C76.7272726,81.1357532 75.7504394,80.1578496 74.5454545,80.1578495 L72.3652302,80.1578495 C71.5610267,80.1578495 70.9090909,79.5059138 70.9090909,78.7017102 C70.9090909,77.8975067 71.5610267,77.245571 72.3652302,77.245571 L76,77.245571 C77.2049849,77.245571 78.1818182,76.2676673 78.1818182,75.0613621 C78.1818182,73.8550568 77.2049849,72.8771531 76,72.8771531 L60.7288665,72.8771531 C59.924663,72.8771531 59.2727273,72.2252174 59.2727273,71.4210139 C59.2727273,70.6168104 59.924663,69.9648746 60.7288665,69.9648746 L62.6516364,69.9648746 L62.6763636,69.9197343 C64.2115515,66.0965855 64.4967229,61.8846787 63.4909091,57.8891116 C62.913568,55.5668776 60.82681,53.9395268 58.4363636,53.9472867 L58.1454545,53.9472867 C59.3006212,61.117228 56.6754185,68.3759684 51.2029091,73.1436266 L48.5949091,75.4297653 C48.3294819,75.6619674 47.9888566,75.7897771 47.6363636,75.7894317 L43.2727273,75.7894317 L43.2727273,96.1753815 L47.6363636,96.1753815 C47.8614257,96.1729062 48.083991,96.2227517 48.2865455,96.3209955 C51.9115668,98.1339644 55.9070634,99.0809752 59.9592727,99.0876601 Z M88.3636364,88.8946852 L88.3636364,24.8245571 C88.3696649,23.7990663 88.6488377,22.7937474 89.1723636,21.9122785 L37.4545455,21.9122785 C35.8478989,21.9122785 34.5454545,23.2161501 34.5454545,24.8245571 L34.5454545,69.9648746 L41.8181818,69.9648746 C42.6215051,69.9648746 43.2727273,70.6168104 43.2727273,71.4210139 L43.2727273,72.8771531 L47.0894545,72.8771531 L49.2872727,70.9506809 C54.4338023,66.4663521 56.6241638,59.4658411 54.9527273,52.843589 C54.8443852,52.4087258 54.9421157,51.9481429 55.217681,51.5949191 C55.4932462,51.2416953 55.915942,51.0351878 56.3636364,51.035064 L58.4407273,51.035064 C62.1631058,51.0307442 65.4087517,53.5679819 66.3069091,57.1843402 C67.3659575,61.4088319 67.1687859,65.8510654 65.7396364,69.9648746 L76,69.9648746 C78.2756634,69.9571113 80.2787553,71.4655667 80.9022328,73.6565671 C81.5257102,75.8475675 80.6173908,78.1863192 78.6792727,79.3802711 C80.1562048,81.4185443 79.908048,84.2344844 78.0974545,85.9824066 C78.8928592,86.7651088 79.4077688,87.7888901 79.5621818,88.8946852 L88.3636364,88.8946852 Z M97.0909091,42.2982284 L97.0909091,24.8245571 C97.0909091,23.2161501 95.7884647,21.9122785 94.1818182,21.9122785 C92.5751716,21.9122785 91.2727273,23.2161501 91.2727273,24.8245571 L91.2727273,42.2982284 L97.0909091,42.2982284 Z M62.1818182,27.7368356 C62.9851415,27.7368356 63.6363636,28.3880578 63.6363636,29.1913811 L63.6363636,29.1945687 C63.6363636,29.997892 62.9851415,30.6491142 62.1818182,30.6491142 C61.3784949,30.6491142 60.7272727,29.997892 60.7272727,29.1945687 L60.7272727,29.1913811 C60.7272727,28.3880578 61.3784949,27.7368356 62.1818182,27.7368356 Z M68.0015938,27.7368356 L82.5438607,27.7368356 C83.3480642,27.7368356 84,28.3887714 84,29.1929749 C84,29.9971784 83.3480642,30.6491142 82.5438607,30.6491142 L68.0015938,30.6491142 C67.1973903,30.6491142 66.5454545,29.9971784 66.5454545,29.1929749 C66.5454545,28.3887714 67.1973903,27.7368356 68.0015938,27.7368356 Z M59.2743211,33.5613927 L82.5438607,33.5613927 C83.3480642,33.5613927 84,34.2133285 84,35.017532 C84,35.8217355 83.3480642,36.4736713 82.5438607,36.4736713 L59.2743211,36.4736713 C58.4701176,36.4736713 57.8181818,35.8217355 57.8181818,35.017532 C57.8181818,34.2133285 58.4701176,33.5613927 59.2743211,33.5613927 Z M59.2743211,39.3859498 L82.5438607,39.3859498 C83.3480642,39.3859498 84,40.0378856 84,40.8420891 C84,41.6462926 83.3480642,42.2982284 82.5438607,42.2982284 L59.2743211,42.2982284 C58.4701176,42.2982284 57.8181818,41.6462926 57.8181818,40.8420891 C57.8181818,40.0378856 58.4701176,39.3859498 59.2743211,39.3859498 Z M59.2743211,45.2105069 L76.7256789,45.2105069 C77.5298824,45.2105069 78.1818182,45.8624427 78.1818182,46.6666462 C78.1818182,47.4708497 77.5298824,48.1227855 76.7256789,48.1227855 L59.2743211,48.1227855 C58.4701176,48.1227855 57.8181818,47.4708497 57.8181818,46.6666462 C57.8181818,45.8624427 58.4701176,45.2105069 59.2743211,45.2105069 Z" id="Combined-Shape" fill="#4D4D4D"></path>
        <path d="M47.0627749,26.3099302 C50.7208554,26.7567943 53.4668821,29.8721612 53.454628,33.5613927 C53.4444033,36.5905776 51.5617771,39.2969911 48.7272727,40.3571947 L50.8365631,43.1723202 C51.3185869,43.8156445 51.1883,44.7278446 50.5454545,45.2105069 C50.5450683,45.2107969 50.5446819,45.2110868 50.5442953,45.2113764 C49.9017968,45.6927775 48.9906961,45.5621823 48.509295,44.9196838 L46.1818182,41.813334 L43.8543414,44.9196838 C43.8540518,44.9200704 43.8537619,44.9204568 43.8534719,44.920843 C43.3714306,45.5628613 42.4602001,45.6925483 41.8181818,45.2105069 C41.1753364,44.7278446 41.0450494,43.8156445 41.5270733,43.1723202 L43.6363636,40.3571947 C40.1842481,39.0659358 38.242523,35.3938595 39.1167203,31.8099112 C39.9909176,28.2259629 43.4046945,25.863066 47.0627749,26.3099302 Z M46.1818182,37.9298106 C48.591788,37.9298106 50.5454545,35.9740033 50.5454545,33.5613927 C50.5454545,31.1487822 48.591788,29.1929749 46.1818182,29.1929749 C43.7718484,29.1929749 41.8181818,31.1487822 41.8181818,33.5613927 C41.8181818,35.9740033 43.7718484,37.9298106 46.1818182,37.9298106 Z M46.1818182,32.1052535 C46.9851415,32.1052535 47.6363636,32.7564756 47.6363636,33.5597989 L47.6363636,33.5629866 C47.6363636,34.3663098 46.9851415,35.017532 46.1818182,35.017532 C45.3784949,35.017532 44.7272727,34.3663098 44.7272727,33.5629866 L44.7272727,33.5597989 C44.7272727,32.7564756 45.3784949,32.1052535 46.1818182,32.1052535 Z" id="Combined-Shape" fill="#209CFF"></path>
        <path d="M95.6363636,56.8596211 C96.4396869,56.8596211 97.0909091,57.5108433 97.0909091,58.3141666 L97.0909091,78.7033041 C97.0909091,79.5066273 96.4396869,80.1578495 95.6363636,80.1578495 C94.8330404,80.1578495 94.1818182,79.5066273 94.1818182,78.7033041 L94.1818182,58.3141666 C94.1818182,57.5108433 94.8330404,56.8596211 95.6363636,56.8596211 Z M95.6363636,83.0701281 C96.4396869,83.0701281 97.0909091,83.7213502 97.0909091,84.5246735 L97.0909091,84.5278612 C97.0909091,85.3311844 96.4396869,85.9824066 95.6363636,85.9824066 C94.8330404,85.9824066 94.1818182,85.3311844 94.1818182,84.5278612 L94.1818182,84.5246735 C94.1818182,83.7213502 94.8330404,83.0701281 95.6363636,83.0701281 Z" id="Combined-Shape" fill="#FF874D"></path>
        <rect id="Rectangle" fill="#47D382" x="25.8181818" y="27.7368356" width="2.90909091" height="29.1227855"></rect>
    </g>
</svg>