<?xml version="1.0" encoding="UTF-8"?>
<svg width="44px" height="44px" viewBox="0 0 44 44" version="1.1" xmlns="http://www.w3.org/2000/svg" xmlns:xlink="http://www.w3.org/1999/xlink">
    <title>ic_a/cdn/ic_a_cdn_p3_04</title>
    <g id="ic_a/cdn/ic_a_cdn_p3_04" stroke="none" stroke-width="1" fill="none" fill-rule="evenodd">
        <path d="M40.8574219,5.81481029 L35.8526917,5.81481029 C35.870842,5.26047713 35.8809586,4.70287098 35.8809586,4.14258684 C35.8809586,3.51148616 35.3691788,3 34.7383805,3 L10.2616195,3 C9.63082121,3 9.11904142,3.51148616 9.11904142,4.14258684 C9.11904142,4.70287098 9.12915804,5.26047713 9.14730835,5.81481029 L4.14257812,5.81481029 C3.51148226,5.81481029 3,6.32629645 3,6.95739713 C3,12.0770193 4.33806608,16.9071267 6.76753239,20.5583462 C9.16902922,24.167909 12.3679504,26.2382526 15.8236541,26.439693 C16.6070938,27.2921699 17.4351654,27.9872435 18.2977524,28.5174753 L18.2977524,33.5957381 L16.3809586,33.5957381 C14.0636673,33.5957381 12.1787109,35.4810064 12.1787109,37.7980178 L12.1787109,39.7148263 L12.0974808,39.7148263 C11.4663849,39.7148263 10.9549027,40.22661 10.9549027,40.8574132 C10.9549027,41.4885138 11.4663849,42 12.0974808,42 L32.9025192,42 C33.5336151,42 34.0450973,41.4885138 34.0450973,40.8574132 C34.0450973,40.22661 33.5336151,39.7148263 32.9025192,39.7148263 L32.8212891,39.7148263 L32.8212891,37.7980178 C32.8212891,35.4810064 30.9363327,33.5957381 28.6190414,33.5957381 L26.7022476,33.5957381 L26.7022476,28.5174753 C27.5648346,27.9875411 28.3932038,27.2921699 29.1766434,26.439693 C32.6320496,26.2382526 35.8309708,24.167909 38.2327652,20.5583462 C40.6622314,16.9071267 42,12.0770193 42,6.95739713 C42,6.32629645 41.4885177,5.81481029 40.8574219,5.81481029 Z M8.67004395,19.2925742 C6.66606901,16.2810843 5.48867798,12.3421352 5.30925749,8.09998398 L9.27495573,8.09998398 C9.68705746,13.3148217 10.9111633,18.1351099 12.8243866,21.9612881 C13.1290741,22.5706678 13.4477463,23.1464244 13.7783203,23.6885581 C11.8778915,22.9708708 10.1190949,21.4706304 8.67004395,19.2925742 Z M30.5361328,37.7980178 L30.5361328,39.7151238 L14.4638672,39.7151238 L14.4638672,37.7980178 C14.4638672,36.741125 15.3237762,35.8809118 16.3809586,35.8809118 L28.6190414,35.8809118 C29.6762238,35.8809118 30.5361328,36.741125 30.5361328,37.7980178 Z M24.4170914,33.5957381 L20.5829086,33.5957381 L20.5829086,29.5103951 C21.2110291,29.6758322 21.8510513,29.7618237 22.5,29.7618237 C23.1489487,29.7618237 23.7889709,29.6758322 24.4170914,29.5103951 L24.4170914,33.5957381 Z M25.1246567,26.7919906 C25.0731812,26.8131166 25.0237884,26.8387057 24.9764786,26.8669729 C24.1689377,27.2686635 23.3390808,27.47665 22.5,27.47665 C21.6612167,27.47665 20.8316574,27.2686635 20.0244141,26.867568 C19.9765091,26.8387057 19.9268188,26.8131166 19.8747482,26.7913955 C18.9788361,26.3176981 18.1120834,25.602391 17.2923431,24.6624349 C17.2491989,24.6008423 17.2006989,24.5440105 17.1468429,24.492237 C16.3330536,23.5260965 15.5674667,22.3376872 14.8682327,20.9392085 C12.7684479,16.7399043 11.5556488,11.2182939 11.4175872,5.28517368 L33.5824128,5.28517368 C33.4440536,11.2182939 32.2312546,16.7402018 30.1317673,20.9392085 C29.4325333,22.3376872 28.6669464,23.5260965 27.8534546,24.492237 C27.7993011,24.5440105 27.750206,24.6011398 27.7073593,24.6627324 C26.887619,25.6029862 26.0205688,26.3179956 25.1246567,26.7919906 Z M36.3299561,19.2925742 C34.8809051,21.4706304 33.1221085,22.9708708 31.2216797,23.6885581 C31.5522537,23.1464244 31.8709259,22.5706678 32.1756134,21.9612881 C34.0888367,18.1351099 35.3126449,13.3148217 35.7250443,8.09998398 L39.6907425,8.09998398 C39.511322,12.3421352 38.333931,16.2810843 36.3299561,19.2925742 Z" id="Shape" fill="#209CFF"></path>
    </g>
</svg>