<?xml version="1.0" encoding="UTF-8"?>
<svg width="44px" height="44px" viewBox="0 0 44 44" version="1.1" xmlns="http://www.w3.org/2000/svg" xmlns:xlink="http://www.w3.org/1999/xlink">
    <!-- Generator: Sketch 58 (84663) - https://sketch.com -->
    <title>ic_a/soc/ic_a_soc_p2_02</title>
    <desc>Created with Sketch.</desc>
    <g id="ic_a/soc/ic_a_soc_p2_02" stroke="none" stroke-width="1" fill="none" fill-rule="evenodd">
        <path d="M28.25,7 C28.9409175,7 29.5,7.5590825 29.5,8.25 L29.5,8.25 L29.5,19.5 L38.25,19.5 C38.9409175,19.5 39.5,20.0590825 39.5,20.75 L39.5,20.75 L39.5,34.5 L40.75,34.5 C41.4409175,34.5 42,35.0590825 42,35.75 C42,36.4409175 41.4409175,37 40.75,37 L40.75,37 L3.25,37 C2.5590825,37 2,36.4409175 2,35.75 C2,35.0590825 2.5590825,34.5 3.25,34.5 L3.25,34.5 L4.5,34.5 L4.5,18.25 C4.5,17.5590825 5.0590825,17 5.75,17 L5.75,17 L14.5,17 L14.5,8.25 C14.5,7.5590825 15.0590825,7 15.75,7 L15.75,7 Z M14.5,19.5 L7,19.5 L7,34.5 L14.5,34.5 L14.5,19.5 Z M27,9.5 L17,9.5 L17,34.5 L27,34.5 L27,9.5 Z M37,22 L29.5,22 L29.5,34.5 L37,34.5 L37,22 Z M34.1334225,24.865655 C34.6215775,25.35381 34.6215775,26.1452675 34.1334225,26.6334225 C33.6452675,27.1215775 32.85381,27.1215775 32.365655,26.6334225 C31.8775,26.1452675 31.8775,25.35381 32.365655,24.865655 C32.85381,24.3775 33.6452675,24.3775 34.1334225,24.865655 Z M11.6334225,22.365655 C12.1215775,22.85381 12.1215775,23.6452675 11.6334225,24.1334225 C11.1452675,24.6215775 10.35381,24.6215775 9.865655,24.1334225 C9.3775,23.6452675 9.3775,22.85381 9.865655,22.365655 C10.35381,21.8775 11.1452675,21.8775 11.6334225,22.365655 Z M22.8834225,12.365655 C23.3715775,12.85381 23.3715775,13.6452675 22.8834225,14.1334225 C22.3952675,14.6215775 21.60381,14.6215775 21.115655,14.1334225 C20.6275,13.6452675 20.6275,12.85381 21.115655,12.365655 C21.60381,11.8775 22.3952675,11.8775 22.8834225,12.365655 Z" id="Combined-Shape" fill="#47D382"></path>
    </g>
</svg>