<?xml version="1.0" encoding="UTF-8"?>
<svg width="80px" height="80px" viewBox="0 0 80 80" version="1.1" xmlns="http://www.w3.org/2000/svg" xmlns:xlink="http://www.w3.org/1999/xlink">
    <!-- Generator: Sketch 59.1 (86144) - https://sketch.com -->
    <title>ic/cat_a/ic_cat_a_03</title>
    <desc>Created with Sketch.</desc>
    <g id="ic/cat_a/ic_cat_a_03" stroke="none" stroke-width="1" fill="none" fill-rule="evenodd">
        <path d="M37.2137061,17 C47.2287823,17 55.4476764,24.2215414 56.3185526,33.3756079 C56.3729824,33.8841672 56.4818419,34.3418705 56.7539907,34.7487179 L56.7539907,34.7487179 L61.6526693,41.7159797 C62.5779753,43.0382338 61.5438098,44.8181911 59.8564872,44.7673352 L59.8564872,44.7673352 L57.0261395,44.7673352 C56.6451312,44.7673352 56.3729824,45.0724708 56.3729824,45.3776063 L56.3729824,45.3776063 L56.3729824,52.5991477 C56.3729824,54.2773932 54.9578086,55.5996473 53.1616264,55.5996473 L53.1616264,55.5996473 L47.3920716,55.5996473 C46.9022038,55.5996473 46.4667657,56.0064947 46.4667657,56.464198 L46.4667657,56.464198 L46.4667657,62.4143413 C46.4667657,63.3297479 45.6503192,64.0925868 44.6705835,63.990875 L44.6705835,63.990875 L28.1783655,60.6008697 C27.3074893,60.4991579 26.6543322,59.8380308 26.6543322,59.024336 L26.6543322,59.024336 L26.6543322,52.1414444 C26.6543322,51.4294614 26.2733239,50.8191903 25.7290262,50.361487 C21.0480667,46.5981485 18,40.851429 18,34.9521416 C18,25.0352362 26.5999024,17 37.2137061,17 Z M35.3674497,40.3937256 L29.8305369,40.3937256 C29.3875839,40.3937256 29,40.7497171 29,41.1565645 C29,41.5634119 29.3875839,41.9194034 29.8305369,41.9194034 L29.8305369,41.9194034 L34.5369128,41.9194034 L34.5369128,45.4793182 C34.5369128,45.8861656 34.9244966,46.242157 35.3674497,46.242157 L35.3674497,46.242157 L40.0738255,46.242157 C40.4060403,47.2592755 41.4580537,48.0221144 42.6761745,48.0221144 C44.2265101,48.0221144 45.5,46.8524281 45.5,45.4793182 C45.5,44.1062082 44.2818792,42.9365219 42.7315436,42.9365219 C41.5134228,42.9365219 40.4614094,43.6993608 40.1291946,44.7164793 L40.1291946,44.7164793 L36.1979866,44.7164793 L36.1979866,41.1565645 C36.1979866,40.7497171 35.8104027,40.3937256 35.3674497,40.3937256 L35.3674497,40.3937256 Z M42.6354167,33.7315994 C41.375,33.7315994 40.2864583,34.4944383 39.9427083,35.5115568 L39.9427083,35.5115568 L26.1927083,35.5115568 C25.734375,35.5115568 25.3333333,35.8675483 25.3333333,36.2743957 C25.3333333,36.6812431 25.734375,37.0372346 26.1927083,37.0372346 L26.1927083,37.0372346 L39.9427083,37.0372346 C40.2864583,38.0543531 41.375,38.817192 42.6354167,38.817192 C44.2395833,38.817192 45.5,37.6983616 45.5,36.2743957 C45.5,34.8504298 44.2395833,33.7315994 42.6354167,33.7315994 Z M41.1975309,24.5266769 C40.1111111,24.5266769 39.1728395,25.2895158 38.8765432,26.3066343 L38.8765432,26.3066343 L34.6790123,26.3066343 C34.2839506,26.3066343 33.9382716,26.6626258 33.9382716,27.0694732 L33.9382716,27.0694732 L33.9382716,30.629388 L29.7407407,30.629388 C29.345679,30.629388 29,30.9853795 29,31.3922269 C29,31.7990743 29.345679,32.1550657 29.7407407,32.1550657 L29.7407407,32.1550657 L34.6790123,32.1550657 C35.0740741,32.1550657 35.4197531,31.7990743 35.4197531,31.3922269 L35.4197531,31.3922269 L35.4197531,27.8323121 L38.9259259,27.8323121 C39.2222222,28.8494306 40.1604938,29.6122695 41.2469136,29.6122695 C42.6296296,29.6122695 43.6666667,28.4934391 43.6666667,27.0694732 C43.6666667,25.6455073 42.5802469,24.5266769 41.1975309,24.5266769 Z" id="Combined-Shape" fill="#209CFF"></path>
    </g>
</svg>