<?xml version="1.0" encoding="UTF-8"?>
<svg width="44px" height="44px" viewBox="0 0 44 44" version="1.1" xmlns="http://www.w3.org/2000/svg" xmlns:xlink="http://www.w3.org/1999/xlink">
    <!-- Generator: Sketch 57.1 (83088) - https://sketch.com -->
    <title>ic_a/sdwan/ic_a_sdwan_p2_03</title>
    <desc>Created with Sketch.</desc>
    <g id="ic_a/sdwan/ic_a_sdwan_p2_03" stroke="none" stroke-width="1" fill="none" fill-rule="evenodd">
        <path d="M8.45879018,7.17937319 C9.7720805,7.17937319 11.0784596,7.36941953 12.3373152,7.74360413 C13.5928754,8.11680921 14.7724332,8.70939023 15.821362,9.49390411 L16.2483423,9.81325082 C17.3609869,10.645419 18.3205849,11.6645781 19.0843252,12.82526 L19.1871568,12.9815366 C19.8829763,14.0389969 20.3919186,15.2081573 20.6917688,16.4379853 C20.9926115,17.6718837 21.1342622,18.9392181 21.1132673,20.2090885 L21.0756358,22.4852137 C21.059279,23.4745447 21.125398,24.4635181 21.2733064,25.4418669 C21.4200419,26.4124579 21.7560413,27.3447636 22.2622147,28.1858146 L22.6241611,28.78722 C23.3013444,29.9124188 24.2346324,30.861829 25.3480692,31.5581823 L25.9188829,31.9151743 C26.6619268,32.3798805 27.4797145,32.7126341 28.336121,32.898736 C29.1965012,33.0857013 30.0744298,33.1799904 30.9548899,33.1799904 L36.0178943,33.1799904 L33.1824384,29.93181 C32.6571916,29.330109 32.7191699,28.4165373 33.3208708,27.8912905 C33.3345773,27.8793256 33.3485083,27.8676205 33.3626564,27.8561813 C34.0146029,27.3290647 34.9666687,27.4118522 35.5178465,28.0435872 L40.3318915,33.5612277 C40.4889382,33.7412275 40.6049876,33.9532094 40.6720046,34.182496 C40.7383145,34.409363 40.7354848,34.6508479 40.6638772,34.8760988 L40.6499978,34.919758 C40.5682823,35.1768045 40.4375528,35.4155902 40.2650316,35.6229228 L35.5353848,41.3069191 C34.995362,41.9559078 34.0339979,42.050319 33.3780411,41.518782 C32.7369198,40.9992667 32.6383387,40.0583847 33.1578541,39.4172634 L33.1760274,39.3952689 L35.8808267,36.1846673 L31.4746088,36.1846673 C30.6901692,36.1846673 29.9061981,36.1463335 29.1255006,36.0698031 C28.3470576,35.9934937 27.5803424,35.8255683 26.8412675,35.5695119 L26.0080816,35.2808503 C24.7243042,34.8360789 23.5440536,34.135592 22.5386806,33.221737 L22.1085261,32.830739 C21.1695261,31.9772152 20.3718647,30.9801408 19.7452778,29.8766859 L19.6973205,29.7922304 C19.1022756,28.7443228 18.6718801,27.611158 18.4212174,26.4324482 C18.17002,25.2512244 18.0652105,24.0435665 18.1091543,22.8367282 L18.1361294,22.095904 C18.1787152,20.9263599 18.1449333,19.7552833 18.0349991,18.5901389 C17.9260943,17.4359045 17.5827349,16.3160462 17.0259462,15.2991373 L16.8118992,14.9082057 C16.2807822,13.9381833 15.5627627,13.0829861 14.6993027,12.3919973 L14.3460492,12.1093042 C13.7129449,11.6026589 13.009081,11.1914251 12.2568458,10.8886831 L12.0827341,10.8186107 C11.4448013,10.5618705 10.7785048,10.3821899 10.0979824,10.2833816 C9.41600769,10.1843624 8.72751085,10.1371557 8.03840332,10.1421668 L5.15907875,10.163105 C4.33815061,10.1690747 3.66781746,9.5084203 3.66184776,8.68749216 L3.66180846,8.67668306 C3.66180846,7.84974165 4.33217693,7.17937319 5.15911834,7.17937319 L8.45879018,7.17937319 Z M17.0140414,29.7916785 L17.0881199,29.8467092 C17.7142801,30.3118648 17.8465664,31.1957055 17.3840363,31.8238076 L16.8729305,32.5178741 C16.656222,32.8121578 16.4220603,33.0931807 16.1717065,33.3594295 C15.9214711,33.6255523 15.6518661,33.8727731 15.3651047,34.0990626 L14.9315393,34.4411983 C14.3574648,34.8942127 13.730501,35.2758359 13.0644159,35.5776874 L12.7505471,35.7199242 C12.1691316,35.9834058 11.5611723,36.1838676 10.9370674,36.3178809 L10.4676699,36.418674 C10.1549072,36.4858332 9.83891217,36.536941 9.52092485,36.5717969 C9.20296633,36.6066496 8.88334193,36.624115 8.56347894,36.624115 L5.16711124,36.624115 C4.33575547,36.624115 3.66180846,35.950168 3.66180846,35.1188122 C3.66180846,34.2874564 4.33575547,33.6135094 5.16711124,33.6135094 L8.56180652,33.6135094 C9.21492941,33.6135094 9.86530965,33.529038 10.4967632,33.3621971 L10.5805766,33.3400521 C11.1560686,33.1879972 11.7078979,32.9574685 12.2205347,32.6549535 L12.38201,32.5596644 C12.788616,32.3197197 13.1728834,32.0437921 13.5301944,31.7351973 C13.8871802,31.4268833 14.2098044,31.0808962 14.4924488,30.7032608 L14.9496057,30.092463 C15.4374341,29.4406856 16.360516,29.3061942 17.0140414,29.7916785 Z M33.3602293,2.98795093 C33.9794484,2.44609675 34.9206843,2.50881346 35.4625385,3.12803261 L35.4625385,3.12803261 L40.3205821,8.679699 C40.8056067,9.23397459 40.8164582,10.0583863 40.3461905,10.6252361 L40.3461905,10.6252361 L35.5425273,16.4154614 C35.0049124,17.0634901 34.0486618,17.1646919 33.3873115,16.6435521 C33.3755756,16.6343043 33.3639816,16.6248779 33.3525335,16.6152761 C32.7313306,16.0942591 32.6501138,15.1683069 33.1711308,14.547104 L33.1711308,14.547104 L35.9976222,11.1771085 L28.7579757,11.1771085 C28.1060869,11.1771085 27.4631099,11.3285429 26.8797409,11.6194716 L26.8797409,11.6194716 L26.6279714,11.7450301 C26.2066708,11.9551346 25.817878,12.2249085 25.4736019,12.5460191 C25.1287497,12.8676671 24.8233779,13.2291899 24.5639211,13.6229699 L24.5639211,13.6229699 L24.2446333,14.107556 C23.8463896,14.7119743 23.0453166,14.899962 22.4197751,14.5357953 L22.4197751,14.5357953 L22.2948981,14.4630966 C22.29427,14.462731 22.2936423,14.4623649 22.2930148,14.4619983 C21.6098954,14.0629187 21.3796356,13.185623 21.7787152,12.5025036 L21.7787152,12.5025036 L21.969716,12.1755603 C22.4544315,11.3458547 23.0840208,10.6098047 23.8285857,10.0023645 L23.8285857,10.0023645 L23.8484583,9.98615179 C24.579875,9.38943822 25.4124306,8.92881062 26.3065469,8.62616634 C27.201892,8.32310614 28.1407744,8.16851556 29.0860195,8.16851556 L29.0860195,8.16851556 L35.8925791,8.16851556 L33.2189514,5.11552508 C32.6726458,4.49170382 32.7327308,3.54378538 33.3534311,2.99393633 C33.3556911,2.99193431 33.3579571,2.98993917 33.3602293,2.98795093 Z" id="ic_a_sdwan_p2_03" fill="#FF874D"></path>
    </g>
</svg>