<?xml version="1.0" encoding="UTF-8"?>
<svg width="44px" height="44px" viewBox="0 0 44 44" version="1.1" xmlns="http://www.w3.org/2000/svg" xmlns:xlink="http://www.w3.org/1999/xlink">
    <!-- Generator: Sketch 57.1 (83088) - https://sketch.com -->
    <title>ic_a/sdwan/ic_a_sdwan_p2_05</title>
    <desc>Created with Sketch.</desc>
    <g id="ic_a/sdwan/ic_a_sdwan_p2_05" stroke="none" stroke-width="1" fill="none" fill-rule="evenodd">
        <path d="M29.6088852,22.7691194 L28.1212233,22.7691194 C31.1847643,20.757008 33.4069656,17.264141 33.5005531,13.2864753 C33.6645761,6.31515959 28.2112829,1.51095127 22,1.51095127 C15.7887171,1.51095127 10.5200341,6.39742729 10.5200341,13.2864753 C10.5200341,17.2581787 12.7798512,20.757008 15.8435889,22.7691194 L14.3911148,22.7691194 C10.3156393,22.7691194 7,26.1346533 7,30.2717029 L7,40.7519158 C7,41.4412577 7.55052459,42 8.2295082,42 L35.7704918,42 C36.4494754,42 37,41.4412577 37,40.7519158 L37,30.2716031 C37,26.1346533 33.6843607,22.7691194 29.6088852,22.7691194 Z M13.4753394,12.8416024 C13.4753394,7.9946425 17.5953465,4.49616838 22,4.49616838 C26.4046535,4.49616838 30.516086,7.9946425 30.516086,12.8416024 C30.516086,17.6884625 26.7748197,21.4899579 22,21.4899579 C17.225082,21.4899579 13.4753394,17.6884625 13.4753394,12.8416024 Z M25.5973443,23.9660821 L22,27.6178766 L18.4026557,23.9661819 C19.5385525,24.2512608 20.7342412,24.4813511 21.9926674,24.4813511 C23.2510937,24.4813511 24.4003362,24.3590788 25.5973443,23.9660821 Z M33.9791949,39 L31.5,39 L31.5,33.5070367 C31.5,32.8176948 30.9730252,32.0183784 30,32.0183784 C29.0269748,32.0183784 28.5,32.8176948 28.5,33.5070367 L28.5,39 L15.5,39 L15.5,33.5070367 C15.5,32.8176948 15.00832,32.0183784 14,32.0183784 C12.99168,32.0183784 12.5,32.8176948 12.5,33.5070367 L12.5,39 L10.00614,39 L10.00614,30.2716031 C10.00614,27.6178766 11.5860931,25.7701872 14.3911148,25.7701872 L15.9769836,25.7701872 L21.1305902,30.9517804 C21.3706885,31.1955063 21.6853443,31.3173193 22,31.3173193 C22.3146557,31.3173193 22.6291148,31.1955063 22.8694098,30.9517804 L28.0230164,25.7701872 L29.6088852,25.7701872 C31.9433769,25.7919793 33.9791949,27.298575 33.9791949,30.2716031 L33.9791949,39 Z" id="ic_a_sdwan_p2_05" fill="#39BFB0"></path>
    </g>
</svg>