<?xml version="1.0" encoding="UTF-8"?>
<svg width="80px" height="80px" viewBox="0 0 80 80" version="1.1" xmlns="http://www.w3.org/2000/svg" xmlns:xlink="http://www.w3.org/1999/xlink">
    <!-- Generator: Sketch 59.1 (86144) - https://sketch.com -->
    <title>ic/cat_g/ic_cat_g_02</title>
    <desc>Created with Sketch.</desc>
    <g id="ic/cat_g/ic_cat_g_02" stroke="none" stroke-width="1" fill="none" fill-rule="evenodd">
        <path d="M35.6548581,5 L35.6548581,15.4 L35.6548581,15.4 L40.2448266,15.4 L40.2448266,5 L47.1297793,5 L47.1297793,15.4 C55.1622241,15.4 60.8996847,17.7111111 62.0471768,25.8 C62.0471768,30.4222222 59.7521926,33.8888889 56.3097162,36.2 L56.3097162,36.2 L56.3097162,37.3555556 L56.5697036,37.4096805 C62.1849496,38.6172227 66.619759,42.1003367 65.4896532,50.0666667 C64.342161,60.4666667 56.3097162,62.7777778 45.9822872,63.9333333 L45.9822872,63.9333333 L45.9822872,74.3333333 L39.0973345,74.3333333 L39.0973345,63.9333333 L39.0973345,63.9333333 L34.507366,63.9333333 L34.507366,74.3333333 L27.6224133,74.3333333 L27.6224133,63.9333333 L27.6224133,63.9333333 L15,63.9333333 L16.1474921,55.8444444 L16.1474921,55.8444444 L20.7374606,55.8444444 C21.8849527,55.8444444 23.0324448,54.6888889 23.0324448,53.5333333 L23.0324448,53.5333333 L23.0324448,24.6444444 C23.0324448,23.4888889 21.8849527,22.3333333 19.5899685,22.3333333 L19.5899685,22.3333333 L15,22.3333333 L15,15.4 L28.7699054,15.4 L28.7699054,5 L35.6548581,5 Z M52.8672399,48.9111111 C52.8672399,40.8222222 39.0973345,41.9777778 34.507366,41.9777778 L34.507366,41.9777778 L34.507366,55.8444444 C39.0973345,55.8444444 52.8672399,57 52.8672399,48.9111111 Z M49.4247635,29.2666667 C49.4247635,21.1777778 37.9498423,22.3333333 34.507366,22.3333333 L34.507366,22.3333333 L34.507366,36.2 C37.9498423,36.2 49.4247635,36.2 49.4247635,29.2666667 Z" id="Combined-Shape" fill="#47D382"></path>
    </g>
</svg>