<?xml version="1.0" encoding="UTF-8"?>
<svg width="44px" height="44px" viewBox="0 0 44 44" version="1.1" xmlns="http://www.w3.org/2000/svg" xmlns:xlink="http://www.w3.org/1999/xlink">
    <!-- Generator: Sketch 58 (84663) - https://sketch.com -->
    <title>ic_a/noc/ic_a_noc_p2_03</title>
    <desc>Created with Sketch.</desc>
    <g id="ic_a/noc/ic_a_noc_p2_03" stroke="none" stroke-width="1" fill="none" fill-rule="evenodd">
        <path d="M20.0878125,2 C20.4407813,2 20.7538281,2.22687544 20.8636719,2.56226672 L20.8636719,2.56226672 L23.1160938,9.44063953 L38.1611719,9.44063953 C40.2778906,9.44063953 42,11.1629085 42,13.2797095 L42,13.2797095 L42,38.1611644 C42,40.2779654 40.2778906,42 38.1610156,42 L38.1610156,42 L23.9122656,42 C23.5607813,42 23.2486719,41.7749214 23.1377344,41.4414052 L23.1377344,41.4414052 L20.8478125,34.5589698 L5.83882813,34.5589698 C3.72210938,34.5589698 2,32.8368571 2,30.7200561 L2,30.7200561 L2,5.83891375 C2,3.72211274 3.72210938,2 5.83882813,2 L5.83882813,2 Z M38.1610156,11.073299 L23.6505469,11.073299 L26.3196875,19.2244868 L30.8417187,19.2244868 L30.8417187,17.8367497 C30.8417187,17.3858894 31.2072656,17.02042 31.6580469,17.02042 C32.1088281,17.02042 32.474375,17.3858894 32.474375,17.8367497 L32.474375,17.8367497 L32.474375,19.2245649 L38.3264844,19.2245649 C38.7772656,19.2245649 39.1428125,19.5900344 39.1428125,20.0408946 C39.1428125,20.4917549 38.7772656,20.8572243 38.3264844,20.8572243 L38.3264844,20.8572243 L35.9180469,20.8572243 C35.5339062,21.8112106 34.5896875,23.8492614 32.7772656,26.1416097 C34.0732812,27.599425 35.79375,29.1664593 38.0180469,30.5284932 C38.4025781,30.7638843 38.5234375,31.2664634 38.2880469,31.6509173 C38.1341406,31.9024022 37.8657812,32.0410743 37.5910937,32.0410743 C37.4457812,32.0410743 37.2986719,32.0023242 37.165625,31.9208397 C34.8754687,30.5185713 33.0832031,28.9123182 31.7125781,27.3992684 C31.105,28.070129 30.4221875,28.749271 29.6577344,29.4179442 L29.6577344,29.4179442 L30.9741406,33.4381083 C31.0120312,33.5322491 31.0328125,33.6351399 31.0328125,33.7427964 C31.0328125,33.9519374 30.9534375,34.1421722 30.8239844,34.2866256 L30.8239844,34.2866256 L25.6732812,40.3674187 L38.1611719,40.3674187 C39.3776562,40.3674187 40.3672656,39.3776511 40.3672656,38.1610863 L40.3672656,38.1610863 L40.3672656,13.2795533 C40.3672656,12.0630665 39.3775,11.073299 38.1610156,11.073299 L38.1610156,11.073299 Z M28.4535937,34.559048 L22.5685937,34.559048 L24.2282812,39.547339 L28.4535937,34.559048 Z M19.4961719,3.63265944 L5.83882813,3.63265944 C4.62234375,3.63265944 3.63265625,4.622427 3.63265625,5.83891375 L3.63265625,5.83891375 L3.63265625,30.7200561 C3.63265625,31.936621 4.62234375,32.9264667 5.83882813,32.9264667 L5.83882813,32.9264667 L29.0885937,32.9264667 L19.4961719,3.63265944 Z M27.5007813,20.8571462 L26.8544531,20.8571462 L29.1019531,27.7205971 C29.6675,27.1945805 30.1810156,26.6641888 30.645625,26.1404378 C30.1492969,25.5134053 29.7289844,24.9201229 29.3795312,24.3856687 C28.369375,22.8411345 27.7835937,21.5559757 27.5007813,20.8571462 L27.5007813,20.8571462 Z M34.1372656,20.8571462 L29.280625,20.8571462 C29.5890625,21.5294913 30.0741406,22.4712119 30.7794531,23.5432452 C31.0447656,23.9464491 31.3541406,24.3861375 31.7092188,24.8492634 C32.9413281,23.2374634 33.71,21.7874605 34.1372656,20.8571462 L34.1372656,20.8571462 Z M13.49125,12.3508015 C14.9191406,12.3508015 16.3035156,12.8600993 17.3892188,13.785023 C17.7324219,14.0773673 17.7736719,14.5925246 17.4813281,14.9358065 C17.1889844,15.2790103 16.6735938,15.3201823 16.3305469,15.0278379 C15.5399219,14.354321 14.5314844,13.9834609 13.49125,13.9834609 C11.0755469,13.9834609 9.11023438,15.9487772 9.11023438,18.3644851 C9.11023438,20.7801929 11.0755469,22.7455093 13.49125,22.7455093 C15.6279688,22.7455093 17.4123438,21.2076938 17.7959375,19.1808148 L17.7959375,19.1808148 L14.0633594,19.1808148 C13.6125,19.1808148 13.2470313,18.8153453 13.2470313,18.3644851 C13.2470313,17.9136248 13.6125,17.5481554 14.0633594,17.5481554 L14.0633594,17.5481554 L18.6885156,17.5481554 C19.139375,17.5481554 19.5047656,17.913703 19.5047656,18.3642507 C19.5047656,21.6801947 16.8071094,24.3779343 13.4911719,24.3779343 C10.1752344,24.3779343 7.47765625,21.6802728 7.47765625,18.364407 C7.47765625,15.0485411 10.1753125,12.3508015 13.49125,12.3508015 Z" id="Combined-Shape" fill="#FF874D"></path>
    </g>
</svg>