<?xml version="1.0" encoding="UTF-8"?>
<svg width="24px" height="24px" viewBox="0 0 24 24" version="1.1" xmlns="http://www.w3.org/2000/svg" xmlns:xlink="http://www.w3.org/1999/xlink">
    <title>ic/smart/pinS</title>
    <g id="ic/smart/pinS" stroke="none" stroke-width="1" fill="none" fill-rule="evenodd">
        <path d="M19.0196778,5.47738281 C17.462721,3.26761719 14.9951794,2 12.25024,2 C9.50530063,2 7.03775901,3.26761719 5.48080227,5.47738281 C3.93149349,7.67597656 3.57375234,10.4594531 4.52193967,12.9186328 C4.77555708,13.5901953 5.17870797,14.2426562 5.71733128,14.8540625 L11.7073546,21.7538281 C11.842827,21.91 12.0413154,22 12.25024,22 C12.4591647,22 12.6576531,21.9100391 12.7931255,21.7538281 L18.7814758,14.8559375 C19.3224891,14.2410156 19.7251221,13.5892578 19.9766284,12.9230859 C20.9267277,10.4594531 20.5689865,7.67597656 19.0196778,5.47738281 Z" id="Shape" fill="#209CFF"></path>
        <path d="M12.25,5.5 C10.1823605,5.5 8.5,7.18213602 8.5,9.25 C8.5,11.317864 10.182136,13 12.25,13 C14.317864,13 16,11.317864 16,9.25 C16,7.18236045 14.3176395,5.5 12.25,5.5 Z" id="Shape" fill="#FFFFFF"></path>
    </g>
</svg>