<?xml version="1.0" encoding="UTF-8"?>
<svg width="44px" height="44px" viewBox="0 0 44 44" version="1.1" xmlns="http://www.w3.org/2000/svg" xmlns:xlink="http://www.w3.org/1999/xlink">
    <!-- Generator: Sketch 57.1 (83088) - https://sketch.com -->
    <title>ic_a/sdwan/ic_a_sdwan_p2_02</title>
    <desc>Created with Sketch.</desc>
    <g id="ic_a/sdwan/ic_a_sdwan_p2_02" stroke="none" stroke-width="1" fill="none" fill-rule="evenodd">
        <path d="M38.7502493,3.75485889 L40.1644628,5.16907245 C42.8981329,7.9027425 42.8981329,12.3348973 40.1644628,15.0685674 L31.6791815,23.5538488 C30.0253214,25.2077089 27.7497811,25.8609898 25.604789,25.5136916 C25.9794627,27.6778079 25.3301884,29.9858071 23.6578436,31.6581518 L15.1725623,40.1434332 C12.4388922,42.8771032 8.00673736,42.8771032 5.27306732,40.1434332 L3.85885376,38.7292196 C1.12518371,35.9955496 1.12518371,31.5633947 3.85885376,28.8297247 L12.3441351,20.3444433 C13.9979952,18.6905832 16.2735355,18.0373022 18.4185276,18.3846004 C18.0438539,16.2204842 18.6931282,13.912485 20.365473,12.2401403 L28.8507543,3.75485889 C31.5844244,1.02118885 36.0165792,1.02118885 38.7502493,3.75485889 Z M14.6189575,22.2150008 L14.4595845,22.3660035 L5.97430308,30.8512849 C4.46427581,32.3613122 4.41394157,34.7782764 5.82330035,36.3487661 L5.97430308,36.5081392 L7.38851664,37.9223527 C8.8985439,39.43238 11.3155081,39.4827142 12.8859979,38.0733554 L13.0453709,37.9223527 L21.5306523,29.4370713 C23.0406795,27.9270441 23.0910138,25.5100799 21.681655,23.9395901 L21.5306523,23.7802171 L20.1164387,22.3660035 C18.6064114,20.8559763 16.1894472,20.805642 14.6189575,22.2150008 Z M18.0231334,25.9717275 C18.6089199,26.5575139 18.6089199,27.5072614 18.0231334,28.0930478 L11.6591724,34.4570088 C11.0733859,35.0427953 10.1236385,35.0427953 9.53785204,34.4570088 C8.9520656,33.8712224 8.9520656,32.9214749 9.53785204,32.3356885 L15.9018131,25.9717275 C16.4875995,25.385941 17.437347,25.385941 18.0231334,25.9717275 Z M31.1255767,5.62541639 L30.9662037,5.77641911 L22.4809223,14.2617005 C20.970895,15.7717277 20.9205608,18.188692 22.3299196,19.7591817 L22.4809223,19.9185547 L23.8951358,21.3327683 C25.4051631,22.8427956 27.8221273,22.8931298 29.3926171,21.483771 L29.5519901,21.3327683 L38.0372715,12.8474869 C39.5472987,11.3374597 39.597633,8.92049543 38.1882742,7.35000571 L38.0372715,7.19063268 L36.6230579,5.77641911 C35.1130306,4.26639185 32.6960664,4.21605761 31.1255767,5.62541639 Z M34.4249065,9.59413429 C35.010693,10.1799207 35.010693,11.1296682 34.4249065,11.7154546 L28.0609455,18.0794157 C27.4751591,18.6652021 26.5254116,18.6652021 25.9396252,18.0794157 C25.3538387,17.4936292 25.3538387,16.5438818 25.9396252,15.9580953 L32.3035862,9.59413429 C32.8893726,9.00834785 33.8391201,9.00834785 34.4249065,9.59413429 Z" id="icon_a_sdwan_p2_02" fill="#47D382"></path>
    </g>
</svg>