<?xml version="1.0" encoding="UTF-8"?>
<svg width="44px" height="44px" viewBox="0 0 44 44" version="1.1" xmlns="http://www.w3.org/2000/svg" xmlns:xlink="http://www.w3.org/1999/xlink">
    <!-- Generator: Sketch 57.1 (83088) - https://sketch.com -->
    <title>ic_a/sdwan/ic_a_sdwan_p2_01</title>
    <desc>Created with Sketch.</desc>
    <g id="ic_a/sdwan/ic_a_sdwan_p2_01" stroke="none" stroke-width="1" fill="none" fill-rule="evenodd">
        <path d="M22,2 C33.045695,2 42,10.954305 42,22 C42,33.045695 33.045695,42 22,42 C10.954305,42 2,33.045695 2,22 C2,10.954305 10.954305,2 22,2 Z M14.0245708,23.5001812 L5.06531385,23.5005257 C5.70898493,30.8605437 11.042671,36.8760672 18.0604858,38.5412099 C15.8087809,35.5094022 14.2369556,29.9580973 14.0245708,23.5001812 Z M38.934686,23.5005257 L29.975429,23.5001811 C29.7630418,29.9580967 28.1911824,35.5093942 25.9389987,38.5410974 C32.9572965,36.8760601 38.291013,30.8605432 38.934686,23.5005257 Z M26.9783043,23.5004179 L17.0216957,23.5004179 C17.2580694,31.6334069 19.3966913,38 22,38 C24.6033087,38 26.7419306,31.6334069 26.9783043,23.5004179 Z M18.0610013,5.45890257 L17.9297476,5.49036143 C10.9760937,7.19890996 5.70434982,13.185947 5.06519886,20.5007897 L14.0245383,20.5008142 C14.2367967,14.0424737 15.8087019,8.49076156 18.0610013,5.45890257 Z M22,6 C19.3965848,6 17.2578944,12.3671139 17.0216667,20.50058 L26.9783333,20.50058 C26.7421056,12.3671139 24.6034152,6 22,6 Z M25.9395142,5.45879012 L25.945009,5.46700129 C28.1940065,8.50052325 29.7632698,14.0477875 29.9754369,20.5000597 L38.9347738,20.5004772 C38.2914996,13.1400028 32.9576477,7.12400844 25.9395142,5.45879012 Z" id="ic_a_sdwan_p2_01" fill="#209CFF"></path>
    </g>
</svg>