<?xml version="1.0" encoding="UTF-8"?>
<svg width="44px" height="44px" viewBox="0 0 44 44" version="1.1" xmlns="http://www.w3.org/2000/svg" xmlns:xlink="http://www.w3.org/1999/xlink">
    <!-- Generator: Sketch 58 (84663) - https://sketch.com -->
    <title>ic_a/iplc/ic_a_iplc_p2_03</title>
    <desc>Created with Sketch.</desc>
    <g id="ic_a/iplc/ic_a_iplc_p2_03" stroke="none" stroke-width="1" fill="none" fill-rule="evenodd">
        <path d="M10.8883679,27.0898239 C13.9777216,24.4481154 18.5776431,24.4717872 21.6379279,27.1642767 C22.2069597,27.6648997 22.9378242,27.9406018 23.6957258,27.9406018 L23.6957258,27.9406018 L29.1094206,27.9406018 C30.6852372,27.9406018 32.0220947,28.9825508 32.4672711,30.4134828 L32.4672711,30.4134828 L35.9115469,26.7167785 C36.5744276,26.005375 37.5122127,25.5973297 38.4843803,25.5973297 C40.422855,25.5973297 42,27.1740423 42,29.1120816 C42,29.878563 41.7573683,30.6071539 41.2982826,31.2191827 L41.2982826,31.2191827 L41.2979701,31.2196515 L35.6718065,38.7193878 C34.1308414,40.7735204 31.6775656,42 29.1093425,42 L29.1093425,42 L18.6454706,42 C16.179692,42 13.7258692,41.6617201 11.352064,40.9946133 L11.352064,40.9946133 L10.6580827,40.7996141 C10.0132529,41.5346112 9.06804431,42 8.01562454,42 L8.01562454,42 L3.17189927,42 C2.52464704,42 2,41.4753927 2,40.828364 L2,40.828364 L2,26.7690439 C2,26.121937 2.52472518,25.5974078 3.17189927,25.5974078 L3.17189927,25.5974078 L8.01562454,25.5974078 C9.20151127,25.5974078 10.2512742,26.1880305 10.8883679,27.0898239 Z M8.01562454,27.9405237 L4.34372039,27.9405237 L4.34372039,39.6566498 L8.01562454,39.6566498 C8.66186092,39.6566498 9.18752381,39.1310268 9.18752381,38.4850137 L9.18752381,38.4850137 L9.18752381,29.1121597 C9.18752381,28.4660685 8.66178278,27.9405237 8.01562454,27.9405237 L8.01562454,27.9405237 Z M20.0898519,28.9232542 C17.8829585,26.9816993 14.5548021,26.9818555 12.3480651,28.9232542 L12.3480651,28.9232542 L11.5314005,29.641767 L11.5314005,38.4850919 C11.5314005,38.5269667 11.5296814,38.5684509 11.5281967,38.6100132 L11.5281967,38.6100132 L11.9865009,38.7388409 C14.1538543,39.347901 16.3943488,39.6567279 18.645705,39.6567279 L18.645705,39.6567279 L29.1093425,39.6567279 C30.9438099,39.6567279 32.6961497,38.7807938 33.7968614,37.3135339 L33.7968614,37.3135339 L39.4229469,29.8136414 C39.423025,29.8135632 39.4231031,29.8135632 39.4231031,29.8134851 L39.5059264,29.6869825 C39.6046682,29.5126082 39.6562796,29.3165339 39.6562796,29.1121597 C39.6562796,28.4660685 39.1305386,27.9405237 38.4843803,27.9405237 C38.1555578,27.9405237 37.8508812,28.0731013 37.6265348,28.3138816 L37.6265348,28.3138816 L32.4673492,33.8510475 C31.8046248,34.5622947 30.866996,34.9701837 29.8948284,34.9701837 L29.8948284,34.9701837 L20.7807856,34.9701837 C20.1335334,34.9701837 19.6088863,34.4456545 19.6088863,33.7985477 C19.6088863,33.1514408 20.1336115,32.6269116 20.7807856,32.6269116 L20.7807856,32.6269116 L29.1095769,32.6269116 C29.7558133,32.6269116 30.2814762,32.1012887 30.2814762,31.4552756 C30.2814762,30.8092625 29.7557352,30.2836395 29.1095769,30.2836395 L29.1095769,30.2836395 L23.6958821,30.2836395 C22.3675421,30.2836395 21.0870251,29.8005164 20.0898519,28.9232542 Z M28.3492529,2 C30.3210943,2 32.1228201,2.80429373 33.4226382,4.26475678 C34.6561136,5.65068886 35.3354041,7.503416 35.3354041,9.48184577 C35.3354041,12.9623791 33.0905337,15.5597908 30.6645295,17.8482193 C29.4149568,19.0268085 27.9750296,20.2418819 26.3077085,21.6489076 C25.3483562,22.4583576 24.3564185,23.2954637 23.3023577,24.2087414 C23.0820748,24.3995219 22.8084206,24.4949903 22.5348446,24.4949903 C22.2611905,24.4949903 21.9875363,24.3995219 21.7673315,24.2087414 C20.7131144,23.2952293 19.7210205,22.4581232 18.7616681,21.648517 C16.1654701,19.4577443 13.9234128,17.5657986 12.3603334,15.7251808 C10.5689224,13.6155015 9.73444139,11.6316811 9.73444139,9.48176765 C9.73444139,7.503416 10.4138101,5.65061074 11.6472073,4.26467865 C12.9469473,2.80429373 14.7487512,2 16.7205926,2 C18.9215471,2 20.8293901,3.04046469 22.2379822,5.00881637 C22.3436305,5.15639392 22.4424023,5.30389334 22.5349227,5.45006465 C22.6275213,5.30397147 22.7262931,5.15639392 22.8319414,5.00881637 C24.2404554,3.04046469 26.1482984,2 28.3492529,2 Z M28.3492529,4.34335022 C24.8621551,4.34335022 23.6757995,8.48052156 23.6642345,8.52231827 C23.5235784,9.02989441 23.0616015,9.38129929 22.5348446,9.38129929 C22.0080877,9.38129929 21.5461108,9.02989441 21.4054547,8.52231827 C21.4032667,8.5148183 21.0806174,7.39826016 20.2946627,6.32123312 C19.3370295,5.00881637 18.1344984,4.34335022 16.7205145,4.34335022 C14.0738366,4.34335022 12.0782399,6.55240409 12.0782399,9.48184577 C12.0782399,12.9425354 15.1629832,15.545494 20.273408,19.857899 C21.0033347,20.4739122 21.7521719,21.1057847 22.5349227,21.7766415 C23.3175173,21.1057066 24.0661201,20.4739903 24.7960468,19.8581334 C26.4367995,18.4736075 27.853831,17.2779091 29.0561276,16.1437729 C31.8882371,13.4722208 32.9916837,11.6044156 32.9916837,9.48184577 C32.9916837,6.55248222 30.9958526,4.34335022 28.3492529,4.34335022 Z" id="Combined-Shape" fill="#FF874D"></path>
    </g>
</svg>