<?xml version="1.0" encoding="UTF-8"?>
<svg width="44px" height="44px" viewBox="0 0 44 44" version="1.1" xmlns="http://www.w3.org/2000/svg" xmlns:xlink="http://www.w3.org/1999/xlink">
    <!-- Generator: Sketch 58 (84663) - https://sketch.com -->
    <title>ic_a/soc/ic_a_soc_p2_03</title>
    <desc>Created with Sketch.</desc>
    <g id="ic_a/soc/ic_a_soc_p2_03" stroke="none" stroke-width="1" fill="none" fill-rule="evenodd">
        <path d="M27.3785166,10.6459144 C29.0051151,10.6459144 30.3324808,11.9922179 30.3401535,13.6498054 L30.3401535,13.6498054 L30.3401535,38.9961089 C30.3401535,40.6536965 29.0127877,42 27.3785166,42 L27.3785166,42 L9.96163683,42 C8.32736573,42 7,40.6536965 7,38.9961089 L7,38.9961089 L7,13.6498054 C7,11.9922179 8.32736573,10.6459144 9.96163683,10.6459144 L9.96163683,10.6459144 Z M27.370844,12.7470817 L9.95396419,12.7470817 C9.4629156,12.7470817 9.06393862,13.151751 9.06393862,13.6498054 L9.06393862,13.6498054 L9.06393862,38.9883268 C9.06393862,39.4863813 9.4629156,39.8910506 9.95396419,39.8910506 L9.95396419,39.8910506 L27.370844,39.8910506 C27.8618926,39.8910506 28.2608696,39.4863813 28.2608696,38.9883268 L28.2608696,38.9883268 L28.2608696,13.6498054 C28.2608696,13.151751 27.8618926,12.7470817 27.370844,12.7470817 L27.370844,12.7470817 Z M34.0383632,4 C35.6726343,4 37,5.3463035 37,7.00389105 L37,7.00389105 L37,32.3501946 C37,34.0077821 35.6726343,35.3540856 34.0383632,35.3540856 C33.4629156,35.3540856 33.0025575,34.8871595 33.0025575,34.3035019 C33.0025575,33.7198444 33.4629156,33.2529183 34.0383632,33.2529183 C34.5294118,33.2529183 34.9283887,32.848249 34.9283887,32.3501946 L34.9283887,32.3501946 L34.9283887,7.00389105 C34.9283887,6.50583658 34.5294118,6.10116732 34.0383632,6.10116732 L34.0383632,6.10116732 L16.6214834,6.10116732 C16.1304348,6.10116732 15.7314578,6.50583658 15.7314578,7.00389105 C15.7314578,7.58754864 15.2710997,8.05447471 14.6956522,8.05447471 C14.1202046,8.05447471 13.6598465,7.58754864 13.6598465,7.00389105 C13.6598465,5.3463035 14.9872123,4 16.6214834,4 L16.6214834,4 Z" id="Combined-Shape" fill="#FF874D"></path>
    </g>
</svg>