<?xml version="1.0" encoding="UTF-8"?>
<svg width="44px" height="44px" viewBox="0 0 44 44" version="1.1" xmlns="http://www.w3.org/2000/svg" xmlns:xlink="http://www.w3.org/1999/xlink">
    <!-- Generator: Sketch 58 (84663) - https://sketch.com -->
    <title>ic_a/soc/ic_a_soc_p2_05</title>
    <desc>Created with Sketch.</desc>
    <g id="ic_a/soc/ic_a_soc_p2_05" stroke="none" stroke-width="1" fill="none" fill-rule="evenodd">
        <path d="M25.7269788,42 C24.4176461,42 23.1868735,41.4848633 22.2583008,40.5482788 C21.3243101,39.605896 20.8102089,38.3513184 20.8102089,37.0158691 C20.8102089,36.4790649 20.8923808,35.9572144 21.0555207,35.4570313 L13.6121902,35.4570313 C12.9722728,35.4570313 12.4533556,34.9309082 12.4533556,34.2821045 L12.4533556,26.7348023 C11.8871822,26.9230957 11.2863941,27.0070191 10.686208,26.9786377 C9.42413176,26.9197388 8.24392642,26.371643 7.36351302,25.4350586 C6.48370173,24.4990845 5.99939913,23.2783813 6.00000056,21.9975586 C6.0015061,19.2497559 8.20720486,17.0146484 10.917072,17.0146484 C11.445922,17.0146484 11.9603241,17.0979614 12.4533556,17.2630616 L12.4533556,9.71789547 C12.4533556,9.0690918 12.9722728,8.54296875 13.6121902,8.54296875 L21.0567247,8.54296875 C20.8725151,7.97412109 20.7894402,7.37078859 20.8147239,6.76867672 C20.8683012,5.48846437 21.4049771,4.29003906 22.3257239,3.39434813 C23.2455677,2.49926758 24.4480467,2.00427246 25.711327,2 L25.7275808,2 C27.0378165,2 28.2694921,2.51605227 29.1977639,3.45416258 C30.1299485,4.39593508 30.6431467,5.64990234 30.6431467,6.98413086 C30.6431467,7.52093508 30.5609748,8.04309078 30.3981359,8.54296875 L37.8411653,8.54296875 C38.4810829,8.54296875 39.0000006,9.0690918 39.0000006,9.71789547 L39.0000006,17.8886719 C39.0000006,18.5548706 38.6683024,19.1640015 38.1126638,19.5183105 C37.5540152,19.8744507 36.8644333,19.9135132 36.2678592,19.6226806 C35.9162959,19.451477 35.5385459,19.364502 35.1448431,19.364502 C34.4498433,19.364502 33.7966819,19.6391602 33.3060584,20.1378173 C32.8151339,20.6367798 32.5451405,21.2999267 32.5466455,22.0054931 C32.5493544,23.3931274 33.6621367,24.5711059 35.0268526,24.6315308 C35.4629958,24.651062 35.8801763,24.5653077 36.2672572,24.376709 C36.8644333,24.0861816 37.5546171,24.1255493 38.1135668,24.4819946 C38.6686034,24.8359985 39.0000006,25.4448242 39.0000006,26.1107178 L39.0000006,34.2821045 C39.0000006,34.9309082 38.4810829,35.4570312 37.8411653,35.4570312 L30.396932,35.4570312 C30.5802385,36.0237427 30.6633134,36.624939 30.6389327,37.2255249 C30.5868604,38.505127 30.0519905,39.7038574 29.1330497,40.6004639 C28.2150118,41.4967652 27.0140378,41.9935913 25.7510585,42 C25.7432326,42 25.7351057,42 25.7269788,42 L25.7269788,42 Z M14.7710249,33.1071777 L21.6722615,33.1071777 C22.3296368,33.1071777 22.9304249,33.4434814 23.2798812,34.0071411 C23.6311436,34.5735473 23.6696711,35.2730102 23.3828219,35.8775634 C23.2136621,36.2337036 23.1278782,36.6166992 23.1278782,37.0158691 C23.1278782,37.7214355 23.3996777,38.3845825 23.8933111,38.8826294 C24.3839346,39.3779297 25.034989,39.6501465 25.7272798,39.6501465 L25.7402227,39.6501465 C27.1082495,39.6434327 28.2667832,38.5124512 28.3230694,37.1287842 C28.3408282,36.6893311 28.2562484,36.2687988 28.0717377,35.8787842 C27.7848886,35.2727051 27.823416,34.5726319 28.1752804,34.0056152 C28.5244357,33.4431763 29.1249228,33.1071777 29.7813951,33.1071777 L36.6823307,33.1071777 L36.6823307,26.7348023 C36.1194681,26.921875 35.522292,27.0057984 34.925718,26.979248 C33.6636417,26.9234009 32.4825334,26.3780517 31.600314,25.4439087 C30.7183957,24.5103759 30.2316851,23.2908936 30.2289762,22.0103759 C30.2262672,20.6761475 30.7364555,19.4215698 31.6656301,18.4779663 C32.5942028,17.5343628 33.8297915,17.0146484 35.1448431,17.0146484 C35.673994,17.0146484 36.1889982,17.0979614 36.6823307,17.2633667 L36.6823307,10.8928223 L29.7813951,10.8928223 C29.1243208,10.8928223 28.5235328,10.5565186 28.1740764,9.99316406 C27.8228141,9.42645266 27.7842866,8.72760008 28.0711358,8.12304688 C28.2399945,7.76690672 28.3254774,7.38391109 28.3254774,6.98413086 C28.3254774,6.27886961 28.05428,5.61633297 27.5615495,5.11859133 C27.0691201,4.62054445 26.4135507,4.34985352 25.7188519,4.34985352 C24.3496211,4.35443117 23.1883784,5.48419188 23.1302862,6.86816406 C23.1119255,7.3082275 23.1965053,7.72998047 23.3819189,8.12121578 C23.6690691,8.72698977 23.6305416,9.42706297 23.2789783,9.99407961 C22.9295219,10.5568237 22.3290348,10.8928223 21.6725625,10.8928223 L14.7710249,10.8928223 L14.7710249,17.8886719 C14.7710249,18.5548706 14.4393274,19.1640015 13.8836887,19.5180054 C13.3247391,19.8744507 12.6351572,19.913208 12.0388841,19.6226806 C11.6876218,19.4511719 11.3101727,19.364502 10.917072,19.364502 C9.48463194,19.364502 8.31857343,20.5461426 8.31767018,21.9987793 C8.31706839,23.3864136 9.42744274,24.5674438 10.7927607,24.6312256 C11.2307098,24.6513672 11.6496962,24.565918 12.0385832,24.376709 C12.6354582,24.0858765 13.3253411,24.1252441 13.8842906,24.4813843 C14.4396283,24.8356934 14.7710249,25.4445191 14.7710249,26.1104126 L14.7710249,33.1071777 Z" id="Shape" fill="#FF874D"></path>
    </g>
</svg>