<?xml version="1.0" encoding="UTF-8"?>
<svg width="44px" height="44px" viewBox="0 0 44 44" version="1.1" xmlns="http://www.w3.org/2000/svg" xmlns:xlink="http://www.w3.org/1999/xlink">
    <!-- Generator: Sketch 58 (84663) - https://sketch.com -->
    <title>ic_a/soc/ic_a_soc_p2_06</title>
    <desc>Created with Sketch.</desc>
    <g id="ic_a/soc/ic_a_soc_p2_06" stroke="none" stroke-width="1" fill="none" fill-rule="evenodd">
        <path d="M18.8455341,3 L25.1547557,3 C25.6969461,3 26.1571425,3.38071871 26.2677043,3.90028314 L26.2868902,4.02253725 L26.6788609,7.85900879 C26.7190438,8.25274504 26.9562528,8.5990451 27.3084837,8.79054338 L27.4300416,8.84849546 L27.4567142,8.85951235 C27.8309032,9.01516556 28.2460962,8.98160674 28.5731982,8.7771616 L28.6914801,8.69252016 L31.6811269,6.25692745 C32.0988782,5.9165203 32.691775,5.91874359 33.1052317,6.24581113 L33.2046523,6.33433531 L37.665929,10.795578 C38.0470167,11.1766627 38.1049868,11.7667348 37.821597,12.2112111 L37.7436274,12.3190918 L34.8441454,15.8781128 C34.9858193,16.1751811 35.1173137,16.4775323 35.2381134,16.7840497 L35.4112273,17.2468109 L39.9777447,17.7132874 C40.5169737,17.7682059 40.9362118,18.193844 40.9933518,18.7218665 L41,18.8454132 L41,25.1545868 C41,25.696773 40.6192783,26.1572159 40.099942,26.2675804 L39.9777447,26.2867126 L36.1412439,26.6786804 C35.7475047,26.7188629 35.401202,26.9560701 35.2097022,27.3082984 L35.1517497,27.4298553 L35.1407327,27.4562378 C34.985336,27.8306817 35.0186947,28.245671 35.2230937,28.5727229 L35.3077262,28.6909943 L37.7433375,31.6809082 C38.0837472,32.0986563 38.0812768,32.6915486 37.7543969,33.1050021 L37.665929,33.204422 L33.2043624,37.6656647 C32.8235424,38.0467494 32.2332394,38.1044721 31.7887232,37.8212745 L31.680837,37.7433624 L28.6911902,35.3074798 C28.388128,35.0605994 27.9810671,34.9823147 27.5995095,35.0907476 L27.4578739,35.1401978 L27.4306215,35.1512146 C27.0530597,35.3072479 26.7821128,35.6297777 26.699151,36.0116497 L26.678571,36.1409912 L26.2868902,39.9774628 C26.231702,40.5166877 25.8060415,40.9361724 25.2782457,40.9933477 L25.1547557,41 L18.8452442,41 C18.303323,41 17.8428958,40.6190313 17.7322996,40.0996633 L17.7131096,39.9774628 L17.3214288,36.1409912 C17.281246,35.747255 17.044037,35.4009549 16.691806,35.2094566 L16.5702481,35.1515045 L16.542126,35.1399079 C16.1689678,34.9850277 15.7541184,35.0184434 15.42708,35.2228472 L15.3088097,35.3074798 L12.3191629,37.7433624 C11.901144,38.083502 11.3084736,38.0812581 10.8950533,37.754189 L10.7956374,37.6656647 L6.33436073,33.204422 C5.95327309,32.8233373 5.89530298,32.2332652 6.17869273,31.7887889 L6.25666239,31.6809082 L8.69227359,28.6909943 C8.93915593,28.3879344 9.01744131,27.9808766 8.90921115,27.599322 L8.85984693,27.4576874 L8.84854006,27.4307251 C8.69276649,27.0531662 8.37002554,26.7822214 7.98831762,26.6992602 L7.85904584,26.6786804 L4.02225515,26.2867126 C3.48302612,26.2317941 3.06378814,25.806156 3.00664817,25.2781335 L3,25.1545868 L3,18.8454132 C3,18.303227 3.38072162,17.8427841 3.9000579,17.7324196 L4.02225515,17.7132874 L7.85875594,17.3213196 C8.25249519,17.2811371 8.59903271,17.0439299 8.79036808,16.6917016 L8.84825016,16.5701447 L8.8607167,16.5405731 C9.01508259,16.168964 8.98138035,15.7542896 8.77691768,15.4272728 L8.69227359,15.3090057 L6.25666239,12.3190918 C5.91625264,11.9013437 5.91872296,11.3084514 6.245831,10.8949979 L6.33436073,10.795578 L10.7956374,6.33433531 C11.1767251,5.95325057 11.7668016,5.89552791 12.2112814,6.17872549 L12.3191629,6.25663755 L15.3090996,8.69252016 C15.6119041,8.93914287 16.0189364,9.01739901 16.4006943,8.90916649 L16.5424159,8.85980225 L16.5679288,8.84936523 C16.9467952,8.69281006 17.2178725,8.3702281 17.3008474,7.9883509 L17.3214288,7.85900879 L17.7133996,4.02253725 C17.7683185,3.48304314 18.1939598,3.06378914 18.7219864,3.00664823 L18.8455341,3 L25.1547557,3 Z M24.1269922,5.27613832 L19.8732976,5.27613832 L19.5856978,8.09036259 C19.4630297,9.29184296 18.7223058,10.3366126 17.6343817,10.8644287 L17.4388461,10.9521332 L17.4153626,10.9619904 C16.2911582,11.4288591 15.0221107,11.2850281 14.0500612,10.593341 L13.8713902,10.4572448 L11.6784415,8.67048647 L8.67052971,11.6783753 L10.4570118,13.8715973 C11.2172141,14.8045161 11.433227,16.0623023 11.0422065,17.2031183 L10.9617612,17.4155426 L10.951614,17.4396058 C10.4864064,18.5668835 9.48227481,19.3631548 8.3004414,19.5578104 L8.09011143,19.5858612 L5.27615568,19.8731689 L5.27615568,24.1268311 L8.09011143,24.4141388 C9.29160103,24.5370797 10.3366372,25.2775545 10.8644861,26.3656867 L10.9521938,26.561264 L10.962341,26.5861969 C11.4289404,27.7090284 11.2850923,28.977986 10.5931573,29.9500234 L10.4570118,30.1286927 L8.67052971,32.3216247 L11.6784415,35.3295135 L13.8713902,33.5430451 C14.8045891,32.7828486 16.0624009,32.5668373 17.2029847,32.9576131 L17.4153626,33.0380096 L17.4411654,33.0490265 C18.5670828,33.5136829 19.3632841,34.5175178 19.5576927,35.699556 L19.5856978,35.9099274 L19.8732976,38.7238617 L24.1269922,38.7238617 L24.414592,35.9096374 C24.53726,34.708157 25.2777253,33.6633874 26.3658649,33.1355713 L26.5614437,33.0478668 L26.5863768,33.0374298 C27.7092168,32.5711068 28.9781841,32.7149699 29.9502289,33.4069006 L30.1288995,33.5430451 L32.3218483,35.3295135 L35.3297601,32.3216247 L33.543278,30.1286927 C32.7830757,29.195501 32.5670628,27.9376987 32.9580832,26.7968818 L33.0385286,26.5844574 L33.0483859,26.5603942 C33.5138672,25.4331165 34.5180141,24.6368452 35.6998483,24.4421896 L35.9101783,24.4141388 L38.7241341,24.1268311 L38.7241341,19.8731689 L34.4420275,19.4356842 C33.9819257,19.3887176 33.5960432,19.0680695 33.4655796,18.6244964 C33.2266862,17.8112793 32.8999472,17.0224152 32.4943502,16.2802277 C32.2947409,15.9149323 32.3121187,15.473551 32.5306322,15.1274885 L32.6108978,15.0158997 L35.3297601,11.6783753 L32.3218483,8.67048647 L30.1288995,10.4569549 C29.1957007,11.2171514 27.9378888,11.4331627 26.797305,11.0423869 L26.5849272,10.9619904 L26.5605739,10.9518433 C25.4332875,10.4863654 24.6370101,9.48222627 24.4425973,8.30040103 L24.414592,8.09007261 L24.1269922,5.27613832 Z M22.0004348,12.9079132 C27.0140076,12.9079132 31.0928809,16.9867554 31.0928809,22.0002899 C31.0928809,27.0138245 27.0140076,31.0929565 22.0004348,31.0929565 C16.986862,31.0929565 12.9079888,27.0138245 12.9079888,22.0002899 C12.9079888,16.9867554 16.986862,12.9079132 22.0004348,12.9079132 Z M22.0004348,15.1837616 C18.2419222,15.1837616 15.1838545,18.2415161 15.1838545,22.0002899 C15.1838545,25.7587738 18.2419222,28.8168182 22.0004348,28.8168182 C25.7589473,28.8168182 28.8167252,25.7587738 28.8167252,22.0002899 C28.8167252,18.2415161 25.7589473,15.1837616 22.0004348,15.1837616 Z M26.0047988,19.1492462 C26.4174988,19.5619431 26.4469773,20.2126203 26.0932345,20.6593144 L26.0047988,20.7585755 L21.9120094,24.8513336 C21.6899313,25.07341 21.3985625,25.1847381 21.1074836,25.1847381 C20.857739,25.1847381 20.6082073,25.103159 20.4019758,24.9398183 L20.3026679,24.8513336 L17.9954909,22.5441742 C17.5510448,22.0997314 17.5510448,21.3789978 17.9954909,20.934845 C18.4081909,20.5221481 19.0591232,20.4926698 19.5058563,20.84641 L19.6051224,20.934845 L21.1074836,22.4371948 L24.3957473,19.1492462 C24.8401934,18.7048034 25.5606426,18.7048034 26.0047988,19.1492462 Z" id="Combined-Shape" fill="#209CFF"></path>
    </g>
</svg>