<?xml version="1.0" encoding="UTF-8"?>
<svg width="80px" height="80px" viewBox="0 0 80 80" version="1.1" xmlns="http://www.w3.org/2000/svg" xmlns:xlink="http://www.w3.org/1999/xlink">
    <!-- Generator: Sketch 59.1 (86144) - https://sketch.com -->
    <title>ic/cat_b/ic_cat_b_03</title>
    <desc>Created with Sketch.</desc>
    <g id="ic/cat_b/ic_cat_b_03" stroke="none" stroke-width="1" fill="none" fill-rule="evenodd">
        <path d="M64,33.2526885 L64,54.6812102 C64,55.8695462 63.5807258,56.8852705 62.7411454,57.731219 C61.9617964,58.5167426 61.0361094,58.9374366 59.964385,58.993528 L59.7144717,59 L20.2858098,59 C19.1071699,59 18.0980597,58.5771675 17.2588546,57.731219 C16.4794185,56.9459587 16.0620656,56.0137396 16.0064205,54.9331992 L16,54.6812102 L16,33.2526885 C16.7857287,34.1341803 17.6875106,34.9173609 18.7056273,35.6006234 C24.2122298,39.3709635 28.2480693,42.1821004 30.8132618,44.0332745 L30.029099,45.3644034 C28.8397743,47.4164764 30.3198229,49.962086 32.7249018,49.962086 L47.2875229,49.962086 C49.6926019,49.962086 51.1990799,47.3905008 50.0097551,45.3644034 L49.2179138,44.0176729 C52.1797316,41.8889065 56.2145762,39.0830771 61.3210171,35.6006234 C62.3394152,34.8991166 63.232003,34.115936 64,33.2526885 Z M40.0194271,44.922818 C40.6537336,44.922818 41.1823224,45.4423302 41.155893,46.0917204 C41.1823224,46.6891594 40.6273042,47.2086716 40.0194271,47.2086716 C39.3851205,47.2086716 38.8565318,46.6891594 38.8565318,46.0657448 C38.8565318,45.4423302 39.3851205,44.922818 40.0194271,44.922818 Z M41.0766047,37.5457453 C41.155893,37.7275746 41.1823224,37.9094038 41.1823224,38.1172087 L41.0766047,39.8315988 L41.0766047,39.8315988 L40.918028,42.4811109 L40.918028,42.4811109 C40.8915986,42.7668426 40.8915986,43.0265986 40.8915986,43.3123303 C40.8651691,43.7798913 40.495157,44.1435498 40.0194271,44.1435498 C39.5436972,44.1435498 39.173685,43.8058669 39.1472556,43.3383059 L38.9093906,39.2341598 L38.9093906,39.2341598 C38.8829612,38.8705013 38.8565318,38.5068428 38.8301023,38.1431843 C38.8301023,37.5457453 39.173685,37.0522088 39.7287033,36.8963551 C40.2837215,36.7664771 40.8387397,37.0262331 41.0766047,37.5457453 Z M59.7140964,21 C60.8744417,21 61.8790486,21.4226434 62.7272603,22.2684029 C63.5755658,23.1139733 63.9999062,24.1306429 63.9999062,25.3183172 C63.9999062,26.739575 63.5626189,28.0980649 62.687106,29.3930307 C61.8122499,30.6885636 60.7232066,31.7953203 59.4196944,32.7125444 C53.4081613,36.917427 49.4289613,39.7014431 47.4830374,41.0643893 L42.7152299,32.9480627 C41.5259051,30.8959896 38.5129491,30.8959896 37.3236243,32.9480627 L32.5470407,41.0815154 C30.9615602,39.9613552 28.8119166,38.453893 26.0980441,36.5590626 C23.0445383,34.4270341 21.2142362,33.1448298 20.6070438,32.7131116 C19.5000811,31.9575337 18.4551324,30.9183659 17.4732295,29.5958919 C16.4912329,28.2735125 16,27.0451903 16,25.9116817 C16,24.5083846 16.3704887,23.33886 17.111466,22.4032026 C17.8062202,21.526201 18.7795983,21.0602939 20.0314459,21.0054813 L20.2855283,21 L59.7140964,21 Z" id="Combined-Shape" fill="#209CFF"></path>
    </g>
</svg>