<?xml version="1.0" encoding="UTF-8"?>
<svg width="80px" height="80px" viewBox="0 0 80 80" version="1.1" xmlns="http://www.w3.org/2000/svg" xmlns:xlink="http://www.w3.org/1999/xlink">
    <!-- Generator: Sketch 59.1 (86144) - https://sketch.com -->
    <title>ic/cat_b/ic_cat_b_08</title>
    <desc>Created with Sketch.</desc>
    <g id="ic/cat_b/ic_cat_b_08" stroke="none" stroke-width="1" fill="none" fill-rule="evenodd">
        <path d="M48.0833333,16 L48.0833333,24.7272727 C48.0833333,26.5178683 49.3962148,27.9016755 51.1444018,27.9949813 L51.3333333,28 L60,28 L60,61.8181818 C60,62.9660079 59.1079395,63.9142121 57.9874771,63.9944948 L57.8333333,64 L23.1666667,64 C22.0268116,64 21.0851922,63.1017013 21.005467,61.9734035 L21,61.8181818 L21,18.1818182 C21,17.0339921 21.8920605,16.0857879 23.0125229,16.0055052 L23.1666667,16 L48.0833333,16 Z M55.9417609,52.4791585 L48.6378986,45.1373093 C47.6273531,46.7169834 46.3133359,48.077385 44.7756468,49.1395199 L44.4168613,49.3792974 L51.7213142,56.7211465 L51.8646311,56.8561384 C53.0375035,57.8910763 54.8246345,57.846079 55.9416953,56.7211465 C57.0612128,55.5980502 57.1059935,53.801757 56.0760955,52.6231711 L55.9417609,52.4791585 L48.6378986,45.1373093 Z M36.9184524,25.6 C30.3253905,25.6 24.9795918,30.9731673 24.9795918,37.5999835 C24.9795918,44.2267997 30.3253905,49.5997032 36.9184524,49.5997032 C43.5116456,49.5997032 48.8571818,44.2267997 48.8571818,37.5999835 C48.8571818,30.9731673 43.5116456,25.6 36.9184524,25.6 Z M36.9184524,28.6001443 C41.8559329,28.6001443 45.8727127,32.6371589 45.8727127,37.6000495 C45.8727127,42.5629401 41.8559329,46.5996249 36.9184524,46.5996249 C31.9808407,46.5996249 27.964389,42.5629401 27.964389,37.6000495 C27.964389,32.6371589 31.9808407,28.6001443 36.9184524,28.6001443 Z M36.1807098,32.9819082 L34.7878526,32.9819082 C33.6553992,32.9819082 32.7778202,33.7975064 32.7036497,34.8886076 L32.6985669,35.0390511 L32.6985669,35.7247654 C32.6985669,36.4346813 32.1433519,37.0231144 31.4393537,37.0898853 L31.3057098,37.0961939 L31.3057098,38.4676225 C32.0267182,38.4676225 32.6243455,39.0142958 32.6921597,39.7074632 L32.6985669,39.8390511 L32.6985669,40.5247654 C32.6985669,41.6397964 33.5269088,42.5038742 34.6350585,42.5769036 L34.7878526,42.5819082 L36.1807098,42.5819082 L36.1807098,41.2104797 L34.7878526,41.2104797 C34.4048169,41.2104797 34.1388199,40.9800035 34.097147,40.624686 L34.091424,40.5247654 L34.091424,39.2904797 C34.091424,38.7419082 33.8128526,38.1933368 33.3949955,37.7819082 C33.7710669,37.4733368 34.0343169,36.9981368 34.0832062,36.4562854 L34.091424,36.2733368 L34.091424,35.0390511 C34.091424,34.6619082 34.3255014,34.4000035 34.6863707,34.3589717 L34.7878526,34.3533368 L36.1807098,34.3533368 L36.1807098,32.9819082 Z M38.966424,32.9819082 L37.5735669,32.9819082 L37.5735669,34.3533368 L38.966424,34.3533368 C39.3494598,34.3533368 39.6154568,34.583813 39.6571297,34.9391305 L39.6628526,35.0390511 L39.6628526,36.2733368 C39.6628526,36.8219082 39.941424,37.3704797 40.3592812,37.7819082 C39.9832098,38.0904797 39.7199598,38.5656797 39.6710705,39.1075311 L39.6628526,39.2904797 L39.6628526,40.5247654 C39.6628526,40.9019082 39.4287752,41.163813 39.0679059,41.2048447 L38.966424,41.2104797 L37.5735669,41.2104797 L37.5735669,42.5819082 L38.966424,42.5819082 C40.0988775,42.5819082 40.9764565,41.7663101 41.0506269,40.6752088 L41.0557098,40.5247654 L41.0557098,39.8390511 C41.0557098,39.1291351 41.6109248,38.5407021 42.3149229,38.4739311 L42.4485669,38.4676225 L42.4485669,37.0961939 C41.7275585,37.0961939 41.1299312,36.5495207 41.062117,35.8563533 L41.0557098,35.7247654 L41.0557098,35.0390511 C41.0557098,33.8733368 40.1503526,32.9819082 38.966424,32.9819082 Z M50.25,16.6545455 L59.35,25.8181818 L51.3333333,25.8181818 C50.6833333,25.8181818 50.25,25.3818182 50.25,24.7272727 L50.25,24.7272727 L50.25,16.6545455 Z" id="Combined-Shape" fill="#209CFF"></path>
    </g>
</svg>