<?xml version="1.0" encoding="UTF-8"?>
<svg width="44px" height="44px" viewBox="0 0 44 44" version="1.1" xmlns="http://www.w3.org/2000/svg" xmlns:xlink="http://www.w3.org/1999/xlink">
    <!-- Generator: Sketch 58 (84663) - https://sketch.com -->
    <title>ic_a/iot/ic_a_iot_p2_08</title>
    <desc>Created with Sketch.</desc>
    <g id="ic_a/iot/ic_a_iot_p2_08" stroke="none" stroke-width="1" fill="none" fill-rule="evenodd">
        <path d="M19.8401447,2 C21.5371784,2 22.9178294,3.37359643 22.9178294,5.06195911 L22.9178294,5.06195911 L22.9178294,12.3013482 C22.9178294,13.9897109 21.5371784,15.3633074 19.8401447,15.3633074 L19.8401447,15.3633074 L19.5603552,15.3633074 L19.5603552,16.4064344 C19.8771306,16.3076842 20.2140873,16.2544028 20.5630586,16.2544028 C21.6718512,16.2544028 22.6569647,16.7917476 23.2689209,17.6185461 C23.7578262,17.341905 24.322902,17.1837797 24.9243356,17.1837797 C26.0889605,17.1837797 27.117028,17.7765152 27.719718,18.6748763 C28.1874997,18.4285477 28.7203797,18.2890162 29.2855342,18.2890162 C31.1374219,18.2890162 32.6442648,19.7879254 32.6442648,21.6302727 L32.6442648,21.6302727 L32.6430084,29.5485694 C32.6424587,33.7978746 31.4018203,37.9209295 29.0553733,41.471874 C28.8375411,41.801484 28.4676818,42 28.0711236,42 L28.0711236,42 L14.8227797,42 C14.5215525,42 14.2317901,41.8852342 14.0130156,41.6792181 C13.8294209,41.5063272 9.51785105,37.3921004 8.63490035,31.8931834 L8.63490035,31.8931834 L7.0869882,25.3023893 C6.87111916,24.3832468 7.0613886,23.4620732 7.60918868,22.7751968 C8.13068242,22.1212112 8.9335362,21.7327729 9.82810881,21.6970697 C10.6600959,21.5376944 11.5085735,21.6933197 12.2321156,22.1405081 C12.4567011,22.2792584 12.6612623,22.4412118 12.843365,22.6229309 L12.843365,22.6229309 L12.843365,15.3633855 L12.5635755,15.3633855 C10.8665418,15.3633855 9.48589081,13.989789 9.48589081,12.3014264 L9.48589081,12.3014264 L9.48589081,5.06195911 C9.48589081,3.37359643 10.8665418,2 12.5635755,2 L12.5635755,2 Z M16.201703,10.5954855 C15.6487988,10.5954855 15.1989211,11.0430645 15.1989211,11.5931437 L15.1989211,11.5931437 L15.1989211,30.2177895 C15.1989211,30.553962 15.0538828,30.8739626 14.8005567,31.096385 C14.5472306,31.3188073 14.2101953,31.4223231 13.8748091,31.3806043 L13.8748091,31.3806043 L13.7804204,31.3688855 C13.291201,31.308026 12.8918943,30.950369 12.7796801,30.4727119 L12.7796801,30.4727119 L11.4361722,24.7518413 C11.3752357,24.4923877 11.2164553,24.2720748 10.9888859,24.1314495 C10.7613164,23.9908242 10.4873378,23.973246 10.2201125,23.9893398 C10.1141804,23.9957461 10.066672,24.0092617 9.95210198,24.0201211 C9.72445398,24.0416837 9.55413024,24.1069182 9.45455879,24.2318403 C9.35498733,24.3567624 9.32883804,24.547544 9.38082251,24.769107 L9.38082251,24.769107 L10.9384719,31.4014637 C10.9451467,31.4298231 10.950722,31.4584169 10.9552766,31.4872451 C11.5707664,35.4076434 14.3683475,38.6517122 15.317653,39.6563235 L15.317653,39.6563235 L27.423752,39.6563235 C29.298491,36.6113176 30.2866671,33.1299827 30.2871382,29.5483351 L30.2871382,29.5483351 L30.2883946,21.6301165 C30.2883946,21.0802716 29.838517,20.6326926 29.2856127,20.6326926 C28.7327084,20.6326926 28.2828307,21.0802716 28.2828307,21.6303508 L28.2828307,21.6303508 L28.2828307,23.5340264 C28.2828307,24.1812152 27.7554475,24.7059037 27.1049349,24.7059037 C26.4544223,24.7059037 25.9270391,24.1812152 25.9270391,23.5340264 L25.9270391,23.5340264 L25.9270391,20.5251924 C25.9270391,19.9751132 25.4772399,19.5275342 24.9243356,19.5275342 C24.3714313,19.5275342 23.9215537,19.9751132 23.9215537,20.5251924 L23.9215537,20.5251924 L23.9215537,22.7156655 C23.9215537,23.3628542 23.3941705,23.8875427 22.7436579,23.8875427 C22.0931453,23.8875427 21.5657621,23.3628542 21.5657621,22.7156655 L21.5657621,22.7156655 L21.5657621,19.5958156 C21.5657621,19.0457364 21.1158844,18.5982355 20.5629801,18.5982355 C20.0100758,18.5982355 19.5602766,19.0457364 19.5602766,19.5958156 L19.5602766,19.5958156 L19.5602766,22.5822277 C19.5602766,23.2294165 19.0328934,23.754105 18.3823808,23.754105 C17.7318682,23.754105 17.204485,23.2294165 17.204485,22.5822277 L17.204485,22.5822277 L17.204485,11.5931437 C17.204485,11.0430645 16.7546073,10.5954855 16.201703,10.5954855 Z M34.9222368,2 C36.6194276,2 38,3.37359643 38,5.06195911 L38,5.06195911 L38,12.3014264 C38,13.989789 36.6193491,15.3633855 34.9222368,15.3633855 L34.9222368,15.3633855 L27.6456676,15.3633855 C25.9486338,15.3633855 24.5679829,13.989789 24.5679829,12.3014264 L24.5679829,12.3014264 L24.5679829,5.06195911 C24.5679829,3.37359643 25.9486338,2 27.6456676,2 L27.6456676,2 Z M34.9223153,4.34375458 L27.6457461,4.34375458 C27.2476959,4.34375458 26.923853,4.66594271 26.923853,5.06195911 L26.923853,5.06195911 L26.923853,12.3014264 C26.923853,12.6974428 27.2476959,13.0196309 27.6457461,13.0196309 L27.6457461,13.0196309 L34.9223153,13.0196309 C35.3203656,13.0196309 35.6442869,12.6974428 35.6442869,12.3014264 L35.6442869,12.3014264 L35.6442869,5.06195911 C35.6442869,4.66594271 35.3203656,4.34375458 34.9223153,4.34375458 L34.9223153,4.34375458 Z M19.8401447,4.34375458 L12.5635755,4.34375458 C12.1655253,4.34375458 11.8416824,4.66594271 11.8416824,5.06195911 L11.8416824,5.06195911 L11.8416824,12.3014264 C11.8416824,12.6974428 12.1655253,13.0196309 12.5634185,13.0196309 L12.5634185,13.0196309 L12.843208,13.0196309 L12.843208,11.5930656 C12.843208,9.75064014 14.3498938,8.25165284 16.2017816,8.25165284 C18.0536694,8.25165284 19.5603552,9.75064014 19.5603552,11.5930656 L19.5603552,11.5930656 L19.5603552,13.0196309 L19.8401447,13.0196309 C20.2381949,13.0196309 20.5620378,12.6974428 20.5620378,12.3014264 L20.5620378,12.3014264 L20.5620378,5.06195911 C20.5620378,4.66594271 20.2381949,4.34375458 19.8401447,4.34375458 L19.8401447,4.34375458 Z" id="Combined-Shape" fill="#FF874D"></path>
    </g>
</svg>