<?xml version="1.0" encoding="UTF-8"?>
<svg width="44px" height="44px" viewBox="0 0 44 44" version="1.1" xmlns="http://www.w3.org/2000/svg" xmlns:xlink="http://www.w3.org/1999/xlink">
    <!-- Generator: Sketch 58 (84663) - https://sketch.com -->
    <title>ic_a/iot/ic_a_iot_p2_09</title>
    <desc>Created with Sketch.</desc>
    <g id="ic_a/iot/ic_a_iot_p2_09" stroke="none" stroke-width="1" fill="none" fill-rule="evenodd">
        <path d="M11.9582812,17.0625 C15.3729687,17.0625 18.1510156,19.8405469 18.1510156,23.2552344 C18.1510156,25.1338281 17.3090625,26.8184375 15.9839844,27.9550781 C19.4752344,29.504375 21.9166406,33.0034375 21.9166406,37.0625 L21.9166406,37.0625 L21.9166406,38.3177344 C21.9166406,40.3724219 20.25,42 18.234375,42 L18.234375,42 L5.68226562,42 C3.66140625,42 2,40.3674219 2,38.3177344 L2,38.3177344 L2,37.0625 C2,33.0034375 4.44140625,29.504375 7.93265625,27.9550781 C6.60757812,26.8184375 5.765625,25.1338281 5.765625,23.2552344 C5.765625,19.8405469 8.54359375,17.0625 11.9582812,17.0625 Z M11.9583594,29.4479687 C7.7596875,29.4479687 4.34375,32.8638281 4.34375,37.0625 L4.34375,37.0625 L4.34375,38.3177344 C4.34375,39.0672656 4.95039062,39.65625 5.68226562,39.65625 L5.68226562,39.65625 L18.234375,39.65625 C18.963125,39.65625 19.5728906,39.0703906 19.5728906,38.3177344 L19.5728906,38.3177344 L19.5728906,37.0625 C19.5728906,32.8638281 16.1570312,29.4479687 11.9583594,29.4479687 Z M11.9583594,19.40625 C9.83601562,19.40625 8.109375,21.1328906 8.109375,23.2552344 C8.109375,25.3775 9.83601562,27.1042187 11.9583594,27.1042187 C14.0807031,27.1042187 15.8073437,25.3775781 15.8073437,23.2552344 C15.8073437,21.1328906 14.0807031,19.40625 11.9583594,19.40625 Z M38.3177344,2 C40.2441457,2 41.8905508,3.50392657 41.9947659,5.48290093 L42,5.68234375 L42,16.9792188 C42,18.967626 40.439004,20.5560349 38.511647,20.6564438 L38.3177344,20.6614844 L28.7969531,20.6614844 C28.7735938,20.6614844 28.7494531,20.6719531 28.7303125,20.6901563 L27.8858778,21.5359376 C27.5254241,21.8967596 27.1159141,22.306527 26.702408,22.7202118 L24.0838281,25.3391406 C23.7240625,25.6988281 23.2120313,25.7610156 22.8067188,25.5930469 C22.4086364,25.4281321 22.1365225,25.0600278 22.0903372,24.6383512 L22.0833594,24.5103906 L22.0833594,5.68226563 C22.0833594,3.67314264 23.6671832,2.10411298 25.5739215,2.00497592 L25.765625,2 L38.3177344,2 Z M38.3177344,4.34375 L25.765625,4.34375 C25.0777574,4.34375 24.4990247,4.8654801 24.4333186,5.55174919 L24.4271094,5.68226563 L24.4271094,21.6810938 C25.1915469,20.9164152 26.0215851,20.0859499 26.6167067,19.4899642 L27.0825781,19.0232031 C27.4974922,18.6137734 28.0321344,18.3698242 28.60472,18.3251287 L28.796875,18.3176563 L38.3177344,18.3176563 C39.0050873,18.3176563 39.5842742,17.797241 39.6500354,17.1098891 L39.65625,16.9791406 L39.65625,5.68226563 C39.65625,4.93375 39.0494531,4.34375 38.3177344,4.34375 Z M32.0416406,10.7864844 C32.6456823,10.7864844 33.1430128,11.2435455 33.206639,11.8306744 L33.2135156,11.9583594 L33.2135156,14.46875 C33.2135156,15.1159375 32.6888281,15.640625 32.0416406,15.640625 C31.437599,15.640625 30.9402684,15.1835639 30.8766423,14.596435 L30.8697656,14.46875 L30.8697656,11.9583594 C30.8697656,11.3111719 31.3944531,10.7864844 32.0416406,10.7864844 Z M32.0416406,7.02085938 C32.6888493,7.02085938 33.2135156,7.54552568 33.2135156,8.19273438 C33.2135156,8.83994307 32.6888493,9.36460938 32.0416406,9.36460938 C31.3944319,9.36460938 30.8697656,8.83994307 30.8697656,8.19273438 C30.8697656,7.54552568 31.3944319,7.02085938 32.0416406,7.02085938 Z" id="Combined-Shape" fill="#47D382"></path>
    </g>
</svg>