<?xml version="1.0" encoding="UTF-8"?>
<svg width="250px" height="100px" viewBox="0 0 250 100" version="1.1" xmlns="http://www.w3.org/2000/svg" xmlns:xlink="http://www.w3.org/1999/xlink">
    <!-- Generator: Sketch 59.1 (86144) - https://sketch.com -->
    <title>brand/brand_14</title>
    <desc>Created with Sketch.</desc>
    <g id="brand/brand_14" stroke="none" stroke-width="1" fill="none" fill-rule="evenodd">
        <path d="M157.357771,53.7595308 C158.11437,56.2815249 159.375367,58.8035191 161.392962,60.8211144 C167.193548,66.8739003 177.029326,66.8739003 183.082111,60.8211144 L183.082111,60.8211144 L188.882698,66.3695015 C179.803519,75.4486804 165.175953,75.4486804 156.096774,66.3695015 C152.565982,62.8387097 150.296188,58.2991202 149.539589,53.7595308 L149.539589,53.7595308 Z M125.076246,26.2697947 C131.381232,26.0175953 137.938416,28.28739 142.730205,33.0791789 L142.730205,33.0791789 L137.181818,38.627566 C134.155425,35.601173 130.120235,34.0879765 126.085044,34.0879765 L126.085044,34.0879765 L124.067449,34.0879765 C123.815249,34.340176 123.56305,34.340176 123.31085,34.340176 C123.058651,34.5923754 122.806452,34.5923754 122.554252,34.5923754 C122.302053,34.5923754 122.049853,34.8445748 121.797654,34.8445748 C121.545455,34.8445748 121.293255,35.0967742 121.041056,35.0967742 C120.788856,35.0967742 120.536657,35.3489736 120.284457,35.3489736 C120.284457,35.3489736 120.032258,35.601173 119.780059,35.601173 C119.527859,35.601173 119.27566,35.601173 119.02346,35.8533724 C118.771261,35.8533724 118.771261,36.1055718 118.519062,36.1055718 C118.266862,36.3577713 118.014663,36.3577713 117.762463,36.6099707 L117.762463,36.6099707 L117.258065,37.1143695 C117.005865,37.3665689 116.753666,37.3665689 116.501466,37.6187683 C116.249267,37.8709677 115.997067,38.1231672 115.744868,38.3753666 L115.519874,38.6003608 C115.446346,38.6738883 115.384583,38.7356514 115.240469,38.8797654 C114.98827,39.3841642 114.73607,39.6363636 114.483871,39.888563 C114.231672,40.1407625 114.231672,40.3929619 113.979472,40.6451613 L113.979472,40.6451613 L113.475073,41.1495601 C113.222874,41.4017595 113.222874,41.6539589 112.970674,41.9061584 C112.970674,42.1583578 112.718475,42.1583578 112.718475,42.4105572 C112.718475,42.6627566 112.466276,42.914956 112.466276,43.1671554 C112.466276,43.1671554 112.214076,43.4193548 112.214076,43.6715543 C112.214076,43.9237537 111.961877,44.1759531 111.961877,44.4281525 C111.961877,44.6803519 111.709677,44.9325513 111.709677,45.1847507 C111.457478,45.4369501 111.457478,45.6891496 111.457478,45.941349 L111.457478,45.941349 L111.457478,46.9501466 L103.638595,46.9498798 L103.638595,52.7498798 L110.196481,52.7507331 C110.417155,52.9714076 110.44474,53.1920821 110.448188,53.4127566 L110.44868,53.5073314 C110.44868,53.7595308 110.70088,54.0117302 110.70088,54.2639296 C110.70088,54.516129 110.953079,54.7683284 110.953079,55.0205279 L110.979308,55.1718475 C111.043871,55.373607 111.205279,55.5753666 111.205279,55.7771261 C111.205279,56.0293255 111.457478,56.2815249 111.457478,56.5337243 C111.709677,56.7859238 111.709677,57.0381232 111.961877,57.2903226 L112.086968,57.4416422 C112.224164,57.6434018 112.264516,57.8451613 112.466276,58.0469208 C112.718475,58.2991202 112.718475,58.5513196 112.970674,58.8035191 C112.970674,59.0557185 112.970674,59.0557185 113.222874,59.3079179 C113.475073,59.8123167 113.979472,60.3167155 114.231672,60.568915 C114.73607,60.8211144 114.98827,61.3255132 115.492669,61.5777126 C115.744868,61.5777126 115.744868,61.829912 115.997067,61.829912 C116.249267,62.0821114 116.501466,62.0821114 116.753666,62.3343109 C117.005865,62.5865103 117.258065,62.8387097 117.510264,62.8387097 C117.762463,63.0909091 118.014663,63.3431085 118.266862,63.3431085 C118.519062,63.3431085 118.771261,63.5953079 119.02346,63.5953079 C119.27566,63.5953079 119.527859,63.8475073 119.780059,63.8475073 L119.931378,63.8737361 C120.133138,63.9382991 120.334897,64.0997067 120.536657,64.0997067 C120.788856,64.0997067 121.041056,64.3519062 121.293255,64.3519062 C121.545455,64.6041056 121.797654,64.6041056 122.049853,64.6041056 C122.302053,64.856305 122.554252,64.856305 122.806452,64.856305 L122.806452,64.856305 L128.859238,64.856305 C129.111437,64.856305 129.363636,64.6041056 129.615836,64.6041056 C129.868035,64.3519062 130.120235,64.3519062 130.372434,64.3519062 C130.624633,64.3519062 130.876833,64.0997067 131.129032,64.0997067 C131.381232,64.0997067 131.633431,63.8475073 131.88563,63.8475073 C132.13783,63.8475073 132.390029,63.5953079 132.642229,63.5953079 L132.793548,63.5690792 C132.995308,63.5045161 133.197067,63.3431085 133.398827,63.3431085 C133.651026,63.0909091 133.903226,63.0909091 134.155425,62.8387097 C134.155425,62.5865103 134.407625,62.5865103 134.659824,62.3343109 C134.912023,62.0821114 135.164223,62.0821114 135.416422,61.829912 C135.668622,61.829912 135.668622,61.829912 135.920821,61.5777126 C136.42522,61.3255132 136.929619,60.8211144 137.181818,60.568915 C139.199413,58.5513196 140.460411,56.2815249 141.217009,53.5073314 L141.217009,53.5073314 L126.337243,53.5073314 L126.337243,45.941349 L148.278592,45.941349 L148.278592,49.7243402 C148.278592,56.5337243 145.504399,62.5865103 140.71261,66.8739003 C140.71261,66.8739003 140.666288,66.9202226 140.613348,66.9731625 L140.460411,67.1260997 C140.460411,67.3782991 140.208211,67.3782991 139.956012,67.6304985 C139.703812,67.6304985 139.703812,67.8826979 139.451613,67.8826979 C139.199413,67.8826979 139.199413,68.1348974 138.947214,68.1348974 L138.947214,68.1348974 L138.392817,68.6892949 C138.319289,68.7628224 138.190616,68.8914956 138.190616,68.8914956 C138.190616,69.143695 137.938416,69.3958944 137.686217,69.3958944 C137.686217,69.3958944 137.557544,69.5245676 137.484016,69.5980951 L137.422688,69.6589305 C137.370968,69.7072031 137.150293,69.9002933 136.929619,69.9002933 C136.677419,69.9002933 136.677419,70.1524927 136.42522,70.1524927 C136.42522,70.1524927 136.173021,70.4046921 135.920821,70.4046921 C135.668622,70.4046921 135.668622,70.6568915 135.416422,70.6568915 C135.164223,70.6568915 135.164223,70.9090909 134.912023,70.9090909 L134.817908,70.9230611 C134.654677,70.976001 134.623796,71.1612903 134.407625,71.1612903 C134.155425,71.1612903 134.155425,71.4134897 133.903226,71.4134897 C133.903226,71.4134897 133.651026,71.6656891 133.398827,71.6656891 C133.146628,71.9178886 133.146628,71.9178886 132.894428,71.9178886 C132.642229,71.9178886 132.390029,72.170088 132.13783,72.170088 L132.13783,72.170088 L131.633431,72.170088 C131.381232,72.4222874 131.129032,72.4222874 130.876833,72.4222874 L130.876833,72.4222874 L130.624633,72.4222874 C130.372434,72.6744868 130.120235,72.6744868 129.868035,72.6744868 L122.049853,72.6744868 C121.797654,72.4222874 121.545455,72.4222874 121.293255,72.4222874 L121.041056,72.4222874 C120.788856,72.170088 120.536657,72.170088 120.284457,72.170088 L120.032258,72.170088 C119.780059,72.170088 119.527859,71.9178886 119.27566,71.9178886 L119.27566,71.9178886 L118.771261,71.9178886 C118.519062,71.9178886 118.266862,71.6656891 118.014663,71.6656891 C117.762463,71.4134897 117.762463,71.4134897 117.510264,71.4134897 C117.510264,71.4134897 117.258065,71.1612903 117.005865,71.1612903 C116.753666,71.1612903 116.753666,70.9090909 116.501466,70.9090909 L116.407351,70.8951207 C116.24412,70.8421809 116.213238,70.6568915 115.997067,70.6568915 C115.744868,70.6568915 115.744868,70.4046921 115.492669,70.4046921 C115.240469,70.4046921 115.240469,70.1524927 114.98827,70.1524927 C114.98827,70.1524927 114.73607,69.9002933 114.483871,69.9002933 L114.483871,69.9002933 L114.231672,69.6480938 C114.231672,69.6480938 113.979472,69.3958944 113.727273,69.3958944 C113.727273,69.3958944 113.5986,69.2672213 113.525072,69.1936937 L113.475073,69.143695 C113.222874,68.8914956 112.970674,68.8914956 112.718475,68.6392962 L112.718475,68.6392962 L112.466276,68.3870968 C112.466276,68.1348974 112.214076,68.1348974 111.961877,67.8826979 L111.961877,67.8826979 L111.709677,67.6304985 C111.565563,67.4863846 111.5038,67.4246215 111.430273,67.3510939 L111.205279,67.1260997 C110.953079,67.1260997 110.953079,66.8739003 110.70088,66.8739003 C110.44868,66.6217009 110.44868,66.6217009 110.196481,66.3695015 C110.196481,66.3695015 109.944282,66.1173021 109.692082,65.8651026 C109.692082,65.8651026 109.439883,65.6129032 109.439883,65.6129032 C109.439883,65.6129032 109.31121,65.4842301 109.237682,65.4107025 L109.187683,65.3607038 C108.935484,65.3607038 108.935484,65.1085044 108.683284,64.856305 L108.683284,64.856305 L108.128887,64.3019074 C108.08477,64.2577909 108.020801,64.193822 107.976685,64.1497055 L107.926686,64.0997067 C107.674487,64.0997067 107.674487,63.8475073 107.422287,63.5953079 L107.422287,63.5953079 L107.170088,63.3431085 C106.917889,63.0909091 106.917889,62.8387097 106.665689,62.5865103 C106.41349,62.5865103 106.41349,62.3343109 106.41349,62.3343109 C106.16129,62.0821114 106.16129,61.829912 105.909091,61.5777126 C105.656891,61.5777126 105.656891,61.3255132 105.656891,61.3255132 C105.404692,61.0733138 105.404692,60.8211144 105.152493,60.568915 C104.900293,60.568915 104.900293,60.3167155 104.900293,60.3167155 C104.900293,60.0645161 104.648094,59.8123167 104.648094,59.5601173 C104.648094,59.3079179 104.395894,59.3079179 104.395894,59.0557185 C104.395894,59.0557185 104.143695,58.8035191 104.143695,58.5513196 C104.143695,58.2991202 103.891496,58.2991202 103.891496,58.0469208 C103.891496,57.7947214 103.639296,57.7947214 103.639296,57.542522 L103.638595,57.5418798 L103.639296,72.6744868 L95.568915,72.6744868 L95.568915,53.7595308 L69.0879765,53.7595308 L69.0879765,72.6744868 L61.0175953,72.6744868 L61.0175953,53.7595308 L69.0879765,53.7595308 L69.0879765,45.941349 L95.568915,45.941349 L95.568915,27.026393 L103.639296,27.026393 L103.638595,42.1578798 L103.653266,42.0642425 C103.697383,41.9282166 103.833409,41.8841001 103.877525,41.7480742 L103.891496,41.6539589 C104.143695,41.4017595 104.143695,41.4017595 104.143695,41.1495601 C104.143695,41.1495601 104.395894,40.8973607 104.395894,40.6451613 C104.648094,40.6451613 104.648094,40.3929619 104.648094,40.3929619 C104.648094,40.1407625 104.900293,39.888563 104.900293,39.6363636 C105.152493,39.6363636 105.152493,39.3841642 105.152493,39.3841642 C105.404692,39.1319648 105.404692,38.8797654 105.656891,38.627566 C105.909091,38.627566 105.909091,38.3753666 105.909091,38.3753666 C106.16129,38.1231672 106.16129,37.8709677 106.41349,37.6187683 C106.665689,37.6187683 106.665689,37.3665689 106.665689,37.3665689 C106.917889,37.1143695 106.917889,36.8621701 107.170088,36.6099707 C107.422287,36.6099707 107.422287,36.3577713 107.422287,36.3577713 C107.674487,36.1055718 107.674487,35.8533724 107.926686,35.601173 C108.178886,35.601173 108.178886,35.3489736 108.178886,35.3489736 C108.431085,35.0967742 108.431085,34.8445748 108.683284,34.5923754 C108.935484,34.340176 108.935484,34.340176 108.935484,34.340176 L109.692082,33.5835777 C109.692082,33.3313783 109.944282,33.3313783 110.196481,33.0791789 C110.196481,33.0791789 110.325154,32.9505057 110.398682,32.8769782 L110.44868,32.8269795 C110.44868,32.5747801 110.70088,32.5747801 110.953079,32.3225806 L110.953079,32.3225806 L111.205279,32.0703812 C111.457478,31.8181818 111.709677,31.8181818 111.961877,31.5659824 C111.961877,31.313783 112.214076,31.313783 112.214076,31.313783 C112.466276,31.0615836 112.718475,31.0615836 112.970674,30.8093842 C112.970674,30.5571848 113.222874,30.5571848 113.222874,30.5571848 C113.475073,30.3049853 113.727273,30.3049853 113.979472,30.0527859 C113.979472,29.8005865 114.231672,29.8005865 114.231672,29.8005865 C114.483871,29.5483871 114.73607,29.5483871 114.98827,29.2961877 C114.98827,29.0439883 115.240469,29.0439883 115.240469,29.0439883 C115.492669,29.0439883 115.744868,28.7917889 115.997067,28.7917889 C115.997067,28.5395894 116.249267,28.5395894 116.249267,28.5395894 C116.249267,28.5395894 116.501466,28.28739 116.753666,28.28739 C117.005865,28.0351906 117.005865,28.0351906 117.258065,28.0351906 C117.510264,28.0351906 117.510264,27.7829912 117.762463,27.7829912 C118.014663,27.5307918 118.014663,27.5307918 118.266862,27.5307918 C118.519062,27.2785924 118.519062,27.2785924 118.771261,27.2785924 C118.771261,27.026393 119.02346,27.026393 119.27566,27.026393 C119.527859,26.7741935 119.527859,26.7741935 119.780059,26.7741935 C120.032258,26.5219941 120.284457,26.5219941 120.536657,26.5219941 L121.041056,26.5219941 C121.293255,26.2697947 121.545455,26.2697947 121.797654,26.2697947 L121.797654,26.2697947 Z M155.844575,33.5835777 C164.923754,24.5043988 179.55132,24.5043988 188.630499,33.5835777 L188.630499,33.5835777 L183.082111,39.1319648 C177.281525,33.0791789 167.445748,33.0791789 161.392962,39.1319648 C159.375367,41.1495601 158.11437,43.6715543 157.357771,46.1935484 L157.357771,46.1935484 L149.28739,46.1935484 C150.043988,41.4017595 152.313783,37.1143695 155.844575,33.5835777 Z M69.0879765,27.026393 L69.0879765,45.941349 L61.0175953,45.941349 L61.0175953,27.026393 L69.0879765,27.026393 Z" id="Combined-Shape" fill="#040000" fill-rule="nonzero"></path>
    </g>
</svg>