<?xml version="1.0" encoding="UTF-8"?>
<svg width="44px" height="44px" viewBox="0 0 44 44" version="1.1" xmlns="http://www.w3.org/2000/svg" xmlns:xlink="http://www.w3.org/1999/xlink">
    <!-- Generator: Sketch 57.1 (83088) - https://sketch.com -->
    <title>ic_a/sdwan/ic_a_sdwan_p2_04</title>
    <desc>Created with Sketch.</desc>
    <g id="ic_a/sdwan/ic_a_sdwan_p2_04" stroke="none" stroke-width="1" fill="none" fill-rule="evenodd">
        <path d="M26.9877091,2.38218734 L27.7459614,2.78579932 C28.7349043,3.31220612 29.4827303,4.19973646 29.8337679,5.26363715 C30.1966892,6.36355404 30.4072475,7.50799664 30.4595727,8.66505805 L30.4849505,9.22623516 C30.5541185,10.7557413 30.414657,12.2875423 30.0704106,13.7794095 L29.7729322,15.0685976 L32.3306935,15.1285619 C33.5598182,15.1573776 34.7438249,15.5973002 35.693565,16.3780509 L35.7423331,16.4181415 C36.6692933,17.1801655 37.3696909,18.1816552 37.7674258,19.3137959 L37.8351132,19.5064659 C38.1890819,20.5140273 38.271284,21.5970766 38.0734393,22.6465199 C37.8775462,23.685612 37.345442,24.6314726 36.5590941,25.3383979 L36.1342987,25.7202882 L36.1342987,27.1421615 C36.1342987,27.6801284 36.0183222,28.2117729 35.7942727,28.7008641 C35.5692522,29.1920753 35.2617424,29.6411064 34.8850866,30.0284733 L34.4046381,30.5225847 L34.4046381,31.5648248 C34.4046381,33.1429753 33.628757,34.6146445 32.3394686,35.5074022 L32.1422576,35.6369149 L32.1422576,36.6205523 C32.1422576,37.8479256 31.667881,39.0278041 30.8182745,39.9135885 L30.4833563,40.2627681 C29.8366793,40.9369818 29.015615,41.4185455 28.1115265,41.6538735 C27.1937644,41.8927606 26.248294,42.008457 25.3000097,41.9979164 L20.0765852,41.9398557 C18.9986588,41.9278741 17.9241201,41.816753 16.8665529,41.6078972 L16.7994091,41.5946372 C15.7890783,41.39511 14.8106636,41.0587814 13.89119,40.5949413 L13.4985809,40.3968847 C12.8374601,40.0633739 12.2019142,39.6814177 11.597145,39.2541422 C11.0016004,38.833384 10.3077048,38.5731418 9.58234982,38.4985029 L8.2717494,38.3636424 C6.89862368,38.2223481 5.85475016,37.0655483 5.85475016,35.6851721 L5.85475016,22.2140372 C5.85475016,20.3774719 7.34358049,18.8886416 9.18014576,18.8886416 L11.2507041,18.8886416 C12.0633791,18.8886416 12.8522446,18.6142252 13.4894701,18.1098599 C14.1435463,17.5921573 14.7403698,17.005976 15.2697558,16.3613195 L15.7474159,15.7796518 C16.5914589,14.7518236 17.2677948,13.5970842 17.751405,12.3581491 L18.2986057,10.9563046 C18.8245305,9.60896587 19.2206642,8.2145077 19.4816186,6.79189692 L19.597697,6.15908726 C19.777872,5.17685108 20.2430675,4.26933712 20.9353314,3.54959994 C21.6294199,2.82796578 22.5093323,2.31205182 23.4780209,2.05875944 L23.7104155,1.99799298 C24.8123249,1.70986608 25.9823135,1.84702285 26.9877091,2.38218734 Z M25.9547264,5.19163794 C25.4620891,4.85431026 24.8444268,4.75492735 24.2708401,4.9206978 L24.2708401,4.9206978 L24.1044557,4.96878402 C23.6269963,5.10677305 23.2139394,5.40960553 22.9387185,5.82344364 C22.6575902,6.24616458 22.4669805,6.72248806 22.3788791,7.22245231 L22.3788791,7.22245231 L22.1670361,8.42463438 C21.9374153,9.72770285 21.5686267,11.0023689 21.0670038,12.2267413 L21.0670038,12.2267413 L20.5445158,13.5020414 C20.0101422,14.8063524 19.3171566,16.0398817 18.4812092,17.1747713 L18.4812092,17.1747713 L18.2184565,17.5314867 C17.5565075,18.4301547 16.7976262,19.2532097 15.9555289,19.9857756 L15.9555289,19.9857756 L15.8838006,20.0481743 C15.0951541,20.7342417 14.1755868,21.2532773 13.1806768,21.5739109 L13.1806768,21.5739109 L12.9794825,21.6387505 C12.1177294,21.916471 11.2077595,22.012526 10.3070137,21.9208519 L10.3070137,21.9208519 L9.58019207,21.8468791 C9.21763379,21.8099795 8.8862415,22.0541985 8.81413362,22.4114247 L8.81413362,22.4114247 L8.79943727,35.4764236 L9.04638477,35.4764236 C9.4674794,35.4764236 9.88814833,35.5031879 10.3058476,35.5565545 C10.721786,35.6096962 11.1278615,35.7226685 11.5114839,35.8919688 L11.5114839,35.8919688 L11.7755099,36.0084889 C12.3362906,36.2559727 12.8766877,36.5472815 13.3916788,36.8797079 L13.3916788,36.8797079 L13.5027939,36.9514326 C14.0919044,37.3317029 14.7075338,37.6692253 15.3449426,37.9614013 L15.3449426,37.9614013 L15.5352162,38.0486192 C16.29627,38.3974717 17.1039044,38.6340791 17.9328909,38.7510504 L17.9328909,38.7510504 L17.9735769,38.7567913 C18.8333124,38.8781013 19.6994962,38.9482213 20.5675496,38.9667807 L20.5675496,38.9667807 L25.5533546,39.0733796 C26.240037,39.0880612 26.9201261,38.9368598 27.5359014,38.6326081 L27.5359014,38.6326081 L27.74127,38.5311364 C28.217804,38.2956831 28.6109177,37.9201038 28.8678547,37.4548016 C29.1249409,36.9892291 29.2353529,36.4568408 29.1846164,35.927429 L29.1846164,35.927429 L29.0110808,34.1166657 L29.288864,33.9885459 C29.8022108,33.7517788 30.2730302,33.432032 30.6823975,33.0421576 C31.082101,32.6614868 31.3371125,32.1537581 31.4038062,31.60583 L31.4038062,31.60583 L31.4147296,31.5160873 C31.4895009,30.9017968 31.403393,30.2786185 31.1648439,29.7076211 L31.1648439,29.7076211 L30.9642941,29.2275797 L31.3636887,29.0097182 C31.8033639,28.7698844 32.2111203,28.47569 32.5773532,28.1340646 C32.9310849,27.8041005 33.142537,27.3494384 33.1669514,26.8663169 L33.1669514,26.8663169 L33.1719646,26.7671144 C33.2002877,26.2066452 33.096512,25.6473629 32.8690052,25.1343633 L32.8690052,25.1343633 L32.5580349,24.4331642 L33.7838251,23.7411128 C34.4502471,23.3648671 34.9181981,22.7153499 35.0640989,21.9640896 L35.0640989,21.9640896 L35.0829938,21.8667973 C35.2198921,21.1618914 35.1213354,20.4315302 34.8024924,19.7881231 L34.8024924,19.7881231 L34.7040853,19.5895432 C34.4499315,19.0766754 34.0252605,18.6682094 33.5028974,18.4341915 C32.9702217,18.1955536 32.3931241,18.0721911 31.8094362,18.0721911 L31.8094362,18.0721911 L25.765753,18.0721911 L27.052267,13.5514774 C27.285209,12.7329363 27.4361811,11.8932607 27.502955,11.044843 C27.5697373,10.1963185 27.5541581,9.34331982 27.4564356,8.49779987 L27.4564356,8.49779987 L27.3092593,7.22439367 C27.2211401,6.46196319 26.8068944,5.77515009 26.173622,5.3415242 L26.173622,5.3415242 Z" id="ic_a_sdwan_p2_04" fill="#39BFB0"></path>
    </g>
</svg>