<?xml version="1.0" encoding="UTF-8"?>
<svg width="44px" height="44px" viewBox="0 0 44 44" version="1.1" xmlns="http://www.w3.org/2000/svg" xmlns:xlink="http://www.w3.org/1999/xlink">
    <!-- Generator: Sketch 57.1 (83088) - https://sketch.com -->
    <title>ic_a/sdwan/ic_a_sdwan_p2_06</title>
    <desc>Created with Sketch.</desc>
    <g id="ic_a/sdwan/ic_a_sdwan_p2_06" stroke="none" stroke-width="1" fill="none" fill-rule="evenodd">
        <path d="M38.7617795,21.3099504 L33.9897272,13.0138435 L38.8790063,4.61685179 C39.1394591,4.16954601 39.0575968,3.61388007 38.8009454,3.16449164 C38.5442939,2.71510321 38.0739583,2.5 37.558006,2.5 L12.9979265,2.5 C12.9768461,1.71970248 12.2819345,1 11.5,1 C10.7047031,1 10,1.64747107 10,2.44628099 L10,41.553719 C10,42.3525289 10.7047031,43 11.5,43 C12.2952969,43 13,42.3525289 13,41.553719 L13,23.5535372 L37.5577756,23.5535372 C38.3553764,23.5535372 39,22.9060661 39,22.1072562 C39,21.812562 38.9123376,21.5385785 38.7617795,21.3099504 Z M13,5.5 L34.9271333,5.5 L31.0003774,12.2498678 C30.7377358,12.700876 30.6475695,13.286936 30.910211,13.7379443 L34.8451474,20.5 L12.9979265,20.5 L13,5.5 Z" id="ic_a_sdwan_p2_06" fill="#209CFF"></path>
    </g>
</svg>