<?xml version="1.0" encoding="UTF-8"?>
<svg width="44px" height="44px" viewBox="0 0 44 44" version="1.1" xmlns="http://www.w3.org/2000/svg" xmlns:xlink="http://www.w3.org/1999/xlink">
    <!-- Generator: Sketch 57.1 (83088) - https://sketch.com -->
    <title>ic_a/sdwan/ic_a_sdwan_p2_07</title>
    <desc>Created with Sketch.</desc>
    <g id="ic_a/sdwan/ic_a_sdwan_p2_07" stroke="none" stroke-width="1" fill="none" fill-rule="evenodd">
        <path d="M24.8003115,2.06214606 L25.2620438,2.15681236 L25.6953593,2.25261204 C27.9718709,2.75591512 30.0810792,3.82800878 31.8273437,5.36564109 L32.1504672,5.65937747 L32.4811674,5.96970984 C34.3946683,7.76535852 35.795086,10.0350418 36.5427138,12.5449481 L36.6612501,12.9654501 L36.7968986,13.4753151 C37.4713148,16.0102584 37.4052992,18.6853616 36.6066664,21.1839533 C35.8622703,23.5128606 34.848529,25.7460794 33.5865349,27.8384169 L33.2362156,28.4055276 L33.2204649,28.4304299 C31.9566569,30.4285596 30.5544265,32.3352596 29.0242206,34.1365823 L28.4444149,34.8071115 L27.5609509,35.8108888 C26.6244413,36.8749356 25.6559997,37.910337 24.6569662,38.9156817 L23.9019761,39.6640326 L23.0547147,40.4912308 C22.505694,41.0272506 21.6488625,41.0579156 21.064626,40.5852271 L20.9515852,40.4839786 L20.0064385,39.5483951 C18.8337023,38.3875249 17.6963914,37.1914053 16.5960697,35.961681 C15.7159577,34.9780641 14.8673817,33.966789 14.051614,32.9293969 L13.4459597,32.1464799 L12.1025976,30.3811421 C10.3443302,28.0705694 8.92763365,25.5203445 7.8950738,22.8089572 L7.67970613,22.2255075 L7.65825495,22.1655077 C6.6631351,19.3821192 6.50874942,16.3707561 7.20924729,13.505378 L7.31513548,13.0970717 L7.47017567,12.5318653 C8.18885842,9.91187286 9.68157081,7.57321201 11.7486139,5.81946637 L12.0477912,5.57294307 L12.85845,4.92429369 C14.5739181,3.55166014 16.5853357,2.59716015 18.733498,2.13634284 C20.7321902,1.70758939 22.7948353,1.68298372 24.8003115,2.06214606 Z M19.0207002,5.14838939 L18.8952319,5.17984242 C16.8839367,5.68404399 15.0384915,6.70302425 13.5403536,8.13658977 L13.4148036,8.25672834 C11.8457611,9.75814234 10.7318278,11.6715217 10.2008457,13.7772749 L10.0180707,14.5021182 C9.60454518,16.1420656 9.6016392,17.8586619 10.0096099,19.5 C10.4221617,21.1597683 11.0465585,22.7595563 11.8674214,24.2599609 L12.8088964,25.9808249 C13.639056,27.4982225 14.5915332,28.9454198 15.6568647,30.3080384 C16.7230092,31.6716969 17.8699886,32.9701786 19.0916238,34.1964885 L22,37.1159937 L24.5950335,34.563625 C25.9987154,33.1830208 27.3130695,31.7144441 28.5301194,30.1668071 C29.7453517,28.6214814 30.8028316,26.9583822 31.6867418,25.2023857 L32.6732012,23.2426627 C33.4362509,21.7267704 33.9461871,20.0962643 34.1828096,18.4157334 C34.4175954,16.7482473 34.2488248,15.0487668 33.6906723,13.4600252 L33.488423,12.8843369 C32.8172317,10.9738381 31.6724358,9.26479013 30.1611135,7.9170482 L30.1218722,7.88205419 C28.6345688,6.55573144 26.8455406,5.61316019 24.9106141,5.13643949 C22.9757496,4.65973407 20.9536145,4.66383673 19.0207002,5.14838939 Z M22,10 C25.8659932,10 29,13.1340068 29,17 C29,20.8659932 25.8659932,24 22,24 C18.1340068,24 15,20.8659932 15,17 C15,13.1340068 18.1340068,10 22,10 Z M22,13 C19.790861,13 18,14.790861 18,17 C18,19.209139 19.790861,21 22,21 C24.209139,21 26,19.209139 26,17 C26,14.790861 24.209139,13 22,13 Z" id="ic_a_sdwan_p2_07" fill="#47D382"></path>
    </g>
</svg>