<?xml version="1.0" encoding="UTF-8"?>
<svg width="80px" height="80px" viewBox="0 0 80 80" version="1.1" xmlns="http://www.w3.org/2000/svg" xmlns:xlink="http://www.w3.org/1999/xlink">
    <!-- Generator: Sketch 59.1 (86144) - https://sketch.com -->
    <title>ic/cat_b/ic_cat_b_02</title>
    <desc>Created with Sketch.</desc>
    <g id="ic/cat_b/ic_cat_b_02" stroke="none" stroke-width="1" fill="none" fill-rule="evenodd">
        <path d="M40.1453913,16.0001047 C40.6216204,15.9936545 41.0506144,16.285862 41.2144832,16.7325735 C43.3952933,19.6270478 49.647676,22.0245594 56.7643108,22.0530601 L56.7643108,22.0530601 L56.8545453,22.0530601 C57.3990244,22.0365597 57.874299,22.4136693 57.9848176,22.946633 C57.9848176,22.946633 59.1049329,28.009563 59.6656394,34.1324203 C60.2263011,40.2554275 60.3437998,47.4244116 57.8828601,52.0538305 C56.0392882,55.5217695 51.6831565,58.3110911 47.7891594,60.4328956 C44.2006769,62.3880458 41.2437311,63.5658761 40.7570616,63.758181 L40.7570616,63.758181 C40.5388284,63.9263353 40.2726741,64.0133375 40.002448,63.9983372 C39.7339222,64.0119875 39.4690058,63.9287354 39.2567087,63.7640311 C38.7892644,63.5792264 35.8204763,62.3923959 32.2187792,60.4298955 C28.3247971,58.3082411 23.9628039,55.5187694 22.1192618,52.0508304 C19.6583221,47.4214115 19.7728826,40.2524274 20.3335741,34.1294202 C20.8942209,28.006563 22.0143959,22.943633 22.0143959,22.943633 C22.1227816,22.4216196 22.5819333,22.05006 23.1155247,22.05006 C23.1593742,22.05006 23.2030745,22.0680605 23.2466257,22.0680605 C23.266164,22.0676105 23.2855533,22.0676105 23.3049425,22.0680605 C30.7098951,22.0241093 37.1827928,19.4917443 39.2247314,16.5132678 C39.429064,16.2036599 39.7740579,16.0094049 40.1452571,16.0094049 L40.1452571,16.0094049 Z M40.0870596,27.9800123 L39.9413421,27.9800123 L39.9411333,27.9905126 L39.9411333,27.9905126 L39.9120495,27.9905126 C39.4478864,28.0250134 39.115764,28.3683723 38.9216182,28.7931832 L38.9216182,28.7931832 L35.6735656,35.9008157 L29.1862154,35.9008157 C28.2129809,35.9017157 27.7044464,37.0637955 28.3618305,37.784714 L28.3618305,37.784714 L33.3722589,43.275005 L31.7351374,50.4618396 C31.3430277,51.5024163 32.532631,52.4217899 33.4334394,51.7743733 L33.4334394,51.7743733 C33.4604351,51.7563728 33.4838513,51.7383724 33.5063727,51.7188718 L33.5063727,51.7188718 L33.5212875,51.7038715 L39.9998976,46.3775347 L46.35033,51.6012688 C47.1113868,52.5161423 48.5804336,51.7686731 48.2962472,50.6110934 L48.2962472,50.6110934 L48.2902813,50.5750925 L48.2843154,50.5600921 L46.6267905,43.2708049 L51.6372338,37.7803639 C52.2946329,37.0594454 51.7860834,35.8975156 50.812834,35.8966156 L50.812834,35.8966156 L44.3254838,35.8966156 L41.0803545,28.7948332 C40.8971413,28.3938729 40.6003818,28.0580143 40.1656605,27.9950127 C40.1395596,27.9950127 40.1133096,27.9950127 40.0870596,27.9800123 L40.0870596,27.9800123 Z" id="Combined-Shape" fill="#209CFF"></path>
    </g>
</svg>