<?xml version="1.0" encoding="UTF-8"?>
<svg width="80px" height="80px" viewBox="0 0 80 80" version="1.1" xmlns="http://www.w3.org/2000/svg" xmlns:xlink="http://www.w3.org/1999/xlink">
    <!-- Generator: Sketch 59.1 (86144) - https://sketch.com -->
    <title>ic/cat_b/ic_cat_b_07</title>
    <desc>Created with Sketch.</desc>
    <g id="ic/cat_b/ic_cat_b_07" stroke="none" stroke-width="1" fill="none" fill-rule="evenodd">
        <path d="M32.526935,43.3483587 C34.8032079,43.3516661 36.6476673,45.1961851 36.6509747,47.4725314 L36.6509747,47.4725314 L36.6509747,59.8758272 C36.6476673,62.1521736 34.8032079,63.9966926 32.526935,64 L32.526935,64 L20.1240396,64 C17.8477668,63.9966926 16.0033073,62.1521736 16,59.8758272 L16,59.8758272 L16,47.4725314 C16.0033073,45.1961851 17.8477668,43.3516661 20.1240396,43.3483587 L20.1240396,43.3483587 Z M55.9345967,49.672 L57.2385,56.598 C57.377,57.0015 57.757,57.2725 58.184,57.2725 L61.431,57.272 L61.4319941,59.8758272 C61.428787,62.0831934 59.6943221,63.884507 57.5136596,63.9946663 L57.3079545,64 L44.9050591,64 C42.6287863,63.9966926 40.7843268,62.1521736 40.7810195,59.8758272 L40.7810195,59.8758272 L40.781,57.272 L44.2245,57.2725 C44.6515,57.2725 45.031,57.0015 45.17,56.598 L46.4813074,54.1543714 L50.255,59.6695 C50.394,60.0735 50.774,60.3445 51.2005,60.3445 C51.627,60.3445 52.007,60.0735 52.146,59.67 L55.9345967,49.672 Z M57.3079545,43.3483587 C59.5842273,43.3516661 61.4286868,45.1961851 61.4319941,47.4725314 L61.4319941,47.4725314 L61.431,55.272 L58.8975,55.2725 L56.8805967,46.2745 C56.7415967,45.871 56.3615967,45.6 55.9345967,45.6 C55.5075967,45.6 55.1280967,45.871 54.9890967,46.2745 L51.2,56.2725 L47.4273074,50.7563714 C47.2883074,50.3528714 46.9088074,50.0818714 46.4818074,50.0818714 C46.0548074,50.0818714 45.6753074,50.3528714 45.5363074,50.7563714 L43.5115,55.2725 L40.781,55.272 L40.7810195,47.4725314 C40.7842266,45.2651653 42.5186915,43.4638517 44.699354,43.3536923 L44.9050591,43.3483587 Z M48.1891278,17.2055772 C49.8010614,15.5981409 52.4097003,15.5981409 54.0216338,17.2055772 L54.0216338,17.2055772 L62.7929122,25.9756374 C64.4023626,27.5867683 64.4023626,30.1972008 62.7929122,31.8083317 L62.7929122,31.8083317 L61.5783697,33.0199107 L54.0223845,40.5783919 C52.4125279,42.1892587 49.8017293,42.1902669 48.1906291,40.5806439 L48.1906291,40.5806439 L46.9760867,39.3668129 L40.6346438,33.0199107 L39.4201014,31.8060797 C38.6432944,31.0318045 38.2095579,29.9782558 38.2159957,28.8814752 C38.214175,27.7906725 38.6475583,26.7441962 39.4201014,25.974136 L39.4201014,25.974136 Z M32.526935,18.5657885 C34.8032079,18.569096 36.6476673,20.413615 36.6509747,22.6899613 L36.6509747,22.6899613 L36.6509747,35.0932571 C36.6472541,37.3693103 34.8029153,39.2133728 32.526935,39.2166792 L32.526935,39.2166792 L20.1240396,39.2166792 C17.8480593,39.2133728 16.0037206,37.3693103 16,35.0932571 L16,35.0932571 L16,22.6899613 C16.0037206,20.4139081 17.8480593,18.5698456 20.1240396,18.5665392 L20.1240396,18.5665392 Z" id="Combined-Shape" fill="#209CFF"></path>
    </g>
</svg>