<?xml version="1.0" encoding="UTF-8"?>
<svg width="250px" height="100px" viewBox="0 0 250 100" version="1.1" xmlns="http://www.w3.org/2000/svg" xmlns:xlink="http://www.w3.org/1999/xlink">
    <!-- Generator: Sketch 59.1 (86144) - https://sketch.com -->
    <title>brand/brand_10</title>
    <desc>Created with Sketch.</desc>
    <g id="brand/brand_10" stroke="none" stroke-width="1" fill="none" fill-rule="evenodd">
        <path d="M15.4325563,31.2226937 C20.5970494,31.2226937 24.4704193,32.9441914 24.9007937,33.1593787 L24.9007937,33.1593787 L24.4704193,34.2353147 C23.3944832,36.8175613 22.1033599,38.3238718 19.7363006,38.3238718 C19.3059262,38.3238718 18.8755517,38.1086846 18.4451773,38.1086846 C17.5844285,38.1086846 16.9388668,37.8934973 15.8629307,37.8934973 C13.065497,37.8934973 11.7743737,39.1846206 11.7743737,40.9061183 C11.7743737,43.0579905 14.141433,44.3491137 17.154054,45.640237 C21.2426111,47.7921091 26.6222914,50.1591685 26.6222914,56.8299721 C26.6222914,63.5007757 20.8122366,67.8045199 13.2806842,67.8045199 C6.17950617,67.8045199 1.87576191,65.2222734 1.23020027,64.791899 L1.23020027,64.791899 L4.67319568,58.5514698 C5.31875732,58.766657 8.76175272,61.1337163 12.8503098,61.1337163 C15.8629307,61.1337163 18.0148029,59.8425931 18.0148029,57.6907209 C18.0148029,55.3236616 15.0021819,54.2477255 11.7743737,52.5262278 C9.40731436,51.2351045 7.04025502,49.9439813 5.31875732,48.0072963 C4.02763404,46.5009859 3.16688519,44.5643009 3.16688519,41.7668672 C3.16688519,36.3871869 7.25544223,31.2226937 15.4325563,31.2226937 Z M39.5335242,31.8682554 L39.5335242,46.2857986 L39.7487114,46.2857986 L50.7232592,31.8682554 L60.4066838,31.8682554 L46.6347022,48.652858 L61.2674327,66.9437711 L50.9384464,66.9437711 L39.7487114,51.8806662 L39.5335242,51.8806662 L39.5335242,60.0577803 C39.5335242,65.867835 35.4449671,67.3741455 32.0019717,67.3741455 L32.0019717,67.3741455 L31.5715973,67.3741455 L31.5715973,31.8682554 L39.5335242,31.8682554 Z" id="Combined-Shape" fill="#E1002A" fill-rule="nonzero"></path>
        <path d="M133.785523,47.5769219 C138.734829,47.5769219 141.962637,49.7287941 141.962637,54.6780999 L141.962637,54.6780999 L141.962637,61.3489035 C141.962637,64.5767117 142.393012,66.0830222 142.608199,66.7285839 C142.393012,66.7285839 141.101889,66.9437711 140.24114,66.9437711 C138.519642,66.9437711 137.87408,65.867835 137.443706,65.0070862 C137.013332,65.4374606 135.507021,67.5893327 131.848838,67.8045199 C128.190656,67.8045199 125.393222,65.4374606 125.393222,61.779278 C125.393222,57.6907209 128.836218,55.1084744 135.507021,55.1084744 L135.507021,55.1084744 L137.013332,55.1084744 L137.013332,55.1084744 L137.013332,54.4629127 C137.013332,52.5262278 135.722208,51.2351045 133.139962,51.2351045 C130.98809,51.2351045 129.912154,52.0958534 128.62103,52.0958534 C127.545094,52.0958534 127.11472,51.0199173 126.684345,50.3743557 C126.469158,50.1591685 126.253971,49.7287941 126.253971,49.7287941 C126.684345,49.5136068 129.696966,47.5769219 133.785523,47.5769219 Z M198.341687,47.5769219 C203.290993,47.5769219 206.518801,49.7287941 206.518801,54.6780999 L206.518801,54.6780999 L206.518801,61.3489035 C206.518801,64.5767117 206.949176,66.0830222 207.164363,66.7285839 C206.949176,66.7285839 205.658053,66.9437711 204.797304,66.9437711 C203.075806,66.9437711 202.430244,65.867835 201.99987,65.0070862 C201.569495,65.4374606 200.063185,67.5893327 196.405002,67.8045199 C192.74682,67.8045199 189.949386,65.4374606 189.949386,61.779278 C189.949386,57.6907209 193.392381,55.1084744 200.063185,55.1084744 L200.063185,55.1084744 L201.569495,55.1084744 L201.569495,55.1084744 L201.569495,54.4629127 C201.569495,52.5262278 200.278372,51.2351045 197.696126,51.2351045 C195.544254,51.2351045 194.468317,52.0958534 193.177194,52.0958534 C192.101258,52.0958534 191.670884,51.0199173 191.240509,50.3743557 C191.025322,50.1591685 190.810135,49.7287941 190.810135,49.7287941 C191.240509,49.5136068 194.25313,47.5769219 198.341687,47.5769219 Z M112.912364,47.3617347 C118.937606,47.3617347 122.595788,51.4502918 122.595788,57.4755337 C122.380601,63.0704012 119.152793,67.5893327 112.912364,67.5893327 C106.887122,67.5893327 103.228939,63.7159629 103.228939,57.4755337 C103.228939,51.4502918 106.887122,47.3617347 112.912364,47.3617347 Z M163.696546,38.1086846 L163.696546,66.2982094 C163.050984,66.5133967 160.038363,67.5893327 155.734619,67.5893327 C149.49419,67.5893327 145.62082,63.5007757 145.62082,57.6907209 C145.62082,50.8047301 150.354939,47.5769219 155.519432,47.5769219 C157.025742,47.5769219 158.532053,48.0072963 158.74724,48.0072963 L158.74724,48.0072963 L158.74724,42.627616 C158.74724,39.614995 160.683925,38.1086846 162.835797,38.1086846 L162.835797,38.1086846 L163.696546,38.1086846 Z M250.201806,38.1086846 L250.201806,66.2982094 C249.556244,66.5133967 246.543623,67.5893327 242.239879,67.5893327 C235.99945,67.5893327 232.12608,63.5007757 232.12608,57.6907209 C232.12608,50.8047301 236.860198,47.5769219 242.024691,47.5769219 C243.531002,47.5769219 245.037312,48.0072963 245.2525,48.0072963 L245.2525,48.0072963 L245.2525,42.627616 C245.2525,39.614995 247.189185,38.1086846 249.341057,38.1086846 L249.341057,38.1086846 L250.201806,38.1086846 Z M69.659734,37.8934973 C71.8116061,37.8934973 73.748291,39.3998078 73.748291,42.4124288 L73.748291,42.4124288 L73.748291,47.7921091 C73.9634782,47.7921091 75.4697887,47.3617347 77.1912864,47.3617347 C82.5709667,47.3617347 87.0898982,50.5895429 87.0898982,57.4755337 C87.0898982,63.5007757 83.4317156,67.5893327 76.760912,67.3741455 C72.4571677,67.3741455 69.4445468,66.2982094 68.7989851,66.0830222 L68.7989851,66.0830222 L68.7989851,37.8934973 L68.7989851,37.8934973 Z M169.721788,37.8934973 C171.87366,37.8934973 173.810345,39.3998078 173.810345,42.4124288 L173.810345,42.4124288 L173.810345,47.7921091 C173.810345,47.7921091 175.316655,47.3617347 177.038153,47.3617347 C182.417834,47.3617347 186.936765,50.5895429 186.936765,57.4755337 C186.936765,63.5007757 183.278582,67.5893327 176.822966,67.3741455 C172.519222,67.3741455 169.506601,66.2982094 168.861039,66.0830222 L168.861039,66.0830222 L168.861039,37.8934973 L168.861039,37.8934973 Z M100.001131,47.3617347 C102.153003,47.3617347 103.013752,48.0072963 103.444126,48.2224836 L103.444126,48.2224836 L101.722629,52.3110406 C101.722629,52.0958534 100.86188,51.665479 99.5707566,51.665479 C97.6340716,51.665479 96.3429484,52.9566022 95.6973867,53.3869767 L95.6973867,53.3869767 L95.6973867,67.1589583 L90.7480808,67.1589583 L90.7480808,52.741415 C90.7480808,50.1591685 90.3177064,48.652858 90.1025192,48.0072963 C90.1025192,48.0072963 90.7480808,47.7921091 91.3936425,47.7921091 C93.7607018,47.7921091 94.4062634,49.2984196 94.8366379,50.1591685 C95.6973867,49.2984196 97.6340716,47.3617347 100.001131,47.3617347 Z M221.797093,47.3617347 C224.37934,47.3617347 228.898271,48.652858 228.898271,54.6780999 L228.898271,54.6780999 L228.898271,67.1589583 L223.948966,67.1589583 L223.948966,55.9692232 C223.948966,53.3869767 222.657842,51.665479 220.075596,51.665479 C218.138911,51.665479 216.417413,53.3869767 216.202226,53.6021639 L216.202226,53.6021639 L216.202226,67.1589583 L211.25292,67.1589583 L211.25292,54.0325383 C211.25292,50.3743557 210.822546,48.652858 210.822546,48.0072963 C211.037733,48.0072963 211.898482,47.7921091 212.759231,47.7921091 C214.911103,47.7921091 215.771852,49.0832324 215.987039,49.9439813 C216.6326,49.2984196 218.784472,47.3617347 221.797093,47.3617347 Z M112.912364,51.2351045 C109.899743,51.2351045 108.178245,53.8173511 108.178245,57.4755337 C108.178245,61.1337163 109.684556,63.7159629 112.912364,63.7159629 C115.924985,63.7159629 117.646482,61.1337163 117.646482,57.4755337 C117.646482,53.8173511 115.924985,51.2351045 112.912364,51.2351045 Z M76.3305376,51.4502918 C75.0394143,51.4502918 74.1786654,51.665479 73.9634782,51.665479 L73.9634782,51.665479 L73.9634782,63.2855885 C74.1786654,63.2855885 75.0394143,63.5007757 76.3305376,63.5007757 C79.3431585,63.5007757 81.9254051,61.5640908 81.9254051,57.4755337 C81.9254051,53.3869767 79.5583458,51.4502918 76.3305376,51.4502918 Z M137.013332,58.1210954 L134.431085,58.1210954 C131.633651,58.1210954 130.342528,59.1970314 130.342528,60.7033419 C130.342528,62.4248396 131.633651,63.5007757 133.355149,63.5007757 C135.291834,63.5007757 136.798144,62.4248396 137.013332,62.2096524 L137.013332,62.2096524 L137.013332,58.1210954 L137.013332,58.1210954 Z M156.380181,51.4502918 C153.152373,51.4502918 151.0005,53.3869767 150.785313,57.4755337 C150.785313,61.5640908 153.36756,63.5007757 156.380181,63.5007757 C157.671304,63.5007757 158.532053,63.2855885 158.74724,63.2855885 L158.74724,63.2855885 L158.74724,51.665479 C158.532053,51.665479 157.671304,51.4502918 156.380181,51.4502918 Z M242.88544,51.4502918 C239.657632,51.4502918 237.50576,53.3869767 237.290573,57.4755337 C237.290573,61.5640908 239.872819,63.5007757 242.88544,63.5007757 C244.176564,63.5007757 245.037312,63.2855885 245.2525,63.2855885 L245.2525,63.2855885 L245.2525,51.665479 C245.037312,51.665479 244.176564,51.4502918 242.88544,51.4502918 Z M176.177404,51.4502918 C174.886281,51.4502918 174.025532,51.665479 173.810345,51.665479 L173.810345,51.665479 L173.810345,63.2855885 C174.025532,63.2855885 174.886281,63.5007757 176.177404,63.5007757 C179.190025,63.5007757 181.772272,61.5640908 181.772272,57.4755337 C181.772272,53.3869767 179.405213,51.4502918 176.177404,51.4502918 Z M201.569495,58.1210954 L198.987249,58.1210954 C196.189815,58.1210954 194.898692,59.1970314 194.898692,60.7033419 C194.898692,62.4248396 196.189815,63.5007757 197.911313,63.5007757 C199.847998,63.5007757 201.354308,62.4248396 201.569495,62.2096524 L201.569495,62.2096524 L201.569495,58.1210954 L201.569495,58.1210954 Z" id="Combined-Shape" fill="#EE7501" fill-rule="nonzero"></path>
    </g>
</svg>