<?xml version="1.0" encoding="UTF-8"?>
<svg width="250px" height="100px" viewBox="0 0 250 100" version="1.1" xmlns="http://www.w3.org/2000/svg" xmlns:xlink="http://www.w3.org/1999/xlink">
    <!-- Generator: Sketch 59.1 (86144) - https://sketch.com -->
    <title>brand/brand_06</title>
    <desc>Created with Sketch.</desc>
    <g id="brand/brand_06" stroke="none" stroke-width="1" fill="none" fill-rule="evenodd">
        <path d="M82.6627566,31 C88.2111437,31 92.7507331,32.7653959 96.2815249,36.2961877 C99.8123167,39.8269795 101.829912,44.3665689 101.829912,49.6627566 C101.829912,54.6421153 100.04649,58.9526908 96.8988291,62.3848911 L101.577713,67.0645161 C102.082111,67.3167155 101.829912,67.8211144 101.073314,67.8211144 L101.073314,67.8211144 L96.5337243,67.8211144 C95.7771261,67.8211144 95.0205279,67.568915 94.7683284,67.3167155 L94.7683284,67.3167155 L93.1040065,65.6526599 C90.1149606,67.6354744 86.7841692,68.5777126 82.914956,68.5777126 C77.6187683,68.5777126 73.0791789,66.5601173 69.5483871,63.0293255 C65.7653959,59.4985337 64,54.9589443 64,49.914956 C64,46.3841642 64.7565982,43.3577713 66.5219941,40.3313783 C68.28739,37.5571848 70.5571848,35.28739 73.3313783,33.5219941 C76.1055718,31.7565982 79.3841642,31 82.6627566,31 Z M120.492669,40.5835777 C123.014663,40.5835777 125.788856,41.8445748 128.31085,44.1143695 L128.31085,44.1143695 L128.815249,44.6187683 L125.536657,47.8973607 L125.032258,47.3929619 C123.266862,45.8797654 121.753666,45.1231672 120.240469,45.1231672 C119.231672,45.1231672 118.727273,45.3753666 117.970674,45.8797654 C117.214076,46.3841642 116.961877,46.888563 116.961877,47.6451613 C116.961877,48.1495601 117.214076,48.9061584 117.718475,49.4105572 C118.222874,50.1671554 119.483871,50.9237537 121.501466,51.9325513 L121.501466,51.9325513 L121.965597,52.1690498 C124.24315,53.3521582 125.883431,54.5491202 127.302053,55.9677419 C128.31085,57.228739 128.815249,58.7419355 128.815249,60.255132 C128.815249,62.5249267 128.058651,64.542522 126.293255,66.0557185 C124.527859,67.568915 122.510264,68.3255132 119.98827,68.3255132 C118.222874,68.3255132 116.709677,68.0733138 115.196481,67.3167155 C113.683284,66.5601173 112.422287,65.8035191 111.41349,64.542522 L111.41349,64.542522 L110.909091,64.0381232 L114.187683,60.5073314 L114.692082,61.2639296 C116.205279,63.0293255 117.718475,63.7859238 119.483871,63.7859238 C120.744868,63.7859238 121.753666,63.5337243 122.510264,62.7771261 C123.266862,62.2727273 123.771261,61.516129 123.771261,60.5073314 C123.771261,59.7507331 123.519062,58.9941349 123.014663,58.4897361 C122.510264,57.9853372 121.501466,57.228739 118.979472,55.9677419 C116.457478,54.7067449 114.944282,53.4457478 113.935484,52.1847507 C112.926686,50.9237537 112.422287,49.4105572 112.422287,47.8973607 C112.422287,45.8797654 113.178886,44.1143695 114.692082,42.601173 C116.205279,41.340176 118.222874,40.5835777 120.492669,40.5835777 Z M156.809384,31 L156.809384,67.568915 L151.765396,67.568915 L151.765396,64.7947214 C150.756598,65.8035191 149.495601,66.5601173 148.486804,67.0645161 C146.721408,67.8211144 144.703812,68.3255132 142.686217,68.3255132 C138.903226,68.3255132 135.624633,67.0645161 133.102639,64.2903226 C130.328446,61.7683284 129.067449,58.2375367 129.067449,54.4545455 C129.067449,50.6715543 130.328446,47.3929619 133.102639,44.6187683 C135.624633,41.8445748 138.903226,40.5835777 142.686217,40.5835777 C144.703812,40.5835777 146.721408,40.8357771 148.486804,41.8445748 C149.495601,42.3489736 150.504399,43.1055718 151.513196,44.1143695 L151.513196,44.1143695 L151.513196,31 L156.809384,31 Z M171.68915,40.3313783 C173.706745,40.3313783 175.72434,40.8357771 177.489736,41.8445748 C178.498534,42.3489736 179.507331,43.1055718 180.516129,44.1143695 L180.516129,44.1143695 L180.516129,40.8357771 L185.560117,40.8357771 L185.560117,67.3167155 L180.516129,67.3167155 L180.516129,64.542522 C179.759531,65.5513196 178.498534,66.3079179 177.489736,66.8123167 C175.72434,67.568915 173.706745,68.0733138 171.68915,68.0733138 C167.906158,68.0733138 164.627566,66.8123167 162.105572,64.0381232 C159.331378,61.516129 158.070381,57.9853372 158.070381,54.202346 C158.070381,50.4193548 159.331378,47.1407625 162.105572,44.3665689 C164.627566,41.5923754 167.906158,40.3313783 171.68915,40.3313783 Z M109.143695,41.0879765 L109.143695,67.568915 L104.099707,67.568915 L104.099707,41.0879765 L109.143695,41.0879765 Z M171.941349,45.3753666 C167.14956,45.3753666 163.11437,49.4105572 163.11437,54.4545455 C163.11437,59.2463343 167.14956,63.5337243 171.941349,63.5337243 C176.985337,63.5337243 181.020528,59.4985337 181.020528,54.4545455 C181.020528,49.4105572 176.733138,45.3753666 171.941349,45.3753666 Z M142.938416,45.3753666 C138.146628,45.3753666 134.111437,49.4105572 134.111437,54.4545455 C134.111437,59.2463343 138.146628,63.5337243 142.938416,63.5337243 C147.982405,63.5337243 152.017595,59.4985337 152.017595,54.4545455 C152.017595,49.4105572 147.730205,45.3753666 142.938416,45.3753666 Z M82.914956,36.5483871 C75.601173,36.5483871 69.8005865,42.3489736 69.8005865,49.6627566 C69.8005865,56.9765396 75.601173,62.7771261 82.914956,62.7771261 C85.0568496,62.7771261 87.0689634,62.279637 88.8436112,61.3923452 L81.4017595,53.9501466 L81.1495601,53.6979472 C80.6451613,53.1935484 80.6451613,52.6891496 81.1495601,52.6891496 L81.1495601,52.6891496 L81.1495601,52.941349 L86.1935484,52.941349 C87.202346,52.941349 87.7067449,53.1935484 87.9589443,53.4457478 L87.9589443,53.4457478 L92.823069,58.3110378 C94.8254478,56.0125835 96.0293255,52.9946976 96.0293255,49.6627566 C96.0293255,42.3489736 90.228739,36.5483871 82.914956,36.5483871 Z M106.621701,31.5043988 C107.378299,31.5043988 108.134897,31.7565982 108.639296,32.2609971 C109.143695,32.7653959 109.395894,33.5219941 109.395894,34.2785924 C109.395894,35.0351906 109.143695,35.7917889 108.639296,36.2961877 C108.134897,36.8005865 107.378299,37.0527859 106.621701,37.0527859 C105.865103,37.0527859 105.108504,36.8005865 104.604106,36.2961877 C104.099707,35.7917889 103.847507,35.0351906 103.847507,34.2785924 C103.847507,33.5219941 104.099707,32.7653959 104.604106,32.2609971 C105.108504,31.7565982 105.865103,31.5043988 106.621701,31.5043988 Z" id="Combined-Shape" fill="#005E84" fill-rule="nonzero"></path>
    </g>
</svg>