<?xml version="1.0" encoding="UTF-8"?>
<svg width="250px" height="100px" viewBox="0 0 250 100" version="1.1" xmlns="http://www.w3.org/2000/svg" xmlns:xlink="http://www.w3.org/1999/xlink">
    <!-- Generator: Sketch 59.1 (86144) - https://sketch.com -->
    <title>brand/brand_03</title>
    <desc>Created with Sketch.</desc>
    <g id="brand/brand_03" stroke="none" stroke-width="1" fill="none" fill-rule="evenodd">
        <path d="M142.190616,60.8739003 C144.71261,60.8739003 146.730205,61.3782991 147.234604,61.6304985 L147.234604,67.431085 C146.982405,67.431085 145.217009,66.170088 142.695015,66.170088 C139.164223,66.170088 136.642229,68.6920821 136.642229,71.9706745 C136.642229,75.2492669 138.912023,77.771261 142.695015,77.771261 C145.217009,77.771261 146.982405,76.7624633 147.234604,76.5102639 L147.234604,82.3108504 C146.478006,82.5630499 144.71261,83.0674487 142.190616,83.0674487 C136.13783,83.0674487 130.841642,78.7800587 130.841642,71.9706745 C130.841642,65.6656891 135.633431,60.8739003 142.190616,60.8739003 Z M85.6979472,60.8739003 C88.2199413,60.8739003 90.2375367,61.3782991 90.7419355,61.6304985 L90.7419355,67.431085 C90.4897361,67.431085 88.7243402,66.170088 86.202346,66.170088 C82.6715543,66.170088 80.1495601,68.6920821 80.1495601,71.9706745 C80.1495601,75.2492669 82.4193548,77.771261 86.202346,77.771261 C88.7243402,77.771261 90.4897361,76.7624633 90.7419355,76.5102639 L90.7419355,82.3108504 C89.9853372,82.5630499 88.2199413,83.0674487 85.6979472,83.0674487 C79.6451613,83.0674487 74.3489736,78.7800587 74.3489736,71.9706745 C74.3489736,65.6656891 79.1407625,60.8739003 85.6979472,60.8739003 Z M164.384164,60.8739003 C170.941349,60.8739003 175.733138,65.9178886 175.733138,71.9706745 C175.733138,78.0234604 170.941349,83.0674487 164.384164,83.0674487 C157.826979,83.0674487 153.035191,78.0234604 153.035191,71.9706745 C153.035191,65.9178886 157.826979,60.8739003 164.384164,60.8739003 Z M118.73607,60.8739003 C121.258065,60.8739003 123.780059,61.6304985 124.032258,61.6304985 L124.032258,66.170088 C124.032258,66.170088 121.762463,65.4134897 119.744868,65.4134897 C117.475073,65.4134897 116.466276,66.170088 116.466276,67.1788856 C116.466276,68.4398827 117.979472,68.9442815 118.98827,69.1964809 L120.501466,69.7008798 C124.032258,70.7096774 125.545455,73.2316716 125.545455,75.7536657 C125.545455,81.0498534 120.753666,83.0674487 116.718475,83.0674487 C113.944282,83.0674487 111.170088,82.5630499 110.917889,82.5630499 L110.917889,77.5190616 C111.422287,77.5190616 113.692082,78.2756598 115.961877,78.2756598 C118.73607,78.2756598 119.997067,77.5190616 119.997067,76.2580645 C119.997067,75.2492669 118.98827,74.4926686 117.475073,74.2404692 C117.222874,74.2404692 116.718475,73.9882698 116.214076,73.9882698 C113.187683,72.9794721 110.665689,71.2140762 110.665689,67.6832845 C110.665689,63.6480938 113.692082,60.8739003 118.73607,60.8739003 Z M103.351906,61.3782991 L103.351906,82.8152493 L98.0557185,82.8152493 L98.0557185,61.3782991 L103.351906,61.3782991 Z M184.307918,79.7888563 L185.064516,82.058651 L185.821114,79.7888563 L186.325513,79.7888563 L186.325513,82.5630499 L185.821114,82.5630499 L185.821114,80.2932551 L185.064516,82.5630499 L184.812317,82.5630499 L184.055718,80.2932551 L184.055718,82.5630499 L183.55132,82.5630499 L183.55132,80.0410557 L182.542522,80.0410557 L182.542522,82.5630499 L182.038123,82.5630499 L182.038123,80.0410557 L181.029326,80.0410557 L181.029326,79.7888563 L184.307918,79.7888563 Z M164.384164,66.4222874 C161.105572,66.4222874 158.835777,68.9442815 158.835777,71.9706745 C158.835777,74.9970674 161.105572,77.5190616 164.384164,77.5190616 C167.662757,77.5190616 169.932551,74.9970674 169.932551,71.9706745 C169.932551,68.9442815 167.410557,66.4222874 164.384164,66.4222874 Z M95.2815249,18 C96.7947214,18 98.0557185,19.2609971 98.0557185,20.7741935 L98.0557185,20.7741935 L98.0557185,49.2727273 C98.0557185,50.7859238 96.7947214,52.0469208 95.2815249,52.0469208 C93.7683284,52.0469208 92.5073314,50.7859238 92.5073314,49.2727273 L92.5073314,49.2727273 L92.5073314,20.7741935 C92.5073314,19.2609971 93.7683284,18 95.2815249,18 Z M154.548387,18 C156.061584,18 157.322581,19.2609971 157.322581,20.7741935 L157.322581,20.7741935 L157.322581,49.2727273 C157.322581,50.7859238 156.061584,52.0469208 154.548387,52.0469208 C153.035191,52.0469208 151.774194,50.7859238 151.774194,49.2727273 L151.774194,49.2727273 L151.774194,20.7741935 C151.774194,19.2609971 153.035191,18 154.548387,18 Z M80.6539589,28.0879765 C82.1671554,28.0879765 83.4281525,29.3489736 83.4281525,30.8621701 L83.4281525,30.8621701 L83.4281525,43.9765396 C83.4281525,45.4897361 82.1671554,46.7507331 80.6539589,46.7507331 C79.1407625,46.7507331 77.8797654,45.4897361 77.8797654,43.9765396 L77.8797654,43.9765396 L77.8797654,30.8621701 C77.8797654,29.3489736 79.1407625,28.0879765 80.6539589,28.0879765 Z M110.16129,28.0879765 C111.674487,28.0879765 112.935484,29.3489736 112.935484,30.8621701 L112.935484,30.8621701 L112.935484,43.9765396 C112.935484,45.4897361 111.674487,46.7507331 110.16129,46.7507331 C108.648094,46.7507331 107.387097,45.4897361 107.387097,43.9765396 L107.387097,43.9765396 L107.387097,30.8621701 C107.387097,29.3489736 108.648094,28.0879765 110.16129,28.0879765 Z M139.668622,28.0879765 C141.181818,28.0879765 142.442815,29.3489736 142.442815,30.8621701 L142.442815,30.8621701 L142.442815,43.9765396 C142.442815,45.4897361 141.181818,46.7507331 139.668622,46.7507331 C138.155425,46.7507331 136.894428,45.4897361 136.894428,43.9765396 L136.894428,43.9765396 L136.894428,30.8621701 C136.894428,29.3489736 138.155425,28.0879765 139.668622,28.0879765 Z M169.175953,28.0879765 C170.68915,28.0879765 171.950147,29.3489736 171.950147,30.8621701 L171.950147,30.8621701 L171.950147,43.9765396 C171.950147,45.4897361 170.68915,46.7507331 169.175953,46.7507331 C167.662757,46.7507331 166.40176,45.4897361 166.40176,43.9765396 L166.40176,43.9765396 L166.40176,30.8621701 C166.40176,29.3489736 167.662757,28.0879765 169.175953,28.0879765 Z M65.7741935,35.4017595 C67.28739,35.4017595 68.5483871,36.6627566 68.5483871,38.1759531 L68.5483871,38.1759531 L68.5483871,43.7243402 C68.5483871,45.2375367 67.28739,46.4985337 65.7741935,46.4985337 C64.2609971,46.4985337 63,45.2375367 63,43.7243402 L63,43.7243402 L63,38.1759531 C63,36.6627566 64.2609971,35.4017595 65.7741935,35.4017595 Z M124.788856,35.4017595 C126.302053,35.4017595 127.56305,36.6627566 127.56305,38.1759531 L127.56305,38.1759531 L127.56305,43.7243402 C127.56305,45.2375367 126.302053,46.4985337 124.788856,46.4985337 C123.27566,46.4985337 122.014663,45.2375367 122.014663,43.7243402 L122.014663,43.7243402 L122.014663,38.1759531 C122.014663,36.6627566 123.27566,35.4017595 124.788856,35.4017595 Z M184.055718,35.4017595 C185.568915,35.4017595 186.829912,36.6627566 186.829912,38.1759531 L186.829912,38.1759531 L186.829912,43.7243402 C186.829912,45.2375367 185.568915,46.4985337 184.055718,46.4985337 C182.542522,46.4985337 181.281525,45.2375367 181.281525,43.7243402 L181.281525,43.7243402 L181.281525,38.1759531 C181.281525,36.6627566 182.542522,35.4017595 184.055718,35.4017595 Z" id="Combined-Shape" fill="#1FB1DB" fill-rule="nonzero"></path>
    </g>
</svg>