<?xml version="1.0" encoding="UTF-8"?>
<svg width="250px" height="100px" viewBox="0 0 250 100" version="1.1" xmlns="http://www.w3.org/2000/svg" xmlns:xlink="http://www.w3.org/1999/xlink">
    <!-- Generator: Sketch 59.1 (86144) - https://sketch.com -->
    <title>brand/brand_05</title>
    <desc>Created with Sketch.</desc>
    <g id="brand/brand_05" stroke="none" stroke-width="1" fill="none" fill-rule="evenodd">
        <g id="Group" transform="translate(1.000000, 26.000000)" fill-rule="nonzero">
            <path d="M2.18255975,33.5867013 C2.18255975,32.3788497 2.18255975,32.1372794 1.45784879,31.895709 L0.974708149,31.895709 C0.73313783,31.895709 0.974708149,31.6541387 0.974708149,31.4125684 C1.94098943,31.4125684 2.9072707,31.1709981 4.59826294,31.1709981 C5.56454422,31.1709981 6.77239582,31.1709981 7.49710677,31.6541387 C8.22181773,31.895709 8.70495837,32.62042 8.70495837,33.8282716 C8.70495837,35.0361232 7.98024741,35.7608341 7.01396614,36.2439748 C7.01396614,36.4855451 7.25553645,36.4855451 7.25553645,36.4855451 C8.22181773,36.7271154 9.42966933,37.4518264 9.42966933,39.3843889 C9.42966933,41.3169515 7.98024741,42.7663734 4.83983326,42.7663734 C4.35669262,42.7663734 3.63198166,42.7663734 2.9072707,42.7663734 C2.18255975,42.7663734 1.69941911,42.7663734 0.974708149,42.7663734 C0.974708149,42.7663734 0.73313783,42.5248031 0.974708149,42.2832328 L1.21627847,42.2832328 C2.18255975,42.0416625 2.18255975,42.0416625 2.18255975,40.1090999 L2.18255975,33.5867013 Z M3.63198166,35.7608341 C3.63198166,36.2439748 3.63198166,36.2439748 4.59826294,36.2439748 C6.28925518,36.2439748 7.25553645,35.7608341 7.25553645,34.0698419 C7.25553645,32.3788497 6.04768486,31.895709 4.83983326,31.895709 C4.35669262,31.895709 4.1151223,31.895709 4.1151223,31.895709 C3.87355198,31.895709 3.87355198,32.1372794 3.87355198,32.3788497 L3.87355198,35.7608341 L3.63198166,35.7608341 Z M3.63198166,39.6259593 C3.63198166,40.3506702 3.63198166,41.0753812 3.87355198,41.5585218 C4.1151223,42.0416625 4.59826294,42.0416625 5.3229739,42.0416625 C6.77239582,42.0416625 7.98024741,41.3169515 7.98024741,39.6259593 C7.98024741,38.4181077 7.25553645,36.7271154 4.59826294,36.7271154 C3.63198166,36.7271154 3.63198166,36.7271154 3.63198166,37.2102561 L3.63198166,39.6259593 L3.63198166,39.6259593 Z" id="Shape" fill="#615F5F"></path>
            <path d="M11.8453725,40.1090999 C11.8453725,41.3169515 12.0869428,42.0416625 13.2947944,42.0416625 C13.7779351,42.0416625 14.2610757,41.8000921 14.7442164,41.5585218 C14.9857867,41.3169515 14.9857867,41.0753812 14.9857867,40.5922405 L14.9857867,37.6933967 C14.9857867,36.4855451 14.9857867,36.4855451 14.2610757,36.2439748 L14.0195054,36.2439748 C14.0195054,36.2439748 14.0195054,36.0024045 14.0195054,35.7608341 C14.7442164,35.7608341 15.7104976,35.5192638 15.952068,35.5192638 C15.952068,35.5192638 16.1936383,35.5192638 16.1936383,35.5192638 C16.1936383,35.7608341 16.1936383,36.2439748 16.1936383,36.9686857 L16.1936383,39.8675296 C16.1936383,41.3169515 16.1936383,41.8000921 16.6767789,41.8000921 C16.9183492,41.8000921 17.1599196,41.8000921 17.4014899,41.8000921 C17.4014899,41.8000921 17.4014899,42.2832328 17.4014899,42.2832328 C16.6767789,42.5248031 15.7104976,42.5248031 15.227357,43.0079437 C15.227357,43.0079437 14.9857867,43.0079437 14.9857867,43.0079437 L14.9857867,42.2832328 C14.9857867,42.0416625 14.9857867,42.0416625 14.7442164,42.0416625 C14.2610757,42.2832328 13.2947944,43.0079437 12.3285132,43.0079437 C10.8790912,43.0079437 10.3959506,42.2832328 10.3959506,40.8338109 L10.3959506,37.934967 C10.3959506,36.9686857 10.3959506,36.7271154 9.91280997,36.4855451 L9.67123965,36.4855451 C9.67123965,36.4855451 9.67123965,36.2439748 9.67123965,36.0024045 C10.3959506,36.0024045 11.1206616,35.7608341 11.3622319,35.7608341 C11.3622319,35.7608341 11.6038022,35.7608341 11.6038022,35.7608341 C11.6038022,36.0024045 11.6038022,36.4855451 11.6038022,37.2102561 L11.6038022,40.1090999 L11.8453725,40.1090999 Z" id="Path" fill="#615F5F"></path>
            <path d="M22.4744666,36.0024045 C22.7160369,36.4855451 22.7160369,36.9686857 22.7160369,37.4518264 C22.7160369,37.4518264 22.4744666,37.6933967 22.2328963,37.4518264 C21.9913259,36.7271154 21.5081853,36.2439748 20.7834743,36.2439748 C20.0587634,36.2439748 19.8171931,36.7271154 19.8171931,37.2102561 C19.8171931,37.934967 20.541904,38.1765373 21.0250447,38.659678 C21.9913259,39.1428186 22.7160369,39.6259593 22.7160369,40.8338109 C22.7160369,42.0416625 21.5081853,42.7663734 20.3003337,42.7663734 C19.5756227,42.7663734 18.8509118,42.5248031 18.6093415,42.2832328 C18.3677711,42.0416625 18.3677711,41.0753812 18.3677711,40.5922405 C18.3677711,40.5922405 18.6093415,40.5922405 18.8509118,40.5922405 C19.0924821,41.5585218 19.5756227,42.2832328 20.541904,42.2832328 C21.266615,42.2832328 21.7497556,42.0416625 21.7497556,41.3169515 C21.7497556,40.5922405 21.0250447,40.1090999 20.541904,39.8675296 C19.5756227,39.3843889 18.8509118,38.659678 18.8509118,37.6933967 C18.8509118,36.4855451 19.8171931,35.7608341 21.0250447,35.7608341 C21.5081853,35.7608341 22.2328963,35.7608341 22.4744666,36.0024045 Z" id="Path" fill="#615F5F"></path>
            <path d="M24.4070291,37.6933967 C24.4070291,36.9686857 24.4070291,36.9686857 23.9238885,36.7271154 L23.6823182,36.7271154 C23.6823182,36.7271154 23.6823182,36.4855451 23.6823182,36.4855451 C24.1654588,36.2439748 25.1317401,36.0024045 25.3733104,35.7608341 C25.3733104,35.7608341 25.6148807,35.7608341 25.6148807,35.7608341 C25.6148807,36.2439748 25.6148807,37.2102561 25.6148807,37.934967 L25.6148807,41.0753812 C25.6148807,42.2832328 25.6148807,42.5248031 26.3395917,42.5248031 L26.581162,42.5248031 C26.581162,42.5248031 26.581162,43.0079437 26.581162,43.0079437 C26.0980214,43.0079437 25.6148807,43.0079437 24.8901698,43.0079437 C24.1654588,43.0079437 23.6823182,43.0079437 23.1991775,43.0079437 C23.1991775,43.0079437 22.9576072,42.7663734 23.1991775,42.5248031 L23.4407479,42.5248031 C24.1654588,42.5248031 24.1654588,42.2832328 24.1654588,41.0753812 L24.1654588,37.6933967 L24.4070291,37.6933967 Z M25.8564511,32.8619903 C25.8564511,33.5867013 25.3733104,33.8282716 24.8901698,33.8282716 C24.4070291,33.8282716 23.9238885,33.345131 23.9238885,33.1035606 C23.9238885,32.62042 24.4070291,32.1372794 24.8901698,32.1372794 C25.6148807,32.1372794 25.8564511,32.3788497 25.8564511,32.8619903 Z" id="Shape" fill="#615F5F"></path>
            <path d="M28.5137246,37.6933967 C28.5137246,36.9686857 28.5137246,36.9686857 28.0305839,36.7271154 L27.7890136,36.7271154 C27.7890136,36.7271154 27.7890136,36.4855451 27.7890136,36.4855451 C28.2721542,36.2439748 29.2384355,36.0024045 29.4800058,35.7608341 C29.4800058,35.7608341 29.7215762,35.7608341 29.7215762,35.7608341 C29.7215762,36.2439748 29.7215762,36.4855451 29.7215762,36.4855451 C29.7215762,36.4855451 29.7215762,36.7271154 29.9631465,36.7271154 C30.6878574,36.2439748 31.4125684,35.7608341 32.3788497,35.7608341 C33.8282716,35.7608341 34.3114122,36.7271154 34.3114122,37.934967 L34.3114122,40.8338109 C34.3114122,42.0416625 34.3114122,42.2832328 35.0361232,42.2832328 L35.5192638,42.2832328 C35.5192638,42.2832328 35.5192638,42.7663734 35.5192638,42.7663734 C35.0361232,42.7663734 34.5529826,42.7663734 33.8282716,42.7663734 C33.1035606,42.7663734 32.62042,42.7663734 32.3788497,42.7663734 C32.3788497,42.7663734 32.1372794,42.5248031 32.3788497,42.2832328 L32.62042,42.2832328 C33.345131,42.2832328 33.345131,42.0416625 33.345131,40.8338109 L33.345131,38.4181077 C33.345131,37.4518264 32.8619903,36.7271154 31.6541387,36.7271154 C30.9294278,36.7271154 30.4462871,36.9686857 30.2047168,37.2102561 C29.9631465,37.4518264 29.9631465,37.6933967 29.9631465,38.1765373 L29.9631465,40.8338109 C29.9631465,42.0416625 29.9631465,42.2832328 30.6878574,42.2832328 L30.9294278,42.2832328 C30.9294278,42.2832328 30.9294278,42.7663734 30.9294278,42.7663734 C30.4462871,42.7663734 29.9631465,42.7663734 29.4800058,42.7663734 C28.7552949,42.7663734 28.2721542,42.7663734 27.7890136,42.7663734 C27.7890136,42.7663734 27.5474433,42.5248031 27.7890136,42.2832328 L28.0305839,42.2832328 C28.7552949,42.2832328 28.7552949,42.0416625 28.7552949,40.8338109 L28.7552949,37.6933967 L28.5137246,37.6933967 Z" id="Path" fill="#615F5F"></path>
            <path d="M37.2102561,38.1765373 C36.7271154,38.1765373 36.7271154,38.1765373 36.7271154,38.659678 C36.7271154,40.3506702 37.6933967,41.8000921 39.6259593,41.8000921 C40.1090999,41.8000921 40.5922405,41.5585218 41.0753812,41.0753812 C41.3169515,41.0753812 41.3169515,41.0753812 41.3169515,41.3169515 C40.8338109,42.5248031 39.6259593,42.7663734 38.659678,42.7663734 C37.4518264,42.7663734 36.7271154,42.2832328 36.2439748,41.5585218 C35.7608341,40.8338109 35.5192638,40.1090999 35.5192638,39.3843889 C35.5192638,37.2102561 36.9686857,35.5192638 38.9012483,35.5192638 C40.3506702,35.5192638 41.3169515,36.4855451 41.3169515,37.4518264 C41.3169515,37.6933967 41.3169515,37.934967 41.3169515,37.934967 C41.3169515,37.934967 41.0753812,37.934967 40.3506702,37.934967 L37.2102561,37.934967 L37.2102561,38.1765373 Z M38.4181077,37.6933967 C39.6259593,37.6933967 40.1090999,37.6933967 40.1090999,37.4518264 C40.1090999,37.4518264 40.1090999,37.4518264 40.1090999,37.2102561 C40.1090999,36.7271154 39.8675296,36.2439748 38.9012483,36.2439748 C37.934967,36.2439748 36.9686857,37.2102561 36.9686857,37.6933967 C36.9686857,37.6933967 36.9686857,37.6933967 36.9686857,37.6933967 L38.4181077,37.6933967 Z" id="Shape" fill="#615F5F"></path>
            <path d="M46.1483579,36.0024045 C46.3899282,36.4855451 46.3899282,36.9686857 46.3899282,37.4518264 C46.3899282,37.4518264 46.1483579,37.6933967 45.9067876,37.4518264 C45.6652172,36.7271154 45.1820766,36.2439748 44.4573656,36.2439748 C43.7326547,36.2439748 43.4910844,36.7271154 43.4910844,37.2102561 C43.4910844,37.934967 44.2157953,38.1765373 44.698936,38.659678 C45.6652172,39.1428186 46.3899282,39.6259593 46.3899282,40.8338109 C46.3899282,42.0416625 45.1820766,42.7663734 43.974225,42.7663734 C43.2495141,42.7663734 42.5248031,42.5248031 42.2832328,42.2832328 C42.0416625,42.0416625 42.0416625,41.0753812 42.0416625,40.5922405 C42.0416625,40.5922405 42.2832328,40.5922405 42.5248031,40.5922405 C42.7663734,41.5585218 43.2495141,42.2832328 44.2157953,42.2832328 C44.9405063,42.2832328 45.4236469,42.0416625 45.4236469,41.3169515 C45.4236469,40.5922405 44.698936,40.1090999 44.2157953,39.8675296 C43.2495141,39.3843889 42.5248031,38.659678 42.5248031,37.6933967 C42.5248031,36.4855451 43.4910844,35.7608341 44.698936,35.7608341 C45.4236469,35.7608341 46.1483579,35.7608341 46.1483579,36.0024045 Z" id="Path" fill="#615F5F"></path>
            <path d="M51.4629049,36.0024045 C51.7044752,36.4855451 51.7044752,36.9686857 51.7044752,37.4518264 C51.7044752,37.4518264 51.4629049,37.6933967 51.2213346,37.4518264 C50.9797643,36.7271154 50.4966236,36.2439748 49.7719127,36.2439748 C49.0472017,36.2439748 48.8056314,36.7271154 48.8056314,37.2102561 C48.8056314,37.934967 49.5303424,38.1765373 50.013483,38.659678 C50.9797643,39.1428186 51.7044752,39.6259593 51.7044752,40.8338109 C51.7044752,42.0416625 50.4966236,42.7663734 49.288772,42.7663734 C48.5640611,42.7663734 47.8393501,42.5248031 47.5977798,42.2832328 C47.3562095,42.0416625 47.3562095,41.0753812 47.3562095,40.5922405 C47.3562095,40.5922405 47.5977798,40.5922405 47.8393501,40.5922405 C48.0809204,41.5585218 48.5640611,42.2832328 49.5303424,42.2832328 C50.2550533,42.2832328 50.738194,42.0416625 50.738194,41.3169515 C50.738194,40.5922405 50.013483,40.1090999 49.5303424,39.8675296 C48.5640611,39.3843889 47.8393501,38.659678 47.8393501,37.6933967 C47.8393501,36.4855451 48.8056314,35.7608341 50.013483,35.7608341 C50.4966236,35.7608341 51.2213346,35.7608341 51.4629049,36.0024045 Z" id="Path" fill="#615F5F"></path>
            <path d="M59.6762958,39.1428186 C59.9178661,39.1428186 59.9178661,38.9012483 59.9178661,38.659678 L59.9178661,37.934967 C59.9178661,37.2102561 59.6762958,36.4855451 58.7100145,36.4855451 C58.2268739,36.4855451 57.7437332,36.7271154 57.7437332,37.2102561 C57.7437332,37.4518264 57.7437332,37.6933967 57.5021629,37.6933967 C57.2605926,37.934967 56.7774519,37.934967 56.5358816,37.934967 C56.2943113,37.934967 56.2943113,37.934967 56.2943113,37.6933967 C56.2943113,36.7271154 58.2268739,35.5192638 59.4347255,35.5192638 C60.642577,35.5192638 61.1257177,36.2439748 61.1257177,37.4518264 L61.1257177,40.3506702 C61.1257177,41.0753812 61.1257177,41.8000921 61.8504286,41.8000921 C62.091999,41.8000921 62.091999,41.8000921 62.3335693,41.8000921 C62.3335693,41.8000921 62.5751396,41.8000921 62.5751396,41.8000921 C62.5751396,41.8000921 62.5751396,41.8000921 62.5751396,42.0416625 C62.5751396,42.0416625 62.091999,42.7663734 61.1257177,42.7663734 C60.642577,42.7663734 60.4010067,42.5248031 59.9178661,42.2832328 C59.9178661,42.2832328 59.6762958,42.0416625 59.6762958,42.0416625 C59.6762958,42.0416625 59.4347255,42.2832328 58.9515848,42.2832328 C58.4684442,42.5248031 58.2268739,42.7663734 57.7437332,42.7663734 C57.2605926,42.7663734 56.7774519,42.5248031 56.5358816,42.2832328 C56.2943113,42.0416625 56.052741,41.5585218 56.052741,41.0753812 C56.052741,40.3506702 56.2943113,40.1090999 57.5021629,39.6259593 L59.6762958,39.1428186 Z M58.7100145,42.0416625 C58.9515848,42.0416625 59.6762958,41.8000921 59.6762958,41.5585218 C59.9178661,41.3169515 59.9178661,41.0753812 59.9178661,40.8338109 L59.9178661,39.8675296 C59.9178661,39.6259593 59.9178661,39.6259593 59.6762958,39.6259593 C59.6762958,39.6259593 59.1931551,39.6259593 58.9515848,39.8675296 C57.9853035,40.1090999 57.5021629,40.3506702 57.5021629,41.0753812 C57.7437332,41.3169515 57.7437332,42.0416625 58.7100145,42.0416625 Z" id="Shape" fill="#615F5F"></path>
            <path d="M64.2661318,37.6933967 C64.2661318,36.9686857 64.2661318,36.9686857 63.7829912,36.7271154 L63.5414209,36.7271154 C63.5414209,36.7271154 63.5414209,36.4855451 63.5414209,36.4855451 C64.0245615,36.2439748 64.9908428,36.0024045 65.2324131,35.7608341 C65.2324131,35.7608341 65.4739834,35.7608341 65.4739834,35.7608341 C65.4739834,36.2439748 65.4739834,36.4855451 65.4739834,36.4855451 C65.4739834,36.4855451 65.4739834,36.7271154 65.7155538,36.7271154 C66.4402647,36.2439748 67.1649757,35.7608341 68.131257,35.7608341 C69.5806789,35.7608341 70.0638195,36.7271154 70.0638195,37.934967 L70.0638195,40.8338109 C70.0638195,42.0416625 70.0638195,42.2832328 70.7885305,42.2832328 L71.2716711,42.2832328 C71.2716711,42.2832328 71.2716711,42.7663734 71.2716711,42.7663734 C70.7885305,42.7663734 70.3053898,42.7663734 69.5806789,42.7663734 C68.8559679,42.7663734 68.3728273,42.7663734 68.131257,42.7663734 C68.131257,42.7663734 67.8896866,42.5248031 68.131257,42.2832328 L68.3728273,42.2832328 C69.0975382,42.2832328 69.0975382,42.0416625 69.0975382,40.8338109 L69.0975382,38.4181077 C69.0975382,37.4518264 68.6143976,36.7271154 67.406546,36.7271154 C66.681835,36.7271154 66.1986944,36.9686857 65.9571241,37.2102561 C65.7155538,37.4518264 65.7155538,37.6933967 65.7155538,38.1765373 L65.7155538,40.8338109 C65.7155538,42.0416625 65.7155538,42.2832328 66.4402647,42.2832328 L66.681835,42.2832328 C66.681835,42.2832328 66.681835,42.7663734 66.681835,42.7663734 C66.1986944,42.7663734 65.7155538,42.7663734 65.2324131,42.7663734 C64.5077022,42.7663734 64.0245615,42.7663734 63.5414209,42.7663734 C63.5414209,42.7663734 63.2998506,42.5248031 63.5414209,42.2832328 L63.7829912,42.2832328 C64.5077022,42.2832328 64.5077022,42.0416625 64.5077022,40.8338109 L64.5077022,37.6933967 L64.2661318,37.6933967 Z" id="Path" fill="#615F5F"></path>
            <path d="M77.7940697,40.1090999 C77.7940697,41.5585218 77.7940697,42.0416625 78.2772104,42.0416625 C78.5187807,42.0416625 78.760351,42.0416625 79.0019213,41.8000921 C79.0019213,41.8000921 79.2434916,42.2832328 79.0019213,42.2832328 C78.2772104,42.2832328 77.3109291,42.5248031 76.8277885,42.7663734 C76.8277885,42.7663734 76.5862181,42.7663734 76.5862181,42.5248031 L76.5862181,42.5248031 C76.5862181,42.2832328 76.5862181,42.0416625 76.5862181,42.0416625 L76.5862181,42.0416625 C75.8615072,42.5248031 75.3783665,42.7663734 74.4120853,42.7663734 C72.4795227,42.7663734 71.2716711,41.3169515 71.2716711,39.6259593 C71.2716711,37.2102561 72.9626633,35.7608341 75.3783665,35.7608341 C75.8615072,35.7608341 76.3446478,35.7608341 76.5862181,36.0024045 C76.5862181,36.0024045 76.5862181,36.0024045 76.5862181,35.7608341 L76.5862181,33.1035606 C76.5862181,32.1372794 76.5862181,31.895709 76.1030775,31.6541387 L75.8615072,31.6541387 C75.8615072,31.6541387 75.8615072,31.4125684 75.8615072,31.4125684 C76.3446478,31.1709981 77.0693588,30.9294278 77.7940697,30.6878574 C77.7940697,30.6878574 78.03564,30.6878574 78.03564,30.6878574 C78.03564,31.1709981 78.03564,32.1372794 78.03564,32.8619903 L78.03564,40.1090999 L77.7940697,40.1090999 Z M76.5862181,37.4518264 C76.5862181,37.2102561 76.5862181,36.9686857 76.3446478,36.7271154 C76.1030775,36.4855451 75.6199369,36.0024045 74.8952259,36.0024045 C73.445804,36.0024045 72.4795227,37.2102561 72.4795227,38.9012483 C72.4795227,40.3506702 73.445804,41.8000921 74.8952259,41.8000921 C75.3783665,41.8000921 75.8615072,41.5585218 76.1030775,41.3169515 C76.1030775,41.3169515 76.1030775,41.0753812 76.1030775,40.5922405 L76.1030775,37.4518264 L76.5862181,37.4518264 Z" id="Shape" fill="#615F5F"></path>
            <path d="M86.0074606,36.4855451 C85.7658903,36.4855451 85.7658903,36.4855451 85.7658903,36.9686857 L85.7658903,40.1090999 C85.7658903,41.0753812 85.7658903,42.0416625 86.9737419,42.0416625 C87.2153122,42.0416625 87.2153122,42.0416625 87.4568825,42.0416625 C87.6984528,42.0416625 87.9400231,41.8000921 87.9400231,41.8000921 C88.1815935,41.8000921 88.1815935,42.0416625 88.1815935,42.0416625 C87.9400231,42.2832328 87.2153122,42.7663734 86.4906012,42.7663734 C85.0411793,42.7663734 84.799609,42.0416625 84.799609,40.8338109 L84.799609,36.9686857 C84.799609,36.4855451 84.799609,36.4855451 84.5580387,36.4855451 L83.5917574,36.4855451 C83.5917574,36.4855451 83.5917574,36.2439748 83.5917574,36.2439748 C84.074898,36.0024045 84.5580387,35.7608341 84.5580387,35.7608341 C84.799609,35.5192638 85.0411793,35.0361232 85.2827496,34.7945529 C85.2827496,34.7945529 85.52432,34.7945529 85.52432,34.7945529 L85.52432,35.5192638 C85.52432,35.7608341 85.52432,35.7608341 85.7658903,35.7608341 L87.6984528,35.7608341 C87.9400231,36.0024045 87.9400231,36.4855451 87.6984528,36.4855451 L86.0074606,36.4855451 L86.0074606,36.4855451 Z" id="Path" fill="#615F5F"></path>
            <path d="M89.8725857,38.1765373 C89.3894451,38.1765373 89.3894451,38.1765373 89.3894451,38.659678 C89.3894451,40.3506702 90.3557263,41.8000921 92.2882889,41.8000921 C92.7714295,41.8000921 93.2545702,41.5585218 93.7377108,41.0753812 C93.9792811,41.0753812 93.9792811,41.0753812 93.9792811,41.3169515 C93.4961405,42.5248031 92.2882889,42.7663734 91.3220076,42.7663734 C90.114156,42.7663734 89.3894451,42.2832328 88.9063044,41.5585218 C88.4231638,40.8338109 88.1815935,40.1090999 88.1815935,39.3843889 C88.1815935,37.2102561 89.6310154,35.5192638 91.5635779,35.5192638 C93.0129999,35.5192638 93.9792811,36.4855451 93.9792811,37.4518264 C93.9792811,37.6933967 93.9792811,37.934967 93.9792811,37.934967 C93.9792811,37.934967 93.7377108,37.934967 93.0129999,37.934967 L89.8725857,37.934967 L89.8725857,38.1765373 Z M91.0804373,37.6933967 C92.2882889,37.6933967 92.7714295,37.6933967 92.7714295,37.4518264 C92.7714295,37.4518264 92.7714295,37.4518264 92.7714295,37.2102561 C92.7714295,36.7271154 92.5298592,36.2439748 91.5635779,36.2439748 C90.5972967,36.2439748 89.6310154,37.2102561 89.6310154,37.6933967 C89.6310154,37.6933967 89.6310154,37.6933967 89.6310154,37.6933967 L91.0804373,37.6933967 Z" id="Shape" fill="#615F5F"></path>
            <path d="M100.260109,36.0024045 C100.50168,36.0024045 100.50168,36.4855451 100.50168,36.7271154 C100.50168,36.9686857 100.260109,37.4518264 100.018539,37.4518264 C100.018539,37.4518264 99.7769688,37.4518264 99.7769688,37.4518264 C99.2938282,36.9686857 98.8106875,36.4855451 98.0859766,36.4855451 C96.878125,36.4855451 95.6702734,37.4518264 95.6702734,39.1428186 C95.6702734,40.3506702 96.6365546,42.0416625 98.3275469,42.0416625 C99.2938282,42.0416625 99.7769688,41.5585218 100.260109,41.0753812 C100.50168,41.0753812 100.50168,41.0753812 100.50168,41.3169515 C100.018539,42.5248031 98.5691172,43.0079437 97.6028359,43.0079437 C96.6365546,43.0079437 95.9118437,42.7663734 95.1871327,42.0416625 C94.7039921,41.5585218 94.2208515,40.5922405 94.2208515,39.6259593 C94.2208515,37.6933967 95.428703,35.7608341 98.3275469,35.7608341 C99.0522578,35.7608341 99.7769688,35.7608341 100.260109,36.0024045 Z" id="Path" fill="#615F5F"></path>
            <path d="M101.951102,33.1035606 C101.951102,32.1372794 101.951102,31.895709 101.467961,31.6541387 L101.226391,31.6541387 C101.226391,31.6541387 101.226391,31.4125684 101.226391,31.4125684 C101.709531,31.1709981 102.434242,30.9294278 103.158953,30.6878574 C103.158953,30.6878574 103.400524,30.6878574 103.400524,30.6878574 C103.400524,31.1709981 103.400524,32.1372794 103.400524,32.8619903 L103.400524,36.4855451 C103.400524,36.7271154 103.400524,36.7271154 103.400524,36.7271154 C104.125235,36.2439748 104.849946,35.7608341 105.574656,35.7608341 C107.265649,35.7608341 107.748789,36.7271154 107.748789,37.934967 L107.748789,40.8338109 C107.748789,42.0416625 107.748789,42.2832328 108.4735,42.2832328 L108.956641,42.2832328 C108.956641,42.2832328 108.956641,42.7663734 108.956641,42.7663734 C108.23193,42.7663734 107.748789,42.7663734 107.265649,42.7663734 C106.540938,42.7663734 106.057797,42.7663734 105.816227,42.7663734 C105.816227,42.7663734 105.574656,42.5248031 105.816227,42.2832328 L106.057797,42.2832328 C106.782508,42.2832328 106.782508,42.0416625 106.782508,40.8338109 L106.782508,38.4181077 C106.782508,37.4518264 106.299367,36.7271154 105.091516,36.7271154 C104.608375,36.7271154 104.125235,36.9686857 103.883664,37.2102561 C103.642094,37.4518264 103.642094,37.4518264 103.642094,38.1765373 L103.642094,41.0753812 C103.642094,42.2832328 103.642094,42.5248031 104.366805,42.5248031 L104.608375,42.5248031 C104.608375,42.5248031 104.608375,43.0079437 104.608375,43.0079437 C104.125235,43.0079437 103.642094,43.0079437 102.917383,43.0079437 C102.192672,43.0079437 101.709531,43.0079437 101.226391,43.0079437 C101.226391,43.0079437 100.98482,42.7663734 101.226391,42.5248031 L101.709531,42.5248031 C102.434242,42.5248031 102.434242,42.2832328 102.434242,41.0753812 L102.434242,33.1035606 L101.951102,33.1035606 Z" id="Path" fill="#615F5F"></path>
            <path d="M110.647633,37.6933967 C110.647633,36.9686857 110.647633,36.9686857 110.164493,36.7271154 L109.922922,36.7271154 C109.922922,36.7271154 109.922922,36.4855451 109.922922,36.4855451 C110.406063,36.2439748 111.372344,36.0024045 111.613914,35.7608341 C111.613914,35.7608341 111.855485,35.7608341 111.855485,35.7608341 C111.855485,36.2439748 111.855485,36.4855451 111.855485,36.4855451 C111.855485,36.4855451 111.855485,36.7271154 112.097055,36.7271154 C112.821766,36.2439748 113.546477,35.7608341 114.512758,35.7608341 C115.96218,35.7608341 116.445321,36.7271154 116.445321,37.934967 L116.445321,40.8338109 C116.445321,42.0416625 116.445321,42.2832328 117.170032,42.2832328 L117.653172,42.2832328 C117.653172,42.2832328 117.653172,42.7663734 117.653172,42.7663734 C117.170032,42.7663734 116.686891,42.7663734 115.96218,42.7663734 C115.237469,42.7663734 114.754329,42.7663734 114.512758,42.7663734 C114.512758,42.7663734 114.271188,42.5248031 114.512758,42.2832328 L114.754329,42.2832328 C115.47904,42.2832328 115.47904,42.0416625 115.47904,40.8338109 L115.47904,38.4181077 C115.47904,37.4518264 114.995899,36.7271154 113.788047,36.7271154 C113.063336,36.7271154 112.580196,36.9686857 112.338625,37.2102561 C112.097055,37.4518264 112.097055,37.6933967 112.097055,38.1765373 L112.097055,40.8338109 C112.097055,42.0416625 112.097055,42.2832328 112.821766,42.2832328 L113.063336,42.2832328 C113.063336,42.2832328 113.063336,42.7663734 113.063336,42.7663734 C112.580196,42.7663734 112.097055,42.7663734 111.613914,42.7663734 C110.889203,42.7663734 110.406063,42.7663734 109.922922,42.7663734 C109.922922,42.7663734 109.681352,42.5248031 109.922922,42.2832328 L110.164493,42.2832328 C110.889203,42.2832328 110.889203,42.0416625 110.889203,40.8338109 L110.889203,37.6933967 L110.647633,37.6933967 Z" id="Path" fill="#615F5F"></path>
            <path d="M124.900282,39.1428186 C124.900282,41.3169515 123.45086,42.7663734 121.276727,42.7663734 C119.344165,42.7663734 117.894743,41.3169515 117.894743,39.3843889 C117.894743,37.2102561 119.585735,35.7608341 121.518298,35.7608341 C123.20929,35.7608341 124.900282,36.9686857 124.900282,39.1428186 Z M121.276727,36.2439748 C120.068876,36.2439748 119.344165,37.2102561 119.344165,39.1428186 C119.344165,40.5922405 120.068876,42.2832328 121.518298,42.2832328 C122.967719,42.2832328 123.45086,40.8338109 123.45086,39.3843889 C123.45086,37.934967 122.726149,36.2439748 121.276727,36.2439748 Z" id="Shape" fill="#615F5F"></path>
            <path d="M127.557556,40.5922405 C127.557556,41.8000921 127.557556,42.0416625 128.282266,42.0416625 L128.765407,42.0416625 C128.765407,42.0416625 128.765407,42.5248031 128.765407,42.5248031 C128.282266,42.5248031 127.799126,42.5248031 127.074415,42.5248031 C126.349704,42.5248031 125.866563,42.5248031 125.383423,42.5248031 C125.383423,42.5248031 125.141852,42.2832328 125.383423,42.0416625 L125.866563,42.0416625 C126.591274,42.0416625 126.591274,41.8000921 126.591274,40.5922405 L126.591274,33.1035606 C126.591274,32.1372794 126.591274,31.895709 126.108134,31.6541387 L125.866563,31.6541387 C125.866563,31.6541387 125.866563,31.4125684 125.866563,31.4125684 C126.349704,31.1709981 127.074415,30.9294278 127.799126,30.6878574 C127.799126,30.6878574 128.040696,30.6878574 128.040696,30.6878574 C128.040696,31.1709981 128.040696,32.1372794 128.040696,32.8619903 L128.040696,40.5922405 L127.557556,40.5922405 Z" id="Path" fill="#615F5F"></path>
            <path d="M136.254087,39.1428186 C136.254087,41.3169515 134.804665,42.7663734 132.630532,42.7663734 C130.69797,42.7663734 129.248548,41.3169515 129.248548,39.3843889 C129.248548,37.2102561 130.93954,35.7608341 132.872103,35.7608341 C134.804665,35.7608341 136.254087,36.9686857 136.254087,39.1428186 Z M132.630532,36.2439748 C131.422681,36.2439748 130.69797,37.2102561 130.69797,39.1428186 C130.69797,40.5922405 131.422681,42.2832328 132.872103,42.2832328 C134.321524,42.2832328 134.804665,40.8338109 134.804665,39.3843889 C134.804665,37.934967 134.321524,36.2439748 132.630532,36.2439748 Z" id="Shape" fill="#615F5F"></path>
            <path d="M143.984337,36.2439748 C144.225908,36.2439748 144.225908,36.9686857 143.984337,36.9686857 L142.776486,36.9686857 C142.776486,37.2102561 142.776486,37.4518264 142.776486,37.934967 C142.776486,39.1428186 142.051775,40.5922405 139.877642,40.5922405 C139.636072,40.5922405 139.394501,40.5922405 139.152931,40.5922405 C138.911361,40.5922405 138.42822,41.0753812 138.42822,41.5585218 C138.42822,42.0416625 138.911361,42.2832328 139.636072,42.2832328 C140.119212,42.2832328 140.843923,42.2832328 141.568634,42.2832328 C142.534915,42.2832328 143.984337,42.5248031 143.984337,44.2157953 C143.984337,46.1483579 142.051775,47.3562095 139.877642,47.3562095 C137.703509,47.3562095 136.978798,46.1483579 136.978798,45.4236469 C136.978798,45.1820766 136.978798,44.9405063 137.220368,44.698936 C137.461939,44.4573656 137.945079,43.974225 138.42822,43.4910844 C138.66979,43.2495141 138.66979,43.2495141 138.66979,43.0079437 C137.945079,42.7663734 137.461939,42.2832328 137.461939,41.5585218 C137.461939,41.5585218 137.461939,41.3169515 137.703509,41.3169515 C137.945079,41.0753812 138.42822,40.8338109 138.66979,40.5922405 C138.66979,40.5922405 138.911361,40.3506702 138.911361,40.3506702 C138.42822,40.1090999 137.703509,39.3843889 137.703509,38.4181077 C137.703509,36.9686857 138.911361,35.7608341 140.360782,35.7608341 C141.085493,35.7608341 141.568634,36.0024045 142.051775,36.0024045 C142.534915,36.2439748 142.776486,36.2439748 143.018056,36.2439748 L143.984337,36.2439748 L143.984337,36.2439748 Z M140.360782,43.0079437 C139.877642,43.0079437 139.152931,43.0079437 138.911361,43.2495141 C138.42822,43.4910844 138.18665,43.974225 138.18665,44.698936 C138.18665,45.6652172 138.911361,46.3899282 140.360782,46.3899282 C141.810204,46.3899282 142.776486,45.6652172 142.776486,44.698936 C142.776486,43.7326547 142.051775,43.2495141 140.843923,43.2495141 L140.360782,43.2495141 L140.360782,43.0079437 Z M141.568634,38.1765373 C141.568634,36.9686857 141.085493,36.0024045 140.119212,36.0024045 C139.394501,36.0024045 138.66979,36.7271154 138.66979,37.934967 C138.66979,39.1428186 139.394501,39.8675296 140.119212,39.8675296 C141.085493,40.1090999 141.568634,39.3843889 141.568634,38.1765373 Z" id="Shape" fill="#615F5F"></path>
            <path d="M144.709048,45.9067876 C144.709048,45.4236469 144.950619,45.1820766 145.433759,45.1820766 L145.675329,45.1820766 C145.9169,45.1820766 146.15847,45.1820766 146.15847,44.9405063 C146.641611,44.2157953 146.883181,43.4910844 147.124751,43.0079437 C147.124751,42.7663734 147.366322,42.5248031 147.366322,42.2832328 C147.366322,42.0416625 147.366322,41.8000921 147.124751,41.0753812 L145.9169,37.4518264 C145.675329,36.7271154 145.433759,36.2439748 144.950619,36.2439748 L144.467478,36.2439748 C144.467478,36.2439748 144.467478,35.7608341 144.467478,35.7608341 C144.950619,35.7608341 145.433759,35.7608341 146.15847,35.7608341 C146.641611,35.7608341 147.124751,35.7608341 147.607892,35.7608341 C147.849462,35.7608341 147.849462,36.0024045 147.607892,36.2439748 L147.124751,36.2439748 C146.883181,36.2439748 146.641611,36.2439748 146.641611,36.4855451 C146.641611,36.7271154 147.124751,37.6933967 147.124751,38.1765373 L147.607892,39.6259593 C147.607892,39.8675296 148.091033,40.8338109 148.091033,40.8338109 C148.091033,40.8338109 148.332603,40.3506702 148.815744,39.6259593 L149.298884,38.1765373 C149.782025,37.2102561 149.782025,36.7271154 149.782025,36.4855451 C149.782025,36.4855451 149.782025,36.2439748 149.298884,36.2439748 L148.815744,36.2439748 C148.815744,36.2439748 148.815744,35.7608341 148.815744,35.7608341 C149.298884,35.7608341 149.782025,35.7608341 150.265166,35.7608341 C150.748306,35.7608341 150.989877,35.7608341 151.473017,35.7608341 C151.714587,35.7608341 151.714587,36.0024045 151.473017,36.2439748 L151.231447,36.2439748 C150.748306,36.2439748 150.265166,36.7271154 149.782025,37.934967 L148.815744,39.8675296 C148.332603,41.0753812 146.883181,43.974225 146.15847,45.6652172 C145.9169,46.3899282 145.433759,46.3899282 145.192189,46.3899282 C144.950619,46.6314985 144.709048,46.3899282 144.709048,45.9067876 Z" id="Path" fill="#615F5F"></path>
            <path d="M156.304424,37.4518264 C155.821283,36.4855451 155.821283,36.2439748 155.338142,36.2439748 L155.096572,36.2439748 C155.096572,36.2439748 155.096572,36.0024045 155.096572,35.7608341 C155.579713,35.7608341 156.062853,35.7608341 156.545994,35.7608341 C157.029135,35.7608341 157.512275,35.7608341 157.995416,35.7608341 C158.236986,35.7608341 158.236986,36.0024045 157.995416,36.2439748 L157.512275,36.2439748 C157.270705,36.2439748 157.029135,36.4855451 157.029135,36.4855451 C157.029135,36.4855451 157.029135,36.9686857 157.270705,37.4518264 L158.236986,40.1090999 C158.478556,40.5922405 158.478556,40.8338109 158.478556,40.8338109 C158.478556,40.8338109 158.720127,40.5922405 158.961697,40.1090999 L159.686408,38.1765373 C159.927978,37.6933967 159.927978,37.4518264 159.927978,37.2102561 C159.686408,36.7271154 159.444838,36.7271154 159.203267,36.7271154 L158.961697,36.7271154 C158.961697,36.7271154 158.961697,36.4855451 158.961697,36.2439748 C159.444838,36.2439748 159.927978,36.2439748 160.411119,36.2439748 C160.89426,36.2439748 161.3774,36.2439748 162.102111,36.2439748 C162.343682,36.2439748 162.343682,36.4855451 162.102111,36.7271154 L161.860541,36.7271154 C161.13583,36.9686857 161.13583,36.9686857 161.3774,37.4518264 C161.618971,37.934967 162.585252,40.1090999 162.585252,40.5922405 C162.585252,40.8338109 162.826822,41.0753812 162.826822,41.0753812 C162.826822,41.0753812 162.826822,40.8338109 163.068392,40.5922405 C163.309963,40.1090999 164.034674,38.4181077 164.276244,37.6933967 C164.517814,37.2102561 164.517814,36.9686857 164.517814,36.9686857 C164.517814,36.9686857 164.517814,36.7271154 164.276244,36.7271154 L163.793103,36.7271154 C163.551533,36.7271154 163.793103,36.4855451 163.793103,36.2439748 C164.276244,36.2439748 164.759385,36.2439748 165.242525,36.2439748 C165.484096,36.2439748 165.967236,36.2439748 166.450377,36.2439748 C166.691947,36.2439748 166.691947,36.4855451 166.450377,36.7271154 L166.208807,36.7271154 C165.725666,36.7271154 165.725666,36.9686857 165.242525,37.6933967 C164.759385,38.659678 164.034674,40.5922405 163.551533,41.5585218 C163.309963,42.2832328 163.068392,42.7663734 163.068392,43.0079437 C163.068392,43.0079437 162.826822,43.0079437 162.826822,43.0079437 C162.826822,43.0079437 162.585252,43.0079437 162.585252,43.0079437 C162.585252,42.7663734 162.102111,41.8000921 161.860541,41.0753812 L161.13583,39.1428186 C161.13583,38.9012483 160.652689,38.1765373 160.652689,38.1765373 C160.652689,38.1765373 160.411119,38.659678 160.169549,38.9012483 L159.203267,41.0753812 C158.961697,41.8000921 158.720127,42.5248031 158.478556,42.7663734 C158.478556,42.7663734 158.478556,42.7663734 158.236986,42.7663734 C158.236986,42.7663734 157.995416,42.7663734 157.995416,42.7663734 C157.995416,42.5248031 157.512275,41.8000921 157.512275,41.3169515 L156.304424,37.4518264 Z" id="Path" fill="#615F5F"></path>
            <path d="M173.455916,39.1428186 C173.455916,41.3169515 172.006494,42.7663734 169.832361,42.7663734 C167.899799,42.7663734 166.450377,41.3169515 166.450377,39.3843889 C166.450377,37.2102561 168.141369,35.7608341 170.073932,35.7608341 C171.764924,35.7608341 173.455916,36.9686857 173.455916,39.1428186 Z M169.832361,36.2439748 C168.62451,36.2439748 167.899799,37.2102561 167.899799,39.1428186 C167.899799,40.5922405 168.62451,42.2832328 170.073932,42.2832328 C171.523354,42.2832328 172.006494,40.8338109 172.006494,39.3843889 C172.006494,37.934967 171.281783,36.2439748 169.832361,36.2439748 Z" id="Shape" fill="#615F5F"></path>
            <path d="M174.905338,37.6933967 C174.905338,36.9686857 174.905338,36.9686857 174.422198,36.7271154 L174.180627,36.7271154 C174.180627,36.7271154 174.180627,36.4855451 174.180627,36.4855451 C174.663768,36.2439748 175.388479,36.0024045 175.871619,35.7608341 C175.871619,35.7608341 176.11319,35.7608341 176.11319,35.7608341 L176.11319,36.7271154 C176.11319,36.7271154 176.11319,36.9686857 176.11319,36.9686857 C176.59633,36.4855451 177.321041,36.0024045 178.045752,36.0024045 C178.528893,36.0024045 178.770463,36.2439748 178.770463,36.7271154 C178.770463,37.2102561 178.287323,37.4518264 178.045752,37.4518264 C177.804182,37.4518264 177.804182,37.4518264 177.562612,37.4518264 C177.321041,37.2102561 177.079471,37.2102561 176.837901,37.2102561 C176.59633,37.2102561 176.35476,37.4518264 176.11319,37.4518264 C175.871619,37.6933967 175.871619,38.1765373 175.871619,38.659678 L175.871619,40.8338109 C175.871619,42.0416625 175.871619,42.2832328 176.59633,42.2832328 L177.321041,42.2832328 C177.321041,42.2832328 177.321041,42.7663734 177.321041,42.7663734 C176.59633,42.7663734 176.11319,42.7663734 175.388479,42.7663734 C174.663768,42.7663734 174.180627,42.7663734 173.939057,42.7663734 C173.939057,42.7663734 173.697487,42.5248031 173.939057,42.2832328 L174.180627,42.2832328 C174.905338,42.2832328 174.905338,42.0416625 174.905338,40.8338109 L174.905338,37.6933967 L174.905338,37.6933967 Z" id="Path" fill="#615F5F"></path>
            <path d="M180.219885,33.1035606 C180.219885,32.1372794 180.219885,31.895709 179.736745,31.6541387 L179.495174,31.6541387 C179.495174,31.6541387 179.495174,31.4125684 179.495174,31.4125684 C179.978315,31.1709981 180.703026,30.9294278 181.427737,30.6878574 C181.427737,30.6878574 181.669307,30.6878574 181.669307,30.6878574 C181.669307,31.1709981 181.669307,32.1372794 181.669307,32.8619903 L181.669307,38.659678 C181.669307,38.9012483 181.669307,38.9012483 181.910877,38.9012483 C182.394018,38.9012483 182.635588,38.659678 183.118729,38.1765373 L183.84344,37.4518264 C184.326581,36.9686857 184.326581,36.7271154 184.326581,36.7271154 C184.326581,36.7271154 184.326581,36.4855451 183.84344,36.4855451 L183.360299,36.4855451 C183.118729,36.4855451 183.118729,36.0024045 183.360299,36.0024045 L183.84344,36.0024045 C184.568151,36.0024045 185.534432,36.0024045 186.500713,35.7608341 C186.500713,35.7608341 186.742284,36.0024045 186.500713,36.2439748 L186.017573,36.2439748 C185.776003,36.2439748 185.292862,36.4855451 185.051292,36.7271154 C184.326581,37.2102561 183.84344,37.934967 183.60187,38.1765373 C183.360299,38.4181077 183.360299,38.4181077 183.60187,38.659678 C183.84344,39.1428186 184.08501,39.3843889 184.809721,40.1090999 C185.534432,40.8338109 186.017573,41.5585218 186.500713,41.8000921 C186.742284,42.0416625 186.983854,42.0416625 187.466995,42.2832328 L187.708565,42.2832328 C187.708565,42.2832328 187.708565,42.7663734 187.708565,42.7663734 C187.225424,42.7663734 186.742284,42.7663734 186.017573,42.7663734 C185.292862,42.7663734 184.809721,42.7663734 184.326581,42.7663734 C184.08501,42.7663734 184.08501,42.5248031 184.326581,42.2832328 L184.568151,42.2832328 C184.809721,42.2832328 185.051292,42.2832328 185.051292,42.0416625 C185.051292,42.0416625 185.051292,41.8000921 184.809721,41.5585218 L183.118729,39.3843889 C182.877159,39.1428186 182.877159,39.1428186 182.635588,39.1428186 C182.394018,39.1428186 182.394018,39.1428186 182.394018,39.6259593 L182.394018,40.5922405 C182.394018,41.8000921 182.394018,42.0416625 183.118729,42.0416625 L183.60187,42.0416625 C183.60187,42.0416625 183.60187,42.5248031 183.60187,42.5248031 C183.118729,42.5248031 182.635588,42.5248031 181.910877,42.5248031 C181.186166,42.5248031 180.703026,42.5248031 180.219885,42.5248031 C180.219885,42.5248031 179.978315,42.2832328 180.219885,42.0416625 L180.703026,42.0416625 C181.427737,42.0416625 181.427737,41.8000921 181.427737,40.5922405 L181.427737,33.1035606 L180.219885,33.1035606 Z" id="Path" fill="#615F5F"></path>
            <path d="M188.674846,37.6933967 C188.674846,36.9686857 188.674846,36.9686857 188.191706,36.7271154 L187.950135,36.7271154 C187.950135,36.7271154 187.950135,36.4855451 187.950135,36.4855451 C188.433276,36.2439748 189.399557,36.0024045 189.641128,35.7608341 C189.641128,35.7608341 189.882698,35.7608341 189.882698,35.7608341 C189.882698,36.2439748 189.882698,37.2102561 189.882698,37.934967 L189.882698,41.0753812 C189.882698,42.2832328 189.882698,42.5248031 190.607409,42.5248031 L190.848979,42.5248031 C190.848979,42.5248031 190.848979,43.0079437 190.848979,43.0079437 C190.365839,43.0079437 189.882698,43.0079437 189.157987,43.0079437 C188.433276,43.0079437 187.950135,43.0079437 187.466995,43.0079437 C187.466995,43.0079437 187.225424,42.7663734 187.466995,42.5248031 L187.708565,42.5248031 C188.433276,42.5248031 188.433276,42.2832328 188.433276,41.0753812 L188.433276,37.6933967 L188.674846,37.6933967 Z M190.124268,32.8619903 C190.124268,33.5867013 189.641128,33.8282716 189.157987,33.8282716 C188.674846,33.8282716 188.191706,33.345131 188.191706,33.1035606 C188.191706,32.62042 188.674846,32.1372794 189.157987,32.1372794 C189.882698,32.1372794 190.124268,32.3788497 190.124268,32.8619903 Z" id="Shape" fill="#615F5F"></path>
            <path d="M192.781542,37.6933967 C192.781542,36.9686857 192.781542,36.9686857 192.298401,36.7271154 L192.056831,36.7271154 C192.056831,36.7271154 192.056831,36.4855451 192.056831,36.4855451 C192.539971,36.2439748 193.506253,36.0024045 193.747823,35.7608341 C193.747823,35.7608341 193.989393,35.7608341 193.989393,35.7608341 C193.989393,36.2439748 193.989393,36.4855451 193.989393,36.4855451 C193.989393,36.4855451 193.989393,36.7271154 194.230964,36.7271154 C194.955675,36.2439748 195.680386,35.7608341 196.646667,35.7608341 C198.096089,35.7608341 198.579229,36.7271154 198.579229,37.934967 L198.579229,40.8338109 C198.579229,42.0416625 198.579229,42.2832328 199.30394,42.2832328 L199.787081,42.2832328 C199.787081,42.2832328 199.787081,42.7663734 199.787081,42.7663734 C199.30394,42.7663734 198.8208,42.7663734 198.096089,42.7663734 C197.371378,42.7663734 196.888237,42.7663734 196.646667,42.7663734 C196.646667,42.7663734 196.405097,42.5248031 196.646667,42.2832328 L196.888237,42.2832328 C197.612948,42.2832328 197.612948,42.0416625 197.612948,40.8338109 L197.612948,38.4181077 C197.612948,37.4518264 197.129808,36.7271154 195.921956,36.7271154 C195.197245,36.7271154 194.714104,36.9686857 194.472534,37.2102561 C194.230964,37.4518264 194.230964,37.6933967 194.230964,38.1765373 L194.230964,40.8338109 C194.230964,42.0416625 194.230964,42.2832328 194.955675,42.2832328 L195.197245,42.2832328 C195.197245,42.2832328 195.197245,42.7663734 195.197245,42.7663734 C194.714104,42.7663734 194.230964,42.7663734 193.747823,42.7663734 C193.023112,42.7663734 192.539971,42.7663734 192.056831,42.7663734 C192.056831,42.7663734 191.815261,42.5248031 192.056831,42.2832328 L192.298401,42.2832328 C193.023112,42.2832328 193.023112,42.0416625 193.023112,40.8338109 L193.023112,37.6933967 L192.781542,37.6933967 Z" id="Path" fill="#615F5F"></path>
            <path d="M207.034191,36.2439748 C207.275761,36.2439748 207.275761,36.9686857 207.034191,36.9686857 L205.826339,36.9686857 C205.826339,37.2102561 205.826339,37.4518264 205.826339,37.934967 C205.826339,39.1428186 205.101628,40.5922405 202.927495,40.5922405 C202.685925,40.5922405 202.444355,40.5922405 202.202784,40.5922405 C201.961214,40.5922405 201.478073,41.0753812 201.478073,41.5585218 C201.478073,42.0416625 201.961214,42.2832328 202.685925,42.2832328 C203.169066,42.2832328 203.893776,42.2832328 204.618487,42.2832328 C205.584769,42.2832328 207.034191,42.5248031 207.034191,44.2157953 C207.034191,46.1483579 205.101628,47.3562095 202.927495,47.3562095 C200.753362,47.3562095 200.028651,46.1483579 200.028651,45.4236469 C200.028651,45.1820766 200.028651,44.9405063 200.270222,44.698936 C200.511792,44.4573656 200.994933,43.974225 201.478073,43.4910844 C201.719644,43.2495141 201.719644,43.2495141 201.719644,43.0079437 C200.994933,42.7663734 200.511792,42.2832328 200.511792,41.5585218 C200.511792,41.5585218 200.511792,41.3169515 200.753362,41.3169515 C200.994933,41.0753812 201.478073,40.8338109 201.719644,40.5922405 C201.719644,40.5922405 201.961214,40.3506702 201.961214,40.3506702 C201.478073,40.1090999 200.753362,39.3843889 200.753362,38.4181077 C200.753362,36.9686857 201.961214,35.7608341 203.410636,35.7608341 C204.135347,35.7608341 204.618487,36.0024045 205.101628,36.0024045 C205.584769,36.2439748 205.826339,36.2439748 206.067909,36.2439748 L207.034191,36.2439748 L207.034191,36.2439748 Z M203.652206,43.0079437 C203.169066,43.0079437 202.444355,43.0079437 202.202784,43.2495141 C201.719644,43.4910844 201.478073,43.974225 201.478073,44.698936 C201.478073,45.6652172 202.202784,46.3899282 203.652206,46.3899282 C205.101628,46.3899282 206.067909,45.6652172 206.067909,44.698936 C206.067909,43.7326547 205.343198,43.2495141 204.135347,43.2495141 L203.652206,43.2495141 L203.652206,43.0079437 Z M204.618487,38.1765373 C204.618487,36.9686857 204.135347,36.0024045 203.169066,36.0024045 C202.444355,36.0024045 201.719644,36.7271154 201.719644,37.934967 C201.719644,39.1428186 202.444355,39.8675296 203.169066,39.8675296 C204.135347,40.1090999 204.618487,39.3843889 204.618487,38.1765373 Z" id="Shape" fill="#615F5F"></path>
            <path d="M214.2813,39.1428186 C214.522871,39.1428186 214.522871,38.9012483 214.522871,38.659678 L214.522871,37.934967 C214.522871,37.2102561 214.2813,36.4855451 213.315019,36.4855451 C212.831878,36.4855451 212.348738,36.7271154 212.348738,37.2102561 C212.348738,37.4518264 212.348738,37.6933967 212.107167,37.6933967 C211.865597,37.934967 211.382456,37.934967 211.140886,37.934967 C210.899316,37.934967 210.899316,37.934967 210.899316,37.6933967 C210.899316,36.7271154 212.831878,35.5192638 214.03973,35.5192638 C215.247581,35.5192638 215.730722,36.2439748 215.730722,37.4518264 L215.730722,40.3506702 C215.730722,41.0753812 215.730722,41.8000921 216.455433,41.8000921 C216.697003,41.8000921 216.697003,41.8000921 216.938574,41.8000921 C216.938574,41.8000921 217.180144,41.8000921 217.180144,41.8000921 C217.180144,41.8000921 217.180144,41.8000921 217.180144,42.0416625 C217.180144,42.0416625 216.697003,42.7663734 215.730722,42.7663734 C215.247581,42.7663734 215.006011,42.5248031 214.522871,42.2832328 C214.522871,42.2832328 214.2813,42.0416625 214.2813,42.0416625 C214.2813,42.0416625 214.03973,42.2832328 213.556589,42.2832328 C213.073449,42.5248031 212.831878,42.7663734 212.348738,42.7663734 C211.865597,42.7663734 211.382456,42.5248031 211.140886,42.2832328 C210.899316,42.0416625 210.657745,41.5585218 210.657745,41.0753812 C210.657745,40.3506702 210.899316,40.1090999 212.107167,39.6259593 L214.2813,39.1428186 Z M213.315019,42.0416625 C213.556589,42.0416625 214.2813,41.8000921 214.2813,41.5585218 C214.522871,41.3169515 214.522871,41.0753812 214.522871,40.8338109 L214.522871,39.8675296 C214.522871,39.6259593 214.522871,39.6259593 214.2813,39.6259593 C214.2813,39.6259593 213.79816,39.6259593 213.556589,39.8675296 C212.590308,40.1090999 212.107167,40.3506702 212.107167,41.0753812 C212.348738,41.3169515 212.348738,42.0416625 213.315019,42.0416625 Z" id="Shape" fill="#615F5F"></path>
            <path d="M221.76998,36.0024045 C222.01155,36.4855451 222.01155,36.9686857 222.01155,37.4518264 C222.01155,37.4518264 221.76998,37.6933967 221.52841,37.4518264 C221.286839,36.7271154 220.803699,36.2439748 220.078988,36.2439748 C219.354277,36.2439748 219.112707,36.7271154 219.112707,37.2102561 C219.112707,37.934967 219.837418,38.1765373 220.320558,38.659678 C221.286839,39.1428186 222.01155,39.6259593 222.01155,40.8338109 C222.01155,42.0416625 220.803699,42.7663734 219.595847,42.7663734 C218.871136,42.7663734 218.146425,42.5248031 217.904855,42.2832328 C217.663285,42.0416625 217.663285,41.0753812 217.663285,40.5922405 C217.663285,40.5922405 217.904855,40.5922405 218.146425,40.5922405 C218.387996,41.5585218 218.871136,42.2832328 219.837418,42.2832328 C220.562129,42.2832328 221.045269,42.0416625 221.045269,41.3169515 C221.045269,40.5922405 220.320558,40.1090999 219.837418,39.8675296 C218.871136,39.3843889 218.146425,38.659678 218.146425,37.6933967 C218.146425,36.4855451 219.112707,35.7608341 220.320558,35.7608341 C221.045269,35.7608341 221.76998,35.7608341 221.76998,36.0024045 Z" id="Path" fill="#615F5F"></path>
            <path d="M233.123785,39.1428186 C233.123785,41.3169515 231.674363,42.7663734 229.50023,42.7663734 C227.567668,42.7663734 226.118246,41.3169515 226.118246,39.3843889 C226.118246,37.2102561 227.809238,35.7608341 229.741801,35.7608341 C231.674363,35.7608341 233.123785,36.9686857 233.123785,39.1428186 Z M229.50023,36.2439748 C228.292379,36.2439748 227.567668,37.2102561 227.567668,39.1428186 C227.567668,40.5922405 228.292379,42.2832328 229.741801,42.2832328 C231.191223,42.2832328 231.674363,40.8338109 231.674363,39.3843889 C231.674363,37.934967 231.191223,36.2439748 229.50023,36.2439748 Z" id="Shape" fill="#615F5F"></path>
            <path d="M234.573207,37.6933967 C234.573207,36.9686857 234.573207,36.9686857 234.090066,36.7271154 L233.848496,36.7271154 C233.848496,36.7271154 233.848496,36.4855451 233.848496,36.4855451 C234.331637,36.2439748 235.297918,36.0024045 235.539488,35.7608341 C235.539488,35.7608341 235.781059,35.7608341 235.781059,35.7608341 C235.781059,36.2439748 235.781059,36.4855451 235.781059,36.4855451 C235.781059,36.4855451 235.781059,36.7271154 236.022629,36.7271154 C236.74734,36.2439748 237.472051,35.7608341 238.438332,35.7608341 C239.887754,35.7608341 240.370895,36.7271154 240.370895,37.934967 L240.370895,40.8338109 C240.370895,42.0416625 240.370895,42.2832328 241.095606,42.2832328 L241.578746,42.2832328 C241.578746,42.2832328 241.578746,42.7663734 241.578746,42.7663734 C241.095606,42.7663734 240.612465,42.7663734 239.887754,42.7663734 C239.163043,42.7663734 238.679902,42.7663734 238.438332,42.7663734 C238.438332,42.7663734 238.196762,42.5248031 238.438332,42.2832328 L238.679902,42.2832328 C239.404613,42.2832328 239.404613,42.0416625 239.404613,40.8338109 L239.404613,38.4181077 C239.404613,37.4518264 238.921473,36.7271154 237.713621,36.7271154 C236.98891,36.7271154 236.50577,36.9686857 236.264199,37.2102561 C236.022629,37.4518264 236.022629,37.6933967 236.022629,38.1765373 L236.022629,40.8338109 C236.022629,42.0416625 236.022629,42.2832328 236.74734,42.2832328 L236.98891,42.2832328 C236.98891,42.2832328 236.98891,42.7663734 236.98891,42.7663734 C236.50577,42.7663734 236.022629,42.7663734 235.539488,42.7663734 C234.814777,42.7663734 234.331637,42.7663734 233.848496,42.7663734 C233.848496,42.7663734 233.606926,42.5248031 233.848496,42.2832328 L234.090066,42.2832328 C234.814777,42.2832328 234.814777,42.0416625 234.814777,40.8338109 L234.814777,37.6933967 L234.573207,37.6933967 Z" id="Path" fill="#615F5F"></path>
            <path d="M243.028168,38.1765373 C242.545028,38.1765373 242.545028,38.1765373 242.545028,38.659678 C242.545028,40.3506702 243.511309,41.8000921 245.443871,41.8000921 C245.927012,41.8000921 246.410153,41.5585218 246.893293,41.0753812 C247.134864,41.0753812 247.134864,41.0753812 247.134864,41.3169515 C246.651723,42.5248031 245.443871,42.7663734 244.47759,42.7663734 C243.269739,42.7663734 242.545028,42.2832328 242.061887,41.5585218 C241.578746,40.8338109 241.337176,40.1090999 241.337176,39.3843889 C241.337176,37.2102561 242.786598,35.5192638 244.71916,35.5192638 C246.168582,35.5192638 247.134864,36.4855451 247.134864,37.4518264 C247.134864,37.6933967 247.134864,37.934967 247.134864,37.934967 C247.134864,37.934967 246.893293,37.934967 246.168582,37.934967 L243.028168,37.934967 L243.028168,38.1765373 Z M243.99445,37.6933967 C245.202301,37.6933967 245.685442,37.6933967 245.685442,37.4518264 C245.685442,37.4518264 245.685442,37.4518264 245.685442,37.2102561 C245.685442,36.7271154 245.443871,36.2439748 244.47759,36.2439748 C243.511309,36.2439748 242.545028,37.2102561 242.545028,37.6933967 C242.545028,37.6933967 242.545028,37.6933967 242.545028,37.6933967 L243.99445,37.6933967 Z" id="Shape" fill="#615F5F"></path>
            <g transform="translate(56.519028, 0.000000)" fill="#615F5F">
                <rect id="Rectangle" x="76.3530747" y="1.69941911" width="5.07297671" height="19.5671959"></rect>
                <rect id="Rectangle" x="159.694835" y="1.69941911" width="5.07297671" height="19.5671959"></rect>
                <polygon id="Path" points="5.33140077 17.1599196 5.33140077 1.69941911 0.258424063 1.69941911 0.258424063 21.266615 17.4099167 21.266615 17.4099167 17.1599196"></polygon>
                <path d="M122.976146,0.73313783 L110.41449,21.266615 L116.453748,21.266615 L117.90317,18.6093415 L128.290693,18.6093415 L129.740115,21.266615 L135.779373,21.266615 L122.976146,0.73313783 Z M119.594162,14.7442164 L122.734576,9.18809901 L125.87499,14.7442164 L119.594162,14.7442164" id="Shape"></path>
                <g transform="translate(18.367771, 0.957854)">
                    <path d="M172.489635,3.88197885 C171.764924,3.39883822 168.38294,0.499994382 161.860541,0.499994382 C155.338142,0.499994382 151.473017,3.39883822 151.231447,6.78082269 C151.231447,10.8875181 155.579713,12.0953697 159.203267,12.33694 C160.652689,12.5785104 162.102111,12.5785104 163.793103,12.8200807 C165.967236,13.061651 167.416658,13.3032213 167.416658,14.7526432 C167.416658,16.2020651 164.759385,16.6852058 161.618971,16.6852058 C157.753845,16.6852058 155.096572,15.4773542 153.164009,14.0279323 L150.506736,17.4099167 C152.439298,18.8593387 155.579713,20.7919012 161.860541,20.7919012 C169.832361,20.7919012 172.489635,17.1683464 172.489635,14.2695026 C172.489635,10.8875181 170.073932,8.95495556 164.517814,8.47181492 L161.13583,8.2302446 C157.995416,7.98867428 156.545994,7.50553365 156.545994,6.53925237 C156.545994,5.57297109 158.236986,4.84826013 162.102111,4.84826013 C166.933518,4.84826013 169.10765,6.53925237 170.315502,7.26396333 L172.489635,3.88197885" id="Path"></path>
                    <polygon id="Path" points="125.383423 16.2020651 125.383423 0.741564702 120.310446 0.741564702 120.310446 20.3087606 137.461939 20.3087606 137.461939 16.2020651"></polygon>
                    <path d="M13.2947944,0.499994382 C6.28925518,0.499994382 0.73313783,4.84826013 0.73313783,10.6459478 C0.73313783,16.4436355 6.28925518,20.7919012 13.2947944,20.7919012 C20.3003337,20.7919012 25.8564511,16.4436355 25.8564511,10.6459478 C26.0980214,4.84826013 20.541904,0.499994382 13.2947944,0.499994382 M13.2947944,16.6852058 C8.94652869,16.6852058 5.80611454,14.0279323 5.80611454,10.6459478 C5.80611454,7.26396333 8.94652869,4.60668981 13.2947944,4.60668981 C17.6430602,4.60668981 20.7834743,7.26396333 20.7834743,10.6459478 C20.7834743,14.0279323 17.6430602,16.6852058 13.2947944,16.6852058" id="Shape"></path>
                    <path d="M52.9123268,8.95495556 L42.2832328,8.95495556 L42.2832328,12.8200807 L48.3224908,12.8200807 L48.3224908,14.9942135 C47.1146392,15.7189245 44.9405063,16.4436355 42.2832328,16.4436355 C37.934967,16.4436355 34.7945529,13.786362 34.7945529,10.4043775 C34.7945529,7.02239301 37.934967,4.36511949 42.2832328,4.36511949 C45.1820766,4.36511949 47.5977798,5.08983045 50.2550533,7.26396333 L52.6707565,4.12354917 C50.2550533,1.9494163 46.6314985,0.258424063 42.2832328,0.258424063 C35.2776935,0.258424063 29.7215762,4.60668981 29.7215762,10.4043775 C29.7215762,16.2020651 35.2776935,20.5503309 42.2832328,20.5503309 C46.6314985,20.5503309 50.4966236,18.8593387 52.9123268,16.9267761 L52.9123268,8.95495556" id="Path"></path>
                    <path d="M80.2097729,16.6852058 C75.8615072,16.6852058 72.721093,14.0279323 72.721093,10.6459478 C72.721093,7.26396333 75.8615072,4.60668981 80.2097729,4.60668981 C83.1086168,4.60668981 85.52432,5.33140077 88.1815935,7.50553365 L90.838867,4.36511949 C88.4231638,2.19098662 84.799609,0.499994382 80.4513432,0.499994382 C73.445804,0.499994382 67.8896866,4.84826013 67.8896866,10.6459478 C67.8896866,16.4436355 73.445804,20.7919012 80.4513432,20.7919012 C85.0411793,20.7919012 88.4231638,19.100909 90.838867,16.9267761 L88.1815935,13.786362 C85.52432,15.9604948 83.1086168,16.6852058 80.2097729,16.6852058" id="Path"></path>
                    <path d="M163.551533,12.8200807 C162.343682,12.5785104 160.652689,12.5785104 159.686408,12.33694" id="Path"></path>
                </g>
            </g>
            <path d="M46.8730688,12.3285132 C47.3562095,11.6038022 47.8393501,10.6375209 47.8393501,9.18809901 C47.8393501,5.56454422 44.698936,1.45784879 36.4855451,1.45784879 C32.8619903,1.45784879 28.0305839,2.9072707 25.1317401,4.1151223 C20.541904,6.28925518 16.1936383,8.70495837 10.8790912,8.70495837 C4.83983326,8.70495837 3.14884102,6.5308255 3.14884102,4.83983326 C3.14884102,2.42413007 5.80611454,1.45784879 7.98024741,1.45784879 C9.18809901,1.45784879 10.8790912,1.69941911 12.5700835,2.9072707 C14.7442164,4.1151223 15.952068,5.3229739 17.4014899,5.3229739 C18.6093415,5.3229739 19.3340524,4.83983326 19.8171931,3.63198166 C18.6093415,2.9072707 14.7442164,0.73313783 9.42966933,0.73313783 C2.18255975,0.73313783 0.974708149,5.08140358 0.974708149,7.25553645 C0.974708149,8.22181773 1.21627847,9.42966933 1.94098943,10.6375209 C1.45784879,11.3622319 0.974708149,12.3285132 0.974708149,13.7779351 C0.974708149,17.4014899 4.1151223,21.5081853 12.3285132,21.5081853 C15.952068,21.5081853 20.7834743,20.0587634 23.6823182,18.8509118 C28.2721542,16.6767789 32.62042,14.2610757 37.934967,14.2610757 C43.974225,14.2610757 45.6652172,16.4352086 45.6652172,18.1262008 C45.6652172,20.541904 43.0079437,21.5081853 40.8338109,21.5081853 C39.6259593,21.5081853 37.934967,21.266615 36.2439748,20.0587634 C34.0698419,18.8509118 32.8619903,17.6430602 31.4125684,17.6430602 C30.2047168,17.6430602 29.4800058,18.1262008 28.9968652,19.3340524 C30.2047168,20.0587634 34.0698419,22.2328963 39.3843889,22.2328963 C46.6314985,22.2328963 47.8393501,17.8846305 47.8393501,15.7104976 C48.0809204,14.7442164 47.5977798,13.5363648 46.8730688,12.3285132 Z M37.6933967,8.70495837 C31.895709,8.70495837 27.5474433,11.3622319 22.4744666,13.2947944 C18.6093415,14.7442164 15.4689273,16.1936383 11.6038022,16.1936383 C5.3229739,16.1936383 2.42413007,13.7779351 2.42413007,11.6038022 C2.42413007,11.3622319 2.42413007,11.3622319 2.42413007,11.1206616 C3.87355198,12.8116538 6.77239582,14.2610757 11.1206616,14.2610757 C16.9183492,14.2610757 21.266615,11.6038022 26.3395917,9.67123965 C30.2047168,8.22181773 33.345131,6.77239582 37.2102561,6.77239582 C43.4910844,6.77239582 46.3899282,9.18809901 46.3899282,11.3622319 C46.3899282,11.6038022 46.3899282,11.6038022 46.3899282,11.8453725 C44.9405063,9.91280997 42.2832328,8.70495837 37.6933967,8.70495837 Z" id="Shape" fill="#E71F10"></path>
        </g>
    </g>
</svg>