<?xml version="1.0" encoding="UTF-8"?>
<svg width="44px" height="44px" viewBox="0 0 44 44" version="1.1" xmlns="http://www.w3.org/2000/svg" xmlns:xlink="http://www.w3.org/1999/xlink">
    <!-- Generator: Sketch 58 (84663) - https://sketch.com -->
    <title>ic_a/noc/ic_a_noc_p1_03</title>
    <desc>Created with Sketch.</desc>
    <g id="ic_a/noc/ic_a_noc_p1_03" stroke="none" stroke-width="1" fill="none" fill-rule="evenodd">
        <path d="M22.0000399,14.96875 C25.8770649,14.96875 29.0312787,18.1229688 29.0312787,22 C29.0312787,24.2758594 27.9440929,26.3021875 26.2622206,27.588125 C29.960496,29.2285938 32.5468981,32.9349219 32.5468981,37.234375 L32.5468981,37.234375 L32.5468981,40.828125 C32.5468981,41.4753125 32.0222114,42 31.375025,42 L31.375025,42 L12.6250548,42 C11.9778683,42 11.4531817,41.4753125 11.4531817,40.828125 L11.4531817,40.828125 L11.4531817,37.234375 C11.4531817,32.9349219 14.0395057,29.2285938 17.7378592,27.588125 C16.0559868,26.3021875 14.9688011,24.2757813 14.9688011,22 C14.9688011,18.1229688 18.1230148,14.96875 22.0000399,14.96875 Z M22.0000399,29.03125 C17.4768439,29.03125 13.7969279,32.7111719 13.7969279,37.234375 L13.7969279,37.234375 L13.7969279,39.65625 L30.2031518,39.65625 L30.2031518,37.234375 C30.2031518,32.7111719 26.5232358,29.03125 22.0000399,29.03125 Z M22.0000399,17.3125 C19.4153565,17.3125 17.3125473,19.4153125 17.3125473,22 C17.3125473,24.5847656 19.4153565,26.6875 22.0000399,26.6875 C24.5847233,26.6875 26.6875324,24.5846875 26.6875324,22 C26.6875324,19.4153125 24.5847233,17.3125 22.0000399,17.3125 Z M36.1405642,9.109375 C36.5383917,9.109375 36.905781,9.31079922 37.1206247,9.63869734 L37.186422,9.75257812 L38.3591545,12.0725 L40.992744,12.4461719 C41.4375871,12.5092969 41.8071958,12.8211719 41.9441488,13.2490625 C42.0674767,13.6342344 41.9827995,14.0522492 41.7273075,14.3578766 L41.635868,14.4553906 L39.747121,16.2529687 L40.1916515,18.7839844 C40.2686045,19.2221094 40.0908705,19.6660156 39.7328242,19.93 C39.4144913,20.1645833 39.0024549,20.2210185 38.6369617,20.0880024 L38.5023574,20.0292187 L36.1404861,18.816875 L33.7786149,20.0292187 C33.3828343,20.2322656 32.9062725,20.1939062 32.5481481,19.9299219 C32.2259064,19.6924062 32.0497176,19.3090273 32.073801,18.9153336 L32.0893207,18.7839062 L32.5338512,16.2528906 L30.6451042,14.4553125 C30.319636,14.1455469 30.1999487,13.6769531 30.3369797,13.2490625 C30.4602373,12.8639609 30.7720095,12.572832 31.157365,12.4724391 L31.2883845,12.4461719 L33.921974,12.0725 L35.0947065,9.75257812 C35.2940812,9.358125 35.6985337,9.109375 36.1405642,9.109375 Z M7.85943737,9.109375 C8.25719455,9.109375 8.62457678,9.3108625 8.83947675,9.63871633 L8.90529508,9.75257812 L10.0779495,12.0725 L12.711539,12.4461719 C13.1564602,12.5092969 13.526069,12.8211719 13.6630219,13.2490625 C13.7863498,13.6342344 13.7016726,14.0522492 13.4462375,14.3578196 L13.3548193,14.4553125 L11.4660723,16.2528906 L11.9106809,18.7839062 C11.9875558,19.2220312 11.8098217,19.6659375 11.4517754,19.9299219 C11.133512,20.1645747 10.7214216,20.2210176 10.3559155,20.0880023 L10.2213086,20.0292187 L7.85943737,18.816875 L5.49756613,20.0292187 C5.10194176,20.2323437 4.62522377,20.1939062 4.26709934,19.9299219 C3.94478735,19.6924062 3.76859154,19.3090273 3.79267423,18.9153336 L3.80819382,18.7839062 L4.25280248,16.2528906 L2.36405549,14.4553125 C2.03858726,14.1455469 1.91882182,13.6769531 2.05585286,13.2490625 C2.17918078,12.8639609 2.49089669,12.572832 2.87629717,12.4724391 L3.00733572,12.4461719 L5.64092528,12.0725 L6.81357966,9.75257812 C7.01303247,9.358125 7.41748495,9.109375 7.85943737,9.109375 Z M36.1404861,12.8789844 L35.7378305,13.675625 C35.5842196,13.9795139 35.3071522,14.1996373 34.9810862,14.2826072 L34.85666,14.3071875 L34.0147082,14.4266406 L34.6047073,14.988125 C34.8573458,15.2285417 34.9881326,15.5671682 34.9663957,15.9108359 L34.9510349,16.0397656 L34.8056445,16.8675781 L35.605487,16.4570312 C35.8993635,16.3061621 36.2412111,16.2873035 36.5470803,16.4004553 L36.6757196,16.4570312 L37.4755621,16.8675781 L37.3301717,16.0397656 C37.2698246,15.6962934 37.3658352,15.3462162 37.5875316,15.0827029 L37.6764993,14.988125 L38.266264,14.4266406 L37.4243122,14.3071875 C37.08716,14.2594097 36.789699,14.0677431 36.6063874,13.7855757 L36.5431417,13.675625 L36.1404861,12.8789844 Z M7.85935925,12.8789844 L7.45670364,13.675625 C7.30309277,13.9795139 7.02596358,14.1996373 6.69988385,14.2826072 L6.57545504,14.3071875 L5.73350325,14.4266406 L6.32350231,14.988125 C6.5761408,15.2285417 6.70692763,15.5671682 6.6851907,15.9108359 L6.66982989,16.0397656 L6.52443949,16.8675781 L7.32428197,16.4570312 C7.61829518,16.3060937 7.96004024,16.2872864 8.26593407,16.4004521 L8.39459277,16.4570312 L9.19435712,16.8675781 L9.04896673,16.0397656 C8.9886196,15.6962934 9.08463025,15.3462162 9.30632657,15.0827029 L9.3952943,14.988125 L9.98521524,14.4266406 L9.14326345,14.3071875 C8.80604177,14.2594097 8.5085731,14.0677431 8.32526064,13.7855757 L8.26201485,13.675625 L7.85935925,12.8789844 Z M22.0000399,2 C22.397797,2 22.7651793,2.2014875 22.9800223,2.52939828 L23.0458195,2.64328125 L24.218552,4.96320312 L26.8521415,5.336875 C27.2969846,5.4 27.6665934,5.711875 27.8035463,6.13976562 C27.9268742,6.5249375 27.8422603,6.94295234 27.5868379,7.24852273 L27.4954217,7.34601562 L25.6066748,9.14359375 L26.0512053,11.6746094 C26.1281583,12.1127344 25.9504242,12.5566406 25.5923779,12.820625 C25.2740451,13.0552083 24.8620087,13.1116435 24.4965154,12.9786274 L24.3619111,12.9198437 L22.0000399,11.7075 L19.6381686,12.9198437 C19.2424661,13.1229687 18.7658263,13.0845312 18.4077018,12.8205469 C18.0853898,12.5830312 17.909194,12.1996523 17.9332767,11.8059586 L17.9487963,11.6745312 L18.393405,9.14351562 L16.504658,7.3459375 C16.1791898,7.03617187 16.0594243,6.56757812 16.1964554,6.1396875 C16.3197833,5.75458594 16.6314992,5.46345703 17.0168997,5.36306414 L17.1479382,5.33679687 L19.7815278,4.963125 L20.9541822,2.64320312 C21.153635,2.24875 21.5580874,2 22.0000399,2 Z M21.9999617,5.76960937 L21.5973061,6.56625 C21.4436953,6.87013889 21.1665661,7.09026235 20.8404864,7.17323217 L20.7160575,7.1978125 L19.8740276,7.31726562 L20.4640267,7.87875 C20.7166652,8.11916667 20.847452,8.45779321 20.8257151,8.80146091 L20.8103543,8.93039062 L20.6649639,9.75820312 L21.4648063,9.34765625 C21.7586828,9.19678711 22.1004706,9.17786865 22.4064296,9.29105789 L22.5351171,9.34765625 L23.3348815,9.75820312 L23.1894911,8.93039062 C23.129144,8.5869184 23.2251546,8.23684124 23.4468509,7.97332787 L23.5358187,7.87875 L24.1258177,7.31726562 L23.283866,7.1978125 C22.9466443,7.15003472 22.6491756,6.95836806 22.4658631,6.6762007 L22.4026174,6.56625 L21.9999617,5.76960937 Z" id="Combined-Shape" fill="#FF874D"></path>
    </g>
</svg>