<?xml version="1.0" encoding="UTF-8"?>
<svg width="44px" height="44px" viewBox="0 0 44 44" version="1.1" xmlns="http://www.w3.org/2000/svg" xmlns:xlink="http://www.w3.org/1999/xlink">
    <!-- Generator: Sketch 58 (84663) - https://sketch.com -->
    <title>ic_a/noc/ic_a_noc_p2_02</title>
    <desc>Created with Sketch.</desc>
    <g id="ic_a/noc/ic_a_noc_p2_02" stroke="none" stroke-width="1" fill="none" fill-rule="evenodd">
        <path d="M10.1058199,28.5893079 C14.066072,33.3054289 18.8333502,37.018649 24.2745368,39.6460837 C26.3461813,40.6241194 29.1166937,41.7845006 32.2033608,41.9834231 C32.3947175,41.9917116 32.5777544,42 32.7691111,42 C34.8407555,42 36.504727,41.2871944 37.8608637,39.8201409 C37.8691836,39.8118525 37.8858233,39.7952756 37.8941432,39.7786987 C38.3766949,39.1985081 38.9258055,38.6763365 39.4998756,38.1210112 C39.8909089,37.7480315 40.290262,37.3584749 40.6729755,36.9606299 C42.4451051,35.1205968 42.4451051,32.7832574 40.6563358,31.0012433 L35.6561015,26.0198923 C34.8074761,25.1413179 33.7924535,24.6771654 32.7275118,24.6771654 C31.6625701,24.6771654 30.6392276,25.1413179 29.7656426,26.0116038 L26.7871337,28.9788645 C26.5125784,28.8213842 26.2297033,28.6804807 25.9634678,28.5478657 C25.6306735,28.382097 25.3228388,28.2246167 25.0482835,28.0505595 C22.3360101,26.3348529 19.8733323,24.0969747 17.5188127,21.2208869 C16.3290731,19.7206797 15.5303668,18.4608371 14.9729364,17.1761293 C15.755003,16.4716121 16.4871504,15.7339412 17.1943383,15.0128471 C17.443934,14.7559055 17.7018496,14.4989639 17.9597652,14.2420224 C18.8583097,13.3468711 19.3408615,12.3108164 19.3408615,11.2581848 C19.3408615,10.2055533 18.8666296,9.16949855 17.9597652,8.27434729 L15.4804477,5.80439287 C15.1892527,5.51429755 14.9146974,5.23249068 14.6318222,4.94239536 C14.0827117,4.3787816 13.5086415,3.79859097 12.9428912,3.27641939 C12.0859459,2.43928719 11.0792432,2 10.0143015,2 C8.95767959,2 7.94265701,2.43928719 7.05243228,3.28470783 L3.94080567,6.38458351 C2.80930508,7.51181102 2.16867607,8.87940323 2.03555835,10.4624948 C1.87748106,12.4434314 2.24355478,14.5486946 3.19201851,17.0932449 C4.64799353,21.0302528 6.84443585,24.6854538 10.1058199,28.5893079 Z M4.06560352,10.636552 C4.16544181,9.53418981 4.58975453,8.61417323 5.38846083,7.81848322 L8.48344773,4.73518442 C8.96599945,4.27103191 9.49847032,4.03066722 10.0143015,4.03066722 C10.5218128,4.03066722 11.0376439,4.27103191 11.5118758,4.75176129 C12.0693062,5.26564443 12.5934572,5.80439287 13.1592075,6.37629507 C13.4420827,6.66639039 13.7332777,6.9564857 14.0244727,7.25486946 L16.5037901,9.72482387 C17.0196213,10.238707 17.2858567,10.7608786 17.2858567,11.2747617 C17.2858567,11.7886448 17.0196213,12.3108164 16.5037901,12.8246995 C16.2458746,13.0816411 15.987959,13.3468711 15.7300434,13.6038127 C14.9562967,14.3829258 14.2324691,15.1205968 13.4337628,15.825114 C13.4171231,15.8416908 13.4088032,15.8499793 13.3921635,15.8665562 C12.7016154,16.5544965 12.8097735,17.2092831 12.9761707,17.7065893 C12.9844905,17.7314546 12.9928104,17.7480315 13.0011302,17.7728968 C13.6417592,19.3062578 14.531984,20.7650228 15.9214001,22.5055947 C18.4173573,25.5723166 21.0464322,27.9510982 23.9417425,29.7828429 C24.2994964,30.0149192 24.6822098,30.1972648 25.0399637,30.3796104 C25.372758,30.5453792 25.6805927,30.7028595 25.955148,30.8769167 C25.9884274,30.8934936 26.013387,30.9100705 26.0466664,30.9266473 C26.3212217,31.0675508 26.5874571,31.1338583 26.8536926,31.1338583 C27.5192811,31.1338583 27.9519137,30.7111479 28.0933513,30.5702445 L31.2049779,27.4703688 C31.6875296,26.9896395 32.2116806,26.7326979 32.7275118,26.7326979 C33.3598209,26.7326979 33.8756521,27.1222545 34.2001265,27.4703688 L39.2170005,32.4600083 C40.2153833,33.4546208 40.2070635,34.5321177 39.1920409,35.5847493 C38.8426069,35.957729 38.4765332,36.3141318 38.0854999,36.6871115 C37.5031099,37.2507252 36.8957603,37.8309159 36.3466497,38.4857024 C35.3898661,39.5134687 34.2500457,39.9941981 32.7774309,39.9941981 C32.6359934,39.9941981 32.4862359,39.9859097 32.3447984,39.9776212 C29.6158852,39.803564 27.0783287,38.742644 25.1730814,37.8392043 C19.9981302,35.3443846 15.4554881,31.8052217 11.6865928,27.3128885 C8.58328602,23.59138 6.49500184,20.1268131 5.11390554,16.413593 C4.25696024,14.1342727 3.93248581,12.302528 4.06560352,10.636552 Z" id="Shape" fill="#47D382"></path>
    </g>
</svg>