<?xml version="1.0" encoding="UTF-8"?>
<svg width="44px" height="44px" viewBox="0 0 44 44" version="1.1" xmlns="http://www.w3.org/2000/svg" xmlns:xlink="http://www.w3.org/1999/xlink">
    <!-- Generator: Sketch 58 (84663) - https://sketch.com -->
    <title>ic_a/noc/ic_a_noc_p1_06</title>
    <desc>Created with Sketch.</desc>
    <g id="ic_a/noc/ic_a_noc_p1_06" stroke="none" stroke-width="1" fill="none" fill-rule="evenodd">
        <path d="M19.8580428,6.29141298 C20.4880302,6.29141298 20.9920202,6.79529708 20.9920202,7.42515221 L20.9920202,7.42515221 L20.9920202,23.0119672 L36.5821084,23.0119672 C37.2036959,23.0119672 37.7160857,23.5242494 37.7160857,24.1457065 C37.7160857,33.9882427 29.7026459,42 19.8580428,42 C10.0134397,42 2,33.9882427 2,24.1457065 C2,14.3031703 10.0134397,6.29141298 19.8580428,6.29141298 Z M18.7240655,8.6008818 C10.651827,9.18034852 4.26795464,15.9323955 4.26795464,24.1457065 C4.26795464,32.7369305 11.2650147,39.7325215 19.8580428,39.7325215 C28.0730785,39.7325215 34.8265435,33.3499895 35.4061319,25.2794457 L35.4061319,25.2794457 L19.8580428,25.2794457 C19.2280554,25.2794457 18.7240655,24.7755616 18.7240655,24.1457065 L18.7240655,24.1457065 Z M24.1419572,2 C29.2658547,2 34.1377572,4.20029393 37.5312894,8.03821121 C40.3956321,11.2882637 41.9832003,15.4621037 42,19.795507 L42,19.795507 L42,19.8542935 C42,20.4841486 41.4960101,20.9880328 40.8660227,20.9880328 L40.8660227,20.9880328 L24.1419572,20.9880328 C23.5119698,20.9880328 23.0079798,20.4841486 23.0079798,19.8542935 L23.0079798,19.8542935 L23.0079798,3.13373924 C23.0079798,2.50388411 23.5119698,2 24.1419572,2 Z M25.2759345,4.31786689 L25.2759345,18.7289523 L39.6900462,18.7289523 C39.4380512,15.3361327 38.0940781,12.1112744 35.8261235,9.54986353 C33.1213776,6.48456855 29.3246535,4.61179929 25.2759345,4.31786689 L25.2759345,4.31786689 Z" id="Combined-Shape" fill="#FF874D"></path>
    </g>
</svg>