<?xml version="1.0" encoding="UTF-8"?>
<svg width="44px" height="44px" viewBox="0 0 44 44" version="1.1" xmlns="http://www.w3.org/2000/svg" xmlns:xlink="http://www.w3.org/1999/xlink">
    <!-- Generator: Sketch 58 (84663) - https://sketch.com -->
    <title>ic_a/noc/ic_a_noc_p3_01</title>
    <desc>Created with Sketch.</desc>
    <g id="ic_a/noc/ic_a_noc_p3_01" stroke="none" stroke-width="1" fill="none" fill-rule="evenodd">
        <path d="M35.5681526,3 C36.1628804,3 36.6386627,3.47470331 36.6386627,4.06808245 L36.6386627,4.06808245 L36.6386627,12.5652717 C39.1285898,13.0637102 41,15.2473454 41,17.8740371 C41,20.5007287 39.1206601,22.6922757 36.6386627,23.1907141 L36.6386627,23.1907141 L36.6386627,39.9319176 C36.6386627,40.5252967 36.1628804,41 35.5681526,41 C34.9734248,41 34.4976425,40.5252967 34.4976425,39.9319176 L34.4976425,39.9319176 L34.4976425,23.1986259 C32.0156451,22.7001874 30.1363052,20.5086404 30.1363052,17.8819488 C30.1363052,15.2552571 32.0156451,13.0637102 34.4976425,12.5652717 L34.4976425,12.5652717 L34.4976425,4.06808245 C34.4976425,3.47470331 34.9734248,3 35.5681526,3 Z M22.5396485,3 C23.0947278,3 23.5461923,3.41351933 23.6039206,3.95109445 L23.6101586,4.06808245 L23.6101586,21.5213408 C26.1000857,22.0197793 27.9714959,24.219238 27.9714959,26.8380179 C27.9714959,29.3851128 26.2043297,31.5230359 23.834099,32.1047532 L23.6101586,32.154695 L23.6101586,39.9240058 C23.6101586,40.517385 23.1343763,40.9920883 22.5396485,40.9920883 C21.9845692,40.9920883 21.5331047,40.5785689 21.4753765,40.0409938 L21.4691384,39.9240058 L21.4691384,32.154695 C18.987141,31.6562565 17.1078011,29.4647096 17.1078011,26.8380179 C17.1078011,24.290923 18.8749674,22.1529999 21.2451981,21.5712826 L21.4691384,21.5213408 L21.4691384,4.06808245 C21.4691384,3.47470331 21.9449207,3 22.5396485,3 Z M9.43184741,3 C9.9869267,3 10.4383912,3.41351933 10.4961194,3.95109445 L10.5023575,4.06808245 L10.5023575,12.5652717 C12.9843549,13.0637102 14.8636948,15.2473454 14.8636948,17.8740371 C14.8636948,20.421132 13.0965285,22.5590551 10.7262979,23.1407723 L10.5023575,23.1907141 L10.5023575,39.9240058 C10.5023575,40.517385 10.0265752,40.9920883 9.43184741,40.9920883 C8.87676811,40.9920883 8.42530361,40.5785689 8.36757537,40.0409938 L8.36133733,39.9240058 L8.36133733,23.1986259 C5.87933991,22.7001874 4,20.5086404 4,17.8819488 C4,15.3348538 5.76716627,13.1969308 8.13739694,12.6152135 L8.36133733,12.5652717 L8.36133733,4.06808245 C8.36133733,3.47470331 8.83711959,3 9.43184741,3 Z M22.5396485,23.5546533 C20.7237462,23.5546533 19.2488213,25.0262336 19.2488213,26.8380179 C19.2488213,28.6498022 20.7237462,30.1213825 22.5396485,30.1213825 C24.3555508,30.1213825 25.8304758,28.6498022 25.8304758,26.8380179 C25.8304758,25.0262336 24.3555508,23.5546533 22.5396485,23.5546533 Z M9.43184741,14.5985842 C7.61594514,14.5985842 6.14102015,16.0701645 6.14102015,17.8819488 C6.14102015,19.6937331 7.61594514,21.1653133 9.43184741,21.1653133 C11.23982,21.1653133 12.7226747,19.6937331 12.7226747,17.8819488 C12.7226747,16.0701645 11.2477497,14.5985842 9.43184741,14.5985842 Z M35.5681526,14.5985842 C33.7522503,14.5985842 32.2773253,16.0701645 32.2773253,17.8819488 C32.2773253,19.6937331 33.7522503,21.1653133 35.5681526,21.1653133 C37.3840549,21.1653133 38.8589799,19.6937331 38.8589799,17.8819488 C38.8589799,16.0701645 37.3840549,14.5985842 35.5681526,14.5985842 Z" id="Combined-Shape" fill="#209CFF"></path>
    </g>
</svg>