<?xml version="1.0" encoding="UTF-8"?>
<svg width="44px" height="44px" viewBox="0 0 44 44" version="1.1" xmlns="http://www.w3.org/2000/svg" xmlns:xlink="http://www.w3.org/1999/xlink">
    <!-- Generator: Sketch 58 (84663) - https://sketch.com -->
    <title>ic_a/noc/ic_a_noc_p1_08</title>
    <desc>Created with Sketch.</desc>
    <g id="ic_a/noc/ic_a_noc_p1_08" stroke="none" stroke-width="1" fill="none" fill-rule="evenodd">
        <path d="M40.2294462,6 C41.1569616,6 41.9201225,6.72115061 41.9941199,7.63543084 L42,7.78131885 L42,11.7705614 C42,12.7036337 41.2831443,13.4715089 40.3743091,13.5459637 L40.22929,13.5518802 L39.8449916,13.5518802 L39.8449916,36.2186812 C39.8449916,37.1517535 39.1281359,37.9196286 38.2193007,37.9940835 L38.0742815,38 L5.92571846,38 C4.99820312,38 4.23490111,37.2788494 4.1608897,36.3645692 L4.15500842,36.2186812 L4.15500842,13.5518802 L3.77071004,13.5518802 C2.8431947,13.5518802 2.07989269,12.8307296 2.00588128,11.9164494 L2,11.7705614 L2,7.78131885 C2,6.84817184 2.71692624,6.08036389 3.62570146,6.00591596 L3.77071004,6 L40.2294462,6 Z M38.0744378,13.5518802 L5.92579659,13.5518802 L5.92579659,36.2186812 L38.0752386,36.2186812 L38.0744378,13.5518802 Z M22.0000781,20.363961 C23.5692333,20.363961 24.8563095,21.6023715 24.946242,23.1587156 L24.9512615,23.3329043 L24.9512615,25.2723531 C26.0205352,25.5324814 26.8309738,26.467159 26.9093444,27.6018678 L26.9155661,27.7826255 L26.9155661,30.8438374 C26.9155661,32.2132514 25.850661,33.3372791 24.5101159,33.421717 L24.3479779,33.4268087 L19.6522565,33.4268087 C18.290923,33.4268087 17.1736589,32.3554508 17.0897293,31.0069384 L17.0846683,30.8438374 L17.0846683,27.7826255 C17.0846683,26.6282499 17.8415726,25.648789 18.8822156,25.318963 L19.0488166,25.2723531 L19.0488166,23.3329043 C19.0488166,21.6958043 20.3728061,20.363961 22.0000781,20.363961 Z M24.3479779,26.8028019 L19.6522565,26.8028019 C19.1536552,26.8028019 18.7412787,27.1818212 18.6849117,27.668459 L18.6783464,27.7825469 L18.6783464,30.8437588 C18.6783464,31.3454933 19.0551085,31.7602153 19.538848,31.8169015 L19.6522565,31.8235038 L24.3479779,31.8235038 C24.8465792,31.8235038 25.2589557,31.4445522 25.3153227,30.9578612 L25.321888,30.8437588 L25.321888,27.7825469 C25.321888,27.2423746 24.8849331,26.8028019 24.3479779,26.8028019 Z M22.0000781,21.9671873 C21.2955165,21.9671873 20.7146233,22.5098677 20.6487208,23.2015616 L20.6424166,23.3329043 L20.6424166,25.1996542 L23.3575834,25.1996542 L23.3575834,23.3329043 C23.3575834,22.5799012 22.7486748,21.9671873 22.0000781,21.9671873 Z M13.0400431,19.7449596 C13.480123,19.7449596 13.836765,20.1038169 13.836765,20.5465334 C13.836765,20.9892499 13.4800448,21.3481073 13.039965,21.3481073 L13.039965,21.3481073 L9.18893433,21.3481073 C8.74885449,21.3481073 8.39213434,20.9892499 8.39213434,20.5465334 C8.39213434,20.1038169 8.74885449,19.7449596 9.18893433,19.7449596 L9.18893433,19.7449596 Z M9.18893433,16.2381232 L16.8911519,16.2381232 C17.3313099,16.2381232 17.6879519,16.5969805 17.6879519,17.039697 C17.6879519,17.4482858 17.384001,17.7855547 16.9911661,17.8350245 L16.89123,17.8412709 L9.18893433,17.8412709 C8.74885449,17.8412709 8.39213434,17.4824135 8.39213434,17.039697 C8.39213434,16.6310357 8.69608524,16.2938282 9.08898163,16.2443683 L9.18893433,16.2381232 L16.8911519,16.2381232 Z M40.2294462,7.78131885 L3.77071004,7.78131885 L3.77071004,11.7704828 L40.2306181,11.7704042 L40.2294462,7.78131885 Z" id="Combined-Shape" fill="#209CFF"></path>
    </g>
</svg>