<?xml version="1.0" encoding="UTF-8"?>
<svg width="44px" height="44px" viewBox="0 0 44 44" version="1.1" xmlns="http://www.w3.org/2000/svg" xmlns:xlink="http://www.w3.org/1999/xlink">
    <!-- Generator: Sketch 58 (84663) - https://sketch.com -->
    <title>ic_a/noc/ic_a_noc_p1_02</title>
    <desc>Created with Sketch.</desc>
    <g id="ic_a/noc/ic_a_noc_p1_02" stroke="none" stroke-width="1" fill="none" fill-rule="evenodd">
        <path d="M28.1565635,2 C31.3389862,2 33.9437069,4.53363594 34.0604595,7.68970416 L34.0645443,7.91088083 L34.0645443,10.1989637 L35.0920192,10.1989637 C38.274442,10.1989637 40.8791626,12.7325997 40.9959152,15.8886679 L41,16.1098446 L41,25.6435233 C41,28.8275082 38.4676071,31.4335075 35.3130873,31.5503174 L35.0920192,31.5544041 L34.0562582,31.5544041 L34.0562582,39.0487047 C34.0562582,40.615544 32.8234912,41.9048747 31.2792304,41.9949712 L31.1064108,42 L12.78587,42 C11.2197994,42 9.93110131,40.7666279 9.84104899,39.2216091 L9.83602268,39.0487047 L9.83602268,31.5544041 L8.90798081,31.5544041 C5.72555802,31.5544041 3.12083736,29.0207682 3.00408478,25.8647 L3,25.6435233 L3,16.1098446 C3,12.9258596 5.53239287,10.3198604 8.68691266,10.2030505 L8.90798081,10.1989637 L9.84430877,10.1989637 L9.84430877,7.91088083 C9.84430877,4.7268959 12.3767016,2.12089667 15.5312214,2.00408678 L15.7522896,2 L28.1565635,2 Z M31.8190144,26.7046632 L12.0732665,26.7046632 L12.0732665,39.065285 C12.0732665,39.4224525 12.3448085,39.7238918 12.6900382,39.7716513 L12.78587,39.7782383 L31.1064108,39.7782383 C31.4634031,39.7782383 31.7646945,39.506563 31.8124306,39.1611639 L31.8190144,39.065285 L31.8190144,26.7046632 Z M14.8656782,34.5471503 L29.1177497,34.5471503 C29.7309202,34.5471503 30.2280855,35.0445596 30.2280855,35.6663212 C30.2280855,36.2466321 29.7949993,36.7186183 29.2319872,36.7789706 L29.1094636,36.7854922 L14.8656782,36.7854922 C14.2442215,36.7854922 13.7470563,36.2880829 13.7470563,35.6663212 C13.7470563,35.0860104 14.1801425,34.6140242 14.7431545,34.5536718 L14.8656782,34.5471503 L29.1177497,34.5471503 Z M29.0266027,29.9709845 C29.6480593,29.9709845 30.1452246,30.4683938 30.1452246,31.0901554 C30.1452246,31.6704663 29.7121384,32.1424525 29.1491263,32.2028048 L29.0266027,32.2093264 L14.7828173,32.2093264 C14.1696468,32.2093264 13.6641954,31.7119171 13.6641954,31.0901554 C13.6641954,30.5098446 14.0972816,30.0378584 14.6602936,29.977506 L14.7828173,29.9709845 L29.0266027,29.9709845 Z M35.0920192,12.4455959 L8.90798081,12.4455959 C6.95139485,12.4455959 5.34401447,13.9906186 5.2423485,15.9235875 L5.23724379,16.1181347 L5.23724379,25.6518135 C5.23724379,27.6093599 6.78150849,29.2175292 8.71352907,29.3192451 L8.90798081,29.3243523 L9.84430877,29.3243523 L9.84430877,26.7046632 L8.19537724,26.7046632 C7.57392063,26.7046632 7.07675534,26.2072539 7.07675534,25.5854922 C7.07675534,25.0051813 7.50984155,24.5331952 8.07285361,24.4728428 L8.19537724,24.4663212 L35.5394679,24.4663212 C36.1609246,24.4663212 36.6580898,24.9637306 36.6580898,25.5854922 C36.6580898,26.1658031 36.2250036,26.6377893 35.6619916,26.6981416 L35.5394679,26.7046632 L34.0645443,26.7046632 L34.0645443,29.3243523 L35.0920192,29.3243523 C37.0486052,29.3243523 38.6559855,27.7793296 38.7576515,25.8463607 L38.7627562,25.6518135 L38.7627562,16.1181347 C38.7627562,14.0953368 37.1138247,12.4455959 35.0920192,12.4455959 Z M35.0671609,14.5927461 C35.6886175,14.5927461 36.1857828,15.0901554 36.1857828,15.7119171 C36.1857828,16.3336788 35.6886175,16.8310881 35.0671609,16.8310881 L35.0671609,16.8310881 L32.7967728,16.8310881 C32.1753162,16.8310881 31.6781509,16.3336788 31.6781509,15.7119171 C31.6781509,15.0901554 32.1753162,14.5927461 32.7967728,14.5927461 L32.7967728,14.5927461 Z M28.1399913,4.23834197 L15.7440035,4.23834197 C13.7874175,4.23834197 12.1800371,5.78336469 12.0783712,7.71633364 L12.0732665,7.91088083 L12.0732665,10.1989637 L31.8107283,10.1989637 L31.8107283,7.91088083 C31.8107283,5.8880829 30.1617968,4.23834197 28.1399913,4.23834197 Z" id="Combined-Shape" fill="#47D382"></path>
    </g>
</svg>