<?xml version="1.0" encoding="UTF-8"?>
<svg width="80px" height="80px" viewBox="0 0 80 80" version="1.1" xmlns="http://www.w3.org/2000/svg" xmlns:xlink="http://www.w3.org/1999/xlink">
    <!-- Generator: Sketch 59.1 (86144) - https://sketch.com -->
    <title>ic/cat_c/ic_cat_c_03</title>
    <desc>Created with Sketch.</desc>
    <g id="ic/cat_c/ic_cat_c_03" stroke="none" stroke-width="1" fill="none" fill-rule="evenodd">
        <path d="M55.3399234,53.5434672 C60.8335956,53.5130034 65.4147979,49.3654461 65.9486864,43.9389027 C66.4825749,38.5123594 62.7963079,33.5636252 57.4123393,32.4790403 C56.0063917,25.0018868 49.9518674,19.247664 42.3641406,18.1772252 C34.7764137,17.1067864 27.3460519,20.9586283 23.8963707,27.7507738 C17.346732,28.86079 12.671409,34.6609959 13.0180797,41.2463821 C13.3647504,47.8317684 18.6236306,53.1168673 25.2541605,53.5434672 C25.7539113,53.5744651 26.2551247,53.5744651 26.7548755,53.5434672 L37.4742685,53.5434672 L37.4742685,58.2717336 L18.4175699,58.2717336 C17.1019794,58.2717336 16.0354826,59.3301921 16.0354826,60.6358668 C16.0354826,61.9415415 17.1019794,63 18.4175699,63 L61.2951417,63 C62.6107322,63 63.677229,61.9415415 63.677229,60.6358668 C63.677229,59.3301921 62.6107322,58.2717336 61.2951417,58.2717336 L42.2384431,58.2717336 L42.2384431,53.5434672 L55.3399234,53.5434672 Z" id="Path" fill="#209CFF"></path>
    </g>
</svg>