<?xml version="1.0" encoding="UTF-8"?>
<svg width="80px" height="80px" viewBox="0 0 80 80" version="1.1" xmlns="http://www.w3.org/2000/svg" xmlns:xlink="http://www.w3.org/1999/xlink">
    <!-- Generator: Sketch 59.1 (86144) - https://sketch.com -->
    <title>ic/cat_d/ic_cat_d_10</title>
    <desc>Created with Sketch.</desc>
    <g id="ic/cat_d/ic_cat_d_10" stroke="none" stroke-width="1" fill="none" fill-rule="evenodd">
        <path d="M40.6242736,16 C42.1126896,16 43.3193551,17.2066655 43.3192575,18.6950814 L43.3192575,18.6950814 L43.3192575,20.1798852 C46.3941066,20.6909608 49.2330897,21.8991883 51.667508,23.6382119 L51.667508,23.6382119 L52.7177756,22.588042 C53.7702885,21.535529 55.4768025,21.535529 56.5292178,22.588042 L56.5292178,22.588042 L57.4118604,23.4706845 C58.4643734,24.5231975 58.4643734,26.2297115 57.4118604,27.2822244 L57.4118604,27.2822244 L56.3616905,28.3323944 C58.1009094,30.7668126 59.3090392,33.6057958 59.8201148,36.6806449 L59.8201148,36.6806449 L61.3049186,36.6806449 C62.7934322,36.6806449 64,37.8873104 64,39.375824 L64,39.375824 L64,40.6240784 C64,42.1126896 62.7933345,43.3192575 61.3050162,43.3192575 L61.3050162,43.3192575 L59.8201148,43.3192575 C59.3089416,46.3941066 58.1007141,49.2330897 56.3616905,51.667508 L56.3616905,51.667508 L57.4118604,52.7177756 C58.4643734,53.7701909 58.4643734,55.4768025 57.4118604,56.5292178 L57.4118604,56.5292178 L56.5292178,57.4118604 C55.4768025,58.4643734 53.7702885,58.4643734 52.7177756,57.4118604 L52.7177756,57.4118604 L51.667508,56.3616905 C49.2330897,58.1009094 46.3941066,59.3091368 43.3192575,59.8201148 L43.3192575,59.8201148 L43.3192575,61.3048209 C43.3192575,62.7933345 42.1126896,64 40.6242736,64 L40.6242736,64 L39.375824,64 C37.887408,64 36.6807425,62.7933345 36.6807425,61.3048209 L36.6807425,61.3048209 L36.6807425,59.8201148 C33.605991,59.3089416 30.7669103,58.1007141 28.332492,56.3616905 L28.332492,56.3616905 L27.2822244,57.4118604 C26.2298091,58.4643734 24.5231975,58.4643734 23.4707822,57.4118604 L23.4707822,57.4118604 L22.5881396,56.5292178 C21.5356266,55.4768025 21.5356266,53.7701909 22.5881396,52.7177756 L22.5881396,52.7177756 L23.6383095,51.667508 C21.8991883,49.2330897 20.6910584,46.3941066 20.1798852,43.3192575 L20.1798852,43.3192575 L18.6950814,43.3192575 C17.2066655,43.3192575 16,42.1126896 16,40.6240784 L16,40.6240784 L16,39.375824 C16,37.8873104 17.2066655,36.6806449 18.6950814,36.6806449 L18.6950814,36.6806449 L20.1798852,36.6806449 C20.691156,33.6057958 21.8992859,30.7668126 23.6383095,28.3323944 L23.6383095,28.3323944 L22.5881396,27.2822244 C21.5356266,26.2297115 21.5356266,24.5231975 22.5881396,23.4706845 L22.5881396,23.4706845 L23.4707822,22.588042 C24.5231975,21.535529 26.2298091,21.535529 27.2822244,22.588042 L27.2822244,22.588042 L28.332492,23.6383095 C30.7669103,21.8991883 33.605991,20.6910584 36.6807425,20.1798852 L36.6807425,20.1798852 L36.6807425,18.6950814 C36.6807425,17.2065678 37.887408,16 39.3759216,16 L39.3759216,16 Z M40.0000488,27.3249849 C32.9999247,27.3249849 27.3250825,32.9997295 27.3250825,39.9999512 C27.3250825,47.0001729 32.9999247,52.6749175 40.0000488,52.6749175 C47.0003681,52.6749175 52.6750151,47.0001729 52.6750151,39.9999512 C52.6750151,32.9997295 47.0003681,27.3249849 40.0000488,27.3249849 Z M40.0000488,32.9873309 C43.873012,32.9873309 47.0126691,36.126988 47.0126691,39.9999512 C47.0126691,43.8729144 43.873012,47.0125715 40.0000488,47.0125715 C36.1270856,47.0125715 32.9874285,43.8729144 32.9874285,39.9999512 C32.9874285,36.126988 36.1270856,32.9873309 40.0000488,32.9873309 Z" id="Combined-Shape" fill="#209CFF"></path>
    </g>
</svg>