<?xml version="1.0" encoding="UTF-8"?>
<svg width="80px" height="80px" viewBox="0 0 80 80" version="1.1" xmlns="http://www.w3.org/2000/svg" xmlns:xlink="http://www.w3.org/1999/xlink">
    <!-- Generator: Sketch 59.1 (86144) - https://sketch.com -->
    <title>ic/cat_f/ic_cat_f_05</title>
    <desc>Created with Sketch.</desc>
    <g id="ic/cat_f/ic_cat_f_05" stroke="none" stroke-width="1" fill="none" fill-rule="evenodd">
        <path d="M23.0407682,28.428594 C23.7676854,28.428594 24.4517603,28.7130124 24.9667066,29.2290388 L24.9667066,29.2290388 L30.2213149,34.4998391 C30.8019246,35.0828617 31.0879592,35.8875201 31.005915,36.7073475 C30.8582075,38.1780366 30.2942587,39.5575713 29.3765118,40.6945428 C29.1097982,41.0226423 29.1089581,41.4993416 29.3727316,41.8260366 C31.9550235,45.0488837 34.8933535,47.9985486 38.1090378,50.5952538 C38.2662658,50.7208193 38.4646559,50.7900629 38.6676663,50.7900629 C38.8750169,50.7900629 39.0764872,50.7187125 39.2323151,50.5908998 C40.3686132,49.6676986 41.7446034,49.1012495 43.2114583,48.9525091 C44.0422608,48.8687988 44.8331612,49.1593972 45.4115307,49.7396108 L45.4115307,49.7396108 L50.6664191,55.0105516 C51.2454886,55.5920293 51.5318033,56.3935977 51.4517192,57.2100541 C51.2830106,58.9369305 50.5133912,60.5667535 49.2853885,61.7990929 C47.8910573,63.1978698 45.945798,64 43.948176,64 C42.6914718,64 41.4489083,63.6835582 40.3530724,63.0838215 C30.9238708,57.9567052 21.0404861,47.1165004 16.9308562,39.5956342 C15.3174138,36.6765881 15.8396405,32.983643 18.2005811,30.6147535 C19.4284438,29.382695 21.0529467,28.6109027 22.7736346,28.4416562 C22.8630992,28.4329481 22.9531238,28.428594 23.0407682,28.428594 Z M42.3723955,16 C54.2979245,16 64,25.73315 64,37.6968427 C64,44.8682604 60.5068216,51.436711 54.8205712,55.4448339 C54.5520375,54.345504 53.9883687,53.3277776 53.1672268,52.5034557 L53.1672268,52.5034557 L52.6571807,51.9917835 C57.1739514,48.7253958 59.9397926,43.4493987 59.9397926,37.6968427 C59.9397926,27.9791426 52.0590702,20.0731529 42.3723955,20.0731529 C36.6665441,20.0731529 31.3899546,22.8560995 28.126948,27.3833387 L28.126948,27.3833387 L27.4665343,26.7208193 C26.698455,25.9509934 25.7662874,25.4074382 24.7502555,25.1195084 C28.7595003,19.4753826 35.2978342,16 42.3723955,16 Z M43.2143985,23.3211412 C43.987518,23.3211412 44.61447,23.9499517 44.61447,24.7256767 L44.61447,24.7256767 L44.61447,34.8383321 L53.9194852,34.8383321 C54.6926047,34.8383321 55.3195567,35.4671426 55.3195567,36.2428676 C55.3195567,37.0185925 54.6926047,37.6474031 53.9194852,37.6474031 L53.9194852,37.6474031 L43.2143985,37.6474031 C42.441139,37.6474031 41.814327,37.0185925 41.814327,36.2428676 L41.814327,36.2428676 L41.814327,24.7256767 C41.814327,23.9499517 42.441139,23.3211412 43.2143985,23.3211412 Z" id="Combined-Shape" fill="#209CFF"></path>
    </g>
</svg>