<?xml version="1.0" encoding="UTF-8"?>
<svg width="80px" height="80px" viewBox="0 0 80 80" version="1.1" xmlns="http://www.w3.org/2000/svg" xmlns:xlink="http://www.w3.org/1999/xlink">
    <!-- Generator: Sketch 63.1 (92452) - https://sketch.com -->
    <title>ic/cat_f/ic_cat_f_11</title>
    <desc>Created with Sketch.</desc>
    <g id="ic/cat_f/ic_cat_f_11" stroke="none" stroke-width="1" fill="none" fill-rule="evenodd">
        <path d="M66.8540257,38.8499677 L41.6458132,38.8499677 L41.6458132,33.1000216 L48.5207998,33.1000216 C49.1541579,33.1000216 49.6666667,32.5856497 49.6666667,31.9499892 L49.6666667,18.1500323 C49.6666667,17.5143718 49.1541579,17 48.5207998,17 L32.4790928,17 C31.8457347,17 31.3332259,17.5143718 31.3332259,18.1500323 L31.3332259,31.9499892 C31.3332259,32.5856497 31.8457347,33.1000216 32.4790928,33.1000216 L39.3540794,33.1000216 L39.3540794,38.8499677 L14.1458669,38.8499677 C13.5125088,38.8499677 13,39.3643395 13,40 C13,40.6356605 13.5125088,41.1500323 14.1458669,41.1500323 L25.6042137,41.1500323 L25.6042137,46.8999784 L18.7292271,46.8999784 C18.095869,46.8999784 17.5833602,47.4143503 17.5833602,48.0500108 L17.5833602,61.8499677 C17.5833602,62.4856282 18.095869,63 18.7292271,63 L34.7708266,63 C35.4041848,63 35.9166935,62.4856282 35.9166935,61.8499677 L35.9166935,48.0500108 C35.9166935,47.4143503 35.4041848,46.8999784 34.7708266,46.8999784 L27.89584,46.8999784 L27.89584,41.1500323 L53.10416,41.1500323 L53.10416,46.8999784 L46.2291734,46.8999784 C45.5958152,46.8999784 45.0833065,47.4143503 45.0833065,48.0500108 L45.0833065,61.8499677 C45.0833065,62.4856282 45.5958152,63 46.2291734,63 L62.2707729,63 C62.904131,63 63.4166398,62.4856282 63.4166398,61.8499677 L63.4166398,48.0500108 C63.4166398,47.4143503 62.904131,46.8999784 62.2707729,46.8999784 L55.3957863,46.8999784 L55.3957863,41.1500323 L66.8541331,41.1500323 C67.4874912,41.1500323 68,40.6356605 68,40 C68,39.3643395 67.4873838,38.8499677 66.8540257,38.8499677 Z" id="Path" fill="#209CFF"></path>
    </g>
</svg>