<?xml version="1.0" encoding="UTF-8"?>
<svg width="80px" height="80px" viewBox="0 0 80 80" version="1.1" xmlns="http://www.w3.org/2000/svg" xmlns:xlink="http://www.w3.org/1999/xlink">
    <!-- Generator: Sketch 63.1 (92452) - https://sketch.com -->
    <title>ic/cat_g/ic_cat_g_01</title>
    <desc>Created with Sketch.</desc>
    <g id="ic/cat_g/ic_cat_g_01" stroke="none" stroke-width="1" fill="none" fill-rule="evenodd">
        <path d="M31.25222,17.0000026 C32.9534713,16.9978409 34.3363685,18.3350697 34.334669,19.9773004 L34.334669,19.9773004 L34.3244237,28.2431914 C34.3215732,29.8865765 32.9380307,31.2273298 31.2367794,31.2294915 L31.2367794,31.2294915 L29.8661666,31.2318929 L27.0821017,31.2329773 C27.027382,31.4336093 26.9668288,31.6419356 26.9045035,31.8584897 C26.3190927,33.905444 25.5155461,36.7079543 25.5114911,40.506026 C25.5058373,44.29449 26.3012271,47.0914954 26.8834036,49.1340494 C26.945769,49.3574576 27.0057716,49.5692602 27.0644035,49.773223 L27.0644035,49.773223 L31.2152499,49.7689728 C32.913972,49.7667371 34.2962568,51.1033515 34.2976989,52.7462705 L34.2976989,52.7462705 L34.287914,61.0116998 C34.2833763,62.6560093 32.8983781,63.9962261 31.1990412,64 L31.1990412,64 L28.8708758,63.9781191 L28.8680942,63.9300747 C27.9832164,63.8227606 27.0860039,63.5753152 26.2346128,63.2018946 C25.4434356,62.8530061 24.7430093,62.4313666 24.0882159,61.9151176 C23.7911885,61.674448 16.9830705,56.0185546 17.0000316,40.5093064 C17.0127671,29.2889845 19.080625,23.0851137 24.1391244,19.1013377 C24.7656347,18.6002396 25.4663256,18.1758566 26.2780844,17.8088508 C27.138524,17.4309503 28.0371401,17.1815434 28.9234114,17.0727571 L28.9234114,17.0727571 L28.923253,17.0093344 Z M60.8645019,25.6240253 C69.045821,33.830074 69.044511,47.1111148 60.8645019,55.3157675 C54.5650343,61.6344031 45.2658495,63.0869758 37.5870566,59.6751728 L37.5873061,52.7765987 C37.5873061,49.3848462 34.8988488,46.6210167 31.536679,46.4998548 L31.3064198,46.4957124 L29.4953667,46.4956713 C28.9008153,44.7131671 28.6035397,42.9197395 28.6035397,41.1153884 C28.6035397,39.3487322 28.8885243,37.3677028 29.4584935,35.1723003 L29.606923,34.6189835 L29.6659834,34.4083745 L31.3064198,34.4089047 C34.6981722,34.4089047 37.4620018,31.7204474 37.5831637,28.3582776 L37.5873061,28.1280185 L37.586675,21.2647447 C45.2661564,17.8524453 54.5657063,19.3060638 60.8645019,25.6240253 Z M46.0637893,27.3582273 C45.1642307,27.3582273 44.4260328,28.0511821 44.3508196,28.9339414 L44.3445088,29.0827391 L44.3445088,30.2329064 C43.2692216,30.5489027 42.3391728,31.1473083 41.6158469,31.9240778 C38.8872532,34.8523157 39.8987378,39.61139 43.5044618,41.268744 L43.7113223,41.3592107 L47.1004335,42.7672336 C48.679388,43.4232872 49.1724121,45.497875 47.9256882,46.73706 C46.280173,48.3707476 43.4165885,47.2204982 43.4165885,44.8496228 C43.4165885,43.8971995 42.6468421,43.1251109 41.6973081,43.1251109 C40.747774,43.1251109 39.9780276,43.8971995 39.9780276,44.8496228 C39.9780276,47.4631168 41.6482688,49.8003246 44.1112288,50.6296505 L44.3444269,50.7029446 L44.3444269,51.8572179 C44.3444269,52.8096412 45.1141734,53.5817298 46.0637074,53.5817298 C46.963266,53.5817298 47.7014639,52.8887749 47.7766771,52.0060156 L47.7829879,51.8572179 L47.7829879,50.7005631 C48.7913868,50.4056716 49.7391197,49.8457801 50.5177901,49.0092276 C53.2397143,46.0796195 52.2250305,41.3267692 48.6228283,39.6711213 L48.4161743,39.5807463 L45.0270631,38.1727234 C43.4549039,37.5194619 42.992745,35.4973485 44.1282888,34.2787756 C45.761114,32.52429 48.7109081,33.6885819 48.7109081,36.0902521 C48.7109081,37.0426754 49.4806546,37.814764 50.4301886,37.814764 C51.3797227,37.814764 52.1494691,37.0426754 52.1494691,36.0902521 C52.1494691,33.4070808 50.4140226,31.1241309 48.0103402,30.3078914 L47.7830698,30.2356985 L47.7830698,29.0827391 C47.7830698,28.1303159 47.0133233,27.3582273 46.0637893,27.3582273 Z" id="Combined-Shape" fill="#209CFF"></path>
    </g>
</svg>