<?xml version="1.0" encoding="UTF-8"?>
<svg width="44px" height="44px" viewBox="0 0 44 44" version="1.1" xmlns="http://www.w3.org/2000/svg" xmlns:xlink="http://www.w3.org/1999/xlink">
    <title>ic_a/cdn/ic_a_cdn_p3_05</title>
    <defs>
        <filter color-interpolation-filters="auto" id="filter-1">
            <feColorMatrix in="SourceGraphic" type="matrix" values="0 0 0 0 1.000000 0 0 0 0 0.529412 0 0 0 0 0.301961 0 0 0 1.000000 0"></feColorMatrix>
        </filter>
    </defs>
    <g id="ic_a/cdn/ic_a_cdn_p3_05" stroke="none" stroke-width="1" fill="none" fill-rule="evenodd">
        <g filter="url(#filter-1)" id="Group">
            <g transform="translate(2.000000, 7.000000)">
                <path d="M19.5238095,10.4761905 C16.6354917,10.4761905 14.2857143,12.8259679 14.2857143,15.7142857 C14.2857143,18.6026035 16.6354917,20.952381 19.5238095,20.952381 C22.4121273,20.952381 24.7619048,18.6026035 24.7619048,15.7142857 C24.7619048,12.8259679 22.4120479,10.4761905 19.5238095,10.4761905 Z M19.5238095,18.568756 C17.9498225,18.568756 16.6693392,17.2881933 16.6693392,15.7142857 C16.6693392,14.1403782 17.949902,12.8598154 19.5238095,12.8598154 C21.0977171,12.8598154 22.3782798,14.1403782 22.3782798,15.7142857 C22.3782798,17.2881933 21.0977171,18.568756 19.5238095,18.568756 Z" id="Shape" fill="#000000" fill-rule="nonzero"></path>
                <path d="M26.7119946,7.88639006 C26.2043822,7.47553984 25.4532907,7.5461182 25.0344906,8.04382812 C24.6156111,8.54161593 24.687503,9.27809261 25.1950359,9.68886493 C27.0367394,11.179346 28.0929544,13.3755329 28.0929544,15.7142787 C28.0929544,18.0530245 27.0367394,20.2492114 25.1950359,21.7396925 C24.687503,22.1504648 24.6156111,22.8869415 25.0344906,23.3847293 C25.2701054,23.6647057 25.6108173,23.8095238 25.9541507,23.8095238 C26.2212232,23.8095238 26.4898844,23.7218851 26.7119946,23.5421674 C29.1042072,21.6061701 30.4761905,18.7529656 30.4761905,15.7142787 C30.4761905,12.6755918 29.1042072,9.82238736 26.7119946,7.88639006 L26.7119946,7.88639006 Z" id="Path" fill="#000000" fill-rule="nonzero"></path>
                <path d="M15.7460893,21.7394714 C13.8563445,20.2626577 12.7725427,18.0360273 12.7725427,15.6303844 C12.7725427,13.3158668 13.7902861,11.1424312 15.5649071,9.66739072 C16.0539536,9.26087378 16.1232269,8.5320266 15.7196047,8.0393956 C15.316059,7.5468417 14.5923254,7.47707158 14.1032023,7.88358852 C11.7982005,9.79952993 10.4761905,12.6231767 10.4761905,15.6303844 C10.4761905,18.7559315 11.883931,21.6485775 14.3384253,23.5667546 C14.5477761,23.7303482 14.7955525,23.8095238 15.0414919,23.8095238 C15.3841842,23.8095238 15.7231258,23.6557212 15.9494695,23.3619928 C16.3380889,22.8574893 16.2470768,22.1310321 15.7460893,21.7394714 L15.7460893,21.7394714 Z" id="Path" fill="#000000" fill-rule="nonzero"></path>
                <path d="M34.006494,9.0479648 C33.2173368,7.18692202 32.092405,5.53240071 30.6630807,4.13037285 C30.2088683,3.68482841 29.4927351,3.70589564 29.0634173,4.17744126 C28.6342504,4.64898688 28.6545432,5.39252685 29.108831,5.8381496 C31.6019824,8.28374919 32.9750299,11.5907556 32.9750299,15.1500205 C32.9750299,18.7470341 31.5047427,22.1998664 28.9411323,24.6233023 C28.4790744,25.0601536 28.4455799,25.803067 28.8662978,26.2828359 C29.0895943,26.5373656 29.3958727,26.6666667 29.7032827,26.6666667 C29.9751613,26.6666667 30.2479452,26.5654813 30.4648295,26.3605262 C33.4983435,23.4928772 35.2380952,19.406775 35.2380952,15.1500205 C35.2381707,13.028261 34.8237896,10.9752636 34.006494,9.0479648 Z" id="Path" fill="#000000" fill-rule="nonzero"></path>
                <path d="M11.0521772,25.5261802 C8.44165196,23.0534128 6.94443572,19.4724184 6.94443572,15.7013945 C6.94443572,11.9441996 8.43255808,8.37178868 11.0272236,5.90029293 C11.4814811,5.46762023 11.5286237,4.71457582 11.1325671,4.21824206 C10.7365105,3.72198777 10.0471945,3.67040721 9.59286429,4.10315939 C6.52269799,7.02751498 4.76190476,11.2549752 4.76190476,15.7013945 C4.76190476,20.1641066 6.53346514,24.4017399 9.62240121,27.3276055 C9.82886864,27.5231984 10.0834245,27.6190476 10.3368163,27.6190476 C10.6422252,27.6190476 10.9460335,27.4797245 11.1617403,27.2079132 C11.5566329,26.7104667 11.5075259,25.9575813 11.0521772,25.5261802 L11.0521772,25.5261802 Z" id="Path" fill="#000000" fill-rule="nonzero"></path>
                <path d="M38.2681223,7.68707852 C37.1582338,5.25543743 35.576787,3.09571946 33.5676774,1.26795555 C33.0840237,0.827961296 32.3236187,0.850841307 31.8692822,1.31922229 C31.4148655,1.78744815 31.4385756,2.52371917 31.9222293,2.96371342 C33.6955196,4.57694813 35.0911307,6.4826592 36.070133,8.62764089 C37.0832587,10.8474674 37.5970306,13.2142688 37.5970306,15.6625076 C37.5970306,18.1357205 37.0730858,20.5247815 36.0398546,22.7632998 C35.0413074,24.9266631 33.6197435,26.8427671 31.8144926,28.4584837 C31.3272343,28.8946 31.2973564,29.6306383 31.747768,30.1025095 C31.9846285,30.3505443 32.3069576,30.4761905 32.630408,30.4761905 C32.9221382,30.4761905 33.2145893,30.3739672 33.4456826,30.1671164 C35.4908379,28.3365604 37.1017621,26.1650534 38.2336785,23.7127815 C39.4057259,21.1736431 40,18.4651151 40,15.6625852 C40,12.8882868 39.4173406,10.2049656 38.2681223,7.68707852 L38.2681223,7.68707852 Z" id="Path" fill="#000000" fill-rule="nonzero"></path>
                <path d="M8.18171838,28.4155123 C4.47032688,25.062718 2.34167042,20.2597177 2.34167042,15.2380842 C2.34167042,10.2164508 4.47032688,5.41337174 8.18171838,2.06065613 C8.66339998,1.62551561 8.70414505,0.878919336 8.27280936,0.393076714 C7.84131755,-0.0927659077 7.10111554,-0.13386295 6.61951199,0.301198843 C2.41270109,4.10149432 0,9.54575021 0,15.2380842 C0,20.9304183 2.41270109,26.3746742 6.61943393,30.1749696 C6.84290735,30.3768333 7.12203446,30.4761905 7.40014685,30.4761905 C7.72142403,30.4761905 8.04145232,30.3435305 8.2727313,30.0830918 C8.70414505,29.5973279 8.66339998,28.8507316 8.18171838,28.4155123 Z" id="Path" fill="#000000" fill-rule="nonzero"></path>
            </g>
        </g>
    </g>
</svg>