<?xml version="1.0" encoding="UTF-8"?>
<svg width="44px" height="44px" viewBox="0 0 44 44" version="1.1" xmlns="http://www.w3.org/2000/svg" xmlns:xlink="http://www.w3.org/1999/xlink">
    <title>ic_a/cdn/ic_a_cdn_p3_06</title>
    <defs>
        <filter color-interpolation-filters="auto" id="filter-1">
            <feColorMatrix in="SourceGraphic" type="matrix" values="0 0 0 0 0.278431 0 0 0 0 0.827451 0 0 0 0 0.509804 0 0 0 1.000000 0"></feColorMatrix>
        </filter>
    </defs>
    <g id="ic_a/cdn/ic_a_cdn_p3_06" stroke="none" stroke-width="1" fill="none" fill-rule="evenodd">
        <g filter="url(#filter-1)" id="router">
            <g transform="translate(2.000000, 7.000000)">
                <path d="M35.8334294,18.4615385 L4.16664876,18.4615385 C1.87000365,18.4615385 0,20.4342901 0,22.8571252 L0,26.373644 C0,28.7964791 1.87000365,30.7692308 4.16664876,30.7692308 L35.8333512,30.7692308 C38.1299963,30.7692308 40,28.7982099 40,26.373644 L40,22.8571252 C40,20.4342901 38.1300745,18.4615385 35.8334294,18.4615385 Z M38.3334342,26.373644 C38.3334342,27.8277407 37.2117914,29.0110126 35.8334294,29.0110126 L4.16664388,29.0110126 C2.7882867,29.0110126 1.66664388,27.8277407 1.66664388,26.373644 L1.66664388,22.8571252 C1.66664388,21.4030285 2.7882867,20.2197567 4.16664388,20.2197567 L35.8333512,20.2197567 C37.2117133,20.2197567 38.3334342,21.4030285 38.3334342,22.8571252 L38.3334342,26.373644 L38.3334342,26.373644 Z" id="Shape" fill="#000000" fill-rule="nonzero"></path>
                <path d="M29.2307692,7.17948718 C28.9477012,7.17948718 28.7179487,7.55284583 28.7179487,8.01284493 L28.7179487,19.6794628 C28.7179487,20.1394619 28.9477012,20.5128205 29.2307692,20.5128205 C29.5138373,20.5128205 29.7435897,20.1411806 29.7435897,19.6794628 L29.7435897,8.0127668 C29.7435897,7.5527677 29.5138373,7.17948718 29.2307692,7.17948718 Z" id="Path" fill="#000000" fill-rule="nonzero"></path>
                <circle id="Oval" fill="#000000" fill-rule="nonzero" cx="5.64102564" cy="25.1282051" r="1"></circle>
                <circle id="Oval" fill="#000000" fill-rule="nonzero" cx="10.7692308" cy="25.1282051" r="1"></circle>
                <circle id="Oval" fill="#000000" fill-rule="nonzero" cx="15.8974359" cy="25.1282051" r="1"></circle>
                <circle id="Oval" fill="#000000" fill-rule="nonzero" cx="21.025641" cy="25.1282051" r="1"></circle>
                <path d="M34.0169939,24.6153846 L25.4701055,24.6153846 C24.9983143,24.6153846 24.6153846,24.8451371 24.6153846,25.1282051 C24.6153846,25.4112732 24.9983143,25.6410256 25.4701055,25.6410256 L34.017074,25.6410256 C34.4888652,25.6410256 34.8717949,25.4112732 34.8717949,25.1282051 C34.8717949,24.8451371 34.488785,24.6153846 34.0169939,24.6153846 Z" id="Path" fill="#000000" fill-rule="nonzero"></path>
                <path d="M25.9093318,8.20535426 C25.9093318,7.56073378 26.1111907,6.95635029 26.4773633,6.49980378 C26.7296869,6.18634718 26.7296869,5.67675417 26.4773633,5.36329757 C26.2250396,5.04984098 25.8148317,5.04984098 25.5625081,5.36329757 C24.9518364,6.12207351 24.6153846,7.13161472 24.6153846,8.20535426 C24.6153846,9.27916914 24.9518364,10.288635 25.5625688,11.0473356 C25.6893978,11.203235 25.8549852,11.2820513 26.0206332,11.2820513 C26.1862813,11.2820513 26.3518687,11.2048927 26.4774239,11.0473356 C26.7297476,10.733879 26.7297476,10.224286 26.4774239,9.91082939 C26.1111907,9.45435822 25.9093318,8.84997473 25.9093318,8.20535426 Z" id="Path" fill="#000000" fill-rule="nonzero"></path>
                <path d="M31.8739771,5.36329469 C31.62181,5.04984194 31.2118567,5.04984194 30.9596896,5.36329469 C30.7075226,5.67674745 30.7075226,6.18633423 30.9596896,6.49978698 C31.325635,6.95632791 31.5273686,7.560704 31.5273686,8.20531658 C31.5273686,8.84992916 31.325635,9.45588758 30.9583561,9.91084617 C30.706189,10.2242989 30.706189,10.7338857 30.9583561,11.0473385 C31.0851064,11.203236 31.250591,11.2820513 31.4161363,11.2820513 C31.5816815,11.2820513 31.7471662,11.2048937 31.8739165,11.0473385 C32.4842699,10.2886472 32.8205128,9.27911831 32.8205128,8.20539193 C32.8205734,7.13151484 32.4843305,6.12198599 31.8739771,5.36329469 Z" id="Path" fill="#000000" fill-rule="nonzero"></path>
                <path d="M24.4078944,4.39169375 C24.684548,4.09122427 24.684548,3.60274467 24.4078944,3.30227519 C24.1312409,3.00180571 23.6814793,3.00180571 23.4048257,3.30227519 C20.9163401,6.00650054 20.9163401,10.404117 23.4048257,13.1083424 C23.543884,13.2577826 23.725438,13.3333333 23.9070584,13.3333333 C24.0886788,13.3333333 24.2702327,13.2578548 24.4078944,13.1083424 C24.684548,12.8078729 24.684548,12.3193933 24.4078944,12.0189238 C22.472716,9.91570964 22.472716,6.49498014 24.4078944,4.39169375 Z" id="Path" fill="#000000" fill-rule="nonzero"></path>
                <path d="M35.0567127,3.3022736 C34.7800592,3.00180624 34.3302976,3.00180624 34.053644,3.3022736 C33.7769905,3.60274097 33.7769905,4.09121713 34.053644,4.39168449 C35.9888225,6.49495607 35.9888225,9.91566148 34.053644,12.0189331 C33.7769905,12.3194004 33.7769905,12.8078766 34.053644,13.1083439 C34.1927023,13.2577831 34.3742563,13.3333333 34.5558767,13.3333333 C34.7374971,13.3333333 34.9176544,13.2578554 35.0567127,13.1083439 C37.5451983,10.4040654 37.5451983,6.00647991 35.0567127,3.3022736 Z" id="Path" fill="#000000" fill-rule="nonzero"></path>
                <path d="M22.2917494,1.47637237 C22.654887,1.13897144 22.654887,0.59045162 22.2917494,0.253050694 C21.9286118,-0.0843502314 21.3382514,-0.0843502314 20.9751138,0.253050694 C16.2561586,4.6375595 16.2561586,11.7731024 20.9751138,16.1576112 C21.1576428,16.3254195 21.3959519,16.4102564 21.6343482,16.4102564 C21.8727445,16.4102564 22.1110535,16.3255006 22.2917494,16.1576112 C22.654887,15.8202103 22.654887,15.2716905 22.2917494,14.9342896 C18.2972362,11.2246637 18.2972362,5.18778255 22.2917494,1.47637237 Z" id="Path" fill="#000000" fill-rule="nonzero"></path>
                <path d="M36.4607836,0.253049443 C36.097646,-0.0843498145 35.5072856,-0.0843498145 35.144148,0.253049443 C34.7810105,0.590448701 34.7810105,1.13896581 35.144148,1.47636507 C39.1386613,5.18605369 39.1386613,11.222905 35.144148,14.9342969 C34.7810105,15.2716961 34.7810105,15.8202132 35.144148,16.1576125 C35.326677,16.32542 35.5649861,16.4102564 35.8033824,16.4102564 C36.0417787,16.4102564 36.2800877,16.3255011 36.4607836,16.1576125 C41.1797388,11.7730443 41.1797388,4.63745547 36.4607836,0.253049443 Z" id="Path" fill="#000000" fill-rule="nonzero"></path>
            </g>
        </g>
    </g>
</svg>