<?xml version="1.0" encoding="UTF-8"?>
<svg width="30px" height="30px" viewBox="0 0 30 30" version="1.1" xmlns="http://www.w3.org/2000/svg" xmlns:xlink="http://www.w3.org/1999/xlink">
    <!-- Generator: Sketch 56.2 (81672) - https://sketch.com -->
    <title>ic/sdwan/p3_path_02</title>
    <desc>Created with Sketch.</desc>
    <g id="ic/sdwan/p3_path_02" stroke="none" stroke-width="1" fill="none" fill-rule="evenodd">
        <path d="M15,25 C9.4771525,25 5,20.5228475 5,15 C5,9.4771525 9.4771525,5 15,5 C20.5228475,5 25,9.4771525 25,15 C25,20.5228475 20.5228475,25 15,25 Z M15.354,9.808 C14.276,9.808 13.408,10.172 12.75,10.9 C12.106,11.586 11.784,12.482 11.77,13.602 L13.408,13.602 C13.436,12.818 13.604,12.216 13.912,11.824 C14.22,11.404 14.682,11.194 15.298,11.194 C15.872,11.194 16.306,11.32 16.6,11.586 C16.88,11.852 17.034,12.258 17.034,12.804 C17.034,13.364 16.81,13.896 16.376,14.386 C16.096,14.68 15.648,15.058 15.004,15.506 C13.842,16.304 13.072,16.92 12.708,17.34 C12.036,18.096 11.714,18.978 11.714,20 L18.686,20 L18.686,18.558 L13.758,18.558 C13.982,18.054 14.598,17.466 15.62,16.794 C16.6,16.136 17.3,15.604 17.692,15.184 C18.336,14.47 18.672,13.686 18.672,12.818 C18.672,11.922 18.364,11.208 17.748,10.648 C17.118,10.088 16.32,9.808 15.354,9.808 Z" id="ic_sdwan_p3_path_02" fill="#FF874D"></path>
    </g>
</svg>