<?xml version="1.0" encoding="UTF-8"?>
<svg width="80px" height="80px" viewBox="0 0 80 80" version="1.1" xmlns="http://www.w3.org/2000/svg" xmlns:xlink="http://www.w3.org/1999/xlink">
    <!-- Generator: Sketch 59.1 (86144) - https://sketch.com -->
    <title>ic/cat_a/ic_cat_a_04</title>
    <desc>Created with Sketch.</desc>
    <g id="ic/cat_a/ic_cat_a_04" stroke="none" stroke-width="1" fill="none" fill-rule="evenodd">
        <path d="M37.8604969,17 L37.8604969,24.05 L37.8604969,24.05 L40.9406073,24.05 L40.9406073,17 L45.5607729,17 L45.5607729,24.05 C50.9509662,24.05 54.8011042,25.6166667 55.5711318,31.1 C55.5711318,34.2333333 54.0310766,36.5833333 51.7209938,38.15 L51.7209938,38.15 L51.7209938,38.9333333 L51.9340786,38.9784736 C55.6838896,39.8047782 58.6369825,42.1682099 57.8812146,47.55 C57.111187,54.6 51.7209938,56.1666667 44.7907453,56.95 L44.7907453,56.95 L44.7907453,64 L40.1705797,64 L40.1705797,56.95 L40.1705797,56.95 L37.0904693,56.95 L37.0904693,64 L32.4703037,64 L32.4703037,56.95 L32.4703037,56.95 L24,56.95 L24.7700276,51.4666667 L24.7700276,51.4666667 L27.850138,51.4666667 C28.6201656,51.4666667 29.3901932,50.6833333 29.3901932,49.9 L29.3901932,49.9 L29.3901932,30.3166667 C29.3901932,29.5333333 28.6201656,28.75 27.0801104,28.75 L27.0801104,28.75 L24,28.75 L24,24.05 L33.2403313,24.05 L33.2403313,17 L37.8604969,17 Z M49.410911,46.7666667 C49.410911,41.2833333 40.1705797,42.0666667 37.0904693,42.0666667 L37.0904693,42.0666667 L37.0904693,51.4666667 C40.1705797,51.4666667 49.410911,52.25 49.410911,46.7666667 Z M47.1008281,33.45 C47.1008281,27.9666667 39.4005521,28.75 37.0904693,28.75 L37.0904693,28.75 L37.0904693,38.15 C39.4005521,38.15 47.1008281,38.15 47.1008281,33.45 Z" id="Combined-Shape" fill="#209CFF"></path>
    </g>
</svg>