<?xml version="1.0" encoding="UTF-8"?>
<svg width="80px" height="80px" viewBox="0 0 80 80" version="1.1" xmlns="http://www.w3.org/2000/svg" xmlns:xlink="http://www.w3.org/1999/xlink">
    <!-- Generator: Sketch 59.1 (86144) - https://sketch.com -->
    <title>ic/cat_a/ic_cat_a_02</title>
    <desc>Created with Sketch.</desc>
    <g id="ic/cat_a/ic_cat_a_02" stroke="none" stroke-width="1" fill="none" fill-rule="evenodd">
        <path d="M28.925,18 C32.3859844,18 35.1916667,20.8142101 35.1916667,24.2857143 C35.1916667,26.1302599 34.3995632,27.7892376 33.137931,28.939092 L36.4110387,34.6263588 C36.7746747,34.543661 37.1530873,34.5 37.5416667,34.5 C38.9233185,34.5 40.1764368,35.0519898 41.0937856,35.9481035 L47.7761698,29.2448967 C47.4932876,28.7016871 47.3333333,28.0838657 47.3333333,27.4285714 C47.3333333,25.2588813 49.0868847,23.5 51.25,23.5 C53.4131153,23.5 55.1666667,25.2588813 55.1666667,27.4285714 C55.1666667,29.5982615 53.4131153,31.3571429 51.25,31.3571429 C50.5965589,31.3571429 49.9804923,31.1966373 49.4388491,30.9127877 L42.375267,37.9974483 C42.5426938,38.5035159 42.6333333,39.0447122 42.6333333,39.6071429 L42.6333333,39.6071429 L50.4787103,39.6070943 C50.680911,36.3186163 53.4039068,33.7142857 56.7333333,33.7142857 C60.1943178,33.7142857 63,36.5284959 63,40 C63,43.4715041 60.1943178,46.2857143 56.7333333,46.2857143 C53.9564499,46.2857143 51.6014161,44.4740717 50.7789125,41.9648431 L42.0597006,41.9644161 C41.6603478,42.7329183 41.0718207,43.3867712 40.3560623,43.8638434 L43.1048251,54.1551273 C43.2077056,54.1469985 43.3117039,54.1428571 43.4166667,54.1428571 C45.5797819,54.1428571 47.3333333,55.9017385 47.3333333,58.0714286 C47.3333333,60.2411187 45.5797819,62 43.4166667,62 C41.2535514,62 39.5,60.2411187 39.5,58.0714286 C39.5,56.8576627 40.0487733,55.7724592 40.9110279,55.0518253 L38.1406458,44.6793197 C37.9441869,44.7024118 37.7443092,44.7142857 37.5416667,44.7142857 C36.3273102,44.7142857 35.212245,44.2878768 34.3371758,43.5761913 L28.1192648,47.1768894 C28.3867508,47.8759384 28.5333333,48.6350848 28.5333333,49.4285714 C28.5333333,52.9000756 25.7276511,55.7142857 22.2666667,55.7142857 C18.8056822,55.7142857 16,52.9000756 16,49.4285714 C16,45.9570673 18.8056822,43.1428571 22.2666667,43.1428571 C24.0914603,43.1428571 25.7340869,43.9251777 26.8793672,45.1736816 L32.8922333,41.6920923 C32.6657535,41.1847431 32.5193901,40.6335625 32.4692851,40.0547417 L23.1227406,37.5428778 C22.4140741,38.5537306 21.2422771,39.2142857 19.9166667,39.2142857 C17.7535514,39.2142857 16,37.4554044 16,35.2857143 C16,33.1160242 17.7535514,31.3571429 19.9166667,31.3571429 C22.0797819,31.3571429 23.8333333,33.1160242 23.8333333,35.2857143 C23.8333333,35.2880639 23.8333313,35.290413 23.8333272,35.2927616 L32.814509,37.7059059 C33.1338104,36.90791 33.648131,36.209502 34.2983147,35.6700182 L31.1327529,30.1702501 C30.4460943,30.429565 29.7020639,30.5714286 28.925,30.5714286 C25.4640156,30.5714286 22.6583333,27.7572184 22.6583333,24.2857143 C22.6583333,20.8142101 25.4640156,18 28.925,18 Z" id="Combined-Shape" fill="#209CFF"></path>
    </g>
</svg>