<?xml version="1.0" encoding="UTF-8"?>
<svg width="176px" height="176px" viewBox="0 0 176 176" version="1.1" xmlns="http://www.w3.org/2000/svg" xmlns:xlink="http://www.w3.org/1999/xlink">
    <!-- Generator: Sketch 57.1 (83088) - https://sketch.com -->
    <title>article_b/sdwan/article_b_sdwan_p2_03</title>
    <desc>Created with Sketch.</desc>
    <g id="article_b/sdwan/article_b_sdwan_p2_03" stroke="none" stroke-width="1" fill="none" fill-rule="evenodd">
        <g id="Group" transform="translate(8.000000, 7.000000)">
            <path d="M152.258065,146.571429 C156.525958,146.571429 160,150.033064 160,154.285714 C160,158.538365 156.525958,162 152.258065,162 C147.990171,162 144.516129,158.538365 144.516129,154.285714 C144.516129,150.033064 147.990171,146.571429 152.258065,146.571429 Z M152.258065,151.714286 C150.836694,151.714286 149.677419,152.866909 149.677419,154.285714 C149.677419,155.70452 150.836694,156.857143 152.258065,156.857143 C153.679435,156.857143 154.83871,155.70452 154.83871,154.285714 C154.83871,152.866909 153.679435,151.714286 152.258065,151.714286 Z M152.267281,133.714286 C153.687442,133.714286 154.83871,134.865554 154.83871,136.285714 C154.83871,137.705875 153.687442,138.857143 152.267281,138.857143 L152.248848,138.857143 C150.828687,138.857143 149.677419,137.705875 149.677419,136.285714 C149.677419,134.865554 150.828687,133.714286 152.248848,133.714286 L152.267281,133.714286 Z M152.267281,120.857143 C153.687442,120.857143 154.83871,122.008411 154.83871,123.428571 C154.83871,124.848732 153.687442,126 152.267281,126 L152.248848,126 C150.828687,126 149.677419,124.848732 149.677419,123.428571 C149.677419,122.008411 150.828687,120.857143 152.248848,120.857143 L152.267281,120.857143 Z M152.267281,108 C153.687442,108 154.83871,109.151268 154.83871,110.571429 C154.83871,111.991589 153.687442,113.142857 152.267281,113.142857 L152.248848,113.142857 C150.828687,113.142857 149.677419,111.991589 149.677419,110.571429 C149.677419,109.151268 150.828687,108 152.248848,108 L152.267281,108 Z" id="Combined-Shape" fill="#209CFF"></path>
            <path d="M7.75115207,48.8571429 C9.17131286,48.8571429 10.3225806,50.0084106 10.3225806,51.4285714 C10.3225806,52.8487322 9.17131286,54 7.75115207,54 L7.73271889,54 C6.31255811,54 5.16129032,52.8487322 5.16129032,51.4285714 C5.16129032,50.0084106 6.31255811,48.8571429 7.73271889,48.8571429 L7.75115207,48.8571429 Z M7.75115207,36 C9.17131286,36 10.3225806,37.1512678 10.3225806,38.5714286 C10.3225806,39.9915894 9.17131286,41.1428571 7.75115207,41.1428571 L7.73271889,41.1428571 C6.31255811,41.1428571 5.16129032,39.9915894 5.16129032,38.5714286 C5.16129032,37.1512678 6.31255811,36 7.73271889,36 L7.75115207,36 Z M7.75115207,23.1428571 C9.17131286,23.1428571 10.3225806,24.2941249 10.3225806,25.7142857 C10.3225806,27.1344465 9.17131286,28.2857143 7.75115207,28.2857143 L7.73271889,28.2857143 C6.31255811,28.2857143 5.16129032,27.1344465 5.16129032,25.7142857 C5.16129032,24.2941249 6.31255811,23.1428571 7.73271889,23.1428571 L7.75115207,23.1428571 Z M7.74193548,5.64881475e-13 C12.0098287,5.64881475e-13 15.483871,3.46163496 15.483871,7.71428571 C15.483871,11.9669365 12.0098287,15.4285714 7.74193548,15.4285714 C3.47404226,15.4285714 2.42472709e-13,11.9669365 2.42472709e-13,7.71428571 C2.42472709e-13,3.46163496 3.47404226,5.64881475e-13 7.74193548,5.64881475e-13 Z M7.74193548,5.14285714 C6.32056452,5.14285714 5.16129032,6.29799107 5.16129032,7.71428571 C5.16129032,9.13058036 6.32056452,10.2857143 7.74193548,10.2857143 C9.16330645,10.2857143 10.3225806,9.13058036 10.3225806,7.71428571 C10.3225806,6.29799107 9.16330645,5.14285714 7.74193548,5.14285714 Z" id="Combined-Shape" fill="#47D382"></path>
            <path d="M75.4193548,46.2857143 C76.5239243,46.2857143 77.4193548,47.1811448 77.4193548,48.2857143 L77.4193548,59.8953238 C77.4193548,60.3781559 77.611605,60.8411171 77.953629,61.1819196 C78.2957848,61.5228535 78.7591149,61.7142857 79.242133,61.7142857 L85.9191573,61.7142857 C86.4021754,61.7142857 86.8655055,61.5228535 87.2076613,61.1819196 C87.5496853,60.8411171 87.7419355,60.3781559 87.7419355,59.8953238 L87.7419355,48.2857143 C87.7419355,47.1811448 88.637366,46.2857143 89.7419355,46.2857143 L95.483871,46.2857143 C99.7596239,46.2857143 103.225806,49.7518969 103.225806,54.0276498 L103.225806,68.0233627 C103.225806,69.6055807 102.60084,71.1237546 101.486941,72.2474286 L93.3967396,80.4086261 C93.0215309,80.7871275 92.8129118,81.2997309 92.817182,81.8326725 L92.9032258,92.5714286 L87.7419355,92.5714286 L87.7419355,82.2857143 L77.4193548,82.2857143 L77.4193548,92.5714286 L72.2580645,92.5714286 L72.4318538,82.2731572 C72.4455845,81.4595144 72.1281946,80.6752005 71.552475,80.1000917 L63.6950956,72.2510484 C62.5684995,71.1256476 61.9354839,69.598559 61.9354839,68.0061566 L61.9354839,54.0276498 C61.9354839,49.7518969 65.4016665,46.2857143 69.6774194,46.2857143 L75.4193548,46.2857143 Z M72.2580645,51.4285714 L70.0967742,51.4285714 C68.4399199,51.4285714 67.0967742,52.7717172 67.0967742,54.4285714 L67.0967742,54.4285714 L67.0967742,66.7027918 C67.0967742,67.7661376 67.5201685,68.7857215 68.2734114,69.5362742 L68.2734114,69.5362742 L75.0292341,76.2679689 C75.5915315,76.8282582 76.3529662,77.1428571 77.1467562,77.1428571 L77.1467562,77.1428571 L88.0145342,77.1428571 C88.8083241,77.1428571 89.5697588,76.8282582 90.1320563,76.2679689 L90.1320563,76.2679689 L96.8878789,69.5362742 C97.6411218,68.7857215 98.0645161,67.7661376 98.0645161,66.7027918 L98.0645161,66.7027918 L98.0645161,54.4285714 C98.0645161,52.7717172 96.7213704,51.4285714 95.0645161,51.4285714 L95.0645161,51.4285714 L92.9032258,51.4285714 L92.9032258,61.1179704 C92.9032258,62.1813161 92.4798315,63.2009001 91.7265886,63.9514528 L91.7265886,63.9514528 L89.3958332,66.2738841 C89.0209682,66.6474102 88.5133451,66.8571429 87.9841518,66.8571429 L87.9841518,66.8571429 L77.1771385,66.8571429 C76.6479452,66.8571429 76.1403221,66.6474102 75.7654571,66.2738841 L75.7654571,66.2738841 L73.4347017,63.9514528 C72.6814588,63.2009001 72.2580645,62.1813161 72.2580645,61.1179704 L72.2580645,61.1179704 L72.2580645,51.4285714 Z" id="Combined-Shape" fill="#FF874D"></path>
            <path d="M94.4654518,2.57142857 C96.1854876,2.57142857 97.7129426,3.6710275 98.258734,5.30217278 L98.258734,5.30217278 L100.94254,13.3229633 C103.148942,14.0788225 105.365423,15.0041854 107.559224,16.0814732 L107.559224,16.0814732 L115.190263,12.2791107 C116.727104,11.5133402 118.581228,11.8138343 119.797541,13.0258029 L119.797541,13.0258029 L136.591064,29.7593496 C137.814094,30.978011 138.117175,32.84387 137.342755,34.3869872 L137.342755,34.3869872 L133.538306,41.9677734 C134.619455,44.153739 135.548135,46.3623046 136.306704,48.5608259 L136.306704,48.5608259 L144.357883,51.2355921 C145.993196,51.7788766 147.096774,53.3083939 147.096774,55.0315908 L147.096774,55.0315908 L147.096774,78.682695 C147.096774,80.4058919 145.993196,81.9354091 144.357883,82.4786936 L144.357883,82.4786936 L136.306704,85.1534598 C135.545615,87.3519811 134.619455,89.5605467 133.538306,91.7465124 L133.538306,91.7465124 L137.34314,99.3280648 C138.114933,100.865948 137.816737,102.725087 136.602695,103.944453 L136.602695,103.944453 L118.59375,122.032366 C118.358115,123.549107 117.685232,124.910156 116.699849,126 C117.935988,127.368582 118.712197,129.160296 118.712197,131.142857 C118.712197,133.125419 117.938508,134.917132 116.699849,136.285714 C117.935988,137.654297 118.712197,139.44601 118.712197,141.428571 C118.712197,145.681222 115.238155,149.142857 110.970262,149.142857 L110.970262,149.142857 L92.9032258,149.142857 L92.9032258,151.714286 C92.9032258,157.386998 88.2736897,162 82.5806452,162 C76.8876006,162 72.2580645,157.386998 72.2580645,151.714286 L72.2580645,151.714286 L72.2580645,149.142857 L59.9389545,149.142857 C58.8805679,149.142857 57.8653216,148.723392 57.1155916,147.97634 L57.1155916,147.97634 L51.1297042,142.01183 C50.7548392,141.638304 50.2472161,141.428571 49.7180228,141.428571 L49.7180228,141.428571 L30.9677419,141.428571 L30.9677419,145.142857 C30.9677419,147.351996 29.1768809,149.142857 26.9677419,149.142857 L26.9677419,149.142857 L16.9032258,149.142857 C14.6940868,149.142857 12.9032258,147.351996 12.9032258,145.142857 L12.9032258,145.142857 L12.9032258,101.714286 C12.9032258,99.5051467 14.6940868,97.7142857 16.9032258,97.7142857 L16.9032258,97.7142857 L28.2762097,97.7142857 L31.5952619,91.690011 C30.5241935,89.521624 29.6081148,87.3331473 28.8545868,85.149693 L28.8545868,85.149693 L20.8038057,82.475996 C19.168289,81.9328343 18.0645161,80.4032164 18.0645161,78.6798652 L18.0645161,78.6798652 L18.0645161,55.0315908 C18.0645161,53.3083939 19.1680945,51.7788766 20.8034078,51.2355921 L20.8034078,51.2355921 L28.8545868,48.5608259 C29.6131552,46.3623046 30.5418348,44.153739 31.6229839,41.9677734 L31.6229839,41.9677734 L27.8185354,34.3869872 C27.0441157,32.84387 27.3471967,30.978011 28.570226,29.7593496 L28.570226,29.7593496 L45.3637497,13.0258029 C46.5800622,11.8138343 48.434186,11.5133402 49.9710268,12.2791107 L49.9710268,12.2791107 L57.6020665,16.0814732 C59.7958671,15.0041854 62.0123487,14.0788225 64.21875,13.3229633 L64.21875,13.3229633 L66.9025563,5.30217278 C67.4483477,3.6710275 68.9758027,2.57142857 70.6958385,2.57142857 L70.6958385,2.57142857 Z M83.0556955,108 L77.4193548,108 L77.4193548,151.714286 C77.4193548,154.550642 79.7341229,156.857143 82.5806452,156.857143 C85.4271674,156.857143 87.7419355,154.550642 87.7419355,151.714286 L87.7419355,151.714286 L87.7419355,148.669503 C84.7454639,147.604771 82.5806452,144.775949 82.5806452,141.428571 C82.5806452,139.44601 83.3543348,137.654297 84.5929939,136.285714 C83.3568548,134.917132 82.5806452,133.125419 82.5806452,131.142857 C82.5806452,129.160296 83.3543348,127.368582 84.5929939,126 C83.3568548,124.631418 82.5806452,122.839704 82.5806452,120.857143 C82.5806452,118.874581 83.3543348,117.082868 84.5929939,115.714286 C83.3568548,114.345703 82.5806452,112.55399 82.5806452,110.571429 C82.5806452,109.666155 82.7658771,108.807338 83.0556955,108 L83.0556955,108 Z M24.8064516,102.857143 L19.0645161,102.857143 C18.5122314,102.857143 18.0645161,103.304858 18.0645161,103.857143 L18.0645161,103.857143 L18.0645161,143 C18.0645161,143.552285 18.5122314,144 19.0645161,144 L19.0645161,144 L24.8064516,144 C25.3587364,144 25.8064516,143.552285 25.8064516,143 L25.8064516,143 L25.8064516,103.857143 C25.8064516,103.304858 25.3587364,102.857143 24.8064516,102.857143 L24.8064516,102.857143 Z M100.645161,97.7142857 L68.1653226,97.7142857 L57.8427419,108 L30.9677419,108 L30.9677419,136.285714 L51.0287875,136.285714 C52.0871741,136.285714 53.1024203,136.70518 53.8521503,137.452232 L53.8521503,137.452232 L59.8380378,143.416741 C60.2129027,143.790267 60.7205259,144 61.2497192,144 L61.2497192,144 L72.2580645,144 L72.2580645,111.636161 L68.1653226,115.714286 C67.1565714,116.719434 65.5248803,116.719434 64.516129,115.714286 L64.516129,115.714286 C63.5091239,114.703695 63.512031,113.078637 64.516129,112.078125 L64.516129,112.078125 L73.7701613,102.857143 L100.645161,102.857143 C102.066532,102.857143 103.225806,101.70452 103.225806,100.285714 C103.225806,98.8669086 102.066532,97.7142857 100.645161,97.7142857 L100.645161,97.7142857 Z M110.970262,138.857143 L90.3225806,138.857143 C88.9012097,138.857143 87.7419355,140.009766 87.7419355,141.428571 C87.7419355,142.847377 88.9012097,144 90.3225806,144 L90.3225806,144 L110.970262,144 C112.391633,144 113.550907,142.847377 113.550907,141.428571 C113.550907,140.009766 112.391633,138.857143 110.970262,138.857143 L110.970262,138.857143 Z M110.970262,128.571429 L90.3225806,128.571429 C88.9012097,128.571429 87.7419355,129.724052 87.7419355,131.142857 C87.7419355,132.561663 88.9012097,133.714286 90.3225806,133.714286 L90.3225806,133.714286 L110.970262,133.714286 C112.391633,133.714286 113.550907,132.561663 113.550907,131.142857 C113.550907,129.724052 112.391633,128.571429 110.970262,128.571429 L110.970262,128.571429 Z M110.970262,118.285714 L90.3225806,118.285714 C88.9012097,118.285714 87.7419355,119.438337 87.7419355,120.857143 C87.7419355,122.275949 88.9012097,123.428571 90.3225806,123.428571 L90.3225806,123.428571 L110.970262,123.428571 C112.391633,123.428571 113.550907,122.275949 113.550907,120.857143 C113.550907,119.438337 112.391633,118.285714 110.970262,118.285714 L110.970262,118.285714 Z M93.6252519,7.71428571 L71.5385584,7.71428571 L68.2888103,17.4186662 L67.03251,17.8116628 C64.2993952,18.6717356 61.5297381,19.825614 58.8004032,21.2431641 L58.8004032,21.2431641 L57.6310484,21.8470982 L48.4160787,17.2566964 L32.7998994,32.8171037 L37.4067542,41.9991628 L36.7993952,43.1643414 C35.3780242,45.8814176 34.21875,48.6436944 33.3568548,51.3670481 L33.3568548,51.3670481 L32.9624497,52.6188616 L23.2258065,55.8519811 L23.2258065,77.8597936 L32.9624497,81.0954241 L33.3593748,82.3447266 C34.2250503,85.0705914 35.3830645,87.8328681 36.8031755,90.5499444 L36.8031755,90.5499444 L37.4395161,91.7691126 L31.3319052,102.857143 L53.4059981,102.857143 C42.5340223,94.0994698 36.1290323,80.8945313 36.1290323,66.8571429 C36.1290323,41.3362164 56.9682458,20.5714286 82.5806452,20.5714286 C108.193045,20.5714286 129.032258,41.3362164 129.032258,66.8571429 C129.032258,81.0665457 122.629788,94.1861051 111.682208,102.928711 C115.612399,103.294085 118.712197,106.559849 118.712197,110.571429 C118.712197,112.55399 117.938508,114.345703 116.699849,115.714286 C116.843498,115.873745 116.983367,116.043248 117.114415,116.215262 L117.114415,116.215262 L132.363911,100.90346 L127.752016,91.7151229 L128.358115,90.5499444 C129.778226,87.8328681 130.93624,85.0705914 131.801915,82.3447266 L131.801915,82.3447266 L132.198841,81.0954241 L141.935484,77.8623046 L141.935484,55.8544921 L132.196321,52.6163503 L131.801915,51.3645368 C130.93876,48.641183 129.780746,45.8814176 128.358115,43.1618304 L128.358115,43.1618304 L127.752016,41.9966518 L132.358871,32.8145927 L116.742692,17.2541854 L107.527722,21.8445872 L106.358367,21.2393973 C103.631552,19.8231027 100.859375,18.6679688 98.12626,17.8091518 L98.12626,17.8091518 L96.8699597,17.4161552 L93.6252519,7.71428571 Z M110.970262,108 L90.3225806,108 C88.9012097,108 87.7419355,109.152623 87.7419355,110.571429 C87.7419355,111.990234 88.9012097,113.142857 90.3225806,113.142857 L90.3225806,113.142857 L110.970262,113.142857 C112.391633,113.142857 113.550907,111.990234 113.550907,110.571429 C113.550907,109.152623 112.391633,108 110.970262,108 L110.970262,108 Z M82.5806452,25.7142857 C59.8147681,25.7142857 41.2903226,44.1725725 41.2903226,66.8571429 C41.2903226,80.0671037 47.6751513,92.4458705 58.3921371,100.180246 L58.3921371,100.180246 L62.1081148,96.4775391 C62.0926759,96.4669305 62.0772464,96.4563108 62.0618266,96.4456801 L65.9163681,92.5714286 L87.7419355,92.5714286 L100.018089,92.7155897 C101.024332,92.7274062 102.024189,92.8773182 102.989652,93.1611265 L103.172245,93.2148014 C104.013708,93.4621586 104.803899,93.8586477 105.505181,94.385383 C106.203345,94.9097773 106.775571,95.5834878 107.180067,96.3573134 L107.967841,97.863512 C108.097383,98.250375 108.196864,98.6513502 108.263609,99.0640347 C118.106099,91.2907366 123.870968,79.5648716 123.870968,66.8571429 C123.870968,44.1725725 105.346522,25.7142857 82.5806452,25.7142857 Z" id="article_b_sdwan_p2_03" fill="#4D4D4D"></path>
        </g>
    </g>
</svg>