<?xml version="1.0" encoding="UTF-8"?>
<svg width="176px" height="176px" viewBox="0 0 176 176" version="1.1" xmlns="http://www.w3.org/2000/svg" xmlns:xlink="http://www.w3.org/1999/xlink">
    <!-- Generator: Sketch 57.1 (83088) - https://sketch.com -->
    <title>article_b/sdwan/article_b_sdwan_p1_02</title>
    <desc>Created with Sketch.</desc>
    <g id="article_b/sdwan/article_b_sdwan_p1_02" stroke="none" stroke-width="1" fill="none" fill-rule="evenodd">
        <g id="Group" transform="translate(8.000000, 8.000000)">
            <path d="M41.2903226,144.516129 L51.6129032,144.516129 C53.0381542,144.516129 54.1935484,145.671523 54.1935484,147.096774 C54.1935484,148.522025 53.0381542,149.677419 51.6129032,149.677419 L41.2903226,149.677419 C39.8650716,149.677419 38.7096774,148.522025 38.7096774,147.096774 C38.7096774,145.671523 39.8650716,144.516129 41.2903226,144.516129 Z" id="Path" fill="#FF874D"></path>
            <path d="M131.2,92.8 C124.1425,92.8 118.4,98.5424998 118.4,105.6 C118.4,112.6575 124.1425,118.4 131.2,118.4 C138.2575,118.4 144,112.6575 144,105.6 C144,98.5424998 138.2575,92.8 131.2,92.8 Z M131.2,113.28 C126.96625,113.28 123.52,109.83375 123.52,105.6 C123.52,101.36625 126.96625,97.92 131.2,97.92 C135.43375,97.92 138.88,101.36625 138.88,105.6 C138.88,109.83375 135.43375,113.28 131.2,113.28 Z" id="Shape" fill="#47D382"></path>
            <path d="M131.6,36.1142857 C130.202214,36.1142857 129.066667,34.9616628 129.066667,33.5428571 C129.066667,32.1547088 127.94135,31.0293923 126.553202,31.0293923 C125.33545,31.0293923 124.292865,31.9023384 124.078856,33.1011378 L124,33.5428571 L124,33.5428571 C124,36.8902342 126.12513,39.719057 129.066667,40.7837891 L129.066667,43.8666667 C129.066667,45.265788 130.200879,46.4 131.6,46.4 C132.999121,46.4 134.133333,45.265788 134.133333,43.8666667 L134.133333,40.7837891 L134.133333,40.7837891 C137.07487,39.719057 139.2,36.8902342 139.2,33.5428571 C139.2,29.2902064 135.789649,25.8285714 131.6,25.8285714 C130.202214,25.8285714 129.066667,24.6759485 129.066667,23.2571429 C129.066667,21.8383372 130.202214,20.6857143 131.6,20.6857143 C132.997786,20.6857143 134.133333,21.8383372 134.133333,23.2571429 C134.195656,24.6551294 135.379471,25.7378986 136.777458,25.6755755 C138.033286,25.6195899 139.058191,24.6513221 139.185398,23.4006996 L139.2,23.2571429 L139.2,23.2571429 C139.2,19.9097658 137.07487,17.080943 134.133333,16.0162109 L134.133333,12.9333333 C134.133333,11.534212 132.999121,10.4 131.6,10.4 C130.200879,10.4 129.066667,11.534212 129.066667,12.9333333 L129.066667,16.0162109 L129.066667,16.0162109 C126.12513,17.080943 124,19.9097658 124,23.2571429 C124,27.5097936 127.410351,30.9714286 131.6,30.9714286 C132.997786,30.9714286 134.133333,32.1240515 134.133333,33.5428571 C134.133333,34.9616628 132.997786,36.1142857 131.6,36.1142857 Z" id="Path" fill="#209CFF"></path>
            <path d="M80,8.52651283e-14 C87.1144155,8.52651283e-14 92.9032258,5.78881032 92.9032258,12.9032258 L92.9032258,12.9032258 L92.9032258,33.3933971 C92.9032258,34.8186481 91.7478316,35.9740423 90.3225806,35.9740423 C88.8973297,35.9740423 87.7419355,34.8186481 87.7419355,33.3933971 L87.7419355,33.3933971 L87.7419355,20.6451613 L5.16129032,20.6451613 L5.16129032,134.193548 L87.7419355,134.193548 L87.7419355,103.225806 C87.7419355,101.800555 88.8973297,100.645161 90.3225806,100.645161 C91.7478316,100.645161 92.9032258,101.800555 92.9032258,103.225806 L92.9032258,103.225806 L92.9032258,147.096774 C92.9032258,154.21119 87.1144155,160 80,160 L80,160 L12.9032258,160 C5.78881032,160 -3.48165941e-13,154.21119 -3.48165941e-13,147.096774 L-3.48165941e-13,147.096774 L-3.48165941e-13,12.9032258 C-3.48165941e-13,5.78881032 5.78881032,8.52651283e-14 12.9032258,8.52651283e-14 L12.9032258,8.52651283e-14 Z M131.612903,-7.10542736e-14 C147.264365,-7.10542736e-14 160,12.7356352 160,28.3870968 C160,44.0385584 147.264365,56.7741935 131.612903,56.7741935 C120.800151,56.7741935 111.386089,50.6943045 106.594002,41.7754535 L106.594002,41.7754535 L79.7341229,53.1376006 C81.5713206,57.5176413 82.5806452,62.2505039 82.5806452,67.0967742 C82.5806452,71.9846271 81.6154232,76.7124497 79.7782258,81.0735887 L79.7782258,81.0735887 L106.594002,92.4180948 C111.386089,83.4992439 120.800151,77.4193548 131.612903,77.4193548 C147.264365,77.4193548 160,90.15499 160,105.806452 C160,116.813256 153.693296,126.350806 144.516129,131.060988 L144.516129,131.060988 L144.516129,154.160515 C144.516129,154.62625 144.407694,155.085589 144.199411,155.502156 C143.458443,156.984091 141.656424,157.584764 140.174488,156.843796 L140.174488,156.843796 L131.612903,152.563004 L123.051318,156.843796 C122.634752,157.05208 122.175413,157.160515 121.709677,157.160515 C120.052823,157.160515 118.709677,155.817369 118.709677,154.160515 L118.709677,154.160515 L118.709677,131.060988 C109.53251,126.350806 103.225806,116.810736 103.225806,105.806452 C103.225806,102.794859 103.705897,99.8966735 104.577873,97.173639 L104.577873,97.173639 L77.3941532,85.6728832 C75.798891,88.3077116 73.888609,90.7787297 71.6129032,92.9889113 C70.9601813,93.6227319 70.3792842,94.3220768 69.8500503,95.0604839 C71.3268648,96.4692542 72.2580645,98.4463206 72.2580645,100.645161 C72.2580645,104.227571 69.8009071,107.220262 66.4931955,108.101058 C64.2704132,117.215222 55.9816029,123.870968 46.4516129,123.870968 C36.9216229,123.870968 28.6328126,117.215222 26.4100303,108.101058 C23.1023187,107.220262 20.6451613,104.227571 20.6451613,100.645161 C20.6451613,98.451361 21.5713206,96.4805948 23.0430948,95.0705645 C22.49748,94.3069555 21.9014616,93.5824094 21.2260584,92.9233871 C12.9800906,84.8878529 9.12550387,73.6857358 10.6476813,62.18876 C12.7822581,46.0622481 26.0748487,33.0317542 42.2555445,31.2021168 C52.5630039,30.0516632 62.8540826,33.3026713 70.5141129,40.1449094 C73.2510081,42.5907258 75.5506552,45.4296874 77.4042339,48.5181452 L77.4042339,48.5181452 L104.577873,37.0224294 C103.705897,34.2968748 103.225806,31.3986897 103.225806,28.3870968 C103.225806,12.7356352 115.961442,-7.10542736e-14 131.612903,-7.10542736e-14 Z M87.7419355,139.354839 L5.16129032,139.354839 L5.16129032,147.096774 C5.16129032,151.364667 8.63533258,154.83871 12.9032258,154.83871 L12.9032258,154.83871 L80,154.83871 C84.2678932,154.83871 87.7419355,151.364667 87.7419355,147.096774 L87.7419355,147.096774 L87.7419355,139.354839 Z M139.354839,133.094758 C136.890121,133.794103 134.299395,134.193548 131.612903,134.193548 C128.926411,134.193548 126.335685,133.794103 123.870968,133.094758 L123.870968,133.094758 L123.870968,149.044769 C123.870968,149.200014 123.907113,149.353127 123.976541,149.491982 C124.22353,149.985961 124.824203,150.186185 125.318181,149.939196 L125.318181,149.939196 L131.16569,147.015442 C131.447217,146.874678 131.778589,146.874678 132.060117,147.015442 L132.060117,147.015442 L137.907625,149.939196 C138.046481,150.008624 138.199594,150.044769 138.354839,150.044769 C138.907123,150.044769 139.354839,149.597053 139.354839,149.044769 L139.354839,149.044769 Z M131.612903,82.5806452 C118.805444,82.5806452 108.387097,92.9989919 108.387097,105.806452 C108.387097,118.613911 118.805444,129.032258 131.612903,129.032258 C144.420363,129.032258 154.83871,118.613911 154.83871,105.806452 C154.83871,92.9989919 144.420363,82.5806452 131.612903,82.5806452 Z M61.0093245,108.387097 L31.8939013,108.387097 C34.048639,114.432964 39.84501,118.709677 46.4516129,118.709677 C53.0582158,118.709677 58.8545868,114.432964 61.0093245,108.387097 L61.0093245,108.387097 Z M64.516129,98.0645161 L28.3870968,98.0645161 C26.9632058,98.0645161 25.8064516,99.2212703 25.8064516,100.645161 C25.8064516,102.069052 26.9632058,103.225806 28.3870968,103.225806 L28.3870968,103.225806 L64.516129,103.225806 C65.94002,103.225806 67.0967742,102.069052 67.0967742,100.645161 C67.0967742,99.2212703 65.94002,98.0645161 64.516129,98.0645161 L64.516129,98.0645161 Z M67.0740929,43.9944555 C60.4107865,38.0443548 51.8094758,35.3061997 42.8339213,36.3356855 C28.9755545,37.8969255 17.5919858,49.0549394 15.7623487,62.8616432 C14.4569052,72.7280745 17.7620968,82.3412297 24.828629,89.2288306 C25.9740423,90.3452619 26.9291835,91.6204639 27.7885584,92.9624497 C27.9901713,92.9473287 28.1829639,92.9032258 28.3870968,92.9032258 L28.3870968,92.9032258 L43.8709677,92.9032258 L43.8709677,77.0526713 C39.4291835,75.8996974 36.1290323,71.8939013 36.1290323,67.0967742 C36.1290323,61.4037297 40.7585684,56.7741935 46.4516129,56.7741935 C52.1446574,56.7741935 56.7741935,61.4037297 56.7741935,67.0967742 C56.7741935,71.8939013 53.4740423,75.8996974 49.0322581,77.0526713 L49.0322581,77.0526713 L49.0322581,92.9032258 L64.516129,92.9032258 C64.7152219,92.9032258 64.9029739,92.9473287 65.0995465,92.9624497 C65.9463206,91.6381048 66.8876006,90.3818045 68.0153729,89.2855342 C69.7883065,87.5667842 71.2978832,85.6590223 72.5907258,83.6391129 L72.5907258,83.6391129 L75.0214213,79.06376 C76.5940019,75.326361 77.4193548,71.2802419 77.4193548,67.0967742 C77.4193548,65.0480495 77.3941532,60.1263288 75.0214213,54.246683 C72.6486894,48.3670372 68.1681409,44.9724683 67.0740929,43.9944555 Z M46.4516129,61.9354839 C43.6050906,61.9354839 41.2903226,64.2502519 41.2903226,67.0967742 C41.2903226,69.9432965 43.6050906,72.2580645 46.4516129,72.2580645 C49.2981352,72.2580645 51.6129032,69.9432965 51.6129032,67.0967742 C51.6129032,64.2502519 49.2981352,61.9354839 46.4516129,61.9354839 Z M131.612903,5.16129032 C118.805444,5.16129032 108.387097,15.5796371 108.387097,28.3870968 C108.387097,41.1945565 118.805444,51.6129032 131.612903,51.6129032 C144.420363,51.6129032 154.83871,41.1945565 154.83871,28.3870968 C154.83871,15.5796371 144.420363,5.16129032 131.612903,5.16129032 Z M80,5.16129032 L12.9032258,5.16129032 C8.63533258,5.16129032 5.16129032,8.63533258 5.16129032,12.9032258 L5.16129032,12.9032258 L5.16129032,15.483871 L87.7419355,15.483871 L87.7419355,12.9032258 C87.7419355,8.63533258 84.2678932,5.16129032 80,5.16129032 L80,5.16129032 Z" id="article_b_sdwan_p1_02" fill="#4D4D4D"></path>
        </g>
    </g>
</svg>