<?xml version="1.0" encoding="UTF-8"?><svg id="a" xmlns="http://www.w3.org/2000/svg" xmlns:xlink="http://www.w3.org/1999/xlink" viewBox="0 0 250 100"><defs><radialGradient id="b" cx="51.75" cy="58.87" fx="51.75" fy="58.87" r="27.93" gradientUnits="userSpaceOnUse"><stop offset=".74" stop-color="#ffd900"/><stop offset="1" stop-color="#5e9644"/></radialGradient><radialGradient id="c" cx="22.84" cy="84.33" fx="22.84" fy="84.33" r="51.1" gradientUnits="userSpaceOnUse"><stop offset="0" stop-color="#fcb811"/><stop offset=".1" stop-color="#f8b111"/><stop offset=".25" stop-color="#ef9e14"/><stop offset=".43" stop-color="#e07f19"/><stop offset=".63" stop-color="#cc541f"/><stop offset=".84" stop-color="#b21d27"/><stop offset=".93" stop-color="#a6042b"/></radialGradient><radialGradient id="d" cx="41.5" cy="33.9" fx="41.5" fy="33.9" r="46.61" gradientUnits="userSpaceOnUse"><stop offset="0" stop-color="#671f7d"/><stop offset=".2" stop-color="#62227f"/><stop offset=".39" stop-color="#562b86"/><stop offset=".59" stop-color="#423c92"/><stop offset=".79" stop-color="#2652a4"/><stop offset=".99" stop-color="#016fb9"/><stop offset="1" stop-color="#0071bb"/></radialGradient><radialGradient id="e" cx="1.91" cy="44.91" fx="1.91" fy="44.91" r="27.93" gradientTransform="translate(57.45 15.89) rotate(8.9)" gradientUnits="userSpaceOnUse"><stop offset=".78" stop-color="#fff100"/><stop offset="1" stop-color="#4cb648"/></radialGradient></defs><path d="m66.29,26.6s-8.01-1.3-19.56,2.59c-4.88,1.64-9.39,4.4-12.71,6.88,3.23-1.7,5.98-2.27,7.83-1.91.7.14,1.28.41,1.7.8.7.68,1.27,1.66,1.57,2.96.45,1.96.27,4.63-.97,7.99-.09.23-.16.45-.26.69-.53,1.32-1.22,2.74-2.11,4.26-1.18,2.05-2.63,4.07-4.12,5.95,3.78-.27,7.76-1.3,11.87-2.84,1.37-.51,2.76-1.08,4.15-1.7,3.39-1.5,6.3-3.17,8.79-4.98,4.36-3.18,7.41-6.79,9.36-10.69,3.07-6.12-1.06-9.19-5.53-10.02Z" style="fill:url(#b);"/><path d="m62.47,47.3c-2.49,1.81-5.4,3.49-8.79,4.98-1.4.62-2.78,1.19-4.15,1.7-4.11,1.54-8.09,2.56-11.87,2.84-3.13.23-6.12-.07-8.91-1.02-.21-.08-.43-.14-.64-.22-.01,0-.02-.01-.04-.02-2.54-.98-3.45-2.86-3.43-5-.14.18-.29.36-.41.54,0,0-3.74,4.3-5.48,10.41-.99,3.48-1.32,7.55.06,11.73.04.12.07.24.12.36,4.12,11.66,16.03,11.07,16.03,11.07,9.54,0,19.44-7.54,24.63-16.38,5.12-8.72,4.72-15.84,2.9-21.01Z" style="fill:url(#c);"/><path d="m43.55,34.96c-.42-.4-.99-.66-1.7-.8-1.85-.36-4.6.21-7.83,1.91-1.42.75-2.93,1.7-4.49,2.9-6.48,4.95-12.96,14.14-16.15,19.79-3.18,5.66-5.07,13.47-1.65,15.55,1.53.93,4.11.37,7.07-1.07-1.38-4.19-1.05-8.25-.06-11.73,1.74-6.11,5.48-10.41,5.48-10.41.13-.18.27-.36.41-.54,1.94-2.53,4.96-5.62,8.72-8.13.46-.31.93-.6,1.41-.89,3.08-1.84,6.58-3.24,10.34-3.63-.3-1.29-.86-2.28-1.57-2.96Z" style="fill:url(#d);"/><path d="m53.68,52.28c-1.4.62-2.78,1.19-4.15,1.7-4.11,1.54-8.09,2.56-11.86,2.84,0,0-.01.01-.02.02,3.78.32,7.87-.08,12.16-.97,1.44-.29,2.89-.64,4.37-1.03,3.51-.94,6.59-2.12,9.3-3.49-.22-1.46-.57-2.81-1.01-4.04-2.49,1.81-5.4,3.49-8.79,4.98Z" style="fill:url(#e); opacity:.45;"/><path d="m43.55,34.96c-.42-.4-.99-.66-1.7-.8-1.85-.36-4.6.21-7.83,1.91-1.83,1.36-3.03,2.76-3.85,3.85-.68.9-1.5,1.97-2.43,3.52-1.31,2.2-3.13,5.52-3.11,7.12,1.94-2.53,4.96-5.62,8.72-8.13.46-.31.93-.6,1.41-.89,3.08-1.84,6.58-3.24,10.34-3.63-.3-1.29-.86-2.28-1.57-2.96Z" style="fill:#4d0b63;"/><path d="m156.16,52.62c-.2-.65-.43-1.39-.68-2.21-.25-.82-.52-1.68-.8-2.58-.28-.9-.54-1.76-.8-2.57-.25-.82-.49-1.55-.7-2.2-.21-.65-.38-1.14-.5-1.45.16.02.31.04.45.06.14.02.3.03.45.03s.31,0,.45-.03c.14-.02.3-.04.45-.06.23.92.45,1.78.67,2.58.22.8.45,1.62.7,2.45.25.83.51,1.7.8,2.61s.61,1.94.97,3.09h.04c.11-.33.26-.78.45-1.35.19-.57.4-1.21.63-1.9.23-.69.47-1.42.73-2.17.25-.75.49-1.46.71-2.15.22-.68.41-1.31.58-1.87.17-.56.29-.99.36-1.3.24.06.44.09.6.09s.36-.03.6-.09c.08.33.21.77.39,1.34.18.57.37,1.2.59,1.89.22.69.45,1.42.7,2.17.25.75.49,1.47.72,2.16.23.69.44,1.31.63,1.87.19.56.33.99.44,1.31h.04c.08-.27.21-.68.39-1.24.18-.56.37-1.2.6-1.9.22-.71.45-1.45.69-2.23.24-.78.46-1.52.67-2.23.21-.71.4-1.34.56-1.89.16-.56.28-.97.33-1.23.11.02.22.04.32.06.1.02.21.03.32.03s.21,0,.32-.03c.1-.02.21-.04.32-.06-.12.28-.3.74-.53,1.38-.23.64-.49,1.37-.77,2.19-.28.82-.58,1.69-.89,2.61-.31.92-.6,1.79-.89,2.62-.28.83-.54,1.57-.76,2.23-.22.66-.39,1.13-.5,1.42-.19-.02-.4-.04-.62-.04s-.42.01-.62.04c-.54-1.68-1.08-3.37-1.61-5.07-.53-1.7-1.1-3.45-1.72-5.27h-.04c-.1.28-.23.65-.39,1.11-.16.47-.34.99-.54,1.57-.2.58-.42,1.2-.64,1.87-.23.66-.46,1.34-.69,2.01-.23.68-.45,1.34-.67,1.99-.22.65-.42,1.24-.6,1.78-.19-.02-.4-.04-.63-.04s-.44.01-.64.04c-.1-.3-.24-.78-.44-1.43Z" style="fill:#58595b;"/><path d="m171.7,45.1c.33-.8.8-1.48,1.4-2.04.6-.56,1.31-.98,2.15-1.27.83-.29,1.75-.44,2.74-.44s1.92.14,2.75.44c.84.29,1.55.71,2.15,1.27.6.56,1.06,1.24,1.4,2.04.33.8.5,1.72.5,2.75s-.17,1.94-.5,2.75c-.33.8-.8,1.48-1.4,2.04-.6.56-1.31.97-2.15,1.24-.83.27-1.75.41-2.75.41s-1.9-.14-2.74-.41-1.55-.69-2.15-1.24c-.6-.56-1.06-1.24-1.4-2.04-.33-.8-.5-1.72-.5-2.75s.17-1.94.5-2.75Zm10.92.14c-.25-.73-.61-1.34-1.06-1.81-.45-.48-.99-.83-1.59-1.06-.61-.23-1.27-.34-1.99-.34s-1.36.12-1.97.34c-.61.23-1.14.58-1.59,1.06-.45.48-.81,1.08-1.06,1.81-.25.73-.38,1.6-.38,2.6s.13,1.87.38,2.6c.25.73.61,1.34,1.06,1.81.45.48.98.83,1.59,1.06.61.23,1.27.34,1.97.34s1.38-.11,1.99-.34c.61-.23,1.14-.58,1.59-1.06.45-.48.81-1.08,1.06-1.81.25-.73.38-1.6.38-2.6s-.13-1.87-.38-2.6Z" style="fill:#58595b;"/><path d="m187.45,43.94c-.03-.77-.06-1.55-.1-2.35.35.02.7.04,1.03.06.34.02.68.03,1.03.03s.69-.01,1.03-.05c.34-.03.68-.04,1.03-.04.51,0,.99.05,1.45.14.46.1.86.26,1.21.48.34.22.62.52.82.88.2.36.3.82.3,1.36,0,.58-.13,1.08-.39,1.5-.26.42-.58.76-.95,1.03-.37.27-.78.48-1.21.63-.43.15-.82.25-1.17.3.15.18.35.43.6.76.25.33.54.69.85,1.08.31.39.64.8.98,1.23.34.43.66.84.98,1.23.31.39.61.75.89,1.08.28.33.5.57.67.74-.18-.02-.36-.04-.54-.04h-1.07c-.18,0-.36.01-.53.04-.18-.25-.46-.63-.82-1.14-.37-.51-.78-1.05-1.22-1.63-.45-.58-.9-1.16-1.37-1.73-.46-.57-.89-1.06-1.28-1.46h-.69v1.32c0,.8.01,1.58.04,2.36.03.77.06,1.54.1,2.28-.28-.02-.57-.04-.89-.04s-.61.01-.89.04c.04-.75.07-1.51.1-2.28.03-.77.05-1.56.05-2.36v-3.12c0-.8-.02-1.58-.05-2.35Zm2.09,3.45c.2.01.42.02.66.02.37,0,.76-.04,1.17-.13.41-.08.78-.23,1.12-.44.34-.21.62-.5.84-.85.22-.36.34-.81.34-1.35,0-.47-.09-.86-.26-1.17-.18-.31-.4-.55-.68-.73-.28-.18-.58-.31-.91-.37-.33-.07-.65-.1-.96-.1-.42,0-.77,0-1.05.03-.28.02-.51.04-.71.06-.02.66-.05,1.32-.07,1.98-.02.65-.04,1.31-.04,1.96v1.03c.17.04.35.06.55.07Z" style="fill:#58595b;"/><path d="m198.71,43.94c-.03-.77-.06-1.55-.1-2.35.16.02.31.04.45.06.14.02.29.03.44.03s.29,0,.44-.03c.14-.02.3-.04.45-.06-.04.8-.07,1.58-.1,2.35-.03.77-.04,1.55-.04,2.35,0,1.52,0,2.84.02,3.96.01,1.12.02,2.12.04,3,.86,0,1.68,0,2.47-.03.79-.02,1.63-.09,2.54-.21-.06.22-.09.4-.09.54,0,.13.03.3.09.49-.56-.02-1.11-.04-1.67-.04h-3.35c-.54,0-1.1.01-1.68.04.04-.75.07-1.51.1-2.28.03-.77.05-1.56.05-2.36v-3.12c0-.8-.02-1.58-.05-2.35Z" style="fill:#58595b;"/><path d="m207.95,43.94c-.03-.77-.06-1.55-.1-2.35.46.02.91.04,1.37.06.45.02.91.03,1.37.03s.91-.01,1.37-.05c.45-.03.91-.04,1.37-.04,1.06,0,1.97.14,2.73.42.75.28,1.37.67,1.86,1.19.48.51.84,1.14,1.06,1.89.22.74.34,1.58.34,2.51,0,1.21-.21,2.23-.62,3.05-.42.83-.95,1.5-1.6,2-.65.51-1.36.87-2.14,1.08-.78.21-1.53.32-2.24.32-.41,0-.82,0-1.21-.02-.4-.01-.8-.02-1.21-.02h-1.21c-.4,0-.8.01-1.21.04.04-.75.07-1.51.1-2.28.03-.77.05-1.56.05-2.36v-3.12c0-.8-.02-1.58-.05-2.35Zm1.64,9.31c.25.06.6.11,1.03.14.44.03.88.04,1.34.04.66,0,1.33-.08,1.99-.24.66-.16,1.26-.45,1.78-.89.53-.44.95-1.03,1.29-1.79s.5-1.73.5-2.93c0-1.05-.13-1.91-.39-2.59-.26-.68-.62-1.21-1.07-1.6-.45-.39-.99-.66-1.62-.82-.63-.15-1.32-.23-2.07-.23-.54,0-1.05.02-1.52.05-.47.04-.89.08-1.27.13-.04.58-.06,1.19-.08,1.82-.02.63-.03,1.28-.03,1.93v3.12c0,1.31.04,2.59.11,3.84Z" style="fill:#58595b;"/><path d="m164.24,71.55c-.17-.02-.33-.04-.48-.04h-.96c-.15,0-.31.01-.48.04-.09-.28-.2-.61-.34-1.01s-.31-.8-.48-1.23c-.18-.43-.35-.86-.53-1.31-.18-.44-.35-.86-.51-1.26-.39-.01-.78-.02-1.18-.03-.4,0-.8,0-1.2,0-.37,0-.74,0-1.1,0-.36,0-.73.02-1.11.03-.39.94-.74,1.84-1.05,2.69-.31.85-.55,1.56-.71,2.11-.21-.02-.43-.04-.67-.04s-.46.01-.67.04c.98-2.11,1.93-4.22,2.86-6.31.93-2.09,1.87-4.22,2.81-6.38h.34c.29.7.6,1.46.94,2.28.34.82.68,1.64,1.03,2.47.35.83.7,1.66,1.05,2.48.35.82.68,1.59.99,2.29.31.71.59,1.34.84,1.89.25.56.45.98.61,1.27Zm-8.03-5.64c.31,0,.64,0,.98.02.34.01.66.02.98.02.34,0,.68,0,1.01,0s.68-.02,1.02-.03l-2.01-4.6-1.98,4.6Z" style="fill:#58595b;"/><path d="m166.46,61.45c-.03-.77-.06-1.55-.1-2.35.16.02.31.04.45.06.15.02.29.03.43.03s.29,0,.44-.03c.15-.02.3-.04.45-.06-.04.8-.07,1.58-.1,2.35-.03.77-.05,1.55-.05,2.35,0,1.52,0,2.84.02,3.96.01,1.12.02,2.12.04,3,.86,0,1.68,0,2.46-.03.79-.02,1.63-.09,2.54-.21-.06.22-.09.4-.09.54,0,.13.03.3.09.49-.56-.02-1.11-.04-1.67-.04h-3.34c-.54,0-1.1.01-1.68.04.04-.75.07-1.51.1-2.28.03-.77.04-1.56.04-2.36v-3.12c0-.8-.01-1.58-.04-2.35Z" style="fill:#58595b;"/><path d="m175.7,61.45c-.03-.77-.06-1.55-.1-2.35.16.02.31.04.45.06.15.02.29.03.44.03s.29,0,.44-.03c.14-.02.3-.04.45-.06-.04.8-.07,1.58-.1,2.35-.03.77-.05,1.55-.05,2.35,0,1.52,0,2.84.02,3.96.01,1.12.02,2.12.04,3,.86,0,1.68,0,2.47-.03.79-.02,1.63-.09,2.54-.21-.06.22-.09.4-.09.54,0,.13.03.3.09.49-.56-.02-1.11-.04-1.67-.04h-3.34c-.54,0-1.1.01-1.68.04.04-.75.07-1.51.1-2.28.03-.77.04-1.56.04-2.36v-3.12c0-.8-.02-1.58-.04-2.35Z" style="fill:#58595b;"/><path d="m184.95,61.45c-.03-.77-.06-1.55-.1-2.35.16.02.31.04.45.06.15.02.29.03.44.03s.29,0,.44-.03c.14-.02.3-.04.45-.06-.04.8-.07,1.58-.1,2.35-.03.77-.05,1.55-.05,2.35v3.12c0,.8.02,1.58.05,2.36.03.77.06,1.54.1,2.28-.28-.02-.57-.04-.89-.04s-.61.01-.89.04c.04-.75.07-1.51.1-2.28.03-.77.04-1.56.04-2.36v-3.12c0-.8-.02-1.58-.04-2.35Z" style="fill:#58595b;"/><path d="m200.22,71.55c-.17-.02-.33-.04-.48-.04h-.96c-.15,0-.31.01-.48.04-.09-.28-.2-.61-.34-1.01-.15-.39-.31-.8-.48-1.23-.18-.43-.35-.86-.53-1.31-.18-.44-.35-.86-.51-1.26-.39-.01-.78-.02-1.18-.03-.4,0-.8,0-1.2,0-.37,0-.74,0-1.1,0-.36,0-.73.02-1.11.03-.39.94-.74,1.84-1.05,2.69-.31.85-.55,1.56-.71,2.11-.21-.02-.43-.04-.67-.04s-.46.01-.67.04c.98-2.11,1.93-4.22,2.86-6.31.93-2.09,1.87-4.22,2.81-6.38h.34c.29.7.6,1.46.94,2.28.34.82.68,1.64,1.03,2.47.35.83.7,1.66,1.05,2.48.35.82.68,1.59.99,2.29.31.71.59,1.34.84,1.89.25.56.45.98.61,1.27Zm-8.03-5.64c.31,0,.64,0,.98.02.34.01.66.02.98.02.34,0,.68,0,1.01,0s.68-.02,1.02-.03l-2.01-4.6-1.98,4.6Z" style="fill:#58595b;"/><path d="m208.25,66.85c-1.57-1.69-3.14-3.36-4.71-5.03-.01.34-.02.79-.04,1.36-.01.57-.02,1.34-.02,2.32,0,.25,0,.57,0,.94,0,.38.01.77.02,1.18,0,.41.02.83.03,1.25.01.42.02.82.04,1.18s.02.68.04.95c.01.27.02.46.04.55-.19-.02-.41-.04-.63-.04-.24,0-.46.01-.67.04.02-.12.05-.34.08-.67.03-.33.06-.72.08-1.17.02-.45.05-.94.08-1.48.03-.53.05-1.06.07-1.6.02-.53.03-1.05.04-1.56.01-.51.02-.96.02-1.36,0-1.16,0-2.16,0-2.99,0-.83-.02-1.46-.05-1.87h.29c.74.8,1.52,1.65,2.36,2.57.84.91,1.67,1.81,2.5,2.7.83.89,1.61,1.73,2.36,2.52.74.79,1.39,1.47,1.95,2.02v-2.47c0-1.27,0-2.51-.03-3.71-.02-1.2-.06-2.34-.12-3.4.24.06.45.09.62.09.14,0,.34-.03.58-.09-.02.26-.05.66-.08,1.2-.03.53-.06,1.1-.09,1.7-.03.6-.06,1.2-.08,1.78-.02.58-.04,1.05-.04,1.4v1.09c0,.41,0,.84,0,1.29,0,.45.01.9.02,1.35,0,.45.01.88.02,1.27s0,.73,0,1.02v.6h-.25c-1.39-1.61-2.87-3.26-4.44-4.94Z" style="fill:#58595b;"/><path d="m225.62,71.13c-.23.11-.52.22-.85.31-.33.09-.7.17-1.11.25-.41.07-.84.11-1.29.11-.96,0-1.84-.14-2.65-.41-.81-.27-1.51-.68-2.09-1.24-.59-.56-1.05-1.24-1.38-2.04-.33-.8-.5-1.72-.5-2.75s.17-1.94.5-2.75c.33-.8.8-1.48,1.4-2.04.6-.55,1.31-.98,2.15-1.27.83-.29,1.75-.44,2.75-.44.8,0,1.52.08,2.18.25.66.16,1.24.36,1.75.59-.1.17-.18.4-.23.69-.06.29-.11.53-.15.73l-.11.04c-.12-.15-.29-.31-.51-.49-.22-.18-.47-.36-.76-.53-.29-.17-.62-.31-.98-.43-.36-.11-.76-.17-1.2-.17-.71,0-1.38.11-1.98.34-.61.23-1.14.58-1.6,1.06-.45.48-.81,1.08-1.06,1.81s-.38,1.6-.38,2.6.13,1.87.38,2.6.61,1.34,1.06,1.81c.45.48.99.83,1.6,1.06.61.23,1.27.34,1.98.34.44,0,.84-.05,1.21-.16.37-.11.71-.24,1.01-.39.31-.15.59-.31.84-.49.25-.18.46-.33.62-.46l.07.07-.16,1.07c-.11.1-.28.2-.52.32Z" style="fill:#58595b;"/><path d="m229,61.42c-.03-.77-.06-1.55-.1-2.32.54.02,1.08.04,1.62.06.54.02,1.08.03,1.62.03s1.08,0,1.61-.03c.53-.02,1.07-.04,1.61-.06-.04.18-.05.36-.05.54s.02.36.05.54c-.39-.02-.74-.05-1.06-.07-.32-.02-.66-.05-1.02-.07-.36-.02-.75-.05-1.17-.06-.42-.02-.93-.03-1.52-.03-.01.39-.03.76-.05,1.11-.02.35-.03.75-.03,1.2,0,.47,0,.93,0,1.38,0,.45,0,.79,0,1.02.53,0,1.01,0,1.43-.02s.81-.03,1.16-.04c.35-.02.67-.04.97-.05.3-.02.58-.04.84-.06-.04.18-.05.37-.05.56,0,.18.02.36.05.54-.31-.04-.68-.07-1.1-.09-.42-.02-.83-.04-1.25-.04-.42,0-.81-.01-1.18-.02-.37,0-.66,0-.88,0,0,.11,0,.23,0,.35,0,.13,0,.29,0,.48v1.79c0,.69,0,1.26,0,1.7,0,.45.01.79.03,1.01h1.27c.46,0,.91,0,1.35-.03.44-.02.86-.04,1.25-.07.39-.03.73-.08,1.02-.14-.02.09-.04.18-.04.28,0,.1,0,.2,0,.28,0,.19.02.35.05.47-.54-.02-1.08-.04-1.62-.04h-3.29c-.54,0-1.1.01-1.65.04.04-.77.07-1.54.1-2.31.03-.77.05-1.55.05-2.35v-3.12c0-.8-.02-1.58-.05-2.36Z" style="fill:#58595b;"/><line x1="145.03" y1="41.73" x2="145.03" y2="71.15" style="fill:none; stroke:#58595b; stroke-miterlimit:10; stroke-width:.51px;"/><path d="m237.61,60.84c.16-.37.38-.69.65-.97.27-.27.6-.49.97-.65.37-.16.77-.24,1.18-.24s.81.08,1.18.24c.37.16.69.37.97.65.27.27.49.6.65.97.16.37.24.76.24,1.18s-.08.82-.24,1.19c-.16.37-.37.69-.65.96-.27.27-.6.48-.97.64-.37.15-.76.23-1.18.23s-.81-.08-1.18-.23c-.37-.15-.69-.36-.97-.64-.27-.27-.49-.59-.65-.96-.16-.37-.24-.76-.24-1.19s.08-.81.24-1.18Zm.33,2.24c.14.33.33.62.57.87.24.25.52.44.85.58.33.14.68.22,1.05.22s.72-.07,1.05-.22c.33-.14.61-.34.85-.58.24-.25.43-.53.57-.87.14-.33.21-.68.21-1.06s-.07-.73-.21-1.06c-.14-.33-.33-.62-.57-.87-.24-.25-.53-.44-.85-.58-.33-.14-.68-.22-1.05-.22s-.72.07-1.05.22c-.33.14-.61.34-.85.58-.24.25-.43.53-.57.87-.14.33-.21.68-.21,1.06s.07.72.21,1.06Zm1.33-2.45c-.01-.21-.02-.39-.04-.55.11.01.23.02.34.03.11,0,.23.01.35.01.11,0,.23,0,.34-.02s.23-.02.34-.02c.15,0,.28.02.41.05.13.03.24.09.34.16.09.07.17.16.23.26.06.1.08.23.08.38,0,.17-.04.32-.12.45-.08.13-.18.24-.3.33-.12.09-.24.16-.38.2-.13.04-.25.07-.36.08.11.13.24.29.37.48.13.18.27.36.42.54.14.18.27.34.4.49.12.15.23.26.31.34v.04c-.06-.01-.12-.02-.18-.03-.05,0-.1-.01-.15-.01-.08,0-.19.01-.33.04-.21-.31-.43-.61-.65-.91-.22-.3-.46-.6-.72-.91h-.27v.59c0,.41.02.81.05,1.22-.11-.03-.2-.04-.27-.04-.07,0-.17.01-.28.04.01-.2.02-.4.04-.59.01-.2.02-.4.02-.59v-1.45c0-.19,0-.39-.02-.6Zm.6,1.21c.07,0,.14,0,.22,0,.15,0,.28-.02.41-.05.13-.03.24-.08.34-.15.1-.07.18-.16.23-.27.06-.11.09-.24.09-.39,0-.22-.07-.39-.22-.52-.14-.12-.34-.19-.57-.19-.11,0-.21,0-.31.01-.1,0-.19.02-.28.03-.01.13-.02.26-.03.4-.01.14-.02.27-.02.4v.69s.07.02.14.03Z" style="fill:#58595b;"/><text transform="translate(76.77 71.15)" style="fill:#58595b; font-family:Optima-Medium, Optima; font-size:43.6px; font-weight:500;"><tspan x="0" y="0">I</tspan><tspan x="14.52" y="0" style="letter-spacing:-.1em;">o</tspan><tspan x="36.93" y="0">T</tspan></text></svg>