<?xml version="1.0" encoding="UTF-8"?>
<svg width="250px" height="100px" viewBox="0 0 250 100" version="1.1" xmlns="http://www.w3.org/2000/svg" xmlns:xlink="http://www.w3.org/1999/xlink">
    <!-- Generator: Sketch 59.1 (86144) - https://sketch.com -->
    <title>brand/brand_17</title>
    <desc>Created with Sketch.</desc>
    <g id="brand/brand_17" stroke="none" stroke-width="1" fill="none" fill-rule="evenodd">
        <g id="Group" transform="translate(52.000000, 39.000000)" fill="#757374" fill-rule="nonzero">
            <path d="M63.0674487,20.9325513 L56.7624633,3.27859238 C56.7624633,3.02639296 56.5102639,2.77419355 56.5102639,2.52199413 C56.5102639,1.76539589 57.2668622,1.00879765 58.0234604,1.00879765 C58.7800587,1.00879765 59.2844575,1.51319648 59.5366569,2.26979472 L64.8328446,17.6539589 L70.1290323,2.26979472 C70.3812317,1.51319648 70.8856305,1.00879765 71.6422287,1.00879765 L71.8944282,1.00879765 C72.6510264,1.00879765 73.4076246,1.51319648 73.4076246,2.26979472 L78.7038123,17.6539589 L84,2.26979472 C84.2521994,1.51319648 84.7565982,1.00879765 85.5131965,1.00879765 C86.5219941,1.00879765 87.026393,1.76539589 87.026393,2.52199413 C87.026393,2.77419355 87.026393,3.02639296 86.7741935,3.27859238 L80.4692082,21.1847507 C80.2170088,22.1935484 79.4604106,22.6979472 78.7038123,22.6979472 L78.7038123,22.6979472 C77.9472141,22.6979472 77.1906158,22.1935484 76.9384164,21.1847507 L71.6422287,6.05278592 L66.3460411,21.1847507 C66.0938416,22.1935484 65.3372434,22.6979472 64.5806452,22.6979472 L64.5806452,22.6979472 C63.8240469,22.4457478 63.3196481,21.941349 63.0674487,20.9325513" id="Path"></path>
            <path d="M109.472141,2.26979472 C109.472141,1.51319648 110.228739,0.75659824 110.985337,0.75659824 C111.994135,0.75659824 112.498534,1.51319648 112.498534,2.26979472 L112.498534,5.80058651 C114.01173,2.26979472 117.542522,0.75659824 119.812317,0.75659824 C120.821114,0.75659824 121.325513,1.51319648 121.325513,2.26979472 C121.325513,3.02639296 120.821114,3.7829912 120.064516,3.7829912 C116.029326,4.28739003 112.750733,7.31378299 112.750733,13.3665689 L112.750733,20.4281525 C112.750733,21.1847507 111.994135,21.941349 111.237537,21.941349 C110.228739,21.941349 109.72434,21.1847507 109.72434,20.4281525 L109.72434,2.26979472" id="Path"></path>
            <path d="M131.41349,22.4457478 C125.865103,22.4457478 121.073314,18.1583578 121.073314,11.601173 L121.073314,11.601173 C121.073314,5.5483871 125.360704,0.75659824 130.909091,0.75659824 C136.961877,0.75659824 140.492669,5.80058651 140.492669,11.3489736 C140.492669,12.1055718 139.73607,12.8621701 138.979472,12.8621701 L124.099707,12.8621701 C124.604106,17.4017595 127.630499,19.9237537 131.41349,19.9237537 C133.935484,19.9237537 135.953079,18.914956 137.466276,17.4017595 C137.718475,17.1495601 137.970674,17.1495601 138.222874,17.1495601 C138.979472,17.1495601 139.483871,17.6539589 139.483871,18.4105572 C139.483871,18.6627566 139.231672,19.1671554 138.979472,19.4193548 C137.214076,21.1847507 134.944282,22.4457478 131.41349,22.4457478 M137.466276,10.340176 C137.214076,6.55718475 134.944282,3.27859238 130.909091,3.27859238 C127.378299,3.27859238 124.604106,6.30498534 124.099707,10.340176 L137.466276,10.340176 Z" id="Shape"></path>
            <path d="M87.2785924,15.888563 L87.2785924,15.888563 C87.2785924,11.3489736 90.8093842,9.07917889 96.3577713,9.07917889 C99.1319648,9.07917889 100.897361,9.3313783 102.914956,10.0879765 L102.914956,9.3313783 C102.914956,5.5483871 100.645161,3.53079179 96.6099707,3.53079179 C94.5923754,3.53079179 93.3313783,3.7829912 91.8181818,4.53958944 C91.5659824,4.53958944 91.313783,4.53958944 91.313783,4.53958944 C90.5571848,4.53958944 90.0527859,4.03519062 90.0527859,3.27859238 C90.0527859,2.52199413 90.3049853,2.26979472 90.8093842,2.01759531 C92.8269795,1.00879765 94.340176,0.75659824 97.1143695,0.75659824 C100.140762,0.75659824 102.410557,1.51319648 103.923754,3.02639296 C105.43695,4.53958944 106.193548,6.55718475 106.193548,9.07917889 L106.193548,20.6803519 C106.193548,21.6891496 105.43695,22.1935484 104.680352,22.1935484 C103.671554,22.1935484 103.167155,21.4369501 103.167155,20.6803519 L103.167155,18.6627566 C101.653959,20.6803519 99.3841642,22.1935484 95.601173,22.1935484 C91.0615836,22.4457478 87.2785924,20.1759531 87.2785924,15.888563 M102.662757,14.3753666 L102.662757,12.3577713 C101.14956,11.8533724 99.1319648,11.3489736 96.6099707,11.3489736 C92.5747801,11.3489736 90.5571848,13.1143695 90.5571848,15.6363636 L90.5571848,15.6363636 C90.5571848,18.1583578 93.0791789,19.9237537 95.8533724,19.9237537 C99.6363636,19.9237537 102.662757,17.6539589 102.662757,14.3753666" id="Shape"></path>
            <path d="M6.07038123,2.01759531 C5.31378299,0.504398827 3.80058651,-0.252199413 2.03519062,0.504398827 C0.521994135,1.26099707 -0.234604106,3.02639296 0.521994135,4.53958944 L7.07917889,18.914956 C8.08797654,21.1847507 9.34897361,22.4457478 11.3665689,22.4457478 C13.6363636,22.4457478 14.6451613,21.1847507 15.6539589,18.914956 C15.6539589,18.914956 21.4545455,6.30498534 21.4545455,6.05278592 C21.4545455,5.80058651 21.7067449,5.5483871 22.2111437,5.5483871 C22.7155425,5.5483871 23.2199413,6.05278592 23.2199413,6.55718475 L23.2199413,18.914956 C23.2199413,20.9325513 24.228739,22.4457478 26.2463343,22.4457478 C28.2639296,22.4457478 29.2727273,20.9325513 29.2727273,18.914956 L29.2727273,8.82697947 C29.2727273,6.80938416 30.7859238,5.5483871 32.5513196,5.5483871 C34.568915,5.5483871 35.829912,6.80938416 35.829912,8.82697947 L35.829912,18.914956 C35.829912,20.9325513 36.8387097,22.4457478 38.856305,22.4457478 C40.8739003,22.4457478 41.8826979,20.9325513 41.8826979,18.914956 L41.8826979,8.82697947 C41.8826979,6.80938416 43.3958944,5.5483871 45.1612903,5.5483871 C47.1788856,5.5483871 48.4398827,6.80938416 48.4398827,8.82697947 L48.4398827,18.914956 C48.4398827,20.9325513 49.4486804,22.4457478 51.4662757,22.4457478 C53.483871,22.4457478 54.4926686,20.9325513 54.4926686,18.914956 L54.4926686,7.5659824 C54.4926686,3.27859238 51.2140762,0.252199413 46.9266862,0.252199413 C42.8914956,0.252199413 40.3695015,3.02639296 40.3695015,3.02639296 C39.1085044,1.26099707 37.0909091,0.252199413 34.0645161,0.252199413 C30.7859238,0.252199413 27.7595308,3.02639296 27.7595308,3.02639296 C26.4985337,1.26099707 23.9765396,0.252199413 22.2111437,0.252199413 C19.1847507,0.252199413 16.914956,1.51319648 15.4017595,4.79178886 L11.1143695,14.8797654 L6.07038123,2.01759531" id="Path"></path>
            <path d="M140.997067,3.27859238 L140.997067,3.27859238 C140.997067,1.76539589 142.258065,0.75659824 143.519062,0.75659824 C145.032258,0.75659824 146.041056,2.01759531 146.041056,3.27859238 L146.041056,3.27859238 C146.041056,4.79178886 144.780059,5.80058651 143.519062,5.80058651 C142.005865,6.05278592 140.997067,4.79178886 140.997067,3.27859238 M145.536657,3.27859238 L145.536657,3.27859238 C145.536657,2.01759531 144.527859,1.26099707 143.519062,1.26099707 C142.258065,1.26099707 141.501466,2.26979472 141.501466,3.27859238 L141.501466,3.27859238 C141.501466,4.53958944 142.510264,5.29618768 143.519062,5.29618768 C144.780059,5.5483871 145.536657,4.53958944 145.536657,3.27859238" id="Shape"></path>
            <path d="M142.510264,2.26979472 C142.510264,2.01759531 142.762463,2.01759531 142.762463,2.01759531 L143.519062,2.01759531 C143.771261,2.01759531 144.02346,2.01759531 144.27566,2.26979472 C144.527859,2.52199413 144.527859,2.52199413 144.527859,2.77419355 L144.527859,2.77419355 C144.527859,3.27859238 144.27566,3.53079179 144.02346,3.53079179 L144.527859,4.03519062 C144.527859,4.03519062 144.527859,4.28739003 144.527859,4.28739003 C144.527859,4.53958944 144.27566,4.53958944 144.27566,4.53958944 C144.27566,4.53958944 144.02346,4.53958944 144.02346,4.28739003 L143.519062,3.53079179 L143.014663,3.53079179 L143.014663,4.03519062 C143.014663,4.28739003 143.014663,4.28739003 142.762463,4.28739003 C142.510264,4.28739003 142.510264,4.28739003 142.510264,4.03519062 L142.510264,2.26979472 Z M143.519062,3.27859238 C143.771261,3.27859238 144.02346,3.02639296 144.02346,3.02639296 L144.02346,3.02639296 C144.02346,2.77419355 143.771261,2.77419355 143.519062,2.77419355 L143.014663,2.77419355 L143.014663,3.53079179 L143.519062,3.53079179 L143.519062,3.27859238 Z" id="Shape"></path>
        </g>
    </g>
</svg>