<?xml version="1.0" encoding="UTF-8"?>
<svg width="120px" height="120px" viewBox="0 0 120 120" version="1.1" xmlns="http://www.w3.org/2000/svg" xmlns:xlink="http://www.w3.org/1999/xlink">
    <!-- Generator: Sketch 55.2 (78181) - https://sketchapp.com -->
    <title>icon/120/control</title>
    <desc>Created with Sketch.</desc>
    <g id="icon/120/control" stroke="none" stroke-width="1" fill="none" fill-rule="evenodd">
        <path d="M93.3333333,20 C97.0134042,20.0044082 99.9955918,22.9865958 100,26.6666667 L100,77.3333333 C99.9955918,81.0134042 97.0134042,83.9955918 93.3333333,84 L70.844,84 L71.844,92 L74.6666667,92 C76.8758057,92 78.6666667,93.790861 78.6666667,96 C78.6666667,98.209139 76.8758057,100 74.6666667,100 L45.3333333,100 C43.1241943,100 41.3333333,98.209139 41.3333333,96 C41.3333333,93.790861 43.1241943,92 45.3333333,92 L48.156,92 L49.156,84 L26.6666667,84 C22.9865958,83.9955918 20.0044082,81.0134042 20,77.3333333 L20,26.6666667 C20.0044082,22.9865958 22.9865958,20.0044082 26.6666667,20 L93.3333333,20 Z M90.9666667,57.0666667 C91.5694394,57.2058534 91.9973022,57.741372 92,58.36 L92,62.6666667 L94.6666667,62.6666667 L94.6666667,58.36 C94.6665538,57.7380832 95.0964107,57.1986874 95.7026667,57.06 C96.2594281,56.9334965 96.8048267,56.7613592 97.3333333,56.5453333 L97.3333333,36.788 C96.8048267,36.5719741 96.2594281,36.3998369 95.7026667,36.2733333 C95.0964107,36.1346459 94.6665538,35.5952501 94.6666667,34.9733333 L94.6666667,30.6666667 L92,30.6666667 L92,34.9733333 C92.0022662,35.5959508 91.5733245,36.1372476 90.9666667,36.2773333 C89.8006829,36.5399063 88.6890902,37.0027692 87.6813333,37.6453333 C87.1537001,37.984638 86.4609063,37.9102515 86.0173333,37.4666667 L82.96,34.4 L81.0666667,36.2933333 L84.1293333,39.3506667 C84.5717916,39.7943665 84.6455898,40.4862945 84.3066667,41.0133333 C83.6649773,42.0213935 83.202598,43.1329082 82.94,44.2986667 C82.8007797,44.9043928 82.2615194,45.3335887 81.64,45.3333333 L77.3333333,45.3333333 L77.3333333,48 L81.64,48 C82.2630148,47.9978758 82.8044475,48.4274789 82.944,49.0346667 C83.2063584,50.2000847 83.6687597,51.3112013 84.3106667,52.3186667 C84.6503162,52.8459967 84.5764881,53.5387604 84.1333333,53.9826667 L81.0666667,57.04 L82.96,58.9333333 L86.0173333,55.8773333 C86.4609063,55.4337485 87.1537001,55.359362 87.6813333,55.6986667 C88.6890902,56.3412308 89.8006829,56.8040937 90.9666667,57.0666667 Z M26.6666667,22.6666667 C24.4575277,22.6666667 22.6666667,24.4575277 22.6666667,26.6666667 L22.6666667,28.4413333 C30.1334697,26.788197 37.853328,29.8567848 42.1476482,36.1848825 C46.4419684,42.5129802 46.4419684,50.8203531 42.1476482,57.1484508 C37.853328,63.4765486 30.1334697,66.5451364 22.6666667,64.892 L22.6666667,70.6666667 L97.3333333,70.6666667 L97.3333333,64 C97.3333333,64.7363797 96.7363797,65.3333333 96,65.3333333 L90.6666667,65.3333333 C89.930287,65.3333333 89.3333333,64.7363797 89.3333333,64 L89.3333333,59.3786667 C88.5892043,59.1448348 87.8676276,58.8445125 87.1773333,58.4813333 L83.9026667,61.756 C83.3820002,62.2765093 82.5379998,62.2765093 82.0173333,61.756 L78.244,57.9826667 C77.7234907,57.4620002 77.7234907,56.6179998 78.244,56.0973333 L81.5173333,52.8226667 C81.1551494,52.1320736 80.8552943,51.4105472 80.6213333,50.6666667 L76,50.6666667 C75.2636203,50.6666667 74.6666667,50.069713 74.6666667,49.3333333 L74.6666667,44 C74.6666667,43.2636203 75.2636203,42.6666667 76,42.6666667 L80.6213333,42.6666667 C80.8551649,41.9221086 81.1554858,41.2000892 81.5186667,40.5093333 L78.244,37.236 C77.7234907,36.7153335 77.7234907,35.8713331 78.244,35.3506667 L82.0173333,31.5773333 C82.5379998,31.0568241 83.3820002,31.0568241 83.9026667,31.5773333 L87.1773333,34.852 C87.8676276,34.4888208 88.5892043,34.1884985 89.3333333,33.9546667 L89.3333333,29.3333333 C89.3333333,28.5969537 89.930287,28 90.6666667,28 L96,28 C96.7363797,28 97.3333333,28.5969537 97.3333333,29.3333333 L97.3333333,26.6666667 C97.3333333,24.4575277 95.5424723,22.6666667 93.3333333,22.6666667 L26.6666667,22.6666667 Z M28,32 C28,32.7363797 27.4030463,33.3333333 26.6666667,33.3333333 C25.930287,33.3333333 25.3333333,32.7363797 25.3333333,32 L25.3333333,30.724 C24.4330545,30.8003184 23.5409295,30.9533178 22.6666667,31.1813333 L22.6666667,62.152 C23.5409295,62.3800155 24.4330545,62.5330149 25.3333333,62.6093333 L25.3333333,61.3333333 C25.3333333,60.5969537 25.930287,60 26.6666667,60 C27.4030463,60 28,60.5969537 28,61.3333333 L28,62.6013333 C31.3108735,62.3315615 34.4531902,61.0278988 36.9826667,58.8746667 L36.088,57.98 C35.5673796,57.4593796 35.5673796,56.6152871 36.088,56.0946667 C36.6086204,55.5740462 37.4527129,55.5740462 37.9733333,56.0946667 L38.868,56.9893333 C41.0249276,54.4588966 42.3310384,51.3139686 42.6013333,48 L41.3333333,48 C40.5969537,48 40,47.4030463 40,46.6666667 C40,45.930287 40.5969537,45.3333333 41.3333333,45.3333333 L42.6013333,45.3333333 C42.3315615,42.0224599 41.0278988,38.8801431 38.8746667,36.3506667 L37.98,37.2453333 C37.4593796,37.7659538 36.6152871,37.7659538 36.0946667,37.2453333 C35.5740462,36.7247129 35.5740462,35.8806204 36.0946667,35.36 L36.9893333,34.4653333 C34.4588966,32.3084057 31.3139686,31.002295 28,30.732 L28,32 Z M76,96 C76,95.2636203 75.4030463,94.6666667 74.6666667,94.6666667 L45.3333333,94.6666667 C44.5969537,94.6666667 44,95.2636203 44,96 C44,96.7363797 44.5969537,97.3333333 45.3333333,97.3333333 L74.6666667,97.3333333 C75.4030463,97.3333333 76,96.7363797 76,96 Z M69.156,92 L68.156,84 L51.844,84 L50.844,92 L69.156,92 Z M93.3333333,81.3333333 C95.5424723,81.3333333 97.3333333,79.5424723 97.3333333,77.3333333 L97.3333333,73.3333333 L22.6666667,73.3333333 L22.6666667,77.3333333 C22.6666667,79.5424723 24.4575277,81.3333333 26.6666667,81.3333333 L93.3333333,81.3333333 Z M49.3333333,64 C48.5969537,64 48,63.4030463 48,62.6666667 L48,58.6666667 C48.0077529,54.0305361 51.4123177,50.1005336 56,49.432 L56,47.9653333 C54.3272426,46.7168027 53.3394142,44.7539878 53.3333333,42.6666667 L53.3333333,41.3333333 C52.5969537,41.3333333 52,40.7363797 52,40 L52,37.3333333 C52,32.9150553 55.581722,29.3333333 60,29.3333333 C64.418278,29.3333333 68,32.9150553 68,37.3333333 L68,40 C68,40.7363797 67.4030463,41.3333333 66.6666667,41.3333333 L66.6666667,42.6666667 C66.6593295,44.7525785 65.6716343,46.7136472 64,47.9613333 L64,49.428 C68.589182,50.0967551 71.9942294,54.0290173 72,58.6666667 L72,62.6666667 C72,63.4030463 71.4030463,64 70.6666667,64 L49.3333333,64 Z M54.6666667,37.3333333 L54.6666667,38.6666825 L56.4573333,38.6666825 C57.5188794,38.6696552 58.5375715,38.2481605 59.2866667,37.496 L60.3906667,36.3906667 C60.9113331,35.8701574 61.7553335,35.8701574 62.276,36.3906667 L64.1613333,38.276 C64.4120618,38.5249593 64.7506679,38.6652869 65.104,38.6666825 L65.3333333,38.6666825 L65.3333333,37.3333333 C65.3333333,34.3878147 62.9455187,32 60,32 C57.0544813,32 54.6666667,34.3878147 54.6666667,37.3333333 Z M56.4573333,41.3333333 L56,41.3333333 L56,42.6666667 C56,44.8758057 57.790861,46.6666667 60,46.6666667 C62.209139,46.6666667 64,44.8758057 64,42.6666667 L64,41.16 C63.3493827,40.9800284 62.7558022,40.6361832 62.276,40.1613333 L61.3333333,39.22 L61.172,39.3813333 C59.9241807,40.6355025 58.2265048,41.3383864 56.4573333,41.3333333 Z M61.3333333,49.2 C60.8944948,49.2891111 60.4477945,49.3337812 60,49.3333333 C59.5522055,49.3337812 59.1055052,49.2891111 58.6666667,49.2 L58.6666667,50.116 L60,51.4493333 L61.3333333,50.116 L61.3333333,49.2 Z M50.6666667,58.6666667 L50.6666667,61.3333333 L69.3333333,61.3333333 L69.3333333,58.6666667 C69.3225404,55.1891884 66.6360821,52.3063583 63.168,52.0506667 L60.9426667,54.276 C60.4220002,54.7965093 59.5779998,54.7965093 59.0573333,54.276 L56.832,52.0506667 C53.3639179,52.3063583 50.6774596,55.1891884 50.6666667,58.6666667 Z" id="Combined-Shape" fill="#4D4D4D"></path>
        <rect id="Rectangle" fill="#47D382" x="59" y="76" width="2.66666667" height="2.66666667"></rect>
        <path d="M26.6666667,50.6666739 C28.3557139,50.6596648 29.8583273,49.5924678 30.4213333,48 L34.6666667,48 C35.4030463,48 36,47.4030463 36,46.6666667 C36,45.930287 35.4030463,45.3333333 34.6666667,45.3333333 L30.4213333,45.3333333 C30.0179591,44.2040867 29.1292466,43.3153743 28,42.912 L28,37.3333333 C28,36.5969537 27.4030463,36 26.6666667,36 C25.930287,36 25.3333333,36.5969537 25.3333333,37.3333333 L25.3333333,42.912 C23.4979367,43.5584698 22.3964084,45.4344589 22.7261502,47.3522374 C23.0558921,49.2700158 24.7207503,50.6703539 26.6666667,50.6666739 Z M26.6666667,45.3333333 C27.4030463,45.3333333 28,45.930287 28,46.6666667 C28,47.4030463 27.4030463,48 26.6666667,48 C25.930287,48 25.3333333,47.4030463 25.3333333,46.6666667 C25.3333333,45.930287 25.930287,45.3333333 26.6666667,45.3333333 Z" id="Shape" fill="#209CFF"></path>
        <path d="M97.3333333,39.7391278 L97.3333333,42.8719128 C96.3321657,41.8266404 94.9225085,41.175769 93.3608321,41.175769 C90.323266,41.175769 87.8608321,43.6382029 87.8608321,46.675769 C87.8608321,49.7133352 90.323266,52.175769 93.3608321,52.175769 C94.9225085,52.175769 96.3321657,51.5248977 97.3333333,50.4796253 L97.3333333,53.5841093 C96.1538171,54.2692738 94.7831388,54.6616185 93.3208234,54.6616185 C88.9025454,54.6616185 85.3208234,51.0798965 85.3208234,46.6616185 C85.3208234,42.2433405 88.9025454,38.6616185 93.3208234,38.6616185 C94.7831388,38.6616185 96.1538171,39.0539633 97.3333333,39.7391278 Z" id="Combined-Shape" fill="#FF874D"></path>
    </g>
</svg>