<?xml version="1.0" encoding="UTF-8"?>
<svg width="120px" height="120px" viewBox="0 0 120 120" version="1.1" xmlns="http://www.w3.org/2000/svg" xmlns:xlink="http://www.w3.org/1999/xlink">
    <!-- Generator: Sketch 55.2 (78181) - https://sketchapp.com -->
    <title>icon/120/management</title>
    <desc>Created with Sketch.</desc>
    <g id="icon/120/management" stroke="none" stroke-width="1" fill="none" fill-rule="evenodd">
        <path d="M93.3333333,22 C97.0133333,22.0043333 99.9956667,24.9866667 100,28.6666667 L100,74 C99.9956667,77.68 97.0133333,80.6623333 93.3333333,80.6666667 L84,80.6666667 C83.2636203,80.6666667 82.6666667,80.069713 82.6666667,79.3333333 C82.6666667,78.5969537 83.2636203,78 84,78 L93.3333333,78 C95.5425,78 97.3333333,76.2091667 97.3333333,74 L97.3333333,28.6666667 C97.3333333,26.4575 95.5425,24.6666667 93.3333333,24.6666667 L26.6666667,24.6666667 C24.4575,24.6666667 22.6666667,26.4575 22.6666667,28.6666667 L22.6666667,74 C22.6666667,76.2091667 24.4575,78 26.6666667,78 L73.3333333,78 C74.069713,78 74.6666667,78.5969537 74.6666667,79.3333333 C74.6666667,80.069713 74.069713,80.6666667 73.3333333,80.6666667 L26.6666667,80.6666667 C22.2251111,78.6755556 20.0028889,76.4533333 20,74 L20,28.6666667 C20.0043333,24.9866667 22.9866667,22.0043333 26.6666667,22 L93.3333333,22 Z M88,27.3333333 C88.7363333,27.3333333 89.3333333,27.9303333 89.3333333,28.6666667 L89.3333333,74 C89.3333333,74.7363333 88.7363333,75.3333333 88,75.3333333 L84,75.3333333 C83.2636203,75.3333333 82.6666667,74.7363797 82.6666667,74 C82.6666667,73.2636203 83.2636203,72.6666667 84,72.6666667 L86.6666667,72.6666667 L86.6666667,30 L28,30 L28,72.6666667 L73.3333333,72.6666667 C74.069713,72.6666667 74.6666667,73.2636203 74.6666667,74 C74.6666667,74.7363797 74.069713,75.3333333 73.3333333,75.3333333 L26.6666667,75.3333333 C25.9303333,75.3333333 25.3333333,74.7363333 25.3333333,74 L25.3333333,28.6666667 C25.3333333,27.9303333 25.9303333,27.3333333 26.6666667,27.3333333 L88,27.3333333 Z M96,90 C98.2091667,90 100,91.7908333 100,94 C100,96.2091667 98.2091667,98 96,98 L34.6666667,98 C34.4593333,97.9981667 34.2551667,97.9478333 34.0706667,97.8533333 L28.7373333,95.1866667 C28.4781667,95.0575 28.268,94.8473333 28.1388333,94.5881667 C27.8103333,93.929 28.0783333,93.1285 28.7373333,92.8 L34.0706667,90.1333333 C34.2563333,90.0433333 34.4603333,89.9976667 34.6666667,90 L96,90 Z M88,95.3333333 L88,92.6666667 L34.9813333,92.6666667 L32.3146667,94 L34.9813333,95.3333333 L88,95.3333333 Z M96,95.3333333 C96.7363333,95.3333333 97.3333333,94.7363333 97.3333333,94 C97.3333333,93.2636667 96.7363333,92.6666667 96,92.6666667 L90.6666667,92.6666667 L90.6666667,95.3333333 L96,95.3333333 Z M81.3333333,56.6666667 C82.0696667,56.6666667 82.6666667,57.2636667 82.6666667,58 L82.6666667,63.3333333 C82.6666667,64.0696667 82.0696667,64.6666667 81.3333333,64.6666667 L70.6666667,64.6666667 C69.9303333,64.6666667 69.3333333,64.0696667 69.3333333,63.3333333 L69.3333333,58 C69.3333333,57.2636667 69.9303333,56.6666667 70.6666667,56.6666667 L74.6666667,56.6666667 L74.6666667,54 L64,54 L64,55.3333333 C64,56.0696667 63.403,56.6666667 62.6666667,56.6666667 L58.6666667,56.6666667 L58.6666667,60.6666667 L62.6666667,60.6666667 C63.403,60.6666667 64,61.2636667 64,62 L64,67.3333333 C64,68.0696667 63.403,68.6666667 62.6666667,68.6666667 L52,68.6666667 C51.2636667,68.6666667 50.6666667,68.0696667 50.6666667,67.3333333 L50.6666667,62 C50.6666667,61.2636667 51.2636667,60.6666667 52,60.6666667 L56,60.6666667 L56,56.6666667 L52,56.6666667 C51.2636667,56.6666667 50.6666667,56.0696667 50.6666667,55.3333333 L50.6666667,50 C50.6666667,49.2636667 51.2636667,48.6666667 52,48.6666667 L56,48.6666667 L56,46 L38.6666667,46 L38.6666667,48.6666667 L42.6666667,48.6666667 C43.403,48.6666667 44,49.2636667 44,50 L44,55.3333333 C44,56.0696667 43.403,56.6666667 42.6666667,56.6666667 L32,56.6666667 C31.2636667,56.6666667 30.6666667,56.0696667 30.6666667,55.3333333 L30.6666667,50 C30.6666667,49.2636667 31.2636667,48.6666667 32,48.6666667 L36,48.6666667 L36,44.6666667 C36,43.9303333 36.597,43.3333333 37.3333333,43.3333333 L46.6666667,43.3333333 L46.6666667,40.6666667 L41.3333333,40.6666667 C40.597,40.6666667 40,40.0696667 40,39.3333333 L40,34 C40,33.2636667 40.597,32.6666667 41.3333333,32.6666667 L54.6666667,32.6666667 C55.403,32.6666667 56,33.2636667 56,34 L56,39.3333333 C56,40.0696667 55.403,40.6666667 54.6666667,40.6666667 L49.3333333,40.6666667 L49.3333333,43.3333333 L57.3333333,43.3333333 C58.0696667,43.3333333 58.6666667,43.9303333 58.6666667,44.6666667 L58.6666667,48.6666667 L62.6666667,48.6666667 C63.403,48.6666667 64,49.2636667 64,50 L64,51.3333333 L76,51.3333333 C76.7363333,51.3333333 77.3333333,51.9303333 77.3333333,52.6666667 L77.3333333,56.6666667 L81.3333333,56.6666667 Z M41.3333333,51.3333333 L33.3333333,51.3333333 L33.3333333,54 L41.3333333,54 L41.3333333,51.3333333 Z M42.6666667,38 L53.3333333,38 L53.3333333,35.3333333 L42.6666667,35.3333333 L42.6666667,38 Z M61.3333333,63.3333333 L53.3333333,63.3333333 L53.3333333,66 L61.3333333,66 L61.3333333,63.3333333 Z M61.3333333,54 L61.3333333,51.3333333 L53.3333333,51.3333333 L53.3333333,54 L61.3333333,54 Z M80,62 L80,59.3333333 L72,59.3333333 L72,62 L80,62 Z M67.0093333,83.3333333 C67.7287763,83.3333333 68.312,83.9165571 68.312,84.636 L68.312,84.6973333 C68.312,85.4167763 67.7287763,86 67.0093333,86 C66.2898904,86 65.7066667,85.4167763 65.7066667,84.6973333 L65.7066667,84.636 C65.7066667,83.9165571 66.2898904,83.3333333 67.0093333,83.3333333 Z M72.3026667,83.3333333 C73.0221096,83.3333333 73.6053333,83.9165571 73.6053333,84.636 L73.6053333,84.6973333 C73.6053333,85.4167763 73.0221096,86 72.3026667,86 C71.5832237,86 71,85.4167763 71,84.6973333 L71,84.636 C71,83.9165571 71.5832237,83.3333333 72.3026667,83.3333333 Z M77.2745242,81.29398 C77.9939672,81.29398 78.5771909,81.8772038 78.5771909,82.5966467 L78.5771909,82.65798 C78.5771909,83.377423 77.9939672,83.9606467 77.2745242,83.9606467 C76.5550813,83.9606467 75.9718576,83.377423 75.9718576,82.65798 L75.9718576,82.5966467 C75.9718576,81.8772038 76.5550813,81.29398 77.2745242,81.29398 Z M56.59,83.3333333 C57.3098111,83.3333333 57.8933333,83.9168555 57.8933333,84.6366667 L57.8933333,84.6966667 C57.8933333,85.4164778 57.3098111,86 56.59,86 C55.8701889,86 55.2866667,85.4164778 55.2866667,84.6966667 L55.2866667,84.6366667 C55.2866667,83.9168555 55.8701889,83.3333333 56.59,83.3333333 Z M61.8026667,83.3333333 C62.5221096,83.3333333 63.1053333,83.9165571 63.1053333,84.636 L63.1053333,84.6973333 C63.1053333,85.4167763 62.5221096,86 61.8026667,86 C61.0832237,86 60.5,85.4167763 60.5,84.6973333 L60.5,84.636 C60.5,83.9165571 61.0832237,83.3333333 61.8026667,83.3333333 Z M40.9526667,83.3333333 C41.6724778,83.3333333 42.256,83.9168555 42.256,84.6366667 L42.256,84.6966667 C42.256,85.4164778 41.6724778,86 40.9526667,86 C40.2328555,86 39.6493333,85.4164778 39.6493333,84.6966667 L39.6493333,84.6366667 C39.6493333,83.9168555 40.2328555,83.3333333 40.9526667,83.3333333 Z M78.6123499,76.6186417 L78.6723499,76.6186417 C79.392161,76.6186417 79.9756832,77.2021639 79.9756832,77.921975 C79.9756832,78.6417861 79.392161,79.2253083 78.6723499,79.2253083 L78.6123499,79.2253083 C77.8925388,79.2253083 77.3090166,78.6417861 77.3090166,77.921975 C77.3090166,77.2021639 77.8925388,76.6186417 78.6123499,76.6186417 Z M23.3187927,89.2607418 C24.0382356,89.2607418 24.6214593,89.8439655 24.6214593,90.5634084 L24.6214593,90.6247418 C24.6214593,91.3441847 24.0382356,91.9274084 23.3187927,91.9274084 C22.5993497,91.9274084 22.016126,91.3441847 22.016126,90.6247418 L22.016126,90.5634084 C22.016126,89.8439655 22.5993497,89.2607418 23.3187927,89.2607418 Z M23.3026667,94 C24.0221096,94 24.6053333,94.5832237 24.6053333,95.3026667 L24.6053333,95.364 C24.6053333,96.0834429 24.0221096,96.6666667 23.3026667,96.6666667 C22.5832237,96.6666667 22,96.0834429 22,95.364 L22,95.3026667 C22,94.5832237 22.5832237,94 23.3026667,94 Z M46.1646667,83.3333333 C46.8844778,83.3333333 47.468,83.9168555 47.468,84.6366667 L47.468,84.6966667 C47.468,85.4164778 46.8844778,86 46.1646667,86 C45.4448555,86 44.8613333,85.4164778 44.8613333,84.6966667 L44.8613333,84.6366667 C44.8613333,83.9168555 45.4448555,83.3333333 46.1646667,83.3333333 Z M51.378,83.3333333 C52.0978111,83.3333333 52.6813333,83.9168555 52.6813333,84.6366667 L52.6813333,84.6966667 C52.6813333,85.4164778 52.0978111,86 51.378,86 C50.6581889,86 50.0746667,85.4164778 50.0746667,84.6966667 L50.0746667,84.6366667 C50.0746667,83.9168555 50.6581889,83.3333333 51.378,83.3333333 Z" id="Combined-Shape" fill="#4D4D4D"></path>
        <rect id="Rectangle" fill="#47D382" x="92" y="44.6666667" width="2.66666667" height="13.3333333"></rect>
        <path d="M35.7406667,83.3333333 C36.4604778,83.3333333 37.044,83.9168555 37.044,84.6366667 L37.044,84.6966667 C37.044,85.4164778 36.4604778,86 35.7406667,86 C35.0208555,86 34.4373333,85.4164778 34.4373333,84.6966667 L34.4373333,84.6366667 C34.4373333,83.9168555 35.0208555,83.3333333 35.7406667,83.3333333 Z M30.528,83.3333333 C31.2474429,83.3333333 31.8306667,83.9165571 31.8306667,84.636 L31.8306667,84.6973333 C31.8306667,85.4167763 31.2474429,86 30.528,86 C29.8085571,86 29.2253333,85.4167763 29.2253333,84.6973333 L29.2253333,84.636 C29.2253333,83.9165571 29.8085571,83.3333333 30.528,83.3333333 Z M25.3026667,85 C26.0221096,85 26.6053333,85.5832237 26.6053333,86.3026667 L26.6053333,86.364 C26.6053333,87.0834429 26.0221096,87.6666667 25.3026667,87.6666667 C24.5832237,87.6666667 24,87.0834429 24,86.364 L24,86.3026667 C24,85.5832237 24.5832237,85 25.3026667,85 Z" id="Combined-Shape" fill="#209CFF"></path>
        <path d="M78.6366667,71.308 L78.6966667,71.308 C79.4164778,71.308 80,71.8915222 80,72.6113333 C80,73.3311445 79.4164778,73.9146667 78.6966667,73.9146667 L78.6366667,73.9146667 C77.9168555,73.9146667 77.3333333,73.3311445 77.3333333,72.6113333 C77.3333333,71.8915222 77.9168555,71.308 78.6366667,71.308 Z M78.6666667,66 C79.4030463,66 80,66.5969537 80,67.3333333 C80,68.069713 79.4030463,68.6666667 78.6666667,68.6666667 C77.930287,68.6666667 77.3333333,68.069713 77.3333333,67.3333333 C77.3333333,66.5969537 77.930287,66 78.6666667,66 Z" id="Combined-Shape" fill="#FF874D"></path>
    </g>
</svg>