<?xml version="1.0" encoding="UTF-8"?>
<svg width="250px" height="100px" viewBox="0 0 250 100" version="1.1" xmlns="http://www.w3.org/2000/svg" xmlns:xlink="http://www.w3.org/1999/xlink">
    <!-- Generator: Sketch 59.1 (86144) - https://sketch.com -->
    <title>brand/brand_07</title>
    <desc>Created with Sketch.</desc>
    <g id="brand/brand_07" stroke="none" stroke-width="1" fill="none" fill-rule="evenodd">
        <g id="Group" transform="translate(0.000000, 30.000000)" fill-rule="nonzero">
            <g transform="translate(0.000000, 0.766871)" id="Path">
                <path d="M34.052678,24.5758595 L30.9582066,19.3539392 L28.2505442,14.7122322 C27.0901175,14.1320188 25.5428818,13.5518054 22.255006,13.9386143 C17.4198946,14.5188277 13.5518054,16.4528723 13.7452099,18.1935124 C13.9386143,20.127557 16.4528723,20.5143659 19.9341525,21.0945793 L27.4769264,22.4484105 C29.9911844,23.0286239 32.3120379,23.6088372 34.052678,24.5758595" fill="#3CA9E1"></path>
                <path d="M24.769264,29.7977799 C24.5758595,28.0571398 22.4484105,27.2835219 18.5803213,26.7033086 L11.4243564,25.3494774 C9.29690733,24.9626684 7.5562672,24.5758595 6.202436,24.1890506 L0.0134933343,34.8262958 C4.26839141,35.4065092 8.91009841,35.7933181 13.9386143,35.2131047 C20.5143659,34.4394869 25.1560729,32.5054423 24.769264,29.7977799" fill="#3CA9E1"></path>
                <path d="M21.8681971,10.6507385 C23.2220283,10.4573341 24.5758595,10.2639296 25.7362863,10.2639296 L19.9341525,0.206897792 L12.971592,12.3913787 C15.48585,11.6177608 18.5803213,11.0375475 21.8681971,10.6507385" fill="#3CA9E1"></path>
                <path d="M36.3735315,28.8307576 C35.5999136,33.4724646 25.9296907,36.9537449 15.6792544,38.5009805 L19.9341525,38.5009805 L41.9822608,38.5009805 L36.3735315,28.8307576 Z" fill="#3CA9E1"></path>
                <path d="M30.1845888,23.0286239 L23.0286239,13.7452099 C22.8352194,13.7452099 22.4484105,13.7452099 22.255006,13.7452099 C18.9671302,14.1320188 16.2594678,15.0990411 14.9056366,16.2594678 L13.9386143,17.4198946 C13.9386143,17.613299 13.9386143,17.8067035 13.9386143,18.0001079 C14.1320188,19.9341525 16.6462767,20.3209614 20.127557,20.9011748 L27.6703309,22.255006 C28.4439487,22.6418149 29.2175665,22.8352194 30.1845888,23.0286239" fill="#1D88CA"></path>
                <path d="M24.769264,29.7977799 C24.5758595,28.0571398 22.4484105,27.2835219 18.5803213,26.7033086 L11.4243564,25.3494774 C10.4573341,25.1560729 9.29690733,24.9626684 8.52328949,24.769264 L0.593706709,34.8262958 C4.65520033,35.2131047 9.10350287,35.7933181 13.7452099,35.2131047 C20.5143659,34.4394869 25.1560729,32.5054423 24.769264,29.7977799" fill="#1D88CA"></path>
                <path d="M20.5143659,10.844143 L19.7407481,9.8771207 L18.7737258,11.0375475 C19.5473436,11.0375475 20.127557,10.844143 20.5143659,10.844143" fill="#1D88CA"></path>
                <path d="M35.7933181,30.3779933 C33.2790601,34.2460824 24.769264,37.1471493 15.6792544,38.3075761 L19.9341525,38.3075761 L41.9822608,38.3075761 L35.7933181,30.3779933 Z" fill="#1D88CA"></path>
                <path d="M24.769264,29.7977799 C24.5758595,28.0571398 22.4484105,27.2835219 18.5803213,26.7033086 L13.3584009,25.7362863 L9.10350287,29.2175665 L1.94753792,35.0197003 C5.62222262,35.4065092 9.68371624,35.7933181 13.9386143,35.2131047 C20.5143659,34.4394869 25.1560729,32.5054423 24.769264,29.7977799" fill="#0064B1"></path>
                <path d="M18.9671302,21.0945793 C19.3539392,21.0945793 19.5473436,21.2879837 19.9341525,21.2879837 L21.6747927,21.6747927 L19.9341525,20.3209614 L18.9671302,21.0945793 Z" fill="#0064B1"></path>
                <path d="M34.4394869,31.9252289 C31.1516111,34.8262958 24.3824551,37.1471493 17.0330857,38.3075761 L20.127557,38.3075761 L42.1756652,38.3075761 L34.4394869,31.9252289 Z" fill="#0064B1"></path>
            </g>
            <g transform="translate(47.584243, 0.000000)" fill="#036EB8" id="Shape">
                <path d="M13.5450587,14.1252721 L15.2856989,14.1252721 L15.2856989,15.6725078 L0.00674666715,15.6725078 L0.00674666715,14.1252721 L1.74738679,14.1252721 L1.74738679,11.2242052 L13.5450587,11.2242052 L13.5450587,14.1252721 Z M3.68143137,0.973768958 L3.68143137,0.200151125 L5.4220715,0.200151125 L5.4220715,0.973768958 L7.35611608,0.973768958 L7.35611608,2.52100462 L5.4220715,2.52100462 L5.4220715,3.29462246 L3.68143137,3.29462246 L3.68143137,2.52100462 L0.200151125,2.52100462 L0.200151125,0.973768958 L3.68143137,0.973768958 Z M5.61547595,9.48356512 L8.12973391,9.48356512 L8.12973391,10.8373963 L0.973768958,10.8373963 L0.973768958,3.68143137 L7.93632945,3.68143137 L7.93632945,5.03526258 L5.61547595,5.03526258 L5.61547595,5.80888041 L7.16271162,5.80888041 L7.16271162,8.90335174 L5.61547595,8.90335174 L5.61547595,9.48356512 L5.61547595,9.48356512 Z M4.26164475,5.61547595 L4.26164475,5.03526258 L2.52100462,5.03526258 L2.52100462,5.80888041 L4.26164475,5.80888041 L4.26164475,5.61547595 Z M5.80888041,7.54952054 L5.80888041,6.7759027 L2.32760017,6.7759027 L2.32760017,7.54952054 L5.80888041,7.54952054 Z M4.26164475,9.48356512 L4.26164475,8.90335174 L2.52100462,8.90335174 L2.52100462,9.48356512 L4.26164475,9.48356512 Z M5.22866704,14.1252721 L5.22866704,12.7714409 L3.48802691,12.7714409 L3.48802691,14.1252721 L5.22866704,14.1252721 Z M8.51654283,14.1252721 L8.51654283,12.7714409 L6.7759027,12.7714409 L6.7759027,14.1252721 L8.51654283,14.1252721 Z M8.51654283,8.90335174 L7.54952054,7.54952054 C8.51654283,6.58249825 9.29016066,5.22866704 9.48356512,3.48802691 L11.0308008,3.87483583 C10.8373963,4.26164475 10.8373963,4.64845366 10.6439919,5.03526258 L14.512081,5.03526258 L14.512081,6.58249825 L10.0637785,6.58249825 C9.87037404,7.54952054 9.29016066,8.32313837 8.51654283,8.90335174 Z M11.6110142,0.200151125 L11.6110142,0.973768958 L15.0922944,0.973768958 L15.0922944,2.52100462 L11.6110142,2.52100462 L11.6110142,3.29462246 L9.87037404,3.29462246 L9.87037404,2.52100462 L7.93632945,2.52100462 L7.93632945,0.973768958 L9.87037404,0.973768958 L9.87037404,0.200151125 L11.6110142,0.200151125 Z M14.512081,8.32313837 L14.512081,9.87037404 L9.67696958,9.87037404 L9.67696958,8.32313837 L14.512081,8.32313837 Z M11.8044186,14.1252721 L11.8044186,12.7714409 L10.0637785,12.7714409 L10.0637785,14.1252721 L11.8044186,14.1252721 Z"></path>
                <path d="M31.1448644,5.03526258 L31.1448644,10.8373963 L20.7010237,10.8373963 L20.7010237,13.3516543 C20.7010237,13.7384632 20.8944282,14.1252721 21.4746415,14.1252721 L29.2108199,14.1252721 C29.7910332,14.1252721 29.9844377,13.9318677 30.1778421,13.7384632 C30.3712466,13.5450587 30.3712466,12.9648454 30.5646511,11.8044186 L32.3052912,12.384632 C32.1118867,13.5450587 31.9184823,14.3186766 31.7250778,14.7054855 C31.3382689,15.4791033 30.7580555,15.8659122 29.5976288,15.8659122 L20.5076192,15.8659122 C19.3471925,15.8659122 18.7669791,15.2856989 18.7669791,14.1252721 L18.7669791,6.00228487 L17.7999568,6.58249825 L16.6395301,5.03526258 C18.5735747,3.87483583 20.5076192,2.32760017 21.8614504,0.200151125 L23.6020906,0.586960042 C23.4086861,0.973768958 23.0218772,1.36057787 22.8284727,1.74738679 L28.8240109,1.74738679 L28.8240109,3.101218 C28.2437976,3.87483583 27.8569886,4.45504921 27.2767753,5.03526258 L31.1448644,5.03526258 Z M19.9274059,5.03526258 L25.1493262,5.03526258 C25.7295396,4.64845366 26.1163485,4.06824029 26.6965619,3.29462246 L21.668046,3.29462246 C21.0878326,3.87483583 20.5076192,4.45504921 19.9274059,5.03526258 Z M20.7010237,6.58249825 L20.7010237,9.0967562 L24.1823039,9.0967562 L24.1823039,6.58249825 L20.7010237,6.58249825 Z M29.4042243,9.0967562 L29.4042243,6.58249825 L25.9229441,6.58249825 L25.9229441,9.0967562 L29.4042243,9.0967562 Z"></path>
                <path d="M34.4327402,11.2242052 L33.8525269,9.29016066 C35.7865714,7.54952054 37.1404026,5.80888041 37.9140205,4.06824029 L34.2393358,4.06824029 L34.2393358,2.32760017 L36.3667848,2.32760017 C36.1733804,1.74738679 35.9799759,1.16717342 35.593167,0.586960042 L37.3338071,0.200151125 C37.720616,0.973768958 37.9140205,1.74738679 38.1074249,2.52100462 L39.8480651,2.52100462 L39.8480651,4.06824029 C39.4612561,5.22866704 38.8810428,6.38909379 37.9140205,7.54952054 L37.9140205,7.742925 C38.6876383,8.12973391 39.4612561,8.70994729 40.0414695,9.29016066 L39.0744472,10.8373963 C38.6876383,10.4505874 38.3008294,10.0637785 37.9140205,9.67696958 L37.9140205,16.2527212 L36.1733804,16.2527212 L36.1733804,9.67696958 C35.593167,10.0637785 35.0129536,10.6439919 34.4327402,11.2242052 Z M45.4567943,11.2242052 L45.4567943,15.8659122 L43.7161542,15.8659122 L43.7161542,11.2242052 L41.9755141,11.2242052 L41.9755141,11.9978231 L40.234874,11.9978231 L40.234874,2.52100462 L43.7161542,2.52100462 L43.7161542,0.00674666715 L45.4567943,0.00674666715 L45.4567943,2.52100462 L49.131479,2.52100462 L49.131479,11.9978231 L47.3908389,11.9978231 L47.3908389,11.2242052 L45.4567943,11.2242052 Z M43.7161542,4.45504921 L41.9755141,4.45504921 L41.9755141,6.19568933 L43.7161542,6.19568933 L43.7161542,4.45504921 Z M41.9755141,9.67696958 L43.7161542,9.67696958 L43.7161542,7.93632945 L41.9755141,7.93632945 L41.9755141,9.67696958 Z M47.1974345,4.45504921 L45.2633899,4.45504921 L45.2633899,6.19568933 L47.1974345,6.19568933 L47.1974345,4.45504921 Z M45.4567943,9.67696958 L47.3908389,9.67696958 L47.3908389,7.93632945 L45.4567943,7.93632945 L45.4567943,9.67696958 Z"></path>
                <path d="M65.9576669,1.74738679 C64.4104312,1.94079125 62.6697911,2.13419571 60.929151,2.32760017 L60.929151,3.68143137 L66.5378803,3.68143137 L66.5378803,5.22866704 L60.929151,5.22866704 L60.929151,6.38909379 L65.1840491,6.38909379 L65.1840491,16.0593167 L63.443409,16.0593167 L63.443409,15.2856989 L56.8676574,15.2856989 L56.8676574,16.0593167 L55.3204217,16.0593167 L55.3204217,6.38909379 L59.3819153,6.38909379 L59.3819153,5.22866704 L54.3533994,5.22866704 L54.3533994,8.12973391 C54.159995,11.4176097 53.5797816,14.1252721 52.0325459,16.0593167 L50.6787147,14.7054855 C51.8391415,13.1582498 52.4193548,11.0308008 52.4193548,8.12973391 L52.4193548,1.16717342 C57.0610618,1.16717342 61.3159599,0.7803645 64.9906446,0.200151125 L65.9576669,1.74738679 Z M59.1885109,2.52100462 C57.6412752,2.71440908 55.9006351,2.71440908 54.159995,2.71440908 L54.159995,3.68143137 L59.1885109,3.68143137 L59.1885109,2.52100462 Z M63.443409,8.90335174 L63.443409,7.93632945 L56.8676574,7.93632945 L56.8676574,8.90335174 L63.443409,8.90335174 Z M63.443409,11.2242052 L63.443409,10.257183 L56.8676574,10.257183 L56.8676574,11.2242052 L63.443409,11.2242052 Z M63.443409,13.5450587 L63.443409,12.384632 L56.8676574,12.384632 L56.8676574,13.5450587 L63.443409,13.5450587 Z"></path>
                <path d="M79.1091701,2.90781354 C79.1091701,3.101218 78.9157656,3.29462246 78.9157656,3.48802691 C80.0761924,4.64845366 81.623428,5.22866704 83.3640682,5.4220715 L82.5904503,6.96930716 C82.2036414,6.96930716 81.8168325,6.7759027 81.4300236,6.7759027 L81.4300236,13.7384632 L78.5289567,13.7384632 C80.2695968,13.9318677 81.8168325,14.3186766 83.3640682,14.8988899 L82.7838548,16.2527212 C81.0432147,15.6725078 79.1091701,15.0922944 77.1751255,14.8988899 L77.7553389,13.9318677 L73.8872497,13.9318677 L74.6608675,14.8988899 C73.3070363,15.4791033 71.5663962,16.0593167 69.2455427,16.4461256 L68.4719249,15.0922944 C70.4059695,14.7054855 72.1466096,14.512081 73.3070363,13.9318677 L70.4059695,13.9318677 L70.4059695,6.7759027 L74.6608675,6.7759027 L74.0806542,5.80888041 C76.4015077,5.4220715 77.7553389,4.45504921 78.1421478,2.90781354 L79.1091701,2.90781354 Z M73.1136319,4.06824029 L73.1136319,5.61547595 L68.085116,5.61547595 L68.085116,4.06824029 L73.1136319,4.06824029 Z M72.7268229,1.16717342 L72.7268229,2.71440908 L68.4719249,2.71440908 L68.4719249,1.16717342 L72.7268229,1.16717342 Z M79.6893834,8.51654283 L79.6893834,7.742925 L71.7598007,7.742925 L71.7598007,8.51654283 L79.6893834,8.51654283 Z M79.6893834,10.4505874 L79.6893834,9.67696958 L71.7598007,9.67696958 L71.7598007,10.4505874 L79.6893834,10.4505874 Z M79.6893834,11.4176097 L71.7598007,11.4176097 L71.7598007,12.1912275 L79.6893834,12.1912275 L79.6893834,11.4176097 Z M74.0806542,4.45504921 L73.1136319,3.101218 C74.2740586,2.32760017 75.0476764,1.36057787 75.6278898,0.200151125 L77.1751255,0.393555584 C76.981721,0.586960042 76.981721,0.973768958 76.981721,1.16717342 L82.9772592,1.16717342 L82.9772592,2.32760017 C82.5904503,3.29462246 82.0102369,4.06824029 81.4300236,4.64845366 L80.2695968,3.68143137 C80.4630013,3.29462246 80.8498102,3.101218 81.0432147,2.71440908 L76.0146987,2.71440908 C75.4344854,3.29462246 74.854272,3.87483583 74.0806542,4.45504921 Z M80.8498102,6.58249825 C79.8827879,6.19568933 78.9157656,5.61547595 78.1421478,4.84185812 C77.5619344,5.61547595 76.5949121,6.19568933 75.4344854,6.58249825 L80.8498102,6.58249825 Z"></path>
                <path d="M87.2321573,2.13419571 C87.0387529,1.55398233 86.8453484,1.16717342 86.6519439,0.586960042 L88.3925841,0.200151125 C88.5859885,0.973768958 88.779393,1.55398233 88.9727974,2.13419571 L91.1002465,2.13419571 L91.1002465,3.68143137 L85.1047083,3.68143137 L85.1047083,2.13419571 L87.2321573,2.13419571 Z M90.5200331,15.6725078 L88.9727974,15.6725078 L88.9727974,14.8988899 L87.2321573,14.8988899 L87.2321573,15.6725078 L85.6849216,15.6725078 L85.6849216,9.48356512 L90.7134376,9.48356512 L90.7134376,15.6725078 L90.5200331,15.6725078 Z M90.3266286,4.84185812 L90.3266286,6.38909379 L85.4915172,6.38909379 L85.4915172,4.84185812 L90.3266286,4.84185812 Z M90.3266286,7.16271162 L90.3266286,8.70994729 L85.4915172,8.70994729 L85.4915172,7.16271162 L90.3266286,7.16271162 Z M88.779393,13.3516543 L88.779393,11.2242052 L87.0387529,11.2242052 L87.0387529,13.3516543 L88.779393,13.3516543 Z M93.0342911,6.96930716 L93.0342911,2.52100462 L91.2936509,2.52100462 L91.2936509,0.7803645 L98.6430203,0.7803645 L98.6430203,6.38909379 C98.6430203,9.48356512 98.8364248,11.8044186 99.0298293,12.9648454 C99.2232337,13.5450587 99.2232337,13.7384632 99.4166382,13.7384632 C99.4166382,13.7384632 99.4166382,13.5450587 99.6100426,12.9648454 C99.6100426,12.5780364 99.6100426,11.9978231 99.6100426,11.4176097 L100.963874,11.9978231 C100.963874,13.7384632 100.770469,14.7054855 100.577065,15.0922944 C100.38366,15.4791033 100.190256,15.6725078 99.9968516,15.6725078 C99.4166382,15.6725078 98.8364248,15.2856989 98.2562114,14.512081 C97.4825936,13.1582498 97.0957847,10.4505874 97.0957847,6.38909379 L97.0957847,2.52100462 L94.9683356,2.52100462 L94.9683356,6.96930716 L96.7089758,6.96930716 L96.7089758,8.70994729 L94.9683356,8.70994729 L94.9683356,15.8659122 L93.2276955,15.8659122 L93.2276955,8.70994729 L91.4870554,8.70994729 L91.4870554,6.96930716 L93.0342911,6.96930716 Z"></path>
                <path d="M108.506648,14.3186766 C108.506648,15.4791033 107.926434,16.0593167 106.766008,16.0593167 L105.412176,16.0593167 L105.025367,14.512081 C105.412176,14.512081 105.798985,14.512081 106.185794,14.512081 C106.572603,14.512081 106.766008,14.3186766 106.766008,13.7384632 L106.766008,10.4505874 C105.99239,10.6439919 105.412176,10.8373963 104.445154,10.8373963 C104.25175,12.9648454 103.864941,14.7054855 103.091323,16.2527212 L101.737492,15.0922944 C102.51111,13.5450587 102.897918,11.8044186 102.897918,9.48356512 L102.897918,0.973768958 L108.313243,0.973768958 L108.313243,14.3186766 L108.506648,14.3186766 Z M106.766008,5.22866704 L106.766008,2.32760017 L104.638559,2.32760017 L104.638559,4.84185812 C105.412176,4.84185812 105.99239,5.03526258 106.766008,5.22866704 Z M106.766008,8.70994729 L106.766008,6.7759027 C105.99239,6.58249825 105.412176,6.38909379 104.638559,6.19568933 L104.638559,9.0967562 C105.412176,8.90335174 106.185794,8.90335174 106.766008,8.70994729 Z M116.629635,7.35611608 L116.629635,9.0967562 C116.242826,10.6439919 115.469208,11.9978231 114.69559,12.9648454 C115.662613,13.5450587 116.629635,14.1252721 117.790062,14.7054855 L116.823039,16.2527212 C115.469208,15.6725078 114.308781,14.8988899 113.341759,14.1252721 C112.181332,14.8988899 111.020906,15.6725078 109.47367,16.2527212 L108.506648,14.7054855 C109.860479,14.3186766 111.020906,13.5450587 111.987928,12.9648454 C111.020906,11.8044186 110.247288,10.6439919 109.860479,9.29016066 L109.086861,9.29016066 L109.086861,7.54952054 L116.629635,7.54952054 L116.629635,7.35611608 Z M115.856017,0.7803645 L115.856017,4.26164475 C115.856017,4.64845366 116.049422,4.84185812 116.436231,4.84185812 L117.596657,4.84185812 L117.596657,6.58249825 L116.049422,6.58249825 C114.888995,6.58249825 114.308781,6.00228487 114.308781,4.84185812 L114.308781,2.71440908 L111.987928,2.71440908 L111.987928,3.48802691 C111.987928,5.22866704 111.407715,6.58249825 110.053883,7.54952054 L108.893457,6.19568933 C109.860479,5.61547595 110.247288,4.84185812 110.247288,3.68143137 L110.247288,1.16717342 L115.856017,1.16717342 L115.856017,0.7803645 Z M113.341759,11.6110142 C114.115377,10.8373963 114.69559,9.87037404 115.082399,8.90335174 L111.794524,8.90335174 C111.987928,10.0637785 112.568141,10.8373963 113.341759,11.6110142 Z"></path>
                <path d="M124.365813,0.973768958 C123.979004,2.32760017 123.398791,3.48802691 122.625173,4.64845366 L122.625173,16.0593167 L120.884533,16.0593167 L120.884533,7.16271162 C120.497724,7.742925 119.917511,8.32313837 119.337297,8.70994729 L118.757084,6.7759027 C120.497724,4.84185812 121.851555,2.52100462 122.625173,0.00674666715 L124.365813,0.973768958 Z M130.167947,2.32760017 L128.427307,2.32760017 L128.427307,0.7803645 L131.328374,0.7803645 C131.908587,3.101218 133.069014,5.03526258 134.61625,6.58249825 L133.649227,8.12973391 C133.262418,7.742925 132.875609,7.35611608 132.488801,6.96930716 C132.488801,10.8373963 132.488801,13.1582498 132.295396,14.1252721 C132.101992,15.2856989 131.328374,15.8659122 129.974543,15.8659122 C129.587734,15.8659122 129.00752,15.8659122 128.233902,15.8659122 L127.847094,14.1252721 C128.620711,14.1252721 129.200925,14.3186766 129.781138,14.3186766 C130.361351,14.3186766 130.554756,13.9318677 130.74816,13.3516543 C130.941565,12.9648454 130.941565,11.4176097 130.941565,8.70994729 L128.233902,8.70994729 L128.233902,9.0967562 C128.233902,11.8044186 127.073476,14.1252721 124.946027,16.2527212 L123.398791,14.8988899 C125.332836,13.1582498 126.493262,11.2242052 126.493262,8.90335174 L126.493262,8.51654283 L124.946027,8.51654283 L124.946027,6.96930716 C124.752622,7.35611608 124.365813,7.54952054 124.172409,7.93632945 L123.011982,6.38909379 C124.559218,4.84185812 125.52624,2.90781354 126.106453,0.586960042 L127.847094,0.973768958 C127.26688,3.101218 126.493262,5.03526258 125.332836,6.58249825 L132.682205,6.58249825 C131.521778,5.4220715 130.74816,4.06824029 130.167947,2.32760017 Z"></path>
                <path d="M139.644765,16.0593167 L138.290934,14.8988899 C139.257957,13.9318677 139.83817,12.5780364 139.83817,10.8373963 L139.83817,7.54952054 C139.064552,8.51654283 138.09753,9.48356512 136.937103,10.257183 L135.776676,8.70994729 C137.710721,7.16271162 139.257957,5.4220715 140.418383,3.48802691 L136.35689,3.48802691 L136.35689,1.74738679 L141.385406,1.74738679 C141.57881,1.16717342 141.772215,0.586960042 141.965619,0.00674666715 L143.706259,0.200151125 C143.512855,0.7803645 143.31945,1.36057787 143.126046,1.74738679 L151.249033,1.74738679 L151.249033,3.48802691 L142.352428,3.48802691 C142.159023,4.06824029 141.772215,4.45504921 141.57881,5.03526258 L149.314988,5.03526258 L149.314988,14.1252721 C149.314988,15.0922944 148.734775,15.6725078 147.574348,15.6725078 L145.833708,15.6725078 L145.446899,14.1252721 C146.027113,14.1252721 146.607326,14.1252721 146.994135,14.1252721 C147.380944,14.1252721 147.574348,13.9318677 147.574348,13.5450587 L147.574348,12.1912275 L141.192001,12.1912275 C141.192001,13.9318677 140.611788,15.0922944 139.644765,16.0593167 Z M141.57881,10.6439919 C141.57881,10.8373963 141.57881,10.8373963 141.57881,10.6439919 L147.767753,10.8373963 L147.767753,9.48356512 L141.57881,9.48356512 L141.57881,10.6439919 Z M147.767753,6.7759027 L141.57881,6.7759027 L141.57881,8.12973391 L147.767753,8.12973391 L147.767753,6.7759027 Z"></path>
                <path d="M159.178616,0.7803645 L159.178616,2.13419571 C158.598402,3.48802691 158.018189,5.03526258 157.437976,6.7759027 C158.404998,8.32313837 158.985211,9.67696958 159.178616,10.8373963 C159.178616,11.6110142 158.985211,12.1912275 158.598402,12.5780364 C158.018189,12.9648454 157.244571,13.3516543 155.89074,13.3516543 L155.310527,11.6110142 C155.697336,11.6110142 156.084144,11.8044186 156.277549,11.8044186 C156.664358,11.8044186 157.051167,11.8044186 157.051167,11.6110142 C157.244571,11.4176097 157.244571,11.4176097 157.244571,11.0308008 C157.244571,9.87037404 156.664358,8.51654283 155.503931,7.16271162 C156.277549,5.4220715 156.857762,3.87483583 157.244571,2.52100462 L155.117122,2.52100462 L155.117122,16.0593167 L153.376482,16.0593167 L153.376482,0.7803645 L159.178616,0.7803645 L159.178616,0.7803645 Z M161.499469,13.5450587 C162.273087,13.3516543 163.240109,12.9648454 164.013727,12.5780364 L164.400536,14.3186766 C163.046705,14.8988899 161.499469,15.2856989 159.565425,15.8659122 L159.178616,14.3186766 C159.37202,14.1252721 159.565425,14.1252721 159.565425,13.7384632 L159.565425,0.7803645 L167.301603,0.7803645 L167.301603,8.51654283 L161.306065,8.51654283 L161.306065,13.5450587 L161.499469,13.5450587 Z M165.754367,2.32760017 L161.499469,2.32760017 L161.499469,3.68143137 L165.754367,3.68143137 L165.754367,2.32760017 Z M161.499469,6.7759027 L165.754367,6.7759027 L165.754367,5.4220715 L161.499469,5.4220715 L161.499469,6.7759027 Z M168.46203,10.0637785 C167.688412,10.8373963 166.914794,11.4176097 166.141176,11.9978231 C166.914794,12.9648454 167.881816,13.7384632 168.848839,14.3186766 L167.881816,15.8659122 C165.754367,14.512081 164.207132,12.5780364 163.240109,9.87037404 L164.593941,9.0967562 C164.787345,9.67696958 164.98075,10.257183 165.367558,10.6439919 C166.141176,10.257183 166.72139,9.67696958 167.301603,8.90335174 L168.46203,10.0637785 Z"></path>
                <path d="M176.391613,1.36057787 C175.231186,4.84185812 173.68395,7.35611608 171.749906,9.29016066 L170.396074,8.12973391 C172.330119,6.19568933 173.877355,3.87483583 174.844377,0.7803645 L176.391613,1.36057787 Z M184.321195,15.2856989 L182.580555,16.0593167 C182.387151,15.4791033 182.193746,14.8988899 182.000342,14.512081 C179.099275,14.8988899 175.811399,15.2856989 172.136714,15.4791033 L171.749906,13.7384632 C172.910332,13.5450587 174.650972,10.8373963 176.778421,6.00228487 L178.519062,6.58249825 C177.16523,9.29016066 175.811399,11.6110142 174.457568,13.5450587 C176.778421,13.3516543 178.90587,13.1582498 181.226724,12.7714409 C180.646511,11.8044186 180.066297,10.6439919 179.679488,9.87037404 L181.226724,9.29016066 C182.387151,11.2242052 183.354173,13.1582498 184.321195,15.2856989 Z M181.806937,0.586960042 C182.387151,3.68143137 183.740982,6.00228487 185.868431,7.93632945 L184.5146,9.29016066 C182.580555,7.54952054 181.226724,5.22866704 180.453106,2.32760017 L177.745444,2.32760017 L177.745444,0.586960042 L181.806937,0.586960042 Z"></path>
                <path d="M198.246316,4.06824029 L198.246316,5.61547595 L187.415667,5.61547595 L187.415667,4.06824029 L198.246316,4.06824029 Z M197.08589,15.8659122 L196.699081,14.1252721 L199.213339,14.1252721 C199.600148,14.1252721 199.793552,13.7384632 199.793552,13.1582498 L199.793552,2.32760017 L188.382689,2.32760017 L188.382689,0.586960042 L201.534192,0.586960042 L201.534192,13.7384632 C201.534192,15.0922944 200.953979,15.8659122 199.600148,15.8659122 L197.08589,15.8659122 Z M196.699081,7.35611608 L196.699081,12.9648454 L188.769498,12.9648454 L188.769498,7.35611608 L196.699081,7.35611608 Z M194.958441,8.90335174 L190.510138,8.90335174 L190.510138,11.4176097 L194.958441,11.4176097 L194.958441,8.90335174 Z"></path>
            </g>
            <g transform="translate(47.584243, 25.142580)" fill="#595757">
                <path d="M4.84185812,0.586960042 C5.80888041,0.586960042 6.7759027,0.973768958 7.35611608,1.55398233 C7.93632945,2.13419571 8.12973391,2.90781354 8.12973391,3.87483583 C8.12973391,4.64845366 7.93632945,5.22866704 7.742925,5.80888041 C7.54952054,6.19568933 7.16271162,6.58249825 6.58249825,6.96930716 C7.35611608,7.16271162 7.742925,7.54952054 8.12973391,7.93632945 C8.51654283,8.51654283 8.70994729,9.0967562 8.70994729,10.0637785 C8.70994729,11.4176097 8.32313837,12.384632 7.54952054,12.9648454 C6.96930716,13.5450587 6.00228487,13.7384632 5.03526258,13.7384632 L0.200151125,13.7384632 L0.200151125,0.7803645 L4.84185812,0.7803645 L4.84185812,0.586960042 Z M1.74738679,6.00228487 L4.26164475,6.00228487 C5.03526258,6.00228487 5.4220715,5.80888041 5.80888041,5.61547595 C6.00228487,5.22866704 6.19568933,4.84185812 6.19568933,4.06824029 C6.19568933,3.48802691 6.00228487,2.90781354 5.80888041,2.71440908 C5.4220715,2.52100462 5.03526258,2.32760017 4.26164475,2.32760017 L1.55398233,2.32760017 L1.55398233,6.00228487 L1.74738679,6.00228487 Z M1.74738679,11.6110142 L4.64845366,11.6110142 C5.22866704,11.6110142 5.80888041,11.4176097 6.19568933,11.2242052 C6.58249825,10.8373963 6.96930716,10.4505874 6.96930716,9.67696958 C6.96930716,8.90335174 6.7759027,8.32313837 6.38909379,8.12973391 C6.00228487,7.742925 5.4220715,7.54952054 4.64845366,7.54952054 L1.74738679,7.54952054 L1.74738679,11.6110142 Z" id="Shape"></path>
                <polygon id="Path" points="11.8044186 0.586960042 11.8044186 11.8044186 17.4131479 11.8044186 17.4131479 13.5450587 10.0637785 13.5450587 10.0637785 0.586960042 11.8044186 0.586960042"></polygon>
                <path d="M20.5076192,0.586960042 L20.5076192,8.70994729 C20.5076192,9.87037404 20.7010237,10.6439919 21.0878326,11.2242052 C21.4746415,11.8044186 22.2482594,11.9978231 23.0218772,11.9978231 C23.9888995,11.9978231 24.5691129,11.8044186 24.9559218,11.2242052 C25.3427307,10.6439919 25.5361351,9.87037404 25.5361351,8.70994729 L25.5361351,0.586960042 L27.2767753,0.586960042 L27.2767753,8.70994729 C27.2767753,10.4505874 26.8899664,11.6110142 26.1163485,12.5780364 C25.3427307,13.3516543 24.3757084,13.9318677 23.0218772,13.9318677 C21.668046,13.9318677 20.5076192,13.5450587 19.9274059,12.5780364 C19.153788,11.6110142 18.7669791,10.4505874 18.7669791,8.70994729 L18.7669791,0.586960042 L20.5076192,0.586960042 Z" id="Path"></path>
                <polygon id="Path" points="36.9469982 0.586960042 36.9469982 2.32760017 31.1448644 2.32760017 31.1448644 6.00228487 36.5601893 6.00228487 36.5601893 7.742925 31.1448644 7.742925 31.1448644 11.6110142 37.1404026 11.6110142 37.1404026 13.3516543 29.4042243 13.3516543 29.4042243 0.393555584 36.9469982 0.393555584"></polygon>
                <path d="M50.2919058,1.16717342 C51.0655236,1.74738679 51.4523325,2.90781354 51.4523325,4.26164475 L49.7116924,4.26164475 C49.518288,3.48802691 49.3248835,2.90781354 48.9380746,2.52100462 C48.5512657,2.13419571 47.9710523,1.94079125 47.1974345,1.94079125 C46.6172211,1.94079125 46.0370077,2.13419571 45.6501988,2.32760017 C45.2633899,2.52100462 45.0699854,3.101218 45.0699854,3.68143137 C45.0699854,4.26164475 45.2633899,4.64845366 45.8436033,5.03526258 C46.0370077,5.22866704 46.6172211,5.4220715 47.5842434,5.80888041 C48.9380746,6.38909379 49.9050969,6.7759027 50.2919058,7.16271162 C51.2589281,7.742925 51.645737,8.70994729 51.645737,9.87037404 C51.645737,11.0308008 51.2589281,11.9978231 50.4853103,12.5780364 C49.7116924,13.1582498 48.7446701,13.5450587 47.3908389,13.5450587 C46.0370077,13.5450587 45.0699854,13.1582498 44.4897721,12.5780364 C43.5227498,11.8044186 43.1359408,10.6439919 43.1359408,8.90335174 L44.876581,8.90335174 C45.0699854,9.87037404 45.2633899,10.6439919 45.6501988,11.0308008 C46.0370077,11.4176097 46.6172211,11.6110142 47.5842434,11.6110142 C48.3578612,11.6110142 48.9380746,11.4176097 49.3248835,11.2242052 C49.7116924,10.8373963 49.9050969,10.4505874 49.9050969,9.87037404 C49.9050969,9.0967562 49.518288,8.70994729 48.9380746,8.32313837 C48.7446701,8.12973391 47.9710523,7.93632945 47.00403,7.54952054 C45.6501988,6.96930716 44.876581,6.7759027 44.6831765,6.38909379 C43.9095587,5.80888041 43.5227498,4.84185812 43.5227498,3.87483583 C43.5227498,2.71440908 43.9095587,1.74738679 44.6831765,1.16717342 C45.4567943,0.586960042 46.4238166,0.200151125 47.3908389,0.200151125 C48.7446701,0.200151125 49.7116924,0.586960042 50.2919058,1.16717342 Z" id="Path"></path>
                <polygon id="Path" points="54.9336128 0.586960042 54.9336128 6.00228487 60.1555332 6.00228487 60.1555332 0.586960042 61.8961733 0.586960042 61.8961733 13.5450587 60.1555332 13.5450587 60.1555332 7.742925 54.9336128 7.742925 54.9336128 13.5450587 53.1929727 13.5450587 53.1929727 0.586960042"></polygon>
                <polygon id="Path" points="65.7642625 0.586960042 65.7642625 13.5450587 64.0236223 13.5450587 64.0236223 0.586960042"></polygon>
                <polygon id="Path" points="75.2410809 0.586960042 75.2410809 2.32760017 69.4389472 2.32760017 69.4389472 6.00228487 74.854272 6.00228487 74.854272 7.742925 69.4389472 7.742925 69.4389472 11.6110142 75.4344854 11.6110142 75.4344854 13.3516543 67.698307 13.3516543 67.698307 0.393555584 75.2410809 0.393555584"></polygon>
                <polygon id="Path" points="78.7223612 0.586960042 78.7223612 11.8044186 84.3310904 11.8044186 84.3310904 13.5450587 76.981721 13.5450587 76.981721 0.586960042 78.7223612 0.586960042"></polygon>
                <path d="M89.5530108,0.586960042 C91.2936509,0.586960042 92.4540777,1.16717342 93.4211,2.32760017 C94.1947178,3.48802691 94.5815267,5.03526258 94.5815267,6.96930716 C94.5815267,9.0967562 94.1947178,10.6439919 93.4211,11.6110142 C92.6474821,12.7714409 91.2936509,13.3516543 89.5530108,13.3516543 L85.6849216,13.3516543 L85.6849216,0.393555584 L89.5530108,0.393555584 L89.5530108,0.586960042 Z M87.4255618,11.6110142 L89.1662019,11.6110142 C90.5200331,11.6110142 91.4870554,11.2242052 92.0672688,10.4505874 C92.6474821,9.67696958 92.8408866,8.51654283 92.8408866,6.96930716 C92.8408866,5.4220715 92.6474821,4.06824029 92.0672688,3.48802691 C91.4870554,2.71440908 90.5200331,2.32760017 89.1662019,2.32760017 L87.4255618,2.32760017 L87.4255618,11.6110142 Z" id="Shape"></path>
                <polygon id="Path" points="102.897918 0.586960042 102.897918 13.5450587 101.157278 13.5450587 101.157278 0.586960042"></polygon>
                <polygon id="Path" points="106.572603 0.586960042 111.794524 9.87037404 111.794524 9.87037404 111.794524 0.586960042 113.535164 0.586960042 113.535164 13.5450587 111.794524 13.5450587 106.572603 4.06824029 106.572603 4.06824029 106.572603 13.5450587 104.831963 13.5450587 104.831963 0.586960042"></polygon>
                <polygon id="Path" points="122.625173 0.586960042 122.625173 2.32760017 117.209848 2.32760017 117.209848 6.00228487 122.238364 6.00228487 122.238364 7.742925 117.209848 7.742925 117.209848 13.5450587 115.469208 13.5450587 115.469208 0.586960042 122.625173 0.586960042"></polygon>
                <path d="M132.295396,2.13419571 C133.069014,3.29462246 133.649227,5.03526258 133.649227,6.96930716 C133.649227,8.90335174 133.262418,10.6439919 132.295396,11.8044186 C131.328374,13.1582498 130.167947,13.7384632 128.620711,13.7384632 C127.073476,13.7384632 125.719644,13.1582498 124.946027,11.8044186 C124.172409,10.6439919 123.592195,8.90335174 123.592195,6.96930716 C123.592195,5.03526258 123.979004,3.48802691 124.946027,2.13419571 C125.913049,0.7803645 127.073476,0.200151125 128.620711,0.200151125 C130.167947,0.200151125 131.521778,0.7803645 132.295396,2.13419571 Z M126.106453,3.48802691 C125.52624,4.26164475 125.332836,5.4220715 125.332836,6.96930716 C125.332836,8.51654283 125.52624,9.67696958 126.106453,10.4505874 C126.686667,11.4176097 127.460285,11.8044186 128.620711,11.8044186 C129.781138,11.8044186 130.554756,11.4176097 131.134969,10.4505874 C131.715183,9.67696958 131.908587,8.51654283 131.908587,6.96930716 C131.908587,5.4220715 131.715183,4.26164475 131.134969,3.29462246 C130.554756,2.52100462 129.781138,1.94079125 128.620711,1.94079125 C127.460285,1.94079125 126.686667,2.52100462 126.106453,3.48802691 Z" id="Shape"></path>
                <path d="M140.031574,0.586960042 C140.998597,0.586960042 141.965619,0.7803645 142.545832,1.55398233 C143.126046,2.13419571 143.512855,3.101218 143.512855,4.45504921 C143.512855,5.03526258 143.31945,5.80888041 143.126046,6.19568933 C142.739237,6.7759027 142.352428,7.16271162 141.772215,7.35611608 L141.772215,7.35611608 C142.739237,7.54952054 143.126046,8.32313837 143.31945,9.67696958 L143.512855,11.8044186 C143.512855,12.5780364 143.706259,13.1582498 144.093068,13.7384632 L142.159023,13.7384632 C141.965619,13.3516543 141.772215,12.7714409 141.772215,11.9978231 L141.57881,10.4505874 C141.57881,9.67696958 141.385406,9.29016066 140.998597,8.90335174 C140.611788,8.51654283 140.224979,8.51654283 139.644765,8.51654283 L136.937103,8.51654283 L136.937103,13.7384632 L135.196463,13.7384632 L135.196463,0.7803645 L140.031574,0.7803645 L140.031574,0.586960042 Z M136.937103,6.38909379 L139.644765,6.38909379 C140.224979,6.38909379 140.805192,6.19568933 141.192001,5.80888041 C141.57881,5.4220715 141.57881,5.03526258 141.57881,4.26164475 C141.57881,3.48802691 141.385406,3.101218 141.192001,2.71440908 C140.805192,2.32760017 140.418383,2.32760017 139.644765,2.32760017 L136.937103,2.32760017 L136.937103,6.38909379 Z" id="Shape"></path>
                <polygon id="Path" points="147.574348 0.586960042 151.055629 10.6439919 151.055629 10.6439919 154.536909 0.586960042 156.470953 0.586960042 156.470953 13.5450587 154.730313 13.5450587 154.730313 4.64845366 154.730313 4.64845366 151.635842 13.5450587 150.088606 13.5450587 146.994135 4.64845366 146.994135 4.64845366 146.994135 13.5450587 145.253495 13.5450587 145.253495 0.586960042"></polygon>
                <path d="M163.626918,0.586960042 L167.688412,13.5450587 L165.947772,13.5450587 L164.98075,10.257183 L160.725851,10.257183 L159.758829,13.5450587 L158.018189,13.5450587 L162.079683,0.586960042 L163.626918,0.586960042 Z M164.207132,8.51654283 L162.659896,2.90781354 L162.659896,2.90781354 L161.11266,8.51654283 L164.207132,8.51654283 Z" id="Shape"></path>
                <polygon id="Path" points="176.198208 0.586960042 176.198208 2.32760017 172.716928 2.32760017 172.716928 13.5450587 170.976288 13.5450587 170.976288 2.32760017 167.495007 2.32760017 167.495007 0.586960042"></polygon>
                <polygon id="Path" points="179.292679 0.586960042 179.292679 13.5450587 177.552039 13.5450587 177.552039 0.586960042"></polygon>
                <path d="M189.73652,2.13419571 C190.510138,3.29462246 191.090351,5.03526258 191.090351,6.96930716 C191.090351,8.90335174 190.703542,10.6439919 189.73652,11.8044186 C188.769498,13.1582498 187.609071,13.7384632 186.061835,13.7384632 C184.5146,13.7384632 183.160769,13.1582498 182.387151,11.8044186 C181.613533,10.6439919 181.03332,8.90335174 181.03332,6.96930716 C181.03332,5.03526258 181.420128,3.48802691 182.387151,2.13419571 C183.354173,0.7803645 184.5146,0.200151125 186.061835,0.200151125 C187.415667,0.200151125 188.769498,0.7803645 189.73652,2.13419571 Z M183.354173,3.48802691 C182.77396,4.26164475 182.580555,5.4220715 182.580555,6.96930716 C182.580555,8.51654283 182.77396,9.67696958 183.354173,10.4505874 C183.934386,11.4176097 184.708004,11.8044186 185.868431,11.8044186 C187.028858,11.8044186 187.802476,11.4176097 188.382689,10.4505874 C188.962902,9.67696958 189.156307,8.51654283 189.156307,6.96930716 C189.156307,5.4220715 188.962902,4.26164475 188.382689,3.29462246 C187.802476,2.52100462 187.028858,1.94079125 185.868431,1.94079125 C184.708004,1.94079125 183.934386,2.52100462 183.354173,3.48802691 Z" id="Shape"></path>
                <polygon id="Path" points="194.378227 0.586960042 199.600148 9.87037404 199.600148 9.87037404 199.600148 0.586960042 201.340788 0.586960042 201.340788 13.5450587 199.600148 13.5450587 194.378227 4.06824029 194.378227 4.06824029 194.378227 13.5450587 192.637587 13.5450587 192.637587 0.586960042"></polygon>
            </g>
        </g>
    </g>
</svg>