<?xml version="1.0" encoding="UTF-8"?>
<svg width="250px" height="100px" viewBox="0 0 250 100" version="1.1" xmlns="http://www.w3.org/2000/svg" xmlns:xlink="http://www.w3.org/1999/xlink">
    <!-- Generator: Sketch 59.1 (86144) - https://sketch.com -->
    <title>brand/brand_16</title>
    <desc>Created with Sketch.</desc>
    <g id="brand/brand_16" stroke="none" stroke-width="1" fill="none" fill-rule="evenodd">
        <g id="Group" transform="translate(76.000000, 21.000000)" fill-rule="nonzero">
            <path d="M1.53054233,38.8490285 C15.3283081,46.8495526 32.4037544,51.6629469 50.0262102,51.6629469 C61.9247592,51.6629469 75.0048487,49.2082902 87.030304,44.1245784 C88.8507513,43.3615857 90.3648734,45.3148471 88.5838107,46.6315546 C77.8536738,54.5187198 62.3011017,58.713 48.9015588,58.713 C30.1238191,58.713 13.2234159,51.7981056 0.4321474,40.2834549 C-0.569973871,39.3765835 0.32712159,38.1470751 1.53054233,38.8490285 Z M97.6247826,38.059876 C98.8019468,39.5204621 97.3228333,49.5614468 91.5682942,54.3617613 C90.6799509,55.1029543 89.8353683,54.710558 90.224839,53.7295673 C91.5245334,50.5119178 94.4214953,43.2918263 93.0517837,41.5391229 C91.6820721,39.7994995 83.9758033,40.7194507 80.5230798,41.1205669 C79.4728217,41.2426458 79.315283,40.3314144 80.2561392,39.6774206 C86.3870209,35.3785014 96.4519943,36.6167296 97.6247826,38.059876 Z" id="Combined-Shape" fill="#FF9901"></path>
            <path d="M27.46,11.424 L27.46,22.032 C27.46,24.429 27.511,26.877 27.868,28.713 L22.513,28.713 L22.105,25.449 L21.952,25.449 C20.371,27.642 17.617,29.274 14.098,29.274 C8.845,29.274 5.836,25.398 5.836,21.063 C5.836,14.076 11.905,10.608 21.544,10.608 C21.544,8.517 21.544,4.335 15.883,4.335 C13.384,4.335 10.834,5.1 9.049,6.273 L7.825,2.346 C9.814,1.071 13.129,-1.77635684e-15 16.903,-1.77635684e-15 C25.165,-1.77635684e-15 27.46,5.457 27.46,11.424 Z M21.697,19.227 L21.697,14.586 C17.056,14.586 11.701,15.453 11.701,20.451 C11.701,23.562 13.639,24.939 15.832,24.939 C19.045,24.939 21.697,22.491 21.697,19.227 Z M65.302,0.612 L71.167,0.612 L62.65,28.713 L57.295,28.713 L53.674,16.269 C52.807,13.311 52.195,10.608 51.583,7.293 L51.43,7.293 C50.869,10.659 50.104,13.515 49.237,16.32 L45.412,28.713 L40.057,28.713 L31.999,0.612 L38.119,0.612 L41.23,14.076 C41.893,17.085 42.556,20.094 43.066,23.052 L43.168,23.052 C43.729,20.145 44.596,17.034 45.412,14.127 L49.288,0.612 L54.133,0.612 L57.805,13.821 C58.672,17.085 59.437,20.094 59.998,23.052 L60.151,23.052 C60.61,20.145 61.273,17.136 62.038,13.872 L65.302,0.612 Z M91.006,1.632 L89.68,5.916 C88.558,5.202 86.62,4.335 84.325,4.335 C81.673,4.335 80.245,5.865 80.245,7.752 C80.245,9.69 81.52,10.659 84.937,12.138 C89.578,14.025 92.026,16.575 92.026,20.655 C92.026,26.061 87.895,29.274 81.52,29.274 C78.562,29.274 75.757,28.509 73.87,27.387 L75.196,23.001 C76.624,23.868 79.225,24.888 81.622,24.888 C84.784,24.888 86.314,23.358 86.314,21.216 C86.314,19.074 85.141,17.901 81.775,16.473 C76.777,14.484 74.584,11.679 74.584,8.415 C74.584,3.723 78.409,-1.77635684e-15 84.325,-1.77635684e-15 C87.079,-1.77635684e-15 89.476,0.765 91.006,1.632 Z" id="aws" fill="#252F3E"></path>
        </g>
    </g>
</svg>