<?xml version="1.0" encoding="UTF-8"?>
<svg width="250px" height="100px" viewBox="0 0 250 100" version="1.1" xmlns="http://www.w3.org/2000/svg" xmlns:xlink="http://www.w3.org/1999/xlink">
    <!-- Generator: Sketch 59.1 (86144) - https://sketch.com -->
    <title>brand/brand_11</title>
    <desc>Created with Sketch.</desc>
    <g id="brand/brand_11" stroke="none" stroke-width="1" fill="none" fill-rule="evenodd">
        <g id="Group-2" transform="translate(26.000000, 17.000000)" fill-rule="nonzero">
            <g id="Group" transform="translate(0.000000, 31.302053)" fill="#003594">
                <polygon id="Path" points="134.422287 22.4457478 129.630499 22.4457478 132.656891 16.6451613 124.082111 0.252199413 128.621701 0.252199413 134.926686 12.1055718 141.231672 0.252199413 145.771261 0.252199413 135.178886 20.4281525"></polygon>
                <polygon id="Path" points="13.8709677 22.4457478 9.58357771 22.4457478 9.58357771 4.28739003 0.504398827 4.28739003 0.504398827 0.504398827 22.6979472 0.504398827 22.6979472 4.28739003 13.6187683 4.28739003 13.6187683 22.4457478"></polygon>
                <polygon id="Path" points="48.170088 22.4457478 43.8826979 22.4457478 43.8826979 12.8621701 29.7595308 12.8621701 29.7595308 22.4457478 25.4721408 22.4457478 25.4721408 0.504398827 29.7595308 0.504398827 29.7595308 9.07917889 43.8826979 9.07917889 43.8826979 0.504398827 48.170088 0.504398827"></polygon>
                <path d="M62.5454545,23.202346 C58.7624633,23.202346 56.9970674,22.4457478 54.7272727,20.9325513 C52.457478,19.4193548 51.1964809,17.6539589 51.1964809,15.1319648 L51.1964809,0.252199413 L55.483871,0.252199413 L55.483871,14.1231672 C55.483871,15.6363636 56.2404692,16.8973607 57.5014663,17.6539589 C59.0146628,18.4105572 59.771261,18.914956 62.5454545,18.914956 C65.3196481,18.914956 66.3284457,18.4105572 67.5894428,17.6539589 C68.8504399,16.8973607 69.6070381,15.6363636 69.6070381,14.1231672 L69.6070381,0.252199413 L73.8944282,0.252199413 L73.8944282,15.1319648 C73.8944282,17.4017595 72.6334311,19.4193548 70.6158358,20.9325513 C68.0938416,22.4457478 66.0762463,23.202346 62.5454545,23.202346 Z" id="Path"></path>
                <path d="M99.6187683,22.4457478 L94.5747801,22.4457478 L88.7741935,14.3753666 L80.9560117,14.3753666 L80.9560117,22.4457478 L76.6686217,22.4457478 L76.6686217,0.504398827 L91.5483871,0.504398827 C93.8181818,0.504398827 95.8357771,1.26099707 97.0967742,2.52199413 C98.3577713,3.7829912 99.1143695,5.5483871 99.1143695,7.5659824 C99.1143695,9.58357771 98.6099707,11.0967742 97.3489736,12.1055718 C96.340176,13.1143695 95.3313783,13.6187683 93.5659824,14.1231672 L99.6187683,22.4457478 Z M80.9560117,10.5923754 L91.0439883,10.5923754 C93.5659824,10.5923754 94.8269795,9.58357771 94.8269795,7.5659824 C94.8269795,5.5483871 93.5659824,4.28739003 90.7917889,4.28739003 L80.9560117,4.28739003 L80.9560117,10.5923754 Z" id="Shape"></path>
                <path d="M128.369501,22.4457478 L123.577713,22.4457478 L121.055718,17.6539589 L107.184751,17.6539589 L104.662757,22.4457478 L99.8709677,22.4457478 L111.472141,0.504398827 L116.26393,0.504398827 L128.369501,22.4457478 Z M109.202346,13.8709677 L119.038123,13.8709677 L114.246334,4.53958944 L109.202346,13.8709677 Z" id="Shape"></path>
                <path d="M168.469208,22.4457478 L163.929619,22.4457478 L161.407625,17.6539589 L147.536657,17.6539589 L145.014663,22.4457478 L140.475073,22.4457478 L152.076246,0.504398827 L156.868035,0.504398827 L168.469208,22.4457478 Z M149.554252,13.8709677 L159.390029,13.8709677 L154.59824,4.53958944 L149.554252,13.8709677 Z" id="Shape"></path>
            </g>
            <g id="Group" transform="translate(168.000000, 0.000000)">
                <path d="M9.08797654,22.202346 C9.08797654,22.202346 9.34017595,22.4545455 9.59237537,22.7067449 L12.1143695,32.0381232 L8.58357771,25.4809384 C8.07917889,24.7243402 7.32258065,25.228739 7.32258065,25.228739 L4.5483871,26.4897361 L6.5659824,23.7155425 C7.07038123,23.2111437 6.31378299,22.7067449 6.31378299,22.7067449 L0.513196481,17.914956 L9.08797654,22.202346" id="Path" fill="#144733"></path>
                <path d="M27.2463343,7.82697947 L15.6451613,20.1847507 C15.1407625,20.6891496 15.1407625,21.6979472 15.8973607,22.202346 L30.0205279,33.0469208 L10.0967742,22.4545455 C9.84457478,22.4545455 9.84457478,22.202346 9.59237537,22.202346 C9.59237537,21.9501466 9.34017595,21.9501466 9.34017595,21.6979472 L3.03519062,0.00879765396 L10.601173,16.1495601 C10.8533724,16.9061584 11.8621701,17.1583578 12.6187683,16.6539589 L27.2463343,7.82697947" id="Path" fill="#C4D600"></path>
            </g>
        </g>
    </g>
</svg>