<?xml version="1.0" encoding="UTF-8"?>
<svg width="250px" height="100px" viewBox="0 0 250 100" version="1.1" xmlns="http://www.w3.org/2000/svg" xmlns:xlink="http://www.w3.org/1999/xlink">
    <!-- Generator: Sketch 59.1 (86144) - https://sketch.com -->
    <title>brand/brand_12</title>
    <desc>Created with Sketch.</desc>
    <g id="brand/brand_12" stroke="none" stroke-width="1" fill="none" fill-rule="evenodd">
        <path d="M141.428152,35.627566 L152.272727,60.0909091 L141.428152,60.0909091 L132.096774,38.6539589 C132.096774,38.6539589 137.392962,36.3841642 141.428152,35.627566 Z M95.0234604,21 L95.0234604,30.0791789 L68.542522,30.0791789 L68.542522,50.7595308 L98.3020528,50.7595308 C98.3020528,50.7595308 93.5102639,55.8035191 91.9970674,59.8387097 L91.9970674,59.8387097 L89.4750733,59.5865103 L67.0293255,59.5865103 C58.7067449,59.0821114 56.941349,51.0117302 56.941349,49.4985337 L56.941349,49.4985337 L56.941349,31.0879765 C56.941349,29.5747801 58.7067449,21.5043988 67.0293255,21 L67.0293255,21 L95.0234604,21 Z M192.876833,21 L192.876833,30.0791789 L178.249267,30.0791789 L178.249267,59.5865103 L167.656891,59.5865103 L167.656891,30.0791789 L154.290323,30.0791789 L154.290323,21 L192.876833,21 Z M130.835777,21 C134.870968,21.2521994 136.636364,25.0351906 136.888563,25.28739 C137.37462,26.0164756 137.392295,26.0429878 139.649688,31.4601539 L139.914956,32.0967742 C139.914956,32.0967742 133.357771,33.1055718 130.079179,34.1143695 L130.079179,34.1143695 L126.043988,25.0351906 L124.278592,29.3225806 L121.252199,36.6363636 C113.434018,39.6627566 107.381232,43.4457478 107.381232,43.4457478 C109.903226,37.3929619 114.947214,26.0439883 115.199413,25.28739 C115.199413,24.7829912 116.964809,21 121.252199,21 L121.252199,21 Z" id="Combined-Shape" fill="#ED6C00" fill-rule="nonzero"></path>
        <path d="M39.7917889,70.9354839 C40.2961877,70.9354839 41.0527859,70.9354839 41.5571848,71.1876833 L41.5571848,72.1964809 C41.0527859,71.9442815 40.2961877,71.9442815 39.7917889,71.9442815 C39.0351906,71.9442815 38.5307918,72.1964809 38.5307918,72.4486804 C38.2954057,72.6840665 38.2797133,73.35884 38.2786671,74.473001 L38.2785924,74.7184751 C38.2785924,75.9794721 38.2785924,76.7360704 38.5307918,76.9882698 C38.7829912,77.2404692 39.28739,77.4926686 39.7917889,77.4926686 C40.2961877,77.4926686 41.0527859,77.4926686 41.5571848,77.2404692 L41.5571848,77.9970674 C40.8005865,77.9970674 40.2961877,78.2492669 39.7917889,78.2492669 C38.5307918,78.2492669 37.7741935,77.9970674 37.5219941,77.4926686 C37.2697947,76.9882698 37.0175953,75.9794721 37.0175953,74.7184751 C37.0175953,73.2052786 37.2697947,72.1964809 37.5219941,71.6920821 C37.7741935,71.1876833 38.5307918,70.9354839 39.7917889,70.9354839 Z M80.143695,70.9354839 C80.6480938,70.9354839 81.4046921,70.9354839 81.9090909,71.1876833 L81.9090909,72.1964809 C81.4046921,71.9442815 80.6480938,71.9442815 80.143695,71.9442815 C79.3870968,71.9442815 78.8826979,72.1964809 78.8826979,72.4486804 C78.6473118,72.6840665 78.6316194,73.35884 78.6305733,74.473001 L78.6304985,74.7184751 C78.6304985,75.9794721 78.6304985,76.7360704 78.8826979,76.9882698 C79.1348974,77.2404692 79.6392962,77.4926686 80.143695,77.4926686 C80.6480938,77.4926686 81.4046921,77.4926686 81.9090909,77.2404692 L81.9090909,77.9970674 C81.1524927,77.9970674 80.6480938,78.2492669 80.143695,78.2492669 C78.8826979,78.2492669 78.1260997,77.9970674 77.8739003,77.4926686 C77.6217009,76.9882698 77.3695015,75.9794721 77.3695015,74.7184751 C77.3695015,73.2052786 77.6217009,72.1964809 77.8739003,71.6920821 C78.1260997,71.1876833 78.8826979,70.9354839 80.143695,70.9354839 Z M128.061584,70.9354839 C128.565982,70.9354839 129.322581,70.9354839 129.826979,71.1876833 L129.826979,72.1964809 C129.322581,71.9442815 128.565982,71.9442815 128.061584,71.9442815 C127.304985,71.9442815 126.800587,72.1964809 126.800587,72.4486804 C126.582014,72.6672532 126.552871,73.2646856 126.548985,74.2409775 L126.548985,75.1959726 C126.552871,76.1722646 126.582014,76.769697 126.800587,76.9882698 C127.052786,77.2404692 127.557185,77.4926686 128.061584,77.4926686 C128.565982,77.4926686 129.322581,77.4926686 129.826979,77.2404692 L129.826979,77.9970674 C129.070381,77.9970674 128.565982,78.2492669 128.061584,78.2492669 C126.800587,78.2492669 126.043988,77.9970674 125.791789,77.4926686 C125.539589,76.9882698 125.28739,75.9794721 125.28739,74.7184751 C125.28739,73.2052786 125.539589,72.1964809 125.791789,71.6920821 C126.043988,71.1876833 126.800587,70.9354839 128.061584,70.9354839 Z M136.384164,70.9354839 C136.888563,70.9354839 137.645161,70.9354839 138.14956,71.1876833 L138.14956,72.1964809 C137.645161,71.9442815 136.888563,71.9442815 136.384164,71.9442815 C135.627566,71.9442815 135.123167,72.1964809 135.123167,72.4486804 C134.904594,72.6672532 134.875451,73.2646856 134.871566,74.2409775 L134.871566,75.1959726 C134.875451,76.1722646 134.904594,76.769697 135.123167,76.9882698 C135.375367,77.2404692 135.879765,77.4926686 136.384164,77.4926686 C136.888563,77.4926686 137.645161,77.4926686 138.14956,77.2404692 L138.14956,77.9970674 C137.392962,77.9970674 136.888563,78.2492669 136.384164,78.2492669 C135.123167,78.2492669 134.366569,77.9970674 134.11437,77.4926686 C133.86217,76.9882698 133.609971,75.9794721 133.609971,74.7184751 C133.609971,73.2052786 133.86217,72.1964809 134.11437,71.6920821 C134.366569,71.1876833 135.123167,70.9354839 136.384164,70.9354839 Z M106.624633,71.1876833 L106.625552,75.9582355 C106.630603,76.3749328 106.663433,76.7360704 106.876833,76.7360704 C107.10101,76.9602476 107.325187,76.9851562 107.726492,76.9879238 L107.88563,76.9882698 C108.390029,76.9882698 108.642229,76.9882698 108.894428,76.7360704 C109.118605,76.5118931 109.143514,76.2877159 109.146282,75.8864109 L109.146628,71.1876833 L110.407625,71.1876833 L110.407625,75.7272727 C110.407625,77.2404692 109.651026,78.2492669 107.88563,78.2492669 C106.120235,78.2492669 105.363636,77.4926686 105.363636,75.7272727 L105.363636,71.1876833 L106.624633,71.1876833 Z M146.97654,70.9354839 L148.741935,74.9706745 L150.507331,70.9354839 L151.516129,70.9354839 L151.516129,77.9970674 L150.255132,77.9970674 L150.255132,73.9618768 L148.994135,76.7360704 L147.985337,76.7360704 L146.72434,73.9618768 L146.72434,77.9970674 L145.967742,77.9970674 L145.967742,70.9354839 L146.97654,70.9354839 Z M186.067449,70.9354839 L186.067449,77.9970674 L184.806452,77.9970674 L184.806452,70.9354839 L186.067449,70.9354839 Z M90.483871,70.9354839 L92.2492669,74.9706745 L94.0146628,70.9354839 L95.0234604,70.9354839 L95.0234604,77.9970674 L94.2668622,77.9970674 L94.2668622,73.9618768 L93.0058651,76.7360704 L91.9970674,76.7360704 L90.7360704,73.9618768 L90.7360704,77.9970674 L89.4750733,77.9970674 L89.4750733,70.9354839 L90.483871,70.9354839 Z M53.1583578,70.9354839 L53.1583578,71.9442815 L51.1407625,71.9442815 L51.1407625,77.9970674 L50.1319648,77.9970674 L50.1319648,71.9442815 L48.1143695,71.9442815 L48.1143695,70.9354839 L53.1583578,70.9354839 Z M155.803519,70.9354839 C156.560117,70.9354839 157.064516,71.1876833 157.316716,71.4398827 C157.568915,71.9442815 157.821114,72.4486804 157.821114,73.2052786 C157.821114,73.9618768 157.568915,74.4662757 157.316716,74.9706745 C157.064516,75.2228739 156.560117,75.4750733 155.803519,75.4750733 L154.542522,75.4750733 L154.542522,77.9970674 L153.281525,77.9970674 L153.281525,70.9354839 L155.803519,70.9354839 Z M195.903226,70.9354839 L195.903226,77.9970674 L194.642229,77.9970674 L194.642229,70.9354839 L195.903226,70.9354839 Z M141.932551,70.9354839 C142.941349,70.9354839 143.697947,71.1876833 143.950147,71.6920821 C144.202346,72.1964809 144.454545,73.2052786 144.454545,74.4662757 C144.454545,75.7272727 144.202346,76.7360704 143.950147,77.2404692 C143.445748,77.744868 142.941349,77.9970674 141.932551,77.9970674 C140.923754,77.9970674 140.167155,77.744868 139.914956,77.2404692 C139.410557,76.7360704 139.410557,75.7272727 139.410557,74.4662757 C139.410557,73.2052786 139.662757,72.1964809 139.914956,71.6920821 C140.419355,71.1876833 140.923754,70.9354839 141.932551,70.9354839 Z M210.530792,70.9354839 C211.539589,70.9354839 212.296188,71.1876833 212.548387,71.6920821 C213.052786,72.1964809 213.052786,73.2052786 213.052786,74.4662757 C213.052786,75.7272727 212.800587,76.7360704 212.548387,77.2404692 C212.296188,77.744868 211.539589,77.9970674 210.530792,77.9970674 L208.008798,77.9970674 L208.008798,70.9354839 L210.530792,70.9354839 Z M66.2727273,70.9354839 L66.2727273,71.9442815 L63.2463343,71.9442815 L63.2463343,73.9618768 L65.7683284,73.9618768 L65.7683284,74.9706745 L63.2463343,74.9706745 L63.2463343,76.9882698 L66.2727273,76.9882698 L66.2727273,77.9970674 L62.2375367,77.9970674 L62.2375367,70.9354839 L66.2727273,70.9354839 Z M171.944282,70.9354839 L173.457478,73.9618768 L174.970674,70.9354839 L176.231672,70.9354839 L173.961877,75.2228739 L173.961877,77.9970674 L172.953079,77.9970674 L172.953079,75.2228739 L170.683284,70.9354839 L171.944282,70.9354839 Z M166.143695,70.9354839 L168.917889,75.4750733 L168.917889,70.9354839 L170.178886,70.9354839 L170.178886,77.9970674 L169.170088,77.9970674 L166.395894,73.457478 L166.395894,77.9970674 L165.134897,77.9970674 L165.134897,70.9354839 L166.143695,70.9354839 Z M119.234604,70.9354839 L119.234604,76.9882698 L122.008798,76.9882698 L122.008798,77.9970674 L117.973607,77.9970674 L117.973607,70.9354839 L119.234604,70.9354839 Z M162.108504,70.9354839 L164.1261,77.9970674 L162.865103,77.9970674 L162.360704,76.2316716 L160.090909,76.2316716 L159.58651,77.9970674 L158.325513,77.9970674 L160.847507,70.9354839 L162.108504,70.9354839 Z M76.3607038,70.9354839 L76.3607038,71.9442815 L73.3343109,71.9442815 L73.3343109,73.9618768 L75.856305,73.9618768 L75.856305,74.9706745 L73.3343109,74.9706745 L73.3343109,76.9882698 L76.3607038,76.9882698 L76.3607038,77.9970674 L72.3255132,77.9970674 L72.3255132,70.9354839 L76.3607038,70.9354839 Z M188.589443,70.9354839 L190.354839,74.9706745 L192.120235,70.9354839 L193.129032,70.9354839 L193.129032,77.9970674 L191.868035,77.9970674 L191.868035,73.9618768 L190.607038,76.7360704 L189.59824,76.7360704 L188.841642,73.9618768 L188.841642,77.9970674 L187.580645,77.9970674 L187.580645,70.9354839 L188.589443,70.9354839 Z M123.774194,70.9354839 L123.774194,77.9970674 L122.513196,77.9970674 L122.513196,70.9354839 L123.774194,70.9354839 Z M114.695015,70.9354839 C115.956012,70.9354839 116.460411,71.4398827 116.460411,72.7008798 C116.460411,73.457478 116.208211,73.9618768 115.956012,74.2140762 C116.460411,74.7184751 116.71261,75.2228739 116.71261,75.9794721 C116.71261,76.7360704 116.460411,77.2404692 116.208211,77.4926686 C115.956012,77.744868 115.451613,77.9970674 114.695015,77.9970674 L111.920821,77.9970674 L111.920821,70.9354839 L114.695015,70.9354839 Z M181.527859,70.9354839 L181.527859,76.9882698 L184.302053,76.9882698 L184.302053,77.9970674 L180.266862,77.9970674 L180.266862,70.9354839 L181.527859,70.9354839 Z M85.9442815,70.9354839 C86.9530792,70.9354839 87.7096774,71.1876833 87.9618768,71.6920821 C88.2140762,72.1964809 88.4662757,73.2052786 88.4662757,74.4662757 C88.4662757,75.7272727 88.2140762,76.7360704 87.9618768,77.2404692 C87.457478,77.744868 86.9530792,77.9970674 85.9442815,77.9970674 C84.9354839,77.9970674 84.1788856,77.744868 83.9266862,77.2404692 C83.4222874,76.7360704 83.4222874,75.7272727 83.4222874,74.4662757 C83.4222874,73.2052786 83.6744868,72.1964809 83.9266862,71.6920821 C84.431085,71.1876833 84.9354839,70.9354839 85.9442815,70.9354839 Z M207,70.9354839 L207,71.9442815 L203.973607,71.9442815 L203.973607,73.9618768 L206.495601,73.9618768 L206.495601,74.9706745 L203.973607,74.9706745 L203.973607,76.9882698 L207,76.9882698 L207,77.9970674 L202.964809,77.9970674 L202.964809,70.9354839 L207,70.9354839 Z M60.9765396,70.9354839 L60.9765396,71.9442815 L58.9589443,71.9442815 L58.9589443,77.9970674 L57.9501466,77.9970674 L57.9501466,71.9442815 L55.9325513,71.9442815 L55.9325513,70.9354839 L60.9765396,70.9354839 Z M102.337243,70.9354839 C103.093842,70.9354839 103.59824,71.1876833 103.85044,71.4398827 C104.102639,71.9442815 104.354839,72.4486804 104.354839,73.2052786 C104.354839,73.9618768 104.102639,74.4662757 103.85044,74.9706745 C103.59824,75.2228739 103.093842,75.4750733 102.337243,75.4750733 L101.076246,75.4750733 L101.076246,77.9970674 L99.8152493,77.9970674 L99.8152493,70.9354839 L102.337243,70.9354839 Z M68.7947214,70.9354839 L68.7947214,76.9882698 L71.568915,76.9882698 L71.568915,77.9970674 L67.5337243,77.9970674 L67.5337243,70.9354839 L68.7947214,70.9354839 Z M46.0967742,70.9354839 L48.1143695,77.9970674 L46.8533724,77.9970674 L46.3489736,76.2316716 L44.0791789,76.2316716 L43.5747801,77.9970674 L42.313783,77.9970674 L44.8357771,70.9354839 L46.0967742,70.9354839 Z M201.703812,70.9354839 L201.703812,71.9442815 L199.686217,71.9442815 L199.686217,77.9970674 L198.677419,77.9970674 L198.677419,71.9442815 L196.659824,71.9442815 L196.659824,70.9354839 L201.703812,70.9354839 Z M114.778735,74.9710204 L113.181818,74.9706745 L113.181818,76.9882698 L114.695015,76.9882698 C114.947214,76.9882698 115.199413,76.9882698 115.199413,76.7360704 C115.428686,76.7360704 115.449529,76.5276411 115.451423,76.1107826 L115.451613,75.9794721 C115.451613,75.4750733 115.451613,75.2228739 115.199413,75.2228739 C115.199413,74.9986966 115.000145,74.9737881 114.778735,74.9710204 Z M85.6920821,71.9442815 C85.1876833,71.9442815 84.6832845,72.1964809 84.431085,72.4486804 C84.1968999,72.6828655 84.1801724,73.351966 84.1789775,74.2540568 L84.1788856,74.4662757 C84.1788856,75.4750733 84.1788856,76.2316716 84.431085,76.483871 C84.6832845,76.7360704 84.9354839,76.9882698 85.6920821,76.9882698 C86.1964809,76.9882698 86.7008798,76.7360704 86.9530792,76.483871 C87.1872643,76.2496858 87.2039919,75.5805853 87.2051867,74.6784945 L87.2052786,74.4662757 C87.2052786,73.457478 87.2052786,72.7008798 86.9530792,72.4486804 C86.7008798,72.1964809 86.4486804,71.9442815 85.6920821,71.9442815 Z M141.680352,71.9442815 C141.175953,71.9442815 140.671554,72.1964809 140.419355,72.4486804 C140.203184,72.6648513 140.172302,73.2516009 140.167891,74.0501099 L140.167891,74.8824415 C140.172302,75.6809504 140.203184,76.2677 140.419355,76.483871 C140.671554,76.7360704 140.923754,76.9882698 141.680352,76.9882698 C142.184751,76.9882698 142.68915,76.7360704 142.941349,76.483871 C143.15752,76.2677 143.188401,75.6809504 143.192813,74.8824415 L143.192813,74.0501099 C143.188401,73.2516009 143.15752,72.6648513 142.941349,72.4486804 C142.68915,72.1964809 142.43695,71.9442815 141.680352,71.9442815 Z M210.530792,71.9442815 L209.269795,71.9442815 L209.269795,76.9882698 L210.530792,76.9882698 C211.035191,76.9882698 211.539589,76.7360704 211.791789,76.483871 C211.791789,76.2316716 212.043988,75.4750733 212.043988,74.4662757 L212.043253,74.0501099 C212.038841,73.2516009 212.00796,72.6648513 211.791789,72.4486804 C211.539589,72.1964809 211.28739,71.9442815 210.530792,71.9442815 Z M45.0875953,72.7015748 L44.3313783,75.2228739 L45.8445748,75.2228739 L45.0875953,72.7015748 Z M161.351595,72.7015748 L160.595308,75.2228739 L162.108504,75.2228739 L161.351595,72.7015748 Z M102.216354,71.944471 L100.824047,71.9442815 L100.824047,74.4662757 L102.085044,74.4662757 C102.337243,74.4662757 102.589443,74.4662757 102.841642,74.2140762 C103.074442,74.2140762 103.092349,73.7842926 103.093727,73.3214487 L103.093842,73.2052786 C103.093842,72.7008798 103.093842,72.1964809 102.841642,72.1964809 C102.841642,71.9672087 102.633213,71.9463658 102.216354,71.944471 Z M155.55132,71.9442815 L154.290323,71.9442815 L154.290323,74.4662757 L155.55132,74.4662757 C155.803519,74.4662757 156.055718,74.4662757 156.307918,74.2140762 C156.540717,74.2140762 156.558625,73.7842926 156.560003,73.3214487 L156.560117,73.2052786 C156.560117,72.7008798 156.560117,72.1964809 156.307918,72.1964809 C156.055718,72.1964809 156.055718,71.9442815 155.55132,71.9442815 Z M114.695015,72.1964809 L113.181818,72.1964809 L113.181818,74.2140762 L114.695015,74.2140762 C114.947214,74.2140762 115.199413,74.2140762 115.199413,73.9618768 L115.199413,72.9530792 C115.199413,72.4486804 114.947214,72.1964809 114.695015,72.1964809 Z M161.351906,31.8445748 L159.334311,33.3577713 C131.844575,33.3577713 116.964809,46.7243402 111.668622,59.8387097 L111.668622,59.8387097 L96.7888563,59.8387097 C100.319648,45.4633431 128.818182,31.8445748 161.351906,31.8445748 L161.351906,31.8445748 Z" id="Combined-Shape" fill="#727171" fill-rule="nonzero"></path>
    </g>
</svg>