<?xml version="1.0" encoding="UTF-8"?>
<svg width="250px" height="100px" viewBox="0 0 250 100" version="1.1" xmlns="http://www.w3.org/2000/svg" xmlns:xlink="http://www.w3.org/1999/xlink">
    <!-- Generator: Sketch 59.1 (86144) - https://sketch.com -->
    <title>brand/brand_13</title>
    <desc>Created with Sketch.</desc>
    <g id="brand/brand_13" stroke="none" stroke-width="1" fill="none" fill-rule="evenodd">
        <path d="M61.2456997,30.8506722 C60.6275846,36.6078576 59.4522422,41.0637507 51.7080158,51.6550918 C46.5451982,58.7159858 39.9848606,65.101433 32.0270032,70.8114332 C28.4160482,73.4318318 24.8479635,74.9553454 21.3227491,75.381974 C16.0349275,76.0219168 15.8034829,71.8542473 16.0625934,69.1892342 C16.2353337,67.4125588 17.60703,63.8879423 20.1776823,58.6153847 C22.2723221,55.0459426 23.7632006,52.3344605 24.6503176,50.4809384 C25.5374347,48.6274163 26.0901395,47.0690824 26.308432,45.8059367 C27.2719717,39.8470132 25.7332287,36.7809868 21.6922029,36.6078576 C16.372565,36.379949 11.7296485,41.7629866 11.0852282,49.5008056 C10.9285345,51.3822915 11.360905,54.4569101 12.3823398,58.7246612 L12.4982567,59.2037658 L11.2939559,55.774852 C10.6089437,53.8244686 10.2594997,51.7733778 10.2592193,49.7086747 L10.2664314,49.1922658 L10.361494,45.8059367 L10.5034044,45.2907133 C11.938824,40.1887142 13.8637099,36.5937742 16.2780622,34.5058933 C20.0203083,31.2696779 21.6678436,29.2489766 29.6501909,27.4840068 C34.8054569,26.3441305 40.3388341,26.9044464 46.2503225,29.1649546 L46.8235824,29.389021 L49.826678,27.4840068 C52.9194268,26.0592504 54.9997949,25.3468721 56.0677823,25.3468721 L56.2424473,25.3462251 C57.9532864,25.3365442 61.8425004,25.2920105 61.2456997,30.8506722 Z M59.4591393,45.4147099 C60.3976808,52.8200728 58.5737804,59.0254638 53.9874381,64.0308828 C49.441713,68.9352343 43.3590233,71.6013633 35.7393692,72.0292698 C41.1501738,68.9519815 45.8905956,65.1299616 49.9606345,60.5632102 C53.7971856,56.2584417 56.9633539,51.2089416 59.4591393,45.4147099 Z M230.280483,62.6521863 C232.425483,62.6521863 234.034562,63.2867356 234.034562,65.2217356 C234.014562,67.7239119 234.014562,68.97 234.034562,68.96 L234.034562,68.96 L234.034562,71.5068248 C233.845377,71.577769 233.077085,71.577769 231.729684,71.5068248 C231.786916,70.9195143 231.786916,70.5379672 231.729684,70.3621837 C231.219684,71.1271837 229.790062,71.8016675 228.695062,71.8016675 C226.925062,71.8016675 226,70.9440966 226,69.3390966 C226,67.973301 227.219848,66.3805025 229.484848,66.3805025 C229.814848,66.3805025 230.860631,66.3759139 231.37132,66.1745535 L231.37132,66.1745535 L231.37132,65.548128 C231.37132,64.513128 230.599562,64.358891 229.909562,64.358891 C229.204562,64.358891 227.562747,64.7156354 226.897664,65.2217356 L226.897664,65.2217356 L226.64313,63.3653152 C227.996779,62.7632134 228.360483,62.6521863 230.280483,62.6521863 Z M182.495921,62.6521863 C184.640921,62.6521863 186.25,63.2867356 186.25,65.2217356 C186.23,67.7239119 186.23,68.97 186.25,68.96 L186.25,68.96 L186.25,71.5068248 C186.060816,71.577769 185.292523,71.577769 183.945122,71.5068248 C184.002354,70.9195143 184.002354,70.5379672 183.945122,70.3621837 C183.435122,71.1271837 182.005501,71.8016675 180.910501,71.8016675 C179.140501,71.8016675 178.215438,70.9440966 178.215438,69.3390966 C178.215438,67.973301 179.435287,66.3805025 181.700287,66.3805025 C182.030287,66.3805025 183.076069,66.3759139 183.586758,66.1745535 L183.586758,66.1745535 L183.586758,65.548128 C183.586758,64.513128 182.815,64.358891 182.125,64.358891 C181.42,64.358891 179.778186,64.7156354 179.113103,65.2217356 L179.113103,65.2217356 L178.858568,63.3653152 C180.212217,62.7632134 180.575921,62.6521863 182.495921,62.6521863 Z M152.694953,62.6718248 C155.424953,62.6718248 156.867761,64.393202 156.867761,66.523202 L156.867761,66.523202 L156.867761,67.635928 L150.901355,67.6395508 C151.051355,69.0645508 151.589992,69.8268248 152.694953,70.025 C153.568836,70.0591204 156.077443,69.9994272 156.242526,69.3390966 L156.242526,69.3390966 L156.494836,71.15 C155.340418,71.8968248 153.736355,71.7468248 152.281355,71.7468248 C149.701355,71.7468248 148.321355,69.9768248 148.321355,67.2168248 C148.321355,64.1568248 150.504953,62.6718248 152.694953,62.6718248 Z M192.705,59.3 L192.705,63.0468248 L194.67,63.0468248 L194.67,64.8468248 L192.705,64.8468248 L192.705,68.7168248 C192.705,69.5418248 193.095,69.8268248 193.95,69.8268248 C194.22,69.8268248 194.505,69.7668248 194.67,69.7068248 L194.67,69.7068248 L194.67,71.5068248 C194.22,71.6568248 193.56,71.7468248 192.99,71.7468248 C191.37,71.7468248 190.23,70.9068248 190.23,69.1218248 L190.23,69.1218248 L190.23,64.8468248 L188.535266,64.8468248 L188.535266,63.0468248 L190.23,63.0468248 L190.23,60.0725 L192.705,59.3 Z M144.169734,59.3 L144.169734,63.0468248 L146.134734,63.0468248 L146.134734,64.8468248 L144.169734,64.8468248 L144.169734,68.7168248 C144.169734,69.5418248 144.559734,69.8268248 145.414734,69.8268248 C145.684734,69.8268248 145.969734,69.7668248 146.134734,69.7068248 L146.134734,69.7068248 L146.134734,71.5068248 C145.684734,71.6568248 145.024734,71.7468248 144.454734,71.7468248 C142.834734,71.7468248 141.694734,70.9068248 141.694734,69.1218248 L141.694734,69.1218248 L141.694734,64.8468248 L140,64.8468248 L140,63.0468248 L141.694734,63.0468248 L141.694734,60.0725 L144.169734,59.3 Z M172.67058,62.8068248 C174.20058,62.8068248 175.38558,63.7218248 175.38558,65.7168248 L175.38558,65.7168248 L175.38558,71.5068248 L172.83558,71.5068248 L172.83558,66.2568248 C172.83558,65.1018248 172.47558,64.6968248 171.65058,64.6968248 C170.91558,64.6968248 169.850774,65.1468248 169.850774,66.2568248 L169.850774,66.2568248 L169.850774,71.5068248 L167.300774,71.5068248 L167.300774,62.9568248 L169.685774,62.9568248 L169.685774,64.1118248 L169.715774,64.1118248 C170.210774,63.2268248 171.59058,62.8068248 172.67058,62.8068248 Z M239.775,58.76 L239.775,71.5068248 L237,71.5068248 L237,58.76 L239.775,58.76 Z M126.106187,59.8068248 L126.106187,71.5068248 L123.331187,71.5068248 L123.331187,59.8068248 L126.106187,59.8068248 Z M220.355229,62.8068248 C221.885229,62.8068248 223.070229,63.7218248 223.070229,65.7168248 L223.070229,65.7168248 L223.070229,71.5068248 L220.520229,71.5068248 L220.520229,66.2568248 C220.520229,65.1018248 220.160229,64.6968248 219.335229,64.6968248 C218.600229,64.6968248 217.55,65.1468248 217.55,66.2568248 L217.55,66.2568248 L217.55,71.5068248 L215,71.5068248 L215,62.9568248 L217.385,62.9568248 L217.385,64.1118248 L217.415,64.1118248 C217.91,63.2268248 219.275229,62.8068248 220.355229,62.8068248 Z M200.026248,62.6 L200.026248,71.5068248 L197.476248,71.5068248 L197.476248,62.6 L200.026248,62.6 Z M207.185,62.6568248 C209.51,62.6568248 212.050034,64.1118248 212.050034,67.0818248 C212.050034,70.2768248 209.555,71.5068248 207.185,71.5068248 C204.86,71.5068248 202.771773,70.445 202.771773,67.475 C202.771773,64.28 204.815,62.6568248 207.185,62.6568248 Z M164.107372,62.6118248 C164.332372,62.6118248 164.602372,62.6268248 164.827372,62.6718248 L164.827372,62.6718248 L164.827372,64.8018248 C164.602372,64.7568248 164.332372,64.7418248 164.107372,64.7418248 C162.997372,64.7418248 162.337372,65.0268248 162.337372,66.7368248 L162.337372,66.7368248 L162.337372,71.3568248 L159.772372,71.3568248 L159.772372,62.8068248 L161.842372,62.8068248 L161.842372,65.0568248 L161.917372,65.0568248 C162.157372,63.4368248 162.907372,62.6118248 164.107372,62.6118248 Z M135.048601,62.6568248 C136.578601,62.6568248 137.763601,63.5718248 137.763601,65.5668248 L137.763601,65.5668248 L137.763601,71.3568248 L135.213601,71.3568248 L135.213601,66.1068248 C135.213601,64.9518248 134.853601,64.5468248 134.028601,64.5468248 C133.293601,64.5468248 132.108691,64.9968248 132.108691,66.1068248 L132.108691,66.1068248 L132.108691,71.3568248 L129.558691,71.3568248 L129.558691,62.8068248 L131.943691,62.8068248 L131.943691,63.9618248 L131.973691,63.9618248 C132.468691,63.0768248 133.968601,62.6568248 135.048601,62.6568248 Z M183.586758,67.804421 C183.301758,67.729421 182.221082,67.7230084 181.688649,67.9320687 C181.005257,68.2004038 180.653649,68.428632 180.653649,69.073632 C180.653649,69.583632 181.055287,70.025 181.700287,70.025 C182.570287,70.025 183.746085,69.11 183.586758,67.804421 Z M231.37132,67.804421 C231.08632,67.729421 230.005643,67.7230084 229.473211,67.9320687 C228.789818,68.2004038 228.438211,68.428632 228.438211,69.073632 C228.438211,69.583632 228.839848,70.025 229.484848,70.025 C230.354848,70.025 231.530646,69.11 231.37132,67.804421 Z M207.185,64.5318248 C206.135,64.5318248 205.269058,65.2968248 205.269058,67.0818248 C205.269058,68.4768248 206.075,69.6318248 207.185,69.6318248 C208.235,69.6318248 209.579366,68.8818248 209.579366,67.1118248 C209.579366,65.7168248 208.295,64.5318248 207.185,64.5318248 Z M152.876639,64.358891 C152.246639,64.358891 151.081355,64.7568248 150.916355,66.1218248 L150.916355,66.1218248 L154.408123,66.1218248 C154.393123,64.9518248 153.611639,64.358891 152.876639,64.358891 Z M198.751248,58.76 C199.561248,58.76 200.236248,59.27 200.236248,60.2 C200.236248,61.115 199.561248,61.685 198.751248,61.685 C197.941248,61.685 197.311248,61.16 197.311248,60.2 C197.311248,59.27 197.941248,58.76 198.751248,58.76 Z M191.581044,29.1958527 C198.981044,29.1958527 202.489872,32.6053538 202.489872,37.2187115 C202.489872,43.6640087 194.119295,45.0558527 190.821044,45.0558527 L190.821044,45.0558527 L179.687957,45.0558527 L179.687957,53.7754282 L172.340774,53.7754282 L172.340774,29.1958527 Z M131.315039,29.1958527 L148.719051,45.4591321 L148.719051,29.1958527 L155.386346,29.1958527 L155.386346,53.7754282 L148.356168,53.7754282 L130.366784,37.109448 L130.366784,53.7754282 L123.398787,53.7754282 L123.398787,29.1958527 L131.315039,29.1958527 Z M86.021334,29.1958527 L96.0253096,46.4467984 L105.691806,29.1958527 L112.891806,29.1958527 L99.2618468,53.7754282 L92.5036887,53.7754282 L78.5448499,29.1958527 L86.021334,29.1958527 Z M239.73281,29 L239.73281,34.08 L227.983614,34.08 L227.983614,53.4152424 L220.783614,53.4152424 L220.783614,34.08 L209.579366,34.08 L209.579366,29 L239.73281,29 Z M191.221044,33.3811428 L179.687957,33.3811428 L179.687957,40.8377532 L191.221044,40.8377532 C193.781044,40.8377532 195.306319,39.4213501 195.306319,37.2187115 C195.306319,35.0160729 193.781044,33.3811428 191.221044,33.3811428 L191.221044,33.3811428 Z M48.3341327,30.3392099 C49.7952361,31.1848808 51.1229788,32.1446225 52.3173607,33.2184349 C53.5117427,34.2922474 54.5885756,35.4943461 55.5478594,36.8247312 C58.035032,32.5641794 58.4543963,29.7690163 56.8059522,28.4392418 C55.1575081,27.1094672 52.3335683,27.74279 48.3341327,30.3392099 Z" id="Combined-Shape" fill="#154E8B" fill-rule="nonzero"></path>
    </g>
</svg>