<?xml version="1.0" encoding="UTF-8"?>
<svg width="640px" height="640px" viewBox="0 0 640 640" version="1.1" xmlns="http://www.w3.org/2000/svg" xmlns:xlink="http://www.w3.org/1999/xlink">
    <!-- Generator: Sketch 56.2 (81672) - https://sketch.com -->
    <title>page_a/sdwan/p3_02</title>
    <desc>Created with Sketch.</desc>
    <g id="page_a/sdwan/p3_02" stroke="none" stroke-width="1" fill="none" fill-rule="evenodd">
        <g id="Group" transform="translate(75.000000, 60.000000)">
            <g id="Group-11">
                <g id="Group-9">
                    <path d="M138.54651,120.936993 L299.167655,120.936993 C375.684779,120.936993 437.714165,182.966378 437.714165,259.483502 C437.714165,336.000627 375.684779,398.030012 299.167655,398.030012 L138.54651,398.030012 C62.0293853,398.030012 9.37064516e-15,336.000627 0,259.483502 C-9.37064516e-15,182.966378 62.0293853,120.936993 138.54651,120.936993 Z" id="Rectangle" stroke="#CAAAE7" stroke-width="2.05499608" fill="#F5F4FF" stroke-dasharray="13.35747426786566"></path>
                    <path d="M229.472984,41.4546633 L229.472984,43.2401479 L227.894574,42.7778534 C227.135253,42.5561903 226.772625,41.937298 227.085086,41.396484 C227.372717,40.8978621 228.133776,40.6394212 228.845569,40.7765808 L228.845569,39.6924241 L227.663419,39.1927338 C227.094494,38.9526632 226.823135,38.2839459 227.056689,37.6993846 C227.290475,37.1148232 227.94104,36.8361315 228.509502,37.0759638 L247.533376,45.1134439 C248.101838,45.353753 248.373428,46.0224702 248.139874,46.6067932 C247.962911,47.0490286 247.547524,47.3162771 247.109407,47.3162771 C246.968625,47.3162771 246.825524,47.2886225 246.686829,47.230214 L245.534134,46.743159 L245.534134,48.2403227 L229.472984,41.4546633 Z M245.887284,50.1267917 L245.887284,72.2827801 L249.625055,72.2827801 C250.231842,72.2827801 250.723727,72.7771531 250.723727,73.3870102 C250.723727,73.9968673 250.231842,74.4912403 249.625055,74.4912403 L214.321087,74.4912403 C213.7143,74.4912403 213.222416,73.9968673 213.222416,73.3870102 C213.222416,72.7771531 213.7143,72.2827801 214.321087,72.2827801 L218.074422,72.2827801 L218.074422,65.449206 L222.793673,65.449206 C223.400689,65.449206 223.892344,64.954603 223.892344,64.3449759 C223.892344,63.7351188 223.400689,63.2407458 222.793673,63.2407458 L218.074422,63.2407458 L218.074422,61.3957613 L222.793673,61.3957613 C223.400689,61.3957613 223.892344,60.9011582 223.892344,60.2915312 C223.892344,59.6816741 223.400689,59.1873011 222.793673,59.1873011 L218.074422,59.1873011 L218.074422,57.2843446 L222.793673,57.2843446 C223.400689,57.2843446 223.892344,56.7899716 223.892344,56.1801144 C223.892344,55.5700273 223.400689,55.0758843 222.793673,55.0758843 L218.074422,55.0758843 L218.074422,53.6084085 C218.074422,52.2064964 218.843721,50.9357116 220.081786,50.2922675 L227.190418,46.5970074 L227.190418,72.2827801 L229.417287,72.2827801 L229.417287,45.4396362 L229.417516,45.4394062 L229.417516,43.2401479 L245.723552,49.9766332 L245.723552,46.990279 L247.582048,48.0296027 C248.110429,48.3250018 248.363086,49.1484231 248.145568,49.8674133 C247.980867,50.4106895 247.595198,50.7404101 247.188187,50.7404101 C247.057116,50.7404101 246.924104,50.7066753 246.794973,50.6345123 L245.887284,50.1267917 Z M221.695002,72.2827801 L223.892344,72.2827801 L223.892344,68.7701781 C223.892344,68.160321 223.400689,67.665948 222.793673,67.665948 C222.186886,67.665948 221.695002,68.160321 221.695002,68.7701781 L221.695002,72.2827801 Z M240.965237,64.3449759 L240.965237,62.1063794 C240.965237,61.4958322 240.473124,61.0021493 239.866566,61.0021493 C239.260008,61.0021493 238.767895,61.4958322 238.767895,62.1063794 L238.767895,64.3449759 C238.767895,64.9543729 239.260008,65.449206 239.866566,65.449206 C240.473124,65.449206 240.965237,64.9543729 240.965237,64.3449759 Z M238.760799,50.2740937 L238.760799,52.5120001 C238.760799,53.1223172 239.252912,53.6162302 239.85947,53.6162302 C240.4658,53.6162302 240.958142,53.1223172 240.958142,52.5120001 L240.958142,50.2740937 C240.958142,49.6640066 240.4658,49.1698636 239.85947,49.1698636 C239.252912,49.1698636 238.760799,49.6640066 238.760799,50.2740937 Z M238.753246,56.1803445 L238.753246,58.4180208 C238.753246,59.028338 239.245359,59.5222509 239.851917,59.5222509 C240.458475,59.5222509 240.950588,59.028338 240.950588,58.4180208 L240.950588,56.1803445 C240.950588,55.5697973 240.458475,55.0761144 239.851917,55.0761144 C239.245359,55.0761144 238.753246,55.5697973 238.753246,56.1803445 Z M234.346888,50.2740937 L234.346888,52.5120001 C234.346888,53.1223172 234.838543,53.6162302 235.445559,53.6162302 C236.052117,53.6162302 236.54423,53.1223172 236.54423,52.5120001 L236.54423,50.2740937 C236.54423,49.6640066 236.052117,49.1698636 235.445559,49.1698636 C234.838543,49.1698636 234.346888,49.6640066 234.346888,50.2740937 Z M236.551783,62.1063794 C236.551783,61.4958322 236.059212,61.0021493 235.453112,61.0021493 C234.845639,61.0021493 234.354441,61.4958322 234.354441,62.1063794 L234.354441,64.3449759 C234.354441,64.9543729 234.845639,65.449206 235.453112,65.449206 C236.059212,65.449206 236.551783,64.9543729 236.551783,64.3449759 L236.551783,62.1063794 Z M234.338876,56.1803445 L234.338876,58.4180208 C234.338876,59.028338 234.83099,59.5222509 235.437548,59.5222509 C236.044792,59.5222509 236.536219,59.028338 236.536219,58.4180208 L236.536219,56.1803445 C236.536219,55.5697973 236.044792,55.0761144 235.437548,55.0761144 C234.83099,55.0761144 234.338876,55.5697973 234.338876,56.1803445 Z M234.356272,72.2827801 L236.553614,72.2827801 L236.553614,68.7706382 C236.553614,68.160321 236.061501,67.6664081 235.454943,67.6664081 C234.847927,67.6664081 234.356272,68.160321 234.356272,68.7706382 L234.356272,72.2827801 Z M238.750957,72.2827801 L240.948299,72.2827801 L240.948299,68.7706382 C240.948299,68.160321 240.456186,67.6664081 239.849628,67.6664081 C239.242612,67.6664081 238.750957,68.160321 238.750957,68.7706382 L238.750957,72.2827801 Z" id="Combined-Shape" fill="#4D4D4D"></path>
                    <path d="M229.523027,484.363523 L229.523027,454.154133 L246.753169,454.154133 L246.753169,484.363523 L240.128947,484.363523 L240.128947,477.616066 L236.147249,477.616066 L236.147249,484.363523 L229.523027,484.363523 Z M239.346796,457.714317 L239.346796,461.680549 L243.328416,461.680549 L243.328416,457.714317 L239.346796,457.714317 Z M239.346796,464.088632 L239.346796,468.054863 L243.328416,468.054863 L243.328416,464.088632 L239.346796,464.088632 Z M239.346796,470.462792 L239.346796,474.429024 L243.328416,474.429024 L243.328416,470.462792 L239.346796,470.462792 Z M232.947703,457.714317 L232.947703,461.680549 L236.929323,461.680549 L236.929323,457.714317 L232.947703,457.714317 Z M232.947703,464.088632 L232.947703,468.054863 L236.929323,468.054863 L236.929323,464.088632 L232.947703,464.088632 Z M232.947703,470.462792 L232.947703,474.429024 L236.929323,474.429024 L236.929323,470.462792 L232.947703,470.462792 Z M248.299832,456.860298 L256.888715,456.860298 L256.888715,484.363523 L250.857875,484.363523 L250.857875,478.22063 L248.299832,478.22063 L248.299832,456.860298 Z M253.770865,475.319109 L253.770787,475.319109 L253.770787,471.708217 L250.145816,471.708217 L250.145816,475.319109 L253.770865,475.319109 Z M253.770865,469.515758 L253.770787,469.515758 L253.770787,465.904943 L250.145816,465.904943 L250.145816,469.515758 L253.770865,469.515758 Z M253.770865,463.712484 L253.770787,463.712484 L253.770787,460.10167 L250.145816,460.10167 L250.145816,463.712484 L253.770865,463.712484 Z M219.387404,484.363523 L219.387404,456.860298 L227.976287,456.860298 L227.976287,478.22063 L225.418244,478.22063 L225.418244,484.363523 L219.387404,484.363523 Z M222.505331,460.10167 L222.505331,463.712484 L226.130303,463.712484 L226.130303,460.10167 L222.505331,460.10167 Z M222.505331,465.904943 L222.505331,469.515758 L226.130303,469.515758 L226.130303,465.904943 L222.505331,465.904943 Z M222.505331,471.708063 L222.505331,475.318877 L226.130303,475.318877 L226.130303,471.708063 L222.505331,471.708063 Z" id="Combined-Shape" fill="#4D4D4D"></path>
                    <path id="Path-7" d="M296.69907,453.238911 C334.139038,444.525964 361.446905,411.485701 362.486108,372.516259 L363.872126,320.541521 L366.712125,320.617255 L365.326107,372.591994 C364.249448,412.966003 335.887503,447.179776 297.040442,456.075835 L297.975508,463.846577 L279.01695,456.959707 L295.800554,445.771922 L296.69907,453.238911 Z" fill="#4A7EBB" fill-rule="nonzero"></path>
                    <text id="企業總部" font-family="PingFangTC-Semibold, PingFang TC" font-size="20.8340616" font-weight="500" fill="#333333">
                        <tspan x="190.049257" y="22">企業總部</tspan>
                    </text>
                    <text id="海外-Branch" font-family="PingFangTC-Semibold, PingFang TC" font-size="20.8340616" font-weight="500" fill="#333333">
                        <tspan x="178.630297" y="512.116565">海外 Branch</tspan>
                    </text>
                    <path id="Path-2" d="M350.324458,61.0745807 C374.089601,71.9815137 389.74044,95.8148292 389.74044,122.538865 L389.74044,221.939576 C389.74044,223.377868 388.574475,224.543834 387.136183,224.543834 C385.697891,224.543834 384.531925,223.377868 384.531925,221.939576 L384.531925,122.538865 C384.531925,98.2954385 370.577679,76.6301405 349.272779,66.3363022 L347.328194,76.0653789 C347.273666,76.3381934 347.156458,76.5945836 346.985853,76.814245 C346.378925,77.5956908 345.254523,77.7368662 344.47443,77.129569 L321.159173,58.9787889 C320.853554,58.7408663 320.6333,58.4100646 320.531472,58.0360369 C320.271555,57.0813316 320.833894,56.0959874 321.787492,55.835209 L350.288441,48.0411164 C350.556494,47.9678126 350.837876,47.9579976 351.110304,48.0124487 C352.079467,48.2061587 352.707872,49.1499681 352.513887,50.1205062 L350.324458,61.0745807 Z" fill="#FF874D" fill-rule="nonzero"></path>
                    <path id="Path-3" d="M361.675689,447.564798 C376.047495,438.513023 385.045674,422.669799 385.045674,405.236157 L385.045674,317.818875 L390.254189,317.818875 L390.254189,405.236157 C390.254189,425.062712 379.710578,443.030022 363.004317,452.852924 L366.183512,465.506567 L333.427498,458.248286 L358.862914,436.369558 L361.675689,447.564798 Z" fill="#FF874D" fill-rule="nonzero"></path>
                    <path id="Path-4" d="M118.36874,66.0079457 C95.2328572,76.4929429 79.844339,99.5524116 79.6172399,125.556964 L79.1694341,176.822707 L79.1694341,360.031525 L73.9609187,360.031525 L73.961018,176.799965 L74.4089231,125.51148 C74.6577081,97.023724 91.7713702,71.8117073 117.37624,60.7516416 L114.975391,48.0363546 L147.241532,57.2306586 L120.549459,77.5572997 L118.36874,66.0079457 Z" fill="#209CFF" fill-rule="nonzero"></path>
                    <path id="Path-5" d="M118.218108,463.128941 C92.1508492,451.836258 74.8274263,426.044208 74.8274263,397.028246 L74.8274263,345.424007 L80.0359417,345.424007 L80.0359417,397.028246 C80.0359417,423.551247 95.638453,447.170526 119.229121,457.879703 L121.453894,446.328344 L148.071632,466.75223 L115.772162,475.828757 L118.218125,463.128949 Z" fill="#209CFF" fill-rule="nonzero"></path>
                    <text id="SD-WAN" font-family="PingFangTC-Semibold, PingFang TC" font-size="24.6599529" font-weight="500" fill="#7030A0">
                        <tspan x="162.279063" y="275.682023">SD-WAN</tspan>
                    </text>
                    <path d="M102.432558,366.77892 L103.8388,380.257459 C108.427677,424.24089 145.715473,457.519033 189.935617,457.096063 L189.935617,457.096063" id="Path-6" stroke="#4A7EBB" stroke-width="3.12510924"></path>
                    <path d="M94.0989333,196.797984 L94.0989333,150.875044 C94.0989333,109.351562 127.760366,75.6901293 169.283848,75.6901293 L169.283848,75.6901293" id="Path-8" stroke="#4A7EBB" stroke-width="3.12510924"></path>
                    <path d="M365.774167,221.982192 L365.774167,137.537952 C365.774167,103.594265 338.257372,76.07747 304.313685,76.07747 L304.313685,76.07747" id="Path-9" stroke="#4A7EBB" stroke-width="3.12510924"></path>
                    <path d="M146.435043,181.353404 L297.477255,232.728306" id="Path-10" stroke="#CAAAE7" stroke-width="3.12510924"></path>
                    <path d="M146.435043,376.578031 L304.313685,305.680667" id="Path-11" stroke="#CAAAE7" stroke-width="3.12510924"></path>
                    <path d="M490.646886,277.018619 C490.646886,299.373955 472.581218,317.496894 450.304909,317.496894 L325.482089,317.496894 C303.206258,317.496894 285.147278,299.373955 285.147278,277.018619 C285.147278,256.828253 299.875203,240.102315 319.143912,237.041856 C318.899768,235.624872 318.765036,234.166967 318.765036,232.666238 C318.765036,218.501625 330.208728,207.020624 344.328922,207.020624 C350.62601,207.020624 356.39659,209.3055 360.848507,213.107282 C368.785323,195.161823 378.960042,178.784659 407.504295,178.784659 C442.122038,178.784659 458.529346,205.574614 458.529346,233.843886 C458.529346,235.026293 458.479657,236.197756 458.399868,237.356847 C476.79998,241.119137 490.646886,257.445389 490.646886,277.018619 Z" id="MobileMe" fill="#FF874D" fill-rule="nonzero"></path>
                    <text id="CHT-MPLS-VPN" font-family="PingFangTC-Semibold, PingFang TC" font-size="20.5499608" font-weight="500" fill="#FFFFFF">
                        <tspan x="370.102379" y="237.731973">CHT</tspan>
                        <tspan x="362.724943" y="266.731973">MPLS</tspan>
                        <tspan x="370.482553" y="295.731973">VPN</tspan>
                    </text>
                    <path d="M122.01484,153.225645 C118.298722,135.103148 102.372502,121.244769 82.7301647,121.244769 C67.3348191,121.244769 54.0629694,129.773002 47.6924816,142.565353 C31.235388,144.697411 19.0252863,158.022777 19.0252863,174.546229 C19.0252863,192.135711 33.3588839,206.527106 50.8777255,206.527106 L119.891344,206.527106 C134.755815,206.527106 146.435043,194.800784 146.435043,179.876375 C146.435043,166.017996 135.286689,154.291674 122.01484,153.225645 Z" id="Path" fill="#209CFF" fill-rule="nonzero"></path>
                    <path d="M122.01484,250.837959 C118.298722,232.715462 102.372502,218.857082 82.7301647,218.857082 C67.3348191,218.857082 54.0629694,227.385316 47.6924816,240.177667 C31.235388,242.309725 19.0252863,255.63509 19.0252863,272.158543 C19.0252863,289.748025 33.3588839,304.13942 50.8777255,304.13942 L119.891344,304.13942 C134.755815,304.13942 146.435043,292.413098 146.435043,277.488689 C146.435043,263.630309 135.286689,251.903988 122.01484,250.837959 Z" id="Path" fill="#209CFF" fill-rule="nonzero"></path>
                    <path d="M122.01484,348.450272 C118.298722,330.327776 102.372502,316.469396 82.7301647,316.469396 C67.3348191,316.469396 54.0629694,324.99763 47.6924816,337.78998 C31.235388,339.922039 19.0252863,353.247404 19.0252863,369.770857 C19.0252863,387.360339 33.3588839,401.751733 50.8777255,401.751733 L119.891344,401.751733 C134.755815,401.751733 146.435043,390.025412 146.435043,375.101003 C146.435043,361.242623 135.286689,349.516302 122.01484,348.450272 Z" id="Path" fill="#209CFF" fill-rule="nonzero"></path>
                    <text id="Region-Internet" font-family="PingFangTC-Semibold, PingFang TC" font-size="18.4949647" font-weight="500" fill="#FFFFFF">
                        <tspan x="50.87836" y="163.849725">Region</tspan>
                        <tspan x="47.8359383" y="189.849725">Internet</tspan>
                    </text>
                    <text id="Region-Internet" font-family="PingFangTC-Semibold, PingFang TC" font-size="18.4949647" font-weight="500" fill="#FFFFFF">
                        <tspan x="52.0100283" y="358.046855">Region</tspan>
                        <tspan x="48.9676066" y="384.046855">Internet</tspan>
                    </text>
                    <text id="Global-Internet" font-family="PingFangTC-Semibold, PingFang TC" font-size="18.4949647" font-weight="500" fill="#FFFFFF">
                        <tspan x="53.504645" y="261.462039">Global</tspan>
                        <tspan x="47.8359383" y="287.462039">Internet</tspan>
                    </text>
                    <g id="Group-8" transform="translate(348.852157, 183.922149)">
                        <path d="M15.4124706,0 C7.75389755,0 0,2.2059475 0,6.42186274 L0,24.4030784 C0,28.6189937 7.75389755,30.8249412 15.4124706,30.8249412 C23.0710436,30.8249412 30.8249412,28.6189937 30.8249412,24.4030784 L30.8249412,6.42186274 C30.8249412,2.2059475 23.0710436,0 15.4124706,0 Z M15.4124706,10.2749804 C7.6914976,10.2749804 2.5687451,7.95614858 2.5687451,6.42186274 C2.5687451,4.8875769 7.6914976,2.5687451 15.4124706,2.5687451 C23.1334436,2.5687451 28.2561961,4.8875769 28.2561961,6.42186274 C28.2561961,7.95614858 23.1334436,10.2749804 15.4124706,10.2749804 Z" id="Shape" fill="#9D571F" fill-rule="nonzero"></path>
                        <path d="M15.4124706,10.2749804 C7.6914976,10.2749804 2.5687451,7.95614858 2.5687451,6.42186274 C2.5687451,4.8875769 7.6914976,2.5687451 15.4124706,2.5687451 C23.1334436,2.5687451 28.2561961,4.8875769 28.2561961,6.42186274 C28.2561961,7.95614858 23.1334436,10.2749804 15.4124706,10.2749804 Z" id="Path" fill="#FFFFFF"></path>
                    </g>
                    <g id="Group-8" transform="translate(348.852157, 297.974431)">
                        <path d="M15.4124706,0 C7.75389755,0 0,2.2059475 0,6.42186274 L0,24.4030784 C0,28.6189937 7.75389755,30.8249412 15.4124706,30.8249412 C23.0710436,30.8249412 30.8249412,28.6189937 30.8249412,24.4030784 L30.8249412,6.42186274 C30.8249412,2.2059475 23.0710436,0 15.4124706,0 Z M15.4124706,10.2749804 C7.6914976,10.2749804 2.5687451,7.95614858 2.5687451,6.42186274 C2.5687451,4.8875769 7.6914976,2.5687451 15.4124706,2.5687451 C23.1334436,2.5687451 28.2561961,4.8875769 28.2561961,6.42186274 C28.2561961,7.95614858 23.1334436,10.2749804 15.4124706,10.2749804 Z" id="Shape" fill="#9D571F" fill-rule="nonzero"></path>
                        <path d="M15.4124706,10.2749804 C7.6914976,10.2749804 2.5687451,7.95614858 2.5687451,6.42186274 C2.5687451,4.8875769 7.6914976,2.5687451 15.4124706,2.5687451 C23.1334436,2.5687451 28.2561961,4.8875769 28.2561961,6.42186274 C28.2561961,7.95614858 23.1334436,10.2749804 15.4124706,10.2749804 Z" id="Path" fill="#FFFFFF"></path>
                    </g>
                    <g id="Group-4" transform="translate(134.105067, 165.427184)">
                        <path d="M15.8542947,0.0909335764 C15.5871452,-0.0303111921 15.2819783,-0.0303111921 15.0158563,0.0909335764 L0.598003859,6.61554612 C0.233242055,6.78200081 5.38236122e-13,7.14470761 5.38236122e-13,7.54440435 L5.38236122e-13,23.945328 C5.38236122e-13,24.3481073 0.236324549,24.7118416 0.605196345,24.8752138 L15.0209938,31.283719 C15.2840333,31.3998263 15.5850903,31.3998263 15.8481298,31.283719 L30.2628997,24.8752138 C30.6297165,24.7118416 30.8670686,24.3470798 30.8670686,23.945328 L30.8670686,7.54440435 C30.8670686,7.14470761 30.6317715,6.78200081 30.2690647,6.61657362 L15.8542947,0.0909335764 Z M13.1468374,27.9494879 L2.28721063,23.1202471 L2.28721063,10.4059864 L13.1468374,15.2331722 L13.1468374,27.9494879 Z" id="Shape" fill="#684283" fill-rule="nonzero"></path>
                        <polygon id="Path" fill="#FFFFFF" points="13.1468374 27.9494879 2.28721063 23.1202471 2.28721063 10.4059864 13.1468374 15.2331722"></polygon>
                    </g>
                    <g id="Group-4" transform="translate(288.229772, 220.912078)">
                        <path d="M15.8542947,0.0909335764 C15.5871452,-0.0303111921 15.2819783,-0.0303111921 15.0158563,0.0909335764 L0.598003859,6.61554612 C0.233242055,6.78200081 5.38236122e-13,7.14470761 5.38236122e-13,7.54440435 L5.38236122e-13,23.945328 C5.38236122e-13,24.3481073 0.236324549,24.7118416 0.605196345,24.8752138 L15.0209938,31.283719 C15.2840333,31.3998263 15.5850903,31.3998263 15.8481298,31.283719 L30.2628997,24.8752138 C30.6297165,24.7118416 30.8670686,24.3470798 30.8670686,23.945328 L30.8670686,7.54440435 C30.8670686,7.14470761 30.6317715,6.78200081 30.2690647,6.61657362 L15.8542947,0.0909335764 Z M13.1468374,27.9494879 L2.28721063,23.1202471 L2.28721063,10.4059864 L13.1468374,15.2331722 L13.1468374,27.9494879 Z" id="Shape" fill="#684283" fill-rule="nonzero"></path>
                        <polygon id="Path" fill="#FFFFFF" points="13.1468374 27.9494879 2.28721063 23.1202471 2.28721063 10.4059864 13.1468374 15.2331722"></polygon>
                    </g>
                    <g id="Group-4" transform="translate(280.009788, 294.891937)">
                        <path d="M15.8542947,0.0909335764 C15.5871452,-0.0303111921 15.2819783,-0.0303111921 15.0158563,0.0909335764 L0.598003859,6.61554612 C0.233242055,6.78200081 5.38236122e-13,7.14470761 5.38236122e-13,7.54440435 L5.38236122e-13,23.945328 C5.38236122e-13,24.3481073 0.236324549,24.7118416 0.605196345,24.8752138 L15.0209938,31.283719 C15.2840333,31.3998263 15.5850903,31.3998263 15.8481298,31.283719 L30.2628997,24.8752138 C30.6297165,24.7118416 30.8670686,24.3470798 30.8670686,23.945328 L30.8670686,7.54440435 C30.8670686,7.14470761 30.6317715,6.78200081 30.2690647,6.61657362 L15.8542947,0.0909335764 Z M13.1468374,27.9494879 L2.28721063,23.1202471 L2.28721063,10.4059864 L13.1468374,15.2331722 L13.1468374,27.9494879 Z" id="Shape" fill="#684283" fill-rule="nonzero"></path>
                        <polygon id="Path" fill="#FFFFFF" points="13.1468374 27.9494879 2.28721063 23.1202471 2.28721063 10.4059864 13.1468374 15.2331722"></polygon>
                    </g>
                    <g id="Group-4" transform="translate(160.820016, 50.347404)">
                        <path d="M17.3885813,0.0997336 C17.0955787,-0.0332445333 16.7608795,-0.0332445333 16.4690037,0.0997336 L0.6558752,7.25576026 C0.255813867,7.43832346 5.38236122e-13,7.83613093 5.38236122e-13,8.274508 L5.38236122e-13,26.2626179 C5.38236122e-13,26.7043757 0.259194667,27.1033101 0.663763733,27.2824925 L16.4746384,34.3111757 C16.7631333,34.4385192 17.0933248,34.4385192 17.3818197,34.3111757 L33.1915675,27.2824925 C33.5938827,27.1033101 33.8542043,26.7032488 33.8542043,26.2626179 L33.8542043,8.274508 C33.8542043,7.83613093 33.5961365,7.43832346 33.1983291,7.2568872 L17.3885813,0.0997336 Z M14.419112,30.6542771 L2.5085536,25.3576904 L2.5085536,11.4130173 L14.419112,16.7073501 L14.419112,30.6542771 Z" id="Shape" fill="#3E6083" fill-rule="nonzero"></path>
                        <polygon id="Path" fill="#FFFFFF" points="14.419112 30.6542771 2.5085536 25.3576904 2.5085536 11.4130173 14.419112 16.7073501"></polygon>
                    </g>
                    <g id="Group-4" transform="translate(159.792518, 437.714165)">
                        <path d="M17.3885813,0.0997336 C17.0955787,-0.0332445333 16.7608795,-0.0332445333 16.4690037,0.0997336 L0.6558752,7.25576026 C0.255813867,7.43832346 5.38236122e-13,7.83613093 5.38236122e-13,8.274508 L5.38236122e-13,26.2626179 C5.38236122e-13,26.7043757 0.259194667,27.1033101 0.663763733,27.2824925 L16.4746384,34.3111757 C16.7631333,34.4385192 17.0933248,34.4385192 17.3818197,34.3111757 L33.1915675,27.2824925 C33.5938827,27.1033101 33.8542043,26.7032488 33.8542043,26.2626179 L33.8542043,8.274508 C33.8542043,7.83613093 33.5961365,7.43832346 33.1983291,7.2568872 L17.3885813,0.0997336 Z M14.419112,30.6542771 L2.5085536,25.3576904 L2.5085536,11.4130173 L14.419112,16.7073501 L14.419112,30.6542771 Z" id="Shape" fill="#3E6083" fill-rule="nonzero"></path>
                        <polygon id="Path" fill="#FFFFFF" points="14.419112 30.6542771 2.5085536 25.3576904 2.5085536 11.4130173 14.419112 16.7073501"></polygon>
                    </g>
                    <g id="Group-4" transform="translate(280.009788, 50.347404)">
                        <path d="M17.3885813,0.0997336 C17.0955787,-0.0332445333 16.7608795,-0.0332445333 16.4690037,0.0997336 L0.6558752,7.25576026 C0.255813867,7.43832346 5.38236122e-13,7.83613093 5.38236122e-13,8.274508 L5.38236122e-13,26.2626179 C5.38236122e-13,26.7043757 0.259194667,27.1033101 0.663763733,27.2824925 L16.4746384,34.3111757 C16.7631333,34.4385192 17.0933248,34.4385192 17.3818197,34.3111757 L33.1915675,27.2824925 C33.5938827,27.1033101 33.8542043,26.7032488 33.8542043,26.2626179 L33.8542043,8.274508 C33.8542043,7.83613093 33.5961365,7.43832346 33.1983291,7.2568872 L17.3885813,0.0997336 Z M14.419112,30.6542771 L2.5085536,25.3576904 L2.5085536,11.4130173 L14.419112,16.7073501 L14.419112,30.6542771 Z" id="Shape" fill="#3E6083" fill-rule="nonzero"></path>
                        <polygon id="Path" fill="#FFFFFF" points="14.419112 30.6542771 2.5085536 25.3576904 2.5085536 11.4130173 14.419112 16.7073501"></polygon>
                    </g>
                    <g id="Group-4" transform="translate(280.009788, 437.714165)">
                        <path d="M17.3885813,0.0997336 C17.0955787,-0.0332445333 16.7608795,-0.0332445333 16.4690037,0.0997336 L0.6558752,7.25576026 C0.255813867,7.43832346 5.38236122e-13,7.83613093 5.38236122e-13,8.274508 L5.38236122e-13,26.2626179 C5.38236122e-13,26.7043757 0.259194667,27.1033101 0.663763733,27.2824925 L16.4746384,34.3111757 C16.7631333,34.4385192 17.0933248,34.4385192 17.3818197,34.3111757 L33.1915675,27.2824925 C33.5938827,27.1033101 33.8542043,26.7032488 33.8542043,26.2626179 L33.8542043,8.274508 C33.8542043,7.83613093 33.5961365,7.43832346 33.1983291,7.2568872 L17.3885813,0.0997336 Z M14.419112,30.6542771 L2.5085536,25.3576904 L2.5085536,11.4130173 L14.419112,16.7073501 L14.419112,30.6542771 Z" id="Shape" fill="#3E6083" fill-rule="nonzero"></path>
                        <polygon id="Path" fill="#FFFFFF" points="14.419112 30.6542771 2.5085536 25.3576904 2.5085536 11.4130173 14.419112 16.7073501"></polygon>
                    </g>
                    <g id="Group-4" transform="translate(129.995074, 360.651812)">
                        <path d="M15.8542947,0.0909335764 C15.5871452,-0.0303111921 15.2819783,-0.0303111921 15.0158563,0.0909335764 L0.598003859,6.61554612 C0.233242055,6.78200081 5.38236122e-13,7.14470761 5.38236122e-13,7.54440435 L5.38236122e-13,23.945328 C5.38236122e-13,24.3481073 0.236324549,24.7118416 0.605196345,24.8752138 L15.0209938,31.283719 C15.2840333,31.3998263 15.5850903,31.3998263 15.8481298,31.283719 L30.2628997,24.8752138 C30.6297165,24.7118416 30.8670686,24.3470798 30.8670686,23.945328 L30.8670686,7.54440435 C30.8670686,7.14470761 30.6317715,6.78200081 30.2690647,6.61657362 L15.8542947,0.0909335764 Z M13.1468374,27.9494879 L2.28721063,23.1202471 L2.28721063,10.4059864 L13.1468374,15.2331722 L13.1468374,27.9494879 Z" id="Shape" fill="#684283" fill-rule="nonzero"></path>
                        <polygon id="Path" fill="#FFFFFF" points="13.1468374 27.9494879 2.28721063 23.1202471 2.28721063 10.4059864 13.1468374 15.2331722"></polygon>
                    </g>
                </g>
            </g>
            <g id="Group-6" transform="translate(140.000000, 94.000000)" fill="#3E6083" font-family="PingFangTC-Semibold, PingFang TC" font-size="16" font-weight="500">
                <text id="6M">
                    <tspan x="160.476" y="17">6M</tspan>
                </text>
                <text id="4M">
                    <tspan x="160.476" y="335">4M</tspan>
                </text>
                <text id="50M">
                    <tspan x="4.176" y="335">50M</tspan>
                </text>
                <text id="100M">
                    <tspan x="0.396" y="17">100M</tspan>
                </text>
            </g>
        </g>
    </g>
</svg>