<?xml version="1.0" encoding="UTF-8"?>
<svg width="44px" height="44px" viewBox="0 0 44 44" version="1.1" xmlns="http://www.w3.org/2000/svg" xmlns:xlink="http://www.w3.org/1999/xlink">
    <!-- Generator: Sketch 58 (84663) - https://sketch.com -->
    <title>ic_a/soc/ic_a_soc_p2_01</title>
    <desc>Created with Sketch.</desc>
    <g id="ic_a/soc/ic_a_soc_p2_01" stroke="none" stroke-width="1" fill="none" fill-rule="evenodd">
        <path d="M35,14.4999888 C35,7.60789498 29.3921,2 22.5,2 C15.6079,2 10,7.60789498 10,14.4999888 C10,17.2888363 10.9500125,19.840859 12.5,21.9226322 L12.5,40.7499903 C12.5,41.1955474 12.7368165,41.606922 13.1225575,41.8315318 C13.50708,42.0536996 13.9831525,42.0573616 14.370115,41.8351938 L22.49999,37.189198 L30.629865,41.8351938 C30.8215155,41.945057 31.03636,42 31.2499825,42 C31.4672677,42 31.6833325,41.9438365 31.877425,41.8315318 C32.2631675,41.6069225 32.4999825,41.1955449 32.4999825,40.7499903 L32.4999825,21.9226322 C34.04997,19.8408765 35,17.2888363 35,14.4999888 L35,14.4999888 Z M22.5,4.49999776 C28.013925,4.49999776 32.5,8.98606874 32.5,14.4999978 C32.5,20.0139089 28.013925,24.4999799 22.5,24.4999799 C16.986075,24.4999799 12.5,20.0139089 12.5,14.4999978 C12.5,8.98606874 16.986075,4.49999776 22.5,4.49999776 Z M23.1201175,34.6647208 C22.7368175,34.4449944 22.263185,34.4449944 21.8798825,34.6647208 L15.0000075,38.5953922 L15.0000075,24.4360049 C17.09565,26.022461 19.6751575,26.9999276 22.5000075,26.9999276 C25.3248575,26.9999276 27.9043575,26.022451 30.0000075,24.4360049 L30.0000075,38.5953922 L23.1201325,34.6647208 L23.1201175,34.6647208 Z" id="Shape" fill="#209CFF"></path>
    </g>
</svg>