<?xml version="1.0" encoding="UTF-8"?>
<svg width="250px" height="100px" viewBox="0 0 250 100" version="1.1" xmlns="http://www.w3.org/2000/svg" xmlns:xlink="http://www.w3.org/1999/xlink">
    <!-- Generator: Sketch 59.1 (86144) - https://sketch.com -->
    <title>brand/brand_19</title>
    <desc>Created with Sketch.</desc>
    <g id="brand/brand_19" stroke="none" stroke-width="1" fill="none" fill-rule="evenodd">
        <g id="Group" transform="translate(66.000000, 15.000000)">
            <path d="M117.979167,35 C117.979167,53.5208333 91.5833333,70 58.9895833,70 C26.3958333,70 -3.69482223e-13,53.3020833 -3.69482223e-13,35 C-3.69482223e-13,16.625 26.3958333,0 58.9895833,0 C91.5833333,0 117.979167,16.625 117.979167,35" id="Path" fill="#FFFFFF"></path>
            <path d="M112.802083,24.7916667 C103.177083,11.15625 82.25,2.04166667 58.5520833,2.04166667 C35.21875,2.04166667 14.4375,11.8854167 5.25,24.7916667 L46.8125,24.7916667 C53.6666667,17.0625 64.09375,11.8854167 80.5729167,11.8854167 C102.302083,11.8125 112.802083,24.7916667 112.802083,24.7916667" id="Path" fill="#008D8D" fill-rule="nonzero"></path>
            <path d="M5.03125,45.2083333 C14.65625,58.7708333 35.8020833,67.9583333 59.5729167,67.9583333 C82.3958333,67.9583333 103.6875,58.6979167 112.875,45.2083333 L71.3125,45.2083333 C64.53125,52.9375 54.03125,58.1145833 37.625,58.1145833 C15.53125,58.1145833 5.03125,45.2083333 5.03125,45.2083333" id="Path" fill="#DC8D1D" fill-rule="nonzero"></path>
            <path d="M30.84375,30.6979167 C30.84375,30.6979167 23.2604167,30.6979167 21.7291667,30.6979167 C20.125,30.6979167 19.3958333,30.9166667 18.7395833,31.8645833 C18.5208333,32.2291667 16.9895833,34.5625 16.0416667,35.9479167 C15.8229167,36.3125 15.6041667,36.6770833 15.2395833,36.6770833 C14.875,36.6770833 14.65625,36.2395833 14.4375,35.9479167 C13.4895833,34.4895833 11.9583333,32.2291667 11.7395833,31.8645833 C11.15625,30.9166667 9.98958333,30.6979167 8.38541667,30.6979167 L4.22916667,30.6979167 C4.22916667,30.6979167 10.1354167,38.1354167 10.5,38.5 C11.2291667,39.375 12.3229167,39.7395833 14.5104167,39.7395833 L15.96875,39.7395833 C18.0833333,39.7395833 19.25,39.375 19.9791667,38.5 C20.1979167,38.28125 22.6770833,35.0729167 24.4270833,32.8854167 C24.8645833,32.375 25.0833333,32.3020833 25.6666667,32.3020833 C26.5416667,32.3020833 26.46875,33.1041667 26.46875,33.1041667 L26.46875,38.4270833 C26.46875,39.0833333 27.0520833,39.7395833 27.78125,39.7395833 L30.7708333,39.7395833 C31.7916667,39.7395833 32.3020833,39.0833333 32.3020833,38.4270833 L32.3020833,32.0104167 C32.3020833,31.3541667 31.9375,30.6979167 30.84375,30.6979167 M113.53125,37.40625 L105.510417,37.40625 C104.34375,37.40625 103.6875,37.0416667 103.6875,35.875 C103.6875,35.0729167 103.6875,31.7916667 103.6875,31.7916667 C103.6875,31.0625 103.104167,30.4791667 102.229167,30.4791667 L99.4583333,30.4791667 C98.0729167,30.4791667 97.78125,31.28125 97.78125,31.7916667 L97.78125,37.5520833 L88.15625,37.5520833 C87.2083333,37.5520833 86.7708333,37.40625 86.7708333,36.6041667 C86.7708333,35.8020833 86.7708333,35.8020833 86.7708333,35.8020833 L93.9895833,35.8020833 C95.0833333,35.8020833 95.9583333,35.5833333 95.9583333,34.7083333 L95.9583333,33.9791667 L88.2291667,33.9791667 C87.2083333,33.9791667 86.7708333,33.8333333 86.7708333,33.1770833 L86.7708333,32.5208333 L95.15625,32.5208333 C95.8854167,32.5208333 96.6145833,32.15625 96.6145833,31.3541667 L96.6145833,30.625 L75.3229167,30.625 C74.0104167,30.625 74.0104167,29.75 74.0104167,29.75 C74.0104167,29.09375 73.6458333,28.5104167 72.40625,28.5104167 L69.78125,28.5104167 C68.5416667,28.5104167 68.1770833,29.1666667 68.1770833,29.75 C68.1770833,29.75 68.1770833,30.625 67.0833333,30.625 L62.34375,30.625 C61.25,30.625 61.3229167,29.75 61.3229167,29.75 C61.3229167,29.09375 60.9583333,28.5104167 59.71875,28.5104167 L57.0208333,28.5104167 C55.78125,28.5104167 55.4166667,29.1666667 55.4166667,29.75 C55.4166667,29.75 55.4166667,30.625 54.25,30.625 L35.7291667,30.625 C34.6354167,30.625 34.125,31.2083333 34.125,32.0104167 L34.125,38.28125 C34.125,38.8645833 34.34375,39.6666667 35.8020833,39.6666667 L48.125,39.6666667 C49.21875,39.6666667 50.1666667,39.3020833 50.1666667,38.28125 L50.1666667,37.625 L41.4166667,37.625 C40.6145833,37.625 40.03125,37.3333333 40.03125,36.53125 L40.03125,35.875 L47.46875,35.875 C48.34375,35.875 49.21875,35.65625 49.21875,34.78125 L49.21875,34.0520833 L41.4895833,34.0520833 C40.6875,34.0520833 40.1041667,33.9791667 40.1041667,33.46875 L40.1041667,32.59375 L52.8645833,32.59375 C54.25,32.59375 55.5625,33.6145833 55.5625,35.0729167 L55.5625,38.28125 C55.5625,38.71875 55.8541667,39.59375 57.1666667,39.59375 L59.71875,39.59375 C60.8125,39.59375 61.3958333,38.9375 61.3958333,38.28125 L61.3958333,35.0729167 C61.3958333,34.1979167 62.125,32.8854167 63.7291667,32.8854167 L65.9166667,32.8854167 C67.2291667,32.8854167 68.25,33.7604167 68.25,35.0729167 L68.25,38.28125 C68.25,39.0104167 68.90625,39.59375 69.78125,39.59375 L72.40625,39.59375 C73.7916667,39.59375 74.0833333,38.7916667 74.0833333,38.28125 L74.0833333,35.0729167 C74.0833333,34.1979167 74.6666667,32.8854167 76.4895833,32.8854167 L78.75,32.8854167 C79.7708333,32.8854167 80.9375,33.7604167 80.9375,35.0729167 L80.9375,38.3541667 C80.9375,39.0104167 81.4479167,39.6666667 82.6875,39.6666667 L111.197917,39.6666667 C112.4375,39.6666667 113.53125,39.0833333 113.53125,38.1354167 C113.53125,37.4791667 113.53125,37.40625 113.53125,37.40625" id="Shape" fill="#008D8D" fill-rule="nonzero"></path>
        </g>
    </g>
</svg>