<?xml version="1.0" encoding="UTF-8"?>
<svg width="44px" height="44px" viewBox="0 0 44 44" version="1.1" xmlns="http://www.w3.org/2000/svg" xmlns:xlink="http://www.w3.org/1999/xlink">
    <!-- Generator: Sketch 58 (84663) - https://sketch.com -->
    <title>ic_a/iot/ic_a_iot_p2_07</title>
    <desc>Created with Sketch.</desc>
    <g id="ic_a/iot/ic_a_iot_p2_07" stroke="none" stroke-width="1" fill="none" fill-rule="evenodd">
        <path d="M21.9958483,2 C28.7547744,2 34.2432881,7.48467274 34.2432881,14.2203811 L34.2432881,14.2203811 L34.2432881,19.4316487 L34.8328259,19.4316487 C36.0285082,19.4316487 37,20.4009942 37,21.5940348 L37,21.5940348 L37,35.5211268 C37,39.0919635 34.0855245,42 30.5067811,42 L30.5067811,42 L13.4932189,42 C9.91447551,42 7,39.0919635 7,35.5211268 L7,35.5211268 L7,21.5940348 C7,20.4009942 7.97149184,19.4316487 9.16717409,19.4316487 L9.16717409,19.4316487 L32.0013839,19.4316487 L32.0013839,14.2203811 C32.0013839,8.71085336 27.5092721,4.23695112 21.9958483,4.23695112 C16.4741212,4.23695112 11.9903128,8.71913836 11.9903128,14.2203811 C11.9903128,14.8417564 11.4921118,15.3388567 10.8693606,15.3388567 C10.2466095,15.3388567 9.74840852,14.8417564 9.74840852,14.2203811 C9.74840852,7.47638774 15.2452256,2 21.9958483,2 Z M34.7580958,21.6685998 L9.25020758,21.6685998 L9.25020758,35.5211268 C9.25020758,37.8657829 11.1599779,39.7630489 13.5015223,39.7630489 L13.5015223,39.7630489 L30.5067811,39.7630489 C32.8566288,39.7630489 34.7580958,37.8574979 34.7580958,35.5211268 L34.7580958,35.5211268 L34.7580958,21.6685998 Z M22.0041517,26.6975973 C24.3124827,26.6975973 26.1973429,28.5700083 26.1973429,30.8815244 C26.1973429,33.1847556 24.3207861,35.0654515 22.0041517,35.0654515 C19.6875173,35.0654515 17.8109604,33.1847556 17.8109604,30.8815244 C17.8109604,28.5782933 19.6875173,26.6975973 22.0041517,26.6975973 Z M22.0041517,28.9262635 C20.9247163,28.9262635 20.0528647,29.8127589 20.0528647,30.8815244 C20.0528647,31.95029 20.9247163,32.8285004 22.0041517,32.8285004 C23.083587,32.8285004 23.9554387,31.942005 23.9554387,30.8732394 C23.9554387,29.8044739 23.083587,28.9262635 22.0041517,28.9262635 Z" id="Combined-Shape" fill="#47D382"></path>
    </g>
</svg>