<?xml version="1.0" encoding="UTF-8"?>
<svg width="44px" height="44px" viewBox="0 0 44 44" version="1.1" xmlns="http://www.w3.org/2000/svg" xmlns:xlink="http://www.w3.org/1999/xlink">
    <!-- Generator: Sketch 58 (84663) - https://sketch.com -->
    <title>ic_a/vpn/ic_a_vpn_p2_03</title>
    <desc>Created with Sketch.</desc>
    <g id="ic_a/vpn/ic_a_vpn_p2_03" stroke="none" stroke-width="1" fill="none" fill-rule="evenodd">
        <path d="M39.8939844,23.3341107 C39.4125,22.865214 38.8754688,22.4730332 38.2992969,22.1607454 C39.0911719,21.327797 39.578125,20.2066605 39.578125,18.9741697 C39.578125,16.4104649 37.4753125,14.3247232 34.890625,14.3247232 C32.3059375,14.3247232 30.203125,16.4104649 30.203125,18.9741697 C30.203125,20.21131 30.69375,21.3362435 31.4909375,22.1701218 C30.3542969,22.7955498 29.4099219,23.7240443 28.7692969,24.8451033 C28.0126562,23.7507786 26.9936719,22.848476 25.8028906,22.2278524 C27.0601562,21.1611144 27.859375,19.5777454 27.859375,17.8118081 C27.859375,14.6071771 25.2308594,12 22,12 C18.7691406,12 16.140625,14.6071771 16.140625,17.8118081 C16.140625,19.5777454 16.9398438,21.1611144 18.1971094,22.2278524 C17.0063281,22.848476 15.9873438,23.7507786 15.2307031,24.8451033 C14.5900781,23.7240443 13.645625,22.7955498 12.5090625,22.1701218 C13.30625,21.3362435 13.796875,20.21131 13.796875,18.9741697 C13.796875,16.4104649 11.6940625,14.3247232 9.109375,14.3247232 C6.5246875,14.3247232 4.421875,16.4104649 4.421875,18.9741697 C4.421875,20.2066605 4.90882812,21.3278745 5.70070313,22.1607454 C5.12453125,22.4730332 4.5875,22.865214 4.10609375,23.3341107 C2.74796875,24.6568007 2,26.4108819 2,28.2730627 L2,31.8376384 C2,32.479572 2.5246875,33 3.171875,33 L14.96875,33 L29.03125,33 L40.828125,33 C41.4753125,33 42,32.479572 42,31.8376384 L42,28.2730627 C42,26.4108819 41.2521094,24.6568007 39.8939844,23.3341107 Z M9.109375,16.6494465 C10.4017188,16.6494465 11.453125,17.6923173 11.453125,18.9741697 C11.453125,20.2560221 10.4017188,21.298893 9.109375,21.298893 C7.81703125,21.298893 6.765625,20.2560221 6.765625,18.9741697 C6.765625,17.6923173 7.81703125,16.6494465 9.109375,16.6494465 Z M13.796875,29.4354244 L13.796875,30.6752768 L4.34375,30.6752768 L4.34375,28.2730627 C4.34375,25.7093579 6.4815625,23.6236162 9.109375,23.6236162 C11.6940625,23.6236162 13.796875,25.7093579 13.796875,28.2730627 L13.796875,29.4354244 Z M22,14.3247232 C23.9385156,14.3247232 25.515625,15.8890295 25.515625,17.8118081 C25.515625,19.7345867 23.9385156,21.298893 22,21.298893 C20.0614844,21.298893 18.484375,19.7345867 18.484375,17.8118081 C18.484375,15.8890295 20.0614844,14.3247232 22,14.3247232 Z M27.859375,30.6752768 L16.140625,30.6752768 L16.140625,29.4354244 C16.140625,26.2307934 18.7691406,23.6236162 22,23.6236162 C25.2308594,23.6236162 27.859375,26.2307934 27.859375,29.4354244 L27.859375,30.6752768 Z M34.890625,16.6494465 C36.1829688,16.6494465 37.234375,17.6923173 37.234375,18.9741697 C37.234375,20.2560221 36.1829688,21.298893 34.890625,21.298893 C33.5982812,21.298893 32.546875,20.2560221 32.546875,18.9741697 C32.546875,17.6923173 33.5982812,16.6494465 34.890625,16.6494465 Z M39.65625,30.6752768 L30.203125,30.6752768 L30.203125,29.4354244 L30.203125,28.2730627 C30.203125,25.7093579 32.3059375,23.6236162 34.890625,23.6236162 C37.5184375,23.6236162 39.65625,25.7093579 39.65625,28.2730627 L39.65625,30.6752768 Z" id="Shape" fill="#FF874D"></path>
    </g>
</svg>