<?xml version="1.0" encoding="UTF-8"?>
<svg width="44px" height="44px" viewBox="0 0 44 44" version="1.1" xmlns="http://www.w3.org/2000/svg" xmlns:xlink="http://www.w3.org/1999/xlink">
    <!-- Generator: Sketch 58 (84663) - https://sketch.com -->
    <title>ic_a/vpn/ic_a_vpn_p2_04</title>
    <desc>Created with Sketch.</desc>
    <g id="ic_a/vpn/ic_a_vpn_p2_04" stroke="none" stroke-width="1" fill="none" fill-rule="evenodd">
        <path d="M37.6600625,3 C39.5016631,3 41,4.49824805 41,6.3398307 L41,6.3398307 L41,15.3201159 C41,16.7714579 40.0692172,18.0089023 38.7734245,18.468463 L38.7734245,18.468463 L38.7734245,30.980211 C38.7734245,32.8217937 37.2751618,34.3200417 35.4335611,34.3200417 L35.4335611,34.3200417 L25.7711881,34.3200417 L27.2555718,38.7731493 L30.9062651,38.7731493 C31.5210968,38.7731493 32.0195528,39.2716005 32.0195528,39.8864262 C32.0195528,40.5012519 31.5210968,41 30.9062651,41 L30.9062651,41 L10.8671594,41 C10.2523277,41 9.7538716,40.5012519 9.7538716,39.8864262 C9.7538716,39.2716005 10.2523277,38.7731493 10.8671594,38.7731493 L10.8671594,38.7731493 L14.5178526,38.7731493 L16.0022363,34.3200417 L6.33986332,34.3200417 C4.49826269,34.3200417 3,32.8217937 3,30.980211 L3,30.980211 L3,8.56638451 C3,6.72480186 4.49826269,5.2265538 6.33986332,5.2265538 L6.33986332,5.2265538 L21.1523798,5.2265538 C21.611945,3.93077371 22.8494015,3 24.3007576,3 L24.3007576,3 Z M23.4241548,34.3198933 L18.3493438,34.3198933 L16.8649601,38.7730009 L24.9084643,38.7730009 L23.4241548,34.3198933 Z M36.5468489,29.7926414 L5.22657555,29.7926414 L5.22657555,30.9801368 C5.22657555,31.5939977 5.72599644,32.0934137 6.33986332,32.0934137 L6.33986332,32.0934137 L35.4335611,32.0934137 C36.047428,32.0934137 36.5468489,31.5939977 36.5468489,30.9801368 L36.5468489,30.9801368 L36.5468489,29.7926414 L36.5468489,29.7926414 Z M14.2070227,20.8865004 C11.7515552,20.8865004 9.7538716,22.8841645 9.7538716,25.339608 L9.7538716,25.339608 L9.7538716,27.5661619 L18.6601738,27.5661619 L18.6601738,25.339608 C18.6601738,22.8841645 16.6624902,20.8865004 14.2070227,20.8865004 Z M20.9608943,7.45303339 L6.33971488,7.45303339 C5.725848,7.45303339 5.22642711,7.9524494 5.22642711,8.56631029 L5.22642711,8.56631029 L5.22642711,27.5661619 L7.52722184,27.5661619 L7.52722184,25.339608 C7.52722184,22.827239 8.92180032,20.6346772 10.9772264,19.494459 C10.2198939,18.6957942 9.75379739,17.6183648 9.75379739,16.4334671 C9.75379739,13.9780235 11.751481,11.9803595 14.2069485,11.9803595 C16.662416,11.9803595 18.6600996,13.9780235 18.6600996,16.4334671 C18.6600996,17.6182906 18.1940031,18.6957199 17.4366705,19.4943848 C19.4920966,20.634603 20.8866751,22.8270905 20.8866751,25.3395338 L20.8866751,25.3395338 L20.8866751,27.5661619 L36.5468489,27.5661619 L36.5468489,18.6599466 L31.4416081,18.6599466 L27.3145761,22.7870126 C26.9961758,23.1053355 26.5173136,23.200632 26.101315,23.0282968 C25.6853165,22.8559615 25.4140454,22.4500607 25.4140454,21.9997773 L25.4140454,21.9997773 L25.4140454,18.6599466 L24.3007576,18.6599466 C22.459157,18.6599466 20.9608943,17.1616986 20.9608943,15.3201159 L20.9608943,15.3201159 L20.9608943,7.45303339 Z M37.6600625,5.2265538 L24.3006834,5.2265538 C23.6868165,5.2265538 23.1873956,5.72596982 23.1873956,6.3398307 L23.1873956,6.3398307 L23.1873956,15.3201902 C23.1873956,15.934051 23.6868165,16.4334671 24.3006834,16.4334671 L24.3006834,16.4334671 L26.5272589,16.4334671 C27.1420907,16.4334671 27.6405467,16.9319182 27.6405467,17.546744 L27.6405467,17.546744 L27.6405467,19.3121785 L30.1932414,16.7595088 C30.4020199,16.5507322 30.6851661,16.4334671 30.98041,16.4334671 L30.98041,16.4334671 L37.6600625,16.4334671 C38.2739293,16.4334671 38.7733502,15.934051 38.7733502,15.3201902 L38.7733502,15.3201902 L38.7733502,6.3398307 C38.7733502,5.72596982 38.2739293,5.2265538 37.6600625,5.2265538 L37.6600625,5.2265538 Z M14.2070227,14.2069133 C12.9792889,14.2069133 11.9804472,15.2057453 11.9804472,16.4334671 C11.9804472,17.6611146 12.9792889,18.6600209 14.2070227,18.6600209 C15.4347565,18.6600209 16.4335982,17.6611888 16.4335982,16.4334671 C16.4335982,15.2057453 15.4347565,14.2069133 14.2070227,14.2069133 Z M33.5331047,7.85336776 C33.9678065,7.41859602 34.6727403,7.41859602 35.107442,7.85336776 C35.542218,8.28806528 35.542218,8.992918 35.107442,9.42776395 L35.107442,9.42776395 L30.6542909,13.8808716 C30.219515,14.3156433 29.5145811,14.3155691 29.0798794,13.8808716 L29.0798794,13.8808716 L26.8533038,11.6543178 C26.4185278,11.219546 26.4185278,10.5146933 26.8533038,10.0799216 C27.2880798,9.64514982 27.9930136,9.64514982 28.4277154,10.0799216 L28.4277154,10.0799216 L29.8671223,11.5193144 Z" id="Combined-Shape" fill="#47D382"></path>
    </g>
</svg>