<?xml version="1.0" encoding="UTF-8"?>
<svg width="44px" height="44px" viewBox="0 0 44 44" version="1.1" xmlns="http://www.w3.org/2000/svg" xmlns:xlink="http://www.w3.org/1999/xlink">
    <!-- Generator: Sketch 58 (84663) - https://sketch.com -->
    <title>ic_a/vpn/ic_a_vpn_p2_07</title>
    <desc>Created with Sketch.</desc>
    <g id="ic_a/vpn/ic_a_vpn_p2_07" stroke="none" stroke-width="1" fill="none" fill-rule="evenodd">
        <path d="M22,2 C26.5407619,2 30.809899,3.74835203 34.020626,6.92279055 C37.2316617,10.0975342 39,14.3184204 39,18.8078613 C39,22.7336426 37.601133,26.5541382 35.0608251,29.5656128 C34.5224629,30.2041932 33.9332998,30.8058981 33.304589,31.3599545 L32.9227068,31.6865845 L22.8389498,41.656372 C22.6074515,41.8855591 22.3037258,42 22,42 C21.7396636,42 21.4793273,41.9159209 21.2642809,41.7475707 L21.1607415,41.656372 L11.0772932,31.6865845 C10.4332135,31.1520182 9.82643076,30.567649 9.26801971,29.9444264 L8.93886627,29.565918 L8.67110182,29.2398911 C6.30073222,26.2811114 5,22.5934361 5,18.8078613 C5,14.3184204 6.76833828,10.0975342 9.97906531,6.92279055 C13.190101,3.74835203 17.4589295,2 22,2 Z M22,4.34649656 C13.9349081,4.34649656 7.37332048,10.8339234 7.37332048,18.8078613 C7.37332048,22.1855469 8.57680296,25.4725952 10.7615295,28.0629273 C11.3282374,28.7346191 11.9597647,29.3590087 12.639135,29.9190063 L12.6794543,29.9539108 L12.6794543,29.9539108 L12.7181531,29.9904175 L22,39.1673584 L31.2818469,29.9904175 C31.3071574,29.9656983 31.3333938,29.9415894 31.360865,29.9190063 C32.0399267,29.3590087 32.6717626,28.7346191 33.2381618,28.0629273 C35.423197,25.47229 36.6266795,22.1855469 36.6266795,18.8078613 C36.6266795,10.8339234 30.0650919,4.34649656 22,4.34649656 Z M21.5494944,14 L27.0523154,14 C29.2292643,14 31,15.6742236 31,17.7321395 C31,19.7261145 29.3382061,21.3596459 27.2551726,21.4597943 L27.0523154,21.4646599 L23.0989889,21.4646599 L23.0989889,24.534959 C23.0989889,25.344256 22.405041,26 21.5494944,26 C20.7414782,26 20.0776041,25.4150925 20.0063342,24.6683339 L20,24.534959 L20,15.4646599 C20,14.7006837 20.6189844,14.0733332 21.4084909,14.0059855 L21.5494944,14 L27.0523154,14 Z M17.5,14 C18.3282185,14 19,14.6557439 19,15.4646599 L19,15.4646599 L19,24.534959 C19,25.344256 18.3282185,26 17.5,26 C16.6717815,26 16,25.344256 16,24.534959 L16,24.534959 L16,15.4646599 C16,14.6557439 16.6717815,14 17.5,14 Z M27.1159688,17 L23,17 L23,19 L27.1159688,19 C27.6035075,19 28,18.5513885 28,18.0002373 C28,17.4486114 27.6035075,17 27.1159688,17 Z" id="Combined-Shape" fill="#209CFF"></path>
    </g>
</svg>