<?xml version="1.0" encoding="UTF-8"?>
<svg width="44px" height="44px" viewBox="0 0 44 44" version="1.1" xmlns="http://www.w3.org/2000/svg" xmlns:xlink="http://www.w3.org/1999/xlink">
    <!-- Generator: Sketch 58 (84663) - https://sketch.com -->
    <title>ic_a/vpn/ic_a_vpn_p2_06</title>
    <desc>Created with Sketch.</desc>
    <g id="ic_a/vpn/ic_a_vpn_p2_06" stroke="none" stroke-width="1" fill="none" fill-rule="evenodd">
        <path d="M37.6601562,3 C39.4403598,3 40.8997349,4.40003504 40.9950486,6.15687199 L41,6.33984375 L41,37.6601562 C41,39.4403598 39.599965,40.8997349 37.843128,40.9950486 L37.6601562,41 L6.33984375,41 C4.55964023,41 3.10026508,39.599965 3.0049514,37.843128 L3,37.6601562 L3,6.33984375 C3,4.55964023 4.40003504,3.10026508 6.15687199,3.0049514 L6.33984375,3 L37.6601562,3 Z M38.7734375,13.8743828 L5.2265625,13.8743828 L5.2265625,37.6601562 C5.2265625,38.2330953 5.66161104,38.7063398 6.2187111,38.7668927 L6.33984375,38.7734375 L37.6601562,38.7734375 C38.2330953,38.7734375 38.7063398,38.338389 38.7668927,37.7812889 L38.7734375,37.6601562 L38.7734375,13.8743828 Z M35.4380469,17.0720977 C36.8487227,18.2557383 37.0334531,20.3665195 35.8498125,21.7773438 C35.4288438,22.2754258 26.2652031,33.1189336 25.7213281,33.7624844 C25.4393817,34.0985681 25.0866033,34.3796875 24.6934664,34.58238 L24.4936758,34.677082 L20.4078594,36.4480898 C20.0213281,36.6156016 19.5728242,36.5508086 19.2495273,36.2794648 C18.9624162,36.0385343 18.8182156,35.6717581 18.8584701,35.3051773 L18.882293,35.1679648 L19.9169023,30.8367813 C20.0366914,30.3351367 20.2753047,29.8611016 20.6068398,29.4659609 C20.9483203,29.0619141 29.8942031,18.4760195 30.7353242,17.4807461 C31.9165898,16.0729648 34.0272969,15.8883828 35.4380469,17.0720977 Z M15.3203125,32.0195312 C15.9351406,32.0195312 16.4335938,32.5179844 16.4335938,33.1328125 C16.4335938,33.7476406 15.9351406,34.2460938 15.3203125,34.2460938 L15.3203125,34.2460938 L8.640625,34.2460938 C8.02579687,34.2460938 7.52734375,33.7476406 7.52734375,33.1328125 C7.52734375,32.5179844 8.02579687,32.0195312 8.640625,32.0195312 L8.640625,32.0195312 Z M22.6918672,30.4483203 C22.3359066,30.8695414 22.1883724,31.0099551 22.1073458,31.2644773 L22.0826055,31.3540859 L21.5652266,33.5197148 L23.6080977,32.6342109 C23.8724129,32.5195875 23.9760349,32.3836826 24.2860151,32.0122926 L24.3974883,31.8794805 L22.6918672,30.4483203 Z M30.2826641,21.4658477 L24.1290391,28.7475977 L25.8346602,30.178832 L31.9882852,22.897082 L30.2826641,21.4658477 Z M8.640625,25.3398438 L15.3203125,25.3398438 C15.9351406,25.3398438 16.4335938,25.8382969 16.4335938,26.453125 C16.4335938,27.0269646 15.9993857,27.4994286 15.4416132,27.5598734 L15.3203125,27.5664062 L8.640625,27.5664062 C8.02579687,27.5664062 7.52734375,27.0679531 7.52734375,26.453125 C7.52734375,25.8792854 7.96155181,25.4068214 8.51932425,25.3463766 L8.640625,25.3398438 L15.3203125,25.3398438 Z M32.5275172,18.8204419 L32.4384219,18.9149492 L31.7198359,19.7652734 L33.425457,21.1965078 L34.1465664,20.3431406 C34.5385898,19.8758594 34.4770625,19.1722656 34.0068125,18.7777187 C33.5703585,18.4114227 32.9323851,18.4381824 32.5275172,18.8204419 Z M19.7734375,18.6601562 C20.3882656,18.6601562 20.8867188,19.1586094 20.8867188,19.7734375 C20.8867188,20.3472771 20.4525107,20.8197411 19.8947382,20.8801859 L19.7734375,20.8867188 L8.640625,20.8867188 C8.02579687,20.8867188 7.52734375,20.3882656 7.52734375,19.7734375 C7.52734375,19.1995979 7.96155181,18.7271339 8.51932425,18.6666891 L8.640625,18.6601562 L19.7734375,18.6601562 Z M37.6601562,5.2265625 L6.33984375,5.2265625 C5.76690469,5.2265625 5.29366021,5.66161104 5.23310734,6.2187111 L5.2265625,6.33984375 L5.2265625,11.6478203 L38.7734375,11.6478203 L38.7734375,6.33984375 C38.7734375,5.72598047 38.2740195,5.2265625 37.6601562,5.2265625 Z M8.640625,7.453125 C9.25547326,7.453125 9.75390625,7.95155799 9.75390625,8.56640625 C9.75390625,9.18125451 9.25547326,9.6796875 8.640625,9.6796875 C8.02577674,9.6796875 7.52734375,9.18125451 7.52734375,8.56640625 C7.52734375,7.95155799 8.02577674,7.453125 8.640625,7.453125 Z M13.09375,7.453125 C13.7085983,7.453125 14.2070312,7.95155799 14.2070312,8.56640625 C14.2070312,9.18125451 13.7085983,9.6796875 13.09375,9.6796875 C12.4789017,9.6796875 11.9804688,9.18125451 11.9804688,8.56640625 C11.9804688,7.95155799 12.4789017,7.453125 13.09375,7.453125 Z M17.546875,7.453125 C18.1617233,7.453125 18.6601562,7.95155799 18.6601562,8.56640625 C18.6601562,9.18125451 18.1617233,9.6796875 17.546875,9.6796875 C16.9320267,9.6796875 16.4335938,9.18125451 16.4335938,8.56640625 C16.4335938,7.95155799 16.9320267,7.453125 17.546875,7.453125 Z M35.359375,7.453125 C35.9742031,7.453125 36.4726562,7.95157812 36.4726562,8.56640625 C36.4726562,9.14024583 36.0384482,9.61270986 35.4806758,9.67315467 L35.359375,9.6796875 L30.90625,9.6796875 C30.2914219,9.6796875 29.7929688,9.18123438 29.7929688,8.56640625 C29.7929688,7.99256667 30.2271768,7.52010264 30.7849492,7.45965783 L30.90625,7.453125 L35.359375,7.453125 Z" id="Combined-Shape" fill="#209CFF"></path>
    </g>
</svg>