<?xml version="1.0" encoding="UTF-8"?>
<svg width="44px" height="44px" viewBox="0 0 44 44" version="1.1" xmlns="http://www.w3.org/2000/svg" xmlns:xlink="http://www.w3.org/1999/xlink">
    <!-- Generator: Sketch 59.1 (86144) - https://sketch.com -->
    <title>ic_a/uc/ic_a_uc_p3_05</title>
    <desc>Created with Sketch.</desc>
    <g id="ic_a/uc/ic_a_uc_p3_05" stroke="none" stroke-width="1" fill="none" fill-rule="evenodd">
        <path d="M25.0325317,3 L26.7876892,8.34201046 C27.2915649,8.51914976 27.7881927,8.72557066 28.2732239,8.95953369 L28.2732239,8.95953369 L33.2406616,6.4755249 L37.5244751,10.7593384 L35.0404663,15.7267761 C35.2744293,16.2118073 35.4808502,16.7084351 35.6579895,17.2123108 L35.6579895,17.2123108 L41,18.9674683 L41,25.0325317 L35.6579895,26.7876892 C35.4808502,27.2915649 35.2744293,27.7881927 35.0404663,28.2729339 L35.0404663,28.2729339 L37.5244751,33.2406616 L33.2409515,37.5244751 L28.2732239,35.0404663 C27.7881927,35.2744293 27.2915649,35.4808502 26.7876892,35.6579895 L26.7876892,35.6579895 L25.0328216,41 L18.9674683,41 L17.2123108,35.6579895 C16.7084351,35.4808502 16.2118073,35.2744293 15.7267761,35.0404663 L15.7267761,35.0404663 L10.7590485,37.5244751 L6.4755249,33.2406616 L8.95953369,28.2729339 C8.72557066,27.7881927 8.51914976,27.2915649 8.34201046,26.7876892 L8.34201046,26.7876892 L3,25.0325317 L3,18.9674683 L8.34201046,17.2123108 C8.51914976,16.7084351 8.72557066,16.2118073 8.95953369,15.7267761 L8.95953369,15.7267761 L6.4755249,10.7593384 L10.7593384,6.4755249 L15.7267761,8.95953369 C16.2118073,8.72557066 16.7084351,8.51914976 17.2123108,8.34201046 L17.2123108,8.34201046 L18.9671784,3 L25.0325317,3 Z M23.4203034,5.2265625 L20.5794067,5.2265625 L18.971817,10.1200714 L18.4195251,10.2888031 C16.9829865,10.7274475 16.052063,11.309021 15.7462005,11.4586182 L15.7462005,11.4586182 L11.1988525,9.18479918 L9.18479918,11.1988525 L11.4586182,15.7462005 C11.302063,16.0665589 10.7268677,16.9847259 10.2888031,18.4195251 L10.2888031,18.4195251 L10.1200714,18.971817 L5.2265625,20.5794067 L5.2265625,23.4205933 L10.1203613,25.028183 L10.2888031,25.5804749 C10.7262878,27.0135345 11.3006134,27.9299622 11.4586182,28.2535095 L11.4586182,28.2535095 L9.18479918,32.8011475 L11.1988525,34.8152008 L15.7462005,32.5413818 C16.0665589,32.697937 16.9850159,33.2731323 18.4195251,33.7111969 L18.4195251,33.7111969 L18.9721069,33.8799286 L20.5796966,38.7734375 L23.4205933,38.7734375 L25.028183,33.8799286 C25.3682556,33.7625122 26.3974609,33.5299987 27.7467347,32.8115845 L27.7467347,32.8115845 L28.2537995,32.5413818 L32.8011475,34.8152008 L34.8152008,32.8011475 L32.5413818,28.2535095 C32.6953278,27.9383698 33.2725525,27.0170135 33.7111969,25.5804749 L33.7111969,25.5804749 L33.8799286,25.028183 L38.7734375,23.4205933 L38.7734375,20.5794067 L33.8796387,18.971817 L33.7111969,18.4195251 C33.2725525,16.9829865 32.690979,16.0526429 32.5413818,15.7462005 L32.5413818,15.7462005 L34.8149109,11.1988525 L32.8011475,9.18479918 L28.2535095,11.4586182 C27.9331512,11.302063 27.0152741,10.7268677 25.5801849,10.2888031 L25.5801849,10.2888031 L25.0278931,10.1200714 L23.4203034,5.2265625 Z M22,20.8867188 C25.6831055,20.8867188 28.6796875,23.8833008 28.6796875,27.5664062 L28.6796875,27.5664062 L28.6796875,29.7929688 L15.3203125,29.7929688 L15.3203125,27.5664062 C15.3203125,23.8833008 18.3168945,20.8867188 22,20.8867188 Z M22,23.1132812 C19.544403,23.1132812 17.546875,25.1108093 17.546875,27.5664062 L17.546875,27.5664062 L26.453125,27.5664062 C26.453125,25.1108093 24.455597,23.1132812 22,23.1132812 Z M22,11.9804688 C24.455597,11.9804688 26.453125,13.9779968 26.453125,16.4335938 C26.453125,18.8891907 24.455597,20.8867188 22,20.8867188 C19.544403,20.8867188 17.546875,18.8891907 17.546875,16.4335938 C17.546875,13.9779968 19.544403,11.9804688 22,11.9804688 Z M22,14.2070312 C20.7722015,14.2070312 19.7734375,15.2057953 19.7734375,16.4335938 C19.7734375,17.6613922 20.7722015,18.6601562 22,18.6601562 C23.2277985,18.6601562 24.2265625,17.6613922 24.2265625,16.4335938 C24.2265625,15.2057953 23.2277985,14.2070312 22,14.2070312 Z" id="Combined-Shape" fill="#FF874D"></path>
    </g>
</svg>