<?xml version="1.0" encoding="UTF-8"?>
<svg width="250px" height="100px" viewBox="0 0 250 100" version="1.1" xmlns="http://www.w3.org/2000/svg" xmlns:xlink="http://www.w3.org/1999/xlink">
    <!-- Generator: Sketch 59.1 (86144) - https://sketch.com -->
    <title>brand/brand_02</title>
    <desc>Created with Sketch.</desc>
    <g id="brand/brand_02" stroke="none" stroke-width="1" fill="none" fill-rule="evenodd">
        <path d="M155.516129,51.7507331 L155.516129,56.7947214 L155.516129,56.7947214 L141.897361,56.7947214 L141.897361,60.5777126 L153.750733,60.5777126 L153.750733,60.5777126 L153.750733,65.6217009 L153.750733,65.6217009 L141.897361,65.6217009 L141.897361,70.9178886 L155.26393,70.9178886 L155.26393,70.9178886 L155.516129,71.170088 L155.516129,71.170088 L155.26393,71.170088 L155.263437,75.7205141 C155.259989,75.7687867 155.232405,75.9618768 155.01173,75.9618768 C154.759531,76.2140762 154.255132,76.4662757 154.002933,76.4662757 L154.002933,76.4662757 L137.609971,76.4662757 C137.105572,76.4662757 136.096774,76.2140762 135.592375,75.7096774 C135.087977,75.2052786 134.583578,74.7008798 134.583578,73.6920821 L134.583578,73.6920821 L134.583578,51.7507331 L134.583578,51.7507331 L155.516129,51.7507331 L155.516129,51.7507331 Z M165.099707,51.2463343 L165.099707,70.9178886 L176.70088,70.9178886 L176.70088,70.9178886 L176.953079,71.170088 L176.953079,71.170088 L176.953028,71.3580697 C176.952207,72.4110138 176.938244,74.2261515 176.70088,74.7008798 L176.70088,74.7008798 L176.700387,74.7954545 C176.696939,75.016129 176.669355,75.2368035 176.44868,75.457478 C176.196481,75.7096774 175.944282,75.9618768 175.692082,75.9618768 L175.692082,75.9618768 L160.812317,75.9618768 C160.055718,75.9618768 159.29912,75.7096774 158.794721,75.2052786 C158.290323,74.7008798 157.785924,73.9442815 157.785924,72.9354839 L157.785924,72.9354839 L157.785924,51.4985337 C157.785924,51.4985337 157.785924,51.2463343 158.038123,51.2463343 L158.038123,51.2463343 L165.099707,51.2463343 L165.099707,51.2463343 Z M116.42522,50.9941349 C117.686217,50.9941349 118.947214,51.4985337 119.956012,52.255132 C120.460411,52.5073314 120.964809,53.0117302 121.217009,53.516129 L121.217009,53.516129 L121.257934,53.5772898 C121.856734,54.4694158 124.563264,58.400186 127.269795,62.0909091 C130.043988,65.8739003 132.565982,69.4046921 132.565982,69.1524927 C133.070381,69.9090909 133.322581,70.6656891 133.322581,71.6744868 C133.322581,74.1964809 131.304985,75.9618768 129.035191,75.9618768 L129.035191,75.9618768 L120.208211,75.9618768 L120.208211,75.9618768 L120.208211,70.9178886 L120.208211,70.9178886 L125,70.9178886 L117.938416,60.829912 L117.938416,75.9618768 L117.938416,75.9618768 L110.876833,75.9618768 L110.876833,75.9618768 L110.876833,56.542522 L110.881095,56.3272361 C110.997214,53.3974638 113.470884,50.9941349 116.42522,50.9941349 Z M205.703812,50.7419355 C208.730205,50.7419355 211.252199,53.2639296 211.252199,56.2903226 L211.252199,56.2903226 L211.252199,75.9618768 L211.252199,75.9618768 L204.190616,75.9618768 L204.190616,75.9618768 L204.190616,60.829912 L197.129032,70.9178886 L201.920821,70.9178886 L201.920821,70.9178886 L201.920821,75.9618768 L201.920821,75.9618768 L193.093842,75.9618768 C190.571848,75.9618768 188.806452,73.9442815 188.806452,71.6744868 C188.806452,70.6656891 189.058651,69.9090909 189.56305,69.1524927 C189.56305,69.1524927 192.085044,65.6217009 194.859238,61.8387097 C197.381232,58.0557185 200.407625,54.2727273 200.912023,53.2639296 C201.416422,52.7595308 201.920821,52.255132 202.173021,52.0029326 C203.181818,51.2463343 204.442815,50.7419355 205.703812,50.7419355 Z M71.2815249,23 L103.31085,75.9618768 L39,75.9618768 L71.2815249,23 Z M193.104678,51.2468269 C193.152951,51.2502749 193.346041,51.2778592 193.346041,51.4985337 L193.346041,51.4985337 L193.346041,56.2903226 L193.346041,56.2903226 L185.780059,56.0381232 L185.780059,74.4486804 C185.780059,74.9530792 185.527859,75.2052786 185.27566,75.457478 C185.02346,75.7096774 184.771261,75.7096774 184.519062,75.7096774 L178.970674,75.7096774 L178.970674,75.7096774 L178.970674,56.2903226 L171.656891,56.2903226 L171.656891,56.2903226 L171.656891,51.2463343 L171.656891,51.2463343 Z M75.8211144,44.4369501 L75.4234511,44.4425931 C70.2482955,44.5889003 64.8693548,47.5642229 60.6891496,51.4985337 C56.4017595,55.5337243 53.3753666,60.3255132 53.3753666,64.8651026 L53.3753666,64.8651026 L53.3753666,65.3695015 C53.3753666,66.8826979 54.1319648,68.6480938 55.3929619,70.1612903 C56.6539589,71.6744868 58.6715543,72.9354839 61.4457478,72.9354839 L61.4457478,72.9354839 L61.9501466,72.9354839 C65.7331378,72.6832845 69.7683284,71.170088 73.2991202,68.6480938 L73.2991202,68.6480938 L73.5694258,68.8062699 C74.7415465,69.4741756 75.9291998,69.9090909 77.3343109,69.9090909 C81.6217009,69.9090909 84.9002933,66.3782991 84.9002933,62.3431085 C84.9002933,60.3255132 84.3958944,58.5601173 83.1348974,57.2991202 C83.8914956,55.5337243 84.143695,54.0205279 84.143695,52.5073314 C84.143695,50.2375367 83.3870968,48.2199413 81.8739003,46.7067449 C80.3607038,45.1935484 78.3431085,44.4369501 75.8211144,44.4369501 L75.8211144,44.4369501 Z M75.8211144,47.2111437 L76.0976917,47.2173209 C77.7436983,47.2907856 79.1395277,48.0075629 79.856305,48.7243402 C80.8651026,49.7331378 81.3695015,50.9941349 81.1173021,52.255132 C81.1173021,53.2639296 80.8651026,54.2727273 80.6129032,55.2815249 C79.6041056,54.7771261 78.5953079,54.5249267 77.3343109,54.5249267 C73.0469208,54.5249267 69.7683284,57.8035191 69.7683284,62.0909091 C69.7683284,63.6041056 70.5249267,65.1173021 71.2815249,66.3782991 C68.0029326,68.6480938 64.7243402,69.9090909 61.9501466,69.9090909 L61.9501466,69.9090909 L61.4457478,69.9090909 C59.1759531,69.9090909 57.914956,69.1524927 57.1583578,68.143695 C56.4017595,67.1348974 55.8973607,65.8739003 55.8973607,65.1173021 L55.8973607,65.1173021 L55.8973607,64.8651026 C55.8973607,61.8387097 58.4193548,57.0469208 62.4545455,53.516129 C66.4897361,49.7331378 71.5337243,47.2111437 75.8211144,47.2111437 L75.8211144,47.2111437 Z" id="Combined-Shape" fill="#00A0E9" fill-rule="nonzero"></path>
    </g>
</svg>