<?xml version="1.0" encoding="UTF-8"?>
<svg width="44px" height="44px" viewBox="0 0 44 44" version="1.1" xmlns="http://www.w3.org/2000/svg" xmlns:xlink="http://www.w3.org/1999/xlink">
    <!-- Generator: Sketch 58 (84663) - https://sketch.com -->
    <title>ic_a/vpn/ic_a_vpn_p2_01</title>
    <desc>Created with Sketch.</desc>
    <g id="ic_a/vpn/ic_a_vpn_p2_01" stroke="none" stroke-width="1" fill="none" fill-rule="evenodd">
        <path d="M37.2890625,3 C39.3352734,3 41,4.66472656 41,6.7109375 C41,8.75714844 39.3352734,10.421875 37.2890625,10.421875 C36.6705977,10.421875 36.0874609,10.2689844 35.5741641,10.0003125 L35.5741641,10.0003125 L32.9855625,12.5888398 C35.1580195,15.1210352 36.4726562,18.4097422 36.4726562,22 C36.4726562,25.5902578 35.1580195,28.8789648 32.9855625,31.4112344 L32.9855625,31.4112344 L35.5741641,33.9997617 C36.0874609,33.7310156 36.6705977,33.578125 37.2890625,33.578125 C39.3352734,33.578125 41,35.2428516 41,37.2890625 C41,39.3352734 39.3352734,41 37.2890625,41 C35.2428516,41 33.578125,39.3352734 33.578125,37.2890625 C33.578125,36.6705977 33.7310156,36.0874609 33.9997617,35.5740898 L33.9997617,35.5740898 L31.4111602,32.9855625 C28.8789648,35.1580195 25.5902578,36.4726562 22,36.4726562 C18.4097422,36.4726562 15.1210352,35.1580195 12.5888398,32.9856367 L12.5888398,32.9856367 L10.0002383,35.5741641 C10.2689844,36.0874609 10.421875,36.6705977 10.421875,37.2890625 C10.421875,39.3352734 8.75714844,41 6.7109375,41 C4.66472656,41 3,39.3352734 3,37.2890625 C3,35.2428516 4.66472656,33.578125 6.7109375,33.578125 C7.32940234,33.578125 7.91253906,33.7310156 8.42583594,33.9996875 L8.42583594,33.9996875 L11.0144375,31.4111602 C8.84198047,28.8789648 7.52734375,25.5902578 7.52734375,22 C7.52734375,18.4097422 8.84198047,15.1210352 11.0144375,12.5887656 L11.0144375,12.5887656 L8.42583594,10.0002383 C7.91253906,10.2689844 7.32940234,10.421875 6.7109375,10.421875 C4.66472656,10.421875 3,8.75714844 3,6.7109375 C3,4.66472656 4.66472656,3 6.7109375,3 C8.75714844,3 10.421875,4.66472656 10.421875,6.7109375 C10.421875,7.32940234 10.2689844,7.91253906 10.0002383,8.42583594 L10.0002383,8.42583594 L12.5888398,11.0144375 C15.1210352,8.84198047 18.4097422,7.52734375 22,7.52734375 C25.5902578,7.52734375 28.8789648,8.84198047 31.4111602,11.0143633 L31.4111602,11.0143633 L33.9997617,8.42583594 C33.7310156,7.91253906 33.578125,7.32940234 33.578125,6.7109375 C33.578125,4.66472656 35.2428516,3 37.2890625,3 Z M6.7109375,35.8046875 C5.89245313,35.8046875 5.2265625,36.4705781 5.2265625,37.2890625 C5.2265625,38.1075469 5.89245313,38.7734375 6.7109375,38.7734375 C7.52942187,38.7734375 8.1953125,38.1075469 8.1953125,37.2890625 C8.1953125,36.4705781 7.52942187,35.8046875 6.7109375,35.8046875 Z M37.2890625,35.8046875 C36.4705781,35.8046875 35.8046875,36.4705781 35.8046875,37.2890625 C35.8046875,38.1075469 36.4705781,38.7734375 37.2890625,38.7734375 C38.1075469,38.7734375 38.7734375,38.1075469 38.7734375,37.2890625 C38.7734375,36.4705781 38.1075469,35.8046875 37.2890625,35.8046875 Z M22,9.75390625 C15.2475039,9.75390625 9.75390625,15.2475039 9.75390625,22 C9.75390625,28.7524961 15.2475039,34.2460938 22,34.2460938 C28.7524961,34.2460938 34.2460938,28.7524961 34.2460938,22 C34.2460938,15.2475039 28.7524961,9.75390625 22,9.75390625 Z M22,15.0976562 C24.250832,15.0976562 26.0820312,16.9288555 26.0820312,19.1796875 L26.0820312,19.1796875 L26.0820312,20.8867188 L26.2304688,20.8867188 C26.8452969,20.8867188 27.34375,21.3851719 27.34375,22 L27.34375,22 L27.34375,27.7890625 C27.34375,28.4038906 26.8452969,28.9023438 26.2304688,28.9023438 L26.2304688,28.9023438 L17.7695312,28.9023438 C17.1547031,28.9023438 16.65625,28.4038906 16.65625,27.7890625 L16.65625,27.7890625 L16.65625,22 C16.65625,21.3851719 17.1547031,20.8867188 17.7695312,20.8867188 L17.7695312,20.8867188 L17.9179688,20.8867188 L17.9179688,19.1796875 C17.9179688,16.9288555 19.749168,15.0976562 22,15.0976562 Z M25.1171875,23.1132812 L18.8828125,23.1132812 L18.8828125,26.6757812 L25.1171875,26.6757812 L25.1171875,23.1132812 L25.1171875,23.1132812 Z M22,17.3242188 C20.9768945,17.3242188 20.1445312,18.156582 20.1445312,19.1796875 L20.1445312,19.1796875 L20.1445312,20.8867188 L23.8554688,20.8867188 L23.8554688,19.1796875 C23.8554688,18.156582 23.0231055,17.3242188 22,17.3242188 Z M37.2890625,5.2265625 C36.4705781,5.2265625 35.8046875,5.89245313 35.8046875,6.7109375 C35.8046875,7.52942187 36.4705781,8.1953125 37.2890625,8.1953125 C38.1075469,8.1953125 38.7734375,7.52942187 38.7734375,6.7109375 C38.7734375,5.89245313 38.1075469,5.2265625 37.2890625,5.2265625 Z M6.7109375,5.2265625 C5.89245313,5.2265625 5.2265625,5.89245313 5.2265625,6.7109375 C5.2265625,7.52942187 5.89245313,8.1953125 6.7109375,8.1953125 C7.52942187,8.1953125 8.1953125,7.52942187 8.1953125,6.7109375 C8.1953125,5.89245313 7.52942187,5.2265625 6.7109375,5.2265625 Z" id="Combined-Shape" fill="#209CFF"></path>
    </g>
</svg>