<?xml version="1.0" encoding="UTF-8"?>
<svg width="44px" height="44px" viewBox="0 0 44 44" version="1.1" xmlns="http://www.w3.org/2000/svg" xmlns:xlink="http://www.w3.org/1999/xlink">
    <!-- Generator: Sketch 58 (84663) - https://sketch.com -->
    <title>ic_a/vpn/ic_a_vpn_p2_09</title>
    <desc>Created with Sketch.</desc>
    <g id="ic_a/vpn/ic_a_vpn_p2_09" stroke="none" stroke-width="1" fill="none" fill-rule="evenodd">
        <path d="M37.8143951,10.095398 L30.7705433,10.095398 C30.1156818,10.095398 29.5849384,10.6203003 29.5849384,11.267273 L29.5849384,18.2298584 C29.5849384,18.4004516 29.6229148,18.5621948 29.6892963,18.7086792 C29.8745471,19.1170044 30.2885825,19.4017334 30.7705433,19.4017334 L33.1068642,19.4017334 L33.1068642,20.9700317 L23.6467249,20.9700317 L23.6467249,9.4838257 L24.5041273,11.6881103 C24.6853643,12.1538086 25.1349062,12.4394531 25.6110006,12.4394531 C25.7527175,12.4394531 25.8965956,12.4144287 26.0364599,12.361023 C26.6474787,12.1287842 26.9525249,11.4509888 26.7175652,10.8467407 L23.5676846,2.75134281 C23.3913877,2.29876711 22.9517259,2 22.46112,2 C21.9705142,2 21.5305437,2.29876711 21.3545554,2.75134281 L18.2043661,10.8467407 C17.9694064,11.4506836 18.2744526,12.1287842 18.8854714,12.361023 C19.4964902,12.5932617 20.1825356,12.2920532 20.4178041,11.6881103 L21.2755151,9.4838257 L21.2755151,26.5892334 L10.8931358,26.5892334 L10.8931358,20.2839966 C11.5930749,20.1039429 12.2291026,19.767334 12.7629335,19.315979 C13.7731677,18.4620972 14.4150617,17.194397 14.4150617,15.7805176 C14.4150617,13.2149048 12.3035116,11.1275024 9.70753083,11.1275024 C7.11185877,11.1275024 5,13.2149048 5,15.7805176 C5,17.9414673 6.49836996,19.7630616 8.5219259,20.2839966 L8.5219259,27.7611084 C8.5219259,28.4083862 9.05297811,28.9329834 9.70753083,28.9329834 L21.2755151,28.9329834 L21.2755151,32.843811 C19.2516505,33.3647461 17.7535893,35.1860352 17.7535893,37.3469848 C17.7535893,39.9125977 19.865448,42 22.46112,42 C25.0567921,42 27.1686508,39.9125977 27.1686508,37.3469848 C27.1686508,35.1860352 25.6702809,33.3647461 23.6467249,32.843811 L23.6467249,23.3134766 L34.2924692,23.3134766 C34.9473307,23.3134766 35.4780741,22.7888794 35.4780741,22.1416016 L35.4780741,19.4014282 L37.8143951,19.4014282 C38.4692565,19.4014282 39,18.8768311 39,18.2295532 L39,11.267273 C39,10.6203003 38.4692565,10.095398 37.8143951,10.095398 Z M36.6287901,17.0576782 L31.9561483,17.0576782 L31.9561483,12.439148 L36.6287901,12.439148 L36.6287901,17.0576782 Z M7.37120985,15.7805176 C7.37120985,14.5070191 8.41911167,13.4712524 9.70753083,13.4712524 C10.9959499,13.4712524 12.0438518,14.5070191 12.0438518,15.7805176 C12.0438518,17.0537109 10.9959499,18.0897827 9.70753083,18.0897827 C8.41911167,18.0897827 7.37120985,17.0537109 7.37120985,15.7805176 Z M24.797441,37.3469848 C24.797441,38.6201782 23.7492304,39.65625 22.46112,39.65625 C21.1727009,39.65625 20.1244903,38.6201782 20.1244903,37.3469848 C20.1244903,36.0734863 21.1727009,35.0377197 22.46112,35.0377197 C23.7492304,35.0377197 24.797441,36.0737915 24.797441,37.3469848 L24.797441,37.3469848 Z" id="Shape" fill="#FF874D"></path>
    </g>
</svg>