<?xml version="1.0" encoding="UTF-8"?>
<svg width="250px" height="100px" viewBox="0 0 250 100" version="1.1" xmlns="http://www.w3.org/2000/svg" xmlns:xlink="http://www.w3.org/1999/xlink">
    <!-- Generator: Sketch 59.1 (86144) - https://sketch.com -->
    <title>brand/brand_04</title>
    <desc>Created with Sketch.</desc>
    <g id="brand/brand_04" stroke="none" stroke-width="1" fill="none" fill-rule="evenodd">
        <path d="M26.4896953,71.354411 L15.7624633,71.354411 C13.5732323,71.354411 11.6029244,70.2597955 10.2893858,68.2894876 L1.31353861,52.7459474 C0.218923102,50.7756395 0.218923102,48.3674853 1.31353861,46.6161005 L10.2893858,31.0725603 C11.3840013,29.1022524 13.3543092,28.0076369 15.7624633,28.0076369 L33.7141577,28.0076369 C35.9033887,28.0076369 37.8736966,29.1022524 39.1872353,31.0725603 L48.1630824,46.6161005 C49.2576979,48.5864084 49.2576979,50.9945626 48.1630824,52.7459474 L45.7549283,56.4676401 C44.6603128,58.437948 42.6900049,59.5325635 40.5007739,59.5325635 L29.7735419,59.5325635 L35.6844656,49.6810239 L30.2113881,40.2673306 L19.4841561,40.2673306 L14.0110785,49.6810239 L26.4896953,71.354411 L26.4896953,71.354411 Z" id="Path" fill="#FF5000" fill-rule="nonzero"></path>
        <path d="M82.0961632,40.2673306 L82.0961632,52.9648705 C82.0961632,55.1541015 83.1907788,55.8108708 84.7232405,55.8108708 C86.2557022,55.8108708 87.3503177,54.9351784 87.3503177,53.1837936 L87.3503177,40.2673306 L92.385549,40.2673306 L92.385549,53.6216398 C92.385549,57.5622556 89.3206256,59.9704097 84.7232405,59.9704097 C79.6880091,59.9704097 77.0609319,58.0001018 77.0609319,53.1837936 L77.0609319,40.2673306 L82.0961632,40.2673306 Z M137.045862,40.0484075 C139.672939,40.0484075 141.86217,41.3619461 143.394632,42.6754847 L142.081093,44.2079464 C140.548631,42.8944078 138.797247,42.0187154 137.045862,42.0187154 C135.5134,42.0187154 133.324169,42.6754847 133.324169,45.0836388 C133.324169,47.2728698 135.294477,48.1485622 137.702631,48.8053315 C140.329708,49.6810239 143.175709,50.5567164 143.175709,54.2784091 C143.175709,58.0001018 140.767555,59.9704097 136.608016,59.9704097 C133.762015,59.9704097 131.134938,58.8757942 130.478169,58.2190249 L131.353861,56.248717 C132.229554,56.9054863 134.418785,58.0001018 136.608016,58.0001018 C138.578324,58.0001018 140.767555,57.3433325 140.767555,54.4973322 C140.767555,52.0891781 138.797247,51.4324088 136.389093,50.7756395 C133.543092,50.1188702 130.916015,49.0242546 130.916015,45.3025619 C130.916015,42.0187154 133.324169,40.0484075 137.045862,40.0484075 Z M169.008635,40.0484075 C173.168174,40.0484075 176.889866,42.6754847 176.889866,50.1188702 C176.670943,56.6865632 173.60602,59.9704097 168.570789,59.9704097 C163.535557,59.9704097 160.689557,56.6865632 160.689557,50.1188702 C160.689557,42.6754847 165.068019,40.0484075 169.008635,40.0484075 Z M220.89341,40.0484075 C222.863718,40.0484075 225.490795,40.7051768 227.461103,43.1133309 L225.709718,44.4268695 C224.39618,42.8944078 222.863718,42.0187154 220.89341,42.0187154 C217.171717,42.0187154 214.982486,45.0836388 214.982486,49.8999471 C214.982486,55.1541015 216.733871,58.2190249 221.112333,58.2190249 C222.644795,58.2190249 224.39618,57.7811787 225.052949,57.1244094 L225.052949,51.2134857 L220.674487,51.2134857 L220.674487,49.2431777 L227.24218,49.2431777 L227.24218,58.2190249 C225.709718,59.3136404 223.301564,59.9704097 220.89341,59.9704097 C215.858179,59.9704097 212.793255,56.6865632 212.793255,50.1188702 C212.793255,42.6754847 217.171717,40.0484075 220.89341,40.0484075 Z M180.173713,40.4862537 L186.522483,40.4862537 C190.682022,40.4862537 193.090176,42.4565616 193.090176,46.1782543 C193.090176,49.0242546 191.776637,50.9945626 189.587406,51.870255 C190.193655,52.0723378 190.426827,52.6474968 190.803491,53.4235428 L190.900945,53.6216398 L193.309099,59.7514866 L190.900945,59.7514866 L188.492791,54.4973322 C188.0807,53.6731511 187.474685,52.84897 186.492227,52.7548594 L186.30356,52.7459474 L182.362944,52.7459474 L182.362944,59.7514866 L180.173713,59.7514866 L180.173713,40.4862537 L186.522483,40.4862537 Z M66.7715461,40.2673306 C71.3689312,40.2673306 73.9960085,42.4565616 73.9960085,46.3971774 C73.9960085,50.9945626 70.7121619,53.1837936 66.1147768,53.1837936 L64.5823151,53.1837936 L64.5823151,59.5325635 L59.7660068,59.5325635 L59.7660068,40.2673306 L66.7715461,40.2673306 Z M126.537553,40.2673306 L126.537553,44.6457926 L118.875244,44.6457926 L118.875244,47.4917929 L125.442937,47.4917929 L125.442937,51.870255 L118.875244,51.870255 L118.875244,55.1541015 L126.756476,55.1541015 L126.756476,59.5325635 L113.840013,59.5325635 L113.840013,40.2673306 L126.537553,40.2673306 Z M159.376018,40.2673306 L159.376018,42.2376385 L153.465094,42.2376385 L153.465094,59.5325635 L151.275863,59.5325635 L151.275863,42.2376385 L145.583863,42.2376385 L145.583863,40.2673306 L159.376018,40.2673306 Z M204.6931,40.2673306 L211.69864,59.5325635 L209.290486,59.5325635 L207.101254,53.6216398 L199.438946,53.6216398 L197.468638,59.5325635 L195.279407,59.5325635 L202.066023,40.2673306 L204.6931,40.2673306 Z M241.910028,40.2673306 L241.910028,42.2376385 L233.372027,42.2376385 L233.372027,48.8053315 L240.596489,48.8053315 L240.596489,50.7756395 L233.372027,50.7756395 L233.372027,57.5622556 L242.128951,57.5622556 L242.128951,59.5325635 L231.182796,59.5325635 L231.182796,40.2673306 L241.910028,40.2673306 Z M95.8883187,40.2673306 L102.893858,40.2673306 C107.27232,40.2673306 110.11832,42.4565616 110.11832,46.3971774 C110.11832,49.0242546 109.023705,50.7756395 107.27232,51.870255 C107.874359,52.0709345 108.292441,52.6395264 108.526567,53.2387777 L108.585859,53.4027167 L111.212936,59.5325635 L105.958781,59.5325635 L103.550627,54.2784091 C103.348544,53.6721605 102.959923,53.2524499 102.384765,53.1914664 L102.237089,53.1837936 L100.92355,53.1837936 L100.92355,59.5325635 L95.8883187,59.5325635 L95.8883187,40.2673306 L102.893858,40.2673306 Z M168.789712,42.0187154 C164.630173,42.0187154 163.097711,45.9593312 163.097711,49.8999471 C162.878788,53.8405629 163.973403,58.0001018 168.789712,58.0001018 C172.949251,58.0001018 174.262789,54.059486 174.262789,50.1188702 C174.262789,46.6161005 173.168174,42.0187154 168.789712,42.0187154 Z M203.599003,42.4580484 L200.314638,51.870255 L206.882331,51.870255 C203.77599,42.9654099 203.60808,42.4840669 203.599003,42.4580484 Z M185.421851,42.0193654 L182.581867,42.0187154 L182.581867,50.5567164 L185.427867,50.5567164 C188.492791,50.5567164 190.463099,49.4621008 190.900945,46.1782543 C190.900945,42.5374679 188.596355,42.0393041 185.421851,42.0193654 Z M102.237089,44.2079464 L100.92355,44.2079464 L100.92355,49.4621008 L102.018166,49.4621008 C103.76955,49.4621008 105.083089,48.8053315 105.083089,46.8350236 C105.083089,44.8647157 103.988473,44.2079464 102.237089,44.2079464 Z M66.1147768,43.9890233 L64.8012382,43.9890233 L64.8012382,49.0242546 L65.8958537,49.0242546 L65.8958537,49.2431777 C67.8661616,49.2431777 68.9607771,48.5864084 68.9607771,46.6161005 C68.9607771,44.6457926 67.8661616,43.9890233 66.1147768,43.9890233 Z M246.28849,39.6105613 C247.602028,39.6105613 248.915567,40.7051768 248.915567,42.2376385 C248.696644,43.9890233 247.602028,44.8647157 246.28849,44.8647157 C244.756028,44.8647157 243.661413,43.7701002 243.661413,42.2376385 C243.661413,40.7051768 244.756028,39.6105613 246.28849,39.6105613 Z M246.28849,40.2673306 C245.193874,40.2673306 244.318182,41.143023 244.318182,42.4565616 C244.318182,43.5511771 244.974951,44.6457926 246.28849,44.6457926 C247.383105,44.6457926 248.258798,43.7701002 248.258798,42.4565616 C248.258798,41.143023 247.383105,40.2673306 246.28849,40.2673306 Z M246.28849,40.9240999 C246.945259,40.9240999 247.383105,41.143023 247.383105,41.7997923 C247.383105,42.2376385 247.164182,42.4565616 246.726336,42.6754847 L247.602028,43.9890233 L247.164182,43.9890233 L246.507413,42.6754847 L246.069567,42.6754847 L246.069567,43.7701002 L245.193874,43.7701002 L245.193874,40.9240999 L246.28849,40.9240999 Z M246.347401,41.3621995 L245.63172,41.3619461 L245.63172,42.2376385 L246.28849,42.2376385 C246.726336,42.2376385 246.945259,42.2376385 246.945259,41.7997923 C246.945259,41.3984333 246.577347,41.3649867 246.347401,41.3621995 Z" id="Combined-Shape" fill="#222222" fill-rule="nonzero"></path>
    </g>
</svg>