<?xml version="1.0" encoding="UTF-8"?>
<svg width="250px" height="100px" viewBox="0 0 250 100" version="1.1" xmlns="http://www.w3.org/2000/svg" xmlns:xlink="http://www.w3.org/1999/xlink">
    <!-- Generator: Sketch 59.1 (86144) - https://sketch.com -->
    <title>brand/brand_15</title>
    <desc>Created with Sketch.</desc>
    <g id="brand/brand_15" stroke="none" stroke-width="1" fill="none" fill-rule="evenodd">
        <path d="M71.9057486,38.8726451 C78.6257486,38.8726451 83.3381376,44.512 83.3381376,51.526 C83.3381376,58.4734462 75.9178265,62.964117 72.0828454,63.1006471 L71.9057486,63.1038507 L64.2143095,63.1038507 L62.700402,72.9692522 L55.8851823,72.9692522 L60.4122693,39.4207462 C65.9745889,39.0553455 69.8057486,38.8726451 71.9057486,38.8726451 Z M218.452955,30 L213.925868,63.5485061 C208.363549,63.9139067 204.532389,64.0966071 202.432389,64.0966071 C195.712389,64.0966071 191,58.4572522 191,51.4432522 C191,44.4958061 198.420311,40.0051352 202.255292,39.8686051 L202.432389,39.8654015 L210.123828,39.8654015 L211.637736,30 L218.452955,30 Z M219.508,59.566 L219.508,60.352 L218.686,60.352 L218.686,64 L217.864,64 L217.864,60.352 L217.042,60.352 L217.042,59.566 L219.508,59.566 Z M221.056,59.566 L222.25,62.926 L223.432,59.566 L224.56,59.566 L224.56,64 L223.738,64 L223.738,60.676 L222.58,64 L221.908,64 L220.75,60.676 L220.75,64 L219.928,64 L219.928,59.566 L221.056,59.566 Z M41.7062456,33.046 C50.5682456,33.046 57.4613107,38.758 57.4613107,47.62 C57.4613107,56.692 50.3559905,64 41.3259905,64 C32.2119905,64 25.3682456,58.6879355 25.3682456,49.7419355 C25.3682456,40.6699355 32.4662456,33.046 41.7062456,33.046 Z M96.9993665,39.4207462 C103.929367,39.4207462 108.360367,42.958 108.360367,50.7666164 C108.360367,51.5226164 108.428253,51.7254941 108.319358,52.3402517 L108.276177,52.5617494 L91.8941432,52.366 C91.8941432,55.9629487 93.9543665,58.5765369 97.2723665,58.5765369 C99.8455625,58.5765369 104.884042,57.6591794 106.489118,56.0717279 L106.629355,55.9209487 L105.954043,61.6708654 C103.612924,63.1038507 101.976367,64 97.2723665,64 C90.1743665,64 84.6723665,59.254 84.6723665,52.45 C84.6723665,45.604 90.1533665,39.4207462 96.9993665,39.4207462 Z M164.273433,39.4207462 L160.825279,63.1038507 L153.448372,63.1038507 L155.786246,44.8394326 L155.774269,44.848 L147.417628,44.848 L145.252322,63.034 L137.650322,62.6887462 L139.666322,44.848 L134.902872,44.848 L135.308941,39.4207462 L141.336285,39.4207462 C142.06875,29.8588225 149.588153,29.2197361 157.609687,26.3512269 L157.609687,26.3512269 L157.859613,26.3521487 C158.153613,26.3553751 158.489583,26.2858936 159.01225,26.3512269 L159.01225,26.3512269 L159.012246,29.4194326 L169.64827,25.5174326 L169.64827,32.212134 L157.609687,36.4992673 L157.767246,33.3194326 L151.142178,35.2268057 C149.565974,35.2268057 148.731877,37.1834767 148.640083,39.2108437 L148.633235,39.4207462 L164.273433,39.4207462 Z M127.295912,38.8726451 C130.529912,38.8726451 132.348981,39.892 133.682294,42.79 C134.534084,44.6413969 134.168922,46.6070849 133.682294,49.7419355 L133.682294,49.7419355 L131.713661,62.6887462 L124.484528,62.6887462 L126.66305,50.7666164 C127.308692,45.814 126.377106,44.6264141 123.783185,44.5447462 C122.019185,44.5447462 120.447971,45.31 119.524607,46.2829526 C118.602435,47.2546482 117.633884,48.8237494 117.231185,51.526 L117.231185,51.526 L116.035384,62.6887462 L108.955583,62.6887462 L112.065185,39.4207462 L119.108761,39.4207462 L119.108761,42.2347462 C121.166761,40.2607462 124.649912,38.8726451 127.295912,38.8726451 Z M183.34033,38.8726451 C186.57433,38.8726451 188.393399,39.892 189.726711,42.79 C190.578502,44.6413969 190.213339,46.6070849 189.726711,49.7419355 L189.726711,49.7419355 L187.758079,62.6887462 L180.528946,62.6887462 L182.707467,50.7666164 C183.35311,45.814 182.421523,44.6264141 179.827603,44.5447462 C178.063603,44.5447462 176.492389,45.31 175.569024,46.2829526 C174.646852,47.2546482 173.678301,48.8237494 173.275603,51.526 L173.275603,51.526 L172.079801,62.6887462 L165,62.6887462 L168.109603,39.4207462 L175.153178,39.4207462 L175.153178,42.2347462 C177.211178,40.2607462 180.69433,38.8726451 183.34033,38.8726451 Z M208.595343,45.8572522 L204.625672,45.8572522 C202.432389,45.8572522 198.920515,48.2546358 198.920515,52.2026358 C198.920515,56.2346358 200.883858,57.9532522 203.104389,58.4245061 C203.842662,58.5811867 205.207762,58.5898912 207.199689,58.4506195 L207.557712,58.4245061 L208.595343,45.8572522 Z M41.7062456,39.892 C35.7422456,39.892 32.7825096,44.639871 32.7825096,49.7419355 C32.7825096,54.844 36.1111429,57.7554988 40.8320021,57.7554988 C45.5528613,57.7554988 49.9914898,54.445 49.9914898,48.481 C49.9914898,42.517 47.4602456,39.892 41.7062456,39.892 Z M67.138449,44.5186327 L66.7804257,44.5447462 L65.7427945,57.112 L69.7124655,57.112 C71.9057486,57.112 75.4176223,54.7146164 75.4176223,50.7666164 C75.4176223,46.7346164 73.4542794,45.016 71.2337486,44.5447462 C70.4954752,44.3880655 69.1303753,44.3793611 67.138449,44.5186327 Z M97.2723665,44.0849052 C94.7093296,44.0849052 93.502932,45.98689 92.6199582,48.2599222 L92.535484,48.481 L101.827223,48.481 C101.495114,45.31 99.9180821,44.0849052 97.2723665,44.0849052 Z" id="Combined-Shape" fill="#211D1E" fill-rule="nonzero"></path>
    </g>
</svg>