<?xml version="1.0" encoding="UTF-8"?>
<svg width="250px" height="100px" viewBox="0 0 250 100" version="1.1" xmlns="http://www.w3.org/2000/svg" xmlns:xlink="http://www.w3.org/1999/xlink">
    <!-- Generator: Sketch 59.1 (86144) - https://sketch.com -->
    <title>brand/brand_01</title>
    <desc>Created with Sketch.</desc>
    <g id="brand/brand_01" stroke="none" stroke-width="1" fill="none" fill-rule="evenodd">
        <g id="Group" transform="translate(51.000000, 12.000000)">
            <path d="M54.9748055,57.5741836 C56.7560062,57.5741836 57.7408055,57.9171427 58.571304,59.0301947 L58.571304,57.7113311 L61.3701288,57.7113311 L61.3701288,68.9374389 C61.5901399,73.591027 58.9165536,76.2513873 55.2612859,76.2513873 C51.9636895,76.2513873 50.0013462,73.9642161 49.5346667,72.3472924 L51.9636895,71.4006245 C52.2313332,72.1367012 53.314685,73.6959503 55.2612859,73.6959503 C58.1585412,73.6959503 58.7549773,71.7510903 58.7549773,69.2630916 L58.7549773,68.9374389 C57.9280841,69.8487294 57.0214263,70.4823538 54.9748055,70.4823538 C52.9281847,70.4823538 51.0981666,68.985132 50.3700254,68.1162828 C49.6418841,67.2474337 48.9674212,65.9760919 48.9674212,63.8002072 C48.9674212,61.6243226 49.8828774,60.3460922 50.6787781,59.4656552 C51.4746788,58.5852182 53.1936049,57.5741836 54.9748055,57.5741836 Z M10.1128647,50.5 C12.669913,50.5 14.7053782,50.9037528 16.8345995,52.9075584 L17.0715968,53.1368488 L15.0855316,55.1232832 C13.8543602,53.7992671 12.10168,53.1368488 10.1128647,53.1368488 C6.22993956,53.1368488 3.080056,56.7098372 3.080056,60.5873128 C3.080056,64.4647884 6.46670329,67.6938837 10.3496284,67.6938837 C13.5793285,67.6938837 16.1796512,65.6663654 16.8365116,62.5004955 L16.8843073,62.2482096 L10.1128647,62.2482096 L10.1128647,59.4656552 L19.4914607,59.4656552 L19.4914607,60.6009406 C19.8220159,65.9652508 16.2841619,70.6682739 10.1128647,70.5006769 C3.94156753,70.3330798 4.26325641e-14,65.8024322 4.26325641e-14,60.6009406 C4.26325641e-14,55.3994489 3.74587713,50.5 10.1128647,50.5 Z M27.2087385,57.4180204 C29.2412743,57.4180204 30.4801174,58.0727473 31.7367927,59.3494834 C32.993468,60.6262196 33.5835105,61.7201196 33.5835105,63.7498027 C33.5835105,65.7794858 33.1762708,67.3129035 31.9305231,68.600552 C30.6847754,69.8882004 29.2631293,70.5006769 27.2415212,70.5006769 C25.2199131,70.5006769 23.5753323,70.0166778 22.3077294,68.7290294 C21.0401265,67.441381 20.4662554,65.7881961 20.4662554,63.7694253 C20.4662554,61.7506545 21.0455903,60.6371318 22.291338,59.3494834 C23.5370857,58.061835 25.1762028,57.4180204 27.2087385,57.4180204 Z M41.3923752,57.3996974 C43.424911,57.3996974 44.6637541,58.0544242 45.9204294,59.3311604 C47.1771047,60.6078965 47.7671472,61.7017965 47.7671472,63.7314796 C47.7671472,65.7611628 47.3599075,67.2945805 46.1141598,68.5822289 C44.8684121,69.8698773 43.446766,70.4823538 41.4251579,70.4823538 C39.4035498,70.4823538 37.758969,69.9983548 36.4913661,68.7107063 C35.2237632,67.4230579 34.6498921,65.7698731 34.6498921,63.7511022 C34.6498921,61.7323314 35.229227,60.6188088 36.4749747,59.3311604 C37.7207224,58.0435119 39.3598395,57.3996974 41.3923752,57.3996974 Z M94.3843647,52.1544545 C95.5343053,52.1544545 96.6636943,52.3753826 97.7725655,52.8172452 C98.8814368,53.2591079 99.7890548,53.938257 100.495447,54.8547129 L98.52413,56.352129 C98.0312984,55.7138829 97.4070543,55.22293 96.6513791,54.8792607 C95.8957038,54.5355898 95.1153987,54.3637569 94.3104403,54.3637569 C93.324777,54.3637569 92.4335864,54.5478635 91.6368419,54.9160824 C90.8400974,55.2843013 90.1583571,55.7875263 89.5916007,56.4257724 C89.0248443,57.0640185 88.5854093,57.812719 88.2732826,58.6718964 C87.9611558,59.5310738 87.8050948,60.4516073 87.8050948,61.4335243 C87.8050948,62.3499802 87.9529421,63.2173273 88.2486411,64.0355915 C88.5443401,64.8538557 88.9714545,65.5739174 89.529997,66.1957982 C90.0885396,66.817679 90.7702799,67.3086302 91.5752382,67.6686664 C92.3801966,68.0287027 93.2919216,68.2087181 94.3104403,68.2087181 C95.3125314,68.2087181 96.1914014,68.0041551 96.9470766,67.595023 C97.7027518,67.1858909 98.3434234,66.6131146 98.8691105,65.8766768 L100.865069,67.3740928 C100.733647,67.5541109 100.503662,67.8118603 100.175108,68.1473486 C99.8465534,68.4828369 99.4112253,68.8183202 98.8691105,69.1538085 C98.3269957,69.4892969 97.6740035,69.7838676 96.9101144,70.0375295 C96.1462253,70.2911914 95.2632485,70.4180204 94.2611574,70.4180204 C92.8812287,70.4180204 91.6368474,70.1561798 90.5279762,69.6324907 C89.4191049,69.1088016 88.4745251,68.42147 87.6942083,67.5704752 C86.9138914,66.7194804 86.3183954,65.7580344 85.9077024,64.6861083 C85.4970093,63.6141822 85.2916659,62.5299983 85.2916659,61.4335243 C85.2916659,60.091571 85.5134368,58.8519193 85.9569853,57.7145321 C86.4005338,56.5771448 87.020671,55.5952425 87.8174156,54.7687956 C88.6141601,53.9423488 89.5710606,53.300021 90.6881457,52.841793 C91.8052308,52.3835651 93.0372915,52.1544545 94.3843647,52.1544545 Z M73.6456865,57.5741836 C75.5798737,57.5741836 76.6483957,58.0173799 77.7302292,59.2286424 C78.4514516,60.0361507 78.9919369,61.0764239 79.3516853,62.3494621 L70.978544,65.8107858 C71.1398763,67.6938837 73.0137381,67.8264771 73.9753679,67.8264771 C75.4833783,67.8264771 76.4206046,67.5121825 77.125432,66.1157369 L79.3516853,67.4955398 C77.8366177,69.6322527 76.1989419,70.3263704 74.172064,70.3263704 C72.2051154,70.3263704 70.6206139,69.8554636 69.4513595,68.600552 C68.2821051,67.3456403 67.4626956,65.8026518 67.4626956,63.8245068 C67.4626956,61.8463618 68.0868651,60.6262196 69.2124091,59.3494834 C70.337953,58.0727473 71.7114993,57.5741836 73.6456865,57.5741836 Z M124.14504,58.3253195 L124.14504,65.1987045 C124.14504,65.7387589 124.218964,66.2010712 124.366813,66.5856554 C124.514663,66.9702396 124.711792,67.2811753 124.958208,67.5184719 C125.204624,67.7557686 125.487998,67.9276015 125.808339,68.0339758 C126.128679,68.1403502 126.461336,68.1935365 126.806318,68.1935365 C127.266294,68.1935365 127.693408,68.1198939 128.087674,67.9726063 C128.481939,67.8253195 128.826916,67.592117 129.122615,67.2729939 C129.418314,66.9538709 129.648299,66.5488362 129.812576,66.0578776 C129.976853,65.5669191 130.05899,64.9859602 130.05899,64.3149836 L130.05899,58.3253195 L132.276722,58.3253195 L132.276722,69.9609784 L130.05899,69.9609784 L130.05899,68.1689887 L130.009708,68.1689887 C129.730436,68.7908695 129.245826,69.2940945 128.555861,69.6786787 C127.865897,70.0632628 127.069164,70.2555521 126.16564,70.2555521 C125.590669,70.2555521 125.048563,70.1696356 124.539303,69.9978001 C124.030044,69.8259646 123.582395,69.5600328 123.196344,69.1999965 C122.810292,68.8399602 122.502277,68.3776479 122.272289,67.8130456 C122.042301,67.2484433 121.927309,66.581568 121.927309,65.8123996 L121.927309,58.3253195 L124.14504,58.3253195 Z M146.712784,52.8172452 L146.712784,69.8999949 L144.495053,69.8999949 L144.495053,68.2307442 L144.44577,68.2307442 C144.018649,68.852625 143.431367,69.3353937 142.683905,69.6790646 C141.936444,70.0227356 141.16846,70.1945685 140.379929,70.1945685 C139.476404,70.1945685 138.659137,70.0391007 137.928104,69.7281603 C137.19707,69.4172199 136.572826,68.9835463 136.055353,68.4271267 C135.537879,67.870707 135.139513,67.224288 134.860242,66.4878502 C134.580971,65.7514124 134.441337,64.9495255 134.441337,64.0821654 C134.441337,63.2148054 134.580971,62.4088272 134.860242,61.6642068 C135.139513,60.9195863 135.537879,60.2731673 136.055353,59.7249303 C136.572826,59.1766933 137.19707,58.747111 137.928104,58.4361706 C138.659137,58.1252302 139.476404,57.9697623 140.379929,57.9697623 C141.217743,57.9697623 142.006262,58.1456865 142.745509,58.4975401 C143.484757,58.8493937 144.051505,59.3280711 144.44577,59.9335866 L144.495053,59.9335866 L144.495053,52.8172452 L146.712784,52.8172452 Z M113.741161,57.9548381 C114.61183,57.9548381 115.42499,58.1143972 116.180665,58.4335202 C116.936341,58.7526433 117.59344,59.1904081 118.151982,59.7468277 C118.710525,60.3032474 119.14996,60.9496664 119.4703,61.6861042 C119.790641,62.422542 119.950809,63.2162464 119.950809,64.0672412 C119.950809,64.918236 119.790641,65.7160316 119.4703,66.460652 C119.14996,67.2052725 118.710525,67.8516915 118.151982,68.3999285 C117.59344,68.9481655 116.936341,69.3818391 116.180665,69.7009621 C115.42499,70.0200852 114.61183,70.1796443 113.741161,70.1796443 C112.870492,70.1796443 112.057332,70.0200852 111.301656,69.7009621 C110.545981,69.3818391 109.888882,68.9481655 109.330339,68.3999285 C108.771797,67.8516915 108.332362,67.2052725 108.012021,66.460652 C107.691681,65.7160316 107.531513,64.918236 107.531513,64.0672412 C107.531513,63.2162464 107.691681,62.422542 108.012021,61.6861042 C108.332362,60.9496664 108.771797,60.3032474 109.330339,59.7468277 C109.888882,59.1904081 110.545981,58.7526433 111.301656,58.4335202 C112.057332,58.1143972 112.870492,57.9548381 113.741161,57.9548381 Z M66.2013811,51.0327433 L66.2013811,70.0192392 L63.2681898,70.0192392 L63.2681898,51.0327433 L66.2013811,51.0327433 Z M105.655267,52.8172452 L105.655267,69.9910842 L103.437536,69.9910842 L103.437536,52.8172452 L105.655267,52.8172452 Z M140.650985,60.0317778 C140.059587,60.0317778 139.525694,60.1340593 139.04929,60.3386254 C138.572886,60.5431914 138.170413,60.8213971 137.841859,61.1732507 C137.513304,61.5251043 137.258678,61.9505953 137.077973,62.4497365 C136.897268,62.9488776 136.806917,63.4930152 136.806917,64.0821654 C136.806917,64.6713157 136.897268,65.2154532 137.077973,65.7145944 C137.258678,66.2137355 137.513304,66.6392265 137.841859,66.9910801 C138.170413,67.3429338 138.572886,67.6211394 139.04929,67.8257055 C139.525694,68.0302715 140.059587,68.132553 140.650985,68.132553 C141.242383,68.132553 141.776276,68.0302715 142.25268,67.8257055 C142.729084,67.6211394 143.131557,67.3429338 143.460111,66.9910801 C143.788666,66.6392265 144.043292,66.2137355 144.223997,65.7145944 C144.404702,65.2154532 144.495053,64.6713157 144.495053,64.0821654 C144.495053,63.4930152 144.404702,62.9488776 144.223997,62.4497365 C144.043292,61.9505953 143.788666,61.5251043 143.460111,61.1732507 C143.131557,60.8213971 142.729084,60.5431914 142.25268,60.3386254 C141.776276,60.1340593 141.242383,60.0317778 140.650985,60.0317778 Z M113.741161,60.0168536 C113.149763,60.0168536 112.61587,60.1191351 112.139466,60.3237011 C111.663062,60.5282672 111.260589,60.8064728 110.932034,61.1583265 C110.60348,61.5101801 110.348854,61.9356711 110.168149,62.4348122 C109.987444,62.9339534 109.897093,63.4780909 109.897093,64.0672412 C109.897093,64.6563914 109.987444,65.200529 110.168149,65.6996701 C110.348854,66.1988113 110.60348,66.6243023 110.932034,66.9761559 C111.260589,67.3280095 111.663062,67.6062152 112.139466,67.8107812 C112.61587,68.0153473 113.149763,68.1176288 113.741161,68.1176288 C114.332559,68.1176288 114.866452,68.0153473 115.342856,67.8107812 C115.81926,67.6062152 116.221733,67.3280095 116.550287,66.9761559 C116.878842,66.6243023 117.133468,66.1988113 117.314173,65.6996701 C117.494878,65.200529 117.585229,64.6563914 117.585229,64.0672412 C117.585229,63.4780909 117.494878,62.9339534 117.314173,62.4348122 C117.133468,61.9356711 116.878842,61.5101801 116.550287,61.1583265 C116.221733,60.8064728 115.81926,60.5282672 115.342856,60.3237011 C114.866452,60.1191351 114.332559,60.0168536 113.741161,60.0168536 Z M27.2415212,59.9722092 C26.1815429,59.9722092 25.27603,60.2597007 24.5985181,61.0453845 C23.9210062,61.8310683 23.4049455,62.5963555 23.4049455,63.8185303 C23.4049455,65.0188805 23.7601132,65.9859789 24.4376251,66.7498381 C25.115137,67.5136974 26.1870066,67.9106129 27.2579126,67.9106129 C28.3288185,67.9106129 29.1866231,67.5014087 29.8313522,66.6829881 C30.4760812,65.8645675 30.7984409,64.8933896 30.7984409,63.7694253 C30.7984409,62.645461 30.4706175,62.0182546 29.8149608,61.1998339 C29.1593041,60.3814133 28.3014995,59.9722092 27.2415212,59.9722092 Z M41.4251579,59.9538861 C40.3651796,59.9538861 39.4596667,60.2413776 38.7821548,61.0270614 C38.1046429,61.8127452 37.5885822,62.5780324 37.5885822,63.8002072 C37.5885822,65.0005575 37.9437499,65.9676558 38.6212618,66.7315151 C39.2987737,67.4953743 40.3706433,67.8922898 41.4415493,67.8922898 C42.5124552,67.8922898 43.3702598,67.4830857 44.0149889,66.664665 C44.6597179,65.8462444 44.9820776,64.8750665 44.9820776,63.7511022 C44.9820776,62.6271379 44.6542542,61.9999315 43.9985975,61.1815109 C43.3429408,60.3630903 42.4851362,59.9538861 41.4251579,59.9538861 Z M55.4979824,59.9722092 C54.003617,59.9722092 53.2420282,60.7215151 52.5754439,61.5071989 C51.9088596,62.2928827 51.7675946,62.9573966 51.7675946,63.7314796 C51.7675946,66.0994099 53.2279214,67.8264771 55.3679018,67.8264771 C56.4606629,67.8264771 57.283355,67.4394366 57.9280841,66.664665 C58.5728132,65.8898935 58.7549773,65.6323033 58.7549773,63.5206461 C58.7549773,61.4089889 56.9923478,59.9722092 55.4979824,59.9722092 Z M70.978544,61.3665512 C70.4212358,62.0758491 70.3489116,62.9021468 70.3489116,63.7314796 L75.9857712,61.1998339 C75.822648,60.4726355 75.1616023,60.0864 73.8664459,59.9722092 C72.5712896,59.8580183 71.5358521,60.6572534 70.978544,61.3665512 Z" id="Combined-Shape" fill="#5C6166" fill-rule="nonzero"></path>
            <path d="M72.7416659,1.77635684e-14 C78.1589704,1.77635684e-14 83.0914028,2.0759849 86.7868153,5.47580717 L80.3048727,11.9574123 C78.2610968,10.2367151 75.6224502,9.2 72.7416659,9.2 C68.0765977,9.2 64.0465051,11.9186538 62.1493051,15.8580445 L52.3847951,16.7096362 C54.2647787,7.18376912 62.6642927,1.77635684e-14 72.7416659,1.77635684e-14 Z" id="Combined-Shape" fill="#DD4235"></path>
            <path d="M61.2916659,12.5 C66.2442773,12.5 70.6362847,14.900231 73.3678983,18.600903 L66.8154502,25.1534345 C65.9019778,23.0058509 63.772677,21.5 61.2916659,21.5 C57.9779574,21.5 55.2916659,24.1862915 55.2916659,27.5 C55.2916659,29.9810111 56.7975167,32.1103119 58.9451003,33.0237843 L52.3925689,39.5762324 C48.6918969,36.8446189 46.2916659,32.4526114 46.2916659,27.5 C46.2916659,19.2157288 53.0073946,12.5 61.2916659,12.5 Z" id="Combined-Shape" fill="#F0B61B"></path>
            <path d="M72.2916659,42.4672063 L72.2916659,33.5 L85.2916659,33.5 L85.4974516,33.4782046 C88.0237377,33.1562062 90.1010634,30.8749606 90.1010634,27.6055938 C90.1010634,24.2922332 87.5851333,21.767474 84.4679528,21.7025833 C84.4836821,21.4537458 84.4916659,21.2028053 84.4916659,20.95 C84.4916659,17.2134741 82.7475557,13.8843069 80.0290287,11.7321918 L86.5232668,5.23744943 C89.4368991,7.8278428 91.6157902,11.2266756 92.7080962,15.0821037 C96.6814912,17.7803002 99.2916659,22.3353306 99.2916659,27.5 C99.2916659,35.3394178 93.277822,41.7742271 85.6118604,42.4427019 L85.2916659,42.4672063 L72.2916659,42.4672063 Z" id="Combined-Shape" fill="#4579BD"></path>
            <path d="M58.3221808,32.7148394 C59.1102113,33.1645351 60.0100359,33.4407586 60.9696511,33.4915064 L61.2916659,33.5 L70.3151545,33.500993 C70.3353153,33.4895551 70.3543613,33.4778035 70.3723191,33.4657424 L72.5284338,33.5 L74.2916659,33.5 L74.2916659,42.4672063 L62.2691515,42.4686605 C61.9460016,42.4894466 61.6200662,42.5 61.2916659,42.5 C57.7216227,42.5 54.4428756,41.2528133 51.8673582,39.1703737 L58.3221808,32.7148394 Z" id="Combined-Shape" fill="#34A052"></path>
        </g>
    </g>
</svg>