<?xml version="1.0" encoding="UTF-8"?>
<svg width="80px" height="80px" viewBox="0 0 80 80" version="1.1" xmlns="http://www.w3.org/2000/svg" xmlns:xlink="http://www.w3.org/1999/xlink">
    <!-- Generator: Sketch 59.1 (86144) - https://sketch.com -->
    <title>ic/cat_d/ic_cat_d_08</title>
    <desc>Created with Sketch.</desc>
    <g id="ic/cat_d/ic_cat_d_08" stroke="none" stroke-width="1" fill="none" fill-rule="evenodd">
        <path d="M61.9685794,28.6997274 C63.4024481,26.3623667 63.1080363,23.3567724 61.2478648,21.3420867 C59.3876932,19.327401 56.4151183,18.7946384 53.971055,20.0378933 C43.6292561,13.2288022 29.8326552,15.206789 21.8204538,24.6472507 C13.8082523,34.0877124 14.0995241,48.0225237 22.4992124,57.1199273 C30.8989008,66.2173309 44.7661043,67.6170605 54.8143408,60.381756 C64.8625773,53.1464514 67.9326342,39.5509264 61.9685794,28.6997274 L61.9685794,28.6997274 Z M45.733986,43.2413735 C43.6442424,43.2410649 41.6985631,44.3062772 40.5728879,46.0669498 C37.7781284,45.2902053 34.9381263,44.6865602 32.0690533,44.2594521 C32.0880639,41.375465 32.4983062,38.5073929 33.2885533,35.7337247 C35.0249263,35.9373034 36.7655337,35.3891401 38.0719171,34.2273167 C39.3783004,33.0654934 40.1259248,31.4007645 40.1264638,29.6524748 C40.1264638,29.5472189 40.1264638,29.441963 40.1264638,29.3367071 C43.6707551,28.397757 47.2845506,27.7441699 50.9331935,27.382214 C51.166161,28.1162048 51.5355737,28.7996275 52.0220327,29.396594 C49.3301071,33.7070218 47.221183,38.3551389 45.7503186,43.2195964 L45.733986,43.2413735 Z M19.0573645,40.5192383 C19.0573645,40.3885759 19.0573645,40.2633576 19.0573645,40.1326951 C20.5073116,38.8426433 22.0463949,37.6564779 23.6632142,36.5830309 C25.4258464,35.4109908 27.2625741,34.3544034 29.1618525,33.4199098 C29.52268,33.8844614 29.9479899,34.295111 30.424906,34.6394264 C29.5410076,37.6471049 29.0667184,40.760242 29.0148592,43.8946859 C26.2897456,43.6037498 23.5510548,43.4583628 20.8104554,43.4591443 L19.2534152,43.4591443 C19.1205856,42.4775451 19.0551022,41.4880045 19.0573645,40.4974613 L19.0573645,40.5192383 Z M51.613718,22.166603 C51.1830083,22.8287525 50.8853006,23.568409 50.7372024,24.3443112 C46.8393415,24.7248617 42.9792022,25.4240662 39.1955063,26.434911 C38.9680009,26.0727196 38.7034414,25.7351735 38.4060978,25.427721 C40.0921426,23.1852737 42.0632031,21.1720926 44.2694972,19.4390236 C46.8661995,19.9035077 49.3544199,20.8449095 51.6082738,22.2156015 L51.613718,22.166603 Z M25.3345825,25.3406126 C29.2165078,21.4471278 34.4503728,19.2006693 39.9468053,19.0688132 C39.7108902,19.2938431 39.4767897,19.5206877 39.244504,19.749347 C37.9843273,21.0078523 36.8213805,22.3600921 35.7656626,23.7944399 C33.7558309,23.1984582 31.5808084,23.6718175 30.0004262,25.0491525 C28.4200441,26.4264875 27.6538742,28.5164369 27.9695735,30.5888892 C25.8997971,31.598645 23.8992087,32.7444521 21.9809576,34.0187796 C21.1570692,34.5668361 20.3640313,35.1312255 19.6018438,35.7119476 C20.4979119,31.783933 22.4850904,28.188846 25.3345825,25.3406126 L25.3345825,25.3406126 Z M25.3345825,55.6543099 C22.7811734,53.1048444 20.9139957,49.9510129 19.9067188,46.4861548 L20.8104554,46.4861548 C23.5771495,46.4852704 26.3417101,46.639768 29.0910779,46.9489216 C29.3570115,50.8074565 30.2660135,54.594403 31.7805109,58.15323 C32.12531,58.966241 32.4991448,59.764734 32.9020153,60.5487089 L32.1670488,60.2547183 C29.6127681,59.1788694 27.2921747,57.6163769 25.3345825,55.6543099 Z M37.0504929,61.6430072 C34.3107149,57.3408781 32.6451892,52.4431949 32.1942698,47.3626862 C34.6976993,47.7561266 37.1769344,48.2905144 39.6201536,48.9633016 C39.6201536,49.0885199 39.6201536,49.2191823 39.6201536,49.3498448 C39.6130767,51.7610446 41.0188902,53.9528655 43.2133231,54.951999 C42.9193365,57.2131859 42.7378633,59.5052238 42.6689035,61.8281124 C41.9430107,61.9007027 41.2171178,61.9369978 40.491225,61.9369978 C39.3387507,61.9362122 38.1881807,61.8433643 37.0504929,61.6593401 L37.0504929,61.6430072 Z M45.761207,61.2727969 C45.8519436,59.3128595 46.0207137,57.3728845 46.2675172,55.4528719 C47.9573227,55.3118067 49.5128354,54.4758798 50.5629881,53.1445013 C52.217172,53.9833539 53.8221849,54.9158372 55.3702135,55.9374119 C52.6884142,58.5220521 49.3779267,60.3612368 45.7666512,61.2727969 L45.761207,61.2727969 Z M57.439008,53.6508184 L57.2103518,53.4983788 C55.4732032,52.343388 53.667888,51.2943638 51.8042649,50.3570348 C52.2232146,47.8092645 50.9994315,45.2723842 48.7446266,44.0144599 C50.1054512,39.5116643 52.0433507,35.2039425 54.5100304,31.1986475 C56.1877963,31.8560299 58.0700135,31.740506 59.6547959,30.8828798 C59.8616754,31.2966444 60.0576665,31.7194827 60.2427691,32.1513948 C63.2669399,39.3029044 62.18375,47.5310936 57.4117871,53.6562627 L57.439008,53.6508184 Z" id="Shape" fill="#209CFF"></path>
    </g>
</svg>