<?xml version="1.0" encoding="UTF-8"?>
<svg width="80px" height="80px" viewBox="0 0 80 80" version="1.1" xmlns="http://www.w3.org/2000/svg" xmlns:xlink="http://www.w3.org/1999/xlink">
    <!-- Generator: Sketch 59.1 (86144) - https://sketch.com -->
    <title>ic/cat_f/ic_cat_f_07</title>
    <desc>Created with Sketch.</desc>
    <g id="ic/cat_f/ic_cat_f_07" stroke="none" stroke-width="1" fill="none" fill-rule="evenodd">
        <path d="M52.7188889,24.2068376 L50.3001709,24.2068376 L50.3001709,17.4901709 C50.3001709,16.1146154 49.1857265,15 47.8100855,15 C46.4345299,15 45.3199145,16.1147009 45.3199145,17.4901709 L45.3199145,24.2066667 L31.3908547,24.2066667 C29.875812,24.2066667 28.6469231,25.4353846 28.6469231,26.9504274 L28.6469231,31.0398291 C28.2148718,30.3023077 27.422906,29.8020513 26.5061538,29.8020513 C25.1304274,29.8020513 24.0159829,30.9167521 24.0159829,32.2920513 L24.0159829,43.8988889 C24.0159829,45.2744444 25.1305128,46.3891453 26.5061538,46.3891453 C27.422906,46.3891453 28.2148718,45.8888889 28.6469231,45.1515385 L28.6469231,62.1965812 C28.6469231,63.7116239 29.875812,64.9403419 31.3908547,64.9403419 L52.7189744,64.9403419 C54.2341026,64.9403419 55.462906,63.7116239 55.462906,62.1965812 L55.462906,26.9505128 C55.462906,25.4355556 54.2339316,24.2068376 52.7188889,24.2068376 Z M42.0547863,62.9034188 C40.5590598,62.9034188 39.3482051,61.6931624 39.3482051,60.1976923 C39.3482051,58.7037607 40.5591453,57.4911966 42.0547863,57.4911966 C43.5487179,57.4911966 44.7612821,58.7038462 44.7612821,60.1976923 C44.7612821,61.6931624 43.5487179,62.9034188 42.0547863,62.9034188 Z M51.6740171,55.2239316 C51.6740171,55.6064957 51.3635043,55.9168376 50.9811966,55.9168376 L33.1309402,55.9168376 C32.7483761,55.9168376 32.4378632,55.6063248 32.4378632,55.2239316 L32.4378632,29.2550427 C32.4378632,28.8723077 32.7483761,28.5619658 33.1309402,28.5619658 L50.9809402,28.5619658 C51.3634188,28.5619658 51.6737607,28.8723077 51.6737607,29.2550427 L51.6737607,55.2239316 L51.6740171,55.2239316 Z" id="Shape" fill="#209CFF"></path>
    </g>
</svg>