<?xml version="1.0" encoding="utf-8"?>
<!-- Generator: $$$/GeneralStr/196=Adobe Illustrator 27.6.0, SVG Export Plug-In . SVG Version: 6.00 Build 0)  -->
<svg version="1.1" id="圖層_1" xmlns="http://www.w3.org/2000/svg" xmlns:xlink="http://www.w3.org/1999/xlink" x="0px" y="0px"
	 viewBox="0 0 80 80" style="enable-background:new 0 0 80 80;" xml:space="preserve">
<style type="text/css">
	.st0{fill:#209CFF;}
</style>
<g>
	<path class="st0" d="M41.9,48.4c-1.4-1.2-3.1-2.5-4.5-3.8c0.1,0-9.5,16.4-9.5,16.4c-0.8,1.4-0.3,3.2,1.1,4l1.2,0.7
		c1.4,0.8,3.2,0.3,4-1.1l8.8-15.3C43,49.3,41.9,48.5,41.9,48.4z"/>
	<path class="st0" d="M36.9,43.3c0,0.1,0,0.3,0,0.4C36.9,43.6,36.9,43.4,36.9,43.3z"/>
	<path class="st0" d="M57.2,63l-5.1-15.3c-0.4-1.8-3.2-3.6-4.5-4.8l-0.9-0.8c0.1-0.7,0.7-6.2,0.8-7c0.3-2.7,0.7-5.8,1-8.5
		c0.2-1.7-1-3.2-2.7-3.4L43.3,23c-1.2-0.3-2.4-0.2-3.5,0.3l-0.2,0.1c0,0-2,1.1-2,1.1c-0.7,0.4-1.3,1-1.7,1.8l-3.9,7.9
		c-0.8,1.1-0.6,2.7,0.5,3.5c1,1,2.7,1,3.7,0c0.1-0.1,0.1-0.1,0.2-0.2c0,0,0-0.1,0.1-0.1l1.3-2.2l1.2-2.2l-0.3,2.5
		c-0.2,1.3-0.7,6.7-0.9,7.9c-0.2,0.8,1.1,1.4,1.6,1.9c0,0.1,0,0.1,0.1,0.1c-0.1-0.1-0.2,0.1-0.2,0.1c0.2-0.1,0.9,0.5,0.9,0.5
		c1,0.9,2.3,1.9,3.3,2.8l0.8,0.7c0.5,0.5,1.6,1.1,1.7,1.9c0.1,0.2,4.6,15.1,4.8,15.5c0.8,1.4,2.6,1.9,4,1.1c0,0,0,0,0,0l1.2-0.7
		C57.5,66.1,58,64.4,57.2,63z M43.6,42.9c0-0.1,0-0.1,0-0.2C43.6,42.7,43.6,42.8,43.6,42.9z"/>
	<path class="st0" d="M48.9,30.8c-0.1,0.9-0.3,3.1-0.4,4l3.8,3.8c1,1,2.6,1,3.6,0c1-1,1-2.6,0-3.6l0,0l-6.6-6.6L48.9,30.8z"/>
	<path class="st0" d="M41.2,21.9c3.5,2.7,9.2,0.2,9.2-4.4c-0.1-3.1-2.6-5.6-5.7-5.5C39.3,11.9,36.9,18.8,41.2,21.9z"/>
	<path class="st0" d="M15.9,61.9c0.1-0.1,0.1-0.2,0.1-0.3C16,61.7,15.8,61.9,15.9,61.9z"/>
	<path class="st0" d="M17.5,59.4c-1.3-0.9-3-0.6-3.9,0.7s-0.6,3,0.7,3.9c0.1,0,0.1,0.1,0.2,0.1c1.3,0.9,3,0.6,3.9-0.7s0.6-3-0.7-3.9
		C17.6,59.5,17.5,59.5,17.5,59.4z M15.5,62.5c-1-0.7-0.2-2,0.9-1.4C17.4,61.8,16.6,63.2,15.5,62.5z"/>
	<path class="st0" d="M33.4,39.2c-0.6-0.2-1.2-0.6-1.7-1c-0.4,0.6-4.1,6.4-4.4,6.8c-0.4-0.7-3.7-2.5-4.3-3c-1.4-0.9-3.3-0.5-4.2,0.9
		l-8.3,13c-0.4,0.7-0.6,1.5-0.4,2.3c0.3,1.1,1.1,2,2.1,2.4c0.2-0.7,0.6-1.2,1.1-1.7c1.7-1.4,4.3-1.2,5.7,0.5
		c0.3,0.4,0.6,0.8,0.7,1.3C23.5,54.7,29.6,45.2,33.4,39.2z"/>
</g>
</svg>
