<?xml version="1.0" encoding="UTF-8"?>
<svg width="80px" height="80px" viewBox="0 0 80 80" version="1.1" xmlns="http://www.w3.org/2000/svg" xmlns:xlink="http://www.w3.org/1999/xlink">
    <!-- Generator: Sketch 59.1 (86144) - https://sketch.com -->
    <title>ic/cat_f/ic_cat_f_04</title>
    <desc>Created with Sketch.</desc>
    <g id="ic/cat_f/ic_cat_f_04" stroke="none" stroke-width="1" fill="none" fill-rule="evenodd">
        <path d="M61.968764,53.3837834 L54.8647815,46.2629097 C53.4497998,44.8504174 51.1065626,44.8933326 49.6422872,46.3614557 L46.0632703,49.9477873 C45.8371534,49.8228829 45.6031072,49.6924155 45.3570349,49.5540008 C43.0969231,48.2988642 40.0035752,46.5785482 36.7484697,43.3136831 C33.483717,40.0419303 31.7657043,36.936805 30.5095727,34.6701152 C30.3770214,34.4299756 30.2500206,34.1984456 30.1246057,33.9785715 L32.5266518,31.5746591 L33.7075873,30.3895908 C35.1741093,28.9193485 35.2145487,26.5714642 33.8028709,25.1548658 L26.6988884,18.0331975 C25.2872106,16.6185859 22.9429162,16.6615011 21.4763941,18.1317434 L19.4742485,20.149949 L19.5289606,20.2043878 C18.8576141,21.0629563 18.2966169,22.0531844 17.8791398,23.1210306 C17.494305,24.1374846 17.2547083,25.1074472 17.145152,26.0793966 C16.207117,33.8735353 19.7607602,40.9967931 29.4048906,50.6629079 C42.7360083,64.0233045 53.4791382,63.014003 53.9426051,62.96473 C54.9520037,62.8437993 55.919377,62.6020703 56.9024767,62.2194099 C57.958658,61.8058877 58.9459867,61.2444141 59.8020857,60.5730034 L59.8458289,60.611945 L61.8741411,58.6212898 C63.3376236,57.1513124 63.379781,54.8026334 61.968764,53.3837834 Z" id="Path" fill="#209CFF"></path>
    </g>
</svg>