<?xml version="1.0" encoding="UTF-8"?>
<svg width="80px" height="80px" viewBox="0 0 80 80" version="1.1" xmlns="http://www.w3.org/2000/svg" xmlns:xlink="http://www.w3.org/1999/xlink">
    <!-- Generator: Sketch 63.1 (92452) - https://sketch.com -->
    <title>ic/cat_f/ic_cat_f_10</title>
    <desc>Created with Sketch.</desc>
    <g id="ic/cat_f/ic_cat_f_10" stroke="none" stroke-width="1" fill="none" fill-rule="evenodd">
        <path d="M54.1342974,28.5643649 C54.8797802,28.9148815 55.6668969,29.1393738 56.4758747,29.1393738 C57.8918006,29.1393738 59.3058843,28.6029438 60.3834569,27.5282466 C62.5388477,25.3788523 62.5388477,21.7615013 60.3834569,19.612107 C58.2280661,17.4627127 54.7231919,17.4625902 52.567924,19.6119845 C50.8741921,21.3010043 50.5610157,23.9215507 51.5290379,25.966231 L47.8044489,29.6804578 L37.4022014,30.9858934 L27.6197977,21.230705 C26.9002287,20.513138 25.7342299,20.513138 25.014661,21.230705 C20.4916563,25.7411263 18,31.738855 18,38.1186982 C18,44.4967044 20.4917791,50.4944331 25.014661,55.0048544 C29.5375428,59.5152757 35.552127,62 41.9479267,62 C48.3455687,62 54.3600301,59.5151532 58.8830347,55.0048544 C59.6026037,54.2872873 59.6026037,53.1245324 58.8830347,52.4069654 L49.100631,42.651777 L50.4097085,32.2784693 L54.1342974,28.5643649 Z M45.8014707,39.3620402 L40.7009933,34.2757527 L46.5355317,33.5437339 L45.8014707,39.3620402 Z" id="Shape" fill="#209CFF"></path>
    </g>
</svg>